<?xml version="1.0" encoding="utf-8"?>
<!-- Generator: Adobe Illustrator 24.0.1, SVG Export Plug-In . SVG Version: 6.00 Build 0)  -->
<svg version="1.1" id="Layer_1" xmlns="http://www.w3.org/2000/svg" xmlns:xlink="http://www.w3.org/1999/xlink" x="0px" y="0px"
	 viewBox="0 0 218 148" style="enable-background:new 0 0 218 148;" xml:space="preserve">
<style type="text/css">
	.st0{fill:none;stroke:#FF0000;}
</style>
<path class="st0" d="M34.5,117.5c-10.2-2.9-15.5-5.3-24-11.5C3,99,0.3,93.9,1.5,79.5C4.7,54.5,7,40.5,17,16
	C26.3,3.1,33.7-1.1,54.5,2c49.7,9.9,77.1,15.9,137,31c19.2,9,25.8,16.5,25,34.5c-3.9,26.5-7.8,38.4-14,60
	c-8.1,16.8-17.4,21.1-43.5,18.5c-27-5.7-39-10-52.5-11.5c-20-1-40.1,2.1-63,4.5c-5.4,0.3-8.4-2-8-9c0.2-3.5,1.6-8.4,6-21.5"/>
</svg>
