<?xml version="1.0" encoding="utf-8"?>
<!-- Generator: Adobe Illustrator 24.0.1, SVG Export Plug-In . SVG Version: 6.00 Build 0)  -->
<svg version="1.1" id="Layer_1" xmlns="http://www.w3.org/2000/svg" xmlns:xlink="http://www.w3.org/1999/xlink" x="0px" y="0px"
	 viewBox="0 0 201 155" style="enable-background:new 0 0 201 155;" xml:space="preserve">
<style type="text/css">
	.st0{fill:none;stroke:#FF0000;}
</style>
<path class="st0" d="M162.5,36.5c3.4-8.6,5.1-13.9,7.5-26c-1-6.9-3.7-8.4-11.5-7.5c-18.1,4.2-28.6,6.1-48.5,7.5
	c-28.7-3-35.8-5-51.5-8.5C35.3-0.6,28.4,3.4,20,14C8.5,44,5.8,62.1,1,94.5c-0.8,15.8,4.7,21.5,17.5,30C50,135.5,92.4,143.8,143,153
	c21.2,2.4,29.5-0.7,39-13.5c9.3-25.7,13.3-41.6,17.5-73.5c0.8-11.8,1.6-18.4-8.5-29.5c-7.1-5.4-11.7-7.6-21-10"/>
</svg>
