<?xml version="1.0" encoding="utf-8"?>
<!-- Generator: Adobe Illustrator 24.0.1, SVG Export Plug-In . SVG Version: 6.00 Build 0)  -->
<svg version="1.1" id="Layer_1" xmlns="http://www.w3.org/2000/svg" xmlns:xlink="http://www.w3.org/1999/xlink" x="0px" y="0px"
	 viewBox="0 0 162 115" style="enable-background:new 0 0 162 115;" xml:space="preserve">
<style type="text/css">
	.st0{fill:none;stroke:#FF0000;}
</style>
<path class="st0" d="M125.9,89.7l0.5,20.5c-0.3,3.7-4.2,4.8-10,3c-18.9-7.8-29.5-12.4-44-14c-22.5-2.5-30.5,1-46.5-1
	c-9.5-2-19.7-7.8-23-18.5c-2.5-19.5-2.6-30,0-54.5c3.5-13.5,6.5-20.4,28.5-23c37.5-1.7,58.5-1.4,96,0c21.5,0.2,28.8,5,32.5,23
	c2.2,20.8,1.8,31.5,0,50c-3.7,18.3-11.5,22.2-30,24"/>
</svg>
