<svg width="402" height="755" viewBox="0 0 402 755" fill="none" xmlns="http://www.w3.org/2000/svg">
<g filter="url(#filter0_f_814_1715)">
<path d="M322.317 658.064C297.005 649.944 266.452 646.342 230.657 647.257C194.862 648.172 164.309 653.337 138.997 662.75C113.684 672.135 101.028 682.987 101.028 695.307C101.028 707.598 113.684 717.803 138.997 725.922C164.309 734.013 194.862 737.6 230.657 736.685C266.452 735.77 297.005 730.62 322.317 721.236C347.63 711.822 360.286 700.97 360.286 688.679C360.286 676.359 347.63 666.154 322.317 658.064Z" fill="black" fill-opacity="0.298039"/>
</g>
<path d="M256.301 354.668C278.337 331.174 299.449 314.947 319.637 305.987C311.494 300.272 301.202 295.269 288.762 290.98C273.109 300.451 256.915 314.097 240.18 331.919C214.579 359.301 188.396 377.88 161.629 387.656L158.843 415.807C192.218 408.845 224.704 388.465 256.301 354.668Z" fill="#21313A"/>
<path d="M238.377 279.209C213.353 272.428 192.066 264.999 174.516 256.924L161.629 387.657C188.396 377.881 214.579 359.302 240.18 331.919C256.915 314.097 273.109 300.451 288.762 290.981C274.706 286.138 257.911 282.214 238.377 279.209Z" fill="#2E444F"/>
<path d="M193.089 354.427L195.403 363.636C239.115 340.399 263.768 323.659 269.361 313.415C263.157 303.965 229.611 284.542 168.722 255.146L163.92 281.224C185.056 288.196 209.341 298.556 236.774 312.304C220.553 321.629 205.992 335.67 193.089 354.427Z" fill="#171717"/>
<path d="M142.502 248.967C144.632 247.761 147.056 246.422 149.776 244.949C154.092 242.615 157.739 240.414 160.715 238.347C188.82 316.813 221.053 394.665 257.416 471.903C267.907 491.541 278.572 508.315 289.41 522.226C292.493 531.674 293.107 537.225 291.252 538.882C289.397 540.538 281.875 536.446 268.688 526.607C266.746 524.59 263.25 515.767 258.199 500.137C253.534 496.602 251.072 494.331 250.813 493.323C249.483 484.187 247.836 476.801 245.874 471.166L200.228 391.611C196.69 383.635 192.545 370.235 187.794 351.412C172.64 322.578 157.543 288.429 142.502 248.967Z" fill="#171717"/>
<path d="M326.75 318.282C341.285 332.811 354.78 353.539 367.236 380.466C365.148 356.441 355.895 329.911 339.479 300.875C332.26 295.786 323.581 291.251 313.44 287.27C318.975 297.937 323.412 308.274 326.75 318.282Z" fill="#364D59"/>
<path d="M258.593 285.421C201.568 277.267 167.713 261.268 157.028 237.423L153.246 238.504C158.878 267.405 193.696 286.432 257.698 295.587C288.02 299.964 312.509 312.812 331.164 334.132C347.203 352.438 358.927 376.987 366.338 407.78C367.75 399.063 368.05 389.958 367.236 380.466C354.78 353.539 341.285 332.811 326.751 318.282C308.835 300.364 286.116 289.41 258.593 285.421Z" fill="#405C6A"/>
<path d="M168.667 234.097L157.027 237.423C167.713 261.267 201.568 277.266 258.593 285.421C286.116 289.41 308.835 300.363 326.75 318.282C323.412 308.274 318.975 297.936 313.44 287.269C294.654 279.918 270.867 274.478 242.08 270.949C208.766 264.805 184.294 252.521 168.667 234.097Z" fill="#587E91"/>
<path d="M73.6104 389.237C64.6698 396.592 57.8026 404.839 53.0087 413.978C45.602 436.286 53.642 463.064 77.1289 494.311C96.7501 520.774 126.095 540.178 165.164 552.522C161.517 535.105 160.016 518.225 160.662 501.882C88.8863 474.905 59.869 437.357 73.6104 389.237Z" fill="#364D59"/>
<path d="M141.469 346.539C137.582 353.341 124.652 361.674 102.68 371.54C91.3144 376.718 81.6248 382.617 73.611 389.237C59.8696 437.357 88.8869 474.905 160.663 501.882C161.509 480.31 166.089 459.676 174.401 439.98C199.943 383.688 196.622 317.381 164.436 241.06L139.592 238.62C146.479 296.311 147.104 332.284 141.469 346.539Z" fill="#587E91"/>
<path d="M171.658 241.781L164.435 241.061C196.62 317.382 199.942 383.688 174.399 439.98C166.087 459.677 161.508 480.31 160.661 501.882C160.015 518.225 161.516 535.105 165.163 552.522C166.932 553.081 168.737 553.629 170.578 554.167C173.76 555.089 177.021 555.976 180.358 556.829C164.291 523.536 165.149 485.84 182.932 443.741C208.825 386.705 205.066 319.385 171.658 241.781Z" fill="#405C6A"/>
<path d="M106.48 386.783C106.517 386.536 106.548 386.28 106.574 386.014C104.92 389.735 103.854 392.625 103.378 394.684C102.625 397.974 103.041 399.897 104.625 400.451C106.308 401.639 110.394 399.099 116.881 392.83C128.879 381.26 137.08 366.273 141.486 347.869C131.31 369.237 122.44 383.698 114.875 391.251C107.319 398.827 104.511 397.452 106.451 387.125L106.48 386.783Z" fill="#171717" fill-opacity="0.2"/>
<path d="M185.469 104.09L192.885 94.7487C176.384 78.3538 159.767 68.1027 143.035 63.9953C126.286 59.9073 106.46 61.066 83.5573 67.4711L87.9226 85.6053C104.371 77.7516 120.63 75.1828 136.699 77.8988C154.958 80.9545 171.215 89.6851 185.469 104.09Z" fill="#362C13"/>
<path d="M171.106 126.547L185.469 104.09C171.215 89.6848 154.959 80.9542 136.699 77.8985C120.63 75.1824 104.371 77.7512 87.9228 85.605L95.3906 114.016L171.106 126.547Z" fill="#10171E"/>
<path d="M37.7054 119.035C40.3064 127.102 44.9172 133.976 51.5379 139.658C66.1612 152.332 82.3177 162.051 100.007 168.818C113.611 171.405 124.595 172.981 132.96 173.546C137.494 173.865 141.26 173.885 144.257 173.605C147.771 173.292 151.455 172.766 155.307 172.027L164.027 140.996C154.815 140.027 145.34 138.806 135.603 137.332C127.682 136.136 119.586 134.773 111.317 133.242C92.6099 123.968 77.573 116.419 66.2067 110.595L37.7054 119.035Z" fill="#193847"/>
<path d="M37.7043 119.034L26.8812 126.111C31.9505 134.573 40.0861 143.963 51.2881 154.28C62.4892 164.579 77.3303 172.792 95.8115 178.92C108.19 181.562 120.308 183.397 132.167 184.427C140.25 185.124 148.21 185.449 156.048 185.401L155.306 172.026C151.453 172.765 147.77 173.292 144.255 173.605C141.259 173.884 137.493 173.865 132.959 173.546C124.594 172.981 113.61 171.405 100.006 168.817C82.3165 162.051 66.1601 152.331 51.5367 139.658C44.9161 133.976 40.3053 127.101 37.7043 119.034Z" fill="#997317"/>
<path d="M169.237 80.2842C171.695 54.7014 168.301 31.0952 159.056 9.46575L136.626 17.8805L137.179 107.523L140.274 107.879C154.371 98.6484 164.026 89.4502 169.237 80.2842Z" fill="#10171E"/>
<path d="M164.706 7.42768L159.056 9.46515C168.301 31.0946 171.695 54.7008 169.237 80.2836C164.026 89.4496 154.371 98.6478 140.274 107.878L149.036 113.967C164.236 99.7618 173.585 88.9477 177.085 81.5249C178.736 61.9089 174.61 37.2098 164.706 7.42768Z" fill="#362C13"/>
<path d="M119.968 54.4317C119.118 75.9184 119.311 98.0439 120.549 120.808L152.367 121.967C152.36 97.2171 151.451 74.6578 149.64 54.2892L119.968 54.4317Z" fill="#F0BF90"/>
<mask id="mask0_814_1715" style="mask-type:luminance" maskUnits="userSpaceOnUse" x="119" y="54" width="34" height="68">
<path d="M119.967 54.4307C119.117 75.9174 119.311 98.0429 120.548 120.807L152.367 121.966C152.359 97.2161 151.45 74.6568 149.64 54.2883L119.967 54.4307Z" fill="white"/>
</mask>
<g mask="url(#mask0_814_1715)">
<path d="M112.03 44.709L116.514 72.6821C128.089 83.2083 141.027 92.0405 155.327 99.1787L158.385 45.2474L112.03 44.709Z" fill="#D68B67"/>
</g>
<path d="M130.755 52.4316L128.531 51.1826C128.619 52.2484 128.676 53.5054 128.702 54.9534C126.02 55.5605 124.939 53.7188 125.459 49.4283L124.07 48.6279C123.156 52.6396 123.657 55.5535 125.574 57.3697C127.141 58.8312 128.513 58.6261 129.69 56.7543L130.755 52.4316Z" fill="#F0BF90"/>
<path d="M124.288 47.7435C124.208 48.0453 124.135 48.3402 124.07 48.6283L125.459 49.4286C124.94 53.7192 126.02 55.5608 128.702 54.9537C128.676 53.5057 128.619 52.2488 128.531 51.1829L130.756 52.4319L131.765 48.3368C130.896 45.5642 129.702 44.0075 128.183 43.6666C126.673 43.8463 125.374 45.2053 124.288 47.7435Z" fill="#D68B67"/>
<path d="M133.323 65.8929L127.995 56.6855L125.644 71.3115L142.115 98.4106L159.358 75.3536L141.133 69.3856L133.323 65.8929Z" fill="#482A1B"/>
<path d="M128.71 53.7785L127.994 56.6855L133.322 65.8929L141.132 69.3855L159.357 75.3535C159.861 74.1672 160.384 72.6338 160.925 70.7533C161.722 68.0332 162.484 65.1822 163.212 62.2004L153.066 64.137L153.421 59.5845L150.507 62.483L147.929 64.0165L134.502 51.9691L128.71 53.7785Z" fill="#F0BF90"/>
<path d="M166.34 47.7398L169.044 36.7688L146.596 24.7912L146.199 25.3634C150.764 28.1684 157.478 35.6272 166.34 47.7398Z" fill="#573523"/>
<path d="M163.805 59.7979C164.698 55.9816 165.543 51.9621 166.341 47.7394C157.479 35.6268 150.765 28.168 146.2 25.363C140.042 31.3892 134.602 39.2766 129.882 49.025L128.711 53.7774L134.503 51.9681L147.93 64.0155L150.508 62.482L153.422 59.5834L153.067 64.136L163.213 62.1994L163.805 59.7979Z" fill="#D68B67"/>
<path d="M160.835 55.9727C160.449 55.0479 159.834 54.463 158.991 54.2179C158.147 53.9729 157.314 54.1371 156.491 54.7105C155.711 55.3146 155.172 56.1514 154.874 57.2207C154.581 58.2731 154.627 59.2618 155.013 60.1866C155.415 61.116 156.03 61.7009 156.857 61.9414C157.717 62.191 158.534 62.0222 159.31 61.4349C160.133 60.8615 160.692 60.0486 160.985 58.9961C161.267 57.9222 161.217 56.9144 160.835 55.9727Z" fill="white"/>
<mask id="mask1_814_1715" style="mask-type:luminance" maskUnits="userSpaceOnUse" x="154" y="54" width="8" height="9">
<path d="M160.836 55.9727C160.45 55.0479 159.835 54.463 158.992 54.2179C158.148 53.9729 157.315 54.1371 156.491 54.7105C155.712 55.3146 155.173 56.1514 154.875 57.2207C154.582 58.2731 154.628 59.2618 155.014 60.1866C155.416 61.116 156.031 61.7009 156.858 61.9414C157.718 62.191 158.535 62.0222 159.311 61.4349C160.134 60.8615 160.693 60.0486 160.986 58.9961C161.268 57.9222 161.218 56.9144 160.836 55.9727Z" fill="white"/>
</mask>
<g mask="url(#mask1_814_1715)">
<path d="M157.217 55.939C156.631 55.7687 156.074 55.8681 155.545 56.2373C154.998 56.6181 154.635 57.1617 154.454 57.8683C154.278 58.559 154.326 59.2052 154.597 59.8069C154.88 60.4286 155.314 60.8246 155.9 60.9948C156.486 61.1651 157.045 61.0578 157.577 60.6728C158.121 60.3079 158.48 59.78 158.657 59.0893C158.837 58.3827 158.786 57.7186 158.504 57.097C158.232 56.4953 157.803 56.1093 157.217 55.939Z" fill="black"/>
</g>
<path d="M159.085 53.6228C158.151 53.3331 157.205 53.573 156.248 54.3424C155.295 55.0949 154.814 56.1471 154.805 57.4989C155.324 56.223 155.921 55.358 156.595 54.9039C157.29 54.4376 158.019 54.3514 158.782 54.6453C159.549 54.9224 160.146 55.4751 160.573 56.3035C161.032 57.141 161.101 58.2446 160.781 59.6143C161.497 58.0889 161.624 56.7803 161.16 55.6883C160.707 54.6178 160.016 53.9293 159.085 53.6228Z" fill="black"/>
<path d="M143.886 49.0719C142.756 48.7436 141.702 48.8707 140.723 49.453C139.72 50.0645 139.059 50.947 138.74 52.1006C138.438 53.2588 138.591 54.3687 139.199 55.4302C139.743 56.4733 140.588 57.1613 141.734 57.4942C142.848 57.8178 143.913 57.6847 144.928 57.0947C145.911 56.4955 146.546 55.6144 146.832 54.4516C147.166 53.3027 147.048 52.1936 146.475 51.1244C145.895 50.089 145.032 49.4048 143.886 49.0719Z" fill="white"/>
<mask id="mask2_814_1715" style="mask-type:luminance" maskUnits="userSpaceOnUse" x="138" y="48" width="10" height="10">
<path d="M143.886 49.0719C142.756 48.7436 141.702 48.8707 140.722 49.453C139.719 50.0645 139.058 50.947 138.74 52.1006C138.438 53.2588 138.59 54.3687 139.198 55.4302C139.743 56.4733 140.588 57.1613 141.734 57.4942C142.848 57.8178 143.912 57.6847 144.927 57.0947C145.91 56.4955 146.545 55.6144 146.832 54.4516C147.166 53.3027 147.047 52.1936 146.475 51.1244C145.895 50.089 145.032 49.4048 143.886 49.0719Z" fill="white"/>
</mask>
<g mask="url(#mask2_814_1715)">
<path d="M143.402 51.4378C144.137 51.6512 144.687 52.0951 145.054 52.7697C145.433 53.4663 145.521 54.1972 145.317 54.9624C145.117 55.7108 144.699 56.2765 144.063 56.6596C143.403 57.0543 142.706 57.145 141.972 56.9316C141.238 56.7182 140.69 56.2658 140.328 55.5744C139.944 54.8947 139.851 54.1807 140.05 53.4323C140.255 52.6671 140.686 52.0871 141.346 51.6923C141.982 51.3093 142.668 51.2244 143.402 51.4378Z" fill="black"/>
</g>
<path d="M146.986 50.9199C146.364 49.6376 145.433 48.8161 144.192 48.4555C142.91 48.1193 141.674 48.2928 140.483 48.976C139.303 49.6807 138.674 50.9518 138.596 52.7893C139.053 51.3509 139.783 50.398 140.784 49.9306C141.79 49.4463 142.833 49.3338 143.911 49.593C144.982 49.8139 145.759 50.3646 146.241 51.2451C146.748 52.0966 146.918 53.2747 146.752 54.7795C147.554 53.5317 147.632 52.2451 146.986 50.9199Z" fill="black"/>
<path d="M147.547 82.6966C148.056 82.5009 148.557 82.2675 149.05 81.9963C151.501 80.3062 153.366 77.4427 154.645 73.4056C148.419 72.8749 141.865 70.5434 134.985 66.4111C134.82 70.1019 135.442 73.6 136.85 76.9055C137.326 77.8818 137.882 78.7709 138.52 79.5729C141.029 82.6806 144.038 83.7218 147.547 82.6966Z" fill="#2A1718"/>
<path d="M147.546 82.6978C148.055 82.5021 148.556 82.2686 149.049 81.9975C149.329 81.8045 149.602 81.5951 149.869 81.3693L150.028 78.7531L150.034 78.7278L153.085 74.4417C146.862 73.4706 141.525 71.5302 137.075 68.6206L135.621 67.6699L136.8 73.7831L136.08 74.8383C136.304 75.5391 136.56 76.2286 136.849 76.9067C137.325 77.883 137.882 78.7721 138.52 79.5741C141.028 82.6818 144.037 83.723 147.546 82.6978Z" fill="white" fill-opacity="0.988235"/>
<path d="M136.753 73.5557L136.641 74.0107C137.942 74.8443 139.22 75.5727 140.477 76.1957C139.263 75.4802 138.022 74.6002 136.753 73.5557ZM150.043 78.9973L150.302 78.364C149.123 78.6126 147.911 78.6518 146.666 78.4817C147.809 78.7601 148.935 78.932 150.043 78.9973Z" fill="black" fill-opacity="0.976471"/>
<path d="M162.432 75.8474C158.178 74.0864 154.184 71.6473 150.449 68.5302C144.315 67.6596 137.611 66.0776 130.337 63.7841C135.383 70.249 141.597 73.5781 148.978 73.7716C153.214 77.3237 157.699 78.0156 162.432 75.8474Z" fill="#261309"/>
<path d="M153.326 61.0085L147.463 63.5243L145.458 67.5067L152.333 73.3425L153.326 61.0085Z" fill="#F0BF90"/>
<path d="M156.118 51.8569L152.483 53.5304L147.462 63.5244L153.326 61.0086L153.665 56.935L156.118 51.8569Z" fill="#D68B67"/>
<path d="M165.045 41.0605C165.079 41.2658 165.114 41.4711 165.149 41.6764C169.057 48.551 177.646 50.8239 190.914 48.4951L179.488 45.6616C182.023 35.2889 181.794 26.738 178.801 20.0089C171.357 13.7327 162.129 12.115 151.119 15.1558L146.126 22.3401C156.497 21.4251 162.803 27.6652 165.045 41.0605Z" fill="#675152"/>
<path d="M153.142 42.2397C155.975 47.8291 159.862 52.1907 164.804 55.3248C172.431 56.4266 181.134 54.1501 190.914 48.4954C177.646 50.8242 169.058 48.5513 165.149 41.6767C165.114 41.4714 165.08 41.2661 165.045 41.0608C162.804 27.6655 156.498 21.4253 146.126 22.3404L136.151 36.7655L145.036 29.8758C147.525 32.0725 150.227 36.1938 153.142 42.2397Z" fill="#573523"/>
<path d="M156.806 45.6424C160.18 48.1412 162.34 51.243 163.287 54.9478C164.75 51.0188 164.62 47.6695 162.898 44.8999C160.792 44.0877 158.762 44.3352 156.806 45.6424Z" fill="#402313"/>
<path d="M146.981 38.6997C143.104 39.7021 139.993 43.0526 137.649 48.7511C142.178 44.5292 147.003 43.0078 152.126 44.1869C151.386 41.4784 149.671 39.6493 146.981 38.6997Z" fill="#402313"/>
<path d="M193.276 120.905L168.295 110.355C161.661 126.171 141.281 123.093 107.157 101.121L70.7631 109.837C81.9259 151.661 103.964 183.084 136.876 204.108L170.689 201.976C186.07 178.013 193.599 150.99 193.276 120.905Z" fill="#487082"/>
<path d="M96.826 129.636L70.8357 110.661C37.9928 140.296 18.441 164.257 12.1803 182.542L53.2951 201.638C63.7152 178.51 78.2255 154.51 96.826 129.636Z" fill="#487082"/>
<path d="M191.778 119.54L174.306 145.583C190.408 158.507 209.012 171.031 230.116 183.153L241.052 163.668L191.778 119.54Z" fill="#487082"/>
<path d="M143.499 118.973C141.179 123.667 139.623 127.449 138.831 130.318C126.701 123.146 116.946 114.851 109.567 105.432C118.323 120.209 132.165 134.172 151.093 147.32C150.062 139.772 149.703 133.309 150.017 127.932C148.129 124.336 145.956 121.35 143.499 118.973ZM167.551 113.708C167.86 119.898 166.916 126.03 164.72 132.103C162.523 128.199 159.893 124.433 156.832 120.805C156.065 122.907 155.635 125.405 155.542 128.3C160.018 134.885 163.384 140.744 165.64 145.879C168.722 137.091 169.36 126.367 167.551 113.708ZM152.136 112.089C153.876 113.258 155.835 115.33 158.011 118.305C159.881 120.88 161.913 124.124 164.107 128.035C166.306 121.967 167.241 115.836 166.912 109.642L155.962 102.313C149.997 112.538 141.451 110.504 130.324 96.2131L108.921 100.787C117.194 111.103 126.959 119.59 138.218 126.251C139.194 122.716 140.266 119.682 141.434 117.146C142.717 114.401 144.114 112.246 145.624 110.681L152.136 112.089Z" fill="#D8E6E1"/>
<path d="M95.7862 103.931L92.5984 107.494C96.5702 125.696 103.633 139.039 113.787 147.524C116.973 144.84 119.898 142.91 122.562 141.734C125.245 140.575 127.081 139.972 128.07 139.926L128.961 137.362C124.076 138.18 119.092 140.267 114.01 143.624C104.102 135.729 98.0278 122.497 95.7862 103.931ZM161.429 200.905L164.828 200.69L170.399 171.595C152.49 169.574 137.235 163.683 124.634 153.922C124.255 153.63 123.877 153.333 123.499 153.029L123.603 156.302C134.593 164.645 149.045 170.495 166.958 173.851L161.429 200.905ZM178.925 151.986C178.687 151.793 178.443 151.588 178.193 151.371C177.348 154.446 175.675 157.675 173.174 161.058L171.785 166.299C176.057 160.367 178.545 155.682 179.249 152.241C179.141 152.156 179.033 152.071 178.925 151.986ZM182.75 132.426C182.466 128.215 181.17 123.64 178.862 118.699C180.204 124.354 180.97 129.321 181.161 133.601C181.289 136.529 181.149 139.138 180.742 141.427L168.922 142.172C169.424 142.593 169.912 143.003 170.386 143.403C170.719 143.681 171.045 143.955 171.361 144.223L181.482 143.585C182.63 140.371 183.053 136.652 182.75 132.426Z" fill="#3E6576"/>
<path d="M108.921 100.788L107.185 101.173C107.932 102.605 108.726 104.025 109.566 105.432C116.946 114.851 126.7 123.147 138.83 130.319C139.623 127.449 141.179 123.667 143.499 118.973C142.839 118.322 142.15 117.713 141.434 117.147C140.266 119.682 139.194 122.717 138.217 126.251C126.959 119.591 117.193 111.103 108.921 100.788ZM167.55 113.708C167.368 112.373 167.155 111.018 166.911 109.642C167.241 115.836 166.306 121.968 164.107 128.036C161.913 124.124 159.881 120.881 158.011 118.306C157.554 119.073 157.161 119.906 156.832 120.805C159.893 124.434 162.522 128.2 164.72 132.103C166.916 126.03 167.859 119.899 167.55 113.708Z" fill="#ACBFB8"/>
<path d="M161.606 154.236C157.947 151.966 154.442 149.661 151.092 147.32C132.165 134.172 118.323 120.209 109.566 105.432C108.726 104.024 107.932 102.605 107.185 101.172L95.7865 103.931C98.0282 122.497 104.103 135.728 114.01 143.624C119.093 140.267 124.077 138.18 128.962 137.362L128.07 139.926L123.499 153.029C123.877 153.333 124.255 153.63 124.634 153.922C137.235 163.683 152.49 169.574 170.399 171.595L171.785 166.299L173.174 161.057C169.165 158.813 165.309 156.539 161.606 154.236ZM178.762 118.292C178.45 117.004 178.109 115.684 177.741 114.332L166.911 109.641C167.155 111.017 167.368 112.372 167.55 113.707C169.359 126.367 168.722 137.091 165.639 145.879C164.59 148.898 163.245 151.684 161.606 154.236C165.309 156.539 169.165 158.813 173.174 161.057C175.676 157.675 177.349 154.446 178.193 151.371C178.215 151.302 178.237 151.228 178.258 151.146C178.354 150.789 178.438 150.434 178.509 150.083C176.573 148.526 174.191 146.573 171.362 144.223C171.045 143.955 170.72 143.681 170.386 143.403C169.912 143.003 169.424 142.593 168.922 142.172L180.743 141.427C181.15 139.138 181.289 136.529 181.161 133.601C180.971 129.321 180.204 124.354 178.862 118.699C178.829 118.566 178.795 118.431 178.762 118.292Z" fill="#224C5F"/>
<path d="M158.011 118.306C155.834 115.331 153.876 113.259 152.136 112.09L145.623 110.682C144.113 112.246 142.717 114.401 141.434 117.147C142.15 117.713 142.839 118.322 143.499 118.973C145.955 121.351 148.128 124.337 150.017 127.932C149.703 133.31 150.061 139.773 151.092 147.321C154.442 149.661 157.947 151.967 161.606 154.237C163.245 151.685 164.59 148.899 165.639 145.88C163.383 140.745 160.017 134.885 155.542 128.3C155.635 125.406 156.065 122.908 156.832 120.806C157.161 119.906 157.554 119.073 158.011 118.306Z" fill="#16292A"/>
<path d="M161.621 154.25C165.314 156.545 169.17 158.814 173.188 161.058" stroke="black" stroke-width="0.700302" stroke-miterlimit="3"/>
<path d="M175.896 241.333C175.204 230.125 174.762 221.857 174.572 216.531C174.407 211.862 174.373 209.374 174.469 209.069C161.511 209.866 150.098 213.452 140.23 219.827C140.734 222.454 141.208 225.098 141.652 227.757C151.183 226.697 161.808 227.855 173.527 231.23C159.745 229.493 149.34 229.662 142.312 231.739C143.077 236.418 143.761 241.143 144.364 245.912C154.336 246.727 164.846 245.2 175.896 241.333ZM175.138 198.306C175.237 196.965 175.335 195.618 175.431 194.264C161.24 189.789 147.724 190.394 134.881 196.077C135.244 197.479 135.597 198.88 135.941 200.282C146.416 195.564 159.464 194.897 175.085 198.282C161.7 197.323 148.956 199.266 136.851 204.111C137.855 208.315 138.789 212.564 139.652 216.859C149.568 210.565 161.181 207.958 174.493 209.04C174.692 205.496 174.907 201.918 175.138 198.306Z" fill="#7D6B2C"/>
<path d="M174.468 209.069C174.479 209.068 174.488 209.067 174.494 209.067C174.501 209.058 174.501 209.049 174.492 209.04C161.181 207.958 149.567 210.565 139.651 216.859C138.788 212.564 137.855 208.315 136.851 204.111C148.955 199.266 161.7 197.323 175.085 198.282C159.464 194.897 146.416 195.564 135.941 200.282C135.597 198.88 135.243 197.479 134.881 196.077C132.691 197.053 130.522 198.173 128.374 199.437C128.872 200.855 129.356 202.276 129.825 203.699C130.177 204.725 130.518 205.75 130.848 206.777C132.302 211.286 133.637 215.795 134.855 220.303C135.106 221.245 135.347 222.176 135.578 223.096C136.05 224.902 136.495 226.702 136.911 228.497C137.314 230.16 137.69 231.817 138.04 233.469C139.003 237.856 139.849 242.239 140.578 246.62C141.839 246.375 143.101 246.14 144.364 245.912C143.761 241.143 143.076 236.418 142.311 231.739C149.34 229.662 159.745 229.493 173.527 231.23C161.808 227.855 151.183 226.698 141.651 227.757C141.207 225.098 140.733 222.454 140.229 219.827C150.097 213.452 161.51 209.866 174.468 209.069Z" fill="#63541E"/>
<path d="M180.446 126.786L177.739 114.335L155.96 102.315L146.075 110.931L180.446 126.786ZM100.54 98.8106L82.6443 106.967L115.644 125.582L145.243 110.845L144.411 110.76L141.166 110.965L125.767 111.936L100.54 98.8106Z" fill="#172D38"/>
<path d="M94.5966 61.0444C96.6594 67.1458 98.6411 79.7347 100.542 98.8111L125.768 111.937L141.168 110.965C122.819 97.2312 112.351 86.335 109.766 78.2766C109.539 72.7492 115.004 61.0043 126.16 43.0418C132.151 33.422 140.081 22.9546 149.95 11.6396C139.982 14.9165 130.242 19.0033 120.731 23.8999C104.566 42.4412 95.8546 54.8227 94.5966 61.0444Z" fill="#244859"/>
<path d="M164.705 7.42837C164.193 7.55309 163.683 7.67712 163.175 7.80045C152.707 19.0829 144.144 30.2517 137.486 41.3066C126.93 58.8018 121.277 70.5678 120.527 76.6047C120.875 81.9475 128.837 93.3325 144.413 110.76L145.623 110.683C129.959 93.369 121.957 82.0417 121.617 76.7012C122.374 70.6616 128.027 58.8956 138.576 41.4032C145.325 30.1922 154.035 18.8673 164.705 7.42837Z" fill="#AF8828"/>
<path d="M163.174 7.80065C158.72 8.92833 154.311 10.2077 149.949 11.6388C140.08 22.9538 132.15 33.4212 126.158 43.0409C115.003 61.0035 109.538 72.7484 109.764 78.2757C112.35 86.3341 122.818 97.2304 141.167 110.964L144.412 110.76C128.836 93.3327 120.874 81.9477 120.526 76.6049C121.276 70.568 126.929 58.802 137.485 41.3068C144.143 30.2519 152.706 19.0831 163.174 7.80065Z" fill="#E9B941"/>
<path d="M156.031 107.229C158.425 105.058 161.047 102.411 163.897 99.2881C157.728 102.586 151.005 105.123 143.727 106.899L146.358 109.861C149.419 109.593 152.643 108.715 156.031 107.229Z" fill="#E9B941"/>
<path d="M163.896 99.2882L156.109 97.5955C153.254 100.682 149.126 103.783 143.727 106.899C151.004 105.124 157.728 102.587 163.896 99.2882Z" fill="#362C13"/>
<path d="M153.637 114.585C155.666 113.72 156.742 112.621 156.867 111.288C156.992 109.955 156.135 108.789 154.295 107.793C152.44 106.74 150.146 106.174 147.411 106.094C144.678 105.997 142.295 106.399 140.265 107.301C138.219 108.165 137.134 109.264 137.009 110.597C136.884 111.93 137.741 113.105 139.58 114.12C141.436 115.136 143.731 115.684 146.466 115.763C149.2 115.86 151.59 115.468 153.637 114.585ZM156.019 111.207C155.908 112.284 154.92 113.178 153.055 113.888C151.244 114.564 149.091 114.861 146.598 114.779C144.086 114.714 141.992 114.261 140.316 113.422C138.603 112.617 137.801 111.685 137.911 110.626C138.023 109.531 139.011 108.637 140.875 107.945C142.654 107.248 144.806 106.951 147.333 107.054C149.809 107.135 151.895 107.578 153.59 108.382C155.302 109.206 156.112 110.147 156.019 111.207Z" fill="#D6DEE2"/>
<path d="M153.055 113.888C154.92 113.178 155.908 112.284 156.019 111.207C156.112 110.148 155.302 109.206 153.59 108.383C151.895 107.578 149.809 107.136 147.333 107.054C144.806 106.951 142.653 107.248 140.875 107.946C139.011 108.637 138.023 109.531 137.911 110.626C137.801 111.685 138.603 112.617 140.316 113.422C141.992 114.262 144.086 114.714 146.598 114.779C149.091 114.862 151.244 114.565 153.055 113.888Z" fill="#9EBDCD"/>
<path d="M156.852 111.28C156.727 112.613 155.65 113.712 153.621 114.577C151.575 115.46 149.184 115.852 146.451 115.755C143.716 115.675 141.421 115.128 139.564 114.111C137.725 113.096 136.868 111.922 136.993 110.589C137.118 109.255 138.204 108.157 140.249 107.293C142.28 106.391 144.662 105.989 147.396 106.086C150.131 106.166 152.425 106.732 154.279 107.785C156.119 108.781 156.977 109.946 156.852 111.28Z" stroke="#272E31" stroke-width="0.700302" stroke-miterlimit="3"/>
<path d="M139.703 112.523C139.94 110.553 141.647 109.045 144.827 107.998C138.673 108.284 136.965 109.792 139.703 112.523Z" fill="white"/>
<path d="M149.694 13.9691C152.362 14.2418 152.886 15.4489 151.265 17.5906C133.645 41.288 122.671 60.0957 118.344 74.0135C131.495 49.0477 141.911 31.8461 149.594 22.4086C157.276 12.971 157.309 10.1579 149.694 13.9691Z" fill="#FCE3A3"/>
<path d="M26.7723 124.573L26.8774 126.468C40.2156 123.021 57.3607 129.289 78.3129 145.271C92.1822 155.843 106.425 165.546 121.043 174.379C125.468 161.155 128.007 148.842 128.659 137.438C127.755 148.02 125.134 159.788 120.797 172.741C106.177 163.904 91.934 154.201 78.067 143.633C56.1794 126.927 39.0811 120.574 26.7723 124.573ZM175.69 175.618L178.214 175.459C171.455 164.591 167.908 151.283 167.575 135.535C165.629 146.298 168.334 159.659 175.69 175.618Z" fill="#AA8B3C"/>
<path d="M54.5349 104.687C48.4967 109.39 44.8694 112.329 43.6532 113.503C55.7807 112.569 67.8424 117.109 79.8384 127.123C91.8357 137.151 103.061 145.556 113.514 152.337C116.923 144.547 119.314 134.071 120.687 120.908C99.3073 104.777 83.3682 95.8699 72.8692 94.1881C66.6857 96.4837 60.5743 99.9833 54.5349 104.687ZM181.745 114.715C178.792 122.026 176.424 126.548 174.641 128.281C175.896 137.751 178.743 148.09 183.183 159.297C196.687 151.93 206.446 143.378 212.461 133.64C206.53 127.224 201.683 121.688 197.921 117.029C192.217 114.604 186.825 113.832 181.745 114.715Z" fill="#244859"/>
<path d="M43.6532 113.504L40.74 113.164C33.1371 118.014 28.481 121.817 26.7718 124.573C39.0806 120.573 56.1788 126.927 78.0665 143.633C91.9334 154.201 106.177 163.903 120.796 172.741C125.134 159.787 127.754 148.02 128.658 137.438C128.914 133.937 128.985 130.543 128.869 127.255C126.057 125.036 123.329 122.921 120.687 120.909C119.314 134.072 116.923 144.548 113.514 152.338C103.061 145.557 91.8357 137.152 79.8384 127.123C67.8425 117.11 55.7807 112.57 43.6532 113.504ZM183.183 159.298C178.743 148.09 175.896 137.752 174.641 128.282L167.575 135.534C167.908 151.282 171.454 164.59 178.213 175.458C178.226 175.466 178.235 175.475 178.241 175.484C198.014 169.564 213.564 157.945 224.891 140.628C220.8 137.374 217.256 134.208 214.26 131.129L212.461 133.64C206.447 143.378 196.687 151.931 183.183 159.298Z" fill="#DDB143"/>
<path d="M83.6601 67.4639C83.8954 73.4062 84.5905 79.4162 85.7454 85.4938C96.1491 94.1526 106.144 101.037 115.731 106.146L119.704 121.411C123.054 123.092 126.129 124.331 128.93 125.128C129.219 117.302 128.729 109.864 127.46 102.816C104.832 91.4631 90.2323 79.6793 83.6601 67.4639ZM176.597 125.842L180.727 112.712L187.825 106.504L192.884 94.748C188.608 100.225 182.078 103.623 173.293 104.94L168.562 126.349L176.597 125.842Z" fill="#DDB143"/>
<path d="M85.7456 85.4941C86.7143 90.5558 88.0666 95.6792 89.8025 100.864C96.8003 108.066 106.768 114.915 119.705 121.411L115.731 106.146C106.144 101.037 96.1493 94.1529 85.7456 85.4941ZM176.597 125.843C180.601 120.189 184.344 113.743 187.825 106.504L180.727 112.712L176.597 125.843Z" fill="#244859"/>
<path d="M175.538 64.3423C173.823 70.6972 171.154 78.0126 167.53 86.2884M187.826 106.504C184.345 113.742 180.602 120.189 176.598 125.842M119.705 121.411C106.768 114.915 96.8009 108.066 89.8031 100.864" stroke="black" stroke-opacity="0.298039" stroke-width="0.700302" stroke-linecap="round" stroke-linejoin="round"/>
<path d="M127.792 128.675C127.758 129.131 127.71 129.579 127.65 130.018C133.612 133.388 139.9 135.46 146.513 136.233C148.691 136.473 150.877 136.599 153.072 136.61C158.466 136.534 164.087 135.659 169.936 133.986C169.945 133.547 169.954 133.099 169.962 132.642C155.697 135.693 141.64 134.371 127.792 128.675Z" fill="#DDB143"/>
<path d="M115.281 130.127C115.233 133.213 115.942 135.833 117.407 137.987C118.871 140.163 120.66 141.241 122.772 141.222C124.884 141.203 126.706 140.093 128.239 137.89C129.771 135.71 130.56 133.076 130.608 129.99C130.655 126.926 129.947 124.316 128.482 122.163C127.017 119.987 125.229 118.909 123.117 118.928C121.004 118.947 119.182 120.057 117.65 122.259C116.118 124.44 115.328 127.062 115.281 130.127ZM117.946 136.406C116.6 134.689 115.947 132.594 115.985 130.121C116.023 127.669 116.741 125.572 118.14 123.831C119.503 122.068 121.159 121.178 123.109 121.16C125.023 121.143 126.643 122.004 127.97 123.743C129.315 125.46 129.969 127.545 129.931 129.996C129.893 132.47 129.174 134.577 127.776 136.319C126.395 138.082 124.747 138.972 122.834 138.989C120.884 139.006 119.255 138.146 117.946 136.406Z" fill="#D6DEE2"/>
<path d="M115.986 130.121C115.947 132.594 116.601 134.689 117.946 136.406C119.255 138.146 120.884 139.007 122.834 138.989C124.748 138.972 126.395 138.082 127.776 136.319C129.175 134.577 129.893 132.47 129.931 129.996C129.969 127.545 129.316 125.46 127.97 123.743C126.643 122.004 125.023 121.143 123.11 121.16C121.16 121.178 119.503 122.068 118.14 123.831C116.742 125.573 116.023 127.669 115.986 130.121Z" fill="#9EBDCD"/>
<path d="M130.587 129.963C130.539 133.049 129.749 135.683 128.217 137.863C126.685 140.065 124.863 141.176 122.751 141.195C120.639 141.213 118.85 140.135 117.386 137.959C115.921 135.806 115.212 133.186 115.26 130.099C115.307 127.035 116.097 124.412 117.629 122.232C119.161 120.03 120.983 118.919 123.095 118.9C125.208 118.881 126.996 119.96 128.461 122.135C129.925 124.289 130.634 126.898 130.587 129.963Z" stroke="#272E31" stroke-width="0.700515" stroke-miterlimit="3"/>
<path d="M117.273 133.903C117.38 129.367 118.639 125.76 121.049 123.084C116.317 124.273 115.058 127.879 117.273 133.903Z" fill="white"/>
<path d="M170.164 142.789C171.852 144.168 173.566 144.484 175.305 143.738C177.045 143.013 178.32 141.458 179.128 139.073C179.917 136.668 179.998 134.128 179.37 131.452C178.744 128.797 177.597 126.79 175.927 125.431C174.221 124.032 172.497 123.696 170.756 124.421C169.017 125.167 167.753 126.742 166.964 129.147C166.157 131.553 166.067 134.084 166.693 136.739C167.321 139.415 168.478 141.432 170.164 142.789ZM174.88 141.823C173.273 142.498 171.732 142.298 170.256 141.224C168.766 140.193 167.771 138.612 167.269 136.479C166.768 134.347 166.911 132.301 167.698 130.342C168.45 128.364 169.629 127.038 171.235 126.364C172.826 125.712 174.35 125.913 175.807 126.966C177.296 127.976 178.29 129.547 178.792 131.679C179.293 133.812 179.151 135.868 178.365 137.848C177.632 139.846 176.47 141.171 174.88 141.823Z" fill="#D6DEE2"/>
<path d="M170.255 141.224C171.731 142.298 173.272 142.498 174.879 141.823C176.469 141.171 177.631 139.846 178.364 137.848C179.15 135.868 179.292 133.812 178.791 131.679C178.29 129.547 177.295 127.976 175.806 126.966C174.349 125.913 172.825 125.712 171.234 126.364C169.628 127.038 168.449 128.364 167.697 130.342C166.91 132.301 166.767 134.347 167.268 136.48C167.77 138.612 168.765 140.193 170.255 141.224Z" fill="#9EBDCD"/>
<path d="M179.36 131.452C179.988 134.128 179.907 136.668 179.118 139.073C178.31 141.458 177.036 143.013 175.296 143.738C173.557 144.484 171.844 144.168 170.155 142.789C168.469 141.431 167.311 139.415 166.683 136.739C166.057 134.084 166.147 131.553 166.953 129.147C167.742 126.743 169.006 125.167 170.745 124.421C172.485 123.696 174.209 124.033 175.916 125.431C177.585 126.79 178.733 128.797 179.36 131.452Z" stroke="#272E31" stroke-width="0.700425" stroke-miterlimit="3"/>
<path d="M169.727 139.224C168.833 135.28 169.095 131.751 170.514 128.635C166.847 131.25 166.585 134.78 169.727 139.224Z" fill="white"/>
<path d="M232.243 177.455C231.178 177.347 230.127 177.218 229.091 177.069C231.122 174.248 232.632 171.302 233.619 168.231C234.555 168.348 235.5 168.449 236.454 168.534C235.488 171.746 234.084 174.719 232.243 177.455ZM269.958 176.843C268.939 176.977 267.933 177.094 266.937 177.194C267.788 174.626 268.385 172.006 268.728 169.333C269.654 169.285 270.591 169.229 271.539 169.164C271.198 171.789 270.671 174.349 269.958 176.843ZM268.949 166.916C269.017 165.722 269.039 164.513 269.014 163.29C270.003 163.309 270.996 163.317 271.991 163.314C271.949 164.502 271.883 165.668 271.794 166.813C270.837 166.864 269.888 166.899 268.949 166.916ZM252.239 178.282C251.244 178.311 250.263 178.325 249.297 178.324C250.491 175.527 251.417 172.605 252.075 169.558C252.996 169.593 253.926 169.616 254.866 169.626C254.218 172.577 253.343 175.462 252.239 178.282ZM235.02 157.651C234.976 156.807 234.901 155.954 234.795 155.092C235.841 155.233 236.881 155.362 237.916 155.48C237.956 156.376 237.97 157.256 237.957 158.118C236.979 157.967 236 157.812 235.02 157.651ZM235.04 159.885C235.989 160.049 236.936 160.206 237.884 160.357C237.765 162.089 237.548 163.761 237.232 165.373C236.303 165.268 235.378 165.144 234.456 164.998C234.797 163.335 234.991 161.63 235.04 159.885ZM253.052 162.321C254.021 162.427 254.986 162.515 255.947 162.587C255.817 164.033 255.639 165.455 255.413 166.851C254.463 166.828 253.521 166.794 252.589 166.75C252.801 165.303 252.955 163.827 253.052 162.321ZM253.162 157.135C254.175 157.237 255.192 157.323 256.214 157.391C256.199 158.336 256.173 159.263 256.137 160.172C255.141 160.108 254.156 160.032 253.18 159.944C253.192 159.022 253.186 158.085 253.162 157.135ZM268.599 158.236C269.694 158.29 270.792 158.337 271.895 158.377C271.934 159.22 271.966 160.053 271.992 160.876C270.951 160.876 269.917 160.859 268.888 160.826C268.816 159.971 268.719 159.108 268.599 158.236Z" fill="#A0C2CD"/>
<path d="M232.243 177.456C230.771 179.637 229.027 181.671 227.011 183.56C225.854 183.481 224.701 183.392 223.552 183.295C225.696 181.292 227.542 179.218 229.091 177.07C230.128 177.219 231.178 177.348 232.243 177.456ZM266.938 177.195C267.933 177.095 268.94 176.978 269.958 176.844C269.511 178.43 268.985 179.986 268.38 181.509C267.244 181.703 266.114 181.872 264.992 182.018C265.733 180.442 266.382 178.834 266.938 177.195ZM249.297 178.325C250.263 178.326 251.244 178.312 252.239 178.283C251.528 180.073 250.73 181.837 249.847 183.573C248.735 183.646 247.631 183.702 246.535 183.739C247.574 181.993 248.494 180.188 249.297 178.325Z" fill="#5E808B"/>
<path d="M271.794 166.814C271.883 165.669 271.949 164.503 271.991 163.315C284.667 163.377 296.611 162.139 307.824 159.6L308.452 162.067C296.183 164.726 283.964 166.308 271.794 166.814ZM269.958 176.844C270.671 174.35 271.198 171.79 271.538 169.165C283.485 168.394 295.957 166.662 308.956 163.967L309.935 167.801C295.859 172.176 282.533 175.19 269.958 176.844ZM269.014 163.291C269.038 164.514 269.017 165.723 268.949 166.917C264.42 167.056 259.908 167.034 255.413 166.852C255.638 165.456 255.816 164.034 255.947 162.588C260.383 162.971 264.739 163.205 269.014 163.291ZM252.239 178.284C253.342 175.463 254.218 172.578 254.866 169.628C259.399 169.681 264.02 169.583 268.728 169.335C268.384 172.007 267.788 174.627 266.937 177.195C261.908 177.786 257.008 178.149 252.239 178.284ZM252.074 169.559C251.417 172.606 250.491 175.528 249.296 178.325C243.412 178.391 237.728 178.102 232.243 177.456C234.084 174.72 235.488 171.747 236.454 168.536C241.536 169.1 246.743 169.442 252.074 169.559ZM237.883 160.358C243.037 161.194 248.093 161.849 253.051 162.322C252.955 163.828 252.801 165.304 252.589 166.751C247.454 166.489 242.335 166.03 237.232 165.374C237.548 163.762 237.765 162.09 237.883 160.358ZM253.162 157.136C253.186 158.086 253.192 159.023 253.18 159.945C248.106 159.495 243.032 158.887 237.957 158.119C237.97 157.257 237.956 156.377 237.916 155.481C243.053 156.146 248.135 156.698 253.162 157.136ZM268.599 158.238C268.719 159.109 268.815 159.972 268.888 160.827C264.636 160.731 260.386 160.513 256.136 160.173C256.172 159.264 256.198 158.337 256.213 157.392C260.376 157.748 264.504 158.03 268.599 158.238ZM307.396 157.967L307.587 158.632C295.752 160.272 283.887 161.02 271.991 160.877C271.966 160.054 271.934 159.221 271.895 158.378C284.074 158.874 295.908 158.737 307.396 157.967Z" fill="#C0DCE5"/>
<path d="M268.379 181.51C268.984 179.986 269.51 178.431 269.957 176.844C282.533 175.191 295.859 172.176 309.935 167.801L310.679 170.702C296.228 175.772 282.128 179.375 268.379 181.51ZM249.846 183.574C250.729 181.837 251.527 180.074 252.238 178.284C257.008 178.149 261.907 177.786 266.937 177.195C266.381 178.835 265.732 180.443 264.991 182.019C259.882 182.748 254.834 183.266 249.846 183.574ZM249.296 178.325C248.493 180.189 247.573 181.994 246.534 183.739C239.941 184.037 233.432 183.977 227.01 183.561C229.026 181.672 230.77 179.637 232.242 177.456C237.727 178.102 243.412 178.392 249.296 178.325Z" fill="#80A5B0"/>
<path d="M271.538 169.165C271.637 168.391 271.722 167.607 271.793 166.814C283.964 166.308 296.183 164.726 308.451 162.067L308.956 163.967C295.957 166.662 283.484 168.395 271.538 169.165ZM254.865 169.628C255.065 168.716 255.247 167.79 255.413 166.852C259.908 167.034 264.42 167.056 268.948 166.917C268.889 167.732 268.815 168.538 268.727 169.335C264.019 169.583 259.399 169.681 254.865 169.628ZM236.453 168.536C236.752 167.517 237.011 166.463 237.231 165.374C242.335 166.03 247.454 166.489 252.588 166.751C252.434 167.702 252.263 168.638 252.074 169.559C246.743 169.442 241.536 169.101 236.453 168.536ZM253.18 159.945C253.149 160.75 253.106 161.542 253.051 162.322C248.093 161.849 243.037 161.194 237.883 160.358C237.923 159.621 237.947 158.874 237.956 158.119C243.031 158.887 248.106 159.495 253.18 159.945ZM255.946 162.588C256.02 161.8 256.083 160.995 256.136 160.173C260.385 160.513 264.636 160.731 268.887 160.827C268.951 161.656 268.993 162.477 269.013 163.291C264.738 163.205 260.382 162.971 255.946 162.588ZM307.586 158.632L307.824 159.6C296.611 162.139 284.666 163.377 271.99 163.315C271.997 162.518 271.997 161.705 271.991 160.877C283.886 161.02 295.751 160.272 307.586 158.632Z" fill="#DCF2F7"/>
<path d="M268.949 166.918C269.888 166.9 270.836 166.866 271.794 166.814C271.722 167.607 271.637 168.391 271.538 169.166C270.591 169.23 269.654 169.286 268.728 169.335C268.816 168.538 268.889 167.732 268.949 166.918ZM252.589 166.752C253.521 166.796 254.462 166.829 255.413 166.852C255.247 167.791 255.065 168.716 254.866 169.628C253.926 169.618 252.995 169.595 252.074 169.559C252.263 168.638 252.435 167.702 252.589 166.752ZM234.456 165C235.377 165.145 236.303 165.27 237.232 165.374C237.011 166.463 236.752 167.517 236.454 168.536C235.499 168.45 234.554 168.349 233.619 168.232C233.961 167.178 234.24 166.1 234.456 165ZM237.883 160.358C236.936 160.208 235.988 160.05 235.04 159.886C235.057 159.149 235.05 158.404 235.02 157.653C235.999 157.813 236.978 157.969 237.957 158.119C237.948 158.875 237.923 159.621 237.883 160.358ZM255.947 162.588C254.986 162.517 254.021 162.428 253.051 162.323C253.106 161.542 253.149 160.75 253.18 159.945C254.155 160.033 255.141 160.11 256.136 160.173C256.084 160.995 256.021 161.8 255.947 162.588ZM268.888 160.827C269.916 160.861 270.951 160.877 271.991 160.877C271.998 161.706 271.997 162.518 271.991 163.315C270.995 163.319 270.003 163.311 269.014 163.291C268.993 162.478 268.951 161.656 268.888 160.827Z" fill="#B4D4DF"/>
<path d="M310.067 172.365C307.543 171.389 305.096 169.255 302.727 165.963C316.127 169.055 334.844 169.002 358.878 165.803C358.976 165.89 359.074 165.978 359.171 166.066C359.812 166.751 359.962 167.399 359.619 168.011C339.248 170.67 322.731 172.121 310.067 172.365Z" fill="#B86C48"/>
<path d="M331.716 161.164L328.217 160.02C338.733 160.374 347.918 161.667 355.773 163.899C346.905 161.896 338.886 160.984 331.716 161.164ZM337.44 159.117C333.626 158.645 329.914 158.414 326.301 158.424L323.012 157.304C329.169 157.698 333.979 158.302 337.44 159.117Z" fill="#D68B67"/>
<path d="M312.366 124.924C312.429 125.008 312.49 125.111 312.549 125.232C315.012 128.65 316.373 131.752 316.632 134.536L312.876 147.427C313.436 149.672 314.38 152.152 315.708 154.867C325.665 155.502 335.047 157.142 343.852 159.789C344.576 159.986 345.33 160.244 346.113 160.563C346.464 160.603 346.794 160.659 347.106 160.733C350.817 161.882 353.706 162.938 355.772 163.9C347.917 161.667 338.732 160.374 328.216 160.02L331.715 161.165C338.885 160.985 346.904 161.896 355.772 163.9C357.159 164.555 358.195 165.189 358.879 165.803C334.844 169.002 316.127 169.055 302.727 165.963C301.948 164.879 301.181 163.663 300.428 162.315C300.632 158.052 301.071 155.193 301.744 153.739C305.929 149.316 308.408 146.23 309.181 144.481C309.608 139.019 309.02 133.269 307.414 127.231C308.611 125.492 310.262 124.723 312.366 124.924ZM326.3 158.425C329.913 158.415 333.625 158.646 337.439 159.117C333.978 158.303 329.168 157.699 323.011 157.305L326.3 158.425Z" fill="#F2C191"/>
<path d="M322.144 162.947C317.165 160.276 311.924 158.839 306.421 158.634C312.511 157.183 317.892 158.273 322.565 161.904C325.328 161.53 328.976 162.059 333.509 163.493C345.005 162.159 353.446 162.909 358.834 165.741C353.264 163.691 344.837 163.327 333.556 164.646L333.346 164.622C328.812 163.189 325.199 162.663 322.506 163.046L322.291 163.079L322.144 162.947Z" fill="#D68B67"/>
<path d="M23.3633 197.86C25.3523 194.436 27.7137 191.564 30.4475 189.244C27.1128 185.681 24.0959 181.949 21.3968 178.049C18.4317 180.456 15.7444 183.409 13.3348 186.907C15.8186 190.533 19.1615 194.184 23.3633 197.86ZM42.9743 211.795C44.6549 209.229 46.6313 207.027 48.9036 205.19C43.3883 201.322 38.3862 197.182 33.8972 192.771C31.1266 194.871 28.6333 197.428 26.4172 200.442C31.0595 204.195 36.5785 207.98 42.9743 211.795ZM100.624 229.13L102.009 223.664C82.7225 221.899 66.479 216.73 53.2785 208.156C50.6725 209.703 48.3111 211.539 46.194 213.664C58.5494 220.924 76.6928 226.079 100.624 229.13Z" fill="#A2C5D0"/>
<path d="M33.8972 192.771C32.7085 191.628 31.5586 190.452 30.4475 189.244C27.7138 191.564 25.3524 194.436 23.3634 197.86C24.3284 198.732 25.3464 199.592 26.4173 200.442C28.6333 197.428 31.1266 194.871 33.8972 192.771ZM21.3969 178.049C20.622 176.931 19.8741 175.791 19.1534 174.629C16.3546 177.129 13.7429 180.13 11.3186 183.63C11.9128 184.719 12.5849 185.812 13.3348 186.907C15.7444 183.408 18.4318 180.456 21.3969 178.049ZM53.2785 208.156C51.7803 207.191 50.322 206.202 48.9036 205.19C46.6314 207.027 44.6549 209.229 42.9743 211.795C44.0256 212.415 45.0989 213.038 46.1941 213.664C48.3111 211.539 50.6726 209.703 53.2785 208.156Z" fill="#7FA2AD"/>
<path d="M19.1532 174.628C19.8739 175.79 20.6217 176.931 21.3967 178.048C29.4153 171.582 39.4694 169.108 51.5588 170.627C50.883 169.133 50.2254 167.6 49.5862 166.027C37.7513 164.243 27.6069 167.11 19.1532 174.628ZM59.8856 186.027C59.1149 184.853 58.3667 183.644 57.641 182.401C46.2979 181.212 37.2333 183.493 30.4473 189.243C31.5583 190.451 32.7082 191.627 33.897 192.77C40.836 187.575 49.4989 185.328 59.8856 186.027ZM68.8869 175.063C68.6022 174.038 68.336 172.997 68.0885 171.941C63.3607 169.726 58.8385 168.084 54.5218 167.016C55.0336 168.501 55.5775 169.962 56.1536 171.4C60.1933 172.213 64.4378 173.434 68.8869 175.063ZM74.1454 198.547C75.3201 199.734 76.5303 200.894 77.776 202.025C79.7865 201.997 81.8603 202.038 83.9973 202.149C82.9098 201.203 81.9138 200.233 81.0096 199.24C78.6292 198.9 76.3411 198.669 74.1454 198.547ZM73.1301 202.241C71.8854 201.042 70.6615 199.792 69.4584 198.492C61.0221 198.736 54.1704 200.969 48.9034 205.189C50.3218 206.202 51.78 207.19 53.2783 208.155C58.8043 204.873 65.4216 202.901 73.1301 202.241ZM73.9992 188.515C73.5249 187.564 73.0667 186.593 72.6246 185.602C68.9058 184.469 65.3576 183.606 61.9802 183.014C62.6998 184.189 63.442 185.339 64.2069 186.464C67.3319 186.909 70.596 187.593 73.9992 188.515Z" fill="#A0C2CD"/>
<path d="M48.9029 205.19C54.1699 200.97 61.0216 198.738 69.4578 198.493C66.0132 194.736 62.8223 190.581 59.8851 186.028C49.4983 185.329 40.8355 187.577 33.8965 192.772C38.3854 197.182 43.3876 201.322 48.9029 205.19ZM68.8864 175.064C64.4372 173.435 60.1927 172.214 56.153 171.402C57.799 175.444 59.7412 179.315 61.9796 183.015C65.3571 183.607 68.9052 184.47 72.624 185.604C71.1482 182.266 69.9023 178.753 68.8864 175.064ZM57.6405 182.402C55.4594 178.724 53.432 174.799 51.5582 170.628C39.4688 169.11 29.4148 171.584 21.3961 178.049C24.0952 181.95 27.1121 185.681 30.4467 189.244C37.2328 183.494 46.2974 181.213 57.6405 182.402ZM77.7199 195.079C76.3692 192.977 75.1288 190.79 73.9987 188.517C70.5955 187.594 67.3313 186.91 64.2063 186.466C67.1008 190.735 70.4137 194.763 74.1449 198.548C76.3406 198.67 78.6286 198.901 81.009 199.241C79.7358 197.881 78.6394 196.494 77.7199 195.079ZM102.832 219.071L103.706 214.388C95.3643 210.491 88.7946 206.411 83.9968 202.15C81.8598 202.039 79.786 201.998 77.7754 202.026C84.8133 208.437 93.1655 214.119 102.832 219.071ZM102.008 223.664L102.606 220.238C91.4045 216.364 81.5789 210.365 73.1295 202.243C65.421 202.902 58.8037 204.874 53.2777 208.157C66.4782 216.73 82.7218 221.899 102.008 223.664Z" fill="#C0DCE5"/>
<path d="M56.1536 171.401C55.5776 169.963 55.0336 168.502 54.5218 167.017C52.848 166.601 51.2028 166.272 49.5862 166.028C50.2255 167.601 50.883 169.134 51.5588 170.627C53.0657 170.835 54.5973 171.093 56.1536 171.401ZM64.2069 186.465C63.4421 185.34 62.6998 184.19 61.9802 183.014C60.5006 182.762 59.0542 182.558 57.641 182.402C58.3667 183.645 59.1149 184.854 59.8857 186.028C61.2941 186.13 62.7345 186.276 64.2069 186.465ZM69.4584 198.493C70.6615 199.793 71.8854 201.043 73.1301 202.242C74.6424 202.125 76.191 202.053 77.776 202.026C76.5303 200.895 75.3201 199.735 74.1455 198.548C72.542 198.469 70.9796 198.451 69.4584 198.493Z" fill="#B4D4DF"/>
<path d="M51.5598 170.628C53.4336 174.799 55.461 178.724 57.642 182.402C59.0552 182.558 60.5016 182.762 61.9812 183.015C59.7428 179.315 57.8006 175.444 56.1546 171.402C54.5983 171.093 53.0667 170.835 51.5598 170.628ZM69.4594 198.493C70.9806 198.451 72.5429 198.469 74.1464 198.548C70.4152 194.763 67.1024 190.735 64.2079 186.466C62.7355 186.276 61.295 186.13 59.8866 186.028C62.8238 190.581 66.0148 194.736 69.4594 198.493ZM102.608 220.238L102.833 219.071C93.167 214.119 84.8149 208.437 77.777 202.026C76.192 202.053 74.6434 202.125 73.1311 202.243C81.5805 210.365 91.4061 216.364 102.608 220.238Z" fill="#DCF2F7"/>
<path d="M158.9 245.587L162.31 242.919C162.801 245.158 162.643 247.675 161.836 250.468C157.104 246.224 152.006 242.775 146.543 240.119C143.102 239.559 139.928 238.661 137.021 237.427C139.67 238.366 142.65 238.694 145.961 238.412C150.058 240.002 154.371 242.393 158.9 245.587Z" fill="#D68B67"/>
<path d="M80.3687 190.733C81.0453 188.031 82.0475 185.855 83.3753 184.205L89.6412 188.413C93.369 193.324 95.6207 200.714 96.3963 210.584L96.7111 221.215L104.465 228.371C115.627 234.452 124.958 243.629 132.459 255.903C135.51 252.881 138.409 251.647 141.155 252.199C137.778 247.102 132.473 242.505 125.243 238.41C124.188 237.82 123.183 237.205 122.228 236.565C134.214 241.628 143.306 248.31 149.504 256.611C152.953 257.365 155.69 256.969 157.717 255.424C153.336 249.82 148.123 245.219 142.076 241.622C148.621 243.795 154.815 248.551 160.659 255.888C162.667 255.608 164.191 254.983 165.231 254.013C163.967 257.785 162.021 260.605 159.394 262.473L155.518 259.327C154.611 260.542 153.795 261.513 153.071 262.241C151.806 262.515 150.202 262.68 148.26 262.734L140.758 254.088C140.165 256.474 139.217 258.661 137.913 260.652L131.243 261.35C122.042 248.225 111.317 238.12 99.0684 231.036C95.1043 227.822 91.8538 224.752 89.3167 221.826C88.955 219.735 89.6873 214.231 91.5137 205.313C89.0399 199.838 85.3249 194.978 80.3687 190.733Z" fill="#B86C48"/>
<path d="M83.3753 184.205C83.961 183.495 84.5959 182.879 85.28 182.358C91.417 185.017 95.9299 188.998 98.8187 194.3C99.081 196.441 98.8198 200.312 98.0353 205.913L102.76 211.831C108.129 212.406 111.632 213.172 113.267 214.128C116.25 215.786 122.02 220.82 130.578 229.229C134.765 232.803 139.688 234.825 145.347 235.296C150.612 237.117 156.266 239.659 162.31 242.92L158.9 245.588C154.37 242.394 150.057 240.002 145.961 238.412C142.65 238.694 139.67 238.366 137.02 237.428C139.928 238.662 143.102 239.559 146.542 240.12C152.006 242.775 157.104 246.225 161.836 250.469L165.231 254.013C164.191 254.984 162.667 255.608 160.659 255.888C154.815 248.551 148.621 243.796 142.076 241.623C148.123 245.22 153.336 249.82 157.717 255.425C155.69 256.97 152.953 257.365 149.504 256.611C143.306 248.311 134.214 241.629 122.228 236.565C123.183 237.205 124.188 237.82 125.243 238.41C132.473 242.506 137.778 247.102 141.155 252.199C138.409 251.647 135.51 252.882 132.459 255.903C124.958 243.629 115.627 234.452 104.465 228.371L96.711 221.215L96.3962 210.584C95.6206 200.714 93.3689 193.324 89.6412 188.413L83.3753 184.205Z" fill="#F2C191"/>
<path d="M102.77 212.271C106.968 215.081 110.045 220.28 112 227.869C109.3 221.818 106.224 216.618 102.77 212.271ZM113.777 228.616C114.027 228.719 114.253 228.828 114.455 228.944C114.476 228.949 114.498 228.953 114.52 228.958C118.529 230.769 122.114 231.864 125.275 232.243C126.288 232.345 128.225 232.086 131.084 231.465C130.549 232.378 130.109 232.857 129.764 232.901C131.952 234.601 135.107 236.416 139.228 238.347C135.314 237.324 131.849 235.548 128.831 233.021C127.989 233.076 127.111 233.088 126.197 233.056C130.009 236.475 135.731 239.535 143.365 242.233C135.092 239.826 129.004 236.735 125.103 232.96C122.231 232.596 118.999 231.65 115.408 230.122C117.136 232.344 119.909 234.806 123.724 237.509C119.732 235.606 116.547 232.958 114.167 229.564C113.982 229.475 113.776 229.382 113.547 229.284C109.03 227.195 105.239 227.289 102.174 229.565C105.044 226.671 108.911 226.355 113.777 228.616Z" fill="#D68B67"/>
<defs>
<filter id="filter0_f_814_1715" x="83.6951" y="629.785" width="293.924" height="124.373" filterUnits="userSpaceOnUse" color-interpolation-filters="sRGB">
<feFlood flood-opacity="0" result="BackgroundImageFix"/>
<feBlend mode="normal" in="SourceGraphic" in2="BackgroundImageFix" result="shape"/>
<feGaussianBlur stdDeviation="8.66662" result="effect1_foregroundBlur_814_1715"/>
</filter>
</defs>
</svg>
