
<svg xmlns="http://www.w3.org/2000/svg" version="1.1" xmlns:xlink="http://www.w3.org/1999/xlink" preserveAspectRatio="none" x="0px" y="0px" width="1920px" height="1080px" viewBox="0 0 1920 1080">
<defs>
<filter id="Filter_1" x="-20%" y="-54.42178415490932%" width="140%" height="208.84356830981864%" color-interpolation-filters="sRGB">
<feGaussianBlur in="SourceGraphic" stdDeviation="5,5" result="result1"/>
</filter>

<filter id="Filter_2" x="-39.005669346583886%" y="-39.000727485008966%" width="178.01133869316777%" height="178.00145497001793%" color-interpolation-filters="sRGB">
<feGaussianBlur in="SourceGraphic" stdDeviation="10.666666666666666,10.666666666666666" result="result1"/>
</filter>

<filter id="Filter_3" x="-20%" y="-20%" width="140%" height="140%" color-interpolation-filters="sRGB">
<feGaussianBlur in="SourceGraphic" stdDeviation="1.6666666666666667,1.6666666666666667" result="result1"/>
</filter>

<filter id="Filter_4" x="-20%" y="-20%" width="140%" height="140%" color-interpolation-filters="sRGB">
<feGaussianBlur in="SourceGraphic" stdDeviation="1.6666666666666667,1.6666666666666667" result="result1"/>
</filter>

<filter id="Filter_5" x="-20%" y="-20%" width="140%" height="140%" color-interpolation-filters="sRGB">
<feGaussianBlur in="SourceGraphic" stdDeviation="9,9" result="result1"/>
</filter>

<g id="regrfg_0_Layer0_0_FILL">
<path fill="#000000" fill-opacity="0.2980392156862745" stroke="none" d="
M 251 -2.4
Q 251 -12.4 177.5 -19.5 104 -26.6 0.05 -26.6 -103.9 -26.6 -177.4 -19.5 -250.9 -12.4 -250.9 -2.4 -250.9 7.6 -177.4 14.7 -103.9 21.8 0.05 21.8 104 21.8 177.5 14.7 251 7.6 251 -2.4 Z"/>
</g>

<g id="trytjj_0_Layer7_0_MEMBER_0_FILL">
<path fill="#2E444F" stroke="none" d="
M 15.7 125.65
Q 56.25078125 104.5029296875 104.35 92.65
L 50 46.15 3.35 -96.1
Q -90.5294921875 23.1650390625 -190.9 17.4
L -243.15 42.65
Q -243.1365234375 42.715234375 -243.15 42.75 -206.400390625 155.457421875 -157.1 180.25 -140.026171875 188.7404296875 -119.85 188.35 -111.248828125 188.217578125 -102.1 186.45 -69.634375 180.4251953125 -33.3 154.95 -12.2138671875 140.0837890625 15.7 125.65 Z"/>

<path fill="#21313A" stroke="none" d="
M 104.35 92.65
Q 56.25078125 104.5029296875 15.7 125.65 -12.2138671875 140.0837890625 -33.3 154.95 -69.634375 180.4251953125 -102.1 186.45 -111.248828125 188.217578125 -119.85 188.35 -140.026171875 188.7404296875 -157.1 180.25 -206.400390625 155.457421875 -243.15 42.75 -243.1365234375 42.715234375 -243.15 42.65
L -276.05 58.6
Q -226.4263671875 193.504296875 -170.3 220.6 -145.530078125 232.5796875 -115.55 227.5 -83.5708984375 222.3642578125 -48.1 198.5 -27.310546875 184.4666015625 0.75 170.7 64.0240234375 139.5498046875 147.65 129.7
L 104.35 92.65 Z"/>
</g>

<g id="trytjj_0_Layer5_0_MEMBER_0_FILL">
<path fill="#1C1C1C" stroke="none" d="
M 27.65 -110.55
L -17.9 -118.15 -33.65 86.3 -26.55 103.7
Q -11.198828125 100.473828125 -8.75 95.55 18.09140625 1.0146484375 27.65 -110.55 Z"/>
</g>

<g id="tyrt_0_Layer0_0_FILL">
<path fill="#1C1C1C" stroke="none" d="
M -15.9 -181.6
L -40.35 -181.6
Q -51.1439453125 -138.009765625 -32.4 -92.35 -13.65078125 -46.70078125 -11.7 -8.5 -16.474609375 11.010546875 -14.8 12.8 -13.43828125 15.290625 3.85 25.75 21.110546875 52.8216796875 27.35 57.7 33.6306640625 62.5841796875 50.9 72.85 64.8759765625 81.1048828125 69.95 80.15 76.0875 76.025390625 33.85 26.45 14.170703125 3.4138671875 9.75 -6.5 -6.1716796875 -52.1162109375 -15.9 -181.6 Z"/>
</g>

<g id="tyrtasfd_0_Layer0_0_FILL">
<path fill="#171717" stroke="none" d="
M 18.2 -17.75
L -26.2 -10.35
Q -5.819140625 184.7193359375 -8.75 210 -19.28828125 257.3119140625 -17.2 273.65 14.9681640625 414.2154296875 13.05 446.2 6.0052734375 459.8498046875 5.65 463.05 5.2912109375 466.3044921875 26.6 518.3 53.6462890625 548.2732421875 72.35 550.05 76.6279296875 548.0341796875 57.9 515.1 36.4015625 473.883984375 29 443.4 12.9916015625 345.7306640625 15.25 218.15 29.041015625 113.5310546875 18.2 -17.75 Z"/>
</g>

<g id="trytjj_0_Layer1_0_FILL">
<path fill="#364D59" stroke="none" d="
M -245.1 14.1
Q -252.3470703125 16.6830078125 -259 19.35 -278.4396484375 27.2462890625 -292.85 36.35 -389.6830078125 150.5373046875 -289.05 270.45 -288.62109375 268.861328125 -288.15 267.25 -280.5 239.8 -263.95 212.15 -262.684765625 209.954296875 -261.3 207.75 -324.9751953125 107.655859375 -245.1 14.1 Z"/>

<path fill="#466A7D" stroke="none" d="
M -1.4 -136.6
Q -4.07890625 -108.9908203125 -4.7 -80.65 4.795703125 -105.6611328125 10.6 -133.1
L -1.4 -136.6 Z"/>

<path fill="#405C6A" stroke="none" d="
M -4.85 -56.6
Q -4.9580078125 -68.6806640625 -4.7 -80.65 -38.6724609375 8.8783203125 -119.9 67.5 -217.25 137.65 -260.35 206.3 -260.8357421875 207.0416015625 -261.3 207.75 -262.684765625 209.954296875 -263.95 212.15 -280.5 239.8 -288.15 267.25 -288.62109375 268.861328125 -289.05 270.45 -287.4224609375 272.4162109375 -285.75 274.35 -282.8716796875 277.6765625 -279.85 281 -272.4513671875 249.9396484375 -254 218.6 -211.6345703125 146.6990234375 -111 73.4 -38.7337890625 20.72265625 -4.85 -56.6 Z"/>

<path fill="#587E91" stroke="none" d="
M -1.4 -136.6
L -38.4 -147.5
Q -55.2880859375 -67.2806640625 -114.25 -29.7 -143.2431640625 -11.1306640625 -182.95 -2.85 -218.1171875 4.640625 -245.1 14.1 -324.9751953125 107.655859375 -261.3 207.75 -260.8357421875 207.0416015625 -260.35 206.3 -217.25 137.65 -119.9 67.5 -38.6724609375 8.8783203125 -4.7 -80.65 -4.07890625 -108.9908203125 -1.4 -136.6 Z"/>

<path fill="#334D5A" stroke="none" d="
M 17.85 -130.95
L 10.6 -133.1
Q 4.795703125 -105.6611328125 -4.7 -80.65 -4.9580078125 -68.6806640625 -4.85 -56.6 10.3701171875 -91.283984375 17.85 -130.95 Z"/>
</g>

<g id="trytjj_0_Layer1_1_FILL">
<path fill="#405C6A" stroke="none" d="
M 14.7 -138.25
L 4.35 -138.25
Q -10.64296875 22.6681640625 41.3 105.65 64.4126953125 138.9357421875 97.3 169.9 118.46171875 189.86796875 134.6 209.9 161.1955078125 242.9125 174.15 276.1 177.923046875 268.9587890625 181.05 261.95 213.969921875 188.1224609375 173.6 131.3 160.236328125 119.104296875 134.6 100.75 165.70625 157.1681640625 141.15 199.95 126.5408203125 182.49453125 108.1 165.1 75.2 134.15 52.1 100.9 0.9275390625 19.0931640625 14.7 -138.25 Z"/>

<path fill="#587E91" stroke="none" d="
M 36.9 -138.25
L 14.7 -138.25
Q 0.9275390625 19.0931640625 52.1 100.9 75.2 134.15 108.1 165.1 126.5408203125 182.49453125 141.15 199.95 165.70625 157.1681640625 134.6 100.75 126.9755859375 95.30859375 118.25 89.3 76.851953125 60.83359375 52.6 17.1 22.582421875 -47.41953125 36.9 -138.25 Z"/>
</g>

<g id="rgfhg_0_Layer13_0_FILL">
<path fill="#10171E" stroke="none" d="
M 69.65 -64.3
L 109.85 -109.35
Q 61.35 -139.45 7.7 -136.95 -39.55 -134.8 -82.1 -104.2
L -57.55 -56.55 69.65 -64.3 Z"/>

<path fill="#362C13" stroke="none" d="
M 109.85 -109.35
L 121.35 -129.15
Q 64.55 -163 14.65 -164.15 -35.3 -165.3 -97 -134.75
L -82.1 -104.2
Q -39.55 -134.8 7.7 -136.95 61.35 -139.45 109.85 -109.35 Z"/>
</g>

<g id="rgfhg_0_Layer12_0_FILL">
<path fill="#997317" stroke="none" d="
M 10.95 40.7
Q 71.9791015625 36.6345703125 116.4 16.95
L 115.55 -1.5
Q 105.681640625 3.3646484375 96.35 6.9 73.65 15.45 12.5 20.8 -42.1 16.3 -93.65 -6.05 -116.93515625 -16.0689453125 -131.35 -35.4
L -146.9 -17.45
Q -125.361328125 1.0603515625 -85.35 19.75 -45.2962890625 38.496484375 10.95 40.7 Z"/>

<path fill="#193847" stroke="none" d="
M 115.55 -1.5
L 112.85 -60.55
Q 65.485546875 -52.4873046875 11.85 -47.55 -47.85 -57.8 -105.3 -74.95
L -131.35 -35.4
Q -116.93515625 -16.0689453125 -93.65 -6.05 -42.1 16.3 12.5 20.8 73.65 15.45 96.35 6.9 105.681640625 3.3646484375 115.55 -1.5 Z"/>
</g>

<g id="rgfhg_0_Layer11_0_FILL">
<path fill="#10171E" stroke="none" d="
M 25.1 -77.85
L 30.95 -78.6
Q 63.9654296875 -112.1544921875 72.7 -139.6 63.9529296875 -208.399609375 12.8 -268.05
L -13.35 -242.65 25.1 -77.85 Z"/>

<path fill="#362C13" stroke="none" d="
M 40.15 -258.35
L 17.8 -277.05 12.8 -268.05
Q 63.9529296875 -208.399609375 72.7 -139.6 63.9654296875 -112.1544921875 30.95 -78.6
L 49.4 -71.8
Q 82.45 -119.1 87.55 -140.9 80.2005859375 -193.4619140625 40.15 -258.35 Z"/>
</g>

<g id="rergf_0_Layer2_0_FILL">
<path fill="#F0BF90" stroke="none" d="
M -33.7 -63.75
Q -37.6650390625 -2.3400390625 -34.7 62.75
L 36.35 65.25
Q 37.6099609375 -5.5 32.6 -63.75
L -33.7 -63.75 Z"/>
</g>

<g id="Mask_rergf_0_1_MASK_0_FILL">
<path fill="#FFFFFF" stroke="none" d="
M -33.7 -63.75
Q -37.6650390625 -2.3400390625 -34.7 62.75
L 36.35 65.25
Q 37.6099609375 -5.5 32.6 -63.75
L -33.7 -63.75 Z"/>
</g>

<g id="rergf_0_Layer1_0_FILL">
<path fill="#D68B67" stroke="none" d="
M -49.45 -72.95
L -40.4 -19.6
Q -2.1541015625 10.6486328125 45.4 31.25
L 54.1 -71.5 -49.45 -72.95 Z"/>
</g>

<g id="rterytf_0_Layer9_0_FILL">
<path fill="#F0BF90" stroke="none" d="
M -30.4 3.15
L -35.35 1.85
Q -34.3216796875 4.769140625 -33.2 8.8 -40.6232421875 12.3568359375 -42.2 0
L -45.3 -0.85
Q -45.081640625 11.0005859375 -38.15 14.75 -32.5 17.75 -30.4 11.7
L -30.4 3.15 Z"/>

<path fill="#D68B67" stroke="none" d="
M -45.3 -2.6
Q -45.319140625 -1.7 -45.3 -0.85
L -42.2 0
Q -40.6232421875 12.3568359375 -33.2 8.8 -34.3216796875 4.769140625 -35.35 1.85
L -30.4 3.15 -30.4 -4.95
Q -34.95 -12.1 -39.65 -12 -43.95 -10.45 -45.3 -2.6 Z"/>
</g>

<g id="rterytf_0_Layer8_0_FILL">
<path fill="#482A1B" stroke="none" d="
M 8.45 78.55
L 31.05 27.6 -7.45 24.9 -24.4 22 -39.25 7.3 -36.8 35.65 8.45 78.55 Z"/>

<path fill="#F0BF90" stroke="none" d="
M 31.05 27.6
Q 31.671484375 23.9333984375 31.9 18.3 32.26953125 10.1421875 32.25 1.3
L 13.35 9.6 11.85 0.95 7.55 7.7 3.25 11.75 -28.8 -4.5 -39.25 1.55 -39.25 7.3 -24.4 22 -7.45 24.9 31.05 27.6 Z"/>

<path fill="#D68B67" stroke="none" d="
M 32.25 -3.45
Q 32.1109375 -14.7396484375 31.4 -27.1 -3.3380859375 -54.8224609375 -18.75 -59.5 -32.4537109375 -38.380078125 -39.25 -7.85
L -39.25 1.55 -28.8 -4.5 3.25 11.75 7.55 7.7 11.85 0.95 13.35 9.6 32.25 1.3 32.25 -3.45 Z"/>

<path fill="#573523" stroke="none" d="
M 31.4 -27.1
L 31.4 -48.8 -18.25 -60.75 -18.75 -59.5
Q -3.3380859375 -54.8224609375 31.4 -27.1 Z"/>
</g>

<g id="retrf_0_Layer8_0_FILL">
<path fill="#FFFFFF" stroke="none" d="
M 18.35 -3.7
Q 16.55 -5.95 13.9 -5.95 11.25 -5.95 9.25 -3.7 7.4 -1.4 7.3 1.8 7.2 4.95 9 7.2 10.85 9.45 13.45 9.45 16.15 9.45 18 7.2 20 4.95 20.1 1.8 20.15 -1.4 18.35 -3.7 Z"/>
</g>

<g id="Mask_retrf_0_7_MASK_0_FILL">
<path fill="#FFFFFF" stroke="none" d="
M 18.35 -3.7
Q 16.55 -5.95 13.9 -5.95 11.25 -5.95 9.25 -3.7 7.4 -1.4 7.3 1.8 7.2 4.95 9 7.2 10.85 9.45 13.45 9.45 16.15 9.45 18 7.2 20 4.95 20.1 1.8 20.15 -1.4 18.35 -3.7 Z"/>
</g>

<g id="retrf_0_Layer7_0_FILL">
<path fill="#000000" stroke="none" d="
M -2.15 -4.9
Q -4.2 -4.9 -5.65 -3.35 -7.15 -1.75 -7.2 0.5 -7.25 2.7 -5.9 4.25 -4.5 5.85 -2.45 5.85 -0.4 5.85 1.05 4.25 2.55 2.7 2.6 0.5 2.65 -1.75 1.25 -3.35 -0.1 -4.9 -2.15 -4.9 Z"/>
</g>

<g id="retrf_0_Layer5_0_FILL">
<path fill="#000000" stroke="none" d="
M 13.8 -7.1
Q 10.85 -7.15 8.6 -4.25 6.35 -1.4 7.3 2.35 7.9 -1.6 9.55 -3.4 11.25 -5.25 13.7 -5.05 16.15 -4.9 18 -2.95 19.95 -1 20 3.05 21 -1.75 18.85 -4.4 16.75 -7 13.8 -7.1 Z"/>
</g>

<g id="retrf_0_Layer3_0_FILL">
<path fill="#FFFFFF" stroke="none" d="
M -18.1 -7.35
Q -21.65 -7.35 -24.1 -4.95 -26.6 -2.45 -26.7 1 -26.75 4.45 -24.2 6.9 -21.85 9.35 -18.25 9.35 -14.75 9.35 -12.2 6.9 -9.75 4.45 -9.75 1 -9.6 -2.45 -12.05 -4.95 -14.5 -7.35 -18.1 -7.35 Z"/>
</g>

<g id="Mask_retrf_0_2_MASK_0_FILL">
<path fill="#FFFFFF" stroke="none" d="
M -18.1 -7.35
Q -21.65 -7.35 -24.1 -4.95 -26.6 -2.45 -26.7 1 -26.75 4.45 -24.2 6.9 -21.85 9.35 -18.25 9.35 -14.75 9.35 -12.2 6.9 -9.75 4.45 -9.75 1 -9.6 -2.45 -12.05 -4.95 -14.5 -7.35 -18.1 -7.35 Z"/>
</g>

<g id="retrf_0_Layer2_0_FILL">
<path fill="#000000" stroke="none" d="
M -2.15 -4.9
Q -4.2 -4.9 -5.65 -3.35 -7.15 -1.75 -7.2 0.5 -7.25 2.7 -5.9 4.25 -4.5 5.85 -2.45 5.85 -0.4 5.85 1.05 4.25 2.55 2.7 2.6 0.5 2.65 -1.75 1.25 -3.35 -0.1 -4.9 -2.15 -4.9 Z"/>
</g>

<g id="retrf_0_Layer0_0_FILL">
<path fill="#000000" stroke="none" d="
M -11.15 -5.6
Q -13.9 -8.65 -17.8 -8.65 -21.8 -8.55 -24.8 -5.7 -27.75 -2.8 -26.65 2.35 -26.35 -2 -23.75 -4.1 -21.15 -6.25 -17.8 -6.4 -14.5 -6.65 -12.45 -4.6 -10.35 -2.65 -9.75 1.65 -8.3 -2.45 -11.15 -5.6 Z"/>
</g>

<g id="rterytf_0_Layer6_0_FILL">
<path fill="#2A1718" stroke="none" d="
M 7.15 40.1
Q 10.55 41.9 14.1 44.75 20.066015625 38.3248046875 20.9 26.15 2.258984375 28.9833984375 -20.9 22.2 -18.718359375 32.6341796875 -12.2 40.9 -8.45 38.1 -4.3 37.6 1.1 36.85 7.15 40.1 Z"/>

<path fill="#BC9191" stroke="none" d="
M 11.5 46.75
Q 12.85 45.85 14.1 44.75 10.55 41.9 7.15 40.1 1.1 36.85 -4.3 37.6 -8.45 38.1 -12.2 40.9 -10.1 43.3 -7.65 45.1 1.95 52.05 11.5 46.75 Z"/>
</g>

<g id="rterytf_0_Layer6_1_FILL">
<path fill="#FFFFFF" fill-opacity="0.9882352941176471" stroke="none" d="
M 14.1 35.25
Q 15.6615234375 34.1982421875 17.05 29 -0.6 30.4 -15.75 25.35
L -17.2 25.35
Q -1.002734375 38.578515625 14.1 35.25 Z"/>
</g>

<g id="rterytf_0_Layer5_0_FILL">
<path fill="#261309" stroke="none" d="
M 37.3 27.1
Q 23.5541015625 25.12578125 10.35 19 -8.2634765625 20.81875 -31.25 19.45 -11.7837890625 34.02734375 10 29.45 24.9865234375 36.4447265625 37.3 27.1 Z"/>
</g>

<g id="rterytf_0_Layer5_1_FILL">
<path fill="#F0BF90" stroke="none" d="
M 12.35 3.65
L 2.1 11.05 0.1 19.4 16.35 27.1 12.35 3.65 Z"/>

<path fill="#D68B67" stroke="none" d="
M 13.4 -14.7
L 7.1 -9.9 2.1 11.05 12.35 3.65 11.05 -4.1 13.4 -14.7 Z"/>
</g>

<g id="rterytf_0_Layer4_0_FILL">
<path fill="#573523" stroke="none" d="
M 26.15 -37.85
Q 25.9 -38.4 25.65 -38.95 9.4 -74.85 -20.35 -65.1
L -32.9 -33.6 -18.85 -50.55
Q -9.966015625 -46.13359375 2.95 -31.25 15.29375 -17.5859375 32.05 -12.25 55.208984375 -14.4576171875 79.8 -37.05 42.578125 -21.33828125 26.15 -37.85 Z"/>

<path fill="#675152" stroke="none" d="
M 25.65 -38.95
Q 25.9 -38.4 26.15 -37.85 42.578125 -21.33828125 79.8 -37.05
L 56.1 -37.05
Q 56.0396484375 -67.8107421875 42.4 -84.55 16.0376953125 -96.93671875 -14.05 -80.8
L -20.35 -65.1
Q 9.4 -74.85 25.65 -38.95 Z"/>
</g>

<g id="rterytf_0_Layer3_0_FILL">
<path fill="#402313" stroke="none" d="
M 30.9 -23.45
Q 28.098828125 -31.4958984375 24.05 -34.55 19.51640625 -34.4345703125 16.7 -29.55 14.9154296875 -25.02109375 13.65 -17.55 17.9408203125 -23.508984375 21.9 -26.65 25.2537109375 -27.1515625 30.9 -23.45 Z"/>
</g>

<g id="rterytf_0_Layer2_0_FILL">
<path fill="#402313" stroke="none" d="
M -13.6 -37.9
Q -21.3666015625 -34.0685546875 -26.55 -28.25 -12.515234375 -32.411328125 0.9 -19.3 -0.923828125 -29.6638671875 -3.45 -33.95 -7.3775390625 -38.0560546875 -13.6 -37.9 Z"/>
</g>

<g id="rgfhg_0_Layer8_0_FILL">
<path fill="#487082" stroke="none" d="
M 119.6 -52.85
L 82.05 -74.7
Q 26.5388671875 -34.916796875 -30.15 -86.85
L -78.95 -61.4
Q -73.95 11.6 -28.95 69.05
L 52.05 80.55
Q 106.15 23.05 119.6 -52.85 Z"/>
</g>

<g id="rgfhg_0_Layer7_0_FILL">
<path fill="#487082" stroke="none" d="
M -62.8 -44.15
L -93.45 -73.45
Q -146.9310546875 -23.3701171875 -195.25 41.6
L -167.9 59.65 -62.8 -44.15 Z"/>
</g>

<g id="rgfhg_0_Layer7_1_FILL">
<path fill="#487082" stroke="none" d="
M 120.3 -56.05
L 80.3 -35.35 137.25 90.5 170.85 73.5 120.3 -56.05 Z"/>
</g>

<g id="rgfhg_0_Layer6_0_FILL">
<path fill="#63541E" stroke="none" d="
M -27.25 60.45
Q -32.536328125 59.1607421875 -37.8 57.7 -36.8373046875 98.2203125 -41.9 139.05
L -32.1 143.1
Q -30.2314453125 137.2375 -29.45 134.35 12.116796875 145.003515625 43.9 131.25 9.8416015625 136.4125 -28 128.55 -25.4125 117.3015625 -24.6 105.45 10.07265625 119.2021484375 47.4 116.65 9.4986328125 114.3564453125 -24.25 98.1 -24.047265625 91.5140625 -24.4 84.75 24.4572265625 95.484765625 58.15 78.65 23.6140625 86.421875 -24.9 78 -25.654296875 69.380078125 -27.25 60.45 Z"/>

<path fill="#7D6B2C" stroke="none" d="
M 47.4 116.65
Q 52.1662109375 97.60625 58.15 78.65 24.4572265625 95.484765625 -24.4 84.75 -24.047265625 91.5140625 -24.25 98.1 9.4986328125 114.3564453125 47.4 116.65
M 39.75 151.1
Q 41.3611328125 142.7431640625 43.9 131.25 12.116796875 145.003515625 -29.45 134.35 -30.2314453125 137.2375 -32.1 143.1 3.514453125 155.0822265625 39.75 151.1
M 43.9 131.25
Q 45.2138671875 125.5228515625 47.4 116.65 10.07265625 119.2021484375 -24.6 105.45 -25.4125 117.3015625 -28 128.55 9.8416015625 136.4125 43.9 131.25
M 58.15 78.65
Q 59.7587890625 73.6041015625 60.3 71.95 15.5689453125 71.0828125 -27.25 60.45 -25.654296875 69.380078125 -24.9 78 23.6140625 86.421875 58.15 78.65 Z"/>
</g>

<g id="rgfhg_0_Layer5_0_FILL">
<path fill="#3E6576" stroke="none" d="
M -23.8 -10.9
L -23.25 -7.2 -4.15 -4.6 -0.3 -6.9 -23.8 -10.9
M 19.75 57.55
Q 66.95 37.6 95.1 0.3
L 92.6 -1
Q 72.75 26.1 19.75 57.55
M 21.75 36.45
Q 22.8 35.2 23.9 33.95 5.05 20.05 -12.4 4.6
L -14.6 6.65
Q 3.25 23.15 21.75 36.45
M 107 -10.8
L 106.4 -15.3 76.6 -7.85 85.1 -5 107 -10.8 Z"/>

<path fill="#224C5F" stroke="none" d="
M 23.9 33.95
Q 33.45 22.95 41.5 12.1 32.35 4.5 24.75 -3.9 6.25 -24.4 -4.05 -50.2 -5.6 -54.05 -6.95 -58.1 -9.35 -65 -13.05 -77.6
L -28.55 -72.8
Q -30.25 -34.8 -27.4 -11.55
L -23.8 -10.9 -0.3 -6.9 -4.15 -4.6 -15.6 1.8
Q -14 3.3 -12.4 4.6 5.05 20.05 23.9 33.95
M 75.85 -45.95
Q 68.75 -23.25 56.1 -5.1 49.45 4.1 41.5 12.1 33.45 22.95 23.9 33.95 22.8 35.2 21.75 36.45 20.9 37.35 20.05 38.35
L 14.6 68.45 18.4 68.95 19.75 57.55
Q 72.75 26.1 92.6 -1 93.1 -1.7 93.45 -2.35
L 85.1 -5 76.6 -7.85 106.4 -15.3 107.05 -15.5
Q 106.2 -19.8 104.8 -25.4 104.8 -25.5 104.75 -25.6 101.6 -38.6 96.2 -65.85
L 83.15 -75.7
Q 81.1 -66.9 80.2 -62.6 78.4 -54 75.85 -45.95 Z"/>

<path fill="#D8E6E1" stroke="none" d="
M 45.8 -38.05
L 56.1 -5.1
Q 68.75 -23.25 75.85 -45.95 73.05 -41.6 69.9 -39 63.35 -48.55 54.05 -55.3
L 45.8 -38.05
M 24.75 -3.9
L 39.15 -37.1 27.5 -52.45
Q 19.2 -45.75 12.6 -37.1 2.85 -41.25 -4.05 -50.2 6.25 -24.4 24.75 -3.9
M 39.6 -66.6
Q 19.55 -67.3 12.15 -83.3
L -13.05 -77.6
Q -9.35 -65 -6.95 -58.1 0.35 -47.2 11.5 -42.6 18.05 -51.2 24.35 -56.25 40.5 -69.1 55.4 -58.75 62.2 -54 68.75 -44.5 75.25 -49.7 80.2 -62.6 81.1 -66.9 83.15 -75.7
L 67.05 -82.25
Q 59.6 -66 39.6 -66.6 Z"/>

<path fill="#ACBFB8" stroke="none" d="
M 27.5 -52.45
L 24.35 -56.25
Q 18.05 -51.2 11.5 -42.6 0.35 -47.2 -6.95 -58.1 -5.6 -54.05 -4.05 -50.2 2.85 -41.25 12.6 -37.1 19.2 -45.75 27.5 -52.45
M 55.4 -58.75
L 54.05 -55.3
Q 63.35 -48.55 69.9 -39 73.05 -41.6 75.85 -45.95 78.4 -54 80.2 -62.6 75.25 -49.7 68.75 -44.5 62.2 -54 55.4 -58.75 Z"/>

<path fill="#16292A" stroke="none" d="
M 54.05 -55.3
L 55.4 -58.75
Q 40.5 -69.1 24.35 -56.25
L 27.5 -52.45 39.15 -37.1 24.75 -3.9
Q 32.35 4.5 41.5 12.1 49.45 4.1 56.1 -5.1
L 45.8 -38.05 54.05 -55.3 Z"/>
</g>

<g id="rgfhg_0_Layer4_0_FILL">
<path fill="#244859" stroke="none" d="
M -8.1 -256.1
Q -8.0296875 -256.367578125 -7.95 -256.65 -42.2162109375 -229.0064453125 -45.95 -222.55 -67.7169921875 -154.0009765625 -64.8 -141.8 -61.8345703125 -129.6025390625 -35.9 -82.95
L 7.65 -76.15
Q -23.294921875 -119.816015625 -27 -130.45 -29.1 -176.55 -8.1 -256.1 Z"/>

<path fill="#E9B941" stroke="none" d="
M 7.65 -76.15
L 33.25 -72.1
Q -2.116015625 -121.71796875 -6.1 -133.1 -8.4255859375 -184.32578125 17.8 -277.05 4.96640625 -267.0248046875 -5.3 -258.8 -6.6517578125 -257.68984375 -7.95 -256.65 -8.0296875 -256.367578125 -8.1 -256.1 -29.1 -176.55 -27 -130.45 -23.294921875 -119.816015625 7.65 -76.15 Z"/>

<path fill="#172D38" stroke="none" d="
M 33.25 -72.1
L 7.65 -76.15 -35.9 -82.95 -75.9 -74.35 -18.15 -27.7 33.25 -72.1 Z"/>

<path fill="#AF8828" stroke="none" d="
M 19.95 -275
L 17.8 -277.05
Q -8.4255859375 -184.32578125 -6.1 -133.1 -2.116015625 -121.71796875 33.25 -72.1
L 36.15 -72.1
Q 0.3314453125 -122.8595703125 -3.6 -134.05 -5.9076171875 -184.316015625 19.95 -275 Z"/>
</g>

<g id="rgfhg_0_Layer4_0_MEMBER_0_FILL">
<path fill="#362C13" stroke="none" d="
M 54.95 -98.9
Q 50.25 -87.35 38.85 -72.7 56.3 -86.15 69.5 -102.25
L 54.95 -98.9 Z"/>

<path fill="#E9B941" stroke="none" d="
M 45.2 -69.7
Q 53 -74.1 60.6 -82.05 64.9 -90.6 69.5 -102.25 56.3 -86.15 38.85 -72.7
L 45.2 -69.7 Z"/>

<path fill="#172D38" stroke="none" d="
M 54.3 -70.25
L 76.35 -51.4 87.65 -68.8 60.6 -82.05
Q 53 -74.1 45.2 -69.7
L 38.85 -72.7 40.15 -66.55 54.3 -70.25 Z"/>
</g>

<g id="rgfhg_0_Layer4_0_MEMBER_1_FILL">
<path fill="#D6DEE2" stroke="none" d="
M 57.45 -65.05
Q 63.2 -67.75 63.35 -71.4 63.5 -75.05 58 -77.45 52.45 -80 44.5 -79.75 36.55 -79.55 30.8 -76.75 25 -74.05 24.85 -70.4 24.7 -66.75 30.2 -64.3 35.75 -61.85 43.7 -62.1 51.65 -62.3 57.45 -65.05
M 61.7 -71.45
Q 61.55 -68.5 56.25 -66.25 51.1 -64.1 43.85 -63.9 36.55 -63.65 31.55 -65.65 26.45 -67.55 26.6 -70.45 26.75 -73.45 32.05 -75.65 37.1 -77.85 44.45 -78 51.65 -78.2 56.7 -76.3 61.8 -74.35 61.7 -71.45 Z"/>

<path fill="#9EBDCD" stroke="none" d="
M 56.25 -66.25
Q 61.55 -68.5 61.7 -71.45 61.8 -74.35 56.7 -76.3 51.65 -78.2 44.45 -78 37.1 -77.85 32.05 -75.65 26.75 -73.45 26.6 -70.45 26.45 -67.55 31.55 -65.65 36.55 -63.65 43.85 -63.9 51.1 -64.1 56.25 -66.25 Z"/>
</g>

<g id="rgfhg_0_Layer4_0_MEMBER_1_MEMBER_0_FILL">
<path fill="#FFFFFF" stroke="none" d="
M -441.25 6
Q -441.162890625 -2.8625 -435.55 -8.05 -446.71796875 -5.809375 -441.25 6 Z"/>
</g>

<g id="rgfhg_0_Layer4_0_MEMBER_2_FILL">
<path fill="#FCE3A3" stroke="none" d="
M -3.85 -255.5
Q 6.6205078125 -258.351953125 4.8 -251.05 -13.1193359375 -171.1375 -9.45 -131.1 -5.5375 -202.7021484375 12.1 -264.95 14.161328125 -272.082421875 -3.85 -255.5 Z"/>
</g>

<g id="rgfhg_0_Layer3_0_FILL">
<path fill="#AA8B3C" stroke="none" d="
M -7 35.15
L -3.25 33
Q 2.0291015625 1.4625 1.05 -43.1
L -1 -39.65
Q -0.270703125 2.41015625 -7 35.15
M 68.3 -42.8
L 65.15 -42
Q 68.753125 0.8947265625 74.05 31.75 98.5494140625 25.669140625 117.1 16.25 95.2806640625 25.4271484375 76.8 29 71.2921875 -4.7087890625 68.3 -42.8 Z"/>

<path fill="#244859" stroke="none" d="
M -113 -77.55
Q -127.15 -66.35 -144.25 -42.7 -114.1 -21.25 -72.6 -6.25 -51.9109375 1.2140625 -28.45 6.75 -25.0072265625 -4.117578125 -22.2 -46
L -1 -39.65 -58.8 -88.15
Q -101.9052734375 -81.2482421875 -113 -77.55
M 65.15 -42
L 68.3 -42.8 82.95 -46.45
Q 87.4328125 -17.6767578125 92.3 -0.45 120.7732421875 -9.0013671875 140.15 -24.05 129.3357421875 -55.4955078125 122.6 -64.55 113.2244140625 -71.173046875 84.55 -76.95
L 65.15 -42.05
Q 65.15234375 -42.0232421875 65.15 -42 Z"/>

<path fill="#DDB143" stroke="none" d="
M -144.25 -42.7
L -148.25 -45.65
Q -155.4 -37.2 -163.95 -27.7 -130.1 1.85 -71.45 20.15 -42.6138671875 29.262890625 -7 35.15 -0.270703125 2.41015625 -1 -39.65
L -22.2 -46
Q -25.0072265625 -4.117578125 -28.45 6.75 -51.9109375 1.2140625 -72.6 -6.25 -114.1 -21.25 -144.25 -42.7
M 92.3 -0.45
Q 87.4328125 -17.6767578125 82.95 -46.45
L 68.3 -42.8
Q 71.2921875 -4.7087890625 76.8 29 95.2806640625 25.4271484375 117.1 16.25 137.562109375 5.9009765625 150.8 -8.5
L 142.55 -26.2 140.15 -24.05
Q 120.7732421875 -9.0013671875 92.3 -0.45 Z"/>
</g>

<g id="rgfhg_0_Layer2_0_FILL">
<path fill="#244859" stroke="none" d="
M -19.35 -44.8
L -25.4 -72.95
Q -52.3822265625 -88.5376953125 -86.45 -112.95
L -72.8 -86.2
Q -55.85 -64.75 -19.35 -44.8
M 83.35 -76.2
L 83.35 -44.85
Q 104.9 -80.65 113.8 -105.75 96.8 -89.05 83.35 -76.2 Z"/>

<path fill="#DDB143" stroke="none" d="
M -97 -134.75
L -86.45 -112.95
Q -52.3822265625 -88.5376953125 -25.4 -72.95
L -19.35 -44.8
Q -9.9 -39.65 -1.9 -37 0.2212890625 -58.2337890625 1.3 -82 -53.799609375 -106.84609375 -97 -134.75
M 113.8 -105.75
Q 119.45 -118.35 121.35 -129.15 100.58203125 -104.2677734375 66.1 -82.15
L 66.1 -42.05 83.35 -44.85 83.35 -76.2
Q 96.8 -89.05 113.8 -105.75 Z"/>
</g>

<g id="rgfhg_0_Layer2_1_MEMBER_0_FILL">
<path fill="#DDB143" stroke="none" d="
M 2.2 -39.2
Q 2.45 -38.0078125 2.65 -36.9 13.05 -32.228125 23.35 -30.3 29.05 -29.2328125 34.7 -29 39.85 -28.8203125 44.95 -29.25 57.35 -30.453125 69.65 -35.85 69.35 -36.95 69.05 -38.1 38.3 -27.550390625 2.2 -39.2 Z"/>
</g>

<g id="rgfhg_0_Layer2_1_MEMBER_1_FILL">
<path fill="#D6DEE2" stroke="none" d="
M 21.6 -12.85
Q 21.6 -5.8 25.75 -0.85 29.9 4.15 35.75 4.15 41.6 4.15 45.75 -0.85 49.9 -5.8 49.9 -12.85 49.9 -19.85 45.75 -24.8 41.6 -29.8 35.75 -29.8 29.9 -29.8 25.75 -24.8 21.6 -19.85 21.6 -12.85
M 26.7 -3.25
Q 22.9 -7.2 22.9 -12.85 22.9 -18.45 26.7 -22.4 30.4 -26.4 35.8 -26.4 41.1 -26.4 44.85 -22.4 48.65 -18.45 48.65 -12.85 48.65 -7.2 44.85 -3.25 41.1 0.75 35.8 0.75 30.4 0.75 26.7 -3.25 Z"/>

<path fill="#9EBDCD" stroke="none" d="
M 22.9 -12.85
Q 22.9 -7.2 26.7 -3.25 30.4 0.75 35.8 0.75 41.1 0.75 44.85 -3.25 48.65 -7.2 48.65 -12.85 48.65 -18.45 44.85 -22.4 41.1 -26.4 35.8 -26.4 30.4 -26.4 26.7 -22.4 22.9 -18.45 22.9 -12.85 Z"/>
</g>

<g id="rgfhg_0_Layer2_1_MEMBER_1_MEMBER_0_FILL">
<path fill="#FFFFFF" stroke="none" d="
M -441.25 6
Q -441.162890625 -2.8625 -435.55 -8.05 -446.71796875 -5.809375 -441.25 6 Z"/>
</g>

<g id="rgfhg_0_Layer2_1_MEMBER_2_FILL">
<path fill="#D6DEE2" stroke="none" d="
M 69.95 -25.8
Q 74.55 -22.3 79.75 -23.8 84.95 -25.25 87.8 -30.75 90.6 -36.3 89.35 -42.7 88.1 -49.05 83.55 -52.5 78.9 -56.05 73.7 -54.6 68.5 -53.1 65.7 -47.55 62.85 -42 64.1 -35.65 65.35 -29.25 69.95 -25.8
M 79.2 -26.85
Q 74.4 -25.5 70.35 -28.25 66.25 -30.9 65.25 -36 64.25 -41.1 66.95 -45.6 69.55 -50.15 74.35 -51.5 79.1 -52.8 83.1 -50.1 87.2 -47.5 88.2 -42.4 89.2 -37.3 86.5 -32.75 83.95 -28.15 79.2 -26.85 Z"/>

<path fill="#9EBDCD" stroke="none" d="
M 70.35 -28.25
Q 74.4 -25.5 79.2 -26.85 83.95 -28.15 86.5 -32.75 89.2 -37.3 88.2 -42.4 87.2 -47.5 83.1 -50.1 79.1 -52.8 74.35 -51.5 69.55 -50.15 66.95 -45.6 64.25 -41.1 65.25 -36 66.25 -30.9 70.35 -28.25 Z"/>
</g>

<g id="rgfhg_0_Layer2_1_MEMBER_2_MEMBER_0_FILL">
<path fill="#FFFFFF" stroke="none" d="
M -441.25 6
Q -441.162890625 -2.8625 -435.55 -8.05 -446.71796875 -5.809375 -441.25 6 Z"/>
</g>

<g id="asAD_0_Layer3_0_FILL">
<path fill="#7FA2AD" stroke="none" d="
M -96.25 56.35
Q -93.1107421875 59.6767578125 -89.2 62.8 -87.8306640625 62.912890625 -86.4 63 -90.2486328125 59.8591796875 -93.35 56.5 -94.7900390625 56.434375 -96.25 56.35
M -61.05 63.35
Q -65.9650390625 60.731640625 -69.95 57.2 -71.2345703125 57.217578125 -72.55 57.2 -68.2865234375 60.7822265625 -63 63.4 -62.0220703125 63.3802734375 -61.05 63.35
M -41.9 56.75
Q -43.0390625 56.8322265625 -44.2 56.85 -39.7693359375 60.0080078125 -34.45 61.9 -33.79453125 61.8482421875 -33.15 61.8 -37.8759765625 59.8244140625 -41.9 56.75 Z"/>

<path fill="#DCF2F7" stroke="none" d="
M -103.3 40.3
Q -101.947265625 44.19921875 -99.8 47.85 -89.6919921875 49.262109375 -79.3 49.95 -81.5751953125 46.8994140625 -83.35 43.35 -93.576171875 42.1513671875 -103.3 40.3
M -105.45 30.35
Q -105.37890625 31.1572265625 -105.3 31.95 -95.9001953125 34.1861328125 -86.4 35.75 -86.8248046875 34.4330078125 -87.2 33.05 -96.328515625 31.8826171875 -105.45 30.35
M -52 45.6
Q -50.2810546875 48.2908203125 -48.35 50.6 -24.81875 49.9935546875 0 46.1
L -0.85 43.9
Q -27.6517578125 46.2599609375 -52 45.6
M -55 45.5
Q -67.9048828125 45.044921875 -80.15 43.7 -78.433203125 47.1681640625 -76.3 50.15 -63.86640625 50.9154296875 -51.05 50.65 -53.1572265625 48.29453125 -55 45.5
M -58.6 39
Q -58.94609375 38.2177734375 -59.3 37.4 -58.6611328125 36.58359375 -58 35.8 -70.93046875 35.0037109375 -83.9 33.45 -83.491015625 34.905078125 -83.05 36.3 -70.9173828125 38.183984375 -58.6 39
M -3.3 37.5
L -3.85 36.05
Q -29.0306640625 37.43671875 -54.15 36.05 -55.0615234375 37.0283203125 -55.9 38.1 -55.6609375 38.65234375 -55.45 39.2 -29.7833984375 40.6232421875 -3.3 37.5 Z"/>

<path fill="#A0C2CD" stroke="none" d="
M -99.8 47.85
Q -101.4466796875 47.6208984375 -103.1 47.35 -100.3091796875 52.0345703125 -96.25 56.35 -94.7900390625 56.434375 -93.35 56.5 -97.160546875 52.3412109375 -99.8 47.85
M -83.05 36.3
Q -84.7310546875 36.053125 -86.4 35.75 -85.1279296875 39.801953125 -83.35 43.35 -81.741796875 43.5505859375 -80.15 43.7 -81.8271484375 40.23671875 -83.05 36.3
M -105.3 31.95
Q -106.9953125 31.553125 -108.7 31.1 -108.1544921875 35.526171875 -106.7 39.65 -105.008203125 40.0140625 -103.3 40.3 -104.7283203125 36.2611328125 -105.3 31.95
M -69.95 57.2
Q -73.489453125 54.0630859375 -76.3 50.15 -77.78828125 50.0853515625 -79.3 49.95 -76.3431640625 53.9720703125 -72.55 57.2 -71.2345703125 57.217578125 -69.95 57.2
M -44.2 56.85
Q -43.0390625 56.8322265625 -41.9 56.75 -45.390234375 54.115234375 -48.35 50.6 -49.6955078125 50.661328125 -51.05 50.65 -47.941015625 54.2142578125 -44.2 56.85
M -52 45.6
Q -53.8587890625 42.6177734375 -55.45 39.2 -56.9962890625 39.10546875 -58.6 39 -56.94375 42.49140625 -55 45.5 -53.4806640625 45.55859375 -52 45.6
M -65.6 11.65
Q -66.0693359375 11.392578125 -66.55 11.1 -90.023046875 9.603515625 -108.85 21.6 -109.2203125 25.7845703125 -108.85 29.75 -107.1513671875 30.0716796875 -105.45 30.35 -105.8142578125 26.4279296875 -105.45 22.3 -87.5859375 10.927734375 -65.6 11.65
M -50.85 19.55
Q -51.3328125 19.3453125 -51.85 19.1 -68.76953125 17.1173828125 -88.05 29.35 -87.6689453125 31.2376953125 -87.2 33.05 -85.533984375 33.2509765625 -83.9 33.45 -84.30078125 31.7890625 -84.65 30.05 -66.7244140625 18.659375 -50.85 19.55
M -32.15 26.4
Q -33.249609375 26.1119140625 -34.35 25.8 -34.6150390625 25.725390625 -34.9 25.65 -49.7623046875 26.711328125 -58 35.8 -56.0630859375 35.9447265625 -54.15 36.05 -46.1623046875 27.579296875 -32.15 26.4 Z"/>

<path fill="#B4D4DF" stroke="none" d="
M -86.4 35.75
Q -84.7310546875 36.053125 -83.05 36.3 -83.491015625 34.905078125 -83.9 33.45 -85.533984375 33.2509765625 -87.2 33.05 -86.8248046875 34.4330078125 -86.4 35.75
M -106.7 39.65
Q -105.2998046875 43.63984375 -103.1 47.35 -101.4466796875 47.6208984375 -99.8 47.85 -101.947265625 44.19921875 -103.3 40.3 -105.008203125 40.0140625 -106.7 39.65
M -108.7 31.1
Q -106.9953125 31.553125 -105.3 31.95 -105.37890625 31.1572265625 -105.45 30.35 -107.1513671875 30.0716796875 -108.85 29.75 -108.7849609375 30.45078125 -108.7 31.1
M -79.3 49.95
Q -77.78828125 50.0853515625 -76.3 50.15 -78.433203125 47.1681640625 -80.15 43.7 -81.741796875 43.5505859375 -83.35 43.35 -81.5751953125 46.8994140625 -79.3 49.95
M -52 45.6
Q -53.4806640625 45.55859375 -55 45.5 -53.1572265625 48.29453125 -51.05 50.65 -49.6955078125 50.661328125 -48.35 50.6 -50.2810546875 48.2908203125 -52 45.6
M -54.15 36.05
Q -56.0630859375 35.9447265625 -58 35.8 -58.6611328125 36.58359375 -59.3 37.4 -58.94609375 38.2177734375 -58.6 39 -56.9962890625 39.10546875 -55.45 39.2 -55.6609375 38.65234375 -55.9 38.1 -55.0615234375 37.0283203125 -54.15 36.05 Z"/>

<path fill="#C0DCE5" stroke="none" d="
M -105.3 31.95
Q -104.7283203125 36.2611328125 -103.3 40.3 -93.576171875 42.1513671875 -83.35 43.35 -85.1279296875 39.801953125 -86.4 35.75 -95.9001953125 34.1861328125 -105.3 31.95
M -34.9 25.65
Q -42.59296875 23.401171875 -50.85 19.55 -66.7244140625 18.659375 -84.65 30.05 -84.30078125 31.7890625 -83.9 33.45 -70.93046875 35.0037109375 -58 35.8 -49.7623046875 26.711328125 -34.9 25.65
M -72.55 57.2
Q -76.3431640625 53.9720703125 -79.3 49.95 -89.6919921875 49.262109375 -99.8 47.85 -97.160546875 52.3412109375 -93.35 56.5 -83.0154296875 57.0498046875 -72.55 57.2
M -44.2 56.85
Q -47.941015625 54.2142578125 -51.05 50.65 -63.86640625 50.9154296875 -76.3 50.15 -73.489453125 54.0630859375 -69.95 57.2 -57.1796875 57.3357421875 -44.2 56.85
M -51.85 19.1
Q -58.557421875 15.9037109375 -65.6 11.65 -87.5859375 10.927734375 -105.45 22.3 -105.8142578125 26.4279296875 -105.45 30.35 -96.328515625 31.8826171875 -87.2 33.05 -87.6689453125 31.2376953125 -88.05 29.35 -68.76953125 17.1173828125 -51.85 19.1
M -55 45.5
Q -56.94375 42.49140625 -58.6 39 -70.9173828125 38.183984375 -83.05 36.3 -81.8271484375 40.23671875 -80.15 43.7 -67.9048828125 45.044921875 -55 45.5
M -0.85 43.9
L -3.3 37.5
Q -29.7833984375 40.6232421875 -55.45 39.2 -53.8587890625 42.6177734375 -52 45.6 -27.6517578125 46.2599609375 -0.85 43.9
M -3.85 36.05
L -6.85 28.4
Q -18.7234375 29.83984375 -32.15 26.4 -46.1623046875 27.579296875 -54.15 36.05 -29.0306640625 37.43671875 -3.85 36.05
M 2.85 53.3
L 0 46.1
Q -24.81875 49.9935546875 -48.35 50.6 -45.390234375 54.115234375 -41.9 56.75 -19.846875 55.8869140625 2.85 53.3 Z"/>

<path fill="#A2C5D0" stroke="none" d="
M -63 63.4
Q -68.2865234375 60.7822265625 -72.55 57.2 -83.0154296875 57.0498046875 -93.35 56.5 -90.2486328125 59.8591796875 -86.4 63 -76.0515625 63.6916015625 -63 63.4
M -69.95 57.2
Q -65.9650390625 60.731640625 -61.05 63.35 -48.8984375 63.040625 -34.45 61.9 -39.7693359375 60.0080078125 -44.2 56.85 -57.1796875 57.3357421875 -69.95 57.2
M 4.6 57.85
L 2.85 53.3
Q -19.846875 55.8869140625 -41.9 56.75 -37.8759765625 59.8244140625 -33.15 61.8 -15.873046875 60.3966796875 4.6 57.85 Z"/>
</g>

<g id="fgfgg_0_Layer2_0_FILL">
<path fill="#5E808B" stroke="none" d="
M 94.1 -46.5
Q 92.9994140625 -41.63671875 90.6 -35.85 93.3869140625 -36.244921875 96.05 -36.7 98.3876953125 -42.3388671875 99.5 -47.1 96.79375 -46.79375 94.1 -46.5
M 65.15 -33.75
Q 65.5134765625 -33.7373046875 65.85 -33.75 68.13125 -33.8326171875 70.35 -33.95 72.3578125 -39.738671875 72.9 -44.5 70.1998046875 -44.2515625 67.5 -44.05 67.0330078125 -39.4173828125 65.15 -33.75
M 35.7 -33.95
Q 36.0919921875 -33.915234375 36.45 -33.9 38.6845703125 -33.7962890625 40.85 -33.75 42.2791015625 -38.6080078125 42.55 -42.65 39.8052734375 -42.551171875 37.1 -42.5 36.9638671875 -38.595703125 35.7 -33.95 Z"/>

<path fill="#A0C2CD" stroke="none" d="
M 96.7 -65.75
Q 94.1451171875 -65.0296875 91.55 -64.35 92.7623046875 -62.961328125 93.75 -61.45 96.1484375 -55.5837890625 94.1 -46.5 96.79375 -46.79375 99.5 -47.1 101.7095703125 -56.4470703125 99.25 -62.45 98.12890625 -64.1580078125 96.7 -65.75
M 39.8 -53.75
Q 37.0376953125 -53.28984375 34.2 -52.9 35.0716796875 -51.8125 35.8 -50.7 37.26328125 -47.17265625 37.1 -42.5 39.8052734375 -42.551171875 42.55 -42.65 42.8736328125 -47.8751953125 41.3 -51.7 40.619140625 -52.7412109375 39.8 -53.75
M 24.15 -61
Q 27.3798828125 -59.21015625 29.95 -57.15 32.7587890625 -57.5525390625 35.55 -58 32.8373046875 -60.26875 29.35 -62.15 26.7744140625 -61.53984375 24.15 -61
M 8.6 -66.8
Q 15.0318359375 -65.2001953125 20.15 -62.95 22.715234375 -63.5203125 25.25 -64.15 19.4142578125 -66.6388671875 11.85 -68.35 10.7181640625 -68.054296875 9.55 -67.8 8.22734375 -67.4904296875 6.85 -67.2 7.742578125 -66.994921875 8.6 -66.8
M 63.45 -57.95
Q 65.0962890625 -56.2125 66.35 -54.3 68.0900390625 -50.05859375 67.5 -44.05 70.1998046875 -44.2515625 72.9 -44.5 73.6865234375 -50.8359375 71.85 -55.3 70.5576171875 -57.2763671875 68.85 -59.05 66.1830078125 -58.4921875 63.45 -57.95
M 48.4 -67.5
Q 54.38828125 -65.159375 58.75 -62.05 61.4623046875 -62.5638671875 64.15 -63.1 59.4244140625 -66.4783203125 52.75 -68.95 50.6162109375 -68.180078125 48.4 -67.5
M 44 -69.05
Q 46.2494140625 -69.676953125 48.45 -70.35 41.5115234375 -72.43515625 32.75 -73.65 31.9798828125 -73.431640625 31.15 -73.25 29.80390625 -72.8505859375 28.45 -72.5 29.3189453125 -72.351953125 30.2 -72.2 37.81484375 -70.97265625 44 -69.05
M 68.5 -77.05
Q 70.442578125 -77.7369140625 72.35 -78.5 65.8462890625 -80.1212890625 57.95 -81.1 57.2802734375 -80.88671875 56.6 -80.7 55.3357421875 -80.275 54.05 -79.9 54.8435546875 -79.7720703125 55.6 -79.65 62.63359375 -78.63125 68.5 -77.05
M 74.9 -77.8
Q 73.137890625 -76.9830078125 71.35 -76.2 81.351953125 -73.0806640625 87.6 -68.1 90.2119140625 -68.702734375 92.8 -69.35 86.016796875 -74.6212890625 74.9 -77.8 Z"/>

<path fill="#B4D4DF" stroke="none" d="
M 92.8 -69.35
Q 90.2119140625 -68.702734375 87.6 -68.1 89.8083984375 -66.345703125 91.55 -64.35 94.1451171875 -65.0296875 96.7 -65.75 94.9927734375 -67.6322265625 92.8 -69.35
M 39.8 -53.75
Q 37.99765625 -56.009765625 35.55 -58 32.7587890625 -57.5525390625 29.95 -57.15 32.3748046875 -55.1443359375 34.2 -52.9 37.0376953125 -53.28984375 39.8 -53.75
M 29.35 -62.15
Q 27.42109375 -63.2 25.25 -64.15 22.715234375 -63.5203125 20.15 -62.95 22.2701171875 -62.01875 24.15 -61 26.7744140625 -61.53984375 29.35 -62.15
M 63.45 -57.95
Q 66.1830078125 -58.4921875 68.85 -59.05 66.817578125 -61.2201171875 64.15 -63.1 61.4623046875 -62.5638671875 58.75 -62.05 61.4095703125 -60.1462890625 63.45 -57.95
M 48.45 -70.35
Q 46.2494140625 -69.676953125 44 -69.05 46.3140625 -68.3017578125 48.4 -67.5 50.6162109375 -68.180078125 52.75 -68.95 50.719140625 -69.68125 48.45 -70.35
M 74.9 -77.8
Q 73.6625 -78.1486328125 72.35 -78.5 70.442578125 -77.7369140625 68.5 -77.05 69.9638671875 -76.627734375 71.35 -76.2 73.137890625 -76.9830078125 74.9 -77.8 Z"/>

<path fill="#80A5B0" stroke="none" d="
M 70.35 -33.95
Q 71.5265625 -34.003125 72.7 -34.1 82.1669921875 -34.66484375 90.6 -35.85 92.9994140625 -41.63671875 94.1 -46.5 83.328515625 -45.328125 72.9 -44.5 72.3578125 -39.738671875 70.35 -33.95
M 65.15 -33.75
Q 67.0330078125 -39.4173828125 67.5 -44.05 54.7404296875 -43.1033203125 42.55 -42.65 42.2791015625 -38.6080078125 40.85 -33.75 53.715625 -33.3177734375 65.15 -33.75
M 35.7 -33.95
Q 36.9638671875 -38.595703125 37.1 -42.5 0.7791015625 -41.4314453125 -30.5 -44.85
L -30.5 -40.7
Q 6.123046875 -35.2310546875 35.7 -33.95 Z"/>

<path fill="#DCF2F7" stroke="none" d="
M 24.15 -61
Q 22.2701171875 -62.01875 20.15 -62.95 -4.4021484375 -57.494921875 -30.5 -54.95
L -30.5 -54.4
Q -1.5556640625 -55.4177734375 24.15 -61
M 34.2 -52.9
Q 32.3748046875 -55.1443359375 29.95 -57.15 -0.0720703125 -52.5828125 -30.5 -50.4
L -30.5 -46.5
Q 3.217578125 -48.2703125 34.2 -52.9
M 63.45 -57.95
Q 61.4095703125 -60.1462890625 58.75 -62.05 47.196875 -59.8513671875 35.55 -58 37.99765625 -56.009765625 39.8 -53.75 51.8572265625 -55.618359375 63.45 -57.95
M 64.15 -63.1
Q 66.817578125 -61.2201171875 68.85 -59.05 80.4123046875 -61.4857421875 91.55 -64.35 89.8083984375 -66.345703125 87.6 -68.1 75.9169921875 -65.421484375 64.15 -63.1
M 48.4 -67.5
Q 46.3140625 -68.3017578125 44 -69.05 34.746875 -66.3591796875 25.25 -64.15 27.42109375 -63.2 29.35 -62.15 39.1216796875 -64.48359375 48.4 -67.5
M 71.35 -76.2
Q 69.9638671875 -76.627734375 68.5 -77.05 58.63046875 -73.4287109375 48.45 -70.35 50.719140625 -69.68125 52.75 -68.95 62.3236328125 -72.1970703125 71.35 -76.2 Z"/>

<path fill="#C0DCE5" stroke="none" d="
M 35.8 -50.7
Q 35.0716796875 -51.8125 34.2 -52.9 3.217578125 -48.2703125 -30.5 -46.5
L -30.5 -44.85
Q 0.7791015625 -41.4314453125 37.1 -42.5 37.26328125 -47.17265625 35.8 -50.7
M 29.95 -57.15
Q 27.3798828125 -59.21015625 24.15 -61 -1.5556640625 -55.4177734375 -30.5 -54.4
L -30.5 -50.4
Q -0.0720703125 -52.5828125 29.95 -57.15
M 30.2 -72.2
Q 29.3189453125 -72.351953125 28.45 -72.5 20.0625 -70.2427734375 11.85 -68.35 19.4142578125 -66.6388671875 25.25 -64.15 34.746875 -66.3591796875 44 -69.05 37.81484375 -70.97265625 30.2 -72.2
M 20.15 -62.95
Q 15.0318359375 -65.2001953125 8.6 -66.8 7.742578125 -66.994921875 6.85 -67.2 6.659375 -67.1515625 6.45 -67.1 -12.559765625 -62.848046875 -30.5 -60.35
L -30.5 -54.95
Q -4.4021484375 -57.494921875 20.15 -62.95
M 52.75 -68.95
Q 59.4244140625 -66.4783203125 64.15 -63.1 75.9169921875 -65.421484375 87.6 -68.1 81.351953125 -73.0806640625 71.35 -76.2 62.3236328125 -72.1970703125 52.75 -68.95
M 68.85 -59.05
Q 70.5576171875 -57.2763671875 71.85 -55.3 73.6865234375 -50.8359375 72.9 -44.5 83.328515625 -45.328125 94.1 -46.5 96.1484375 -55.5837890625 93.75 -61.45 92.7623046875 -62.961328125 91.55 -64.35 80.4123046875 -61.4857421875 68.85 -59.05
M 66.35 -54.3
Q 65.0962890625 -56.2125 63.45 -57.95 51.8572265625 -55.618359375 39.8 -53.75 40.619140625 -52.7412109375 41.3 -51.7 42.8736328125 -47.8751953125 42.55 -42.65 54.7404296875 -43.1033203125 67.5 -44.05 68.0900390625 -50.05859375 66.35 -54.3
M 58.75 -62.05
Q 54.38828125 -65.159375 48.4 -67.5 39.1216796875 -64.48359375 29.35 -62.15 32.8373046875 -60.26875 35.55 -58 47.196875 -59.8513671875 58.75 -62.05
M 55.6 -79.65
Q 54.8435546875 -79.7720703125 54.05 -79.9 44.359375 -76.8501953125 34.85 -74.25 33.828125 -73.93359375 32.75 -73.65 41.5115234375 -72.43515625 48.45 -70.35 58.63046875 -73.4287109375 68.5 -77.05 62.63359375 -78.63125 55.6 -79.65 Z"/>
</g>

<g id="ghfgh_0_Layer3_0_FILL">
<path fill="#452202" stroke="none" d="
M 49.15 8.2
Q 243.30390625 17.674609375 433.8 5.8
L 431.35 -9.8
Q 73.35 7.65 -300.2 1.65 -353.75 10.25 -431.25 9.75 -387.15 12.2 -354.45 18.95 -334.108984375 13.4025390625 -309.6 15 -309.3359375 15.0072265625 -309.1 15 -288.24140625 14.0185546875 -276.7 8.55 -112.12890625 15.1357421875 49.15 8.2 Z"/>

<path fill="#321801" stroke="none" d="
M 436.25 21.4
L 433.8 5.8
Q 243.30390625 17.674609375 49.15 8.2 -112.12890625 15.1357421875 -276.7 8.55 -288.24140625 14.0185546875 -309.1 15 -304.680859375 15.3232421875 -300.15 15.85 68.45 11.5 436.25 21.4 Z"/>
</g>

<g id="ghfgh_0_Layer3_1_FILL">
<path fill="#D68B67" stroke="none" d="
M 245.25 -4.1
Q 244.45 -7.1 242.6 -7.25 243.2 -6.55 243.4 -3.9 243.699609375 -0.3052734375 243.3 8.25
L 243.3 8.3
Q 242.9623046875 13.6 242.25 20.85 244.25 18.55 245.3 15.35 245.7458984375 11.4267578125 245.9 8.2 245.9208984375 8.13125 245.9 8.05
L 245.95 8.05
Q 246.3 -0.6 245.25 -4.1
M 272 -8.85
L 270 -13.85
Q 268.5 -13.35 267.05 -12.95 268.05 -9.95 268.3 -7.9 268.9 -3.45 269.2 5.9 269.362890625 10.6859375 269.4 16.75 270.64453125 12.7123046875 271.3 5.65
L 271.35 5.7 271.35 5.65
Q 271.800390625 -1.2154296875 272 -8.85
M 254.7 -9.85
Q 255.35 -8.65 255.7 -5.5 256.2 -1.4 256.25 7.15 256.251953125 12.1478515625 256.05 18.65
L 258.3 10.3
Q 258.4095703125 8.5556640625 258.45 6.95 258.5 -1.4 257.05 -5.75 256.15 -8.35 254.7 -9.85
M 226.85 -4.85
Q 225.85 -3.95 224.35 -1.55 228 -0.8 229.95 1.05 230.25 2.9 228.95 9.3 228.257421875 11.9267578125 227.15 15.4
L 213.1 15.9
Q 209.2 19.7 208.55 23.75
L 230.1 20.3 231.75 9.15 231.75 9.1 233.3 -3.05 233.3 -3.1 226.9 -4.85 226.85 -4.85 Z"/>

<path fill="#FFDBB8" stroke="none" d="
M 277.15 -13.95
Q 273.75 -14.25 270 -13.85
L 272 -8.85 283.85 -9.7
Q 284.15 -11.1 284.45 -12.45 281 -13.6 277.15 -13.95
M 233.3 -3.1
L 233.3 -3.05
Q 238.5 -3.4 243.4 -3.9 243.2 -6.55 242.6 -7.25 244.45 -7.1 245.25 -4.1 250.65 -4.7 255.7 -5.5 255.35 -8.65 254.7 -9.85 256.15 -8.35 257.05 -5.75 263 -6.7 268.3 -7.9 268.05 -9.95 267.05 -12.95 261.3 -11.4 254.65 -9.9 251.55 -9.25 248.2 -8.55 245.25 -8 242.25 -7.45 235 -6.1 226.9 -4.85
L 233.3 -3.1 Z"/>

<path fill="#F0BF90" stroke="none" d="
M 255.7 -5.5
Q 250.65 -4.7 245.25 -4.1 246.3 -0.6 245.95 8.05
L 245.9 8.05
Q 245.9208984375 8.13125 245.9 8.2 245.7458984375 11.4267578125 245.3 15.35 244.25 18.55 242.25 20.85 242.9623046875 13.6 243.3 8.3
L 243.3 8.25
Q 243.699609375 -0.3052734375 243.4 -3.9 238.5 -3.4 233.3 -3.05
L 231.75 9.1 231.75 9.15 230.1 20.3 208.55 23.75
Q 208.36640625 32.08203125 217.1 36.5 241.2359375 29.62734375 262.85 26.8 277.5142578125 21.9658203125 281.25 18.65 281.068359375 11.5595703125 281.8 4.5
L 281.8 4.45
Q 281.762109375 3.1787109375 281.75 3.05 282.4267578125 -3.3201171875 283.85 -9.7
L 272 -8.85
Q 271.800390625 -1.2154296875 271.35 5.65
L 271.35 5.7 271.3 5.65
Q 270.64453125 12.7123046875 269.4 16.75 269.362890625 10.6859375 269.2 5.9 268.9 -3.45 268.3 -7.9 263 -6.7 257.05 -5.75 258.5 -1.4 258.45 6.95 258.4095703125 8.5556640625 258.3 10.3
L 256.05 18.65
Q 256.251953125 12.1478515625 256.25 7.15 256.2 -1.4 255.7 -5.5
M 248.2 -8.55
Q 251.55 -9.25 254.65 -9.9 261.3 -11.4 267.05 -12.95 268.5 -13.35 270 -13.85 273.75 -14.25 277.15 -13.95 279.5 -16.7 278.85 -20.25 267.05 -20.5 257.65 -24.05 253.2 -14.4 248.2 -8.55 Z"/>
</g>

<g id="ghfgh_0_Layer3_2_FILL">
<path fill="#BB6B45" stroke="none" d="
M -165.5 6.85
L -165.5 4.1 -173.25 -11.65
Q -172.45 -4 -165.5 6.85
M -150.1 -23.3
Q -148.8 -17 -144.05 -4.15
L -144.05 -4.1 -140.65 3.05
Q -139.75 2.95 -138.95 2.85 -144.5 -12 -150.1 -23.3
M -160.7 -19.7
Q -160.1 -12.8 -155 -0.95 -154.05 -1.35 -153.1 -1.7
L -160.7 -19.7 Z"/>

<path fill="#D68B67" stroke="none" d="
M -136.05 -34.25
L -136 -34.25 -136 -34.2 -136.05 -34.25
Q -150.45 -34.25 -158.75 -31.45 -170.5 -20.45 -188.15 -9.7 -187.55 -5.6 -175.9 10.4 -172.7 11.55 -165.5 6.85 -172.45 -4 -173.25 -11.65
L -165.5 4.1
Q -160.15 1.05 -155 -0.95 -160.1 -12.8 -160.7 -19.7
L -153.1 -1.7
Q -148.45 -3.35 -144.05 -4.15 -148.8 -17 -150.1 -23.3 -144.5 -12 -138.95 2.85 -130.45 1.5 -126.95 -3.05
L -133.05 -24.4 -123.8 -26.9
Q -128 -34.35 -132.8 -37.3 -139.65 -37.9 -149.1 -41.15 -143.1 -37.25 -136.05 -34.25 Z"/>

<path fill="#F0BF90" stroke="none" d="
M -191.4 -39.85
Q -188.25 -20.55 -188.15 -9.7 -170.5 -20.45 -158.75 -31.45 -150.45 -34.25 -136.05 -34.25 -143.1 -37.25 -149.1 -41.15 -139.65 -37.9 -132.8 -37.3 -128 -34.35 -123.8 -26.9
L -118.4 -28.35
Q -123.25 -38.3 -128.85 -42.5 -148.35 -40.95 -161.65 -51.5 -178.25 -51.7 -191.4 -39.85 Z"/>
</g>

<g id="R_trytjg3_0_Layer0_0_FILL">
<path fill="#FF2727" stroke="none" d="
M -465.35 350.45
Q -465.35 376.85 -446.75 395.45 -428.1 414.1 -401.7 414.1 -375.3 414.1 -356.7 395.45 -338.05 376.85 -338.05 350.45 -338.05 324.1 -356.7 305.4 -375.3 286.85 -401.7 286.85 -428.1 286.85 -446.75 305.4 -465.35 324.1 -465.35 350.45
M -443.3 373.95
Q -461.45 363.7 -460 341.1 -458.55 318.5 -441.85 304.5 -425.2 290.45 -401.25 290.85 -377.35 291.2 -360.35 305.5 -343.4 319.8 -344.4 340.15 -345.4 360.45 -361.2 370.55 -377 380.6 -401.05 382.4 -425.15 384.15 -443.3 373.95 Z"/>

<path fill="#FF9D9D" stroke="none" d="
M -460 341.1
Q -461.45 363.7 -443.3 373.95 -425.15 384.15 -401.05 382.4 -377 380.6 -361.2 370.55 -345.4 360.45 -344.4 340.15 -343.4 319.8 -360.35 305.5 -377.35 291.2 -401.25 290.85 -425.2 290.45 -441.85 304.5 -458.55 318.5 -460 341.1 Z"/>
</g>

<g id="R_trytjg3_0_Layer0_0_MEMBER_0_FILL">
<path fill="#B40E0E" stroke="none" d="
M -633 389.05
Q -649.3005859375 381.1927734375 -645.55 389.1 -643.574609375 393.23984375 -637.9 397.9 -622.161328125 410.815625 -598.6 410.85 -577.75703125 411.116015625 -564.85 400.7 -559.7763671875 396.462109375 -556.6 391.85 -549.426171875 381.585546875 -572.4 392.7 -598.9189453125 405.5287109375 -633 389.05 Z"/>
</g>

<g id="R_trytjg3_0_Layer0_0_MEMBER_1_FILL">
<path fill="#EE7171" stroke="none" d="
M -573.25 305.75
Q -574.8 303.35 -577.6 301.85 -585.25 297.55 -594.2 296.55 -603.1 295.5 -613.95 297.75 -622.85 299.7 -631.05 305 -639.2 310.3 -644.85 318 -648.2 322.55 -647 325.6 -645.15 330.05 -635.65 329.6 -626.15 329.15 -611.85 326.05 -597.55 322.9 -588.35 319.1 -579.2 315.25 -576.35 313.5 -573.5 311.7 -572.85 310.75 -571.45 308.5 -573.25 305.75 Z"/>
</g>

<g id="R_FDFG3_0_Layer0_0_FILL">
<path fill="#770404" stroke="none" d="
M -579.3 367.25
Q -579.2251953125 367.2572265625 -579.15 367.25 -579.1765625 367.05078125 -579.1 366.8 -578.8013671875 365.8462890625 -579.3 367.25
M -576.7 314
Q -571.5802734375 316.8486328125 -568.5 321.5 -565.37265625 326.1970703125 -563.7 330.65 -561.9890625 335.15625 -561.7 337.2 -561.3568359375 339.300390625 -561.7 344.9 -561.993359375 350.498828125 -568.3 358.6 -574.6095703125 366.694140625 -576.9 367.4 -575.6169921875 367.4908203125 -574.75 367.25 -573.2 366.85 -571.25 365 -566.7 360.75 -563.75 355.2 -560.8 349.6 -559.85 343.5 -559.25 339.95 -559.55 336.9 -559.75 334.55 -560.7 331.5 -562.95 324.35 -567.95 318.4 -570.95 314.8 -574.15 312.7 -577.75 310.35 -582.1 309.45 -586.45 308.55 -590.7 309.35 -594.95 310.15 -598.75 312.5 -602.5 314.85 -605.05 318.35 -607.5 321.8 -608.05 325.15 -608.85 329.75 -606.4 334.7 -604.55 338.6 -601.3 341.4 -597.9 344.25 -593.85 345.1 -589.65 346 -585.55 344.45 -581.3 342.9 -579.05 339.4 -577.65 337.15 -577.35 334.6 -577 331.85 -578.05 329.6 -579 327.65 -580.8 326.3 -582.6 324.95 -584.75 324.65 -586.45 324.4 -588.1 324.9 -589.8 325.45 -590.9 326.65 -592.1 327.9 -592.35 329.65 -592.6 331.45 -591.75 332.85 -591.05 333.9 -589.95 334.5 -588.8 335.1 -587.55 335 -586.3 334.95 -585.25 334.2 -584.25 333.5 -583.7 332.35 -583.5 331.8 -583.65 331.6 -583.85 331.35 -584.6 331.45 -586.1544921875 331.75546875 -588.4 331.15 -590.5869140625 330.5814453125 -590.3 329.2 -590.0109375 327.8255859375 -588.85 327.1 -587.6455078125 326.36640625 -586.25 326.45 -584.7994140625 326.5365234375 -583.05 327.5 -581.2544921875 328.51328125 -579.9 330.5 -578.5447265625 332.487109375 -579.6 335.85 -580.6517578125 339.253515625 -583.7 341.3 -586.70078125 343.4025390625 -589.9 343.25 -593.0482421875 343.0955078125 -596.95 341.35 -600.8056640625 339.6060546875 -603.3 335.6 -605.7859375 331.646875 -606.2 329.2 -606.614453125 326.7615234375 -605.45 322.9 -604.2833984375 319.081640625 -599.65 315.6 -595.0244140625 312.175 -588.45 311.65 -581.8123046875 311.155859375 -576.7 314 Z"/>
</g>

<g id="R_FDFG3_0_Layer0_1_FILL">
<path fill="#770404" stroke="none" d="
M -543.2 345.8
L -544.2 343.7
Q -543.65 346.05 -543.4 349.8 -543.25 351.75 -543.3 353.35 -543.5 355.35 -544.45 357.95 -544.85 359.35 -545.4 359.95 -546.1 361 -547.95 361.65 -551.45 363.05 -554.25 362.45 -555.85 362.15 -557.15 361.1 -558.5 360.05 -559 358.55 -559.25 357.85 -559.35 356.4 -559.35 354.6 -559 353.05 -558.5 350.45 -556.9 349.95 -555.5 349.4 -554.25 350.6 -553.25 351.6 -553.1 353.25 -553 354.95 -553.95 355.45 -554.55 355.75 -555.2 355.35 -555.85 355 -555.9 354.35 -555.85 353.95 -555.85 353.7 -555.85 353.35 -556.05 353.2 -557.15 354.05 -556.8 355.4 -556.6 356.15 -555.9 356.65 -555.25 357.15 -554.45 357.15 -553.15 357.15 -552.3 356.15 -551.6 355.15 -551.6 353.7 -551.6 351.95 -552.35 350.65 -553.2 349.15 -554.7 348.7 -555.5 348.45 -556.7 348.55 -557.35 348.55 -557.9 348.75 -558.45 348.95 -559.1 349.5 -561 351.4 -560.9 355.2 -560.9 359.8 -558.2 362 -557.65 362.45 -556.15 363.2
L -555 363.7
Q -551.7 365 -546.95 362.8 -544.9 361.75 -544 360.65 -543.6 360.05 -543.1 358.75 -541.85 355.45 -541.8 352.5 -541.8 351.6 -542 349.8 -542.15 348.35 -542.5 347.3 -542.75 346.6 -543.2 345.8 Z"/>
</g>

<g id="R_FDFG3_0_Layer0_2_FILL">
<path fill="#770404" stroke="none" d="
M -573.2 395.3
Q -582.034765625 391.6140625 -572.1 381.65 -579.317578125 384.805078125 -577.15 393.25 -576.3 396.45 -573.5 396.95 -557.6150390625 399.13515625 -553.15 383.2 -548.7150390625 367.5494140625 -564.4 365.65 -562.7478515625 366.2865234375 -556.3 371.85 -549.7986328125 377.456640625 -557.1 388.25 -564.3556640625 399.044140625 -573.2 395.3
M -569.05 382.2
L -570.4 381.05
Q -571.18203125 381.2935546875 -571.9 381.6 -568.508984375 384.0345703125 -569.5 387.85
L -572.3 389.85 -571.75 389.95
Q -571.55 389.85 -571.3 389.75 -566 387.25 -569.05 382.2 Z"/>
</g>

<g id="R_FDFG3_0_Layer0_3_FILL">
<path fill="#770404" stroke="none" d="
M -615.5 350.2
Q -613.103515625 349.3513671875 -611.65 348.8 -610.14921875 348.299609375 -608.1 347.95 -608.85 347.95 -612.15 347.7 -614.6 347.45 -616.15 347.7 -619.5 348.2 -623.15 351.25 -626.6 354.2 -629.25 358.7 -631.85 363.2 -632.95 368.2 -634.1 373.35 -633.45 378.35 -632.75 383.5 -630.3 388 -627.8 392.65 -623.85 395.8 -619.8 399.05 -614.75 400.3 -609.6 401.65 -604.65 400.6 -598.2 399.25 -593.2 394.15 -588.35 389.2 -586.7 382.6 -584.95 375.7 -587.3 369.95 -588.55 366.9 -590.85 364.65 -593.3 362.3 -596.35 361.4 -599.25 360.6 -602.3 361.2 -605.35 361.8 -607.85 363.6 -610.25 365.35 -611.9 368 -613.5 370.6 -614.1 373.6 -614.65 376.25 -614.15 378.6 -613.65 381.2 -611.95 382.8 -610.15 384.55 -607.45 384.6 -604.75 384.65 -602.9 383 -602.1 382.3 -602.5 381.75 -603.75 382.6 -605.4 382.45 -607 382.3 -608.25 381.35 -610.75 379.45 -610.85 375.95 -611 373.2 -609.35 370 -608.25 367.9 -606.95 366.65 -604.5 364.35 -600.85 364.05 -597.3 363.8 -594.35 365.6 -591.5 367.35 -589.8 370.5 -588.15 373.5 -588.05 377 -587.85 383.55 -592.45 389.6 -595.1 393.05 -598.65 395.15 -602.4470703125 397.3505859375 -606.6 398.2 -610.711328125 399.04765625 -614.85 398.1 -618.98046875 397.2041015625 -623.2 393.9 -627.423046875 390.5939453125 -630.2 383.3 -632.9333984375 376.053515625 -630.8 368.45 -628.6548828125 360.848828125 -626 357.95 -623.35546875 355.1037109375 -620.6 353.1 -617.844140625 351.096875 -615.5 350.2 Z"/>
</g>

<g id="R_FDFG3_0_Layer0_4_FILL">
<path fill="#770404" stroke="none" d="
M -626.95 311
Q -623.25 313.9 -621 319.45 -617.85 327.1 -619.05 334.45 -619.55 337.7 -621 340.15 -622.7 342.95 -625.3 344.05 -627.85 345.1 -630.75 344.3 -633.6 343.5 -635.5 341.35 -637.3 339.35 -638.1 336.45 -638.85 333.75 -638.6 330.85 -638.35 327.6 -636.95 325.35 -635.6 323.15 -633.3 322.3 -632.15 321.9 -630.95 322 -629.7 322.05 -628.65 322.7 -626.6 324 -625.75 327.6 -625.3 329.4 -625.65 330.6 -625.85 331.35 -626.4 331.85 -627 332.45 -627.75 332.5 -628.5 332.55 -629.1 331.95 -629.65 331.3 -629.45 330.6 -630.05 331.25 -629.85 332.3 -629.7 333.25 -628.9 333.8 -628.15 334.3 -627.15 334.2 -626.2 334.1 -625.45 333.5 -624.05 332.4 -623.8 330.3 -623.4 326.95 -626.1 323.25 -628.8 319.8 -631.65 319.6 -633.55 319.5 -635.35 320.8 -636.95 321.9 -638.1 323.8 -640.65 327.9 -640.35 333 -640.05 338.1 -637.05 341.85 -634.85 344.6 -631.65 345.8 -628.2 347.1 -625.2 345.95 -623.35 345.25 -621.4 343.3 -616.85 338.55 -616.45 331.1 -616.1 324.9 -619.1 318.05 -621.4 312.8 -624.75 309.7 -628.95 305.8 -633.85 305.75 -638.5 305.7 -642.75 309 -646.1 311.7 -648.8 316.4 -653.2 324 -654.45 333.5 -655.65 342.3 -653.95 351.6 -651.7 363.8 -645.15 368.85 -643.45 370.2 -641.95 370.45 -647.1482421875 364.34453125 -650.3 356.15 -653.4080078125 348.01640625 -652.95 337.95 -652.49375 327.8779296875 -649.75 321.25 -646.9529296875 314.6814453125 -643.2 311.95 -639.399609375 309.211328125 -636.85 308.6 -634.3 308.045703125 -631.6 308.7 -629.1 309.3 -626.95 311 Z"/>
</g>

<g id="R_FDFG3_0_Layer0_5_FILL">
<path fill="#770404" stroke="none" d="
M -609.1 296.35
Q -609.3 296.3 -610.55 295.9 -611.45 295.65 -612 295.7 -612.75 295.8 -614.25 296.85 -615.65 297.95 -616.25 298.65 -618 300.6 -618.4 303.6 -618.9 306.6 -617.9 309.05 -616.75 311.9 -614.2 313 -613.55 313.25 -612.25 313.55 -611 313.85 -610.5 313.9 -608.65 314.1 -606.95 313.1 -605.3 312.15 -604.5 310.45 -603.7 308.75 -603.8 305.9 -603.8 304.15 -604.3 303.3 -605.3 301.55 -607.6 301.45 -608.85 301.45 -609.55 301.95 -610.35 302.5 -610.5 303.6 -610.7 304.6 -610.3 305.6
L -609.85 305.55
Q -609.7 304.75 -609.05 304.25 -608.45 303.75 -607.65 303.7 -606.9 303.65 -606.25 304.15 -605.55 304.65 -605.35 305.4 -605.25 305.85 -605.25 306.8 -605.35 308.05 -605.45 308.3 -605.6 308.95 -605.95 309.5 -606.65 310.85 -607.6 311.55 -609.2 312.65 -611.7 312.1 -612.7 311.9 -613.15 311.6 -614.05 311.1 -614.9 309.7 -616.6 307.05 -616.75 304.65 -616.9 301.5 -614.8 299.75 -614.55 299.55 -613.25 298.7 -612.25 297.95 -611.9 297.75 -611.75 297.7 -610.4 297.15 -609.5 296.85 -609.1 296.35 Z"/>
</g>

<g id="R_trytjg3_0_Layer0_1_MEMBER_1_FILL">
<path fill="#770404" stroke="none" d="
M -579.3 367.25
Q -579.2251953125 367.2572265625 -579.15 367.25 -579.1765625 367.05078125 -579.1 366.8 -578.8013671875 365.8462890625 -579.3 367.25
M -576.7 314
Q -571.5802734375 316.8486328125 -568.5 321.5 -565.37265625 326.1970703125 -563.7 330.65 -561.9890625 335.15625 -561.7 337.2 -561.3568359375 339.300390625 -561.7 344.9 -561.993359375 350.498828125 -568.3 358.6 -574.6095703125 366.694140625 -576.9 367.4 -575.6169921875 367.4908203125 -574.75 367.25 -573.2 366.85 -571.25 365 -566.7 360.75 -563.75 355.2 -560.8 349.6 -559.85 343.5 -559.25 339.95 -559.55 336.9 -559.75 334.55 -560.7 331.5 -562.95 324.35 -567.95 318.4 -570.95 314.8 -574.15 312.7 -577.75 310.35 -582.1 309.45 -586.45 308.55 -590.7 309.35 -594.95 310.15 -598.75 312.5 -602.5 314.85 -605.05 318.35 -607.5 321.8 -608.05 325.15 -608.85 329.75 -606.4 334.7 -604.55 338.6 -601.3 341.4 -597.9 344.25 -593.85 345.1 -589.65 346 -585.55 344.45 -581.3 342.9 -579.05 339.4 -577.65 337.15 -577.35 334.6 -577 331.85 -578.05 329.6 -579 327.65 -580.8 326.3 -582.6 324.95 -584.75 324.65 -586.45 324.4 -588.1 324.9 -589.8 325.45 -590.9 326.65 -592.1 327.9 -592.35 329.65 -592.6 331.45 -591.75 332.85 -591.05 333.9 -589.95 334.5 -588.8 335.1 -587.55 335 -586.3 334.95 -585.25 334.2 -584.25 333.5 -583.7 332.35 -583.5 331.8 -583.65 331.6 -583.85 331.35 -584.6 331.45 -586.1544921875 331.75546875 -588.4 331.15 -590.5869140625 330.5814453125 -590.3 329.2 -590.0109375 327.8255859375 -588.85 327.1 -587.6455078125 326.36640625 -586.25 326.45 -584.7994140625 326.5365234375 -583.05 327.5 -581.2544921875 328.51328125 -579.9 330.5 -578.5447265625 332.487109375 -579.6 335.85 -580.6517578125 339.253515625 -583.7 341.3 -586.70078125 343.4025390625 -589.9 343.25 -593.0482421875 343.0955078125 -596.95 341.35 -600.8056640625 339.6060546875 -603.3 335.6 -605.7859375 331.646875 -606.2 329.2 -606.614453125 326.7615234375 -605.45 322.9 -604.2833984375 319.081640625 -599.65 315.6 -595.0244140625 312.175 -588.45 311.65 -581.8123046875 311.155859375 -576.7 314 Z"/>
</g>

<g id="R_trytjg3_0_Layer0_1_MEMBER_2_FILL">
<path fill="#770404" stroke="none" d="
M -543.2 345.8
L -544.2 343.7
Q -543.65 346.05 -543.4 349.8 -543.25 351.75 -543.3 353.35 -543.5 355.35 -544.45 357.95 -544.85 359.35 -545.4 359.95 -546.1 361 -547.95 361.65 -551.45 363.05 -554.25 362.45 -555.85 362.15 -557.15 361.1 -558.5 360.05 -559 358.55 -559.25 357.85 -559.35 356.4 -559.35 354.6 -559 353.05 -558.5 350.45 -556.9 349.95 -555.5 349.4 -554.25 350.6 -553.25 351.6 -553.1 353.25 -553 354.95 -553.95 355.45 -554.55 355.75 -555.2 355.35 -555.85 355 -555.9 354.35 -555.85 353.95 -555.85 353.7 -555.85 353.35 -556.05 353.2 -557.15 354.05 -556.8 355.4 -556.6 356.15 -555.9 356.65 -555.25 357.15 -554.45 357.15 -553.15 357.15 -552.3 356.15 -551.6 355.15 -551.6 353.7 -551.6 351.95 -552.35 350.65 -553.2 349.15 -554.7 348.7 -555.5 348.45 -556.7 348.55 -557.35 348.55 -557.9 348.75 -558.45 348.95 -559.1 349.5 -561 351.4 -560.9 355.2 -560.9 359.8 -558.2 362 -557.65 362.45 -556.15 363.2
L -555 363.7
Q -551.7 365 -546.95 362.8 -544.9 361.75 -544 360.65 -543.6 360.05 -543.1 358.75 -541.85 355.45 -541.8 352.5 -541.8 351.6 -542 349.8 -542.15 348.35 -542.5 347.3 -542.75 346.6 -543.2 345.8 Z"/>
</g>

<g id="R_trytjg3_0_Layer0_1_MEMBER_3_FILL">
<path fill="#770404" stroke="none" d="
M -573.2 395.3
Q -582.034765625 391.6140625 -572.1 381.65 -579.317578125 384.805078125 -577.15 393.25 -576.3 396.45 -573.5 396.95 -557.6150390625 399.13515625 -553.15 383.2 -548.7150390625 367.5494140625 -564.4 365.65 -562.7478515625 366.2865234375 -556.3 371.85 -549.7986328125 377.456640625 -557.1 388.25 -564.3556640625 399.044140625 -573.2 395.3
M -569.05 382.2
L -570.4 381.05
Q -571.18203125 381.2935546875 -571.9 381.6 -568.508984375 384.0345703125 -569.5 387.85
L -572.3 389.85 -571.75 389.95
Q -571.55 389.85 -571.3 389.75 -566 387.25 -569.05 382.2 Z"/>
</g>

<g id="R_trytjg3_0_Layer0_1_MEMBER_4_FILL">
<path fill="#770404" stroke="none" d="
M -615.5 350.2
Q -613.103515625 349.3513671875 -611.65 348.8 -610.14921875 348.299609375 -608.1 347.95 -608.85 347.95 -612.15 347.7 -614.6 347.45 -616.15 347.7 -619.5 348.2 -623.15 351.25 -626.6 354.2 -629.25 358.7 -631.85 363.2 -632.95 368.2 -634.1 373.35 -633.45 378.35 -632.75 383.5 -630.3 388 -627.8 392.65 -623.85 395.8 -619.8 399.05 -614.75 400.3 -609.6 401.65 -604.65 400.6 -598.2 399.25 -593.2 394.15 -588.35 389.2 -586.7 382.6 -584.95 375.7 -587.3 369.95 -588.55 366.9 -590.85 364.65 -593.3 362.3 -596.35 361.4 -599.25 360.6 -602.3 361.2 -605.35 361.8 -607.85 363.6 -610.25 365.35 -611.9 368 -613.5 370.6 -614.1 373.6 -614.65 376.25 -614.15 378.6 -613.65 381.2 -611.95 382.8 -610.15 384.55 -607.45 384.6 -604.75 384.65 -602.9 383 -602.1 382.3 -602.5 381.75 -603.75 382.6 -605.4 382.45 -607 382.3 -608.25 381.35 -610.75 379.45 -610.85 375.95 -611 373.2 -609.35 370 -608.25 367.9 -606.95 366.65 -604.5 364.35 -600.85 364.05 -597.3 363.8 -594.35 365.6 -591.5 367.35 -589.8 370.5 -588.15 373.5 -588.05 377 -587.85 383.55 -592.45 389.6 -595.1 393.05 -598.65 395.15 -602.4470703125 397.3505859375 -606.6 398.2 -610.711328125 399.04765625 -614.85 398.1 -618.98046875 397.2041015625 -623.2 393.9 -627.423046875 390.5939453125 -630.2 383.3 -632.9333984375 376.053515625 -630.8 368.45 -628.6548828125 360.848828125 -626 357.95 -623.35546875 355.1037109375 -620.6 353.1 -617.844140625 351.096875 -615.5 350.2 Z"/>
</g>

<g id="R_trytjg3_0_Layer0_1_MEMBER_5_FILL">
<path fill="#770404" stroke="none" d="
M -626.95 311
Q -623.25 313.9 -621 319.45 -617.85 327.1 -619.05 334.45 -619.55 337.7 -621 340.15 -622.7 342.95 -625.3 344.05 -627.85 345.1 -630.75 344.3 -633.6 343.5 -635.5 341.35 -637.3 339.35 -638.1 336.45 -638.85 333.75 -638.6 330.85 -638.35 327.6 -636.95 325.35 -635.6 323.15 -633.3 322.3 -632.15 321.9 -630.95 322 -629.7 322.05 -628.65 322.7 -626.6 324 -625.75 327.6 -625.3 329.4 -625.65 330.6 -625.85 331.35 -626.4 331.85 -627 332.45 -627.75 332.5 -628.5 332.55 -629.1 331.95 -629.65 331.3 -629.45 330.6 -630.05 331.25 -629.85 332.3 -629.7 333.25 -628.9 333.8 -628.15 334.3 -627.15 334.2 -626.2 334.1 -625.45 333.5 -624.05 332.4 -623.8 330.3 -623.4 326.95 -626.1 323.25 -628.8 319.8 -631.65 319.6 -633.55 319.5 -635.35 320.8 -636.95 321.9 -638.1 323.8 -640.65 327.9 -640.35 333 -640.05 338.1 -637.05 341.85 -634.85 344.6 -631.65 345.8 -628.2 347.1 -625.2 345.95 -623.35 345.25 -621.4 343.3 -616.85 338.55 -616.45 331.1 -616.1 324.9 -619.1 318.05 -621.4 312.8 -624.75 309.7 -628.95 305.8 -633.85 305.75 -638.5 305.7 -642.75 309 -646.1 311.7 -648.8 316.4 -653.2 324 -654.45 333.5 -655.65 342.3 -653.95 351.6 -651.7 363.8 -645.15 368.85 -643.45 370.2 -641.95 370.45 -647.1482421875 364.34453125 -650.3 356.15 -653.4080078125 348.01640625 -652.95 337.95 -652.49375 327.8779296875 -649.75 321.25 -646.9529296875 314.6814453125 -643.2 311.95 -639.399609375 309.211328125 -636.85 308.6 -634.3 308.045703125 -631.6 308.7 -629.1 309.3 -626.95 311 Z"/>
</g>

<g id="R_trytjg3_0_Layer0_1_MEMBER_6_FILL">
<path fill="#770404" stroke="none" d="
M -609.1 296.35
Q -609.3 296.3 -610.55 295.9 -611.45 295.65 -612 295.7 -612.75 295.8 -614.25 296.85 -615.65 297.95 -616.25 298.65 -618 300.6 -618.4 303.6 -618.9 306.6 -617.9 309.05 -616.75 311.9 -614.2 313 -613.55 313.25 -612.25 313.55 -611 313.85 -610.5 313.9 -608.65 314.1 -606.95 313.1 -605.3 312.15 -604.5 310.45 -603.7 308.75 -603.8 305.9 -603.8 304.15 -604.3 303.3 -605.3 301.55 -607.6 301.45 -608.85 301.45 -609.55 301.95 -610.35 302.5 -610.5 303.6 -610.7 304.6 -610.3 305.6
L -609.85 305.55
Q -609.7 304.75 -609.05 304.25 -608.45 303.75 -607.65 303.7 -606.9 303.65 -606.25 304.15 -605.55 304.65 -605.35 305.4 -605.25 305.85 -605.25 306.8 -605.35 308.05 -605.45 308.3 -605.6 308.95 -605.95 309.5 -606.65 310.85 -607.6 311.55 -609.2 312.65 -611.7 312.1 -612.7 311.9 -613.15 311.6 -614.05 311.1 -614.9 309.7 -616.6 307.05 -616.75 304.65 -616.9 301.5 -614.8 299.75 -614.55 299.55 -613.25 298.7 -612.25 297.95 -611.9 297.75 -611.75 297.7 -610.4 297.15 -609.5 296.85 -609.1 296.35 Z"/>
</g>

<g id="R_trytjg3_0_Layer0_2_MEMBER_0_FILL">
<path fill="#FFFFFF" stroke="none" d="
M -608.2 293.05
Q -615.35 293.8 -620.75 296.6 -622.45 297.6 -622.75 298.6 -623 299.45 -622.55 300.3 -622.15 301.15 -621.35 301.6 -620.25 302.15 -618 302.35 -604.75 303.45 -594.1 299.6 -592.25 298.85 -591.6 298.1 -591 297.55 -590.9 296.8 -590.75 296 -591.1 295.35 -591.6 294.6 -593.35 294.1 -600.5 292.4 -608.2 293.05 Z"/>
</g>

<g id="R_trytjg3_0_Layer0_2_MEMBER_1_FILL">
<path fill="#FFFFFF" stroke="none" d="
M -636.2 305.55
Q -640.085546875 308.344140625 -641.65 311.65 -644.1412109375 316.98671875 -637.5 314.65 -631.2056640625 312.2953125 -627.45 307.05 -623.956640625 302.31640625 -628.9 302.5 -632.0150390625 302.74765625 -636.2 305.55 Z"/>
</g>

<g id="R_trytjg3_0_Layer0_2_MEMBER_2_FILL">
<path fill="#FFFFFF" fill-opacity="0.6980392156862745" stroke="none" d="
M -601.45 404.05
Q -593.448828125 404.85859375 -584.45 404.25 -572.91953125 402.74609375 -567.5 397.75 -584.730859375 397.86640625 -593.95 398.2
L -601.45 404.05
M -607.25 403.25
L -599.7 397.95
Q -650.291796875 384.11015625 -653.6 338.8 -661.46796875 370.75078125 -639.6 387.3 -626.5986328125 399.838671875 -607.25 403.25 Z"/>
</g>

<g id="ghfgh_0_Layer1_0_FILL">
<path fill="#211001" stroke="none" d="
M 425.55 -9.55
Q 423.937890625 -9.4455078125 422.3 -9.4 417.775 5.0859375 422.3 21 424.2265625 21.07421875 426.15 21.1 424.3041015625 5.9841796875 425.55 -9.55
M 407.2 -8.65
Q 405.158203125 -8.5537109375 403.1 -8.45 398.006640625 5.087890625 403.1 20.5 405.436328125 20.590625 407.75 20.65 405.4962890625 6.6705078125 407.2 -8.65
M 381.05 -7.45
Q 376.3015625 -7.2412109375 371.55 -7.05 364.50703125 7.826953125 376.75 19.9 379.0490234375 19.9447265625 381.35 20 378.060546875 5.511328125 381.05 -7.45 Z"/>

<path fill="#621707" stroke="none" d="
M 437 -20.55
Q 433.321875 -13.105078125 432.05 -5.2 430.06875 7.4556640625 434.3 21.35 435.689453125 25.9072265625 437.75 30.6 432.8845703125 5.617578125 437 -20.55
M 417.85 -15.4
L 417.8 -15.4
Q 416.501953125 -12.258984375 415.6 -9.05 411.7142578125 5.2587890625 416.7 20.85 417.475 23.2740234375 418.45 25.7
L 418.45 25.65
Q 418.2728515625 23.305078125 418.1 20.9 417.2533203125 6.3013671875 417.65 -9.15 417.7203125 -12.253515625 417.85 -15.4
M 395.9 -11.35
Q 394.7578125 -9.742578125 393.85 -8.05 387.7728515625 3.7939453125 395.45 20.35 395.9306640625 21.35 396.45 22.35 396.3822265625 21.3744140625 396.3 20.35 395.47265625 6.4830078125 395.8 -8.15 395.8708984375 -9.734765625 395.9 -11.35 Z"/>

<path fill="#3A1C01" stroke="none" d="
M 426.45 -17.55
Q 425.913671875 -13.511328125 425.55 -9.55 424.3041015625 5.9841796875 426.15 21.1 426.55703125 24.386328125 427.1 27.6 432.553515625 28.972265625 437.75 30.6 435.689453125 25.9072265625 434.3 21.35 430.06875 7.4556640625 432.05 -5.2 433.321875 -13.105078125 437 -20.55 436.994140625 -20.5625 437 -20.6 431.7822265625 -18.944921875 426.45 -17.55
M 407.8 -13.35
Q 407.4732421875 -10.9728515625 407.2 -8.65 405.4962890625 6.6705078125 407.75 20.65 408.0529296875 22.284375 408.35 23.9 411.1654296875 24.323828125 418.45 25.7 417.475 23.2740234375 416.7 20.85 411.7142578125 5.2587890625 415.6 -9.05 416.501953125 -12.258984375 417.8 -15.4 412.86640625 -14.2599609375 407.8 -13.35
M 393.85 -8.05
Q 394.7578125 -9.742578125 395.9 -11.35
L 395.9 -11.4
Q 388.8794921875 -10.41640625 381.65 -9.8 381.32578125 -8.6333984375 381.05 -7.45 378.060546875 5.511328125 381.35 20 381.4900390625 20.6466796875 381.65 21.3 389.221875 21.65078125 396.45 22.35 395.9306640625 21.35 395.45 20.35 387.7728515625 3.7939453125 393.85 -8.05 Z"/>
</g>

<g id="ghfgh_0_Layer1_1_FILL">
<path fill="#3A1C01" stroke="none" d="
M 503.5 19.2
Q 518.99140625 -1.9201171875 540.55 1.6 544.1505859375 -1.47890625 540.1 -3.6 516.499609375 -6.9818359375 499.45 16.25 480.865234375 40.9283203125 432.65 16.65 430.79921875 19.812109375 434.55 23.15 483.9708984375 46.5755859375 503.5 19.2
M 528.7 40.4
Q 534.0453125 36.3455078125 534.65 29.35 499.3310546875 63.1771484375 449.1 44.55 449.57578125 50.771484375 462.95 53.95 495.3626953125 61.25078125 521.3 45.9 523.3513671875 44.4451171875 528.7 40.4
M 481.95 -13.4
L 481.95 -13.4
Q 497.18515625 -34.041796875 522.15 -36.85 522.8896484375 -41.6421875 516.75 -41.1 492.9552734375 -36.744140625 477.9 -16.35
L 477.95 -16.35
Q 460.5443359375 7.22890625 431.35 3.4 431.2572265625 3.78203125 430.35 4.95 429.4427734375 6.1720703125 431.5 8.45 463.0623046875 12.2841796875 481.95 -13.4
M 484.7 -51.8
Q 482.570703125 -52.6466796875 477 -49.8 462.9896484375 -39.9224609375 455.8 -28.2 446.1884765625 -12.55390625 433.45 -11.35 431.2880859375 -8.8873046875 432.25 -6.15 448.262890625 -6.3919921875 460.05 -25.6 468.61953125 -39.3646484375 487.2 -50.45 486.8908203125 -50.9533203125 484.7 -51.8 Z"/>
</g>

<g id="rtfh_0_Layer0_0_FILL">
<path fill="#DF6060" stroke="none" d="
M -25.65 -72.85
Q -43 -66.8 -57.25 -54.5 -71.4 -42.25 -79.95 -26 -88.45 -9.75 -90.4 9 -92.3 27.65 -87.35 45.3 -86.5 48.4 -84.65 54.5 -83.15 59.85 -82.85 63.8 -82 74.05 -87.35 84.85 -90.8 91.65 -96 97.35 -101.25 103 -107.75 106.95 -113.75 110.6 -119.95 112.05 -126.85 113.65 -133 112.35 -139.7 110.95 -144.6 106.15 -149.65 101.2 -150.35 94.75 -150.95 98.4 -149.1 102.15 -147.4 105.65 -144.5 108.2 -141.55 110.65 -138.75 112.55 -135.95 114.45 -131.45 115.65 -127 116.85 -122.3 117.2 -117.6 117.55 -111.95 117.4 -106.3 117.25 -100.5 114.9 -99.2 114.4 -91.9 110.6 -86.75 107.85 -83.05 107.3 -78.9 106.6 -72.35 108.05 -63.35 109.95 -61.6 110.1 -51.35 111.1 -41.3 105.3 -32 99.95 -25.6 90.65 -19.45 81.6 -19.75 73.85 -19.85 70.65 -21.2 66.65 -21.5 65.85 -23.9 59.7 -29.3 46.1 -29.6 33.3 -30 18.7 -23.65 7.75 -17.15 -3.5 -4.05 -9.95 7.95 -15.9 22.2 -16.35 35.9 -16.65 43.25 -11.05 48.65 -6.95 51 0.25 53.15 6.95 52 14.2 50.15 25.8 39.5 38.95 37 42.1 30.25 49.5 24.25 56.15 21.15 60.2 19.55 62.4 19 64.35 18.4 66.85 19.85 68.35 21.85 70.55 26.75 68.7 44.7 62.15 56.15 46.05 67.9 29.55 66.85 11.05 73.4 18.45 83 22.1 92.6 25.75 102.4 24.5 112.2 23.35 121.2 17.45 129.7 11.95 135.85 3.35 146.65 -11.65 149.6 -34.55 152.2 -54.8 147.6 -71.05 145.05 -80.15 140.2 -87.85 135.1 -95.9 128.05 -101.45 121.2 -106.85 110.35 -111.15 96.6 -116.6 85.1 -117.3 69.9 -118.15 52.1 -111.15 40.8 -106.65 21.4 -95.4 24.7 -95.35 27.5 -93.25 30.3 -91.25 31.4 -88.15 32.55 -85.05 31.7 -81.7 30.85 -78.35 28.35 -76.15 25.95 -74 22.25 -73.3 19.05 -72.6 15.3 -73.1 12.8 -73.4 8.55 -74.55 3.75 -75.75 1.8 -76.1 -10.3 -78.25 -25.65 -72.85 Z"/>
</g>

<g id="rtfh_0_Layer0_2_FILL">
<path fill="#EBAEAE" stroke="none" d="
M 1371.4 177
Q 1369.5 183.3 1369 186.55 1368.3 191.1 1368.6 200.25 1369.05 214.8 1370.15 243.8 1370.25 246.7 1370.75 248.5 1371.45 251 1373.15 252.2 1376.55 249.65 1378.35 243.2 1380.7 235.1 1381.6 220.75 1382.65 203.95 1383.75 198 1386 186.1 1392.2 172.85 1395.8 165.15 1399.4 160.2 1406.15 150.95 1418.25 143.4 1434.7 133.2 1453.7 130.1 1456.35 129.65 1456.9 128.45 1457.5 127.1 1456.2 125.85 1455.1 124.8 1453.25 124.2 1440.3 120.25 1429.3 120.2 1422.6 120.1 1417.35 121.6 1412.15 123.05 1405.8 126.8 1393.6 133.9 1386.45 142.9 1381.3 149.5 1377.4 159.15 1374.95 165.1 1371.4 177
M 1512.8 146.25
Q 1508.05 142.95 1505.65 141.4 1501.4 138.7 1497.9 137.65 1492.5 136 1485.85 137.15 1482.7 137.75 1481.3 139.05 1480.4 139.95 1480.25 141.3 1480.05 142.7 1473.4 131.55 1479.1 144.45 1478.3 146.4 1479.65 145.15 1481.7 144.9 1483.55 144.6 1485.5 145.2 1488.35 146.1 1492 149.15 1496.35 152.8 1498.55 155.95 1499.3 157 1500.75 159.5 1502.15 161.85 1503 163.05 1505.6 166.65 1512.15 171.65 1519.45 176.95 1524.3 179 1529.55 181.2 1535.45 181.6 1541.2 181.95 1546.85 180.6 1558.1 177.9 1566.6 169.3 1574.7 161.05 1576.7 151.1 1577.55 146.7 1577.3 140.2 1577.15 137 1576.65 135 1575.9 132.25 1574.15 130.7 1572.15 128.95 1569.15 128.85 1566.35 128.8 1563.85 130.15 1560.1 132.25 1556.4 138.1 1554.5 141.25 1553.5 142.8 1551.75 145.45 1550.15 147.1 1546.7 150.6 1541.6 152.25 1536.8 153.8 1531.55 153.35 1522.6 152.6 1512.8 146.25
M 1542.85 98.65
Q 1545.1 97.3 1547.75 94.9 1550.6 92.25 1550.95 90.05 1551.25 87.85 1549.5 85.25 1547.9 83 1545.4 81.5 1543.8 80.55 1539.75 79.3 1534.8 77.8 1531.85 77.15 1527.45 76.2 1523.8 76.05 1519.95 75.95 1513.1 77 1504.35 78.45 1499.85 80.75 1497.55 81.95 1496.45 83.3 1495.9 84 1494.8 86.15 1493.45 88.8 1493.05 89.95 1492.3 92.15 1492.7 93.9 1493.2 96.35 1495.6 98.15 1496.8 99.15 1500.15 100.7
L 1502.45 101.7
Q 1505.35 103.05 1506.9 103.25
L 1518.9 103.65
Q 1525.75 103.85 1529.15 103.25 1531.4 102.8 1534.25 101.95 1537.5 100.95 1538.65 100.55 1541.1 99.65 1542.85 98.65 Z"/>
</g>

<g id="rtfh_0_Layer0_3_FILL">
<path fill="#DF6060" stroke="none" d="
M 1736.95 196.55
Q 1735.35 194.45 1733.2 193.65 1731.85 193.2 1729.4 193.1 1727.35 193 1726.4 193.25 1725.65 193.45 1724.25 194.25 1719.85 196.85 1715.75 200.2 1706.3 207.75 1702.75 216.05 1700.5 221.35 1700.4 227.15 1700.4 230.3 1701 233.35 1701.5 235.35 1702 236.25 1703.25 238.5 1706 239.4 1708.05 240.1 1711.15 239.9 1718.9 239.25 1726.3 233.55 1731.65 229.55 1734.35 224.7 1735.4 222.9 1736.4 220.35 1738.6 214.95 1739.3 210.75 1740.25 205.35 1739.05 200.95 1738.35 198.4 1736.95 196.55 Z"/>
</g>

<g id="rtfh_0_Layer0_4_FILL">
<path fill="#FFFFFF" stroke="none" d="
M 1803.7 273.15
Q 1801.8 274.6 1794.55 274.95 1801.65 275.2 1803.8 277 1805.2 278.7 1806 288.3 1806.75 279.4 1808.05 277.05 1810.35 275.45 1818.05 274.95 1810.5 274.95 1808.2 273.2 1807.1 271.6 1806 262.75 1804.95 271.9 1803.7 273.15 Z"/>
</g>

<g id="rtfh_0_Layer0_5_FILL">
<path fill="#FFFFFF" stroke="none" d="
M 1803.65 273.15
Q 1801.75 274.6 1794.5 274.95 1801.6 275.2 1803.75 277 1805.15 278.7 1805.95 288.3 1806.7 279.4 1808 277.05 1810.3 275.45 1818 274.95 1810.45 274.95 1808.15 273.2 1807.05 271.6 1805.95 262.75 1804.9 271.9 1803.65 273.15 Z"/>
</g>

<g id="rtfh_0_Layer0_6_FILL">
<path fill="#FFFFFF" stroke="none" d="
M 1803.6 273.15
Q 1801.7 274.6 1794.45 274.95 1801.55 275.2 1803.7 277 1805.1 278.7 1805.9 288.3 1806.65 279.4 1807.95 277.05 1810.25 275.45 1817.95 274.95 1810.4 274.95 1808.1 273.2 1807 271.6 1805.9 262.75 1804.85 271.9 1803.6 273.15 Z"/>
</g>

<g id="rtfh_0_Layer0_7_FILL">
<path fill="#FFFFFF" stroke="none" d="
M 1803.55 273.15
Q 1801.65 274.6 1794.4 274.95 1801.5 275.2 1803.65 277 1805.05 278.7 1805.85 288.3 1806.6 279.4 1807.9 277.05 1810.2 275.45 1817.9 274.95 1810.35 274.95 1808.05 273.2 1806.95 271.6 1805.85 262.75 1804.8 271.9 1803.55 273.15 Z"/>
</g>

<g id="rtfh_0_Layer0_8_FILL">
<path fill="#FFFFFF" stroke="none" d="
M 1803.55 273.15
Q 1801.65 274.6 1794.4 274.95 1801.5 275.2 1803.65 277 1805.05 278.7 1805.85 288.3 1806.6 279.4 1807.9 277.05 1810.2 275.45 1817.9 274.95 1810.35 274.95 1808.05 273.2 1806.95 271.6 1805.85 262.75 1804.8 271.9 1803.55 273.15 Z"/>
</g>

<path id="rterytf_0_Layer6_1_1_STROKES" stroke="#FFFFFF" stroke-width="1" stroke-linejoin="miter" stroke-linecap="butt" stroke-miterlimit="3" fill="none" d="
M 17.05 29
Q -0.6 30.4 -15.75 25.35
L -17.2 25.35
Q -1.002734375 38.578515625 14.1 35.25 15.6615234375 34.1982421875 17.05 29 Z"/>

<path id="rgfhg_0_Layer5_0_1_STROKES" stroke="#000000" stroke-width="1" stroke-linejoin="miter" stroke-linecap="butt" stroke-miterlimit="3" fill="none" d="
M 41.5 12.1
Q 33.45 22.95 23.9 33.95"/>

<path id="rgfhg_0_Layer4_0_MEMBER_1_1_STROKES" stroke="#272E31" stroke-width="1" stroke-linejoin="miter" stroke-linecap="butt" stroke-miterlimit="3" fill="none" d="
M 57.70206909179688 -69.43975830078125
Q 57.79766845703125 -66.09699096679688 52.71876831054688 -63.26493530273438 47.59739379882812 -60.384033203125 40.35013427734375 -59.69481201171876 33.10606079101562 -58.95993041992188 27.881640624999996 -60.843640136718754 22.702880859375 -62.73053588867188 22.607281494140622 -66.07330322265625 22.51168212890625 -69.41607055664062 27.636242675781254 -72.25131225585938 32.708770751953125 -75.17468872070312 39.9560302734375 -75.86390991210938 47.200103759765625 -76.59879150390626 52.430895996093746 -74.62376098632814 57.6064697265625 -72.78252563476562 57.70206909179688 -69.43975830078125 Z"/>

<path id="rgfhg_0_Layer2_0_1_STROKES" stroke="#000000" stroke-opacity="0.2980392156862745" stroke-width="1" stroke-linejoin="round" stroke-linecap="round" fill="none" d="
M 107.52832946777343 -99.95894851684571
Q 99.38081512451171 -76.98112716674805 79.6528450012207 -44.20797958374023
M -14.363977813720703 -44.16220703125
Q -47.777941131591795 -62.425455474853514 -63.29483642578125 -82.06188049316407"/>

<path id="rgfhg_0_Layer2_1_MEMBER_1_1_STROKES" stroke="#272E31" stroke-width="1" stroke-linejoin="miter" stroke-linecap="butt" stroke-miterlimit="3" fill="none" d="
M 6.238154602050784 -38.79259185791015
Q 6.306787109375001 -32.72194976806641 2.636338806152345 -28.440650177001952 -1.0336227416992188 -24.11629638671875 -6.27555694580078 -24.089606475830077 -11.517491149902348 -24.062916564941407 -15.284803771972658 -28.349402618408202 -19.051629638671873 -32.59283447265625 -19.120262145996094 -38.6634765625 -19.18840789794922 -44.691064453125 -15.517959594726562 -48.972364044189455 -11.847998046875002 -53.29671783447266 -6.6060638427734375 -53.32340774536133 -1.3641296386718764 -53.35009765625 2.4031829833984375 -49.063611602783205 6.170008850097659 -44.82017974853516 6.238154602050784 -38.79259185791015 Z"/>

<path id="rgfhg_0_Layer2_1_MEMBER_2_1_STROKES" stroke="#272E31" stroke-width="1" stroke-linejoin="miter" stroke-linecap="butt" stroke-miterlimit="3" fill="none" d="
M 85.14555130004882 -42.239759826660155
Q 86.28986511230468 -36.380873107910155 83.72660217285156 -31.30011978149414 81.1175666809082 -26.265139007568358 76.35722122192382 -24.93773498535156 71.59687576293945 -23.56455841064453 67.38580093383788 -26.768637084960936 63.17472610473632 -29.926943206787108 62.03041229248046 -35.78582992553711 60.88609848022461 -41.598944091796874 63.49513397216797 -46.67969741821289 66.05839691162109 -51.760450744628905 70.81874237060546 -53.133627319335936 75.57908782958984 -54.46103134155273 79.83593521118163 -51.21118011474609 84.00123748779296 -48.05287399291992 85.14555130004882 -42.239759826660155 Z"/>

<path id="gffg_0_Layer0_0_1_STROKES" stroke="#DF6060" stroke-width="7" stroke-linejoin="miter" stroke-linecap="butt" stroke-miterlimit="3" fill="none" d="
M -167.4 105.5
Q -166.65 112.65 -161 118.2 -155.55 123.55 -148.1 125.1 -141.25 126.55 -133.6 124.75 -126.7 123.15 -120 119.1 -112.75 114.7 -106.9 108.4 -101.1 102.05 -97.3 94.45 -91.35 82.45 -92.25 71.05 -92.6 66.65 -94.25 60.7 -96.35 53.9 -97.3 50.45 -102.8 30.8 -100.65 10 -98.5 -10.85 -89.05 -28.95 -79.55 -47.05 -63.75 -60.7 -47.9 -74.4 -28.6 -81.1 -11.5 -87.15 2 -84.75 4.15 -84.35 9.5 -83 14.25 -81.75 17 -81.4 21.2 -80.85 24.75 -81.6 28.85 -82.4 31.55 -84.8 34.3 -87.25 35.25 -90.95 36.2 -94.7 34.95 -98.15 33.7 -101.6 30.6 -103.85 27.45 -106.15 23.8 -106.25 45.4 -118.75 58 -123.75 77.8 -131.55 94.75 -130.6 107.55 -129.85 122.85 -123.75 134.9 -118.95 142.55 -112.95 150.4 -106.8 156.05 -97.8 161.45 -89.25 164.3 -79.1 169.45 -61 166.55 -38.5 163.25 -13 151.25 3.75 144.4 13.3 134.95 19.45 124.9 26 114 27.3 103.1 28.65 92.4 24.6 81.7 20.55 74.4 12.3 75.55 32.9 62.5 51.25 49.75 69.2 29.75 76.5 24.3 78.55 22.05 76.1 20.45 74.45 21.15 71.65 21.75 69.45 23.55 67 27 62.5 33.65 55.1 41.15 46.85 43.95 43.35 55.8 28.7 57.85 15.8 59.15 7.75 56.75 0.25 54.15 -7.75 48.15 -12.3 39.95 -18.55 24.7 -18.2 8.85 -17.7 -4.55 -11.1 -19.1 -3.9 -26.35 8.6 -33.45 20.8 -33 37.05 -32.65 51.3 -26.65 66.45 -23.95 73.3 -23.65 74.2 -22.15 78.65 -22 82.2 -21.7 90.85 -28.55 100.9 -35.65 111.3 -46 117.25 -57.2 123.7 -68.6 122.6 -70.55 122.4 -80.6 120.3 -87.85 118.7 -92.5 119.45 -96.6 120.1 -102.35 123.15 -110.45 127.35 -111.95 127.95 -118.4 130.55 -124.65 130.7 -130.95 130.85 -136.2 130.5 -141.45 130.1 -146.4 128.75 -151.4 127.4 -154.5 125.3 -157.65 123.2 -160.9 120.45 -164.15 117.65 -166.05 113.75 -168.1 109.55 -167.4 105.5 Z"/>

<path id="gffg_0_Layer0_1_1_STROKES" stroke="#DF6060" stroke-width="7" stroke-linejoin="miter" stroke-linecap="butt" stroke-miterlimit="3" fill="none" d="
M -5.15 58.9
Q -7.95 59.1 -9.8 58.45 -12.25 57.65 -13.4 55.65 -13.85 54.85 -14.3 53.05 -14.8 50.3 -14.8 47.45 -14.75 42.25 -12.7 37.5 -9.5 30.05 -1.05 23.25 2.65 20.25 6.6 17.9 7.85 17.2 8.55 17 9.4 16.8 11.25 16.9 13.45 16.95 14.65 17.35 16.55 18.1 18 20 19.25 21.65 19.9 23.95 20.95 27.9 20.1 32.75 19.5 36.5 17.5 41.35 16.6 43.65 15.7 45.25 13.25 49.6 8.45 53.2 1.8 58.35 -5.15 58.9 Z"/>
</defs>

<g transform="matrix( 0.8292236328125, 0, 0, 0.8292236328125, 819.7,472.35) ">
<g filter="url(#Filter_1)" transform="matrix( 1.2059326171875, 0, 0, 1.2059326171875, -988.5,-569.6) ">
<g transform="matrix( 0.8292236328125, 0, 0, 0.8292236328125, 754.1,1030.75) ">
<g transform="matrix( 1, 0, 0, 1, 0,0) ">
<use xlink:href="#regrfg_0_Layer0_0_FILL"/>
</g>
</g>
</g>

<g transform="matrix( 1, 0, 0, 1, -7.85,119.05) ">
<g transform="matrix( 1, 0, 0, 1, 0,0) ">
<use xlink:href="#trytjj_0_Layer7_0_MEMBER_0_FILL"/>
</g>

<g transform="matrix( 1, 0, 0, 1, 0,0) ">
<use xlink:href="#trytjj_0_Layer5_0_MEMBER_0_FILL"/>
</g>

<g transform="matrix( 0.5770111083984375, 0.816650390625, -0.816650390625, 0.5770111083984375, -152.15,215.85) ">
<g transform="matrix( 1, 0, 0, 1, 0,0) ">
<use xlink:href="#tyrt_0_Layer0_0_FILL"/>
</g>
</g>

<g transform="matrix( 0.9525146484375, 0.3043670654296875, -0.3043670654296875, 0.9525146484375, -23.6,-86) ">
<g transform="matrix( 1, 0, 0, 1, 0,0) ">
<use xlink:href="#tyrtasfd_0_Layer0_0_FILL"/>
</g>
</g>

<g transform="matrix( 1, 0, 0, 1, -0.6,0) ">
<use xlink:href="#trytjj_0_Layer1_0_FILL"/>
</g>

<g transform="matrix( 1, 0, 0, 1, 3.5,0) ">
<use xlink:href="#trytjj_0_Layer1_1_FILL"/>
</g>
</g>

<g transform="matrix( 0.9988861083984375, 0.04595947265625, -0.04595947265625, 0.9988861083984375, -2.7,-149.2) ">
<g transform="matrix( 0.9154510498046875, 0, 0, 0.9154510498046875, 3.35,-3.15) ">
<use xlink:href="#rgfhg_0_Layer13_0_FILL"/>
</g>

<g transform="matrix( 1, 0, 0, 1, 0,0) ">
<use xlink:href="#rgfhg_0_Layer12_0_FILL"/>
</g>

<g transform="matrix( 0.9154510498046875, 0, 0, 0.9154510498046875, 3.35,-3.15) ">
<use xlink:href="#rgfhg_0_Layer11_0_FILL"/>
</g>

<g transform="matrix( 0.79290771484375, 0.043304443359375, -0.037139892578125, 0.872314453125, 21.9,-93.75) ">
<g transform="matrix( 1, 0, 0, 1, 0,0) ">
<use xlink:href="#rergf_0_Layer2_0_FILL"/>
</g>

<mask id="Mask_Mask_1">
<g transform="matrix( 1, 0, 0, 1, 0,0) ">
<use xlink:href="#Mask_rergf_0_1_MASK_0_FILL"/>
</g>
</mask>

<g mask="url(#Mask_Mask_1)">
<g transform="matrix( 1, 0, 0, 1, -1.65,-9.4) ">
<use xlink:href="#rergf_0_Layer1_0_FILL"/>
</g>
</g>
</g>

<g transform="matrix( 0.8621673583984375, -0.1672515869140625, 0.1412506103515625, 0.8582000732421875, 27.4,-168.65) ">
<g transform="matrix( 1, 0, 0, 1, -5.5,-5.05) ">
<use xlink:href="#rterytf_0_Layer9_0_FILL"/>
</g>

<g transform="matrix( 1, 0, 0, 1, 0,0) ">
<use xlink:href="#rterytf_0_Layer8_0_FILL"/>
</g>

<g transform="matrix( 1, 0.037872314453125, 0, 1, 6.25,-6.2) ">
<g transform="matrix( 1, 0, 0, 1, 0,0) ">
<use xlink:href="#retrf_0_Layer8_0_FILL"/>
</g>

<mask id="Mask_Mask_2">
<g transform="matrix( 1, 0, 0, 1, 0,0) ">
<use xlink:href="#Mask_retrf_0_7_MASK_0_FILL"/>
</g>
</mask>

<g mask="url(#Mask_Mask_2)">
<g transform="matrix( 0.846710205078125, 0, 0, 0.9338226318359375, 19.1,2.2) ">
<use xlink:href="#retrf_0_Layer7_0_FILL"/>
</g>
</g>

<g transform="matrix( 1, 0, 0, 1, 0,0) ">
<use xlink:href="#retrf_0_Layer5_0_FILL"/>
</g>

<g transform="matrix( 1, 0, 0, 1, 0,0) ">
<use xlink:href="#retrf_0_Layer3_0_FILL"/>
</g>

<mask id="Mask_Mask_3">
<g transform="matrix( 1, 0, 0, 1, 0,0) ">
<use xlink:href="#Mask_retrf_0_2_MASK_0_FILL"/>
</g>
</mask>

<g mask="url(#Mask_Mask_3)">
<g transform="matrix( -1.12567138671875, 0, -0.045379638671875, 1.0146636962890625, -16.15,1.4) ">
<use xlink:href="#retrf_0_Layer2_0_FILL"/>
</g>
</g>

<g transform="matrix( 1, 0, 0, 1, 0,0) ">
<use xlink:href="#retrf_0_Layer0_0_FILL"/>
</g>
</g>

<g transform="matrix( 1, 0, 0, 1, 0,0) ">
<use xlink:href="#rterytf_0_Layer6_0_FILL"/>
</g>

<g transform="matrix( 1, 0, 0, 1, 0,0) ">
<use xlink:href="#rterytf_0_Layer6_1_FILL"/>

<use xlink:href="#rterytf_0_Layer6_1_1_STROKES"/>
</g>

<g transform="matrix( 1, 0, 0, 1, 0,0) ">
<use xlink:href="#rterytf_0_Layer5_0_FILL"/>
</g>

<g transform="matrix( 1, 0, 0, 1, 0,0) ">
<use xlink:href="#rterytf_0_Layer5_1_FILL"/>
</g>

<g transform="matrix( 1, 0, 0, 1, 0,0) ">
<use xlink:href="#rterytf_0_Layer4_0_FILL"/>
</g>

<g transform="matrix( 1, 0, 0, 1, 0,0) ">
<use xlink:href="#rterytf_0_Layer3_0_FILL"/>
</g>

<g transform="matrix( 1, 0, 0, 1, 0,0) ">
<use xlink:href="#rterytf_0_Layer2_0_FILL"/>
</g>
</g>

<g transform="matrix( 1, 0, 0, 1, 0,0) ">
<use xlink:href="#rgfhg_0_Layer8_0_FILL"/>
</g>

<g transform="matrix( 0.995849609375, -0.09100341796875, 0.09100341796875, 0.995849609375, -2.3,-5.75) ">
<use xlink:href="#rgfhg_0_Layer7_0_FILL"/>
</g>

<g transform="matrix( 1, 0, 0, 1, 0,0) ">
<use xlink:href="#rgfhg_0_Layer7_1_FILL"/>
</g>

<g transform="matrix( 1, 0, 0, 1, 0,0) ">
<use xlink:href="#rgfhg_0_Layer6_0_FILL"/>
</g>

<g transform="matrix( 1, 0, 0, 1, 0,0) ">
<use xlink:href="#rgfhg_0_Layer5_0_FILL"/>

<use xlink:href="#rgfhg_0_Layer5_0_1_STROKES"/>
</g>

<g transform="matrix( 0.9154510498046875, 0, 0, 0.9154510498046875, 3.35,-3.15) ">
<use xlink:href="#rgfhg_0_Layer4_0_FILL"/>
</g>

<g transform="matrix( 0.9154510498046875, 0, 0, 0.9154510498046875, 3.35,-3.15) ">
<use xlink:href="#rgfhg_0_Layer4_0_MEMBER_0_FILL"/>
</g>

<g transform="matrix( 0.9132080078125, -0.063720703125, 0.063720703125, 0.9132080078125, 4.4,-0.2) ">
<use xlink:href="#rgfhg_0_Layer4_0_MEMBER_1_FILL"/>

<use xlink:href="#rgfhg_0_Layer4_0_MEMBER_1_1_STROKES" transform="matrix( 1.0897216796875, 0.0760345458984375, -0.0760345458984375, 1.0897216796875, -4.8,-0.1) "/>
</g>

<g transform="matrix( 1.4495849609375, -0.1392822265625, 0.014801025390625, 0.5579376220703125, 667.65,-128.4) ">
<use xlink:href="#rgfhg_0_Layer4_0_MEMBER_1_MEMBER_0_FILL"/>
</g>

<g transform="matrix( 0.9154510498046875, 0, 0, 0.9154510498046875, 3.35,-3.15) ">
<use xlink:href="#rgfhg_0_Layer4_0_MEMBER_2_FILL"/>
</g>

<g transform="matrix( 1, 0, 0, 1, 0,0) ">
<use xlink:href="#rgfhg_0_Layer3_0_FILL"/>
</g>

<g transform="matrix( 0.9154510498046875, 0, 0, 0.9154510498046875, 3.35,-3.15) ">
<use xlink:href="#rgfhg_0_Layer2_0_FILL"/>

<use xlink:href="#rgfhg_0_Layer2_0_1_STROKES" transform="matrix( 1.09234619140625, 0, 0, 1.09234619140625, -3.65,3.4) "/>
</g>

<g transform="matrix( 1, 0, 0, 1, 0,0) ">
<use xlink:href="#rgfhg_0_Layer2_1_MEMBER_0_FILL"/>
</g>

<g transform="matrix( 0.89605712890625, -0.0045623779296875, 0.009735107421875, 0.861083984375, -38.35,-27.5) ">
<use xlink:href="#rgfhg_0_Layer2_1_MEMBER_1_FILL"/>

<use xlink:href="#rgfhg_0_Layer2_1_MEMBER_1_1_STROKES" transform="matrix( 1.1159210205078125, 0.0059051513671875, -0.012603759765625, 1.1612548828125, 42.4,32.15) "/>
</g>

<g transform="matrix( 1.0477447509765625, -0.0053253173828125, 0.01141357421875, 1.0068359375, 447.1,-42.1) ">
<use xlink:href="#rgfhg_0_Layer2_1_MEMBER_1_MEMBER_0_FILL"/>
</g>

<g transform="matrix( 0.9154510498046875, 0, 0, 0.9154510498046875, 3.35,-3.15) ">
<use xlink:href="#rgfhg_0_Layer2_1_MEMBER_2_FILL"/>

<use xlink:href="#rgfhg_0_Layer2_1_MEMBER_2_1_STROKES" transform="matrix( 1.09234619140625, 0, 0, 1.09234619140625, -3.65,3.4) "/>
</g>

<g transform="matrix( 0.9552764892578125, -0.265777587890625, 0.1905059814453125, 0.97119140625, 487.75,-155.2) ">
<use xlink:href="#rgfhg_0_Layer2_1_MEMBER_2_MEMBER_0_FILL"/>
</g>
</g>

<g transform="matrix( 0.4310302734375, 0.9022216796875, -0.9022216796875, 0.4310302734375, -115.55,-34.1) ">
<g transform="matrix( 1, 0, 0, 1, 0,0) ">
<use xlink:href="#asAD_0_Layer3_0_FILL"/>
</g>
</g>

<g transform="matrix( -0.66302490234375, 0.7485198974609375, 0.7485198974609375, 0.66302490234375, 238.5,-87.35) ">
<g transform="matrix( 1, 0, 0, 1, 0,0) ">
<use xlink:href="#fgfgg_0_Layer2_0_FILL"/>
</g>
</g>

<g transform="matrix( 0.9093780517578125, -0.4158782958984375, 0.4158782958984375, 0.9093780517578125, 12.2,-72.65) ">
<g transform="matrix( 1, 0, 0, 1, 0,0) ">
<use xlink:href="#ghfgh_0_Layer3_0_FILL"/>
</g>

<g transform="matrix( 1, 0, 0, 1, 0,0) ">
<use xlink:href="#ghfgh_0_Layer3_1_FILL"/>
</g>

<g transform="matrix( 0.9659271240234375, 0.2587890625, -0.2587890625, 0.9659271240234375, -17.75,61.3) ">
<use xlink:href="#ghfgh_0_Layer3_2_FILL"/>
</g>

<g transform="matrix( 0, 1, -1, 0, 486,4.2) ">
<g filter="url(#Filter_2)" transform="matrix( 0.501556396484375, -1.0967559814453125, 1.0967559814453125, 0.501556396484375, -872.3,1189.35) ">
<g transform="matrix( 0.2960357666015625, 0.6473541259765625, -0.6473541259765625, 0.2960357666015625, 1197.7,247.65) ">
<g transform="matrix( 1, 0, 0, 1, 401.7,-350.45) ">
<use xlink:href="#R_trytjg3_0_Layer0_0_FILL"/>
</g>

<g transform="matrix( 1, 0, 0, 1, 600.25,-350.45) ">
<use xlink:href="#R_trytjg3_0_Layer0_0_MEMBER_0_FILL"/>
</g>

<g transform="matrix( 1, 0, 0, 1, 600.25,-350.45) ">
<use xlink:href="#R_trytjg3_0_Layer0_0_MEMBER_1_FILL"/>
</g>

<g filter="url(#Filter_3)" transform="matrix( -1.1082000732421875, -1.28155517578125, 1.28155517578125, -1.1082000732421875, -6.2,3194.8) ">
<g transform="matrix( -0.3860626220703125, 0.4464569091796875, -0.4464569091796875, -0.3860626220703125, 1426.25,1239.75) ">
<g transform="matrix( 0.8670501708984375, 0, 0, 0.8670501708984375, 518.8,-302.05) ">
<use xlink:href="#R_FDFG3_0_Layer0_0_FILL"/>
</g>

<g transform="matrix( 0.8670501708984375, 0, 0, 0.8670501708984375, 518.8,-302.05) ">
<use xlink:href="#R_FDFG3_0_Layer0_1_FILL"/>
</g>

<g transform="matrix( 0.8670501708984375, 0, 0, 0.8670501708984375, 518.8,-302.05) ">
<use xlink:href="#R_FDFG3_0_Layer0_2_FILL"/>
</g>

<g transform="matrix( 0.8670501708984375, 0, 0, 0.8670501708984375, 518.8,-302.05) ">
<use xlink:href="#R_FDFG3_0_Layer0_3_FILL"/>
</g>

<g transform="matrix( 0.8670501708984375, 0, 0, 0.8670501708984375, 518.8,-302.05) ">
<use xlink:href="#R_FDFG3_0_Layer0_4_FILL"/>
</g>

<g transform="matrix( 0.8670501708984375, 0, 0, 0.8670501708984375, 518.8,-302.05) ">
<use xlink:href="#R_FDFG3_0_Layer0_5_FILL"/>
</g>
</g>
</g>

<g transform="matrix( 0.8670501708984375, 0, 0, 0.8670501708984375, 520.85,-309) ">
<use xlink:href="#R_trytjg3_0_Layer0_1_MEMBER_1_FILL"/>
</g>

<g transform="matrix( 0.8670501708984375, 0, 0, 0.8670501708984375, 520.85,-309) ">
<use xlink:href="#R_trytjg3_0_Layer0_1_MEMBER_2_FILL"/>
</g>

<g transform="matrix( 0.8670501708984375, 0, 0, 0.8670501708984375, 520.85,-309) ">
<use xlink:href="#R_trytjg3_0_Layer0_1_MEMBER_3_FILL"/>
</g>

<g transform="matrix( 0.8670501708984375, 0, 0, 0.8670501708984375, 520.85,-309) ">
<use xlink:href="#R_trytjg3_0_Layer0_1_MEMBER_4_FILL"/>
</g>

<g transform="matrix( 0.8670501708984375, 0, 0, 0.8670501708984375, 520.85,-309) ">
<use xlink:href="#R_trytjg3_0_Layer0_1_MEMBER_5_FILL"/>
</g>

<g transform="matrix( 0.8670501708984375, 0, 0, 0.8670501708984375, 520.85,-309) ">
<use xlink:href="#R_trytjg3_0_Layer0_1_MEMBER_6_FILL"/>
</g>

<g transform="matrix( 1, 0, 0, 1, 600.25,-350.45) ">
<use xlink:href="#R_trytjg3_0_Layer0_2_MEMBER_0_FILL"/>
</g>

<g transform="matrix( 1, 0, 0, 1, 600.25,-350.45) ">
<use xlink:href="#R_trytjg3_0_Layer0_2_MEMBER_1_FILL"/>
</g>

<g transform="matrix( 1, 0, 0, 1, 600.25,-350.45) ">
<use xlink:href="#R_trytjg3_0_Layer0_2_MEMBER_2_FILL"/>
</g>
</g>
</g>

<g transform="matrix( 0.858489990234375, 0, 0, 0.858489990234375, 0,0) ">
<g transform="matrix( 1, 0, 0, 1, 401.7,-350.45) ">
<use xlink:href="#R_trytjg3_0_Layer0_0_FILL"/>
</g>

<g transform="matrix( 1, 0, 0, 1, 600.25,-350.45) ">
<use xlink:href="#R_trytjg3_0_Layer0_0_MEMBER_0_FILL"/>
</g>

<g transform="matrix( 1, 0, 0, 1, 600.25,-350.45) ">
<use xlink:href="#R_trytjg3_0_Layer0_0_MEMBER_1_FILL"/>
</g>

<g filter="url(#Filter_4)" transform="matrix( 0.584228515625, -1.2775726318359375, 1.2775726318359375, 0.584228515625, -1016.1,1385.45) ">
<g transform="matrix( 0.2960357666015625, 0.6473541259765625, -0.6473541259765625, 0.2960357666015625, 1202.8,246.9) ">
<g transform="matrix( 0.8670501708984375, 0, 0, 0.8670501708984375, 518.8,-302.05) ">
<use xlink:href="#R_FDFG3_0_Layer0_0_FILL"/>
</g>

<g transform="matrix( 0.8670501708984375, 0, 0, 0.8670501708984375, 518.8,-302.05) ">
<use xlink:href="#R_FDFG3_0_Layer0_1_FILL"/>
</g>

<g transform="matrix( 0.8670501708984375, 0, 0, 0.8670501708984375, 518.8,-302.05) ">
<use xlink:href="#R_FDFG3_0_Layer0_2_FILL"/>
</g>

<g transform="matrix( 0.8670501708984375, 0, 0, 0.8670501708984375, 518.8,-302.05) ">
<use xlink:href="#R_FDFG3_0_Layer0_3_FILL"/>
</g>

<g transform="matrix( 0.8670501708984375, 0, 0, 0.8670501708984375, 518.8,-302.05) ">
<use xlink:href="#R_FDFG3_0_Layer0_4_FILL"/>
</g>

<g transform="matrix( 0.8670501708984375, 0, 0, 0.8670501708984375, 518.8,-302.05) ">
<use xlink:href="#R_FDFG3_0_Layer0_5_FILL"/>
</g>
</g>
</g>

<g transform="matrix( 0.8670501708984375, 0, 0, 0.8670501708984375, 520.85,-309) ">
<use xlink:href="#R_trytjg3_0_Layer0_1_MEMBER_1_FILL"/>
</g>

<g transform="matrix( 0.8670501708984375, 0, 0, 0.8670501708984375, 520.85,-309) ">
<use xlink:href="#R_trytjg3_0_Layer0_1_MEMBER_2_FILL"/>
</g>

<g transform="matrix( 0.8670501708984375, 0, 0, 0.8670501708984375, 520.85,-309) ">
<use xlink:href="#R_trytjg3_0_Layer0_1_MEMBER_3_FILL"/>
</g>

<g transform="matrix( 0.8670501708984375, 0, 0, 0.8670501708984375, 520.85,-309) ">
<use xlink:href="#R_trytjg3_0_Layer0_1_MEMBER_4_FILL"/>
</g>

<g transform="matrix( 0.8670501708984375, 0, 0, 0.8670501708984375, 520.85,-309) ">
<use xlink:href="#R_trytjg3_0_Layer0_1_MEMBER_5_FILL"/>
</g>

<g transform="matrix( 0.8670501708984375, 0, 0, 0.8670501708984375, 520.85,-309) ">
<use xlink:href="#R_trytjg3_0_Layer0_1_MEMBER_6_FILL"/>
</g>

<g transform="matrix( 1, 0, 0, 1, 600.25,-350.45) ">
<use xlink:href="#R_trytjg3_0_Layer0_2_MEMBER_0_FILL"/>
</g>

<g transform="matrix( 1, 0, 0, 1, 600.25,-350.45) ">
<use xlink:href="#R_trytjg3_0_Layer0_2_MEMBER_1_FILL"/>
</g>

<g transform="matrix( 1, 0, 0, 1, 600.25,-350.45) ">
<use xlink:href="#R_trytjg3_0_Layer0_2_MEMBER_2_FILL"/>
</g>
</g>
</g>

<g transform="matrix( 1, 0, 0, 1, 0,0) ">
<use xlink:href="#ghfgh_0_Layer1_0_FILL"/>
</g>

<g transform="matrix( 1, 0, 0, 1, 0,0) ">
<use xlink:href="#ghfgh_0_Layer1_1_FILL"/>
</g>
</g>
</g>

<g transform="matrix( 0.959075927734375, 0.28314208984375, -0.28314208984375, 0.959075927734375, 1434.25,163) ">
<g transform="matrix( 1, 0, 0, 1, 0,0) ">
<use xlink:href="#rtfh_0_Layer0_0_FILL"/>
</g>

<g filter="url(#Filter_5)" transform="matrix( 0.959075927734375, -0.28314208984375, 0.28314208984375, 0.959075927734375, -1421.7,249.75) ">
<g transform="matrix( 0.8613739013671875, 0.2542877197265625, -0.2542877197265625, 0.8613739013671875, 1434.25,162.95) ">
<g transform="matrix( 1, 0, 0, 1, 0,0) ">
<use xlink:href="#gffg_0_Layer0_0_1_STROKES"/>
</g>

<g transform="matrix( 1, 0, 0, 1, 0,0) ">
<use xlink:href="#gffg_0_Layer0_1_1_STROKES"/>
</g>
</g>
</g>

<g transform="matrix( 1, 0, 0, 1, -1438.9,-182.7) ">
<use xlink:href="#rtfh_0_Layer0_2_FILL"/>
</g>

<g transform="matrix( 0.89813232421875, 0, 0, 0.89813232421875, -1542.7,-160.85) ">
<use xlink:href="#rtfh_0_Layer0_3_FILL"/>
</g>

<g transform="matrix( 1.0533905029296875, 0.608154296875, -0.608154296875, 1.0533905029296875, -1682.45,-1296.85) ">
<use xlink:href="#rtfh_0_Layer0_4_FILL"/>
</g>

<g transform="matrix( 0.537872314453125, 0.310516357421875, -0.310516357421875, 0.537872314453125, -1020.3,-623.85) ">
<use xlink:href="#rtfh_0_Layer0_5_FILL"/>
</g>

<g transform="matrix( 0.537841796875, 0.310516357421875, -0.310516357421875, 0.537841796875, -1007.55,-683.3) ">
<use xlink:href="#rtfh_0_Layer0_6_FILL"/>
</g>

<g transform="matrix( 1.26483154296875, 0.7302093505859375, -0.7302093505859375, 1.26483154296875, -2169.75,-1638.55) ">
<use xlink:href="#rtfh_0_Layer0_7_FILL"/>
</g>

<g transform="matrix( 0.872772216796875, -0.233856201171875, 0.233856201171875, 0.872772216796875, -1697.8,280.9) ">
<use xlink:href="#rtfh_0_Layer0_8_FILL"/>
</g>
</g>
</svg>
