
<svg xmlns="http://www.w3.org/2000/svg" version="1.1" xmlns:xlink="http://www.w3.org/1999/xlink" preserveAspectRatio="none" x="0px" y="0px" width="1920px" height="1080px" viewBox="0 0 1920 1080">
<defs>
<linearGradient id="Gradient_1" gradientUnits="userSpaceOnUse" x1="-527.3375" y1="19.837500000000002" x2="-53.662499999999994" y2="73.0625" spreadMethod="pad">
<stop  offset="0%" stop-color="#563636"/>

<stop  offset="100%" stop-color="#3A1D1D"/>
</linearGradient>

<linearGradient id="Gradient_2" gradientUnits="userSpaceOnUse" x1="-540.3875" y1="418.23749999999995" x2="-83.2125" y2="485.5625" spreadMethod="pad">
<stop  offset="0%" stop-color="#4E2D2D"/>

<stop  offset="100%" stop-color="#2E1313"/>
</linearGradient>

<filter id="Filter_1" x="-20%" y="-47.46484395793712%" width="140%" height="194.92968791587424%" color-interpolation-filters="sRGB">
<feGaussianBlur in="SourceGraphic" stdDeviation="5,5" result="result1"/>
</filter>

<g id="dfggg_0_Layer8_0_FILL">
<path fill="#CFC7A8" stroke="none" d="
M -600.25 577.25
L -585 563 -605.25 526.45 -617.75 546.2 -600.25 577.25
M -619.75 413.9
L -634.25 427.9 -623.75 458.4 -601.75 448.4 -619.75 413.9
M -544.7 397.9
L -557.2 428.4 -516.7 462.4 -501.2 432.4 -544.7 397.9
M -415.65 342.9
L -459.65 380.9 -448.65 412.4 -404.65 388.9 -415.65 342.9
M -406.15 226.4
L -479.65 281.9 -462.65 322.9 -388.15 290.9 -406.15 226.4
M -500.2 291.9
L -523.2 246.4 -588.2 308.9 -562.7 346.4 -500.2 291.9
M -481.65 139.85
L -410.15 177.85 -387.15 121.4 -470.15 64.85 -481.65 139.85
M -321.15 229.4
L -284.1 231.9 -305.1 153.35 -345.65 174.85 -321.15 229.4 Z"/>
</g>

<g id="dfggg_0_Layer7_0_FILL">
<path fill="url(#Gradient_1)" stroke="none" d="
M -168.05 366.45
Q -225.7 357.3 -291.95 363.6 -370.7 426.7 -455.15 435.9 -504.35 441.35 -538.8 457.45 -514.4 455.6 -492.5 460.4 -477 477.4 -466.95 510.75 -413.15 535.15 -373.9 568.2 -301.5 577.2 -236.25 561.8
L -168.05 366.45
M -203.65 373.15
L -214 392
Q -261.4 386.65 -310.85 392 -257.05 364.75 -203.65 373.15
M -387.65 501.05
L -335.45 504.55 -433.2 477.9
Q -343.75 489.9 -262.85 495.9
L -268 526.1
Q -325.3 524.4 -387.65 501.05
M -415.95 459.95
L -333.45 415.6 -282.05 404.95
Q -262.55 412.3 -247.4 423.9 -346.95 431.7 -415.95 459.95
M -456.7 466.7
Q -442.2 482.45 -433.9 509.45 -459 475.6 -492.15 456.4
L -456.7 466.7
M -251.05 431.6
L -253.1 467.6
Q -319.95 459.15 -390.6 463.6 -333.1 445.75 -251.05 431.6
M -268.3 539.05
Q -291.95 550.65 -320.1 551.45 -370.55 537.15 -416.3 514.2 -336.65 539.85 -268.3 539.05 Z"/>

<path fill="url(#Gradient_2)" stroke="none" d="
M -320.1 551.45
Q -291.95 550.65 -268.3 539.05 -336.65 539.85 -416.3 514.2 -370.55 537.15 -320.1 551.45
M -253.1 467.6
L -251.05 431.6
Q -333.1 445.75 -390.6 463.6 -319.95 459.15 -253.1 467.6
M -433.9 509.45
Q -442.2 482.45 -456.7 466.7
L -492.15 456.4
Q -459 475.6 -433.9 509.45
M -333.45 415.6
L -415.95 459.95
Q -346.95 431.7 -247.4 423.9 -262.55 412.3 -282.05 404.95
L -333.45 415.6
M -335.45 504.55
L -387.65 501.05
Q -325.3 524.4 -268 526.1
L -262.85 495.9
Q -343.75 489.9 -433.2 477.9
L -335.45 504.55
M -214 392
L -203.65 373.15
Q -257.05 364.75 -310.85 392 -261.4 386.65 -214 392 Z"/>
</g>

<g id="dfggg_0_Layer7_0_MEMBER_0_FILL">
<path fill="#000000" fill-opacity="0.2" stroke="none" d="
M -458.5 528.25
Q -436.734375 535.72421875 -411.95 560.15 -353.0056640625 555.7056640625 -302.75 565.85 -234.8845703125 538.9904296875 -185 494.15
L -193.15 445.25
Q -276.409375 492.878515625 -398.1 515.1 -439.85 507.97890625 -481.65 525.65 -492.3173828125 536.6294921875 -500.6 547.85 -480.012890625 534.54921875 -458.5 528.25 Z"/>
</g>

<g id="dfggg_0_Layer6_0_FILL">
<path fill="#EDE5BC" stroke="none" d="
M -328.25 -179.8
Q -395.530859375 -148.9673828125 -431 -104.25 -483.896875 8.5375 -470.15 64.85 -410.29921875 42.1380859375 -387.15 121.4 -192.4513671875 176.129296875 -199.05 -76.05 -13.1083984375 -70.4166015625 2.8 36.5 -18.006640625 -146.8484375 -129.8 -181.05 -238.1 -221.05234375 -328.25 -179.8 Z"/>

<path fill="#B6B08F" stroke="none" d="
M -431 -104.25
Q -443.0658203125 -89.0193359375 -451.45 -72.2 -484.5052734375 -5.896875 -491.85 69.55 -499.1365234375 145.0453125 -446.5 219.25 -393.87265625 293.44609375 -240.2 272.5 -86.4662109375 251.6154296875 4.8 56.6 4.0697265625 47.8416015625 3.15 39.4 2.98203125 37.94765625 2.8 36.5 -13.1083984375 -70.4166015625 -199.05 -76.05 -192.4513671875 176.129296875 -387.15 121.4 -410.29921875 42.1380859375 -470.15 64.85 -483.896875 8.5375 -431 -104.25 Z"/>
</g>

<g id="regrfg_0_Layer0_0_FILL">
<path fill="#000000" fill-opacity="0.2980392156862745" stroke="none" d="
M -302.45 28.7
Q -270.25 36.55 -200.8 32.8
L 225.8 32.8
Q 332.4224609375 36.108203125 352.65 19.35 372.8775390625 2.591796875 289.75 -24.35 5.6 -35.8 -285.35 -20.35 -404.81796875 22.1125 -302.45 28.7 Z"/>
</g>

<g id="trytjj_0_Layer7_0_FILL">
<path fill="#2E444F" stroke="none" d="
M 236.15 -186.05
L 173.5 -196.35 -26 -91.25 -40.3 42.85
Q 83.3 75.85 172.6 -4.6 195.7 -25.4 210 -50.9 239.4 -103.45 286.9 -139.8
L 236.15 -186.05 Z"/>

<path fill="#21313A" stroke="none" d="
M 312.1 -114.05
L 286.9 -139.8
Q 239.4 -103.45 210 -50.9 195.7 -25.4 172.6 -4.6 83.3 75.85 -40.3 42.85
L -43 68.05
Q 124.8 113.75 199.7 13.2 274.6 -87.3 312.1 -114.05 Z"/>
</g>

<g id="trytjj_0_Layer6_0_FILL">
<path fill="#364D59" stroke="none" d="
M 369.6 -179.5
Q 357.75 -179.65 345.65 -179.6 391.45 -156 413.15 -96 439.75 -95.2 460.45 -86.75 455.7 -125.5 428.25 -157.45 403 -172.85 369.6 -179.5 Z"/>

<path fill="#405C6A" stroke="none" d="
M 197.55 -218.5
Q 206.35 -205.45 219.85 -200.5 270.3 -116 305.65 -87.7 317.95 -77.8 325.75 -76.15 335.65 -74.15 362.8 -77.5 418.2 -84.05 461.1 -60 462.05 -73.75 460.45 -86.75 439.75 -95.2 413.15 -96 387.4 -97 336.65 -90.85 317.4 -93.5 302.85 -105.2 266.65 -139.45 214.4 -219.15 207.6 -219.2 197.55 -218.5 Z"/>

<path fill="#587E91" stroke="none" d="
M 224.8 -218.5
Q 221.2 -219.2 214.4 -219.15 266.65 -139.45 302.85 -105.2 317.4 -93.5 336.65 -90.85 387.4 -97 413.15 -96 391.45 -156 345.65 -179.6 315.35 -179.65 283.6 -178.75 231.2 -216.7 224.8 -218.5 Z"/>
</g>

<g id="trytjj_0_Layer5_0_FILL">
<path fill="#1C1C1C" stroke="none" d="
M 17.3 -135
L 23.3 -67.5 209.95 -175 229.55 -175
Q 229.55 -201.7 225.8 -206.8 128.55 -204.25 17.3 -135 Z"/>
</g>

<g id="trytjj_0_Layer4_0_FILL">
<path fill="#AB7138" stroke="none" d="
M 28 -41.95
L 28 -15.45
Q 98.45 -62.75 166.5 -106.5
L 166.5 -128.55
Q 100.75 -87.15 28 -41.95 Z"/>
</g>

<g id="tyrtasfd_0_Layer0_0_FILL">
<path fill="#383737" stroke="none" d="
M 157 422.05
Q 161.92734375 411.794140625 151.5 414.7 131.933984375 421.3708984375 46.2 476.6 28.86328125 487.2931640625 28.15 492.15 38.916796875 500.8380859375 63.5 484.95 77.0935546875 468.1978515625 102.2 463.95 133.9810546875 458.7060546875 157 422.05 Z"/>

<path fill="#171717" stroke="none" d="
M 29 -17.85
L -26.2 -10.35
Q -12.7771484375 91.9484375 -16.75 177.85 -31.800390625 241.92734375 -28.9 263.75 3.0875 376.917578125 28.15 492.15 28.86328125 487.2931640625 46.2 476.6 131.933984375 421.3708984375 151.5 414.7 59.673046875 442.2076171875 42.7 438.7 12.7982421875 358.107421875 15.4 191.9 30.0978515625 74.5025390625 29 -17.85 Z"/>
</g>

<g id="tyrt_0_Layer0_0_FILL">
<path fill="#383737" stroke="none" d="
M -12.35 89.2
Q -29.3833984375 96.94453125 -32 103.15 -16.2177734375 107.9953125 7.35 89.55 52.029296875 77.001953125 64.45 65.85 76.8697265625 54.7466796875 83.45 38.3 90.0728515625 21.8572265625 82.45 25.25 58.525 44.76015625 31.6 63.1 4.7271484375 81.4994140625 -12.35 89.2 Z"/>

<path fill="#1C1C1C" stroke="none" d="
M -52.15 -175.7
L -50.5 -151.7
Q -63.039453125 -93.6587890625 -61.8 -73.7 -38.2650390625 37.498828125 -32 103.15 -29.3833984375 96.94453125 -12.35 89.2 4.7271484375 81.4994140625 31.6 63.1 58.525 44.76015625 82.45 25.25 12.82734375 59.371875 -13.05 56.15 -22.930859375 -37.708984375 -13.05 -167.15
L -52.15 -175.7 Z"/>
</g>

<g id="trytjj_0_Layer1_0_FILL">
<path fill="#587E91" stroke="none" d="
M 47.65 -107.35
Q 64.75 -101.45 73.3 -103.65 82.25 -104.15 118.05 -142.05 161.8 -188.3 209.1 -199.05 140.05 -201.45 38.35 -147.7 45.8 -125.6 47.65 -107.35 Z"/>

<path fill="#334D5A" stroke="none" d="
M 28 -112.15
L 28 -102.3
Q 43.85 -98.35 48.7 -96.1 48.25 -101.55 47.65 -107.35 43.1 -108.95 28 -112.15 Z"/>

<path fill="#466A7D" stroke="none" d="
M 33.95 -160.8
L 18.2 -155.45
Q 31.3171875 -134.8703125 28 -112.15 43.1 -108.95 47.65 -107.35 45.8 -125.6 38.35 -147.7
L 33.95 -160.8 Z"/>

<path fill="#405C6A" stroke="none" d="
M 103.7 -111.4
Q 122 -130.8 138.45 -143.45 170.45 -168.05 219.8 -188
L 225.9 -197.6
Q 217.7 -198.8 209.1 -199.05 161.8 -188.3 118.05 -142.05 82.25 -104.15 73.3 -103.65 64.75 -101.45 47.65 -107.35 48.25 -101.55 48.7 -96.1 67.05 -87.5 76.2 -89.7 85.15 -91.65 103.7 -111.4 Z"/>
</g>

<g id="trytjj_0_Layer1_1_FILL">
<path fill="#364D59" stroke="none" d="
M -127.65 -68.1
Q -183.8095703125 -50.85078125 -211 -24.05 -264.0751953125 46.9375 -249.9 138.1 -226.0541015625 245.6791015625 -161.1 312.15 -90.062890625 377.1826171875 -14.65 390.2 -19.5056640625 356.499609375 -21.2 319.65 -102.5107421875 313.525 -163.35 217.75 -199.903125 144.637890625 -199.05 72.35 -198.18515625 0.10546875 -127.65 -68.1 Z"/>

<path fill="#466A7D" stroke="none" d="
M -54.9 -88.15
Q -55.639453125 -86.8673828125 -57.5 -81.5 -61.0123046875 -76.5197265625 -65.6 -71.65 -148.246484375 -34.315234375 -147 11 -134.58515625 -22.0501953125 -93.75 -48.6 -85.1837890625 -54.211328125 -78.15 -60 -109.828515625 -2.053125 -72 94 -83.813671875 27.5201171875 -67.95 -21.45 -52.0328125 -70.4232421875 -45.9 -92.4 -54.166015625 -89.4359375 -54.9 -88.15 Z"/>

<path fill="#587E91" stroke="none" d="
M 11.25 94.3
Q 42.611328125 -42.2126953125 12.35 -155.75
L -41 -142.6
Q -42.5953125 -107.5806640625 -45.9 -92.4 -52.0328125 -70.4232421875 -67.95 -21.45 -83.813671875 27.5201171875 -72 94 -109.828515625 -2.053125 -78.15 -60 -85.1837890625 -54.211328125 -93.75 -48.6 -134.58515625 -22.0501953125 -147 11 -148.246484375 -34.315234375 -65.6 -71.65 -61.0123046875 -76.5197265625 -57.5 -81.5 -96.675 -76.9189453125 -127.65 -68.1 -198.18515625 0.10546875 -199.05 72.35 -199.903125 144.637890625 -163.35 217.75 -102.5107421875 313.525 -21.2 319.65 -20.0666015625 230.871484375 11.25 94.3 Z"/>

<path fill="#405C6A" stroke="none" d="
M 28 -159.6
L 12.35 -155.75
Q 42.611328125 -42.2126953125 11.25 94.3 -20.0666015625 230.871484375 -21.2 319.65 -19.5056640625 356.499609375 -14.65 390.2 -1.8880859375 392.3890625 11 393.1 -13.177734375 309.744140625 20.6 154.6 54.418359375 -0.5533203125 39.45 -101.4
L 37.95 -111.1 37.9 -111.1
Q 33.973828125 -135.02734375 28 -159.6 Z"/>
</g>

<g id="rgfhg_0_Layer13_0_FILL">
<path fill="#10171E" stroke="none" d="
M 105.45 -75.75
Q 76.85 -122.15 28.85 -145.6 -23.05 -151.25 -67.45 -132.6 -64.85 -96.25 -48.1 -61
L 49.75 -34.75
Q 83.1 -53.05 105.45 -75.75 Z"/>

<path fill="#362C13" stroke="none" d="
M 105.45 -75.75
L 123.15 -89.65
Q 94.8 -135.6 32.6 -159.4 -25.95 -169.1 -66.15 -150.45 -67 -150 -67.9 -149.6 -68.05 -141.05 -67.45 -132.6 -23.05 -151.25 28.85 -145.6 76.85 -122.15 105.45 -75.75 Z"/>
</g>

<g id="rgfhg_0_Layer12_0_FILL">
<path fill="#997317" stroke="none" d="
M -110.55 -6.2
Q -149 -28.6 -157.45 -62.8
L -174.2 -57.95
Q -166.35 -12 -118.3 15.25 -69.45 43.15 -15 51.35
L -10.8 31.8
Q -63.4 21.45 -110.55 -6.2
M 178.05 -17.8
L 162.3 -26.35
Q 150.9962890625 -6.0943359375 123.45 7.4 95.95859375 20.900390625 72.65 26.95 49.3873046875 33.0494140625 10 32.9
L 10 53.65
Q 114.0376953125 56.7626953125 178.05 -17.8 Z"/>

<path fill="#193847" stroke="none" d="
M -112.65 -75.75
L -157.45 -62.8
Q -149 -28.6 -110.55 -6.2 -63.4 21.45 -10.8 31.8
L -2.25 -36
Q -59.05 -52.55 -112.65 -75.75
M 135.3 -41
Q 72.15 -34.8 10 -35.2
L 10 32.9
Q 49.3873046875 33.0494140625 72.65 26.95 95.95859375 20.900390625 123.45 7.4 150.9962890625 -6.0943359375 162.3 -26.35
L 135.3 -41 Z"/>
</g>

<g id="rgfhg_0_Layer11_0_FILL">
<path fill="#362C13" stroke="none" d="
M 84 -243.55
L 73.3 -240.55
Q 97.7634765625 -169.29453125 79.45 -107 68.9658203125 -89.2498046875 31.4 -67.35
L 49.85 -59.95
Q 81.4673828125 -86.051171875 92.2 -104.25 111.2427734375 -169.0498046875 84 -243.55 Z"/>

<path fill="#10171E" stroke="none" d="
M 73.3 -240.55
L 27.85 -227.85 20.1 -71.4 31.4 -67.35
Q 68.9658203125 -89.2498046875 79.45 -107 97.7634765625 -169.29453125 73.3 -240.55 Z"/>
</g>

<g id="rergf_0_Layer2_0_FILL">
<path fill="#F0BF90" stroke="none" d="
M -33.7 -63.75
Q -37.6650390625 -2.3400390625 -34.7 62.75
L 36.35 65.25
Q 37.6099609375 -5.5 32.6 -63.75
L -33.7 -63.75 Z"/>
</g>

<g id="Mask_rergf_0_1_MASK_0_FILL">
<path fill="#FFFFFF" stroke="none" d="
M -33.7 -63.75
Q -37.6650390625 -2.3400390625 -34.7 62.75
L 36.35 65.25
Q 37.6099609375 -5.5 32.6 -63.75
L -33.7 -63.75 Z"/>
</g>

<g id="rergf_0_Layer1_0_FILL">
<path fill="#D68B67" stroke="none" d="
M -49.45 -72.95
L -40.4 -19.6
Q -2.1541015625 10.6486328125 45.4 31.25
L 54.1 -71.5 -49.45 -72.95 Z"/>
</g>

<g id="rterytf_0_Layer9_0_FILL">
<path fill="#F0BF90" stroke="none" d="
M -30.4 3.15
L -35.35 1.85
Q -34.3216796875 4.769140625 -33.2 8.8 -40.6232421875 12.3568359375 -42.2 0
L -45.3 -0.85
Q -45.081640625 11.0005859375 -38.15 14.75 -32.5 17.75 -30.4 11.7
L -30.4 3.15 Z"/>

<path fill="#D68B67" stroke="none" d="
M -45.3 -2.6
Q -45.319140625 -1.7 -45.3 -0.85
L -42.2 0
Q -40.6232421875 12.3568359375 -33.2 8.8 -34.3216796875 4.769140625 -35.35 1.85
L -30.4 3.15 -30.4 -4.95
Q -34.95 -12.1 -39.65 -12 -43.95 -10.45 -45.3 -2.6 Z"/>
</g>

<g id="rterytf_0_Layer8_0_FILL">
<path fill="#482A1B" stroke="none" d="
M -7.45 24.9
L -35.85 15.15 -32.65 31.85 9.65 73.55 31.55 26.3 31.55 20.6 19.2 24.9 -7.45 24.9 Z"/>

<path fill="#F0BF90" stroke="none" d="
M -36.5 4.1
L -37.65 4 -35.85 15.15 -7.45 24.9 19.2 24.9 31.55 20.6 31.4 6.45 11 9.7 -36.5 4.1 Z"/>

<path fill="#D68B67" stroke="none" d="
M -16.55 -40.45
L -39.25 -4.3 -37.65 3.95 -36.5 4.1 11 9.7 31.4 6.45 31.4 -27.1 -16.55 -40.45 Z"/>

<path fill="#573523" stroke="none" d="
M 31.4 -27.1
L 31.4 -48.8 -18.25 -60.75 -39.25 -4.35 -39.25 -4.3 -16.55 -40.45 31.4 -27.1 Z"/>
</g>

<g id="retrf_0_Layer8_0_FILL">
<path fill="#FFFFFF" stroke="none" d="
M 17.7 -4.1
Q 15.8 -6.25 12.95 -6.25 10.15 -6.25 8.05 -4.1 6.05 -1.9 5.95 1.2 5.85 4.25 7.75 6.4 9.7 8.6 12.5 8.6 15.35 8.6 17.35 6.4 19.45 4.25 19.55 1.2 19.6 -1.9 17.7 -4.1 Z"/>
</g>

<g id="Mask_retrf_0_7_MASK_0_FILL">
<path fill="#FFFFFF" stroke="none" d="
M 17.7 -4.1
Q 15.8 -6.25 12.95 -6.25 10.15 -6.25 8.05 -4.1 6.05 -1.9 5.95 1.2 5.85 4.25 7.75 6.4 9.7 8.6 12.5 8.6 15.35 8.6 17.35 6.4 19.45 4.25 19.55 1.2 19.6 -1.9 17.7 -4.1 Z"/>
</g>

<g id="retrf_0_Layer7_0_FILL">
<path fill="#000000" stroke="none" d="
M -2.15 -4.9
Q -4.2 -4.9 -5.65 -3.35 -7.15 -1.75 -7.2 0.5 -7.25 2.7 -5.9 4.25 -4.5 5.85 -2.45 5.85 -0.4 5.85 1.05 4.25 2.55 2.7 2.6 0.5 2.65 -1.75 1.25 -3.35 -0.1 -4.9 -2.15 -4.9 Z"/>
</g>

<g id="retrf_0_Layer5_0_FILL">
<path fill="#000000" stroke="none" d="
M 12.85 -7.35
Q 9.7 -7.4 7.35 -4.65 4.95 -1.9 5.95 1.75 6.6 -2.05 8.35 -3.8 10.15 -5.6 12.75 -5.4 15.35 -5.25 17.35 -3.35 19.4 -1.5 19.45 2.4 20.5 -2.2 18.25 -4.75 16 -7.3 12.85 -7.35 Z"/>
</g>

<g id="retrf_0_Layer3_0_FILL">
<path fill="#FFFFFF" stroke="none" d="
M -21.05 -6.25
Q -23.2 -3.8 -23.1 -0.4 -23.05 2.95 -20.7 5.35 -18.5 7.75 -15.35 7.75 -12.25 7.75 -10.15 5.35 -8.05 2.95 -8.15 -0.4 -8.2 -3.8 -10.45 -6.25 -12.7 -8.6 -15.85 -8.6 -19 -8.6 -21.05 -6.25 Z"/>
</g>

<g id="Mask_retrf_0_2_MASK_0_FILL">
<path fill="#FFFFFF" stroke="none" d="
M -21.05 -6.25
Q -23.2 -3.8 -23.1 -0.4 -23.05 2.95 -20.7 5.35 -18.5 7.75 -15.35 7.75 -12.25 7.75 -10.15 5.35 -8.05 2.95 -8.15 -0.4 -8.2 -3.8 -10.45 -6.25 -12.7 -8.6 -15.85 -8.6 -19 -8.6 -21.05 -6.25 Z"/>
</g>

<g id="retrf_0_Layer2_0_FILL">
<path fill="#000000" stroke="none" d="
M -2.15 -4.9
Q -4.2 -4.9 -5.65 -3.35 -7.15 -1.75 -7.2 0.5 -7.25 2.7 -5.9 4.25 -4.5 5.85 -2.45 5.85 -0.4 5.85 1.05 4.25 2.55 2.7 2.6 0.5 2.65 -1.75 1.25 -3.35 -0.1 -4.9 -2.15 -4.9 Z"/>
</g>

<g id="retrf_0_Layer0_0_FILL">
<path fill="#000000" stroke="none" d="
M -9.65 -6.85
Q -12.25 -9.9 -15.7 -9.85 -19.15 -9.75 -21.7 -6.95 -24.2 -4.15 -23.05 0.9 -22.95 -3.4 -20.7 -5.4 -18.5 -7.5 -15.6 -7.7 -12.7 -7.9 -10.8 -5.9 -8.85 -4 -8.15 0.2 -7.05 -3.8 -9.65 -6.85 Z"/>
</g>

<g id="rterytf_0_Layer5_0_FILL">
<path fill="#0F0606" stroke="none" d="
M 8.65 36.4
Q 9.45 26.6 3.95 24.6 -1.5 22.6 -1.25 33.65 3.5 32.85 8.65 36.4 Z"/>

<path fill="#2A1718" stroke="none" d="
M 14.4 41.5
Q 16.5 39.25 18.15 36.05 19.65 33.3 20.85 30 22.35 25.6 23.4 20.25 3.9 26.4 -14 16.15 -13.55 22.05 -12.45 26.9 -11.55 30.7 -10.1 33.85 -9.25 35.7 -8.25 37.3 -4.85 34.2 -1.25 33.65 -1.5 22.6 3.95 24.6 9.45 26.6 8.65 36.4 11.45 38.35 14.4 41.5 Z"/>

<path fill="#BC9191" stroke="none" d="
M 12.05 43.65
Q 13.3 42.7 14.4 41.5 11.45 38.35 8.65 36.4 3.5 32.85 -1.25 33.65 -4.85 34.2 -8.25 37.3 -6.55 39.9 -4.5 41.85 3.45 49.45 12.05 43.65 Z"/>
</g>

<g id="rterytf_0_Layer5_0_MEMBER_0_FILL">
<path fill="#FFFFFF" fill-opacity="0.9882352941176471" stroke="none" d="
M 15.45 28.75
L 17.15 24.5
Q -0.0279296875 27.9015625 -16.45 24.5
L -13.45 29.25
Q -0.7419921875 34.6306640625 15.45 28.75 Z"/>
</g>

<g id="rterytf_0_Layer5_1_FILL">
<path fill="#261309" stroke="none" d="
M 13.35 24.7
Q 27.8791015625 28.4626953125 40.95 22.7 8.271875 13.5736328125 -29.9 17.2 -13.4556640625 25.9798828125 13.35 24.7 Z"/>
</g>

<g id="rterytf_0_Layer5_2_FILL">
<path fill="#F0BF90" stroke="none" d="
M 15 5.15
L 5.65 8.75 3.85 19.1 19.15 27.1 15 5.15 Z"/>

<path fill="#D68B67" stroke="none" d="
M 16.05 -15.05
L 9.2 -11.4 5.65 8.75 15 5.15 13.05 -5.2 16.05 -15.05 Z"/>
</g>

<g id="rterytf_0_Layer4_0_FILL">
<path fill="#573523" stroke="none" d="
M 26.15 -37.85
Q 25.9 -38.4 25.65 -38.95 9.4 -74.85 -18.65 -63.75
L -32.9 -33.6 -18.2 -46.45
Q -8.562109375 -44.81328125 4.6 -30.9 18.700390625 -15.9677734375 27.5 -12.4 54.7400390625 -15.6763671875 68.7 -32.35 42.578125 -21.33828125 26.15 -37.85 Z"/>

<path fill="#675152" stroke="none" d="
M 25.65 -38.95
Q 25.9 -38.4 26.15 -37.85 42.578125 -21.33828125 68.7 -32.35
L 55 -32.35
Q 49.63984375 -74.890234375 45.8 -79.75 19.1603515625 -87.478125 -12.55 -76.55
L -18.65 -63.75
Q 9.4 -74.85 25.65 -38.95 Z"/>
</g>

<g id="rterytf_0_Layer3_0_FILL">
<path fill="#402313" stroke="none" d="
M 30.6 -20.6
Q 28.55 -34.55 22.7 -31.95 16.85 -29.3 15.6 -16.9 21 -22 25.9 -24.35 27.9 -23.85 30.6 -20.6 Z"/>
</g>

<g id="rterytf_0_Layer2_0_FILL">
<path fill="#402313" stroke="none" d="
M 1.95 -18.05
Q 3.0009765625 -26.1455078125 0.5 -29.9 -11.3787109375 -44.4541015625 -23.35 -20.4 -6.75546875 -29.3546875 1.95 -18.05 Z"/>
</g>

<g id="rgfhg_0_Layer8_0_FILL">
<path fill="#487082" stroke="none" d="
M 97.7 -39.8
L 62.3 -61.7
Q 5.0775390625 -70.3419921875 -50.85 -84.15
L -99.65 -58.7
Q -94.666796875 14.29296875 -56.15 72.7
L -45.9 88.35 34.45 87.9 42.9 74.85
Q 85.43359375 25.7630859375 97.7 -39.8 Z"/>
</g>

<g id="rgfhg_0_Layer7_0_FILL">
<path fill="#487082" stroke="none" d="
M -49.55 -38.3
L -84.6 -81.8
Q -153.6677734375 -38.2626953125 -216.85 21.95
L -185.75 47.35 -49.55 -38.3 Z"/>
</g>

<g id="rgfhg_0_Layer7_1_FILL">
<path fill="#487082" stroke="none" d="
M 226 59.7
L 255.8 37.3 99.8 -51.05 85.9 2.8 226 59.7 Z"/>
</g>

<g id="rgfhg_0_Layer6_0_FILL">
<path fill="#7D6B2C" stroke="none" d="
M 37.6 113.15
Q 39.2595703125 99.2138671875 41.65 83.1 9.99921875 106.766015625 -36.85 96 -36.0962890625 101.047265625 -35.55 106 11.741015625 127.3669921875 37.6 113.15
M 36 128.4
Q 36.4763671875 123.372265625 37.05 118 1.816015625 128.223828125 -34.9 112.05 -34.4654296875 116.488671875 -34.2 120.85 -33.5767578125 129.570703125 -33.55 138 5.675390625 145.1587890625 36 128.4
M 34.75 143.95
Q 35.0310546875 139.5220703125 36 128.4 -0.0193359375 153.3244140625 -33.55 143.1 -33.6185546875 147.770703125 -33.85 152.35 4.306640625 157.533203125 34.75 143.95
M 42.05 80.3
Q 42.47265625 77.61015625 42.9 74.85 2.9984375 89.8775390625 -39.9 78.1 -38.5455078125 84.999609375 -37.5 91.75 15.7908203125 100.3689453125 42.05 80.3 Z"/>

<path fill="#63541E" stroke="none" d="
M 41.65 83.1
Q 41.8552734375 81.71328125 42.05 80.3 15.7908203125 100.3689453125 -37.5 91.75 -38.5455078125 84.999609375 -39.9 78.1 -47.9703125 75.8689453125 -56.15 72.7 -47.737890625 115.503515625 -45.3 150.4 -39.4904296875 151.57734375 -33.85 152.35 -33.6185546875 147.770703125 -33.55 143.1 -0.0193359375 153.3244140625 36 128.4 5.675390625 145.1587890625 -33.55 138 -33.5767578125 129.570703125 -34.2 120.85 -34.4654296875 116.488671875 -34.9 112.05 1.816015625 128.223828125 37.05 118 37.3396484375 115.6078125 37.6 113.15 11.741015625 127.3669921875 -35.55 106 -36.0962890625 101.047265625 -36.85 96 9.99921875 106.766015625 41.65 83.1 Z"/>
</g>

<g id="rgfhg_0_Layer5_0_FILL">
<path fill="#3E6576" stroke="none" d="
M -40.3 -3.55
L -42.8 -2.05
Q -28.8 17.4 -13.45 33.85 -12.15 32.8 -10.8 31.8 -26.4 14.75 -40.3 -3.55
M -48.2 -20.75
L -48.4 -17.1 -30.3 -10.9 -26.1 -12.3 -48.2 -20.75
M 65.4 13.05
L 63.2 11.3
Q 38.35 33.65 -12.15 56.25 30.3 43.65 65.4 13.05
M 56.75 5.95
L 79.3 4.6 79.6 0.15 49.05 1.6 56.75 5.95 Z"/>

<path fill="#224C5F" stroke="none" d="
M -23.25 -77.65
L -40.15 -81.6
Q -49.6 -45.1 -51.6 -22.1
L -48.2 -20.75 -26.1 -12.3 -30.3 -10.9 -42.75 -6.85
Q -41.6 -5.2 -40.3 -3.55 -26.4 14.75 -10.8 31.8 0.65 23 10.7 14.1 3.4005859375 5.0150390625 -2.35 -4.7 -16.18046875 -28.06640625 -20.9 -55 -21.6203125 -59.0240234375 -22.15 -63.15 -22.9943359375 -70.279296875 -23.25 -77.65
M 80 -50.75
L 67.1 -58.75
Q 65.4994140625 -54.6361328125 63.75 -50.7 60.2326171875 -42.714453125 56.15 -35.45 44.5703125 -14.776171875 28.45 0.2 20.1767578125 7.9025390625 10.7 14.1 0.65 23 -10.8 31.8 -12.15 32.8 -13.45 33.85 -14.45 34.5 -15.45 35.3
L -14.8 57.4 -12.4 87.1 -10 87.5 -13 56.65
Q -12.6 56.45 -12.15 56.25 38.35 33.65 63.2 11.3 63.8 10.7 64.35 10.2
L 56.75 5.95 49.05 1.6 79.6 0.15 80.3 0.1
Q 80.35 -4.3 80.15 -9.9 80.15 -10.05 80.15 -10.2 79.7 -23.35 80 -50.75 Z"/>

<path fill="#D8E6E1" stroke="none" d="
M 18 -41
L 10.45 -51.85
Q 0.85 -46.2 -7.3 -39.1 -16.0638671875 -44.942578125 -20.9 -55 -16.18046875 -28.06640625 -2.35 -4.7
L 18 -41
M 56.15 -35.45
Q 52.5005859375 -31.712109375 48.85 -29.85 44.45 -40.35 36.35 -49.7
L 25.1 -40.1 28.45 0.2
Q 44.5703125 -14.776171875 56.15 -35.45
M 67.1 -58.75
L 54.9 -72.2
Q 44.355078125 -57.9392578125 24.95 -62.45 5.594921875 -66.9607421875 1.6 -83.85
L -23.25 -77.65
Q -22.9943359375 -70.279296875 -22.15 -63.15 -17.212109375 -51.1759765625 -7.3 -44.6 0.825 -51.680859375 8 -55.35 26.3650390625 -64.6310546875 38.75 -51.75 44.426171875 -45.8724609375 48.85 -35.35 56.3 -39.1615234375 63.75 -50.7 65.4994140625 -54.6361328125 67.1 -58.75 Z"/>

<path fill="#ACBFB8" stroke="none" d="
M 10.45 -51.85
L 8 -55.35
Q 0.825 -51.680859375 -7.3 -44.6 -17.212109375 -51.1759765625 -22.15 -63.15 -21.6203125 -59.0240234375 -20.9 -55 -16.0638671875 -44.942578125 -7.3 -39.1 0.85 -46.2 10.45 -51.85
M 38.75 -51.75
L 36.35 -49.7
Q 44.45 -40.35 48.85 -29.85 52.5005859375 -31.712109375 56.15 -35.45 60.2326171875 -42.714453125 63.75 -50.7 56.3 -39.1615234375 48.85 -35.35 44.426171875 -45.8724609375 38.75 -51.75 Z"/>

<path fill="#16292A" stroke="none" d="
M 38.75 -51.75
Q 26.3650390625 -64.6310546875 8 -55.35
L 10.45 -51.85 18 -41 -2.35 -4.7
Q 3.4005859375 5.0150390625 10.7 14.1 20.1767578125 7.9025390625 28.45 0.2
L 25.1 -40.1 36.35 -49.7 38.75 -51.75 Z"/>
</g>

<g id="rgfhg_0_Layer4_0_FILL">
<path fill="#362C13" stroke="none" d="
M 76.9 -85.1
L 61.65 -87.65
Q 52.55390625 -79.05390625 38.7 -69.4 58.0619140625 -75.9408203125 76.9 -85.1 Z"/>

<path fill="#172D38" stroke="none" d="
M 61.4 -70.6
Q 52.49609375 -65.75625 44.1 -64.3
L 38.7 -69.4 38.7 -63.05 67.25 -38.9 77.8 -55.8 61.4 -70.6
M 12.2 -72.55
Q 12.0884765625 -72.7796875 11.95 -73 -25.3275390625 -80.5177734375 -49.05 -105.45
L -42.05 -41
Q -11.5326171875 -49.8181640625 21.35 -66.25 22.2271484375 -66.66015625 23.1 -67.1
L 19.4 -69.05 12.2 -72.55 Z"/>

<path fill="#E9B941" stroke="none" d="
M 61.4 -70.6
Q 69.4814453125 -77.1462890625 76.9 -85.1 58.0619140625 -75.9408203125 38.7 -69.4
L 44.1 -64.3
Q 52.49609375 -65.75625 61.4 -70.6
M 80.9 -243.15
L 57.3 -238.5
Q -2.737890625 -168.228125 -12.45 -136.6 -14.55 -127.7240234375 11.95 -73 12.0884765625 -72.7796875 12.2 -72.55
L 19.4 -69.05 20.75 -68.4
Q 5.065234375 -120.644921875 6.85 -137.55 13.6203125 -162.6396484375 80.9 -243.15 Z"/>

<path fill="#244859" stroke="none" d="
M 23.1 -67.1
Q 23.069921875 -67.1998046875 23.05 -67.3
L 20.75 -68.4 19.4 -69.05 23.1 -67.1
M 57.3 -238.5
L 10.45 -229.3
Q -20.8802734375 -196.4607421875 -40.2 -167.75
L -49.05 -105.45
Q -25.3275390625 -80.5177734375 11.95 -73 -14.55 -127.7240234375 -12.45 -136.6 -2.737890625 -168.228125 57.3 -238.5 Z"/>

<path fill="#AF8828" stroke="none" d="
M 83.5 -243.65
L 80.9 -243.15
Q 13.6203125 -162.6396484375 6.85 -137.55 5.065234375 -120.644921875 20.75 -68.4
L 23.05 -67.3
Q 7.0486328125 -120.317578125 8.85 -137.35 15.6546875 -162.5625 83.5 -243.65 Z"/>
</g>

<g id="rgfhg_0_Layer4_0_MEMBER_0_FILL">
<path fill="#D6DEE2" stroke="none" d="
M 21.6 -12.85
Q 21.6 -5.8 25.75 -0.85 29.9 4.15 35.75 4.15 41.6 4.15 45.75 -0.85 49.9 -5.8 49.9 -12.85 49.9 -19.85 45.75 -24.8 41.6 -29.8 35.75 -29.8 29.9 -29.8 25.75 -24.8 21.6 -19.85 21.6 -12.85
M 26.7 -3.25
Q 22.9 -7.2 22.9 -12.85 22.9 -18.45 26.7 -22.4 30.4 -26.4 35.8 -26.4 41.1 -26.4 44.85 -22.4 48.65 -18.45 48.65 -12.85 48.65 -7.2 44.85 -3.25 41.1 0.75 35.8 0.75 30.4 0.75 26.7 -3.25 Z"/>

<path fill="#9EBDCD" stroke="none" d="
M 22.9 -12.85
Q 22.9 -7.2 26.7 -3.25 30.4 0.75 35.8 0.75 41.1 0.75 44.85 -3.25 48.65 -7.2 48.65 -12.85 48.65 -18.45 44.85 -22.4 41.1 -26.4 35.8 -26.4 30.4 -26.4 26.7 -22.4 22.9 -18.45 22.9 -12.85 Z"/>
</g>

<g id="rgfhg_0_Layer4_0_MEMBER_0_MEMBER_0_FILL">
<path fill="#FFFFFF" stroke="none" d="
M -441.25 6
Q -441.162890625 -2.8625 -435.55 -8.05 -446.71796875 -5.809375 -441.25 6 Z"/>
</g>

<g id="rgfhg_0_Layer3_0_FILL">
<path fill="#244859" stroke="none" d="
M -141.55 -69.2
Q -112.85 -58.35 -88.6 -31.55 -64.35 -4.75 -46.1 9.85
L -31.85 -43.9
Q -34.155078125 -65.3158203125 -35.65 -89.05 -73.024609375 -99.7103515625 -87.8 -99.85 -100.8783203125 -96.7572265625 -141.55 -69.2
M 43.5 -22.95
L 58.05 -22.95
Q 59.15 2.05 59.35 25.15 83.6 11.85 100.45 -5.95 128.65 -35.55 147.7 -39.1 128.8341796875 -61.505078125 120.2 -66.6 101.63671875 -69.109375 69.6 -63.2 65.85 -51.45 43.5 -22.95 Z"/>

<path fill="#DDB143" stroke="none" d="
M -141.55 -69.2
L -147.05 -71.35
Q -161.9 -67.9 -173.95 -58.25 -133.1 -56.9 -98.9 -18.75 -64.7 19.4 -38.9 37 -31.7318359375 8.713671875 -21.1 -32.15
L -31.85 -43.9 -46.1 9.85
Q -64.35 -4.75 -88.6 -31.55 -112.85 -58.35 -141.55 -69.2
M 58.05 -22.95
L 43.5 -22.95
Q 46.55 15.45 44.1 48.1 81.45 35.85 117.05 2.05 152.65 -31.75 178.05 -17.8 169.1 -28.8 158.35 -39.1 154.9720703125 -40.69296875 147.7 -39.1 128.65 -35.55 100.45 -5.95 83.6 11.85 59.35 25.15 59.15 2.05 58.05 -22.95 Z"/>

<path fill="#AA8B3C" stroke="none" d="
M -173.95 -58.25
L -173.4 -55.65
Q -133.2 -53.85 -99.5 -16.25 -66.8 20.3 -45.1 37
L -38.9 37
Q -64.7 19.4 -98.9 -18.75 -133.1 -56.9 -173.95 -58.25
M 175.75 -15.1
L 178.05 -17.8
Q 152.65 -31.75 117.05 2.05 81.45 35.85 44.1 48.1
L 44.1 50.15
Q 81.45 38.35 117.05 4.55 152.05 -28.7 175.75 -15.1 Z"/>
</g>

<g id="rgfhg_0_Layer2_0_FILL">
<path fill="#DDB143" stroke="none" d="
M 46.3 -20.9
L 59.65 -20.9
Q 60.712890625 -34.18359375 69.35 -53.2 90.6408203125 -59.0169921875 108 -71.9
L 123.05 -90.05
Q 94.584375 -69.4384765625 56.15 -64.7 48.8123046875 -39.8412109375 46.3 -20.9 Z"/>

<path fill="#244859" stroke="none" d="
M 59.65 -20.9
L 65.7 -20.9
Q 91.26015625 -42.852734375 108 -71.9 90.6408203125 -59.0169921875 69.35 -53.2 60.712890625 -34.18359375 59.65 -20.9 Z"/>
</g>

<g id="rgfhg_0_Layer2_1_FILL">
<path fill="#244859" stroke="none" d="
M -35.9 -32.2
Q -30.1654296875 -48.270703125 -23.7 -69.6 -56.173828125 -95.0345703125 -70.4 -131.7 -72.9876953125 -111.2919921875 -70.85 -96.2 -59.137890625 -56.633984375 -35.9 -32.2 Z"/>

<path fill="#DDB143" stroke="none" d="
M -67.7 -149.8
Q -69.812890625 -139.598828125 -70.4 -131.7 -56.173828125 -95.0345703125 -23.7 -69.6 -30.1654296875 -48.270703125 -35.9 -32.2 -32.1423828125 -29.3068359375 -25.2 -24.4 -13.0724609375 -44.204296875 -4.75 -77.3 -53.5306640625 -113.9716796875 -67.7 -149.8 Z"/>
</g>

<g id="rgfhg_0_Layer2_2_FILL">
<path fill="#DDB143" stroke="none" d="
M 203.9 -107.8
Q 203.8 -106.5 203.65 -105.25 214.95 -95.75 227.7 -93.65 231.9 -93 236.15 -93 246.6 -93.3 258.05 -98.15 258.1 -99.4 258.15 -100.7 230.3 -91.8 203.9 -107.8 Z"/>
</g>

<g id="rgfhg_0_Layer2_3_FILL">
<path fill="#D6DEE2" stroke="none" d="
M 21.6 -12.85
Q 21.6 -5.8 25.75 -0.85 29.9 4.15 35.75 4.15 41.6 4.15 45.75 -0.85 49.9 -5.8 49.9 -12.85 49.9 -19.85 45.75 -24.8 41.6 -29.8 35.75 -29.8 29.9 -29.8 25.75 -24.8 21.6 -19.85 21.6 -12.85
M 26.7 -3.25
Q 22.9 -7.2 22.9 -12.85 22.9 -18.45 26.7 -22.4 30.4 -26.4 35.8 -26.4 41.1 -26.4 44.85 -22.4 48.65 -18.45 48.65 -12.85 48.65 -7.2 44.85 -3.25 41.1 0.75 35.8 0.75 30.4 0.75 26.7 -3.25 Z"/>

<path fill="#9EBDCD" stroke="none" d="
M 22.9 -12.85
Q 22.9 -7.2 26.7 -3.25 30.4 0.75 35.8 0.75 41.1 0.75 44.85 -3.25 48.65 -7.2 48.65 -12.85 48.65 -18.45 44.85 -22.4 41.1 -26.4 35.8 -26.4 30.4 -26.4 26.7 -22.4 22.9 -18.45 22.9 -12.85 Z"/>
</g>

<g id="rgfhg_0_Layer2_3_MEMBER_0_FILL">
<path fill="#FFFFFF" stroke="none" d="
M -441.25 6
Q -441.162890625 -2.8625 -435.55 -8.05 -446.71796875 -5.809375 -441.25 6 Z"/>
</g>

<g id="rgfhg_0_Layer2_4_FILL">
<path fill="#D6DEE2" stroke="none" d="
M 21.6 -12.85
Q 21.6 -5.8 25.75 -0.85 29.9 4.15 35.75 4.15 41.6 4.15 45.75 -0.85 49.9 -5.8 49.9 -12.85 49.9 -19.85 45.75 -24.8 41.6 -29.8 35.75 -29.8 29.9 -29.8 25.75 -24.8 21.6 -19.85 21.6 -12.85
M 26.7 -3.25
Q 22.9 -7.2 22.9 -12.85 22.9 -18.45 26.7 -22.4 30.4 -26.4 35.8 -26.4 41.1 -26.4 44.85 -22.4 48.65 -18.45 48.65 -12.85 48.65 -7.2 44.85 -3.25 41.1 0.75 35.8 0.75 30.4 0.75 26.7 -3.25 Z"/>

<path fill="#9EBDCD" stroke="none" d="
M 22.9 -12.85
Q 22.9 -7.2 26.7 -3.25 30.4 0.75 35.8 0.75 41.1 0.75 44.85 -3.25 48.65 -7.2 48.65 -12.85 48.65 -18.45 44.85 -22.4 41.1 -26.4 35.8 -26.4 30.4 -26.4 26.7 -22.4 22.9 -18.45 22.9 -12.85 Z"/>
</g>

<g id="rgfhg_0_Layer2_4_MEMBER_0_FILL">
<path fill="#FFFFFF" stroke="none" d="
M -441.25 6
Q -441.162890625 -2.8625 -435.55 -8.05 -446.71796875 -5.809375 -441.25 6 Z"/>
</g>

<g id="dfggg_0_Layer2_0_FILL">
<path fill="#EDE5BC" stroke="none" d="
M -171 -181
L -203.05 -61.45
Q -135.41796875 -76.64921875 -108.75 -33.1 -96.2505859375 -34.1001953125 -88.5 -24.95 -92.6376953125 -131.20625 -171 -181 Z"/>
</g>

<g id="dfggg_0_Layer2_0_MEMBER_0_FILL">
<path fill="#BDB796" stroke="none" d="
M -149.35 -141.2
L -149.4 -141.2
Q -114.094921875 -103.8341796875 -96 -43.6
L -96.05 -51.65
Q -114.35703125 -107.4845703125 -149.35 -141.2 Z"/>
</g>

<g id="dfggg_0_Layer2_0_MEMBER_1_FILL">
<path fill="#BDB796" stroke="none" d="
M -143.3 -112.6
Q -122.441796875 -93.5720703125 -107.55 -62.95 -119.3384765625 -94.6705078125 -143.3 -112.6 Z"/>
</g>

<g id="dfggg_0_Layer2_0_MEMBER_2_FILL">
<path fill="#BDB796" stroke="none" d="
M -125.5 -77.8
Q -143.8560546875 -105.9861328125 -170.5 -113.45 -146.4236328125 -103.530078125 -125.5 -77.8 Z"/>
</g>

<g id="dfggg_0_Layer2_0_MEMBER_3_FILL">
<path fill="#BDB796" stroke="none" d="
M -236.95 -97.15
Q -191.3587890625 -109.4041015625 -140.7 -73.05 -191.2375 -112.7171875 -236.95 -97.15 Z"/>
</g>

<g id="asAD_0_Layer3_0_FILL">
<path fill="#DCF2F7" stroke="none" d="
M -91.4 17.75
Q -94.5048828125 22.7310546875 -97.25 27.7 -91.0080078125 24.5443359375 -84.75 21.85 -82.6802734375 17.8130859375 -80.1 13.85 -85.7466796875 15.6388671875 -91.4 17.75
M -70.45 5.05
Q -71.3533203125 6.297265625 -72.25 7.5 -58.225 3.873046875 -43.45 1.95 -42.3560546875 0.8236328125 -41.25 -0.25 -56.24140625 1.55 -70.45 5.05
M -76.4 8.65
Q -75.4357421875 7.37265625 -74.4 6.1 -80.2400390625 7.66953125 -85.95 9.5 -86.832421875 10.8361328125 -87.75 12.15 -82.1341796875 10.249609375 -76.4 8.65
M -50.95 11.45
L -50.75 11.15 -50.7 11.1
Q -49.089453125 8.6904296875 -47.3 6.4 -61.4107421875 8.3697265625 -75.5 12.45 -77.6796875 16.0609375 -79.45 19.75 -65.3857421875 14.3294921875 -50.95 11.45
M 20.7 -5.4
L 17.4 -8.7
Q -9.7958984375 1.669921875 -43.1 5.9 -44.43984375 7.7484375 -45.7 9.7 -45.98984375 10.156640625 -46.3 10.6 -43.393359375 10.1330078125 -40.5 9.75 -9.452734375 5.3673828125 20.7 -5.4
M 15.65 -10.45
L 14.15 -11.95
Q -9.6806640625 -4.2095703125 -37.55 -0.7 -38.5421875 0.36953125 -39.5 1.45 -39.004296875 1.4056640625 -38.5 1.35
L -38.5 1.35
Q -9.2140625 -2.240234375 15.65 -10.45 Z"/>

<path fill="#A0C2CD" stroke="none" d="
M -105 31.9
Q -107.435546875 36.2759765625 -109.6 40.9 -113.65 49.55 -116.75 59.15 -110.1162109375 60.54140625 -103.7 61.35
L -93.8 57.15
Q -101.2443359375 57.121484375 -109 54.85 -104.5361328125 41.1447265625 -97.25 27.7 -101.1283203125 29.7232421875 -105 31.9
M -97.55 20.2
Q -94.4591796875 18.9369140625 -91.4 17.75 -89.6201171875 14.9515625 -87.75 12.15 -90.218359375 12.9951171875 -92.7 13.9 -95.198828125 16.9548828125 -97.55 20.2
M -90.2 10.95
Q -88.066796875 10.229296875 -85.95 9.5 -84.428125 7.4078125 -82.9 5.3 -85.2060546875 6.5369140625 -87.4 7.9 -88.83046875 9.416015625 -90.2 10.95
M -80.85 22.85
Q -80.186328125 21.2904296875 -79.45 19.75 -82.0916015625 20.7646484375 -84.75 21.85 -85.3044921875 23.062890625 -85.85 24.25 -86.85 26.45 -87.75 28.6 -87.9814453125 29.198828125 -88.2 29.8 -90.404296875 35.821484375 -91.45 42.05 -81.6076171875 45.7529296875 -70.95 47.3 -68.0994140625 47.734765625 -65.2 48
L -60.1 44.55
Q -73.4791015625 43.2482421875 -85.6 38.7 -84.2 30.6 -80.85 22.85
M -72.25 7.5
Q -74.3154296875 8.0634765625 -76.4 8.65 -78.361328125 11.2240234375 -80.1 13.85 -77.781640625 13.12109375 -75.5 12.45 -73.9484375 9.9638671875 -72.25 7.5
M -43.45 1.95
Q -45.454296875 4.109765625 -47.3 6.4 -45.82109375 6.2287109375 -44.35 6.05 -43.705078125 5.970703125 -43.1 5.9 -41.3787109375 3.6115234375 -39.5 1.45 -41.4634765625 1.6984375 -43.45 1.95
M -38.9 33
L -34.05 30.25
Q -43.9994140625 28.8255859375 -53 24.5 -50.2466796875 17.0798828125 -46.3 10.6 -48.616015625 11.012890625 -50.95 11.45
L -51.05 11.65
Q -52.1 13.2 -53 14.8 -56.4 20.6 -58.85 27.15 -50.9064453125 30.9576171875 -42.25 32.5
L -42.2 32.5 -38.9 33
M -38.75 -0.55
Q -38.1302734375 -0.6228515625 -37.55 -0.7 -34.948828125 -3.449609375 -32.05 -5.95 -30.9 -7 -29.65 -7.95 -30.8 -7.9 -31.95 -7.95 -33.4 -6.9 -34.8 -5.8 -38.2083984375 -3.18515625 -41.25 -0.25 -39.9826171875 -0.4109375 -38.75 -0.55
M -65.55 -3.55
Q -67 -2.1 -68.45 -0.65 -71.64765625 2.6873046875 -74.4 6.1 -72.4267578125 5.5736328125 -70.45 5.05 -66.85390625 0.3654296875 -62.5 -4.2 -64 -3.9 -65.55 -3.55 Z"/>

<path fill="#C0DCE5" stroke="none" d="
M -85.85 24.25
Q -85.3044921875 23.062890625 -84.75 21.85 -91.0080078125 24.5443359375 -97.25 27.7 -104.5361328125 41.1447265625 -109 54.85 -101.2443359375 57.121484375 -93.8 57.15
L -70.95 47.3
Q -81.6076171875 45.7529296875 -91.45 42.05 -90.404296875 35.821484375 -88.2 29.8 -87.9814453125 29.198828125 -87.75 28.6 -86.85 26.45 -85.85 24.25
M -82.9 5.3
Q -84.428125 7.4078125 -85.95 9.5 -80.2400390625 7.66953125 -74.4 6.1 -71.64765625 2.6873046875 -68.45 -0.65 -76.223828125 1.7931640625 -82.9 5.3
M -80.1 13.85
Q -78.361328125 11.2240234375 -76.4 8.65 -82.1341796875 10.249609375 -87.75 12.15 -89.6201171875 14.9515625 -91.4 17.75 -85.7466796875 15.6388671875 -80.1 13.85
M -51.05 11.65
L -50.95 11.45
Q -65.3857421875 14.3294921875 -79.45 19.75 -80.186328125 21.2904296875 -80.85 22.85 -84.2 30.6 -85.6 38.7 -73.4791015625 43.2482421875 -60.1 44.55
L -42.25 32.5
Q -50.9064453125 30.9576171875 -58.85 27.15 -56.4 20.6 -53 14.8 -52.1 13.2 -51.05 11.65
M -47.3 6.4
Q -45.454296875 4.109765625 -43.45 1.95 -58.225 3.873046875 -72.25 7.5 -73.9484375 9.9638671875 -75.5 12.45 -61.4107421875 8.3697265625 -47.3 6.4
M -45.35 -5.65
Q -53.5 -5.7 -62.5 -4.2 -66.85390625 0.3654296875 -70.45 5.05 -56.24140625 1.55 -41.25 -0.25 -38.2083984375 -3.18515625 -34.8 -5.8 -38.7 -5.65 -45.35 -5.65
M 23.75 -2.35
L 20.7 -5.4
Q -9.452734375 5.3673828125 -40.5 9.75 -43.393359375 10.1330078125 -46.3 10.6 -50.2466796875 17.0798828125 -53 24.5 -43.9994140625 28.8255859375 -34.05 30.25
L 23.75 -2.35
M 17.4 -8.7
L 15.65 -10.45
Q -9.2140625 -2.240234375 -38.5 1.35
L -38.5 1.35
Q -39.004296875 1.4056640625 -39.5 1.45 -41.3787109375 3.6115234375 -43.1 5.9 -9.7958984375 1.669921875 17.4 -8.7
M 14.15 -11.95
L 17.9 -14.9
Q -6.85 -8.25 -29.65 -7.95 -30.9 -7 -32.05 -5.95 -34.948828125 -3.449609375 -37.55 -0.7 -9.6806640625 -4.2095703125 14.15 -11.95 Z"/>

<path fill="#B4D4DF" stroke="none" d="
M -91.4 17.75
Q -94.4591796875 18.9369140625 -97.55 20.2 -101.5408203125 25.779296875 -105 31.9 -101.1283203125 29.7232421875 -97.25 27.7 -94.5048828125 22.7310546875 -91.4 17.75
M -85.95 9.5
Q -88.066796875 10.229296875 -90.2 10.95 -91.4634765625 12.4203125 -92.7 13.9 -90.218359375 12.9951171875 -87.75 12.15 -86.832421875 10.8361328125 -85.95 9.5
M -79.45 19.75
Q -77.6796875 16.0609375 -75.5 12.45 -77.781640625 13.12109375 -80.1 13.85 -82.6802734375 17.8130859375 -84.75 21.85 -82.0916015625 20.7646484375 -79.45 19.75
M -76.4 8.65
Q -74.3154296875 8.0634765625 -72.25 7.5 -71.3533203125 6.297265625 -70.45 5.05 -72.4267578125 5.5736328125 -74.4 6.1 -75.4357421875 7.37265625 -76.4 8.65
M -43.1 5.9
Q -43.705078125 5.970703125 -44.35 6.05 -45.82109375 6.2287109375 -47.3 6.4 -49.089453125 8.6904296875 -50.7 11.1
L -50.75 11.15 -50.95 11.45
Q -48.616015625 11.012890625 -46.3 10.6 -45.98984375 10.156640625 -45.7 9.7 -44.43984375 7.7484375 -43.1 5.9
M -37.55 -0.7
Q -38.1302734375 -0.6228515625 -38.75 -0.55 -39.9826171875 -0.4109375 -41.25 -0.25 -42.3560546875 0.8236328125 -43.45 1.95 -41.4634765625 1.6984375 -39.5 1.45 -38.5421875 0.36953125 -37.55 -0.7 Z"/>

<path fill="#7FA2AD" stroke="none" d="
M -48.85 57.35
Q -47.7943359375 56.5677734375 -46.75 55.75 -71.952734375 59.112890625 -93.8 57.15
L -103.7 61.35
Q -74.243359375 65.1853515625 -48.85 57.35
M -34.5 46.8
Q -32.5 46.5 -30.4 46.1 -28.35 44.75 -26.1 43 -44.0091796875 46.1076171875 -60.1 44.55
L -65.2 48
Q -50.5908203125 49.3189453125 -34.5 46.8
M -34.05 30.25
L -38.9 33 -42.2 32.5 -42.25 32.5
Q -28.44296875 34.98984375 -12.8 31.8 -10.85 31.45 -9 31 -7.85 30.05 -6.7 29.1 -21.17109375 32.084375 -34.05 30.25 Z"/>

<path fill="#A2C5D0" stroke="none" d="
M -65.2 48
Q -68.0994140625 47.734765625 -70.95 47.3
L -93.8 57.15
Q -71.952734375 59.112890625 -46.75 55.75 -40.7759765625 51.3796875 -34.5 46.8 -50.5908203125 49.3189453125 -65.2 48
M -26.1 43
Q -20.15 38.55 -12.8 31.8 -28.44296875 34.98984375 -42.25 32.5
L -60.1 44.55
Q -44.0091796875 46.1076171875 -26.1 43
M 27.35 1.25
L 23.75 -2.35 -34.05 30.25
Q -21.17109375 32.084375 -6.7 29.1
L 27.35 1.25 Z"/>
</g>

<g id="asAD_0_Layer3_1_FILL">
<path fill="#A2C5D0" stroke="none" d="
M 32.15 -10.45
L 9.6 -8.65
Q 4.545703125 0.7021484375 4.65 15.95
L 39.55 7.65 32.15 -10.45 Z"/>
</g>

<g id="asAD_0_Layer2_0_FILL">
<path fill="#EDE5BC" stroke="none" d="
M 17.2 28.7
Q 16.43828125 33.51484375 15 35.4 18.8708984375 31.4791015625 22.8 28.4 20.5005859375 26.590234375 18.55 27.6 17.8541015625 27.96640625 17.2 28.7
M 44.55 42.35
Q 43.5220703125 37.595703125 43.35 33.2 41.7404296875 33.4302734375 40.15 34 36.766015625 35.319921875 36.45 36.4 36.3572265625 36.695703125 36.5 36.95 36.836328125 37.630078125 38.5 38.2 43.8875 40.9322265625 44.55 42.35
M 56.45 19.3
Q 55.9892578125 19.7890625 55.4 20.3 51.31640625 24.0654296875 51.2 25.85 51.1361328125 26.7556640625 52.1 27.15 60.9681640625 28.135546875 63.2 31.2 58.5865234375 24.616015625 56.45 19.3
M 43.55 -4.05
L 37.75 -12.35
Q 25.7017578125 4.4537109375 20.8 8.3 17.6748046875 14.516015625 8.35 22.2 12.9765625 19.0462890625 23.3 15.55 27.431640625 14.6087890625 29.65 14.85 32.26640625 15.1291015625 32.2 17.05 32.2224609375 17.2818359375 32.15 17.55 31.933984375 18.875 30.65 20.85 26.7482421875 25.959765625 31.5 26.9 34.7935546875 27.5779296875 37.25 27.9 45.0646484375 29.00078125 44.35 26.65 38.5994140625 22.39140625 38.5 19.15 38.4935546875 18.5455078125 38.65 17.95 38.75078125 17.7634765625 38.85 17.55 40.961328125 14.3376953125 47.9 13.4 48.626171875 13.3208984375 49.4 13.25 55.12265625 13.176171875 57.2 14.25 53.0791015625 9.8642578125 49.35 4.2
L 43.55 -4.05 Z"/>

<path fill="#F2C191" stroke="none" d="
M 60.05 3.45
Q 62.098828125 5.022265625 64.95 6 67.501171875 -10.439453125 71.3 -22 58.5287109375 -0.9080078125 60.05 3.45
M 68.15 -30.25
Q 70.8029296875 -36.676953125 69.7 -38.15 67.8787109375 -40.4654296875 49.3 -49.85 63.328125 -34.8318359375 67.1 -27.7 67.70390625 -29.0466796875 68.15 -30.25
M 45.9 -53.35
Q 41.7498046875 -57.3298828125 40.55 -56.5
L 9.95 -10.1
Q 6.9228515625 -1.55078125 8.8 3.3 15.465625 7.734765625 32.75 -20.2
L 37.75 -12.35 43.55 -4.05
Q 62.0052734375 7.4025390625 41.05 -25.45 56.984375 -6.993359375 57.65 -3.95 59.8494140625 -6.6533203125 61.7 -9.7 63.0828125 -15.6984375 42.45 -42.3 64.3828125 -19.0091796875 64.7 -15.05 65.6849609375 -17.074609375 66.55 -19.25 67.187890625 -27.625390625 45.9 -53.35 Z"/>

<path fill="#B9B390" stroke="none" d="
M 57.2 14.25
Q 55.12265625 13.176171875 49.4 13.25 48.626171875 13.3208984375 47.9 13.4 40.961328125 14.3376953125 38.85 17.55 38.75078125 17.7634765625 38.65 17.95 38.4935546875 18.5455078125 38.5 19.15 38.5994140625 22.39140625 44.35 26.65 45.0646484375 29.00078125 37.25 27.9 34.7935546875 27.5779296875 31.5 26.9 26.7482421875 25.959765625 30.65 20.85 31.933984375 18.875 32.15 17.55 32.2224609375 17.2818359375 32.2 17.05 32.26640625 15.1291015625 29.65 14.85 27.431640625 14.6087890625 23.3 15.55 12.9765625 19.0462890625 8.35 22.2 7.737890625 22.6662109375 7.2 23.1 3.4806640625 26.176171875 5.2 28.95 11.5107421875 39.267578125 14.7 35.75 14.8818359375 35.6169921875 15 35.4 16.43828125 33.51484375 17.2 28.7 17.8541015625 27.96640625 18.55 27.6 20.5005859375 26.590234375 22.8 28.4 26.871484375 31.6001953125 32.05 43.4 44.4951171875 44.78125 44.65 42.8 44.6625 42.6037109375 44.55 42.35 43.8875 40.9322265625 38.5 38.2 36.836328125 37.630078125 36.5 36.95 36.3572265625 36.695703125 36.45 36.4 36.766015625 35.319921875 40.15 34 41.7404296875 33.4302734375 43.35 33.2 48.642578125 32.5146484375 54.7 35.65 62.650390625 39.8259765625 63.85 34.65 64.2640625 32.78125 63.3 31.35 63.258203125 31.28828125 63.2 31.2 60.9681640625 28.135546875 52.1 27.15 51.1361328125 26.7556640625 51.2 25.85 51.31640625 24.0654296875 55.4 20.3 55.9892578125 19.7890625 56.45 19.3 60.0408203125 15.754296875 57.2 14.25 Z"/>

<path fill="#D68B67" stroke="none" d="
M 37.75 -12.35
L 32.75 -20.2
Q 15.465625 7.734765625 8.8 3.3 10.8201171875 8.591015625 18.65 9.5 19.453515625 9.4353515625 20.8 8.3 25.7017578125 4.4537109375 37.75 -12.35
M 49.25 -49.9
Q 47.388671875 -51.9337890625 45.9 -53.35 67.187890625 -27.625390625 66.55 -19.25 65.6849609375 -17.074609375 64.7 -15.05 64.3828125 -19.0091796875 42.45 -42.3 63.0828125 -15.6984375 61.7 -9.7 59.8494140625 -6.6533203125 57.65 -3.95 56.984375 -6.993359375 41.05 -25.45 62.0052734375 7.4025390625 43.55 -4.05
L 49.35 4.2
Q 52.872265625 1.4275390625 55.85 -1.9 57.1884765625 1.3462890625 60.05 3.45 58.5287109375 -0.9080078125 71.3 -22 72.1353515625 -24.429296875 73 -26.65
L 68.15 -30.25
Q 67.70390625 -29.0466796875 67.1 -27.7 63.328125 -34.8318359375 49.3 -49.85 49.2904296875 -49.8568359375 49.25 -49.9 Z"/>
</g>

<g id="asAD_0_Layer2_0_MEMBER_0_FILL">
<path fill="#000000" fill-opacity="0.2" stroke="none" d="
M 36.35 36.8
Q 36.467578125 35.975 37.55 35.15 36.712890625 33.20859375 37.75 28.05
L 36.75 27.85
Q 35.687109375 33.1912109375 36.35 36.8
M 31.65 15.5
Q 32.011328125 16.0955078125 32.2 17.9 34.1005859375 3.9783203125 35 -5.9 33.09921875 3.8212890625 31.65 15.5
M 38.5 19.6
Q 38.8650390625 17.890234375 39.6 16.55 40.354296875 7.0986328125 39.55 -3.25 39.345703125 7.101171875 38.5 19.6
M 30.4 15
L 29.6 14.8
Q 26.7666015625 19.969921875 17.2 28.55 18.9896484375 27.2826171875 20.25 27.25 27.6330078125 20.5298828125 30.4 15
M 47.4 13.55
L 51.3 26.4 51.7 24.5 48.8 13.35 47.4 13.55 Z"/>
</g>

<g id="fgfgg_0_Layer2_0_FILL">
<path fill="#C0DCE5" stroke="none" d="
M -65.7 -62.55
L -68.2 -55.7
Q -30.3677734375 -49.1044921875 6.2 -47.05 2.5666015625 -55.124609375 -2.65 -61.85 -34.8919921875 -61.963671875 -65.7 -62.55
M 57.7 -35.3
Q 58.021875 -34.2255859375 58.3 -33.15 75.8109375 -32.68671875 93.05 -33.1 92.5755859375 -34.7646484375 92.05 -36.4 74.5322265625 -35.4375 57.7 -35.3
M 55.85 -40.85
Q 56.4470703125 -39.208203125 57 -37.55 74.259765625 -37.80234375 91.15 -39.1 90.5703125 -40.6865234375 89.95 -42.25 72.5265625 -41.1791015625 55.85 -40.85
M 11.15 -32.55
Q 11.000390625 -33.0642578125 10.9 -33.6 10.5123046875 -35.066796875 10.1 -36.5 -33.0841796875 -39.1802734375 -71.15 -47.7
L -71.95 -45.5
Q -42.2365234375 -37.7072265625 11.15 -32.55
M 15.8 -35.6
Q 16.0734375 -34.680859375 16.3 -33.75 34.881640625 -32.2328125 53.2 -31.75 52.7125 -33.52421875 52.15 -35.25 33.4880859375 -35.22421875 15.65 -36.2 15.75 -35.884375 15.8 -35.6
M 9.45 -38.6
Q 8.954296875 -40.0859375 8.4 -41.55 -33.4546875 -43.6556640625 -69.85 -51.3
L -71 -48.2
Q -29.830859375 -40.942578125 9.45 -38.6
M 14.15 -41.3
Q 14.6380859375 -39.7869140625 15.05 -38.25 33.4509765625 -37.3126953125 51.4 -37.45 50.830078125 -39.1236328125 50.2 -40.75 31.7025390625 -40.5443359375 14.15 -41.3
M 38.65 -61.85
Q 21.040234375 -61.7498046875 3.8 -61.8 8.7384765625 -54.951953125 12.1 -46.75 30.1876953125 -45.8658203125 47.95 -46.15 44.0091796875 -54.7833984375 38.65 -61.85
M 78.9 -62.15
Q 61.8048828125 -61.939453125 45.05 -61.85 50.0587890625 -54.8125 53.7 -46.25 70.715234375 -46.66015625 87.4 -48.1 83.8041015625 -55.6546875 78.9 -62.15 Z"/>

<path fill="#80A5B0" stroke="none" d="
M -2.65 -61.85
Q -6.208984375 -66.47421875 -10.55 -70.45 -11.02734375 -70.8796875 -13.65 -72.85
L -63.9 -67.35 -65.7 -62.55
Q -34.8919921875 -61.963671875 -2.65 -61.85
M 3.8 -61.8
Q 21.040234375 -61.7498046875 38.65 -61.85 34.0158203125 -67.95078125 28.3 -72.85 27.4 -73.6 26.5 -74.35 25.7 -74.95 23.2 -76.8
L -6.6 -73.3
Q -6.099609375 -72.8810546875 -5.65 -72.45 -0.34765625 -67.6234375 3.8 -61.8
M 45.05 -61.85
Q 61.8048828125 -61.939453125 78.9 -62.15 71.8375 -71.5416015625 62.1 -78.7 47.64921875 -77.7865234375 32.6 -76.45 32.026171875 -76.396484375 31.4 -76.35 32.353125 -75.6109375 33.25 -74.85 39.87734375 -69.17734375 45.05 -61.85 Z"/>

<path fill="#5E808B" stroke="none" d="
M -10.55 -70.45
Q -6.208984375 -66.47421875 -2.65 -61.85 0.5982421875 -61.8095703125 3.8 -61.8 -0.34765625 -67.6234375 -5.65 -72.45 -6.099609375 -72.8810546875 -6.6 -73.3 -6.7283203125 -73.422265625 -6.9 -73.55
L -13.65 -72.85
Q -11.02734375 -70.8796875 -10.55 -70.45
M 28.3 -72.85
Q 34.0158203125 -67.95078125 38.65 -61.85 41.86484375 -61.8326171875 45.05 -61.85 39.87734375 -69.17734375 33.25 -74.85 32.353125 -75.6109375 31.4 -76.35 30.648828125 -76.956640625 29.85 -77.55
L 23.2 -76.8
Q 25.7 -74.95 26.5 -74.35 27.4 -73.6 28.3 -72.85
M 62.1 -78.7
Q 71.8375 -71.5416015625 78.9 -62.15 82.2890625 -62.180859375 85.65 -62.25 78.9046875 -72.144140625 69.6 -79.15 65.8697265625 -78.9400390625 62.1 -78.7 Z"/>

<path fill="#A0C2CD" stroke="none" d="
M 87.4 -48.1
Q 90.29375 -48.3453125 93.15 -48.65 89.9087890625 -55.9986328125 85.65 -62.25 82.2890625 -62.180859375 78.9 -62.15 83.8041015625 -55.6546875 87.4 -48.1
M 97.5 -36.7
Q 94.7818359375 -36.5333984375 92.05 -36.4 92.5755859375 -34.7646484375 93.05 -33.1 93.6947265625 -33.108203125 94.35 -33.15 96.423828125 -33.18359375 98.5 -33.25 98.0322265625 -34.9966796875 97.5 -36.7
M 91.15 -39.1
Q 93.8943359375 -39.284765625 96.6 -39.55 96.1091796875 -41.0951171875 95.55 -42.65 92.7451171875 -42.4330078125 89.95 -42.25 90.5703125 -40.6865234375 91.15 -39.1
M 47.95 -46.15
Q 50.8462890625 -46.1666015625 53.7 -46.25 50.0587890625 -54.8125 45.05 -61.85 41.86484375 -61.8326171875 38.65 -61.85 44.0091796875 -54.7833984375 47.95 -46.15
M 53.2 -31.75
Q 53.8845703125 -31.7408203125 54.55 -31.75 56.650390625 -31.6853515625 58.75 -31.65 58.546484375 -32.4083984375 58.3 -33.15 58.021875 -34.2255859375 57.7 -35.3 54.91953125 -35.250390625 52.15 -35.25 52.7125 -33.52421875 53.2 -31.75
M 51.4 -37.45
Q 54.2169921875 -37.469921875 57 -37.55 56.4470703125 -39.208203125 55.85 -40.85 53.0154296875 -40.794921875 50.2 -40.75 50.830078125 -39.1236328125 51.4 -37.45
M 6.2 -47.05
Q 9.1626953125 -46.85625 12.1 -46.75 8.7384765625 -54.951953125 3.8 -61.8 0.5982421875 -61.8095703125 -2.65 -61.85 2.5666015625 -55.124609375 6.2 -47.05
M 16.3 -33.75
Q 16.0734375 -34.680859375 15.8 -35.6 15.75 -35.884375 15.65 -36.2 12.8712890625 -36.3236328125 10.1 -36.5 10.5123046875 -35.066796875 10.9 -33.6 11.000390625 -33.0642578125 11.15 -32.55 11.8091796875 -32.4638671875 12.45 -32.4 14.6244140625 -32.191796875 16.7 -32 16.5025390625 -32.8802734375 16.3 -33.75
M 15.05 -38.25
Q 14.6380859375 -39.7869140625 14.15 -41.3 11.272265625 -41.3935546875 8.4 -41.55 8.954296875 -40.0859375 9.45 -38.6 12.2720703125 -38.4056640625 15.05 -38.25 Z"/>

<path fill="#B4D4DF" stroke="none" d="
M 95.55 -42.65
Q 94.4294921875 -45.7181640625 93.15 -48.65 90.29375 -48.3453125 87.4 -48.1 88.78125 -45.25546875 89.95 -42.25 92.7451171875 -42.4330078125 95.55 -42.65
M 96.6 -39.55
Q 93.8943359375 -39.284765625 91.15 -39.1 91.61875 -37.745703125 92.05 -36.4 94.7818359375 -36.5333984375 97.5 -36.7 97.08828125 -38.1271484375 96.6 -39.55
M 55.85 -40.85
Q 54.8525390625 -43.62265625 53.7 -46.25 50.8462890625 -46.1666015625 47.95 -46.15 49.140234375 -43.5166015625 50.2 -40.75 53.0154296875 -40.794921875 55.85 -40.85
M 57 -37.55
Q 54.2169921875 -37.469921875 51.4 -37.45 51.8001953125 -36.359375 52.15 -35.25 54.91953125 -35.250390625 57.7 -35.3 57.360546875 -36.4142578125 57 -37.55
M 10.1 -36.5
Q 12.8712890625 -36.3236328125 15.65 -36.2 15.38671875 -37.220703125 15.05 -38.25 12.2720703125 -38.4056640625 9.45 -38.6 9.7791015625 -37.5458984375 10.1 -36.5
M 14.15 -41.3
Q 13.2119140625 -44.0662109375 12.1 -46.75 9.1626953125 -46.85625 6.2 -47.05 7.393359375 -44.357421875 8.4 -41.55 11.272265625 -41.3935546875 14.15 -41.3 Z"/>

<path fill="#DCF2F7" stroke="none" d="
M 57 -37.55
Q 57.360546875 -36.4142578125 57.7 -35.3 74.5322265625 -35.4375 92.05 -36.4 91.61875 -37.745703125 91.15 -39.1 74.259765625 -37.80234375 57 -37.55
M 53.7 -46.25
Q 54.8525390625 -43.62265625 55.85 -40.85 72.5265625 -41.1791015625 89.95 -42.25 88.78125 -45.25546875 87.4 -48.1 70.715234375 -46.66015625 53.7 -46.25
M 15.05 -38.25
Q 15.38671875 -37.220703125 15.65 -36.2 33.4880859375 -35.22421875 52.15 -35.25 51.8001953125 -36.359375 51.4 -37.45 33.4509765625 -37.3126953125 15.05 -38.25
M 10.1 -36.5
Q 9.7791015625 -37.5458984375 9.45 -38.6 -29.830859375 -40.942578125 -71 -48.2
L -71.15 -47.7
Q -33.0841796875 -39.1802734375 10.1 -36.5
M 8.4 -41.55
Q 7.393359375 -44.357421875 6.2 -47.05 -30.3677734375 -49.1044921875 -68.2 -55.7
L -69.85 -51.3
Q -33.4546875 -43.6556640625 8.4 -41.55
M 12.1 -46.75
Q 13.2119140625 -44.0662109375 14.15 -41.3 31.7025390625 -40.5443359375 50.2 -40.75 49.140234375 -43.5166015625 47.95 -46.15 30.1876953125 -45.8658203125 12.1 -46.75 Z"/>
</g>

<g id="dfggg_0_Layer0_0_FILL">
<path fill="#AB7138" stroke="none" d="
M 310.35 52.4
Q 308.25 53.55 306.15 54.7 222.65 100.75 124.2 153.45 87.75 173 42.25 194.75
L 47.55 217.1
Q 85.5 195.75 122.65 175.45 132.9904296875 169.7888671875 141 166.5 238.36484375 112.4802734375 328.65 66.95 319.1 58.25 317.2 53.3 317.5 50.9 319.1 47.6 314.75 49.95 310.35 52.4
M 584.05 -53.75
Q 588.75 -55.65 592.9 -60.5 579.3 -54.2 589.35 -82.65 599.4 -111.05 608.75 -119.7 521.25 -65.45 386.95 9.85 389.25 12.65 390.35 16.65 381.05 27.6 365.85 28.15 374.1 36.8 378.3 42.15 484.6 -10.2 584.05 -53.75 Z"/>

<path fill="#D68B67" stroke="none" d="
M 373.8 57.45
Q 377.75 54.8 380 53.15 373.9 56.25 355.15 31.5 363.4 47.4 373.8 57.45
M 361.75 49.55
Q 359.95 51.75 354.35 52.85 348.8 46.95 344.75 38.65 349.1 51.75 352 55.3
L 366.75 62.05
Q 369.15 60.55 371.15 59.2
L 361.75 49.55
M 349.25 66.8
Q 354.3 65.75 358.45 64.7 351.75 59.65 342.3 48.5 336.55 53.5 333.8 52.05 333 44.65 331.55 39.4
L 330.65 52.15
Q 331.55 54.7 349.25 66.8
M 331.55 39.4
Q 332.8 37.45 334.15 36.15 338.15 32 342.8 34.5 343.15 34.65 343.5 34.9 343.8 34.25 344.15 33.65 346.55 29.85 350.6 30.15 352.65 30.3 355.15 31.5 355.45 29.4 356.5 28.25 348.8 27.35 344.85 24.05 333.85 34.4 321.4 33.65
L 321.4 33.7
Q 322.6 39.8 310.35 52.4 314.75 49.95 319.1 47.6 317.5 50.9 317.2 53.3 319.1 58.25 328.65 66.95 330.15 68.35 331.9 69.9 336.8 69.15 341.1 68.4 332.1 60 327.3 51.95 322.2 53.45 320.15 51.45
L 320.6 44.85
Q 321.55 43.3 322.7 41.55 326.7 38.35 331.55 39.4 Z"/>

<path fill="#F0BF90" stroke="none" d="
M 327.3 51.95
Q 332.1 60 341.1 68.4 345.5 67.6 349.25 66.8 331.55 54.7 330.65 52.15
L 331.55 39.4
Q 326.7 38.35 322.7 41.55 321.55 43.3 320.6 44.85
L 320.15 51.45
Q 322.2 53.45 327.3 51.95
M 334.15 36.15
Q 332.8 37.45 331.55 39.4 333 44.65 333.8 52.05 336.55 53.5 342.3 48.5 351.75 59.65 358.45 64.7 363.35 63.35 366.75 62.05
L 352 55.3
Q 349.1 51.75 344.75 38.65 348.8 46.95 354.35 52.85 359.95 51.75 361.75 49.55
L 371.15 59.2
Q 372.6 58.3 373.8 57.45 363.4 47.4 355.15 31.5 352.65 30.3 350.6 30.15 346.55 29.85 344.15 33.65 343.8 34.25 343.5 34.9 343.15 34.65 342.8 34.5 338.15 32 334.15 36.15
M 390.35 16.65
Q 389.25 12.65 386.95 9.85 384.45 6.8 380.5 5.25 370.15 15.4 353.35 21.2 335.7 11.8 330.55 13.6 325.35 15.4 309.5 26.55 301.75 36.45 300.35 43.35 299.95 46.8 306.15 54.7 308.25 53.55 310.35 52.4 322.6 39.8 321.4 33.7
L 321.4 33.65
Q 333.85 34.4 344.85 24.05 348.8 27.35 356.5 28.25 355.45 29.4 355.15 31.5 373.9 56.25 380 53.15 382.75 50.85 382.65 50.15 383 48.2 378.3 42.15 374.1 36.8 365.85 28.15 381.05 27.6 390.35 16.65 Z"/>

<path fill="#7A4C1E" stroke="none" d="
M 592.9 -60.5
Q 600.65 -69.7 606.2 -89.6 614.45 -119.75 608.75 -119.7 599.4 -111.05 589.35 -82.65 579.3 -54.2 592.9 -60.5 Z"/>
</g>

<path id="dfggg_0_Layer8_0_MEMBER_0_1_STROKES" stroke="#000000" stroke-opacity="0.4980392156862745" stroke-width="1" stroke-linejoin="miter" stroke-linecap="butt" stroke-miterlimit="3" fill="none" d="
M -255.5 233.3
L -283.95 203.15 -274.65 158.3"/>

<path id="dfggg_0_Layer8_0_MEMBER_1_1_STROKES" stroke="#000000" stroke-opacity="0.4980392156862745" stroke-width="1" stroke-linejoin="miter" stroke-linecap="butt" stroke-miterlimit="3" fill="none" d="
M -356.25 135.1
L -406.45 143.8 -436.75 81.4"/>

<path id="dfggg_0_Layer8_0_MEMBER_2_1_STROKES" stroke="#000000" stroke-opacity="0.4980392156862745" stroke-width="1" stroke-linejoin="miter" stroke-linecap="butt" stroke-miterlimit="3" fill="none" d="
M -368.3 236.6
L -406.3 301.1 -442.05 288.95"/>

<path id="dfggg_0_Layer8_0_MEMBER_3_1_STROKES" stroke="#000000" stroke-opacity="0.4980392156862745" stroke-width="1" stroke-linejoin="miter" stroke-linecap="butt" stroke-miterlimit="3" fill="none" d="
M -467.65 288.1
L -516.15 300.6 -530.95 343"/>

<path id="dfggg_0_Layer8_0_MEMBER_4_1_STROKES" stroke="#000000" stroke-opacity="0.4980392156862745" stroke-width="1" stroke-linejoin="miter" stroke-linecap="butt" stroke-miterlimit="3" fill="none" d="
M -377.8 354.55
L -398.75 396.45 -422.3 388"/>

<path id="dfggg_0_Layer8_0_MEMBER_5_1_STROKES" stroke="#000000" stroke-opacity="0.4980392156862745" stroke-width="1" stroke-linejoin="miter" stroke-linecap="butt" stroke-miterlimit="3" fill="none" d="
M -468.05 439.4
L -499.8 439.4 -512.15 407.6"/>

<path id="dfggg_0_Layer8_0_MEMBER_6_1_STROKES" stroke="#000000" stroke-opacity="0.4980392156862745" stroke-width="1" stroke-linejoin="miter" stroke-linecap="butt" stroke-miterlimit="3" fill="none" d="
M -571.65 453.05
L -589.65 439.7 -584.15 416.1"/>

<path id="dfggg_0_Layer8_0_MEMBER_7_1_STROKES" stroke="#000000" stroke-opacity="0.4980392156862745" stroke-width="1" stroke-linejoin="miter" stroke-linecap="butt" stroke-miterlimit="3" fill="none" d="
M -552.35 567.9
L -570.45 557.25 -573 534"/>

<path id="rterytf_0_Layer5_0_MEMBER_0_1_STROKES" stroke="#FFFFFF" stroke-width="1" stroke-linejoin="miter" stroke-linecap="butt" stroke-miterlimit="3" fill="none" d="
M 19.65718536376953 27.998947143554688
Q 4.911138248443604 29.819156104326247 -10.173478698730467 24.759738159179687
L -8.871903228759765 29.17589645385742
Q 5.216217902302741 36.62069061100483 16.761582183837888 32.4622688293457
L 19.65718536376953 27.998947143554688 Z"/>

<path id="rgfhg_0_Layer5_0_1_STROKES" stroke="#000000" stroke-width="1" stroke-linejoin="miter" stroke-linecap="butt" stroke-miterlimit="3" fill="none" d="
M 10.7 14.1
Q 0.65 23 -10.8 31.8"/>

<path id="rgfhg_0_Layer4_0_MEMBER_0_1_STROKES" stroke="#272E31" stroke-width="1" stroke-linejoin="miter" stroke-linecap="butt" stroke-miterlimit="3" fill="none" d="
M 47.19476547241211 -65.37862319946288
Q 46.6877670288086 -62.63859405517577 40.95336761474609 -61.709880065917964 35.215372467041014 -60.761733245849605 27.633741760253905 -62.16451568603515 20.052111053466795 -63.5672981262207 15.033262634277342 -66.50571746826171 10.010818481445316 -69.42470397949218 10.517816925048834 -72.16473312377929 11.021219635009771 -74.88532943725585 16.755619049072266 -75.81404342651366 22.493614196777344 -76.76219024658202 30.075244903564453 -75.35940780639648 37.65687561035156 -73.95662536621093 42.675724029541016 -71.01820602416991 47.698168182373045 -68.09921951293944 47.19476547241211 -65.37862319946288 Z"/>

<path id="rgfhg_0_Layer2_0_1_STROKES" stroke="#000000" stroke-opacity="0.2980392156862745" stroke-width="1" stroke-linejoin="round" stroke-linecap="round" fill="none" d="
M 108 -71.9
Q 91.26015625 -42.852734375 65.7 -20.9"/>

<path id="rgfhg_0_Layer2_1_1_STROKES" stroke="#000000" stroke-opacity="0.2980392156862745" stroke-width="1" stroke-linejoin="round" stroke-linecap="round" fill="none" d="
M -35.9 -32.2
Q -59.137890625 -56.633984375 -70.85 -96.2"/>

<path id="rgfhg_0_Layer2_3_1_STROKES" stroke="#272E31" stroke-width="1" stroke-linejoin="miter" stroke-linecap="butt" stroke-miterlimit="3" fill="none" d="
M -18.174797058105476 -24.84858932495117
Q -19.999259948730476 -18.038803100585938 -25.288863372802737 -14.331438446044924 -30.59140625 -10.575777435302737 -36.24207992553711 -12.089693450927737 -41.89275360107422 -13.603609466552737 -44.60740585327149 -19.507219696044924 -47.334997558593756 -25.362533569335938 -45.510534667968756 -32.17231979370117 -43.699011230468756 -38.93380966186524 -38.40940780639649 -42.64117431640625 -33.10686492919922 -46.39683532714844 -27.456191253662112 -44.88291931152344 -21.805517578125 -43.36900329589844 -19.090865325927737 -37.46539306640625 -16.363273620605476 -31.610079193115237 -18.174797058105476 -24.84858932495117 Z"/>

<path id="rgfhg_0_Layer2_4_1_STROKES" stroke="#272E31" stroke-width="1" stroke-linejoin="miter" stroke-linecap="butt" stroke-miterlimit="3" fill="none" d="
M 49.9 -12.85
Q 49.9 -5.8 45.75 -0.85 41.6 4.15 35.75 4.15 29.9 4.15 25.75 -0.85 21.6 -5.8 21.6 -12.85 21.6 -19.85 25.75 -24.8 29.9 -29.8 35.75 -29.8 41.6 -29.8 45.75 -24.8 49.9 -19.85 49.9 -12.85 Z"/>

<path id="dfggg_0_Layer0_0_MEMBER_0_1_STROKES" stroke="#D68B67" stroke-width="1" stroke-linejoin="miter" stroke-linecap="butt" stroke-miterlimit="3" fill="none" d="
M 365.856502532959 28.151657104492188
Q 361.485745409131 24.01934432387352 356.52686004638673 28.24717407226563"/>
</defs>

<g transform="matrix( 0.752960205078125, 0, 0, 0.752960205078125, 974.2,306.75) ">
<g transform="matrix( 1, 0, 0, 1, 0,0) ">
<use xlink:href="#dfggg_0_Layer8_0_FILL"/>
</g>

<g transform="matrix( 1, 0, 0, 1, -35.6,-2.2) ">
<use xlink:href="#dfggg_0_Layer8_0_MEMBER_0_1_STROKES"/>
</g>

<g transform="matrix( 1, 0, 0, 1, -35.6,-2.2) ">
<use xlink:href="#dfggg_0_Layer8_0_MEMBER_1_1_STROKES"/>
</g>

<g transform="matrix( 1, 0, 0, 1, -35.6,-2.2) ">
<use xlink:href="#dfggg_0_Layer8_0_MEMBER_2_1_STROKES"/>
</g>

<g transform="matrix( 1, 0, 0, 1, -35.6,-2.2) ">
<use xlink:href="#dfggg_0_Layer8_0_MEMBER_3_1_STROKES"/>
</g>

<g transform="matrix( 1, 0, 0, 1, -35.6,-2.2) ">
<use xlink:href="#dfggg_0_Layer8_0_MEMBER_4_1_STROKES"/>
</g>

<g transform="matrix( 1, 0, 0, 1, -35.6,-2.2) ">
<use xlink:href="#dfggg_0_Layer8_0_MEMBER_5_1_STROKES"/>
</g>

<g transform="matrix( 1, 0, 0, 1, -35.6,-2.2) ">
<use xlink:href="#dfggg_0_Layer8_0_MEMBER_6_1_STROKES"/>
</g>

<g transform="matrix( 1, 0, 0, 1, -35.6,-2.2) ">
<use xlink:href="#dfggg_0_Layer8_0_MEMBER_7_1_STROKES"/>
</g>

<g transform="matrix( 0.928985595703125, -0.3701019287109375, 0.32330322265625, 0.8115692138671875, -154.65,-96) ">
<use xlink:href="#dfggg_0_Layer7_0_FILL"/>
</g>

<g transform="matrix( 0.9701080322265625, 0.0650177001953125, -0.162445068359375, 0.889556884765625, 67.2,19.7) ">
<use xlink:href="#dfggg_0_Layer7_0_MEMBER_0_FILL"/>
</g>

<g transform="matrix( 1, 0, 0, 1, 0,0) ">
<use xlink:href="#dfggg_0_Layer6_0_FILL"/>
</g>

<g filter="url(#Filter_1)" transform="matrix( 1.3280792236328125, 0, 0, 1.3280792236328125, -1293.8,-407.35) ">
<g transform="matrix( 0.752960205078125, 0, 0, 0.752960205078125, 962.4,926) ">
<g transform="matrix( 1, 0, 0, 1, 0,0) ">
<use xlink:href="#regrfg_0_Layer0_0_FILL"/>
</g>
</g>
</g>

<g transform="matrix( 1, 0, 0, 1, -15.5,284) ">
<g transform="matrix( 1, 0, 0, 1, 0,0) ">
<use xlink:href="#trytjj_0_Layer7_0_FILL"/>
</g>

<g transform="matrix( 0.993072509765625, 0.11749267578125, -0.11749267578125, 0.993072509765625, -12.75,-5.25) ">
<use xlink:href="#trytjj_0_Layer6_0_FILL"/>
</g>

<g transform="matrix( 0.9941253662109375, 0.10821533203125, -0.10821533203125, 0.9941253662109375, -10.7,-4.9) ">
<use xlink:href="#trytjj_0_Layer5_0_FILL"/>
</g>

<g transform="matrix( 1, 0.1198577880859375, 0, 1, -9.8,-30.6) ">
<use xlink:href="#trytjj_0_Layer4_0_FILL"/>
</g>

<g transform="matrix( 0.902435302734375, -0.4307861328125, 0.4307861328125, 0.902435302734375, 17.6,-44.75) ">
<g transform="matrix( 1, 0, 0, 1, 0,0) ">
<use xlink:href="#tyrtasfd_0_Layer0_0_FILL"/>
</g>
</g>

<g transform="matrix( 0.952423095703125, -0.30462646484375, 0.30462646484375, 0.952423095703125, 298.7,-20.4) ">
<g transform="matrix( 1, 0, 0, 1, 0,0) ">
<use xlink:href="#tyrt_0_Layer0_0_FILL"/>
</g>
</g>

<g transform="matrix( 1, 0, 0, 1, 0,0) ">
<use xlink:href="#trytjj_0_Layer1_0_FILL"/>
</g>

<g transform="matrix( 1, 0, 0, 1, 0,0) ">
<use xlink:href="#trytjj_0_Layer1_1_FILL"/>
</g>
</g>

<g transform="matrix( 0.9911956787109375, -0.1322021484375, 0.1322021484375, 0.9911956787109375, -32.3,-7.05) ">
<g transform="matrix( 1, 0, 0, 1, 0,0) ">
<use xlink:href="#rgfhg_0_Layer13_0_FILL"/>
</g>

<g transform="matrix( 1, 0, 0, 1, 0,0) ">
<use xlink:href="#rgfhg_0_Layer12_0_FILL"/>
</g>

<g transform="matrix( 1, 0, 0, 1, 0,0) ">
<use xlink:href="#rgfhg_0_Layer11_0_FILL"/>
</g>

<g transform="matrix( 0.90057373046875, 0.114715576171875, -0.1884765625, 0.984039306640625, 26.05,-98.2) ">
<g transform="matrix( 1, 0, 0, 1, 0,0) ">
<use xlink:href="#rergf_0_Layer2_0_FILL"/>
</g>

<mask id="Mask_Mask_1">
<g transform="matrix( 1, 0, 0, 1, 0,0) ">
<use xlink:href="#Mask_rergf_0_1_MASK_0_FILL"/>
</g>
</mask>

<g mask="url(#Mask_Mask_1)">
<g transform="matrix( 1, 0, 0, 1, -1.65,-9.4) ">
<use xlink:href="#rergf_0_Layer1_0_FILL"/>
</g>
</g>
</g>

<g transform="matrix( 0.9514007568359375, 0.30792236328125, -0.30792236328125, 0.9514007568359375, 53.05,-158.5) ">
<g transform="matrix( 1, 0, 0, 1, -5.5,-5.05) ">
<use xlink:href="#rterytf_0_Layer9_0_FILL"/>
</g>

<g transform="matrix( 1, 0, 0, 1, 0,0) ">
<use xlink:href="#rterytf_0_Layer8_0_FILL"/>
</g>

<g transform="matrix( 1, 0, 0, 1, 6.25,-6.2) ">
<g transform="matrix( 1, 0, 0, 1, 0,0) ">
<use xlink:href="#retrf_0_Layer8_0_FILL"/>
</g>

<mask id="Mask_Mask_2">
<g transform="matrix( 1, 0, 0, 1, 0,0) ">
<use xlink:href="#Mask_retrf_0_7_MASK_0_FILL"/>
</g>
</mask>

<g mask="url(#Mask_Mask_2)">
<g transform="matrix( 0.899993896484375, 0, 0, 0.899993896484375, 12.6,0.8) ">
<use xlink:href="#retrf_0_Layer7_0_FILL"/>
</g>
</g>

<g transform="matrix( 1, 0, 0, 1, 0,0) ">
<use xlink:href="#retrf_0_Layer5_0_FILL"/>
</g>

<g transform="matrix( 1, 0, 0, 1, 0,0) ">
<use xlink:href="#retrf_0_Layer3_0_FILL"/>
</g>

<mask id="Mask_Mask_3">
<g transform="matrix( 1, 0, 0, 1, 0,0) ">
<use xlink:href="#Mask_retrf_0_2_MASK_0_FILL"/>
</g>
</mask>

<g mask="url(#Mask_Mask_3)">
<g transform="matrix( -0.9921875, 0, 0, 0.9921875, -19.2,-0.6) ">
<use xlink:href="#retrf_0_Layer2_0_FILL"/>
</g>
</g>

<g transform="matrix( 1, 0, 0, 1, 0,0) ">
<use xlink:href="#retrf_0_Layer0_0_FILL"/>
</g>
</g>

<g transform="matrix( 1, 0, 0, 1, 0.15,2.8) ">
<use xlink:href="#rterytf_0_Layer5_0_FILL"/>
</g>

<g transform="matrix( -0.8878173828125, -0.096405029296875, -0.0488739013671875, 1.0005340576171875, 6.25,1.9) ">
<use xlink:href="#rterytf_0_Layer5_0_MEMBER_0_FILL"/>

<use xlink:href="#rterytf_0_Layer5_0_MEMBER_0_1_STROKES" transform="matrix( -1.1204071044921875, -0.1079559326171875, -0.054718017578125, 0.9941864013671875, 7.1,-1.2) "/>
</g>

<g transform="matrix( 1, 0, 0, 1, 0.15,2.8) ">
<use xlink:href="#rterytf_0_Layer5_1_FILL"/>
</g>

<g transform="matrix( 1, 0, 0, 1, 0,0) ">
<use xlink:href="#rterytf_0_Layer5_2_FILL"/>
</g>

<g transform="matrix( 1, 0, 0, 1, 0,0) ">
<use xlink:href="#rterytf_0_Layer4_0_FILL"/>
</g>

<g transform="matrix( 1, 0, 0, 1, 0,0) ">
<use xlink:href="#rterytf_0_Layer3_0_FILL"/>
</g>

<g transform="matrix( 1, 0, 0, 1, 0,0) ">
<use xlink:href="#rterytf_0_Layer2_0_FILL"/>
</g>
</g>

<g transform="matrix( 1, 0, 0, 1, 0,0) ">
<use xlink:href="#rgfhg_0_Layer8_0_FILL"/>
</g>

<g transform="matrix( 1, 0, 0, 1, 0,0) ">
<use xlink:href="#rgfhg_0_Layer7_0_FILL"/>
</g>

<g transform="matrix( 1, 0, 0, 1, 0,0) ">
<use xlink:href="#rgfhg_0_Layer7_1_FILL"/>
</g>

<g transform="matrix( 1, 0, 0, 1, 0,0) ">
<use xlink:href="#rgfhg_0_Layer6_0_FILL"/>
</g>

<g transform="matrix( 1, 0, 0, 1, 0,0) ">
<use xlink:href="#rgfhg_0_Layer5_0_FILL"/>

<use xlink:href="#rgfhg_0_Layer5_0_1_STROKES"/>
</g>

<g transform="matrix( 1, 0, 0, 1, 0,0) ">
<use xlink:href="#rgfhg_0_Layer4_0_FILL"/>
</g>

<g transform="matrix( 1.2960052490234375, 0.2397918701171875, -0.0719146728515625, 0.3886566162109375, -18.4,-72.35) ">
<use xlink:href="#rgfhg_0_Layer4_0_MEMBER_0_FILL"/>

<use xlink:href="#rgfhg_0_Layer4_0_MEMBER_0_1_STROKES" transform="matrix( 0.7460479736328125, -0.460296630859375, 0.1380462646484375, 2.48779296875, 23.7,171.5) "/>
</g>

<g transform="matrix( 1.515411376953125, 0.2803802490234375, -0.084075927734375, 0.454437255859375, 685.75,52.2) ">
<use xlink:href="#rgfhg_0_Layer4_0_MEMBER_0_MEMBER_0_FILL"/>
</g>

<g transform="matrix( 1, 0, 0, 1, 0,0) ">
<use xlink:href="#rgfhg_0_Layer3_0_FILL"/>
</g>

<g transform="matrix( 1, 0, 0, 1, 0,0) ">
<use xlink:href="#rgfhg_0_Layer2_0_FILL"/>

<use xlink:href="#rgfhg_0_Layer2_0_1_STROKES"/>
</g>

<g transform="matrix( 1, 0, 0, 1, 0,0) ">
<use xlink:href="#rgfhg_0_Layer2_1_FILL"/>

<use xlink:href="#rgfhg_0_Layer2_1_1_STROKES"/>
</g>

<g transform="matrix( 1.4036712646484375, 0, 0, 1, -310.6,81.5) ">
<use xlink:href="#rgfhg_0_Layer2_2_FILL"/>
</g>

<g transform="matrix( 0.9659271240234375, 0.2587890625, -0.2587890625, 0.9659271240234375, -69.7,-25.35) ">
<use xlink:href="#rgfhg_0_Layer2_3_FILL"/>

<use xlink:href="#rgfhg_0_Layer2_3_1_STROKES" transform="matrix( 0.9659271240234375, -0.2587890625, 0.2587890625, 0.9659271240234375, 73.85,6.4) "/>
</g>

<g transform="matrix( 1.1295318603515625, 0.3026123046875, -0.3026123046875, 1.1295318603515625, 458.05,101.5) ">
<use xlink:href="#rgfhg_0_Layer2_3_MEMBER_0_FILL"/>
</g>

<g transform="matrix( 1, 0, 0, 1, 19.6,-4.8) ">
<use xlink:href="#rgfhg_0_Layer2_4_FILL"/>

<use xlink:href="#rgfhg_0_Layer2_4_1_STROKES"/>
</g>

<g transform="matrix( 1.1694183349609375, 0, 0, 1.1694183349609375, 562.4,-18.8) ">
<use xlink:href="#rgfhg_0_Layer2_4_MEMBER_0_FILL"/>
</g>
</g>

<g transform="matrix( 1, 0, 0, 1, 0,0) ">
<use xlink:href="#dfggg_0_Layer2_0_FILL"/>
</g>

<g transform="matrix( 1, 0, 0, 1, 0,0) ">
<use xlink:href="#dfggg_0_Layer2_0_MEMBER_0_FILL"/>
</g>

<g transform="matrix( 1, 0, 0, 1, 0,0) ">
<use xlink:href="#dfggg_0_Layer2_0_MEMBER_1_FILL"/>
</g>

<g transform="matrix( 1, 0, 0, 1, 0,0) ">
<use xlink:href="#dfggg_0_Layer2_0_MEMBER_2_FILL"/>
</g>

<g transform="matrix( 1, 0, 0, 1, 0,0) ">
<use xlink:href="#dfggg_0_Layer2_0_MEMBER_3_FILL"/>
</g>

<g transform="matrix( 0.997528076171875, -0.0699310302734375, 0.0699310302734375, 0.997528076171875, -148.9,7.9) ">
<g transform="matrix( 1, 0, 0, 1, 0,0) ">
<use xlink:href="#asAD_0_Layer3_0_FILL"/>
</g>

<g transform="matrix( 1, 0, 0, 1, 0,0) ">
<use xlink:href="#asAD_0_Layer3_1_FILL"/>
</g>

<g transform="matrix( 1, 0, 0, 1, 0,0) ">
<use xlink:href="#asAD_0_Layer2_0_FILL"/>
</g>

<g transform="matrix( 1, 0, 0, 1, 0,0) ">
<use xlink:href="#asAD_0_Layer2_0_MEMBER_0_FILL"/>
</g>
</g>

<g transform="matrix( -0.9395599365234375, -0.3423309326171875, 0.3423309326171875, -0.9395599365234375, 279.25,-26.75) ">
<g transform="matrix( 1, 0, 0, 1, 0,0) ">
<use xlink:href="#fgfgg_0_Layer2_0_FILL"/>
</g>
</g>

<g transform="matrix( 1, 0, 0, 1, 0,0) ">
<use xlink:href="#dfggg_0_Layer0_0_FILL"/>
</g>

<g transform="matrix( 0.997528076171875, 0.0701751708984375, -0.0701751708984375, 0.997528076171875, 4.25,-22.9) ">
<use xlink:href="#dfggg_0_Layer0_0_MEMBER_0_1_STROKES" transform="matrix( 0.997528076171875, -0.0701751708984375, 0.0701751708984375, 0.997528076171875, -2.6,23.1) "/>
</g>
</g>
</svg>
