
<svg xmlns="http://www.w3.org/2000/svg" version="1.1" xmlns:xlink="http://www.w3.org/1999/xlink" preserveAspectRatio="none" x="0px" y="0px" width="1920px" height="1080px" viewBox="0 0 1920 1080">
<defs>
<linearGradient id="Gradient_1" gradientUnits="userSpaceOnUse" x1="162.65" y1="169.2125" x2="162.65" y2="205.5875" spreadMethod="pad">
<stop  offset="0%" stop-color="#AFB0AA"/>

<stop  offset="100%" stop-color="#807F6D"/>
</linearGradient>

<filter id="Filter_1" x="-20%" y="-56.47573753821013%" width="140%" height="212.95147507642025%" color-interpolation-filters="sRGB">
<feGaussianBlur in="SourceGraphic" stdDeviation="8.666666666666666,8.666666666666666" result="result1"/>
</filter>

<filter id="Filter_2" x="-21.518382579971203%" y="-75.53157899063415%" width="143.0367651599424%" height="251.0631579812683%" color-interpolation-filters="sRGB">
<feGaussianBlur in="SourceGraphic" stdDeviation="8.666666666666666,8.666666666666666" result="result1"/>
</filter>

<filter id="Filter_3" x="-67.95218643701715%" y="-30.817531613817867%" width="235.9043728740343%" height="161.63506322763573%" color-interpolation-filters="sRGB">
<feGaussianBlur in="SourceGraphic" stdDeviation="21.666666666666668,21.666666666666668" result="result1"/>
</filter>

<g id="regrfg_0_Layer0_0_FILL">
<path fill="#000000" fill-opacity="0.2980392156862745" stroke="none" d="
M 189.8 -32.9
Q 111.2 -47.95 0.05 -47.95 -111.1 -47.95 -189.7 -32.9 -268.3 -17.9 -268.3 3.25 -268.3 24.35 -189.7 39.4 -111.1 54.4 0.05 54.4 111.2 54.4 189.8 39.4 268.4 24.35 268.4 3.25 268.4 -17.9 189.8 -32.9 Z"/>
</g>

<g id="trytjj_0_Layer5_0_FILL">
<path fill="#2E444F" stroke="none" d="
M 114.85 199.6
L 100.8 118.25 3.65 -79.6
Q -106.6736328125 32.632421875 -214.4 85.5 -14.593359375 107.877734375 114.85 199.6 Z"/>

<path fill="#21313A" stroke="none" d="
M 129.4 283.8
L 114.85 199.6
Q -14.593359375 107.877734375 -214.4 85.5 -285.766015625 120.536328125 -356 129.5 -40.1150390625 134.496875 129.4 283.8 Z"/>
</g>

<g id="tyrtasfd_copy_0_Layer0_0_FILL">
<path fill="#171717" stroke="none" d="
M 14.95 -60.15
Q 8.45 -60.45 0.2 -60.55 -12.85 -60.7 -22.4 -62 -4.75 159.15 -4.25 387 -4.25 406.63046875 -4.3 426.35 -9.2375 464.32578125 -29.6 506 -41.8416015625 531.1353515625 -44.65 541.9 -46.5158203125 548.9908203125 -44.3 549.85 -38.628125 552.0078125 -7.95 527.95 -3.8 521.9 3.3 479.4
L 18.5 463.75
Q 20.071875 447.1158203125 12.05 429.95
L 28.1 245.15
Q 27.75 219.1 18.2 162.65 22.65 65.25 14.95 -60.15 Z"/>
</g>

<g id="tyrtasfd_0_Layer0_0_FILL">
<path fill="#171717" stroke="none" d="
M 14.95 -60.15
Q 8.45 -60.45 0.2 -60.55 -12.85 -60.7 -22.4 -62 -4.75 159.15 -4.25 387 -4.25 406.63046875 -4.3 426.35 -9.2375 464.32578125 -29.6 506 -41.8416015625 531.1353515625 -44.65 541.9 -46.5158203125 548.9908203125 -44.3 549.85 -38.628125 552.0078125 -7.95 527.95 -3.8 521.9 3.3 479.4
L 18.5 463.75
Q 20.071875 447.1158203125 12.05 429.95
L 28.1 245.15
Q 27.75 219.1 18.2 162.65 22.65 65.25 14.95 -60.15 Z"/>
</g>

<g id="trytjj_0_Layer1_0_FILL">
<path fill="#364D59" stroke="none" d="
M 110.6 229.85
Q 108.6 268.4 77.65 348.35 128.468359375 297.0224609375 151.75 252.3 146.6 177.85 144.05 182.15 127.78203125 206.9728515625 110.6 229.85 Z"/>

<path fill="#587E91" stroke="none" d="
M 42.9 -154.65
L 26.8 -146.5
Q -9.3 -25.937890625 74.8 76 115.3 137.95 110.6 229.85 127.78203125 206.9728515625 144.05 182.15 118.05 98.05 74.45 34.55 27.95 -43.1 42.9 -154.65 Z"/>

<path fill="#405C6A" stroke="none" d="
M 26.8 -146.5
L 8.5 -146.5
Q -14.8982421875 -31.6349609375 45.1 62.65 105.1494140625 156.994921875 96.05 237.55 88.3 306.7 40.85 384.95 60.45 369.6 77.65 348.35 108.6 268.4 110.6 229.85 115.3 137.95 74.8 76 -9.3 -25.937890625 26.8 -146.5 Z"/>
</g>

<g id="trytjj_0_Layer1_1_FILL">
<path fill="#364D59" stroke="none" d="
M -326.1 13.5
Q -363 15.9 -393.35 28.3 -456.9 65.1 -462.75 167.15 -468.35 253.15 -397.55 337.9 -371.05 295.15 -336.25 261.1 -457.65 96.1 -326.1 13.5 Z"/>

<path fill="#587E91" stroke="none" d="
M -157.2 20.05
Q -180.55 28.8 -254.55 17.15 -293 11.25 -326.1 13.5 -457.65 96.1 -336.25 261.1 -290.35 216.1 -229.9 186.3 -52.8 103.8 28.55 -149.75
L -21.55 -158.45
Q -58.7716796875 -0.080859375 -157.2 20.05 Z"/>

<path fill="#405C6A" stroke="none" d="
M 39.75 -149.75
L 28.55 -149.75
Q -52.8 103.8 -229.9 186.3 -290.35 216.1 -336.25 261.1 -371.05 295.15 -397.55 337.9 -394.3 341.7 -390.9 345.6 -384.9 352.35 -378.5 359.15 -350.25 263.85 -221 200.2 -41.55 116.6 39.75 -149.75 Z"/>
</g>

<g id="trytjj_0_Layer1_1_MEMBER_0_FILL">
<path fill="#171717" fill-opacity="0.2" stroke="none" d="
M -151.5 53.2
Q -151.242578125 52.721875 -151 52.2 -157.7560546875 58.7646484375 -160.35 62.65 -164.4693359375 68.8646484375 -160.7 70.9 -157.08671875 74.271484375 -136.05 65.35 -97.1599609375 48.89765625 -73.6 14.25 -114.1587890625 51.555859375 -138.85 62.45 -163.531640625 73.396875 -151.7 53.65
L -151.5 53.2 Z"/>
</g>

<g id="rgfhg_0_Layer13_0_FILL">
<path fill="#362C13" stroke="none" d="
M 71.3 -102.35
L 86.65 -118.45
Q 41.4 -165.9 -6.5 -179.95 -54.45 -193.95 -121.95 -180.45
L -115.45 -147.05
Q -66.45 -165.6 -20.25 -155.45 32.25 -144 71.3 -102.35 Z"/>

<path fill="#10171E" stroke="none" d="
M 41.1 -63.25
L 71.3 -102.35
Q 32.25 -144 -20.25 -155.45 -66.45 -165.6 -115.45 -147.05
L -104.05 -94.65 41.1 -63.25 Z"/>
</g>

<g id="rgfhg_0_Layer12_0_FILL">
<path fill="#193847" stroke="none" d="
M 10.85 18.6
L 28.4 -37.75
Q 5.25 -40.55 -19.1 -44.8 -38.95 -48.2 -59.65 -52.55 -105.6 -78.25 -144.65 -87.45
L -164.9 -44.8
Q -124 -6.05 -82 12.05 -48 19.4 -26.9 21.15 -15.55 22.05 -7.9 21.35 1 20.55 10.85 18.6 Z"/>

<path fill="#997317" stroke="none" d="
M 10.85 42.95
L 10.85 18.6
Q 1 20.55 -7.9 21.35 -15.55 22.05 -26.9 21.15 -48 19.4 -82 12.05 -124 -6.05 -164.9 -44.8
L -195.8 -13.65
Q -142.3 30.6 -86.9 44.2 -59.1 37.8 -29.25 40.85 -8.95 42.95 10.85 42.95
M 144.6 -29.15
L 129.65 -40.8 64.9 -28.8 36.8 38.8
Q 107 23.1 144.6 -29.15 Z"/>
</g>

<g id="rgfhg_0_Layer11_0_FILL">
<path fill="#10171E" stroke="none" d="
M 42.45 -147.4
Q 53.7 -216.6 30.35 -277.05
L -13.95 -264.35 -22.5 -101.65 -16.55 -100.65
Q 25.85 -123.35 42.45 -147.4 Z"/>

<path fill="#362C13" stroke="none" d="
M 41.5 -280.1
L 30.35 -277.05
Q 53.7 -216.6 42.45 -147.4 25.85 -123.35 -16.55 -100.65
L -0.25 -88.6
Q 46.15 -124.65 57.5 -144.25 65.45 -197.35 41.5 -280.1 Z"/>
</g>

<g id="rergf_0_Layer2_0_FILL">
<path fill="#F0BF90" stroke="none" d="
M -33.7 -63.75
Q -37.6650390625 -2.3400390625 -34.7 62.75
L 36.35 65.25
Q 37.6099609375 -5.5 32.6 -63.75
L -33.7 -63.75 Z"/>
</g>

<g id="Mask_rergf_0_1_MASK_0_FILL">
<path fill="#FFFFFF" stroke="none" d="
M -33.7 -63.75
Q -37.6650390625 -2.3400390625 -34.7 62.75
L 36.35 65.25
Q 37.6099609375 -5.5 32.6 -63.75
L -33.7 -63.75 Z"/>
</g>

<g id="rergf_0_Layer1_0_FILL">
<path fill="#D68B67" stroke="none" d="
M -49.45 -72.95
L -40.4 -19.6
Q -2.1541015625 10.6486328125 45.4 31.25
L 54.1 -71.5 -49.45 -72.95 Z"/>
</g>

<g id="rterytf_0_Layer9_0_FILL">
<path fill="#F0BF90" stroke="none" d="
M -30.4 3.15
L -35.35 1.85
Q -34.3216796875 4.769140625 -33.2 8.8 -40.6232421875 12.3568359375 -42.2 0
L -45.3 -0.85
Q -45.081640625 11.0005859375 -38.15 14.75 -32.5 17.75 -30.4 11.7
L -30.4 3.15 Z"/>

<path fill="#D68B67" stroke="none" d="
M -45.3 -2.6
Q -45.319140625 -1.7 -45.3 -0.85
L -42.2 0
Q -40.6232421875 12.3568359375 -33.2 8.8 -34.3216796875 4.769140625 -35.35 1.85
L -30.4 3.15 -30.4 -4.95
Q -34.95 -12.1 -39.65 -12 -43.95 -10.45 -45.3 -2.6 Z"/>
</g>

<g id="rterytf_0_Layer8_0_FILL">
<path fill="#482A1B" stroke="none" d="
M -24.4 22
L -39.25 7.3 -36.8 35.65 8.45 78.55 31.05 27.6 -7.45 24.9 -24.4 22 Z"/>

<path fill="#F0BF90" stroke="none" d="
M -39.25 1.55
L -39.25 7.3 -24.4 22 -7.45 24.9 31.05 27.6
Q 31.671484375 23.9333984375 31.9 18.3 32.26953125 10.1421875 32.25 1.3
L 13.35 9.6 11.85 0.95 7.55 7.7 3.25 11.75 -28.8 -4.5 -39.25 1.55 Z"/>

<path fill="#573523" stroke="none" d="
M 31.4 -27.1
L 31.4 -48.8 -18.25 -60.75 -18.75 -59.5
Q -3.3380859375 -54.8224609375 31.4 -27.1 Z"/>

<path fill="#D68B67" stroke="none" d="
M 32.25 -3.45
Q 32.1109375 -14.7396484375 31.4 -27.1 -3.3380859375 -54.8224609375 -18.75 -59.5 -32.4537109375 -38.380078125 -39.25 -7.85
L -39.25 1.55 -28.8 -4.5 3.25 11.75 7.55 7.7 11.85 0.95 13.35 9.6 32.25 1.3 32.25 -3.45 Z"/>
</g>

<g id="retrf_0_Layer8_0_FILL">
<path fill="#FFFFFF" stroke="none" d="
M 18.35 -3.7
Q 16.55 -5.95 13.9 -5.95 11.25 -5.95 9.25 -3.7 7.4 -1.4 7.3 1.8 7.2 4.95 9 7.2 10.85 9.45 13.45 9.45 16.15 9.45 18 7.2 20 4.95 20.1 1.8 20.15 -1.4 18.35 -3.7 Z"/>
</g>

<g id="Mask_retrf_0_7_MASK_0_FILL">
<path fill="#FFFFFF" stroke="none" d="
M 18.35 -3.7
Q 16.55 -5.95 13.9 -5.95 11.25 -5.95 9.25 -3.7 7.4 -1.4 7.3 1.8 7.2 4.95 9 7.2 10.85 9.45 13.45 9.45 16.15 9.45 18 7.2 20 4.95 20.1 1.8 20.15 -1.4 18.35 -3.7 Z"/>
</g>

<g id="retrf_0_Layer7_0_FILL">
<path fill="#000000" stroke="none" d="
M -2.15 -4.9
Q -4.2 -4.9 -5.65 -3.35 -7.15 -1.75 -7.2 0.5 -7.25 2.7 -5.9 4.25 -4.5 5.85 -2.45 5.85 -0.4 5.85 1.05 4.25 2.55 2.7 2.6 0.5 2.65 -1.75 1.25 -3.35 -0.1 -4.9 -2.15 -4.9 Z"/>
</g>

<g id="retrf_0_Layer5_0_FILL">
<path fill="#000000" stroke="none" d="
M 13.8 -7.1
Q 10.85 -7.15 8.6 -4.25 6.35 -1.4 7.3 2.35 7.9 -1.6 9.55 -3.4 11.25 -5.25 13.7 -5.05 16.15 -4.9 18 -2.95 19.95 -1 20 3.05 21 -1.75 18.85 -4.4 16.75 -7 13.8 -7.1 Z"/>
</g>

<g id="retrf_0_Layer3_0_FILL">
<path fill="#FFFFFF" stroke="none" d="
M -18.1 -7.35
Q -21.65 -7.35 -24.1 -4.95 -26.6 -2.45 -26.7 1 -26.75 4.45 -24.2 6.9 -21.85 9.35 -18.25 9.35 -14.75 9.35 -12.2 6.9 -9.75 4.45 -9.75 1 -9.6 -2.45 -12.05 -4.95 -14.5 -7.35 -18.1 -7.35 Z"/>
</g>

<g id="Mask_retrf_0_2_MASK_0_FILL">
<path fill="#FFFFFF" stroke="none" d="
M -18.1 -7.35
Q -21.65 -7.35 -24.1 -4.95 -26.6 -2.45 -26.7 1 -26.75 4.45 -24.2 6.9 -21.85 9.35 -18.25 9.35 -14.75 9.35 -12.2 6.9 -9.75 4.45 -9.75 1 -9.6 -2.45 -12.05 -4.95 -14.5 -7.35 -18.1 -7.35 Z"/>
</g>

<g id="retrf_0_Layer2_0_FILL">
<path fill="#000000" stroke="none" d="
M -2.15 -4.9
Q -4.2 -4.9 -5.65 -3.35 -7.15 -1.75 -7.2 0.5 -7.25 2.7 -5.9 4.25 -4.5 5.85 -2.45 5.85 -0.4 5.85 1.05 4.25 2.55 2.7 2.6 0.5 2.65 -1.75 1.25 -3.35 -0.1 -4.9 -2.15 -4.9 Z"/>
</g>

<g id="retrf_0_Layer0_0_FILL">
<path fill="#000000" stroke="none" d="
M -11.15 -5.6
Q -13.9 -8.65 -17.8 -8.65 -21.8 -8.55 -24.8 -5.7 -27.75 -2.8 -26.65 2.35 -26.35 -2 -23.75 -4.1 -21.15 -6.25 -17.8 -6.4 -14.5 -6.65 -12.45 -4.6 -10.35 -2.65 -9.75 1.65 -8.3 -2.45 -11.15 -5.6 Z"/>
</g>

<g id="rterytf_0_Layer5_0_FILL">
<path fill="#261309" stroke="none" d="
M 37.3 27.1
Q 23.5541015625 25.12578125 10.35 19 -8.2634765625 20.81875 -31.25 19.45 -11.7837890625 34.02734375 10 29.45 24.9865234375 36.4447265625 37.3 27.1 Z"/>
</g>

<g id="rterytf_0_Layer5_1_FILL">
<path fill="#F0BF90" stroke="none" d="
M 12.35 3.65
L 2.1 11.05 0.1 19.4 16.35 27.1 12.35 3.65 Z"/>

<path fill="#D68B67" stroke="none" d="
M 13.4 -14.7
L 7.1 -9.9 2.1 11.05 12.35 3.65 11.05 -4.1 13.4 -14.7 Z"/>
</g>

<g id="rterytf_0_Layer4_0_FILL">
<path fill="#675152" stroke="none" d="
M 25.65 -38.95
Q 25.9 -38.4 26.15 -37.85 42.578125 -21.33828125 79.8 -37.05
L 56.1 -37.05
Q 56.0396484375 -67.8107421875 42.4 -84.55 16.0376953125 -96.93671875 -14.05 -80.8
L -20.35 -65.1
Q 9.4 -74.85 25.65 -38.95 Z"/>

<path fill="#573523" stroke="none" d="
M 2.95 -31.25
Q 15.29375 -17.5859375 32.05 -12.25 55.208984375 -14.4576171875 79.8 -37.05 42.578125 -21.33828125 26.15 -37.85 25.9 -38.4 25.65 -38.95 9.4 -74.85 -20.35 -65.1
L -32.9 -33.6 -18.85 -50.55
Q -9.966015625 -46.13359375 2.95 -31.25 Z"/>
</g>

<g id="rterytf_0_Layer3_0_FILL">
<path fill="#402313" stroke="none" d="
M 11.25 -12.85
Q 19.8546875 -26.3017578125 31.65 -17.4 28.766015625 -27.6626953125 21.3 -31.8 10.788671875 -29.1357421875 11.25 -12.85 Z"/>
</g>

<g id="rterytf_0_Layer2_0_FILL">
<path fill="#402313" stroke="none" d="
M -29.75 -18.55
Q -12.483984375 -31.626171875 -0.7 -15.25 -2.9 -26.9 -6.3 -31.2 -11.15 -35.3 -17.55 -34.85 -26.3671875 -29.4107421875 -29.75 -18.55 Z"/>
</g>

<g id="rgfhg_0_Layer8_0_FILL">
<path fill="#487082" stroke="none" d="
M 87.15 -70.8
L 39.95 -92.8
Q 18.15 -50.9 -77.35 -116.55
L -145.55 -97
Q -123.05 10.85 -33.3 73.7
L 37.05 73.7
Q 83.25 11.15 87.15 -70.8 Z"/>
</g>

<g id="rgfhg_0_Layer7_0_FILL">
<path fill="#3E6576" stroke="none" d="
M -99.65 -112.75
L -106.2 -106.65
Q -97.6 -56.45 -69.5 -31.6 -59.8 -38.35 -51.85 -41.05 -43.95 -43.8 -41.05 -43.75
L -39.05 -48.3
Q -53.35 -46.9 -68.65 -38.65 -96.15 -61.85 -99.65 -112.75
M 16.95 70.7
L 23.55 70.7 37.45 18.55
Q -14.2 10 -49.2 -18.7 -50.25 -19.6 -51.3 -20.5
L -51.45 -14.55
Q -20.9 10.05 30.55 22.25
L 16.95 70.7
M 56.05 -16.05
Q 55.4 -16.6 54.7 -17.2 51.75 -9 44 -0.25
L 40.75 9.15
Q 54.05 -6.3 56.65 -15.55 56.35 -15.8 56.05 -16.05
M 65.6 -51.05
Q 65.4 -62.6 59.5 -76.4 62.5 -60.85 62.35 -49.1 62.25 -41.15 60.7 -35
L 37.75 -35
Q 39.15 -33.75 40.45 -32.6 41.35 -31.8 42.3 -31
L 61.9 -31
Q 65.75 -39.55 65.6 -51.05 Z"/>

<path fill="#ACBFB8" stroke="none" d="
M -73.9 -116.9
L -77.3 -116.45
Q -75.35 -112.4 -73.15 -108.4 -53.25 -81.55 -19.2 -59.95 -16.45 -67.6 -8.9 -80 -10.75 -81.9 -12.7 -83.5 -16.55 -76.85 -19.95 -67.4 -51.55 -87.45 -73.9 -116.9
M 37.35 -94.25
Q 37.3 -77.35 29.95 -61.2 24.2 -72.2 19.2 -79.5 17.75 -77.55 16.65 -75.1 24.95 -64.75 30.7 -53.75 38.05 -69.9 38.2 -86.8 37.85 -90.45 37.35 -94.25 Z"/>

<path fill="#D8E6E1" stroke="none" d="
M 2.7 -27.65
Q 0.9 -48.4 2.7 -63 -2.2 -73.1 -8.9 -80 -16.45 -67.6 -19.2 -59.95 -53.25 -81.55 -73.15 -108.4 -50.1 -66.75 2.7 -27.65
M 38.2 -86.8
Q 38.05 -69.9 30.7 -53.75 24.95 -64.75 16.65 -75.1 14.1 -69.55 13.35 -61.7 25.3 -43 31.05 -28.65 41.35 -52.05 38.2 -86.8
M 29.95 -61.2
Q 37.3 -77.35 37.35 -94.25
L 16.95 -108.8
Q -2 -82 -32 -122.8
L -73.9 -116.9
Q -51.55 -87.45 -19.95 -67.4 -16.55 -76.85 -12.7 -83.5 -8.6 -90.8 -3.95 -94.8
L 8.5 -91.5
Q 13.35 -88 19.2 -79.5 24.2 -72.2 29.95 -61.2 Z"/>

<path fill="#224C5F" stroke="none" d="
M 22.35 -13.9
Q 12.05 -20.75 2.7 -27.65 -50.1 -66.75 -73.15 -108.4 -75.35 -112.4 -77.3 -116.45
L -99.65 -112.75
Q -96.15 -61.85 -68.65 -38.65 -53.35 -46.9 -39.05 -48.3
L -41.05 -43.75 -51.3 -20.5
Q -50.25 -19.6 -49.2 -18.7 -14.2 10 37.45 18.55
L 40.75 9.15 44 -0.25
Q 32.7 -7.05 22.35 -13.9
M 59.35 -77.2
Q 58.65 -80.75 57.8 -84.5
L 37.35 -94.25
Q 37.85 -90.45 38.2 -86.8 41.35 -52.05 31.05 -28.65 27.45 -20.6 22.35 -13.9 32.7 -7.05 44 -0.25 51.75 -9 54.7 -17.2 54.8 -17.45 54.85 -17.65 55.2 -18.6 55.45 -19.55 50.1 -24.1 42.3 -31 41.35 -31.8 40.45 -32.6 39.15 -33.75 37.75 -35
L 60.7 -35
Q 62.25 -41.15 62.35 -49.1 62.5 -60.85 59.5 -76.4 59.4 -76.8 59.35 -77.2 Z"/>

<path fill="#16292A" stroke="none" d="
M 13.35 -61.7
Q 14.1 -69.55 16.65 -75.1 17.75 -77.55 19.2 -79.5 13.35 -88 8.5 -91.5
L -3.95 -94.8
Q -8.6 -90.8 -12.7 -83.5 -10.75 -81.9 -8.9 -80 -2.2 -73.1 2.7 -63 0.9 -48.4 2.7 -27.65 12.05 -20.75 22.35 -13.9 27.45 -20.6 31.05 -28.65 25.3 -43 13.35 -61.7 Z"/>
</g>

<g id="rgfhg_0_Layer6_0_FILL">
<path fill="#63541E" stroke="none" d="
M -51.35 60.8
Q -46.601953125 73.4990234375 -44 85.85 -42.789453125 91.438671875 -42.05 96.95 -41.090234375 103.9841796875 -40.85 110.9 -40.5818359375 118.11328125 -41.1 125.2 -41.4130859375 129.8517578125 -42.1 134.45 -42.6095703125 138.1201171875 -43.35 141.75 -37.5646484375 143.3779296875 -31.8 144.65 -31.25625 140.8662109375 -30.85 137 -0.2703125 142.30390625 33.7 129.25 -5.49453125 134.26875 -30.1 128.55 -29.551171875 121.0162109375 -29.5 113.3 2.3953125 118.426953125 37.3 105.55 -3.73671875 109.4416015625 -29.7 101.7 -30.0087890625 93.6701171875 -30.85 85.45 10.0025390625 83.658984375 42.9 75.55 2.5060546875 78.3681640625 -32 75.35 -32.8091796875 69.351171875 -33.9 63.25 -42.3486328125 62.20625 -51.35 60.8 Z"/>

<path fill="#7D6B2C" stroke="none" d="
M 37.3 105.55
L 42.9 75.55
Q 10.0025390625 83.658984375 -30.85 85.45 -30.0087890625 93.6701171875 -29.7 101.7 -3.73671875 109.4416015625 37.3 105.55
M 31.15 147.75
L 33.7 129.25
Q -0.2703125 142.30390625 -30.85 137 -31.25625 140.8662109375 -31.8 144.65 -0.6345703125 151.435546875 31.15 147.75
M 33.7 129.25
L 37.3 105.55
Q 2.3953125 118.426953125 -29.5 113.3 -29.551171875 121.0162109375 -30.1 128.55 -5.49453125 134.26875 33.7 129.25
M 42.9 75.55
L 45.35 62.4
Q 13.3853515625 69.0953125 -33.9 63.25 -32.8091796875 69.351171875 -32 75.35 2.5060546875 78.3681640625 42.9 75.55 Z"/>
</g>

<g id="rgfhg_0_Layer5_0_FILL">
<path fill="#172D38" stroke="none" d="
M 61.7 -61.6
L 57.8 -84.5 16.95 -108.8 -3.05 -94.25 61.7 -61.6
M -89.9 -121.5
L -125.4 -108.75 -63.55 -71.2 -4.65 -94.5 -6.3 -94.8 -12.6 -94.8 -42.5 -94.8 -89.9 -121.5 Z"/>

<path fill="#244859" stroke="none" d="
M -97.35 -190.7
Q -92.35 -173.75 -89.9 -121.5
L -42.5 -94.8 -12.6 -94.8
Q -63.65 -135.35 -69.85 -157.7 -69.6 -172.8 -34.35 -219.75 -15.4 -244.9 15.05 -274 -14.4 -266.8 -42.8 -255.1 -92.7 -207.4 -97.35 -190.7 Z"/>

<path fill="#E9B941" stroke="none" d="
M 41.05 -279.4
Q 27.95 -277.15 15.05 -274 -15.4 -244.9 -34.35 -219.75 -69.6 -172.8 -69.85 -157.7 -63.65 -135.35 -12.6 -94.8
L -6.3 -94.8
Q -48.7 -144.9 -48.85 -159.5 -45.7 -175.8 -12.25 -221.6 8.85 -250.55 41.05 -279.4 Z"/>

<path fill="#AF8828" stroke="none" d="
M 44.05 -279.95
Q 42.55 -279.7 41.05 -279.4 8.85 -250.55 -12.25 -221.6 -45.7 -175.8 -48.85 -159.5 -48.7 -144.9 -6.3 -94.8
L -3.95 -94.8
Q -46.6 -144.6 -46.75 -159.2 -43.6 -175.5 -10.15 -221.3 11.25 -250.65 44.05 -279.95 Z"/>
</g>

<g id="rgfhg_0_Layer5_0_MEMBER_0_FILL">
<path fill="#E9B941" stroke="none" d="
M 12.2 -99.85
Q 20.1 -105.3 29.75 -113.25 10.45 -105.45 -11.35 -102
L -7.2 -96.3
Q 1.75 -96.45 12.2 -99.85 Z"/>

<path fill="#362C13" stroke="none" d="
M 29.75 -113.25
L 15.3 -117.3
Q 5.65 -109.45 -11.35 -102 10.45 -105.45 29.75 -113.25 Z"/>
</g>

<g id="rgfhg_0_Layer5_0_MEMBER_1_FILL">
<path fill="#D6DEE2" stroke="none" d="
M 57.45 -65.05
Q 63.2 -67.75 63.35 -71.4 63.5 -75.05 58 -77.45 52.45 -80 44.5 -79.75 36.55 -79.55 30.8 -76.75 25 -74.05 24.85 -70.4 24.7 -66.75 30.2 -64.3 35.75 -61.85 43.7 -62.1 51.65 -62.3 57.45 -65.05
M 61.7 -71.45
Q 61.55 -68.5 56.25 -66.25 51.1 -64.1 43.85 -63.9 36.55 -63.65 31.55 -65.65 26.45 -67.55 26.6 -70.45 26.75 -73.45 32.05 -75.65 37.1 -77.85 44.45 -78 51.65 -78.2 56.7 -76.3 61.8 -74.35 61.7 -71.45 Z"/>

<path fill="#9EBDCD" stroke="none" d="
M 56.25 -66.25
Q 61.55 -68.5 61.7 -71.45 61.8 -74.35 56.7 -76.3 51.65 -78.2 44.45 -78 37.1 -77.85 32.05 -75.65 26.75 -73.45 26.6 -70.45 26.45 -67.55 31.55 -65.65 36.55 -63.65 43.85 -63.9 51.1 -64.1 56.25 -66.25 Z"/>
</g>

<g id="rgfhg_0_Layer5_0_MEMBER_1_MEMBER_0_FILL">
<path fill="#FFFFFF" stroke="none" d="
M -441.25 6
Q -441.162890625 -2.8625 -435.55 -8.05 -446.71796875 -5.809375 -441.25 6 Z"/>
</g>

<g id="rgfhg_0_Layer5_0_MEMBER_2_FILL">
<path fill="#FCE3A3" stroke="none" d="
M 11.75 -269.95
Q 19.45 -268.75 14.4 -263.2 -40.55 -201.7333984375 -55.35 -164.6 -13.164453125 -230.28515625 10.65 -254.65 34.464453125 -279.01484375 11.75 -269.95 Z"/>
</g>

<g id="rgfhg_0_Layer4_0_FILL">
<path fill="#487082" stroke="none" d="
M -99.4 -95.1
L -155.7 -71.5 -77.85 104.2 -39.65 75.75 -99.4 -95.1 Z"/>
</g>

<g id="rgfhg_0_Layer4_1_FILL">
<path fill="#487082" stroke="none" d="
M 139.45 7.7
L 94.95 3.15 98.9 157.85 133.45 152.9 139.45 7.7 Z"/>
</g>

<g id="rgfhg_0_Layer3_0_FILL">
<path fill="#244859" stroke="none" d="
M -143.45 -105.7
Q -151.8 -102.8 -155.25 -100.55 -169.6 -75.15 -182.6 -42.65 -171.1564453125 -37.752734375 -147.95 -29.4
L -147.95 -29.45 -147.9 -29.45
Q -101.3810546875 -13.1716796875 -55.85 -10.8
L -55.85 -63.1 -43.95 -74.2 -43.95 -74.25 -107.25 -117
Q -131.1857421875 -110.508203125 -143.45 -105.7
M 65.5 -83.35
Q 55.75 -63.95 50.3 -59.55 52.4 -33.55 62.8 -21.1 92.55 -47.85 121.75 -48.45 120 -50.3 118.3 -52.1 111.1 -59.8 105 -67.5 101.45 -72 98.3 -76.45 81.15 -84.95 65.5 -83.35 Z"/>

<path fill="#AA8B3C" stroke="none" d="
M -201.15 -16.55
L -196.1 -12.35
Q -181.5 -6.55 -149.85 4
L -149.85 3.95
Q -88.5689453125 22.4693359375 -26.85 18.7 -26.890625 17.3625 -26.95 16 -86.64140625 19.6126953125 -149.75 1.25 -183.6064453125 -9.7525390625 -201.15 -16.55
M 144.85 -29.05
L 144.85 -33.85
Q 115.4 -34.6 48.1 14.35
L 51.45 17.6
Q 125.4 -37.45 144.85 -29.05 Z"/>

<path fill="#DDB143" stroke="none" d="
M -182.6 -42.65
L -188.75 -45.3 -201.15 -16.55
Q -183.6064453125 -9.7525390625 -149.75 1.25 -86.64140625 19.6126953125 -26.95 16 -26.74765625 16.012109375 -26.55 16 -26.926171875 2.8712890625 -28.65 -10.45 -32.605078125 -41.8595703125 -43.95 -74.2
L -55.85 -63.1 -55.85 -10.8
Q -101.3810546875 -13.1716796875 -147.9 -29.45
L -147.95 -29.45 -147.95 -29.4
Q -171.1564453125 -37.752734375 -182.6 -42.65
M 62.8 -21.1
Q 52.4 -33.55 50.3 -59.55
L 35.85 -47.2
Q 36.45 -6.95 48.1 14.35 115.4 -34.6 144.85 -33.85 134.85 -40.95 126.25 -48.4 124.1 -48.5 121.9 -48.45 121.85 -48.45 121.8 -48.4
L 121.75 -48.45
Q 92.55 -47.85 62.8 -21.1 Z"/>
</g>

<g id="rgfhg_0_Layer2_0_FILL">
<path fill="#DDB143" stroke="none" d="
M -119.2 -180.3
Q -119.45 -164.1 -117.1 -147.35 -88.3 -122 -61.3 -106.45
L -55.25 -78.3
Q -45.8 -73.15 -37.8 -70.5 -35.7 -91.75 -38.25 -111.15 -102.1 -145.95 -119.2 -180.3
M 54.35 -63.75
L 63.75 -87.1 78.15 -97.55 89.2 -118.3
Q 75.9 -104.15 50.2 -102.05
L 38.75 -63.75 54.35 -63.75 Z"/>

<path fill="#244859" stroke="none" d="
M -117.1 -147.35
Q -115.1 -133.4 -111.65 -113.75 -91.75 -98.2 -55.25 -78.3
L -61.3 -106.45
Q -88.3 -122 -117.1 -147.35
M 54.35 -63.75
Q 66.9 -78.45 78.15 -97.55
L 63.75 -87.1 54.35 -63.75 Z"/>
</g>

<g id="rgfhg_0_Layer2_1_FILL">
<path fill="#DDB143" stroke="none" d="
M 203.9 -107.8
Q 203.8 -106.5 203.65 -105.25 214.95 -95.75 227.7 -93.65 231.9 -93 236.15 -93 246.6 -93.3 258.05 -98.15 258.1 -99.4 258.15 -100.7 230.3 -91.8 203.9 -107.8 Z"/>
</g>

<g id="rgfhg_0_Layer2_2_FILL">
<path fill="#D6DEE2" stroke="none" d="
M 21.6 -12.85
Q 21.6 -5.8 25.75 -0.85 29.9 4.15 35.75 4.15 41.6 4.15 45.75 -0.85 49.9 -5.8 49.9 -12.85 49.9 -19.85 45.75 -24.8 41.6 -29.8 35.75 -29.8 29.9 -29.8 25.75 -24.8 21.6 -19.85 21.6 -12.85
M 26.7 -3.25
Q 22.9 -7.2 22.9 -12.85 22.9 -18.45 26.7 -22.4 30.4 -26.4 35.8 -26.4 41.1 -26.4 44.85 -22.4 48.65 -18.45 48.65 -12.85 48.65 -7.2 44.85 -3.25 41.1 0.75 35.8 0.75 30.4 0.75 26.7 -3.25 Z"/>

<path fill="#9EBDCD" stroke="none" d="
M 22.9 -12.85
Q 22.9 -7.2 26.7 -3.25 30.4 0.75 35.8 0.75 41.1 0.75 44.85 -3.25 48.65 -7.2 48.65 -12.85 48.65 -18.45 44.85 -22.4 41.1 -26.4 35.8 -26.4 30.4 -26.4 26.7 -22.4 22.9 -18.45 22.9 -12.85 Z"/>
</g>

<g id="rgfhg_0_Layer2_2_MEMBER_0_FILL">
<path fill="#FFFFFF" stroke="none" d="
M -441.25 6
Q -441.162890625 -2.8625 -435.55 -8.05 -446.71796875 -5.809375 -441.25 6 Z"/>
</g>

<g id="rgfhg_0_Layer2_3_FILL">
<path fill="#D6DEE2" stroke="none" d="
M 69.95 -25.8
Q 74.55 -22.3 79.75 -23.8 84.95 -25.25 87.8 -30.75 90.6 -36.3 89.35 -42.7 88.1 -49.05 83.55 -52.5 78.9 -56.05 73.7 -54.6 68.5 -53.1 65.7 -47.55 62.85 -42 64.1 -35.65 65.35 -29.25 69.95 -25.8
M 79.2 -26.85
Q 74.4 -25.5 70.35 -28.25 66.25 -30.9 65.25 -36 64.25 -41.1 66.95 -45.6 69.55 -50.15 74.35 -51.5 79.1 -52.8 83.1 -50.1 87.2 -47.5 88.2 -42.4 89.2 -37.3 86.5 -32.75 83.95 -28.15 79.2 -26.85 Z"/>

<path fill="#9EBDCD" stroke="none" d="
M 70.35 -28.25
Q 74.4 -25.5 79.2 -26.85 83.95 -28.15 86.5 -32.75 89.2 -37.3 88.2 -42.4 87.2 -47.5 83.1 -50.1 79.1 -52.8 74.35 -51.5 69.55 -50.15 66.95 -45.6 64.25 -41.1 65.25 -36 66.25 -30.9 70.35 -28.25 Z"/>
</g>

<g id="rgfhg_0_Layer2_3_MEMBER_0_FILL">
<path fill="#FFFFFF" stroke="none" d="
M -441.25 6
Q -441.162890625 -2.8625 -435.55 -8.05 -446.71796875 -5.809375 -441.25 6 Z"/>
</g>

<g id="fgfgg_0_Layer1_0_FILL">
<path fill="#C0DCE5" stroke="none" d="
M -109.3 2.9
L -109.3 6.9
Q -78.85 4.65 -48.85 0.15 -51.4 -1.95 -54.6 -3.7 -80.35 1.85 -109.3 2.9
M -43 6.55
Q -43.75 5.45 -44.55 4.4 -75.6 9 -109.3 10.75
L -109.3 12.45
Q -78 15.8 -41.7 14.8 -41.55 10.1 -43 6.55
M -11.3 13.2
Q -10.7 7.2 -12.45 2.95 -13.7 1.05 -15.3 -0.7 -26.95 1.65 -38.95 3.55 -38.2 4.5 -37.5 5.55 -35.95 9.35 -36.25 14.6 -24.05 14.15 -11.3 13.2
M -7.45 -18.95
Q -16.5 -14.95 -26 -11.65 -19.4 -9.25 -14.6 -5.85 -2.9 -8.15 8.8 -10.85 2.55 -15.85 -7.45 -18.95
M -49.45 -4.9
Q -45.95 -3 -43.2 -0.75 -31.6 -2.6 -20.05 -4.8 -24.4 -7.9 -30.35 -10.2 -39.7 -7.25 -49.45 -4.9
M -43.9 -16.95
Q -44.95 -16.7 -46 -16.4 -37.3 -15.2 -30.3 -13.1 -20.15 -16.2 -10.3 -19.75 -16.15 -21.4 -23.2 -22.4 -23.95 -22.5 -24.7 -22.6 -34.45 -19.6 -43.9 -16.95
M -48.6 -14.95
Q -49.5 -15.1 -50.35 -15.2 -58.75 -13 -66.9 -11.05 -59.4 -9.4 -53.5 -6.85 -44.05 -9.1 -34.8 -11.75 -41 -13.7 -48.6 -14.95
M -71.9 -9.95
Q -72.15 -9.9 -72.35 -9.85 -91.35 -5.6 -109.3 -3.1
L -109.3 2.35
Q -83.2 -0.25 -58.65 -5.7 -63.75 -7.95 -70.2 -9.55 -71.05 -9.75 -71.9 -9.95
M 14.95 -4.2
Q 13.95 -5.7 12.75 -7.1 1.6 -4.25 -9.9 -1.8 -8.25 -0.05 -6.95 1.95 -5.1 6.4 -5.85 12.8 4.55 11.9 15.3 10.75 17.35 1.65 14.95 -4.2 Z"/>

<path fill="#B4D4DF" stroke="none" d="
M -48.85 0.15
Q -46.45 2.1 -44.55 4.4 -41.75 3.95 -38.95 3.55 -40.8 1.25 -43.2 -0.75 -46.05 -0.3 -48.85 0.15
M -20.05 -4.8
Q -17.4 -2.9 -15.3 -0.7 -12.6 -1.25 -9.9 -1.8 -12 -3.95 -14.6 -5.85 -17.35 -5.3 -20.05 -4.8
M -7.45 -18.95
Q -5.65 -19.75 -3.9 -20.55 -5.15 -20.9 -6.4 -21.2 -8.35 -20.5 -10.3 -19.75 -8.85 -19.4 -7.45 -18.95
M -30.3 -13.1
Q -32.55 -12.45 -34.8 -11.75 -32.5 -11.05 -30.35 -10.2 -28.2 -10.95 -26 -11.65 -28.1 -12.45 -30.3 -13.1
M -58.65 -5.7
Q -56.55 -4.75 -54.6 -3.7 -52.05 -4.3 -49.45 -4.9 -51.4 -5.95 -53.5 -6.85 -56.1 -6.25 -58.65 -5.7
M 12.75 -7.1
Q 15.35 -7.8 17.95 -8.45 16.2 -10.4 14.05 -12.05 11.4 -11.45 8.8 -10.85 11 -9.1 12.75 -7.1 Z"/>

<path fill="#DCF2F7" stroke="none" d="
M -44.55 4.4
Q -46.45 2.1 -48.85 0.15 -78.85 4.65 -109.3 6.9
L -109.3 10.75
Q -75.6 9 -44.55 4.4
M -15.3 -0.7
Q -17.4 -2.9 -20.05 -4.8 -31.6 -2.6 -43.2 -0.75 -40.8 1.25 -38.95 3.55 -26.95 1.65 -15.3 -0.7
M -30.3 -13.1
Q -28.1 -12.45 -26 -11.65 -16.5 -14.95 -7.45 -18.95 -8.85 -19.4 -10.3 -19.75 -20.15 -16.2 -30.3 -13.1
M -53.5 -6.85
Q -51.4 -5.95 -49.45 -4.9 -39.7 -7.25 -30.35 -10.2 -32.5 -11.05 -34.8 -11.75 -44.05 -9.1 -53.5 -6.85
M -54.6 -3.7
Q -56.55 -4.75 -58.65 -5.7 -83.2 -0.25 -109.3 2.35
L -109.3 2.9
Q -80.35 1.85 -54.6 -3.7
M 12.75 -7.1
Q 11 -9.1 8.8 -10.85 -2.9 -8.15 -14.6 -5.85 -12 -3.95 -9.9 -1.8 1.6 -4.25 12.75 -7.1 Z"/>

<path fill="#80A5B0" stroke="none" d="
M -43.05 23.35
Q -41.85 18.65 -41.7 14.8 -78 15.8 -109.3 12.45
L -109.3 16.55
Q -72.7 22 -43.05 23.35
M -13.6 23.55
Q -11.75 17.85 -11.3 13.2 -24.05 14.15 -36.25 14.6 -36.5 18.65 -37.9 23.55 -25.1 23.95 -13.6 23.55
M 11.85 21.4
Q 14.2 15.6 15.3 10.75 4.55 11.9 -5.85 12.8 -6.45 17.5 -8.45 23.3 -7.25 23.25 -6.1 23.2 3.35 22.6 11.85 21.4 Z"/>

<path fill="#5E808B" stroke="none" d="
M -37.9 23.55
Q -36.5 18.65 -36.25 14.6 -39 14.7 -41.7 14.8 -41.85 18.65 -43.05 23.35 -42.7 23.35 -42.35 23.35 -40.1 23.45 -37.9 23.55
M -5.85 12.8
Q -8.6 13 -11.3 13.2 -11.75 17.85 -13.6 23.55 -13.3 23.5 -12.95 23.5 -10.65 23.4 -8.45 23.3 -6.45 17.5 -5.85 12.8
M 15.3 10.75
Q 14.2 15.6 11.85 21.4 14.6 21 17.25 20.55 19.6 14.9 20.7 10.15 18 10.45 15.3 10.75 Z"/>

<path fill="#A0C2CD" stroke="none" d="
M -37.5 5.55
Q -38.2 4.5 -38.95 3.55 -41.75 3.95 -44.55 4.4 -43.75 5.45 -43 6.55 -41.55 10.1 -41.7 14.8 -39 14.7 -36.25 14.6 -35.95 9.35 -37.5 5.55
M -9.9 -1.8
Q -12.6 -1.25 -15.3 -0.7 -13.7 1.05 -12.45 2.95 -10.7 7.2 -11.3 13.2 -8.6 13 -5.85 12.8 -5.1 6.4 -6.95 1.95 -8.25 -0.05 -9.9 -1.8
M -26 -11.65
Q -28.2 -10.95 -30.35 -10.2 -24.4 -7.9 -20.05 -4.8 -17.35 -5.3 -14.6 -5.85 -19.4 -9.25 -26 -11.65
M -24.7 -22.6
Q -23.95 -22.5 -23.2 -22.4 -16.15 -21.4 -10.3 -19.75 -8.35 -20.5 -6.4 -21.2
L -13.25 -25.65
Q -21.5 -23.65 -22.2 -23.4 -23.45 -23 -24.7 -22.6
M -43.2 -0.75
Q -45.95 -3 -49.45 -4.9 -52.05 -4.3 -54.6 -3.7 -51.4 -1.95 -48.85 0.15 -46.05 -0.3 -43.2 -0.75
M -47.6 -15.95
Q -49 -15.6 -50.35 -15.2 -49.5 -15.1 -48.6 -14.95 -41 -13.7 -34.8 -11.75 -32.55 -12.45 -30.3 -13.1 -37.3 -15.2 -46 -16.4 -46.8 -16.2 -47.6 -15.95
M -66.9 -11.05
Q -68.1 -10.8 -69.2 -10.55 -70.55 -10.25 -71.9 -9.95 -71.05 -9.75 -70.2 -9.55 -63.75 -7.95 -58.65 -5.7 -56.1 -6.25 -53.5 -6.85 -59.4 -9.4 -66.9 -11.05
M 8.8 -10.85
Q 11.4 -11.45 14.05 -12.05 7.2 -17.35 -3.9 -20.55 -5.65 -19.75 -7.45 -18.95 2.55 -15.85 8.8 -10.85
M 12.75 -7.1
Q 13.95 -5.7 14.95 -4.2 17.35 1.65 15.3 10.75 18 10.45 20.7 10.15 22.9 0.8 20.45 -5.2 19.35 -6.9 17.95 -8.45 15.35 -7.8 12.75 -7.1 Z"/>
</g>

<g id="fgfgg_0_Layer0_0_FILL">
<path fill="#E59F79" stroke="none" d="
M -124.3 30.85
Q -125.75 19.05 -132.85 17.65
L -146.1 23.1
Q -152.55 28.1 -158.85 32.25 -159.55 39.45 -162.65 48.3 -156.75 57.55 -157.8 72.2
L -154.15 77.3
Q -149.45 77.15 -145.85 73.75 -144.4 62.75 -148.55 48.3
L -146.8 40.85
Q -134.85 57.1 -130.5 75.4 -125 76.85 -121.35 71.15 -125.1 53.35 -138.3 39.25 -134.65 34.7 -124.3 30.85 Z"/>

<path fill="#F2C191" stroke="none" d="
M -114.25 32.15
Q -99.1541015625 23.5509765625 -93.5 11.05 -94.95 0.1 -109.2 -3.25
L -151.2 11.15
Q -161.966796875 21.605078125 -178.15 31.25 -180.4 48.3 -185.65 65.2 -181.7 66.9 -174.3 64.3 -170.7 52.8 -166.65 37.1 -162.8 34.85 -158.85 32.25 -152.55 28.1 -146.1 23.1
L -132.85 17.65
Q -125.75 19.05 -124.3 30.85 -124.1 32.7 -124 34.85 -122.05 48.75 -113.3 58.45 -105.7 60.3 -100.3 56.25 -109.6 45.8 -114.25 32.15 Z"/>
</g>

<g id="fgfgg_0_Layer0_0_MEMBER_0_FILL">
<path fill="#B86C48" stroke="none" d="
M -135.25 48.55
Q -131.95546875 37.7849609375 -135.3 26.7 -131.7419921875 18.4482421875 -126.5 12.75 -132.60859375 17.9009765625 -136.25 26.5
L -136.35 26.65 -136.3 26.85
Q -132.9943359375 37.6181640625 -136.15 48.1 -138.82265625 50.0462890625 -143.25 49.4
L -142.35 51.35
Q -138.3701171875 51.0525390625 -135.4 48.8
L -135.3 48.7 -135.25 48.55
M -125.05 16
Q -129.1158203125 19.2482421875 -130.8 23.2
L -131.6 26.25
Q -128.419140625 20.1646484375 -125.05 16
M -110.3 23.15
L -109.6 18.2
Q -109.1830078125 7.682421875 -115.3 5.45
L -115.4 5.4 -115.55 5.45 -127.35 8.15 -127.45 8.15 -127.5 8.2
Q -133.574609375 11.498828125 -142.6 15.95
L -139 15
Q -133.1498046875 12.41171875 -127.05 9.1
L -115.5 6.45
Q -110.2220703125 8.642578125 -110.3 23.15 Z"/>
</g>

<g id="asAD_0_Layer1_0_FILL">
<path fill="#5E808B" stroke="none" d="
M 99.5 -47.1
Q 96.8 -46.8 94.1 -46.5 93 -41.65 90.65 -35.85 93.4 -36.25 96.05 -36.7 98.4 -42.35 99.5 -47.1
M 65.2 -33.7
Q 65.5 -33.75 65.85 -33.75 68.15 -33.85 70.35 -33.95 72.35 -39.75 72.95 -44.45 70.2 -44.25 67.5 -44.05 67.05 -39.4 65.2 -33.7
M 37.1 -42.45
Q 36.95 -38.6 35.75 -33.9 36.1 -33.9 36.45 -33.9 38.7 -33.8 40.9 -33.7 42.3 -38.6 42.55 -42.65 39.8 -42.55 37.1 -42.45 Z"/>

<path fill="#B4D4DF" stroke="none" d="
M 91.55 -64.35
Q 94.15 -65.05 96.75 -65.7 95 -67.65 92.85 -69.3 90.2 -68.7 87.6 -68.1 89.8 -66.35 91.55 -64.35
M 39.85 -53.7
Q 38 -56 35.6 -58 32.75 -57.55 29.95 -57.1 32.35 -55.15 34.25 -52.85 37.05 -53.3 39.85 -53.7
M 29.35 -62.15
Q 27.4 -63.2 25.3 -64.1 22.7 -63.5 20.15 -62.95 22.25 -62 24.2 -60.95 26.75 -61.55 29.35 -62.15
M 68.9 -59.05
Q 66.8 -61.2 64.2 -63.1 61.45 -62.55 58.75 -62.05 61.4 -60.15 63.5 -57.95 66.2 -58.5 68.9 -59.05
M 48.45 -67.45
Q 50.6 -68.2 52.8 -68.9 50.7 -69.7 48.5 -70.35 46.25 -69.7 44 -69 46.3 -68.3 48.45 -67.45
M 74.9 -77.8
Q 73.65 -78.15 72.4 -78.45 70.45 -77.75 68.5 -77 69.95 -76.65 71.35 -76.2 73.15 -77 74.9 -77.8 Z"/>

<path fill="#A0C2CD" stroke="none" d="
M 99.25 -62.45
Q 98.15 -64.15 96.75 -65.7 94.15 -65.05 91.55 -64.35 92.75 -62.95 93.75 -61.45 96.15 -55.6 94.1 -46.5 96.8 -46.8 99.5 -47.1 101.7 -56.45 99.25 -62.45
M 39.85 -53.7
Q 37.05 -53.3 34.25 -52.85 35.05 -51.8 35.8 -50.7 37.25 -47.15 37.1 -42.45 39.8 -42.55 42.55 -42.65 42.85 -47.9 41.3 -51.7 40.6 -52.75 39.85 -53.7
M 24.2 -60.95
Q 27.4 -59.2 29.95 -57.1 32.75 -57.55 35.6 -58 32.85 -60.25 29.35 -62.15 26.75 -61.55 24.2 -60.95
M 8.6 -66.8
Q 15.05 -65.2 20.15 -62.95 22.7 -63.5 25.3 -64.1 19.4 -66.65 11.9 -68.3 10.7 -68.05 9.6 -67.8 8.25 -67.5 6.9 -67.2 7.75 -67 8.6 -66.8
M 68.9 -59.05
Q 66.2 -58.5 63.5 -57.95 65.1 -56.2 66.35 -54.3 68.1 -50.05 67.5 -44.05 70.2 -44.25 72.95 -44.45 73.7 -50.85 71.85 -55.3 70.55 -57.3 68.9 -59.05
M 44 -69
Q 46.25 -69.7 48.5 -70.35 41.5 -72.45 32.8 -73.65 32 -73.45 31.2 -73.2 29.8 -72.85 28.45 -72.45 29.3 -72.35 30.2 -72.2 37.8 -70.95 44 -69
M 52.8 -68.9
Q 50.6 -68.2 48.45 -67.45 54.4 -65.15 58.75 -62.05 61.45 -62.55 64.2 -63.1 59.4 -66.5 52.8 -68.9
M 68.5 -77
Q 70.45 -77.75 72.4 -78.45 65.85 -80.1 57.95 -81.1 57.3 -80.9 56.6 -80.65 55.35 -80.25 54.1 -79.85 54.85 -79.75 55.6 -79.65 62.65 -78.65 68.5 -77
M 74.9 -77.8
Q 73.15 -77 71.35 -76.2 81.35 -73.1 87.6 -68.1 90.2 -68.7 92.85 -69.3 86 -74.6 74.9 -77.8 Z"/>

<path fill="#80A5B0" stroke="none" d="
M 70.35 -33.95
Q 71.55 -34 72.7 -34.05 82.15 -34.65 90.65 -35.85 93 -41.65 94.1 -46.5 83.35 -45.35 72.95 -44.45 72.35 -39.75 70.35 -33.95
M 65.2 -33.7
Q 67.05 -39.4 67.5 -44.05 54.75 -43.1 42.55 -42.65 42.3 -38.6 40.9 -33.7 53.7 -33.3 65.2 -33.7
M 35.75 -33.9
Q 36.95 -38.6 37.1 -42.45 0.8 -41.45 -30.5 -44.8
L -30.5 -40.7
Q 6.1 -35.25 35.75 -33.9 Z"/>

<path fill="#DCF2F7" stroke="none" d="
M 24.2 -60.95
Q 22.25 -62 20.15 -62.95 -4.4 -57.5 -30.5 -54.9
L -30.5 -54.35
Q -1.55 -55.4 24.2 -60.95
M 34.25 -52.85
Q 32.35 -55.15 29.95 -57.1 -0.05 -52.6 -30.5 -50.35
L -30.5 -46.5
Q 3.2 -48.25 34.25 -52.85
M 63.5 -57.95
Q 61.4 -60.15 58.75 -62.05 47.2 -59.85 35.6 -58 38 -56 39.85 -53.7 51.85 -55.6 63.5 -57.95
M 64.2 -63.1
Q 66.8 -61.2 68.9 -59.05 80.4 -61.5 91.55 -64.35 89.8 -66.35 87.6 -68.1 75.9 -65.4 64.2 -63.1
M 48.45 -67.45
Q 46.3 -68.3 44 -69 34.75 -66.35 25.3 -64.1 27.4 -63.2 29.35 -62.15 39.1 -64.5 48.45 -67.45
M 71.35 -76.2
Q 69.95 -76.65 68.5 -77 58.65 -73.45 48.5 -70.35 50.7 -69.7 52.8 -68.9 62.3 -72.2 71.35 -76.2 Z"/>

<path fill="#C0DCE5" stroke="none" d="
M 35.8 -50.7
Q 35.05 -51.8 34.25 -52.85 3.2 -48.25 -30.5 -46.5
L -30.5 -44.8
Q 0.8 -41.45 37.1 -42.45 37.25 -47.15 35.8 -50.7
M 29.95 -57.1
Q 27.4 -59.2 24.2 -60.95 -1.55 -55.4 -30.5 -54.35
L -30.5 -50.35
Q -0.05 -52.6 29.95 -57.1
M 30.2 -72.2
Q 29.3 -72.35 28.45 -72.45 20.05 -70.25 11.9 -68.3 19.4 -66.65 25.3 -64.1 34.75 -66.35 44 -69 37.8 -70.95 30.2 -72.2
M 20.15 -62.95
Q 15.05 -65.2 8.6 -66.8 7.75 -67 6.9 -67.2 6.65 -67.15 6.45 -67.1 -12.55 -62.85 -30.5 -60.35
L -30.5 -54.9
Q -4.4 -57.5 20.15 -62.95
M 71.35 -76.2
Q 62.3 -72.2 52.8 -68.9 59.4 -66.5 64.2 -63.1 75.9 -65.4 87.6 -68.1 81.35 -73.1 71.35 -76.2
M 66.35 -54.3
Q 65.1 -56.2 63.5 -57.95 51.85 -55.6 39.85 -53.7 40.6 -52.75 41.3 -51.7 42.85 -47.9 42.55 -42.65 54.75 -43.1 67.5 -44.05 68.1 -50.05 66.35 -54.3
M 68.9 -59.05
Q 70.55 -57.3 71.85 -55.3 73.7 -50.85 72.95 -44.45 83.35 -45.35 94.1 -46.5 96.15 -55.6 93.75 -61.45 92.75 -62.95 91.55 -64.35 80.4 -61.5 68.9 -59.05
M 58.75 -62.05
Q 54.4 -65.15 48.45 -67.45 39.1 -64.5 29.35 -62.15 32.85 -60.25 35.6 -58 47.2 -59.85 58.75 -62.05
M 55.6 -79.65
Q 54.85 -79.75 54.1 -79.85 44.35 -76.85 34.9 -74.2 33.85 -73.95 32.8 -73.65 41.5 -72.45 48.5 -70.35 58.65 -73.45 68.5 -77 62.65 -78.65 55.6 -79.65 Z"/>
</g>

<g id="asAD_0_Layer0_0_FILL">
<path fill="#D68B67" stroke="none" d="
M 41.6 -5.35
L 41.05 -5.8
Q 46.2 -1.75 52.2 1.95 63.55 8.9 77.8 14.3 88.8 8.2 88.05 1
L 88 1 78.2 9.15
Q 54.95 0.55 32.05 -16.4 15.3 12.85 8.8 8.5 13.2 14.95 23.1 13.9 33.6 6.8 41.6 -5.35
M 49.95 -39.15
Q 51.9 -38.6 53.95 -38.05 54.85 -37.8 55.75 -37.55 61.2 -36.2 66.75 -35.2 85.9 -31.85 105.85 -33.4
L 106.8 -46
Q 106.75 -46 106.7 -45.95
L 101.95 -36.3
Q 76.5 -34.2 49.95 -39.15
M 63.35 -28.3
Q 66.2 -27.65 69 -27.05 91 -22.7 108.75 -25.55
L 101.4 -14.4
Q 75.1 -12.25 43.1 -20.65 45.3 -18.3 48.55 -16.2 85.3 -7.5 101.9 -6.3
L 109.45 -12.95 112.95 -34.1 112.9 -34.1 108.65 -27.5
Q 78.4 -24.8 47.5 -32.75 54.05 -30.65 60.3 -29.05 61.8 -28.65 63.35 -28.3 Z"/>

<path fill="#F2C191" stroke="none" d="
M 69 -27.05
Q 66.2 -27.65 63.35 -28.3 61.8 -28.65 60.3 -29.05 54.05 -30.65 47.5 -32.75 78.4 -24.8 108.65 -27.5
L 112.9 -34.1
Q 109.35 -33.65 105.85 -33.4 85.9 -31.85 66.75 -35.2 61.2 -36.2 55.75 -37.55 54.85 -37.8 53.95 -38.05 51.9 -38.6 49.95 -39.15 76.5 -34.2 101.95 -36.3
L 106.7 -45.95
Q 70.15 -40.1 40.25 -54.4 26 -26.85 9.95 -4.9
L 8.8 8.5
Q 15.3 12.85 32.05 -16.4 54.95 0.55 78.2 9.15
L 88 1
Q 73.55 -3.1 60.85 -9.35 54.45 -12.5 48.55 -16.2 45.3 -18.3 43.1 -20.65 75.1 -12.25 101.4 -14.4
L 108.75 -25.55
Q 91 -22.7 69 -27.05 Z"/>
</g>

<g id="dfggg_0_Layer1_0_FILL">
<path fill="#382921" stroke="none" d="
M 467.55 -21.9
L 467.55 -21.85 496.1 -81 491.35 -84.15 467.55 -21.9
M 375.45 -46.95
L 372.5 -47.75 273.25 19.65 263.5 26.25 263.5 29.95 372.75 -43.9 464.85 -22.5 458 -24.4 454.25 -25.4 375.45 -46.95 Z"/>

<path fill="#574339" stroke="none" d="
M 467.45 -21.8
L 467.55 -21.85 467.55 -21.9 464.85 -22.5 372.75 -43.9 263.5 29.95 360.5 40.7 467.45 -21.8
M 373.8 -34.25
L 452.9 -17.95 357.2 31.65 283.05 25.15 373.8 -34.25 Z"/>

<path fill="#695348" stroke="none" d="
M 452.9 -17.95
L 373.8 -34.25 283.05 25.15 357.2 31.65 452.9 -17.95 Z"/>

<path fill="#DACFA2" stroke="none" d="
M 454.05 -34.55
Q 454.5 -36 455.55 -36.3 432.4 -59.2 410.9 -76.55
L 403.95 -73.3 454.05 -34.55
M 440.3 -79.7
L 435.75 -75.75 455.6 -36.3
Q 456.5 -36.55 457.75 -36.05 449.6 -59.3 440.3 -79.7
M 457.75 -78.65
L 451.75 -75.6 457.75 -36.05
Q 456.65 -57.15 457.75 -78.65
M 387 -72.25
L 384.15 -69.7
Q 406.55 -58.3 429.15 -47.75 440.05 -42.65 452.95 -35.2 420.4 -55.95 387 -72.25 Z"/>

<path fill="#999278" stroke="none" d="
M 454.05 -34.55
L 454 -34.5
Q 453.15 -31.85 454.25 -25.4
L 458 -24.4 464 -31.35
Q 460.15 -35.05 457.75 -36.05 456.5 -36.55 455.6 -36.3
L 455.55 -36.3
Q 454.5 -36 454.05 -34.55 Z"/>

<path fill="#CDC6AD" stroke="none" d="
M 481.35 -76.35
L 479.75 -77.35 464.25 -86.9 457.75 -36.05
Q 460.15 -35.05 464 -31.35
L 481.35 -76.35
M 384.15 -69.7
Q 380.65 -71.5 377.15 -73.3 375.3 -61.4 375.45 -46.95
L 454.25 -25.4
Q 453.15 -31.85 454 -34.5
L 454.05 -34.55
Q 453.45 -34.85 452.95 -35.2 440.05 -42.65 429.15 -47.75 406.55 -58.3 384.15 -69.7 Z"/>

<path fill="#7A655B" stroke="none" d="
M 479.75 -77.35
L 481.35 -76.35 464 -31.35 458 -24.4 464.85 -22.5 467.55 -21.9 491.35 -84.15 479.75 -77.35 Z"/>

<path fill="#B1AB96" stroke="none" d="
M 372.5 -47.75
L 375.45 -46.95
Q 375.3 -61.4 377.15 -73.3 328.9 -31.55 278.8 4.05
L 273.25 19.65 372.5 -47.75 Z"/>

<path fill="#EFE8CE" stroke="none" d="
M 395.45 -79.85
L 387 -72.25
Q 420.4 -55.95 452.95 -35.2 453.45 -34.85 454.05 -34.55
L 403.95 -73.3 410.9 -76.55
Q 432.4 -59.2 455.55 -36.3
L 455.6 -36.3 435.75 -75.75 440.3 -79.7
Q 449.6 -59.3 457.75 -36.05
L 451.75 -75.6 457.75 -78.65
Q 456.65 -57.15 457.75 -36.05
L 464.25 -86.9 451.5 -77.25 448.8 -95.1 434.95 -77.35 426.3 -94.45 402.45 -74.45 395.45 -79.85 Z"/>
</g>

<g id="rte_0_Layer0_0_FILL">
<path fill="#3DBCDB" stroke="none" d="
M -62 216.45
L 62 216.45
Q 59.8185546875 -105.490234375 -3.35 -129.3 -65.3892578125 -125.9080078125 -62 216.45 Z"/>
</g>

<g id="thrhghj_0_Layer3_0_FILL">
<path fill="#000000" stroke="none" d="
M 423.45 283.05
Q 421.05 286.55 420.25 291.8 419.45 297.1 422 301.75 424.55 306.4 431.1 307.95 437.7 309.55 442.1 305 446.5 300.5 445.55 294.45 444.65 288.4 440.1 284.8 435.6 281.2 430.75 280.4 425.9 279.6 423.45 283.05
M 440.45 288.55
Q 443.6 291.75 443.6 296.2 443.6 300.65 440.45 303.8 437.3 307 432.85 307 428.4 307 425.25 303.8 422.1 300.65 422.1 296.2 422.1 291.75 425.25 288.55 428.4 285.4 432.85 285.4 437.3 285.4 440.45 288.55 Z"/>

<path fill="#4FBED9" stroke="none" d="
M 443.6 296.2
Q 443.6 291.75 440.45 288.55 437.3 285.4 432.85 285.4 428.4 285.4 425.25 288.55 422.1 291.75 422.1 296.2 422.1 300.65 425.25 303.8 428.4 307 432.85 307 437.3 307 440.45 303.8 443.6 300.65 443.6 296.2 Z"/>
</g>

<g id="thrhghj_0_Layer3_1_FILL">
<path fill="#000000" stroke="none" d="
M 409.5 238.7
Q 407.865625 240.672265625 407.05 243.85 406.2466796875 247.028515625 407.95 251.4 409.698046875 255.815625 415.6 257.55 421.498828125 259.292578125 425 255.75 428.54765625 252.2462890625 428.3 247.6 428.056640625 242.962109375 424.45 239.5 420.889453125 236.08125 416 236.4 411.1689453125 236.7736328125 409.5 238.7
M 417.55 239.7
Q 421 239.7 423.4 242.15 425.85 244.6 425.85 248.05 425.85 251.5 423.4 253.95 421 256.4 417.55 256.4 414.1 256.4 411.65 253.95 409.25 251.5 409.25 248.05 409.25 244.6 411.65 242.15 414.1 239.7 417.55 239.7 Z"/>

<path fill="#4FBED9" stroke="none" d="
M 423.4 242.15
Q 421 239.7 417.55 239.7 414.1 239.7 411.65 242.15 409.25 244.6 409.25 248.05 409.25 251.5 411.65 253.95 414.1 256.4 417.55 256.4 421 256.4 423.4 253.95 425.85 251.5 425.85 248.05 425.85 244.6 423.4 242.15 Z"/>
</g>

<g id="thrhghj_0_Layer3_2_FILL">
<path fill="#000000" stroke="none" d="
M 399.1 229.8
Q 398.4482421875 226.0240234375 396.75 224.25 395.0505859375 222.4822265625 391.55 222 388.0962890625 221.50703125 386.5 223.8 384.958984375 226.1478515625 385.1 228.65 385.237890625 231.1484375 386.3 233.3 387.4111328125 235.5025390625 391.05 236.6 394.7416015625 237.6908203125 397.25 235.65 399.759765625 233.61796875 399.1 229.8
M 396.3 226.45
Q 397.9 228.05 397.9 230.3 397.9 232.55 396.3 234.15 394.75 235.75 392.5 235.75 390.25 235.75 388.65 234.15 387.1 232.55 387.1 230.3 387.1 228.05 388.65 226.45 390.25 224.85 392.5 224.85 394.75 224.85 396.3 226.45 Z"/>

<path fill="#4FBED9" stroke="none" d="
M 397.9 230.3
Q 397.9 228.05 396.3 226.45 394.75 224.85 392.5 224.85 390.25 224.85 388.65 226.45 387.1 228.05 387.1 230.3 387.1 232.55 388.65 234.15 390.25 235.75 392.5 235.75 394.75 235.75 396.3 234.15 397.9 232.55 397.9 230.3 Z"/>
</g>

<g id="thrhghj_0_Layer3_3_FILL">
<path fill="#000000" stroke="none" d="
M 417.7 146.6
Q 417.5 146 416.25 147.6 415 149.25 416.15 153.15 417.35 157.05 420.2 158.5 423.05 160 425.5 158.05 427.95 156.15 427.95 153.05 427.95 149.95 426 148.55 424.1 147.2 421 147.2 417.9 147.2 417.7 146.6
M 425.6 150.65
Q 426.9 151.95 426.9 153.75 426.9 155.55 425.6 156.8 424.35 158.1 422.55 158.1 420.75 158.1 419.45 156.8 418.2 155.55 418.2 153.75 418.2 151.95 419.45 150.65 420.75 149.4 422.55 149.4 424.35 149.4 425.6 150.65 Z"/>

<path fill="#4FBED9" stroke="none" d="
M 426.9 153.75
Q 426.9 151.95 425.6 150.65 424.35 149.4 422.55 149.4 420.75 149.4 419.45 150.65 418.2 151.95 418.2 153.75 418.2 155.55 419.45 156.8 420.75 158.1 422.55 158.1 424.35 158.1 425.6 156.8 426.9 155.55 426.9 153.75 Z"/>
</g>

<g id="thrhghj_0_Layer3_4_FILL">
<path fill="#000000" stroke="none" d="
M 537.65 132.85
Q 535.15 129.2 531.55 129.2 527.95 129.2 525.4 132.85 522.9 136.5 522.5 140.3 522.1 144.15 524.5 147 526.9 149.85 530.9 151.15 534.9 152.5 537.55 149.65 540.2 146.8 540.2 141.65 540.2 136.5 537.65 132.85
M 536.35 136
Q 538.5 139.05 538.5 142.55 538.5 146.05 536.35 148 534.25 150 532.05 150 529.85 150 527.85 148.05 525.9 146.1 524.7 142.85 523.5 139.6 525.45 136.55 527.45 133.5 530.85 133.25 534.25 133 536.35 136 Z"/>

<path fill="#4FBED9" stroke="none" d="
M 538.5 142.55
Q 538.5 139.05 536.35 136 534.25 133 530.85 133.25 527.45 133.5 525.45 136.55 523.5 139.6 524.7 142.85 525.9 146.1 527.85 148.05 529.85 150 532.05 150 534.25 150 536.35 148 538.5 146.05 538.5 142.55 Z"/>
</g>

<g id="thrhghj_0_Layer3_5_FILL">
<path fill="#000000" stroke="none" d="
M 573.4 190.1
Q 572.7576171875 192.057421875 570.75 195.4 568.79921875 198.74453125 570.4 202.2 572.048828125 205.7013671875 575.15 206.2 578.3 206.7498046875 579.9 204.45 581.55 202.2 581.55 198.6 581.5498046875 194.9986328125 579.9 192.15 578.3005859375 189.35390625 576.2 188.75 574.0923828125 188.191796875 573.4 190.1
M 575.7 192.75
Q 577.1 192.75 578.75 194.7 580.45 196.7 580.45 198.95 580.45 201.2 579.45 202.6 578.45 204.05 576.65 204.95 574.85 205.9 573.15 204.05 571.5 202.25 571.9 199.05 572.3 195.9 573.3 194.3 574.3 192.75 575.7 192.75 Z"/>

<path fill="#4FBED9" stroke="none" d="
M 578.75 194.7
Q 577.1 192.75 575.7 192.75 574.3 192.75 573.3 194.3 572.3 195.9 571.9 199.05 571.5 202.25 573.15 204.05 574.85 205.9 576.65 204.95 578.45 204.05 579.45 202.6 580.45 201.2 580.45 198.95 580.45 196.7 578.75 194.7 Z"/>
</g>

<g id="thrhghj_0_Layer3_6_FILL">
<path fill="#000000" stroke="none" d="
M 539.4 218.25
Q 537.903515625 216.5998046875 535.05 215.3 532.195703125 214.0474609375 529.35 215.05 526.5544921875 216.05625 523.55 222 520.5458984375 227.937890625 523.25 232.4 526.001953125 236.904296875 531.55 237.95 537.0998046875 239.0498046875 540.6 234.35 544.15078125 229.7 542.55 224.8 540.947265625 219.9001953125 539.4 218.25
M 532.8 220.15
Q 536.3 220.15 538.75 222.65 541.25 225.15 541.25 228.65 541.25 232.15 538.75 234.65 536.3 237.15 532.8 237.15 529.3 237.15 526.8 234.65 524.35 232.15 524.35 228.65 524.35 225.15 526.8 222.65 529.3 220.15 532.8 220.15 Z"/>

<path fill="#4FBED9" stroke="none" d="
M 538.75 222.65
Q 536.3 220.15 532.8 220.15 529.3 220.15 526.8 222.65 524.35 225.15 524.35 228.65 524.35 232.15 526.8 234.65 529.3 237.15 532.8 237.15 536.3 237.15 538.75 234.65 541.25 232.15 541.25 228.65 541.25 225.15 538.75 222.65 Z"/>
</g>

<g id="thrhghj_0_Layer3_7_FILL">
<path fill="#000000" stroke="none" d="
M 470.15 254.3
Q 468.55 255.8 468 258.85 467.5 261.95 469.1 265.25 470.7 268.6 474.95 269.25 479.25 269.95 481.65 267 484.05 264.1 483.25 260.45 482.45 256.85 480.05 254.95 477.65 253.1 474.7 252.95 471.75 252.85 470.15 254.3
M 476.15 256.55
Q 478.55 256.55 480.25 258.25 482 260 482 262.45 482 264.9 480.25 266.6 478.55 268.35 476.15 268.35 473.75 268.35 472 266.6 470.3 264.9 470.3 262.45 470.3 260 472 258.25 473.75 256.55 476.15 256.55 Z"/>

<path fill="#4FBED9" stroke="none" d="
M 480.25 258.25
Q 478.55 256.55 476.15 256.55 473.75 256.55 472 258.25 470.3 260 470.3 262.45 470.3 264.9 472 266.6 473.75 268.35 476.15 268.35 478.55 268.35 480.25 266.6 482 264.9 482 262.45 482 260 480.25 258.25 Z"/>
</g>

<g id="thrhghj_0_Layer3_8_FILL">
<path fill="#000000" stroke="none" d="
M 573.35 290.45
Q 574.95 287.7 574.4 284 573.85 280.3 571.7 278.55 569.6 276.85 567.5 277 565.4 277.15 564.3 278.3 563.25 279.5 563.25 283.05 563.25 286.6 564.85 289.9 566.45 293.2 569.1 293.2 571.75 293.2 573.35 290.45
M 572 280.45
Q 573.15 282.15 573.15 284.5 573.15 286.85 572.25 289.2 571.4 291.55 569.6 292.35 567.85 293.15 566.4 290.8 565 288.45 565.1 285.3 565.25 282.15 566.4 280.45 567.55 278.8 569.2 278.8 570.85 278.8 572 280.45 Z"/>

<path fill="#4FBED9" stroke="none" d="
M 573.15 284.5
Q 573.15 282.15 572 280.45 570.85 278.8 569.2 278.8 567.55 278.8 566.4 280.45 565.25 282.15 565.1 285.3 565 288.45 566.4 290.8 567.85 293.15 569.6 292.35 571.4 291.55 572.25 289.2 573.15 286.85 573.15 284.5 Z"/>
</g>

<g id="thrhghj_0_Layer3_9_FILL">
<path fill="#000000" stroke="none" d="
M 543.85 290.7
Q 542.6 291.75 542.6 295.1 542.6 298.45 543.3 301.6 544.05 304.75 546.6 304.75 549.15 304.75 551.5 302.9 553.85 301.1 553.85 297.75 553.85 294.4 552.05 292.05 550.25 289.7 547.7 289.7 545.15 289.7 543.85 290.7
M 548.5 290.9
Q 550.95 292 551.95 294.8 552.95 297.65 552.25 299.45 551.6 301.3 550.15 302.4 548.75 303.5 547.5 303.5 546.25 303.5 545.2 302.65 544.2 301.8 543.65 298.9 543.15 296 544.6 292.9 546.05 289.85 548.5 290.9 Z"/>

<path fill="#4FBED9" stroke="none" d="
M 551.95 294.8
Q 550.95 292 548.5 290.9 546.05 289.85 544.6 292.9 543.15 296 543.65 298.9 544.2 301.8 545.2 302.65 546.25 303.5 547.5 303.5 548.75 303.5 550.15 302.4 551.6 301.3 552.25 299.45 552.95 297.65 551.95 294.8 Z"/>
</g>

<g id="thrhghj_0_Layer3_10_FILL">
<path fill="#FFFFFF" stroke="none" d="
M -76.65 -39.9
L -77.05 -39.35
Q -78.05 -37.55 -78.2 -36.55
L -78.25 -35.8
Q -78.4 -35.25 -78.4 -34.95 -78.4 -33.95 -77.55 -33.25 -76.35 -32.2 -74.85 -32.6 -73.55 -32.85 -72.5 -34.35 -71.95 -35.2 -71.75 -35.9 -71.4 -36.65 -71.4 -37.7 -71.4 -38.55 -71.7 -39.4 -72.05 -40.45 -72.85 -40.9 -73.65 -41.35 -75 -41.05 -75.65 -40.8 -75.9 -40.6
L -76.2 -40.25 -76.65 -39.9 Z"/>
</g>

<g id="thrhghj_0_Layer3_11_FILL">
<path fill="#FFFFFF" stroke="none" d="
M -89.05 -87.45
L -89.3 -87.05
Q -89.75 -86.35 -89.8 -85.8 -89.9 -84.95 -89.3 -84.6 -88.8 -84.35 -88.35 -84.6 -87.85 -84.85 -87.7 -85.35 -87.6 -85.7 -87.55 -85.85 -87.45 -86.3 -87.5 -86.55 -87.5 -86.85 -87.8 -87.25 -87.95 -87.45 -88.2 -87.6 -88.65 -87.8 -89.05 -87.45 Z"/>
</g>

<g id="thrhghj_0_Layer3_12_FILL">
<path fill="#FFFFFF" stroke="none" d="
M -109.5 -103.95
Q -110.35 -104.55 -111.3 -104.05 -112.3 -103.55 -112.65 -101.95 -112.9 -100.9 -112.7 -100.05 -112.45 -98.9 -111.55 -98.6 -110.75 -98.25 -109.75 -98.9 -109.15 -99.4 -108.7 -100.45 -108.35 -101.55 -108.45 -102.35 -108.7 -103.45 -109.5 -103.95 Z"/>
</g>

<g id="thrhghj_0_Layer3_13_FILL">
<path fill="#FFFFFF" stroke="none" d="
M -23.2 -71.05
Q -22.85 -72.05 -23.7 -72.8 -24.45 -73.5 -25.55 -73.4 -25.85 -73.4 -26.45 -73.2 -27.4 -72.8 -27.7 -72.2 -28.2 -71.4 -27.8 -70.65 -27.5 -69.95 -26.8 -69.8 -26.15 -69.6 -25.4 -69.65 -24.65 -69.75 -24.1 -70 -23.35 -70.4 -23.2 -71.05 Z"/>
</g>

<g id="thrhghj_0_Layer3_14_FILL">
<path fill="#FFFFFF" stroke="none" d="
M 34.3 -107.8
Q 32.65 -108.25 31.45 -107.35 30.5 -106.55 30.4 -105.2 30.35 -104.1 30.95 -102.8 31.9 -101.1 33.5 -100.45 35.35 -99.75 36.9 -100.7 37.65 -101.15 38.1 -102 38.5 -102.85 38.35 -103.7 38.15 -104.95 36.85 -106.15 35.7 -107.4 34.3 -107.8 Z"/>
</g>

<g id="thrhghj_0_Layer3_15_FILL">
<path fill="#FFFFFF" stroke="none" d="
M 69.55 -48.95
Q 69.1 -49.5 68.45 -49.35 67.8 -49.2 67.6 -48.4 67.55 -48.15 67.65 -47.1 67.9 -45.6 68.25 -44.35 68.35 -43.95 68.55 -43.75 68.8 -43.5 69.2 -43.5 69.6 -43.55 69.8 -43.85
L 69.95 -44.45
Q 70.25 -46.7 70.05 -47.8 69.85 -48.6 69.55 -48.95 Z"/>
</g>

<g id="thrhghj_0_Layer3_16_FILL">
<path fill="#FFFFFF" stroke="none" d="
M 48.95 -37.7
Q 48.3 -38.35 47.35 -38.1 46.45 -37.75 46.2 -36.9 46 -36.25 46.35 -35.35 46.5 -34.8 46.85 -34.4
L 47.45 -33.7
Q 47.7 -33.45 48.15 -32.9 48.5 -32.65 49 -32.75 49.45 -32.85 49.75 -33.2 50.3 -33.75 50.2 -34.85 50.15 -35.5 49.65 -36.5 49.35 -37.35 48.95 -37.7 Z"/>
</g>

<g id="thrhghj_0_Layer3_17_FILL">
<path fill="#FFFFFF" stroke="none" d="
M 78.05 -133.4
Q 78.05 -133.45 77.65 -134.1 77.55 -134.2 77.05 -135.1 76.45 -135.85 76.25 -135.95 75.55 -136.25 75.15 -135.9 74.75 -135.65 74.75 -135.1 74.7 -134.7 74.85 -134.2 74.95 -133.45 75.3 -133.1
L 75.8 -132.75
Q 76.15 -132.35 76.35 -132.25 77 -131.95 77.55 -132.35 78.2 -132.75 78.05 -133.4 Z"/>
</g>

<g id="thrhghj_0_Layer3_18_FILL">
<path fill="#FFFFFF" stroke="none" d="
M 33.15 -194.7
Q 32.15 -195.5 31.2 -195.15 30.15 -194.7 30.05 -193.45 30 -192.5 30.55 -191.4 31.1 -190.35 31.7 -189.9 32.6 -189.2 33.45 -189.4 34.55 -189.55 34.8 -190.6 35.1 -191.45 34.4 -192.95 33.7 -194.25 33.15 -194.7 Z"/>
</g>

<g id="thrhghj_0_Layer3_19_FILL">
<path fill="#FFFFFF" stroke="none" d="
M -79.1 -178.9
Q -79.45 -179.95 -80.6 -180.15
L -81.2 -180.1
Q -82.35 -179.75 -82.5 -178.6 -82.6 -177.45 -81.6 -176.9 -80.6 -176.3 -79.7 -177.05 -78.75 -177.8 -79.1 -178.9 Z"/>
</g>

<g id="thrhghj_0_Layer2_0_FILL">
<path fill="#403E33" stroke="none" d="
M -91.35 42.05
Q -91.4 43.15 -91.25 44.3 -90.45 51.4 -83.05 59.6 -82.6 58.95 -82.15 58.35 -90.4 49.6 -91.25 42.05 -91.3 42 -91.35 42.05
M -49.9 46.25
Q -49.6 45.1 -49.45 44 -49.7 44 -49.9 44 -51.55 50.65 -57.8 58.35 -57.4 58.95 -56.95 59.55 -51.45 52.45 -49.9 46.25
M -23.35 44.7
Q -22.95 45.8 -22.35 46.95 -19.3 52.95 -11.7 59.7 -11.2 59 -10.65 58.35 -19.1 51.1 -22.35 44.7 -22.85 44.7 -23.35 44.7
M 24.05 47.1
Q 24.6 45.95 25 44.8 24.5 44.8 24.05 44.85 20.85 51.2 12.1 58.35 12.6 59.05 13.1 59.8 21.05 53.1 24.05 47.1
M 50.45 44.25
Q 50.6 45.35 50.9 46.5 52.5 52.6 58.3 59.45 58.75 58.9 59.25 58.35 52.65 50.85 50.9 44.25 50.65 44.25 50.45 44.25
M 143.25 79.05
L 145.7 78.35 132.95 68.7
Q 120.3 83.45 105 93.75 84.45 82.25 70 65.5 52.4 83.6 32.2 92.2 13.75 82.45 0.1 66 -13.5 81.8 -32.05 91.75 -54.55 82.6 -69.8 65.15 -85.1 81.55 -104.9 91.7 -120.8 82.35 -131.9 69.7
L -144.45 78.55 -142.5 79.05 -131.9 71.95
Q -120.8 84.6 -104.9 93.95 -85.1 83.8 -69.8 67.4 -54.55 84.85 -32.05 94 -13.5 84.05 0.1 68.25 13.75 84.7 32.2 94.45 52.4 85.85 70 67.75 84.45 84.5 105 96 120.3 85.7 132.95 70.95
L 143.25 79.05
M 104.55 1.3
Q 104.5 1.3 104.5 1.35 112.6 1 114.85 -3.35 0.9 2.2 -114.95 -3.5 -113.65 0.5 -105.4 1.3 -101.25 1.45 -97.05 1.65 -2.65 5.2 93.55 1.75 99.05 1.5 104.55 1.3
M 89.6 44.7
Q 89.75 43.55 89.75 42.45 89.65 42.4 89.6 42.45 88.7 49.85 81.2 58.35 81.7 58.9 82.2 59.5 88.75 51.6 89.6 44.7 Z"/>

<path fill="#545245" stroke="none" d="
M -89.3 13.95
L -97.05 1.65
Q -101.25 1.45 -105.4 1.3 -99.4 6.7 -99.2 10.15
L -137.7 32.1
Q -145.55 44.85 -144.2 65.55
L -130.35 54.6
Q -121.45 67.7 -106.5 78.7 -93.15 72.55 -83.05 59.6 -90.45 51.4 -91.25 44.3 -91.4 43.15 -91.35 42.05 -110.1 40.9 -129.25 39.4 -95.05 23.65 -89.3 13.95
M -70.65 55.7
Q -63 49.2 -60.7 43.6 -71.1 43.15 -81.6 42.6 -79.95 48.65 -70.65 55.7
M -22.35 46.95
Q -22.95 45.8 -23.35 44.7 -36.3 44.45 -49.45 44 -49.6 45.1 -49.9 46.25 -51.45 52.45 -56.95 59.55 -48.95 70.15 -33.95 80.05 -20.55 70.3 -11.7 59.7 -19.3 52.95 -22.35 46.95
M 0.05 56.2
Q 7.95 50.05 11.15 44.95 0.25 45 -10.8 44.9 -7.75 50 0.05 56.2
M 80.35 42.95
Q 70.2 43.5 59.95 43.9 62 49.75 70.15 56.25 78.7 49.15 80.35 42.95
M 50.9 46.5
Q 50.6 45.35 50.45 44.25 37.85 44.65 25 44.8 24.6 45.95 24.05 47.1 21.05 53.1 13.1 59.8 20.35 69.9 33.35 80.05 48.45 70.25 58.3 59.45 52.5 52.6 50.9 46.5
M 143.25 79.05
L 132.95 70.95
Q 120.3 85.7 105 96 84.45 84.5 70 67.75 52.4 85.85 32.2 94.45 13.75 84.7 0.1 68.25 -13.5 84.05 -32.05 94 -54.55 84.85 -69.8 67.4 -85.1 83.8 -104.9 93.95 -120.8 84.6 -131.9 71.95
L -142.5 79.05
Q -138.35 102.4 -124.85 133.85 19.65 211.6 126.35 133.95 126.35 133.9 126.4 133.85 139.8 103.05 143.25 79.05
M 89.75 42.45
Q 89.75 43.55 89.6 44.7 88.75 51.6 82.2 59.5 93.75 72.8 104.5 78.7 120.75 67.7 130 54.6
L 144.4 65.55
Q 144.85 46.2 137.65 32.1
L 99.45 10.15
Q 99.3 5.75 104.5 1.35 104.5 1.3 104.55 1.3 99.05 1.5 93.55 1.75
L 87.9 9.55
Q 91 19.05 128.4 39.4 109.35 41.2 89.75 42.45
M 114.85 -3.4
Q 112.15 -8.8 107.2 -15.05
L -108.3 -15.05
Q -112.85 -8.85 -114.95 -3.5 0.9 2.2 114.85 -3.35
L 114.85 -3.4 Z"/>

<path fill="#1D1C15" stroke="none" d="
M -59.8 40.05
Q -59 32.2 -69.6 26.25 -83 32.8 -81.9 41.1 -81.15 34.1 -69.6 28.5 -60.55 33.55 -59.8 40.05
M 13.25 39.65
Q 14.3 31.55 0.35 26.75 -13.65 31.7 -12.6 39.9 -11.7 33.25 0.35 29 12.3 33.1 13.25 39.65
M 80.7 41.1
Q 81.5 32.85 69.65 26.2 58.35 33.05 59.3 41.15 59.9 34.3 69.65 28.45 79.85 34.2 80.7 41.1 Z"/>

<path fill="#28271E" stroke="none" d="
M -60.7 43.6
Q -60 41.75 -59.8 40.05 -60.55 33.55 -69.6 28.5 -81.15 34.1 -81.9 41.1 -81.85 41.8 -81.6 42.6 -71.1 43.15 -60.7 43.6
M 11.15 44.95
Q 12.9 42.15 13.25 39.65 12.3 33.1 0.35 29 -11.7 33.25 -12.6 39.9 -12.35 42.25 -10.8 44.9 0.25 45 11.15 44.95
M 59.3 41.15
Q 59.45 42.5 59.95 43.9 70.2 43.5 80.35 42.95 80.55 42 80.7 41.1 79.85 34.2 69.65 28.45 59.9 34.3 59.3 41.15
M 89.7 41.45
Q 89.65 41.95 89.6 42.45 89.65 42.4 89.75 42.45 109.35 41.2 128.4 39.4 91 19.05 87.9 9.55
L 93.55 1.75
Q -2.65 5.2 -97.05 1.65
L -89.3 13.95
Q -95.05 23.65 -129.25 39.4 -110.1 40.9 -91.35 42.05 -91.3 42 -91.25 42.05 -91.3 41.8 -91.3 41.55 -92.5 27.65 -68.75 17.65 -48.55 26.7 -49.35 40.35 -49.45 42.1 -49.9 44 -49.7 44 -49.45 44 -36.3 44.45 -23.35 44.7 -22.85 44.7 -22.35 44.7 -24.05 41.35 -24.3 38.3 -25.5 24.8 0.6 16.05 26.9 25.65 25.75 39 25.5 41.8 24.05 44.85 24.5 44.8 25 44.8 37.85 44.65 50.45 44.25 50.65 44.25 50.9 44.25 50.45 42.45 50.35 40.75 49.4 27.45 69.4 17.9 90.5 27.95 89.7 41.45 Z"/>

<path fill="#39372B" stroke="none" d="
M -60.7 43.6
Q -60.35 43.6 -60 43.6 -54.95 43.8 -49.9 44 -49.45 42.1 -49.35 40.35 -48.55 26.7 -68.75 17.65 -92.5 27.65 -91.3 41.55 -91.3 41.8 -91.25 42.05 -86.6 42.3 -81.95 42.55 -81.8 42.55 -81.6 42.6 -81.85 41.8 -81.9 41.1 -83 32.8 -69.6 26.25 -59 32.2 -59.8 40.05 -60 41.75 -60.7 43.6
M 13.25 39.65
Q 12.9 42.15 11.15 44.95 11.75 44.95 12.35 44.95 18.2 44.9 24.05 44.85 25.5 41.8 25.75 39 26.9 25.65 0.6 16.05 -25.5 24.8 -24.3 38.3 -24.05 41.35 -22.35 44.7 -17.1 44.8 -11.9 44.85 -11.35 44.85 -10.8 44.9 -12.35 42.25 -12.6 39.9 -13.65 31.7 0.35 26.75 14.3 31.55 13.25 39.65
M 89.6 42.45
Q 89.65 41.95 89.7 41.45 90.5 27.95 69.4 17.9 49.4 27.45 50.35 40.75 50.45 42.45 50.9 44.25 55.15 44.1 59.4 43.95 59.65 43.9 59.95 43.9 59.45 42.5 59.3 41.15 58.35 33.05 69.65 26.2 81.5 32.85 80.7 41.1 80.55 42 80.35 42.95 80.5 42.95 80.75 42.95 85.15 42.7 89.6 42.45 Z"/>

<path fill="url(#Gradient_1)" stroke="none" d="
M 62.5 196.5
Q 100.6 169.6 126.35 133.95 19.65 211.6 -124.85 133.85 -105.4 167.2 -60.9 196.5 -1.3 207.7 62.5 196.5 Z"/>

<path fill="#686556" stroke="none" d="
M 104.5 78.7
Q 93.75 72.8 82.2 59.5 81.7 58.9 81.2 58.35 88.7 49.85 89.6 42.45 85.15 42.7 80.75 42.95 80.5 42.95 80.35 42.95 78.7 49.15 70.15 56.25 62 49.75 59.95 43.9 59.65 43.9 59.4 43.95 55.15 44.1 50.9 44.25 52.65 50.85 59.25 58.35 58.75 58.9 58.3 59.45 48.45 70.25 33.35 80.05 20.35 69.9 13.1 59.8 12.6 59.05 12.1 58.35 20.85 51.2 24.05 44.85 18.2 44.9 12.35 44.95 11.75 44.95 11.15 44.95 7.95 50.05 0.05 56.2 -7.75 50 -10.8 44.9 -11.35 44.85 -11.9 44.85 -17.1 44.8 -22.35 44.7 -19.1 51.1 -10.65 58.35 -11.2 59 -11.7 59.7 -20.55 70.3 -33.95 80.05 -48.95 70.15 -56.95 59.55 -57.4 58.95 -57.8 58.35 -51.55 50.65 -49.9 44 -54.95 43.8 -60 43.6 -60.35 43.6 -60.7 43.6 -63 49.2 -70.65 55.7 -79.95 48.65 -81.6 42.6 -81.8 42.55 -81.95 42.55 -86.6 42.3 -91.25 42.05 -90.4 49.6 -82.15 58.35 -82.6 58.95 -83.05 59.6 -93.15 72.55 -106.5 78.7 -121.45 67.7 -130.35 54.6
L -144.2 65.55 -145.85 66.75 -144.45 78.55 -131.9 69.7
Q -120.8 82.35 -104.9 91.7 -85.1 81.55 -69.8 65.15 -54.55 82.6 -32.05 91.75 -13.5 81.8 0.1 66 13.75 82.45 32.2 92.2 52.4 83.6 70 65.5 84.45 82.25 105 93.75 120.3 83.45 132.95 68.7
L 145.7 78.35
Q 146.15 73.25 146.1 66.55
L 144.4 65.55 130 54.6
Q 120.75 67.7 104.5 78.7 Z"/>
</g>

<g id="thrhghj_0_Layer2_0_MEMBER_0_FILL">
<path fill="#FFFFFF" fill-opacity="0.2" stroke="none" d="
M 89.25 20.15
L 110 40.75
Q 106.901953125 58.6666015625 101.8 77.15
L 103.65 78.25 101.05 91.4
Q 100.425 91.45 97.95 91.8 90.980078125 114.5791015625 81.2 139.9 95.372265625 131.125 115.05 115.95
L 124.55 79.95 126.85 75.45
Q 127.205859375 68.252734375 127.1 58.5
L 125.1 60.8 122.25 39.95 89.25 20.15
M 100.9 -4.05
L 97.45 -11.3 87.55 -11.3 100.9 -4.05 Z"/>
</g>

<g id="thrhghj_0_Layer0_0_FILL">
<path fill="#A5D5E7" stroke="none" d="
M 90.95 -131.75
Q 127.2466796875 -128.276953125 119.95 -121.2 92.05 -116.75 74.35 -111.7 47.55 -104.05 45.05 -103.4 5.85 -93.3 -46.15 -88.8 -52.05 -88.25 -55.65 -88.65 -60.85 -89.25 -64.2 -91.85 -65.7 -93.05 -67.9 -95.85 -70.25 -98.85 -71.5 -100 -76.35 -104.4 -85.25 -104.6 -95.85 -103.85 -100.95 -103.55 -115.1 -102.65 -128.25 -107.7 -114.95 -108.65 -102.2 -113.3 -119.65 -115.25 -136.9 -111.55 -151.2515625 -107.6451171875 -164.1 -102.8 -172.6408203125 -99.5439453125 -180.75 -96.9 -180.525390625 -96.86953125 -180.3 -96.85
L -87 -89.2
Q -77.9 -88.45 -73.05 -87.5 -65.4 -85.95 -60.1 -82.8 -56.35 -80.55 -48.3 -72.95 -41.2 -66.25 -36.1 -64 -28 -60.5 -16.95 -62.65 -10.65 -63.8 2.4 -68.65 26.55 -77.65 66.8 -88.05 118.25 -101.3 131.9 -105.45 136.4 -106.85 138.9 -107.85 142.65 -109.4 145.35 -111.35 148 -113.25 151.4 -117.2 156 -122.5 157.05 -123.55 162.7109375 -129.2927734375 188.35 -147.8 183.816015625 -146.4345703125 181.4 -145.75 176.6 -144.3 167.3 -143.1 157.5 -141.85 153.15 -140.7 148.8 -139.55 141.65 -136.55 133.39375 -133.0978515625 126.7 -133.3 120.0740234375 -133.452734375 108.95 -132.75 97.8083984375 -132.003125 90.95 -131.75 Z"/>
</g>

<g id="thrhghj_0_Layer0_1_FILL">
<path fill="#A5D5E7" stroke="none" d="
M 187.05 -272.05
Q 183.8 -274 182.25 -275.1 180.65 -276.2 178.05 -278.55 175.25 -281.1 173.95 -282.05 168.9 -285.9 161.15 -287.7 156.2 -288.85 146.95 -289.65 128.85 -291.15 118.35 -291.3 102.5 -291.5 89.9 -289.2 80.2 -287.45 65.6 -282.7 45.25 -276.05 41.65 -275.05 32.65 -272.55 13.5 -268.75 -5.1 -265 -14.55 -262.3 -24.5 -259.4 -36.45 -254.65 -43.65 -251.8 -57.85 -245.65
L -88.95 -232.1
Q -104.55 -225.2 -112.65 -222.45 -118.15 -220.55 -126.35 -218.25 -135.55 -215.65 -140.1 -214.35 -159.6 -208.65 -183.25 -198.75 -193.7 -194.45 -205.65 -189.05 -209.55 -187.3 -211.65 -185.55 -214.65 -183.15 -215.1 -180.1 -215.3 -178.65 -214.7 -175.25 -214.1 -172.1 -214.55 -170.45 -215.5 -166.65 -221.8 -164.35 -229.75 -161.5 -231.55 -159.8 -233.45 -158.1 -232.7 -156.65 -232.2 -155.4 -229.95 -155.2 -227.3 -155 -224.05 -156 -222.15 -156.6 -218.5 -158.2
L -154.1 -187.05
Q -151.3 -188.25 -149.85 -189.15 -147.6 -190.5 -146.35 -192.2 -145.55 -193.2 -144.45 -195.55 -143.3 -197.85 -142.55 -198.9 -140.6 -201.55 -136.75 -202.95 -133.9 -204 -129.5 -204.5 -123.85 -205.1 -116.6 -205.2 -112.8 -205.25 -103.7 -205.15
L -60.65 -204.55
Q -57.15 -204.5 -55.65 -204.6 -52.95 -204.85 -50.95 -205.7 -48.25 -206.75 -45.5 -209.5 -45.15 -209.85 -40.95 -214.6 -33.75 -222.95 -22.35 -230.75 -15.45 -235.55 -1.1 -243.7 12.45 -251.45 20.5 -254.5 26.9 -256.95 35.4 -258.75 39.85 -259.7 50.65 -261.5 82.65 -266.65 98.9 -268.7 125.75 -272.05 147.45 -272.6 151.6 -272.75 154.15 -272.5 157.8 -272.2 160.55 -271.1 163.8 -269.8 166 -267.3 168.4 -264.55 168.6 -261.4 168.85 -258 166.55 -254.5 164.85 -251.9 161.45 -248.8 155.05 -242.95 145.15 -235.55 134.3162109375 -227.6236328125 104.7 -196.25
L 134.05 -209.8
Q 142.05 -213.5 146.15 -215.6 152.75 -219.05 157.65 -222.5 164.9 -227.55 172.55 -235.55 177.15 -240.35 185.65 -250.45 194.9 -261.55 191 -268.25 189.85 -270.2 187.05 -272.05
M 169.25 -240.3
Q 168.1 -238.6 165.95 -236.55 156.9 -227.7 145.8 -221.25 134.7 -214.75 122.55 -211.2 136.75 -221.2 142.7 -225.1 155.6 -233.4 169.25 -240.3 Z"/>
</g>

<g id="thrhghj_0_Layer0_2_FILL">
<path fill="#A5D5E7" stroke="none" d="
M 672.1 -421.1
Q 672.1 -424.05 671.7 -425.55 671.4 -426.8 670.65 -427.75 669.85 -428.85 668.7 -429.05 667.85 -429.2 666.25 -428.8 663.3 -427.95 662 -427.45 659.7 -426.55 636.1 -423.9 612.4986328125 -421.1958984375 612.15 -421.1 611.803515625 -420.9623046875 639.5 -419.7
L 665.3 -418.7
Q 666.7 -418.55 667.45 -417.8
L 668.4 -416.7
Q 669.1 -416.2 670.05 -416.55 670.95 -416.85 671.45 -417.65 672.1 -418.65 672.1 -421.1 Z"/>
</g>

<g id="thrhghj_0_Layer0_3_FILL">
<path fill="#A5D5E7" stroke="none" d="
M 580.75 -405
Q 577.4 -404.2 569.6 -401.5 538.5 -390.4 505.25 -385.45 502.15 -385 500.75 -384.6 498.35 -383.9 496.8 -382.6 494.95 -381.1 494.55 -378.7 494.1 -376.2 495.6 -374.7 480.95 -367.2 464.4 -364.85 447.85 -362.5 431.75 -365.65 427.75 -366.5 425.8 -366.85 422.35 -367.55 419.8 -367.75 414.5 -368.1 408.2 -366.85 403.55 -365.95 396.8 -363.75 361 -352.1 329.55 -331.45 327.75 -330.3 327.65 -329.1 327.45 -327.65 329.15 -326.95 330.65 -326.35 332.45 -326.6 340.6 -327.55 352.1 -331.7 358.55 -334 371.4 -338.7 381.85 -342 396.35 -344.2 404.8 -345.45 421.75 -347.45 446.1 -350.65 476.1 -356.95 494.25 -360.7 530 -369.15 537.2 -370.8 541 -371.95 547 -373.7 551.55 -375.95 555.2 -377.75 560 -380.95 562.7 -382.8 568.15 -386.55 580.2 -394.5 596.7 -401.7 606.7 -406 627 -413.45 617.6 -412.7 609.1 -408.15 606.05 -406.45 604.5 -405.75 601.8 -404.5 599.6 -404.4 598 -404.3 595.85 -404.75 593.35 -405.35 592.1 -405.6 587.1 -406.45 580.75 -405
M 593.75 -401.6
L 592.55 -400.85
Q 592.05 -400.6 591.85 -400.6
L 591.4 -400.6 567.3 -398.8
Q 592.5 -401.6 593.75 -401.6 Z"/>
</g>

<path id="tyrtasfd_0_Layer0_0_1_STROKES" stroke="#CCCCCC" stroke-opacity="0.4980392156862745" stroke-width="3" stroke-linejoin="miter" stroke-linecap="butt" stroke-miterlimit="3" fill="none" d="
M -44.65 541.9
Q -41.8416015625 531.1353515625 -29.575 506 -9.2375 464.32578125 -4.3 426.35 -4.25 406.63046875 -4.25 387 -4.75 159.15 -22.4 -62 -12.85 -60.7 0.2 -60.55 8.45 -60.45 14.95 -60.15"/>

<path id="rgfhg_0_Layer7_0_1_STROKES" stroke="#000000" stroke-width="1" stroke-linejoin="miter" stroke-linecap="butt" stroke-miterlimit="3" fill="none" d="
M 22.35 -13.9
Q 32.7 -7.05 44 -0.25"/>

<path id="rgfhg_0_Layer5_0_MEMBER_1_1_STROKES" stroke="#272E31" stroke-width="1" stroke-linejoin="miter" stroke-linecap="butt" stroke-miterlimit="3" fill="none" d="
M 24.922318267822263 -93.1530647277832
Q 24.531557464599615 -89.52127151489259 18.616281127929696 -87.20722808837891 12.647815704345703 -84.84660110473632 4.702679443359379 -85.17219543457031 -3.2457595825195327 -85.44790344238282 -8.621305847167967 -88.25894012451172 -13.946965789794923 -91.06667404174806 -13.556204986572261 -94.69846725463867 -13.16544418334961 -98.33026046752929 -7.200281524658202 -100.6410011291504 -1.2783996582031278 -103.05481719970703 6.666736602783203 -102.72922286987304 14.615175628662115 -102.45351486206056 19.984116363525388 -99.54270553588867 25.313079071044925 -96.78485794067382 24.922318267822263 -93.1530647277832 Z"/>

<path id="rgfhg_0_Layer4_0_1_STROKES" stroke="#184C64" stroke-opacity="0.4980392156862745" stroke-width="3" stroke-linejoin="miter" stroke-linecap="butt" stroke-miterlimit="3" fill="none" d="
M -98.40387420654298 -92.98352508544922
L -52.970506286621095 82.21500854492187"/>

<path id="rgfhg_0_Layer2_0_1_STROKES" stroke="#000000" stroke-opacity="0.2980392156862745" stroke-width="1" stroke-linejoin="round" stroke-linecap="round" fill="none" d="
M 58.9 -175.45
Q 52.9 -158.45 41.05 -136.55
M 78.15 -97.55
Q 66.9 -78.45 54.35 -63.75
M -55.25 -78.3
Q -91.75 -98.2 -111.65 -113.75"/>

<path id="rgfhg_0_Layer2_2_1_STROKES" stroke="#272E31" stroke-width="1" stroke-linejoin="miter" stroke-linecap="butt" stroke-miterlimit="3" fill="none" d="
M -35.07773208618164 -61.489619445800784
Q -35.71295928955078 -53.09838104248047 -40.509770202636716 -47.42747116088867 -45.311086273193354 -41.69704895019531 -51.4441421508789 -42.0083122253418 -57.57719802856445 -42.319575500488284 -61.477482604980466 -48.49161911010742 -65.38227233886718 -54.604150390625 -64.74704513549804 -62.99538879394531 -64.1163230895996 -71.32711486816407 -59.31951217651367 -76.99802474975586 -54.51819610595703 -82.72844696044922 -48.38514022827148 -82.41718368530275 -42.25208435058593 -82.10592041015624 -38.35179977416992 -75.9338768005371 -34.4470100402832 -69.82134552001953 -35.07773208618164 -61.489619445800784 Z"/>

<path id="rgfhg_0_Layer2_3_1_STROKES" stroke="#272E31" stroke-width="1" stroke-linejoin="miter" stroke-linecap="butt" stroke-miterlimit="3" fill="none" d="
M 59.111116027832026 -53.259326171875
Q 60.50183868408203 -45.868701171875 57.82387161254883 -39.4596435546875 55.09480514526368 -33.1083251953125 49.92668762207032 -31.43388671875 44.75966949462891 -29.701708984375 40.082711791992196 -33.74345703125 35.40685348510742 -37.7274658203125 34.01613082885741 -45.1180908203125 32.62650756835937 -52.4509765625 35.35447463989259 -58.8600341796875 38.03244171142579 -65.269091796875 43.1994598388672 -67.00126953125 48.36757736206056 -68.6757080078125 53.09563446044922 -64.576220703125 57.721492767333984 -60.5922119140625 59.111116027832026 -53.259326171875 Z"/>
</defs>

<g transform="matrix( -0.74688720703125, 0, 0, 0.74688720703125, 1060.05,380.6) ">
<g filter="url(#Filter_1)" transform="matrix( -1.3388824462890625, 0, 0, 1.3388824462890625, 1419.25,-509.55) ">
<g transform="matrix( -0.6573944091796875, -0.0157470703125, 0, 0.523590087890625, 1049.25,971.15) ">
<g transform="matrix( 1, 0, 0, 1, 0,0) ">
<use xlink:href="#regrfg_0_Layer0_0_FILL"/>
</g>
</g>
</g>

<g filter="url(#Filter_2)" transform="matrix( -1.3388824462890625, 0, 0, 1.3388824462890625, 1419.25,-509.55) ">
<g transform="matrix( -0.466339111328125, -0.01116943359375, 0, 0.371429443359375, 727.15,992.7) ">
<g transform="matrix( 1, 0, 0, 1, 0,0) ">
<use xlink:href="#regrfg_0_Layer0_0_FILL"/>
</g>
</g>
</g>

<g transform="matrix( 1.07470703125, -0.055389404296875, 0.055389404296875, 1.07470703125, 105.5,157.25) ">
<g transform="matrix( 1, 0, 0, 1, 0,0) ">
<use xlink:href="#trytjj_0_Layer5_0_FILL"/>
</g>

<g transform="matrix( -0.9889984130859375, -0.14727783203125, -0.1379852294921875, 0.9903564453125, 10.8,-104.7) ">
<g transform="matrix( 1, 0, 0, 1, 0,0) ">
<use xlink:href="#tyrtasfd_copy_0_Layer0_0_FILL"/>
</g>
</g>

<g transform="matrix( -0.992950439453125, -0.117828369140625, -0.117828369140625, 0.992950439453125, -10.45,-100.85) ">
<g transform="matrix( 1, 0, 0, 1, 0,0) ">
<use xlink:href="#tyrtasfd_0_Layer0_0_FILL"/>

<use xlink:href="#tyrtasfd_0_Layer0_0_1_STROKES"/>
</g>
</g>

<g transform="matrix( 1, 0, 0, 1, 0,0) ">
<use xlink:href="#trytjj_0_Layer1_0_FILL"/>
</g>

<g transform="matrix( 1, 0, 0, 1, 0,0) ">
<use xlink:href="#trytjj_0_Layer1_1_FILL"/>
</g>

<g transform="matrix( 1.0855712890625, 0.314849853515625, -0.6536712646484375, 1.162689208984375, -69.75,28.55) ">
<use xlink:href="#trytjj_0_Layer1_1_MEMBER_0_FILL"/>
</g>
</g>

<g transform="matrix( 0.9937744140625, -0.1103515625, 0.1103515625, 0.9937744140625, 94.9,-124.25) ">
<g transform="matrix( 1, 0, 0, 1, 2.55,0.15) ">
<use xlink:href="#rgfhg_0_Layer13_0_FILL"/>
</g>

<g transform="matrix( 1, 0, 0, 1, 0,0) ">
<use xlink:href="#rgfhg_0_Layer12_0_FILL"/>
</g>

<g transform="matrix( 0.9986572265625, -0.0514984130859375, 0.0514984130859375, 0.9986572265625, 14.4,0.05) ">
<use xlink:href="#rgfhg_0_Layer11_0_FILL"/>
</g>

<g transform="matrix( 0.86614990234375, 0.0473175048828125, -0.0405731201171875, 0.952880859375, -20.95,-137.45) ">
<g transform="matrix( 1, 0, 0, 1, 0,0) ">
<use xlink:href="#rergf_0_Layer2_0_FILL"/>
</g>

<mask id="Mask_Mask_1">
<g transform="matrix( 1, 0, 0, 1, 0,0) ">
<use xlink:href="#Mask_rergf_0_1_MASK_0_FILL"/>
</g>
</mask>

<g mask="url(#Mask_Mask_1)">
<g transform="matrix( 1, 0, 0, 1, -1.65,-9.4) ">
<use xlink:href="#rergf_0_Layer1_0_FILL"/>
</g>
</g>
</g>

<g transform="matrix( 0.9327392578125, 0.224334716796875, -0.248382568359375, 0.9169921875, 8,-190.75) ">
<g transform="matrix( 1, 0, 0, 1, -5.5,-5.05) ">
<use xlink:href="#rterytf_0_Layer9_0_FILL"/>
</g>

<g transform="matrix( 1, 0, 0, 1, 0,0) ">
<use xlink:href="#rterytf_0_Layer8_0_FILL"/>
</g>

<g transform="matrix( 1, 0.037872314453125, 0, 1, 6.25,-6.2) ">
<g transform="matrix( 1, 0, 0, 1, 0,0) ">
<use xlink:href="#retrf_0_Layer8_0_FILL"/>
</g>

<mask id="Mask_Mask_2">
<g transform="matrix( 1, 0, 0, 1, 0,0) ">
<use xlink:href="#Mask_retrf_0_7_MASK_0_FILL"/>
</g>
</mask>

<g mask="url(#Mask_Mask_2)">
<g transform="matrix( 0.89825439453125, 0, -0.0545806884765625, 0.9338226318359375, 16.4,5.05) ">
<use xlink:href="#retrf_0_Layer7_0_FILL"/>
</g>
</g>

<g transform="matrix( 1, 0, 0, 1, 0,0) ">
<use xlink:href="#retrf_0_Layer5_0_FILL"/>
</g>

<g transform="matrix( 1, 0, 0, 1, 0,0) ">
<use xlink:href="#retrf_0_Layer3_0_FILL"/>
</g>

<mask id="Mask_Mask_3">
<g transform="matrix( 1, 0, 0, 1, 0,0) ">
<use xlink:href="#Mask_retrf_0_2_MASK_0_FILL"/>
</g>
</mask>

<g mask="url(#Mask_Mask_3)">
<g transform="matrix( -1.12567138671875, 0, -0.0453643798828125, 1.0146636962890625, -17.85,3.4) ">
<use xlink:href="#retrf_0_Layer2_0_FILL"/>
</g>
</g>

<g transform="matrix( 1, 0, 0, 1, 0,0) ">
<use xlink:href="#retrf_0_Layer0_0_FILL"/>
</g>
</g>

<g transform="matrix( 1, 0, 0, 1, 0,0) ">
<use xlink:href="#rterytf_0_Layer5_0_FILL"/>
</g>

<g transform="matrix( 1, 0, 0, 1, 0,0) ">
<use xlink:href="#rterytf_0_Layer5_1_FILL"/>
</g>

<g transform="matrix( 1, 0, 0, 1, 0,0) ">
<use xlink:href="#rterytf_0_Layer4_0_FILL"/>
</g>

<g transform="matrix( 1, 0.100494384765625, 0, 1, 0,-3.2) ">
<use xlink:href="#rterytf_0_Layer3_0_FILL"/>
</g>

<g transform="matrix( 1, 0, 0, 1, 0,0) ">
<use xlink:href="#rterytf_0_Layer2_0_FILL"/>
</g>
</g>

<g transform="matrix( 1, 0, 0, 1, 0,0) ">
<use xlink:href="#rgfhg_0_Layer8_0_FILL"/>
</g>

<g transform="matrix( 1, 0, 0, 1, 0,0) ">
<use xlink:href="#rgfhg_0_Layer7_0_FILL"/>

<use xlink:href="#rgfhg_0_Layer7_0_1_STROKES"/>
</g>

<g transform="matrix( 1, 0, 0, 1, 0,0) ">
<use xlink:href="#rgfhg_0_Layer6_0_FILL"/>
</g>

<g transform="matrix( 0.9986572265625, -0.0514984130859375, 0.0514984130859375, 0.9986572265625, 11.85,0) ">
<use xlink:href="#rgfhg_0_Layer5_0_FILL"/>
</g>

<g transform="matrix( 0.9976654052734375, -0.057525634765625, 0.160858154296875, 0.993011474609375, 27.1,-0.7) ">
<use xlink:href="#rgfhg_0_Layer5_0_MEMBER_0_FILL"/>
</g>

<g transform="matrix( 0.9977264404296875, 0.0660552978515625, -0.0660552978515625, 0.9977264404296875, -43,-26.1) ">
<use xlink:href="#rgfhg_0_Layer5_0_MEMBER_1_FILL"/>

<use xlink:href="#rgfhg_0_Layer5_0_MEMBER_1_1_STROKES" transform="matrix( 0.997894287109375, -0.0660552978515625, 0.0660552978515625, 0.997894287109375, 44.6,23.2) "/>
</g>

<g transform="matrix( 1.5891265869140625, 0.0637359619140625, -0.0664215087890625, 0.605804443359375, 693,-66.6) ">
<use xlink:href="#rgfhg_0_Layer5_0_MEMBER_1_MEMBER_0_FILL"/>
</g>

<g transform="matrix( 0.9986419677734375, -0.051483154296875, 0.051483154296875, 0.9986419677734375, 14.4,0) ">
<use xlink:href="#rgfhg_0_Layer5_0_MEMBER_2_FILL"/>
</g>

<g transform="matrix( 0.9965667724609375, 0.0825958251953125, -0.0825958251953125, 0.9965667724609375, -7.2,10) ">
<use xlink:href="#rgfhg_0_Layer4_0_FILL"/>

<use xlink:href="#rgfhg_0_Layer4_0_1_STROKES" transform="matrix( 0.9965972900390625, -0.0825958251953125, 0.0825958251953125, 0.9965972900390625, 6.3,-10.55) "/>
</g>

<g transform="matrix( 0.587982177734375, -0.808868408203125, 0.808868408203125, 0.587982177734375, -20.95,51.15) ">
<use xlink:href="#rgfhg_0_Layer4_1_FILL"/>
</g>

<g transform="matrix( 1, 0, 0, 1, 0,0) ">
<use xlink:href="#rgfhg_0_Layer3_0_FILL"/>
</g>

<g transform="matrix( 1, 0, 0, 1, 0,0) ">
<use xlink:href="#rgfhg_0_Layer2_0_FILL"/>

<use xlink:href="#rgfhg_0_Layer2_0_1_STROKES"/>
</g>

<g transform="matrix( 1.49847412109375, 0.0961456298828125, -0.017913818359375, 0.958740234375, -347.85,19.55) ">
<use xlink:href="#rgfhg_0_Layer2_1_FILL"/>
</g>

<g transform="matrix( 1.0483856201171875, 0.0532073974609375, -0.0901031494140625, 1.19024658203125, -88.55,-48.85) ">
<use xlink:href="#rgfhg_0_Layer2_2_FILL"/>

<use xlink:href="#rgfhg_0_Layer2_2_1_STROKES" transform="matrix( 0.9501953125, -0.0424652099609375, 0.071929931640625, 0.836944580078125, 87.65,37.1) "/>
</g>

<g transform="matrix( 1.2257080078125, 0.0622406005859375, -0.105316162109375, 1.3915863037109375, 480.05,-36.7) ">
<use xlink:href="#rgfhg_0_Layer2_2_MEMBER_0_FILL"/>
</g>

<g transform="matrix( 1, 0, 0.0219879150390625, 1.15478515625, -29.3,-3.95) ">
<use xlink:href="#rgfhg_0_Layer2_3_FILL"/>

<use xlink:href="#rgfhg_0_Layer2_3_1_STROKES" transform="matrix( 1, 0, -0.0190277099609375, 0.8659515380859375, 29.2,3.4) "/>
</g>

<g transform="matrix( 1.036895751953125, -0.3350982666015625, 0.2314300537109375, 1.224884033203125, 495.7,-195.45) ">
<use xlink:href="#rgfhg_0_Layer2_3_MEMBER_0_FILL"/>
</g>
</g>

<g transform="matrix( -0.3802337646484375, 0.9261474609375, 0.9377899169921875, 0.3870849609375, 265.25,-106.95) ">
<g transform="matrix( 1, 0, 0, 1, 0,0) ">
<use xlink:href="#fgfgg_0_Layer1_0_FILL"/>
</g>

<g transform="matrix( 1, 0, 0, 1, 0,0) ">
<use xlink:href="#fgfgg_0_Layer0_0_FILL"/>
</g>

<g transform="matrix( 1.16375732421875, -0.193634033203125, 0.1934814453125, 1.162841796875, 0.35,-11.6) ">
<use xlink:href="#fgfgg_0_Layer0_0_MEMBER_0_FILL"/>
</g>
</g>

<g transform="matrix( 1.1566162109375, 0.26007080078125, -0.26007080078125, 1.1566162109375, 132.4,-44.3) ">
<g transform="matrix( -0.929107666015625, 0.3697509765625, 0.3697509765625, 0.929107666015625, 12.2,59.65) ">
<use xlink:href="#asAD_0_Layer1_0_FILL"/>
</g>

<g transform="matrix( 0.92852783203125, 0.1174163818359375, -0.1202392578125, 0.9507904052734375, 0.5,-0.15) ">
<use xlink:href="#asAD_0_Layer0_0_FILL"/>
</g>
</g>

<g transform="matrix( 1.3116455078125, -0.067626953125, 0.067626953125, 1.3116455078125, -180.7,9.75) ">
<use xlink:href="#dfggg_0_Layer1_0_FILL"/>
</g>

<g transform="matrix( 1.2617340087890625, 0, 0, 1.2617340087890625, 441.05,319.35) ">
<g filter="url(#Filter_3)" transform="matrix( -1.0611419677734375, 0, 0, 1.0611419677734375, 775.25,-656.95) ">
<g transform="matrix( -0.9423675537109375, 0, 0, 0.9423675537109375, 732.45,459.35) ">
<g transform="matrix( 1, 0, 0, 1, 0,0) ">
<use xlink:href="#rte_0_Layer0_0_FILL"/>
</g>
</g>
</g>

<g transform="matrix( 1, 0, 0, 1, -501.45,-331.25) ">
<use xlink:href="#thrhghj_0_Layer3_0_FILL"/>
</g>

<g transform="matrix( 1, 0, 0, 1, -501.45,-331.25) ">
<use xlink:href="#thrhghj_0_Layer3_1_FILL"/>
</g>

<g transform="matrix( 1, 0, 0, 1, -501.45,-331.25) ">
<use xlink:href="#thrhghj_0_Layer3_2_FILL"/>
</g>

<g transform="matrix( 1, 0, 0, 1, -501.45,-331.25) ">
<use xlink:href="#thrhghj_0_Layer3_3_FILL"/>
</g>

<g transform="matrix( 1, 0, 0, 1, -501.45,-331.25) ">
<use xlink:href="#thrhghj_0_Layer3_4_FILL"/>
</g>

<g transform="matrix( 1, 0, 0, 1, -501.45,-331.25) ">
<use xlink:href="#thrhghj_0_Layer3_5_FILL"/>
</g>

<g transform="matrix( 1, 0, 0, 1, -501.45,-331.25) ">
<use xlink:href="#thrhghj_0_Layer3_6_FILL"/>
</g>

<g transform="matrix( 1, 0, 0, 1, -501.45,-331.25) ">
<use xlink:href="#thrhghj_0_Layer3_7_FILL"/>
</g>

<g transform="matrix( -1, 0, 0, 1, 636.35,-331.25) ">
<use xlink:href="#thrhghj_0_Layer3_8_FILL"/>
</g>

<g transform="matrix( 1, 0, 0, 1, -501.45,-331.25) ">
<use xlink:href="#thrhghj_0_Layer3_9_FILL"/>
</g>

<g transform="matrix( 1, 0, 0, 1, 0,0) ">
<use xlink:href="#thrhghj_0_Layer3_10_FILL"/>
</g>

<g transform="matrix( 1, 0, 0, 1, 0,0) ">
<use xlink:href="#thrhghj_0_Layer3_11_FILL"/>
</g>

<g transform="matrix( 1, 0, 0, 1, 0,0) ">
<use xlink:href="#thrhghj_0_Layer3_12_FILL"/>
</g>

<g transform="matrix( 1, 0, 0, 1, 0,0) ">
<use xlink:href="#thrhghj_0_Layer3_13_FILL"/>
</g>

<g transform="matrix( 1, 0, 0, 1, 0,0) ">
<use xlink:href="#thrhghj_0_Layer3_14_FILL"/>
</g>

<g transform="matrix( 1, 0, 0, 1, 0,0) ">
<use xlink:href="#thrhghj_0_Layer3_15_FILL"/>
</g>

<g transform="matrix( 1, 0, 0, 1, 0,0) ">
<use xlink:href="#thrhghj_0_Layer3_16_FILL"/>
</g>

<g transform="matrix( 1, 0, 0, 1, 0,0) ">
<use xlink:href="#thrhghj_0_Layer3_17_FILL"/>
</g>

<g transform="matrix( 1, 0, 0, 1, 0,0) ">
<use xlink:href="#thrhghj_0_Layer3_18_FILL"/>
</g>

<g transform="matrix( 1, 0, 0, 1, 0,0) ">
<use xlink:href="#thrhghj_0_Layer3_19_FILL"/>
</g>

<g transform="matrix( 1.3257904052734375, 0, 0, 1.3257904052734375, 0,12) ">
<use xlink:href="#thrhghj_0_Layer2_0_FILL"/>
</g>

<g transform="matrix( 1.3257598876953125, 0, 0, 1.3257598876953125, 0,12) ">
<use xlink:href="#thrhghj_0_Layer2_0_MEMBER_0_FILL"/>
</g>

<g transform="matrix( 0.7598876953125, 0, 0, 0.7598876953125, 14.5,-14.9) ">
<use xlink:href="#thrhghj_0_Layer0_0_FILL"/>
</g>

<g transform="matrix( 0.7598876953125, 0, 0, 0.7598876953125, 11.65,-5.35) ">
<use xlink:href="#thrhghj_0_Layer0_1_FILL"/>
</g>

<g transform="matrix( 0.7598876953125, 0, 0, 0.7598876953125, -386.75,44.3) ">
<use xlink:href="#thrhghj_0_Layer0_2_FILL"/>
</g>

<g transform="matrix( 0.7598876953125, 0, 0, 0.7598876953125, -369.3,15.85) ">
<use xlink:href="#thrhghj_0_Layer0_3_FILL"/>
</g>
</g>
</g>
</svg>
