
<svg xmlns="http://www.w3.org/2000/svg" version="1.1" xmlns:xlink="http://www.w3.org/1999/xlink" preserveAspectRatio="none" x="0px" y="0px" width="1920px" height="1080px" viewBox="0 0 1920 1080">
<defs>
<filter id="Filter_1" x="-20%" y="-36.931158798710264%" width="140%" height="173.86231759742054%" color-interpolation-filters="sRGB">
<feGaussianBlur in="SourceGraphic" stdDeviation="5,5" result="result1"/>
</filter>

<filter id="Filter_2" x="-20%" y="-33.70403720830389%" width="140%" height="167.40807441660777%" color-interpolation-filters="sRGB">
<feGaussianBlur in="SourceGraphic" stdDeviation="5.666666666666667,5.666666666666667" result="result1"/>

<feColorMatrix in="result1" type="matrix" values="1 0 0 0 0 0 1 0 0 0 0 0 1 0 0 0 0 0 0.07 0" result="result2"/>
</filter>

<filter id="Filter_3" x="-41.8649836456964%" y="-41.879567162239056%" width="183.7299672913928%" height="183.7591343244781%" color-interpolation-filters="sRGB">
<feGaussianBlur in="SourceGraphic" stdDeviation="10.666666666666666,10.666666666666666" result="result1"/>
</filter>

<filter id="Filter_4" x="-20%" y="-20%" width="140%" height="140%" color-interpolation-filters="sRGB">
<feGaussianBlur in="SourceGraphic" stdDeviation="1.6666666666666667,1.6666666666666667" result="result1"/>
</filter>

<filter id="Filter_5" x="-20%" y="-20%" width="140%" height="140%" color-interpolation-filters="sRGB">
<feGaussianBlur in="SourceGraphic" stdDeviation="1.6666666666666667,1.6666666666666667" result="result1"/>
</filter>

<filter id="Filter_6" x="-20%" y="-20.20548744520067%" width="140%" height="140.41097489040135%" color-interpolation-filters="sRGB">
<feGaussianBlur in="SourceGraphic" stdDeviation="3.3333333333333335,3.3333333333333335" result="result1"/>

<feColorMatrix in="result1" type="matrix" values="1 0 0 0 0 0 1 0 0 0 0 0 1 0 0 0 0 0 0.47 0" result="result2"/>
</filter>

<filter id="Filter_7" x="-20%" y="-24.57775809630249%" width="140%" height="149.15551619260498%" color-interpolation-filters="sRGB">
<feGaussianBlur in="SourceGraphic" stdDeviation="3.3333333333333335,3.3333333333333335" result="result1"/>

<feColorMatrix in="result1" type="matrix" values="1 0 0 0 0 0 1 0 0 0 0 0 1 0 0 0 0 0 0.39 0" result="result2"/>
</filter>

<g id="regrfg_0_Layer0_0_FILL">
<path fill="#000000" fill-opacity="0.2980392156862745" stroke="none" d="
M -268.4 22.7
Q -270.25 36.55 -200.8 31 44 10.9 225.8 32.8 292.8 35.3 254.6 17.35 216.4 -0.6 99.7 -30.35 5.6 -35.8 -99.35 -30.35 -265.45 9.45 -268.4 22.7 Z"/>
</g>

<g id="tytt_0_Layer0_0_FILL">
<path fill="#21313A" stroke="none" d="
M 233.05 10.7
Q 213.4 12.05 195.6 18.95 154.45 34.95 88.95 12.75 -7.9 -20.15 -90.05 3.75 -155.85 22.9 -245.5 -16.05 -265.45 -5.65 -287.75 -0.9 -170.9 63.25 -90.05 39.75 -7.9 15.85 88.95 48.75 154.45 70.95 195.6 54.95 236.7 38.95 287.7 52.9 254.2 37.2 233.05 10.7 Z"/>

<path fill="#2E444F" stroke="none" d="
M 196.35 -61.7
L 4.05 -99.7 -175.6 -71.7
Q -214.75 -32.1 -245.5 -16.05 -155.85 22.9 -90.05 3.75 -7.9 -20.15 88.95 12.75 154.45 34.95 195.6 18.95 213.4 12.05 233.05 10.7 217.25 -9 196.35 -61.7 Z"/>
</g>

<g id="rtgr_0_Layer0_0_FILL">
<path fill="#121212" stroke="none" d="
M 27.3 -26.1
L 28.8 -46.55 -47.3 -46.55 -45.8 -27.15
Q -68.95 -17.8 -118.15 -21.15 -188.65 -26.35 -215.6 -13.55 -221.35 15.55 -196.2 28.3 -164.3 44.45 -53.45 39.45 -32.4 50.15 -9.05 42.9 11.75 49.5 31.55 41.2 165.45 53.1 192.9 38.5 220.3 23.85 216.05 -1.5 195.9 -13.6 123.7 -12.75 45.9 -11.8 27.3 -26.1 Z"/>
</g>

<g id="tyrtasfd_0_Layer0_0_FILL">
<path fill="#171717" stroke="none" d="
M -63.85 319.5
Q -75.9888671875 329.2296875 -73.05 332.1 -70.9958984375 334.63203125 -50.85 332.5 -28.0771484375 329.708203125 -15.95 322.8 -8.96328125 318.003515625 1.2 285.75 14.41171875 270.3142578125 13.4 256.15 6.238671875 227.624609375 15.95 151.65 25.6525390625 75.6642578125 21.95 -0.7
L -31.4 -0.7
Q 0.3666015625 209.719140625 -9.45 258.85 -17.382421875 282.318359375 -63.85 319.5 Z"/>
</g>

<g id="tyrt_0_Layer0_0_FILL">
<path fill="#1C1C1C" stroke="none" d="
M 214.6 233.6
L 170 234.7
Q 163.65 267.5 176.25 347.15 188.85 426.85 180.45 500.7
L 178.6 513.95
Q 179.75 517.95 197.3 533.85 209.25 568.95 216.65 575 232.2 585.65 258.2 590.8 270.5 593.05 272.4 589.4 273.8 585.2 266.5 574.45 212.4 523.8 204.85 499 197.55 473.6 214.6 233.6 Z"/>
</g>

<g id="rtgf_0_Layer0_0_FILL">
<path fill="#466A7D" stroke="none" d="
M 122.9 -146.25
Q 128.5 -116.4 139.15 -97.8 141.7 -98.95 144.05 -100.2 157.240625 -108.9603515625 162.5 -146.25
L 122.9 -146.25
M -41.9 -84.45
Q -43.45 -95.7 -48.1 -92.05 -53.45 -87.55 -65.35 -65.3 -53.1 -79 -52.05 -68.05 -48.65 -32.55 -82 3.75 -81.55 4.7 -81.15 5.7 -71.45 -3.2 -63.65 -13.05 -49.15 -31.35 -43.2 -61.4 -40.55 -74.85 -41.9 -84.45 Z"/>

<path fill="#334D5A" stroke="none" d="
M 139.15 -97.8
Q 141.8 -93.2 144.75 -89.3 147.6 -90.45 150.2 -91.75 167.6818359375 -103.4822265625 173 -146.25
L 162.5 -146.25
Q 157.240625 -108.9603515625 144.05 -100.2 141.7 -98.95 139.15 -97.8
M -98.6 19.85
Q -89.2 13.1 -81.15 5.7 -81.55 4.7 -82 3.75 -89.4 11.75 -98.6 19.85 Z"/>

<path fill="#587E91" stroke="none" d="
M 107 -146.25
L 108.35 -128.75
Q 96.7 -121.95 52.05 -125.1 -41.6 -131.35 -63.65 -120.3 -77 -107.65 -95.65 -76.2 -105.15 -60.25 -119.05 -47.75 -92.1 -19.05 -82 3.75 -48.65 -32.55 -52.05 -68.05 -53.1 -79 -65.35 -65.3 -53.45 -87.55 -48.1 -92.05 -43.45 -95.7 -41.9 -84.45 -40.55 -74.85 -43.2 -61.4 -49.15 -31.35 -63.65 -13.05 -71.45 -3.2 -81.15 5.7 -89.2 13.1 -98.6 19.85 -102.1 22.35 -105.8 24.8 -114 52.45 -82.3 68.9 -58.35 81.3 -44.9 96.9 -26.3 52.85 -12.65 -20.5 -2.6 -74.35 51.65 -83.1 110.35 -84.55 139.15 -97.8 128.5 -116.4 122.9 -146.25
L 107 -146.25 Z"/>

<path fill="#364D59" stroke="none" d="
M -119.05 -47.75
Q -132.55 -35.6 -150.25 -26.7 -119.65 9.25 -110.5 27.8 -128.85 39.1 -143.65 44.05 -143.4 80.95 -105.2 103 -77 119.25 -65.9 135.1 -54.7 120.05 -44.9 96.9 -58.35 81.3 -82.3 68.9 -114 52.45 -105.8 24.8 -102.1 22.35 -98.6 19.85 -89.4 11.75 -82 3.75 -92.1 -19.05 -119.05 -47.75 Z"/>

<path fill="#405C6A" stroke="none" d="
M 144.75 -89.3
Q 141.8 -93.2 139.15 -97.8 110.35 -84.55 51.65 -83.1 -2.6 -74.35 -12.65 -20.5 -26.3 52.85 -44.9 96.9 -54.7 120.05 -65.9 135.1 -61.95 140.7 -60.15 146.25 -47.95 131.4 -37.35 107.25 -17.8 62.65 -3.65 -13.5 6.4 -67.35 60.65 -76.1 115.95 -77.45 144.75 -89.3 Z"/>
</g>

<g id="tyt_0_Layer0_0_FILL">
<path fill="#405C6A" stroke="none" d="
M 38.75 131.3
Q 42.6 129.1 46 126.65 20.45 88.8 10.55 11.7 1.6 -52.8 -10.85 -68.45 -20.95 -81.45 -72.45 -89.2 -100.85 -93.45 -118.2 -113.9 -121.65 -117.95 -124.65 -122.65 -131.7 -133.6 -136.85 -164.1
L -149.2 -164.1
Q -141.1 -132.55 -131.9 -118.05 -129.05 -113.55 -125.75 -109.6 -108.3 -88.55 -79.45 -84.2 -27.95 -76.45 -17.85 -63.45 -5.4 -47.8 3.55 16.7 13.45 93.45 38.75 131.3 Z"/>

<path fill="#334D5A" stroke="none" d="
M 54.5 26.55
Q 51.6 28.4 49.15 30.35 55.55 44.35 64.35 57.8 58.5 40.65 54.5 26.55 Z"/>

<path fill="#364D59" stroke="none" d="
M 114.85 44.35
Q 145.25 32.25 149.25 9.25 131.8 -0.95 120.95 -17.4 120.3 0.95 91.7 10.2 68.15 17.75 54.5 26.55 58.5 40.65 64.35 57.8 66.5 61.05 68.8 64.25 74.9 105.55 46 126.65 42.6 129.1 38.75 131.3 55.2 155.95 78.2 164.15 80.75 161.2 83.05 158.35 107.9 126.65 97.15 99.55
L 72.15 68.9
Q 84.4 56.45 114.85 44.35 Z"/>

<path fill="#587E91" stroke="none" d="
M 31.95 -59.6
Q 38.75 -103 66.5 -38.85 32.85 -50.15 54.5 26.55 68.15 17.75 91.7 10.2 120.3 0.95 120.95 -17.4 104.5 -42.2 102.95 -81.15 101.75 -110.75 97.7 -120.3 72.1 -137.25 1.6 -136.75 -75.45 -134.5 -94.15 -146.35
L -92.85 -164.1 -136.85 -164.1
Q -131.7 -133.6 -124.65 -122.65 -121.65 -117.95 -118.2 -113.9 -100.85 -93.45 -72.45 -89.2 -20.95 -81.45 -10.85 -68.45 1.6 -52.8 10.55 11.7 20.45 88.8 46 126.65 74.9 105.55 68.8 64.25 66.5 61.05 64.35 57.8 55.55 44.35 49.15 30.35 29.8 -11.85 31.95 -59.6 Z"/>

<path fill="#466A7D" stroke="none" d="
M 66.5 -38.85
Q 38.75 -103 31.95 -59.6 29.8 -11.85 49.15 30.35 51.6 28.4 54.5 26.55 32.85 -50.15 66.5 -38.85 Z"/>
</g>

<g id="Mask_trytjj_0_2_MASK_0_FILL">
<path fill="#FFFFFF" stroke="none" d="
M 168.15 49.7
Q 174.5958984375 63.7662109375 183.4 77.15 177.533984375 60.059375 173.55 45.9 170.6302734375 47.8068359375 168.15 49.7
M 239.95 2
Q 239.3599609375 20.3568359375 210.75 29.55 187.1873046875 37.1599609375 173.55 45.9 177.533984375 60.059375 183.4 77.15 185.53828125 80.42578125 187.8 83.65 193.9302734375 124.951953125 165 146.05 161.646875 148.5142578125 157.8 150.7 174.259765625 175.348828125 197.25 183.55 199.8138671875 180.623046875 202.05 177.7 226.948828125 146.055859375 216.2 118.95
L 191.2 88.3
Q 203.46796875 75.8626953125 233.85 63.75 264.287890625 51.6310546875 268.3 28.65 250.860546875 18.441796875 239.95 2
M -238.05 7.25
Q -238.4595703125 6.265234375 -238.9 5.25 -246.2970703125 13.31484375 -255.5 21.4 -246.121484375 14.6587890625 -238.05 7.25
M -17.75 -96.25
Q -15.1189453125 -91.653125 -12.2 -87.75 -9.3236328125 -88.9212890625 -6.75 -90.2 -9.999609375 -94.14375 -12.9 -98.7 -15.1927734375 -97.4107421875 -17.75 -96.25
M -160.55 -11.95
Q -150.523046875 -65.7931640625 -96.25 -74.55 -40.962890625 -75.91953125 -12.2 -87.75 -15.1189453125 -91.653125 -17.75 -96.25 -46.55625 -83.010546875 -105.25 -81.55 -159.5 -72.8 -169.55 -18.95 -183.1892578125 54.39609375 -201.85 98.4 -211.618359375 121.58046875 -222.8 136.6 -218.848046875 142.243359375 -217.05 147.8 -204.86640625 132.9388671875 -194.3 108.75 -174.71875 64.223828125 -160.55 -11.95
M -30.15 -144.7
L -34 -144.7
Q -28.4142578125 -114.8681640625 -17.75 -96.25 -15.1927734375 -97.4107421875 -12.9 -98.7 -22.059375 -113.159765625 -30.15 -144.7
M -200.1 -59.85
Q -197.456640625 -73.2888671875 -198.8 -82.9 -200.3490234375 -94.1595703125 -205 -90.5 -210.3337890625 -86.0201171875 -222.25 -63.75 -210.021875 -77.457421875 -208.95 -66.5 -205.5498046875 -31.0142578125 -238.9 5.25 -238.4595703125 6.265234375 -238.05 7.25 -228.3580078125 -1.6439453125 -220.55 -11.5 -206.035546875 -29.790625 -200.1 -59.85
M -275.95 -46.2
Q -289.4572265625 -34.0509765625 -307.15 -25.15 -276.555859375 10.812890625 -267.4 29.35 -285.7646484375 40.651953125 -300.55 45.6 -300.2875 82.50703125 -262.1 104.55 -233.917578125 120.815625 -222.8 136.6 -211.618359375 121.58046875 -201.85 98.4 -215.2333984375 82.855859375 -239.2 70.4 -270.8884765625 53.9861328125 -262.75 26.35 -259.0166015625 23.9232421875 -255.5 21.4 -246.2970703125 13.31484375 -238.9 5.25 -248.9931640625 -17.482421875 -275.95 -46.2
M -252.6 -74.65
Q -262.044921875 -58.7041015625 -275.95 -46.2 -248.9931640625 -17.482421875 -238.9 5.25 -205.5498046875 -31.0142578125 -208.95 -66.5 -210.021875 -77.457421875 -222.25 -63.75 -210.3337890625 -86.0201171875 -205 -90.5 -200.3490234375 -94.1595703125 -198.8 -82.9 -197.456640625 -73.2888671875 -200.1 -59.85 -206.035546875 -29.790625 -220.55 -11.5 -228.3580078125 -1.6439453125 -238.05 7.25 -246.121484375 14.6587890625 -255.5 21.4 -259.0166015625 23.9232421875 -262.75 26.35 -270.8884765625 53.9861328125 -239.2 70.4 -215.2333984375 82.855859375 -201.85 98.4 -183.1892578125 54.39609375 -169.55 -18.95 -159.5 -72.8 -105.25 -81.55 -46.55625 -83.010546875 -17.75 -96.25 -28.4142578125 -114.8681640625 -34 -144.7
L -49.9 -144.7 -48.55 -127.2
Q -60.194140625 -120.40625 -104.85 -123.55 -198.5134765625 -129.794921875 -220.55 -118.75 -233.9056640625 -106.089453125 -252.6 -74.65
M 185.55 -19.45
Q 157.7830078125 -83.5837890625 151 -40.2 148.853125 7.5736328125 168.15 49.7 170.6302734375 47.8068359375 173.55 45.9 151.8958984375 -30.754296875 185.55 -19.45
M 46.6 -69.8
Q 18.1994140625 -74.065625 0.85 -94.5 -2.608203125 -98.565234375 -5.65 -103.3 -12.625390625 -114.1783203125 -17.85 -144.7
L -30.15 -144.7
Q -22.059375 -113.159765625 -12.9 -98.7 -9.999609375 -94.14375 -6.75 -90.2 10.7283203125 -69.1478515625 39.55 -64.8 91.124609375 -57.0306640625 101.2 -44.05 113.627734375 -28.4048828125 122.6 36.1 132.489453125 112.825 157.8 150.7 161.646875 148.5142578125 165 146.05 139.52109375 108.185546875 129.6 31.1 120.65 -33.4 108.2 -49.05 98.1 -62.05 46.6 -69.8
M 24.9 -126.95
L 26.2 -144.7 -17.85 -144.7
Q -12.625390625 -114.1783203125 -5.65 -103.3 -2.608203125 -98.565234375 0.85 -94.5 18.1994140625 -74.065625 46.6 -69.8 98.1 -62.05 108.2 -49.05 120.65 -33.4 129.6 31.1 139.52109375 108.185546875 165 146.05 193.9302734375 124.951953125 187.8 83.65 185.53828125 80.42578125 183.4 77.15 174.5958984375 63.7662109375 168.15 49.7 148.853125 7.5736328125 151 -40.2 157.7830078125 -83.5837890625 185.55 -19.45 151.8958984375 -30.754296875 173.55 45.9 187.1873046875 37.1599609375 210.75 29.55 239.3599609375 20.3568359375 239.95 2 223.5548828125 -22.794921875 222 -61.75 220.7791015625 -91.353515625 216.75 -100.9 191.159375 -117.8375 120.65 -117.35 43.602734375 -115.11640625 24.9 -126.95 Z"/>
</g>

<g id="regr_0_Layer0_0_FILL">
<path fill="#CA1616" stroke="none" d="
M 145.4 -144.35
Q 127.85 -146.1 114.95 -148.15 103.35 -150 84.25 -154.05 61.3 -158.85 53.6 -160.3 2.25 -169.75 -52.75 -168.8 -105.15 -167.95 -159.1 -157.7 -170.5 -155.5 -177 -153.25 -186.65 -149.95 -192.9 -144.55 -199.25 -138.95 -198.55 -133.5 -198.15 -130.2 -194.8 -128.5 -191.45 -126.75 -189.15 -128.95 -182.65 -125.9 -178.15 -118.9 -174.25 -112.8 -172.35 -104.6 -171.75 -101.85 -171.25 -100.6 -170.35 -98.45 -168.95 -97.35 -167.85 -96.55 -166.2 -96.2 -165.2 -96 -163.15 -95.85 -126.75 -93.65 -90.4 -96.75 -72.05 -98.3 -60.6 -101.25 -55.3 -102.7 -52.6 -103.3 -47.95 -104.35 -44.45 -104.25 -42.4 -104.15 -38.55 -103.55 -34.6 -102.9 -32.7 -102.8 -29.35 -102.65 -24.9 -103.4 -19.75 -104.4 -17.2 -104.9 8.3 -109.85 33.45 -103.6 41.1 -101.7 54.65 -96.9 69.2 -91.75 75.7 -89.95 95.7 -84.5 116.4 -85.35 122.25 -85.6 126.25 -86.45 131.55 -87.55 135.4 -89.9 139.3 -92.25 143.6 -97.25 146.05 -100.05 150.8 -105.85 155.5 -111 165.1 -118.3 176.15 -126.65 179.95 -130.25 184.55 -134.55 183.2 -137.9 182 -140.9 175.95 -141.45 155.55 -143.3 145.4 -144.35 Z"/>
</g>

<g id="rgfhg_0_Layer13_0_FILL">
<path fill="#10171E" stroke="none" d="
M -1130.85 -12.2
Q -1166.8369140625 -39.4384765625 -1219.3 -49.7 -1270.880859375 -41.71171875 -1309 -12.2 -1297.02734375 22.26015625 -1271.75 51.95
L -1170.45 51.95
Q -1142.9392578125 25.653515625 -1130.85 -12.2 Z"/>

<path fill="#362C13" stroke="none" d="
M -1127.25 -25
Q -1127.9408203125 -25.9255859375 -1128.7 -26.85 -1153.04609375 -57.1119140625 -1219.25 -64 -1278.3068359375 -58.19140625 -1312.35 -29.75 -1313.072265625 -29.12890625 -1313.8 -28.5 -1311.74375 -20.21796875 -1309 -12.2 -1270.880859375 -41.71171875 -1219.3 -49.7 -1166.8369140625 -39.4384765625 -1130.85 -12.2 -1128.829296875 -18.4390625 -1127.25 -25 Z"/>
</g>

<g id="rgfhg_0_Layer12_0_FILL">
<path fill="#193847" stroke="none" d="
M -15.65 -27.35
Q -77.7 -32.85 -138.5 -43.35
L -183.75 -21.85
Q -168.85 8.35 -124.3 21.2 -69.5 37.2 -30.5 65 -26.95 65.45 -23.3 65.65
L -15.65 -27.35 Z"/>

<path fill="#997317" stroke="none" d="
M -183.75 -21.85
L -200.65 -13.85
Q -184.35 27.45 -128.75 42.9 -72.15 58.75 -32.2 85.5 -28.65 85.9 -25 86.15
L -23.3 65.65
Q -26.95 65.45 -30.5 65 -69.5 37.2 -124.3 21.2 -168.85 8.35 -183.75 -21.85 Z"/>
</g>

<g id="rgfhg_0_Layer12_1_FILL">
<path fill="#997317" stroke="none" d="
M 178.55 -11.9
L 160.6 -20.45
Q 147.7 -0.2 121.8 9 86.5 21.5 51.35 43.45 19.438671875 63.1638671875 -13 64
L -13 84.55
Q 19.519140625 83.726171875 52.2 65 89.35 43.65 126.75 31.05 162.35 19.2 178.55 -11.9 Z"/>

<path fill="#193847" stroke="none" d="
M 160.6 -20.45
L 129.8 -35.1
Q 57.8552734375 -28.9005859375 -13 -29.3
L -13 64
Q 19.438671875 63.1638671875 51.35 43.45 86.5 21.5 121.8 9 147.7 -0.2 160.6 -20.45 Z"/>
</g>

<g id="rgfhg_0_Layer11_0_FILL">
<path fill="#232E3B" stroke="none" d="
M 74.05 -110.15
L 51.15 -184.8
Q 8.4 -243.55 -1.55 -246.65 -9.55 -244.5 -57.25 -178.35
L -80.75 -121.15
Q -66.241015625 -89.6796875 -10.7 -41.9
L 3.9 -41.9
Q 44.9666015625 -73.830078125 74.05 -110.15 Z"/>
</g>

<g id="rergf_0_Layer2_0_FILL">
<path fill="#F0BF90" stroke="none" d="
M -33.7 -63.75
Q -37.6650390625 -2.3400390625 -34.7 62.75
L 36.35 65.25
Q 37.6099609375 -5.5 32.6 -63.75
L -33.7 -63.75 Z"/>
</g>

<g id="Mask_rergf_0_1_MASK_0_FILL">
<path fill="#FFFFFF" stroke="none" d="
M -33.7 -63.75
Q -37.6650390625 -2.3400390625 -34.7 62.75
L 36.35 65.25
Q 37.6099609375 -5.5 32.6 -63.75
L -33.7 -63.75 Z"/>
</g>

<g id="rergf_0_Layer1_0_FILL">
<path fill="#D68B67" stroke="none" d="
M 40.75 -21.55
L 51.55 -72.95 -49.45 -72.95 -40.4 -19.6 -0.7 44.5 40.75 -21.55 Z"/>
</g>

<g id="rterytf_0_Layer9_0_FILL">
<path fill="#F0BF90" stroke="none" d="
M 45.2 0.9
L 41.6 2.35
Q 38.474609375 13.266015625 33.5 8.8 34.042578125 6.8505859375 34.55 5.15
L 30.7 6.7 30.7 11.7
Q 32.8 17.75 38.6 14.55 43.8162109375 10.7447265625 45.2 0.9 Z"/>

<path fill="#D68B67" stroke="none" d="
M 39.95 -12
Q 35.25 -12.1 30.7 -4.95
L 30.7 6.7 34.55 5.15
Q 34.042578125 6.8505859375 33.5 8.8 38.474609375 13.266015625 41.6 2.35
L 45.2 0.9
Q 45.46953125 -0.759765625 45.6 -2.6 44.25 -10.45 39.95 -12 Z"/>
</g>

<g id="rterytf_0_Layer9_1_FILL">
<path fill="#F0BF90" stroke="none" d="
M -30.4 3.15
L -35.35 1.85
Q -34.3216796875 4.769140625 -33.2 8.8 -40.6232421875 12.3568359375 -42.2 0
L -45.3 -0.85
Q -45.081640625 11.0005859375 -38.15 14.75 -32.5 17.75 -30.4 11.7
L -30.4 3.15 Z"/>

<path fill="#D68B67" stroke="none" d="
M -45.3 -2.6
Q -45.319140625 -1.7 -45.3 -0.85
L -42.2 0
Q -40.6232421875 12.3568359375 -33.2 8.8 -34.3216796875 4.769140625 -35.35 1.85
L -30.4 3.15 -30.4 -4.95
Q -34.95 -12.1 -39.65 -12 -43.95 -10.45 -45.3 -2.6 Z"/>
</g>

<g id="rterytf_0_Layer8_0_FILL">
<path fill="#482A1B" stroke="none" d="
M 29.6 34.25
L 34.85 14.05 -0.4 23.4 -33.9 14.65 -28.8 35.55 -0.3 74.8 29.6 34.25 Z"/>

<path fill="#F0BF90" stroke="none" d="
M 34.85 14.05
L 35.05 5.7 35.05 5.75 4.7 7.25 -0.4 -8.45 -4.05 3.05 -34.5 5.7 -33.9 14.65 -0.4 23.4 34.85 14.05 Z"/>

<path fill="#D68B67" stroke="none" d="
M 32 -16.4
L 18.9 -53.3 -28.5 -32.15 -34.5 5.7 -4.05 3.05 -0.4 -8.45 4.7 7.25 35.05 5.75 35.05 5.7 34.9 1.25 32 -16.4 Z"/>

<path fill="#573523" stroke="none" d="
M 18.9 -53.3
L 32 -16.4 34.9 1.25 38.2 -48.55 18.05 -74.8 -16.8 -74.8 -38.6 -49.55 -34.5 5.7 -28.5 -32.15 18.9 -53.3 Z"/>
</g>

<g id="retrf_0_Layer8_0_FILL">
<path fill="#FFFFFF" stroke="none" d="
M 20.8 -5.3
Q 18.9 -7.45 16.05 -7.45 13.25 -7.45 11.15 -5.3 9.15 -3.1 9.05 0 8.95 3.05 10.85 5.2 12.8 7.4 15.6 7.4 18.45 7.4 20.45 5.2 22.55 3.05 22.65 0 22.7 -3.1 20.8 -5.3 Z"/>
</g>

<g id="Mask_retrf_0_7_MASK_0_FILL">
<path fill="#FFFFFF" stroke="none" d="
M 20.8 -5.3
Q 18.9 -7.45 16.05 -7.45 13.25 -7.45 11.15 -5.3 9.15 -3.1 9.05 0 8.95 3.05 10.85 5.2 12.8 7.4 15.6 7.4 18.45 7.4 20.45 5.2 22.55 3.05 22.65 0 22.7 -3.1 20.8 -5.3 Z"/>
</g>

<g id="retrf_0_Layer7_0_FILL">
<path fill="#000000" stroke="none" d="
M -2.15 -4.9
Q -4.2 -4.9 -5.65 -3.35 -7.15 -1.75 -7.2 0.5 -7.25 2.7 -5.9 4.25 -4.5 5.85 -2.45 5.85 -0.4 5.85 1.05 4.25 2.55 2.7 2.6 0.5 2.65 -1.75 1.25 -3.35 -0.1 -4.9 -2.15 -4.9 Z"/>
</g>

<g id="retrf_0_Layer5_0_FILL">
<path fill="#000000" stroke="none" d="
M 15.95 -8.55
Q 12.8 -8.6 10.45 -5.85 8.05 -3.1 9.05 0.55 9.7 -3.25 11.45 -5 13.25 -6.8 15.85 -6.6 18.45 -6.45 20.45 -4.55 22.5 -2.7 22.55 1.2 23.6 -3.4 21.35 -5.95 19.1 -8.5 15.95 -8.55 Z"/>
</g>

<g id="retrf_0_Layer3_0_FILL">
<path fill="#FFFFFF" stroke="none" d="
M -15.75 -7.45
Q -18.6 -7.45 -20.45 -5.3 -22.4 -3.1 -22.3 0 -22.25 3.05 -20.15 5.2 -18.15 7.4 -15.3 7.4 -12.45 7.4 -10.55 5.2 -8.65 3.05 -8.75 0 -8.8 -3.1 -10.85 -5.3 -12.9 -7.45 -15.75 -7.45 Z"/>
</g>

<g id="Mask_retrf_0_2_MASK_0_FILL">
<path fill="#FFFFFF" stroke="none" d="
M -15.75 -7.45
Q -18.6 -7.45 -20.45 -5.3 -22.4 -3.1 -22.3 0 -22.25 3.05 -20.15 5.2 -18.15 7.4 -15.3 7.4 -12.45 7.4 -10.55 5.2 -8.65 3.05 -8.75 0 -8.8 -3.1 -10.85 -5.3 -12.9 -7.45 -15.75 -7.45 Z"/>
</g>

<g id="retrf_0_Layer2_0_FILL">
<path fill="#000000" stroke="none" d="
M -2.15 -4.9
Q -4.2 -4.9 -5.65 -3.35 -7.15 -1.75 -7.2 0.5 -7.25 2.7 -5.9 4.25 -4.5 5.85 -2.45 5.85 -0.4 5.85 1.05 4.25 2.55 2.7 2.6 0.5 2.65 -1.75 1.25 -3.35 -0.1 -4.9 -2.15 -4.9 Z"/>
</g>

<g id="retrf_0_Layer0_0_FILL">
<path fill="#000000" stroke="none" d="
M -10.1 -5.85
Q -12.45 -8.6 -15.6 -8.55 -18.75 -8.5 -21.05 -5.95 -23.3 -3.4 -22.25 1.2 -22.2 -2.7 -20.15 -4.55 -18.15 -6.45 -15.5 -6.6 -12.9 -6.8 -11.15 -5 -9.4 -3.25 -8.75 0.55 -7.75 -3.1 -10.1 -5.85 Z"/>
</g>

<g id="rterytf_0_Layer5_0_MEMBER_0_FILL">
<path fill="#FFFFFF" stroke="none" d="
M -18.2 24.85
Q -10.85 30.75 -0.15 30.85 10.55 30.9 18.75 24.75 0.0736328125 30.5572265625 -18.2 24.85 Z"/>
</g>

<g id="rterytf_0_Layer5_0_MEMBER_1_FILL">
<path fill="#261309" stroke="none" d="
M 35.05 13.85
Q 27.45 12 17 14.15 8.95 15.65 -0.35 15.65 -9.75 15.65 -17.8 14.15 -29.5 11.75 -37.65 14.35 -10.05 24.8 -0.45 22.6 9.45 24.75 36.85 14.35 35.95 14.05 35.05 13.85 Z"/>
</g>

<g id="rterytf_0_Layer5_0_MEMBER_2_FILL">
<path fill="#000000" fill-opacity="0.2980392156862745" stroke="none" d="
M 6.8 33.45
L 6.8 33.4
Q 0.132421875 35.3369140625 -7.1 33.4
L -7.05 33.45
Q -0.247265625 38.812109375 6.8 33.45 Z"/>
</g>

<g id="rterytf_0_Layer5_1_FILL">
<path fill="#D68B67" stroke="none" d="
M -0.4 32.7
L 7.1 14.55 -0.4 -8.45 -0.4 32.7 Z"/>

<path fill="#F0BF90" stroke="none" d="
M -7.75 14.6
L -0.4 32.7 -0.4 -8.45 -7.75 14.6 Z"/>
</g>

<g id="rterytf_0_Layer4_0_FILL">
<path fill="#573523" stroke="none" d="
M 1.25 -31.3
Q 13.646875 -43.5138671875 21.35 -47.2
L 37.1 -32.3 38.2 -48.55 26.15 -64.25
Q -5.21796875 -73.5435546875 -21.45 -37.7 -21.70234375 -37.1171875 -21.95 -36.6 -38.08828125 -2.4759765625 -63.7 -45.05 -60.412890625 -9.1203125 -29.3 -9.35 -14.7 -15.25 -0.2 -29.85 0.5345703125 -30.5873046875 1.25 -31.3 Z"/>

<path fill="#675152" stroke="none" d="
M 26.15 -64.25
L 26.15 -82.75
Q -2 -88.5 -27.9 -82.7 -35.38984375 -66.804296875 -34.85 -39.5 -34.8150390625 -37.7970703125 -34.75 -36.05 -49.555078125 -36.3447265625 -63.7 -45.05 -38.08828125 -2.4759765625 -21.95 -36.6 -21.70234375 -37.1171875 -21.45 -37.7 -5.21796875 -73.5435546875 26.15 -64.25 Z"/>
</g>

<g id="rterytf_0_Layer3_0_FILL">
<path fill="#402313" stroke="none" d="
M 26.75 -15.55
Q 22.2712890625 -34.0294921875 13.7 -30.55 5.1166015625 -27.073046875 4.5 -10.6 12.20703125 -20.124609375 18.5 -23.2 22.3111328125 -22.8048828125 26.75 -15.55 Z"/>
</g>

<g id="rterytf_0_Layer2_0_FILL">
<path fill="#402313" stroke="none" d="
M -27.3 -19.4
Q -14.7140625 -23.390625 -5.4 -11 -5.975390625 -19.173046875 -7.1 -23.35 -15.9369140625 -38.5513671875 -27.3 -19.4 Z"/>
</g>

<g id="rgfhg_0_Layer8_0_FILL">
<path fill="#487082" stroke="none" d="
M 113.05 -60.15
Q 74.8638671875 -69.71171875 39.15 -74.3 -2.625 -1.4828125 -37.6 -74.95 -73.5431640625 -70.977734375 -114.5 -60.15 -105.05 29.55 -46 86.85 -5.1271484375 107.41171875 38.55 86.85 97.6 34 113.05 -60.15 Z"/>
</g>

<g id="fgdf_0_Layer0_0_FILL">
<path fill="#487082" stroke="none" d="
M 113.05 -60.15
L 87.35 -10.3 162.35 87.15 202.25 72.2 113.05 -60.15 Z"/>
</g>

<g id="thtg_0_Layer0_0_FILL">
<path fill="#487082" stroke="none" d="
M -89.35 -12
L -114.5 -60.15 -226.5 48.5 -199 67.5 -89.35 -12 Z"/>
</g>

<g id="rgfhg_0_Layer5_0_FILL">
<path fill="#7D6B2C" stroke="none" d="
M 29.85 149.85
Q 30.6904296875 143.19609375 31.7 136.25 -0.3205078125 158.854296875 -33.85 147.25
L -32.4 156.25
Q -0.1296875 174.803515625 29.85 149.85
M 39.45 91.4
Q 40.0740234375 88.260546875 40.7 85.05 -7.4416015625 99.3392578125 -43.65 86.35
L -40.9 103.5
Q 2.7900390625 110.3564453125 39.45 91.4
M 34.05 121.05
Q 36.31171875 107.38515625 39.15 92.8 3.3189453125 113.8974609375 -40.5 106.15
L -39.45 112.7
Q -5.5541015625 128.626953125 34.05 121.05
M 31.95 134.45
Q 32.68515625 129.4900390625 33.5 124.4 -5.384375 132.1654296875 -39.05 115
L -34.5 143.2
Q -0.03359375 154.4494140625 31.95 134.45 Z"/>

<path fill="#63541E" stroke="none" d="
M 43.05 84.35
Q 41.884765625 84.709375 40.7 85.05 40.0740234375 88.260546875 39.45 91.4 2.7900390625 110.3564453125 -40.9 103.5
L -43.65 86.35
Q -47.8302734375 84.861328125 -51.85 83 -50.0373046875 92.692578125 -48.65 102.1 -48.4681640625 103.324609375 -48.3 104.55 -48.0134765625 106.4783203125 -47.75 108.4 -47.6251953125 109.327734375 -47.5 110.25 -45.5693359375 125.083203125 -44.7 139.2 -44.5876953125 140.98828125 -44.5 142.75 -44.3517578125 145.420703125 -44.25 148.05 -38.2927734375 152.872265625 -32.4 156.25
L -33.85 147.25
Q -0.3205078125 158.854296875 31.7 136.25 30.6904296875 143.19609375 29.85 149.85 31.203125 148.76171875 32.55 147.55 32.946875 141.176953125 33.55 134.9 33.6654296875 134.093359375 33.75 133.3 34.247265625 128.695703125 34.85 124.1 35.103125 122.465234375 35.35 120.8 37.5404296875 105.9705078125 41.1 91.6 41.290234375 91.0009765625 41.45 90.35 42.2185546875 87.345703125 43.05 84.35
M 33.5 124.4
Q 32.68515625 129.4900390625 31.95 134.45 -0.03359375 154.4494140625 -34.5 143.2
L -39.05 115
Q -5.384375 132.1654296875 33.5 124.4
M 39.15 92.8
Q 36.31171875 107.38515625 34.05 121.05 -5.5541015625 128.626953125 -39.45 112.7
L -40.5 106.15
Q 3.3189453125 113.8974609375 39.15 92.8 Z"/>
</g>

<g id="rgfhg_0_Layer4_0_FILL">
<path fill="#3E6576" stroke="none" d="
M -26.25 38
Q -25 36.75 -23.75 35.5 -40.4 20.9 -55.4 4.8
L -57.85 6.75
Q -42.6 24 -26.25 38
M -64.25 -11.3
L -64.25 -7.55 -45.75 -4.4 -41.6 -6.55 -64.25 -11.3
M 51.8 3.35
L 49.45 1.9
Q 25.75 28.85 -23.7 60.5 18.25 40.4 51.8 3.35
M 65.3 -7.65
L 65.3 -12.25 34.7 -5.45 42.65 -2.4 65.3 -7.65 Z"/>

<path fill="#D8E6E1" stroke="none" d="
M -4.45 -24.5
L -11.25 -34.7
Q -18.95 -28.3 -26.8 -21.2 -28.8 -23.55 -30.8 -26.15 -23.45 -12.45 -14.05 0.25
L -4.45 -24.5
M 1.6 -24.25
L 11.3 -3.35
Q 19.35 -13.55 26.2 -23.6 25.35 -22.6 24.55 -21.7 17 -28.45 9.75 -35.15
L 1.6 -24.25
M 24.55 -26.7
Q 29.5 -32.5 37.45 -41.65 42.2 -50.05 47.45 -67.05
L 32.95 -88.85
Q 15.5001953125 -48.5607421875 -2.65 -52.1 -20.79609375 -55.5779296875 -32.4 -82.85
L -47.4 -68.95
Q -42.5 -51.1 -39.2 -43.45
L -39.15 -43.4
Q -33.05 -33.4 -26.8 -26.2 -18.95 -33.3 -13.2 -37.6 -3.9 -44.65 -0.2 -44.25 3.3 -43.85 11.55 -37.6 17 -33.45 24.55 -26.7 Z"/>

<path fill="#ACBFB8" stroke="none" d="
M -11.25 -34.7
L -13.2 -37.6
Q -18.95 -33.3 -26.8 -26.2 -33.05 -33.4 -39.15 -43.4 -35.4 -34.6 -30.8 -26.15 -28.8 -23.55 -26.8 -21.2 -18.95 -28.3 -11.25 -34.7
M 37.45 -41.65
Q 29.5 -32.5 24.55 -26.7 17 -33.45 11.55 -37.6
L 9.75 -35.15
Q 17 -28.45 24.55 -21.7 25.35 -22.6 26.2 -23.6 32.35 -32.7 37.45 -41.65 Z"/>

<path fill="#224C5F" stroke="none" d="
M -47.4 -68.95
L -60.8 -56.55
Q -67.05 -35.7 -67.75 -12.05
L -64.25 -11.3 -41.6 -6.55 -45.75 -4.4 -58.05 1.9
Q -56.75 3.35 -55.4 4.8 -40.4 20.9 -23.75 35.5 -12.75 24.6 -3.15 13.85 -8.9 7.2 -14.05 0.25 -23.45 -12.45 -30.8 -26.15 -35.4 -34.6 -39.15 -43.4
L -39.2 -43.45
Q -42.5 -51.1 -47.4 -68.95
M 60.9 -55.7
L 47.45 -67.05
Q 42.2 -50.05 37.45 -41.65 32.35 -32.7 26.2 -23.6 19.35 -13.55 11.3 -3.35 4.5 5.2 -3.15 13.85 -12.75 24.6 -23.75 35.5 -25 36.75 -26.25 38 -27.25 38.9 -28.2 39.85
L -26.3 62.15 -22.2 91.8 -19.8 91.8 -24.6 61.05
Q -24.139453125 60.7705078125 -23.7 60.5 25.75 28.85 49.45 1.9 50 1.25 50.55 0.6
L 42.65 -2.4 34.7 -5.45 65.3 -12.25 66 -12.4
Q 65.8 -16.9 65.3 -22.5 65.3 -22.65 65.3 -22.8 64.05 -36.05 60.9 -55.7 Z"/>

<path fill="#16292A" stroke="none" d="
M 9.75 -35.15
L 11.55 -37.6
Q 3.3 -43.85 -0.2 -44.25 -3.9 -44.65 -13.2 -37.6
L -11.25 -34.7 -4.45 -24.5 -14.05 0.25
Q -8.9 7.2 -3.15 13.85 4.5 5.2 11.3 -3.35
L 1.6 -24.25 9.75 -35.15 Z"/>
</g>

<g id="rgfhg_0_Layer3_0_FILL">
<path fill="#1E3A47" stroke="none" d="
M -64.9 -169
Q -33.755078125 -208.0771484375 -2.9 -230.75 7.3314453125 -261.023046875 1.85 -256.85 -12.0771484375 -246.0755859375 -39.55 -218.15
L -64.9 -169 Z"/>

<path fill="#172D38" stroke="none" d="
M -121.4 -58.8
L -90.2 -15.2
Q -53.001171875 -22.787109375 -12 -39.5 -40.23046875 -57.6466796875 -58.3 -75.35
L -121.4 -58.8
M 53 -76.5
Q 46.881640625 -70.5203125 40.05 -64.7 16.0021484375 -44.0947265625 10.05 -39.5 48.11796875 -23.744140625 89.85 -14.4
L 112.05 -58.9 53 -76.5 Z"/>

<path fill="#E9B941" stroke="none" d="
M 64.35 -162.35
Q 64.183984375 -162.601953125 64 -162.85 52.9388671875 -179.560546875 35.85 -197.35 18.53125 -215.4353515625 4.8 -236.15 0.962109375 -233.581640625 -2.9 -230.75 -33.755078125 -208.0771484375 -64.9 -169 -67.359765625 -165.8798828125 -69.85 -162.65
L -72.8 -158.8
Q -80.8 -140.05 -87.3 -118.05 -80.4421875 -97.0359375 -58.3 -75.35 -40.23046875 -57.6466796875 -12 -39.5
L 10.05 -39.5
Q 16.0021484375 -44.0947265625 40.05 -64.7 46.881640625 -70.5203125 53 -76.5 68.403125 -91.5861328125 79.25 -107.55 75.82265625 -133.9140625 68.3 -156.3
L 64.35 -162.35
M 69.75 -112.75
Q 69.584765625 -112.5130859375 69.4 -112.3 45.69453125 -78.438671875 8.5 -43
L 5.75 -43 -6.85 -43 -9.95 -43
Q -53.7921875 -78.896875 -75.25 -118 -75.675390625 -118.75859375 -76.1 -119.55 -75.7341796875 -120.392578125 -75.35 -121.25 -58.649609375 -157.803515625 0.1 -210.3 14.303125 -188.6634765625 40.9 -164.15 66.13515625 -140.8970703125 69.45 -115.5 69.6345703125 -114.1283203125 69.75 -112.75 Z"/>

<path fill="#AF8828" stroke="none" d="
M 69.4 -112.3
Q 69.584765625 -112.5130859375 69.75 -112.75 69.6345703125 -114.1283203125 69.45 -115.5 66.13515625 -140.8970703125 40.9 -164.15 14.303125 -188.6634765625 0.1 -210.3 -58.649609375 -157.803515625 -75.35 -121.25 -75.7341796875 -120.392578125 -76.1 -119.55 -75.675390625 -118.75859375 -75.25 -118 -53.7921875 -78.896875 -9.95 -43
L -6.85 -43
Q -52.968359375 -81.469140625 -74.45 -119.75 -57.0609375 -155.7259765625 0.1 -206.8 14.3 -185.15 40.9 -160.65 64.7029296875 -138.726171875 68.05 -114.2 45.3060546875 -81.375 5.75 -43
L 8.5 -43
Q 45.69453125 -78.438671875 69.4 -112.3 Z"/>

<path fill="#244859" stroke="none" d="
M 48.6 -209.7
Q 26.5638671875 -233.191796875 8.25 -265.1 -26.625390625 -239.6494140625 -40.95 -220.9 -55.2431640625 -196.1 -66.4 -170.7 -68.37890625 -166.18359375 -69.85 -162.65 -67.359765625 -165.8798828125 -64.9 -169
L -39.55 -218.15
Q -12.0771484375 -246.0755859375 1.85 -256.85 7.3314453125 -261.023046875 -2.9 -230.75 0.962109375 -233.581640625 4.8 -236.15 18.53125 -215.4353515625 35.85 -197.35 52.9388671875 -179.560546875 64 -162.85 63.3087890625 -163.991796875 62.7 -165.55 53.4302734375 -189.3021484375 48.6 -209.7 Z"/>
</g>

<g id="rgfhg_0_Layer3_0_MEMBER_0_FILL">
<path fill="#FFEDAD" stroke="none" d="
M 6.8 -227.8
L 4.05 -211
Q 8.9447265625 -203.5654296875 35.3 -175.15
L 34 -176.35
Q 34.356640625 -175.9787109375 34.7 -175.65 41.306640625 -169.775 59.25 -149.5
L 59.2 -149.6
Q 61.62890625 -146.40390625 63.8 -143.2
L 65.8 -154
Q 59.9783203125 -164.12734375 52.1 -173.7 52.0236328125 -169.0490234375 51.75 -162.6
L 46.8 -171.3
Q 46.690234375 -176.127734375 46.65 -180.05 41.866796875 -185.3908203125 36.4 -190.55 31.8853515625 -194.810546875 27.8 -199.25 28.8630859375 -192.933984375 29.9 -186 12.9671875 -210.483984375 12.1 -219.15 9.280859375 -223.4076171875 6.8 -227.8 Z"/>
</g>

<g id="rgfhg_0_Layer3_0_MEMBER_1_FILL">
<path fill="#D6DEE2" stroke="none" d="
M 21.6 -12.85
Q 21.6 -5.8 25.75 -0.85 29.9 4.15 35.75 4.15 41.6 4.15 45.75 -0.85 49.9 -5.8 49.9 -12.85 49.9 -19.85 45.75 -24.8 41.6 -29.8 35.75 -29.8 29.9 -29.8 25.75 -24.8 21.6 -19.85 21.6 -12.85
M 26.7 -3.25
Q 22.9 -7.2 22.9 -12.85 22.9 -18.45 26.7 -22.4 30.4 -26.4 35.8 -26.4 41.1 -26.4 44.85 -22.4 48.65 -18.45 48.65 -12.85 48.65 -7.2 44.85 -3.25 41.1 0.75 35.8 0.75 30.4 0.75 26.7 -3.25 Z"/>

<path fill="#9EBDCD" stroke="none" d="
M 22.9 -12.85
Q 22.9 -7.2 26.7 -3.25 30.4 0.75 35.8 0.75 41.1 0.75 44.85 -3.25 48.65 -7.2 48.65 -12.85 48.65 -18.45 44.85 -22.4 41.1 -26.4 35.8 -26.4 30.4 -26.4 26.7 -22.4 22.9 -18.45 22.9 -12.85 Z"/>
</g>

<g id="rgfhg_0_Layer3_0_MEMBER_1_MEMBER_0_FILL">
<path fill="#FFFFFF" stroke="none" d="
M -441.25 6
Q -441.162890625 -2.8625 -435.55 -8.05 -446.71796875 -5.809375 -441.25 6 Z"/>
</g>

<g id="rgfhg_0_Layer3_1_FILL">
<path fill="#675152" stroke="none" d="
M -63.7 -181.6
Q -53.069921875 -164.0380859375 -43.75 -160.3
L -34.35 -173.1
Q -49.55 -172.9 -63.7 -181.6 Z"/>

<path fill="#573523" stroke="none" d="
M -50 -151.7
L -43.75 -160.3
Q -53.069921875 -164.0380859375 -63.7 -181.6 -61.7427734375 -160.2783203125 -50 -151.7 Z"/>
</g>

<g id="rgfhg_0_Layer2_0_FILL">
<path fill="#244859" stroke="none" d="
M -1066.75 60.45
Q -1087.1767578125 30.859765625 -1100.4 26.45 -1120.1517578125 19.971484375 -1156 17.75 -1167.3484375 48.0845703125 -1192.85 76.6
L -1176.25 76.6
Q -1175.0064453125 101.6064453125 -1168.55 121.65 -1147.1283203125 111.4080078125 -1127.9 93.6 -1095.8005859375 63.9958984375 -1066.75 60.45 Z"/>

<path fill="#DDB143" stroke="none" d="
M -1061.95 60.45
L -1066.75 60.45
Q -1095.8005859375 63.9958984375 -1127.9 93.6 -1147.1283203125 111.4080078125 -1168.55 121.65 -1175.0064453125 101.6064453125 -1176.25 76.6
L -1192.85 76.6
Q -1189.3431640625 114.978515625 -1178.75 146.2 -1149.623828125 135.398046875 -1109.05 101.6 -1068.4279296875 67.796484375 -1039.5 81.75 -1049.724609375 70.7673828125 -1061.95 60.45 Z"/>

<path fill="#AA8B3C" stroke="none" d="
M -1040.45 83.8
L -1039.5 81.75
Q -1068.4279296875 67.796484375 -1109.05 101.6 -1149.623828125 135.398046875 -1178.75 146.2
L -1176.95 147.65
Q -1149.6 137.9 -1109 104.1 -1069.1083984375 70.848828125 -1040.45 83.8 Z"/>
</g>

<g id="rgfhg_0_Layer2_1_FILL">
<path fill="#AA8B3C" stroke="none" d="
M -1261.3 142.35
L -1259.05 140.6
Q -1285.3 131.95 -1329 107.1 -1372.7 82.2 -1414.2 93.05
L -1413.05 95.3
Q -1372.1 85.05 -1329 109.6 -1287.2 133.4 -1261.3 142.35 Z"/>

<path fill="#244859" stroke="none" d="
M -1262.15 76.6
L -1248.1 76.6
Q -1272.7 51 -1285.5 19.5 -1317.7 22.55 -1337.45 29.4 -1352 35.55 -1384.2 73.45 -1352.7 74.9 -1321.75 92.35 -1290.8 109.75 -1268.9 117.75 -1264.8 99.4 -1262.15 76.6 Z"/>

<path fill="#DDB143" stroke="none" d="
M -1248.1 76.6
L -1262.15 76.6
Q -1264.8 99.4 -1268.9 117.75 -1290.8 109.75 -1321.75 92.35 -1352.7 74.9 -1384.2 73.45
L -1390.3 73.1
Q -1404.4 80.6 -1414.2 93.05 -1372.7 82.2 -1329 107.1 -1285.3 131.95 -1259.05 140.6 -1251.25 112.65 -1248.1 76.6 Z"/>
</g>

<g id="rgfhg_0_Layer1_0_FILL">
<path fill="#DDB143" stroke="none" d="
M -51.65 -49.2
Q -47.6 -37.6 -44 -15.85 -40.05 -13 -36.05 -11.1
L -30.8 -11.1
Q -30.25 -30.7 -37.45 -53.5 -81.7 -83.75 -95.75 -122.15 -94.7 -108.75 -92.3 -96.7 -79.35 -69.95 -51.65 -49.2
M 27.05 -11.1
L 33 -11.1
Q 37.75 -14.8 42.1 -18.6 41.65 -27.65 45.2 -46.2 73.2 -59.2 86.55 -96.9 88.75 -106.9 90.8 -118.65 81.75 -82 32.95 -52.5 25.05 -29.3 27.05 -11.1
M 25.8 -11.1
Q 25.7 -12.35 25.6 -13.6 -0.85 -1.2 -29.1 -13.6 -29.05 -12.35 -29.05 -11.1 -16.6 -3.15 -3.7 -2.65 0.55 -2.55 4.8 -3.15 15.15 -4.8 25.8 -11.1 Z"/>

<path fill="#C29933" stroke="none" d="
M -36.45 -56
L -37.45 -53.5
Q -30.25 -30.7 -30.8 -11.1
L -29.05 -11.1
Q -29.05 -12.35 -29.1 -13.6 -29.65 -34.5 -36.45 -56
M 32.95 -52.5
L 31.7 -55
Q 24.3 -33.2 25.6 -13.6 25.7 -12.35 25.8 -11.1
L 27.05 -11.1
Q 25.05 -29.3 32.95 -52.5 Z"/>

<path fill="#244859" stroke="none" d="
M -92.3 -96.7
Q -88.95 -79.55 -82.75 -65.15 -63.05 -29.55 -44 -15.85 -47.6 -37.6 -51.65 -49.2 -79.35 -69.95 -92.3 -96.7
M 45.2 -46.2
Q 41.65 -27.65 42.1 -18.6 64.85 -38.75 76.55 -63.25 81.95 -76.45 86.55 -96.9 73.2 -59.2 45.2 -46.2 Z"/>

<path fill="#F3D07B" stroke="none" d="
M -94.25 -123.4
Q -95 -122.8 -95.75 -122.15 -81.7 -83.75 -37.45 -53.5
L -36.45 -56
Q -80 -85.75 -94.25 -123.4
M 90.8 -118.65
Q 90.1 -119.6 89.4 -120.45 80.05 -84.25 31.7 -55
L 32.95 -52.5
Q 81.75 -82 90.8 -118.65 Z"/>
</g>

<g id="rgfhg_0_Layer1_0_MEMBER_0_FILL">
<path fill="#000000" fill-opacity="0.2980392156862745" stroke="none" d="
M -82.3 -65.4
L -82.3 -65.35
Q -84.4123046875 -70.2642578125 -86.75 -75.4 -85.4005859375 -70.0525390625 -83.2 -64.95
L -83.2 -64.95 -83.2 -64.9
Q -63.416796875 -29.1830078125 -44.3 -15.45
L -43.7 -16.25
Q -62.67109375 -29.917578125 -82.3 -65.4
M 77 -63.05
Q 79.0970703125 -68.117578125 80.7 -74.6 78.0798828125 -68.3486328125 76.05 -63.45
L 76.1 -63.5
Q 64.441796875 -39.058203125 41.75 -19
L 42.4 -18.25
Q 65.2578125 -38.441796875 77 -63.05
L 77 -63.05 77 -63.05 Z"/>
</g>

<g id="rgfhg_0_Layer1_1_FILL">
<path fill="#D6DEE2" stroke="none" d="
M 21.6 -12.85
Q 21.6 -5.8 25.75 -0.85 29.9 4.15 35.75 4.15 41.6 4.15 45.75 -0.85 49.9 -5.8 49.9 -12.85 49.9 -19.85 45.75 -24.8 41.6 -29.8 35.75 -29.8 29.9 -29.8 25.75 -24.8 21.6 -19.85 21.6 -12.85
M 26.7 -3.25
Q 22.9 -7.2 22.9 -12.85 22.9 -18.45 26.7 -22.4 30.4 -26.4 35.8 -26.4 41.1 -26.4 44.85 -22.4 48.65 -18.45 48.65 -12.85 48.65 -7.2 44.85 -3.25 41.1 0.75 35.8 0.75 30.4 0.75 26.7 -3.25 Z"/>

<path fill="#9EBDCD" stroke="none" d="
M 22.9 -12.85
Q 22.9 -7.2 26.7 -3.25 30.4 0.75 35.8 0.75 41.1 0.75 44.85 -3.25 48.65 -7.2 48.65 -12.85 48.65 -18.45 44.85 -22.4 41.1 -26.4 35.8 -26.4 30.4 -26.4 26.7 -22.4 22.9 -18.45 22.9 -12.85 Z"/>
</g>

<g id="rgfhg_0_Layer1_1_MEMBER_0_FILL">
<path fill="#FFFFFF" stroke="none" d="
M -441.25 6
Q -441.162890625 -2.8625 -435.55 -8.05 -446.71796875 -5.809375 -441.25 6 Z"/>
</g>

<g id="rgfhg_0_Layer1_2_FILL">
<path fill="#D6DEE2" stroke="none" d="
M 21.6 -12.85
Q 21.6 -5.8 25.75 -0.85 29.9 4.15 35.75 4.15 41.6 4.15 45.75 -0.85 49.9 -5.8 49.9 -12.85 49.9 -19.85 45.75 -24.8 41.6 -29.8 35.75 -29.8 29.9 -29.8 25.75 -24.8 21.6 -19.85 21.6 -12.85
M 26.7 -3.25
Q 22.9 -7.2 22.9 -12.85 22.9 -18.45 26.7 -22.4 30.4 -26.4 35.8 -26.4 41.1 -26.4 44.85 -22.4 48.65 -18.45 48.65 -12.85 48.65 -7.2 44.85 -3.25 41.1 0.75 35.8 0.75 30.4 0.75 26.7 -3.25 Z"/>

<path fill="#9EBDCD" stroke="none" d="
M 22.9 -12.85
Q 22.9 -7.2 26.7 -3.25 30.4 0.75 35.8 0.75 41.1 0.75 44.85 -3.25 48.65 -7.2 48.65 -12.85 48.65 -18.45 44.85 -22.4 41.1 -26.4 35.8 -26.4 30.4 -26.4 26.7 -22.4 22.9 -18.45 22.9 -12.85 Z"/>
</g>

<g id="rgfhg_0_Layer1_2_MEMBER_0_FILL">
<path fill="#FFFFFF" stroke="none" d="
M -441.25 6
Q -441.162890625 -2.8625 -435.55 -8.05 -446.71796875 -5.809375 -441.25 6 Z"/>
</g>

<g id="trytjg_0_Layer0_0_FILL">
<path fill="#FF2727" stroke="none" d="
M -465.35 350.45
Q -465.35 376.85 -446.75 395.45 -428.1 414.1 -401.7 414.1 -375.3 414.1 -356.7 395.45 -338.05 376.85 -338.05 350.45 -338.05 324.1 -356.7 305.4 -375.3 286.85 -401.7 286.85 -428.1 286.85 -446.75 305.4 -465.35 324.1 -465.35 350.45
M -443.3 373.95
Q -461.45 363.7 -460 341.1 -458.55 318.5 -441.85 304.5 -425.2 290.45 -401.25 290.85 -377.35 291.2 -360.35 305.5 -343.4 319.8 -344.4 340.15 -345.4 360.45 -361.2 370.55 -377 380.6 -401.05 382.4 -425.15 384.15 -443.3 373.95 Z"/>

<path fill="#FF9D9D" stroke="none" d="
M -460 341.1
Q -461.45 363.7 -443.3 373.95 -425.15 384.15 -401.05 382.4 -377 380.6 -361.2 370.55 -345.4 360.45 -344.4 340.15 -343.4 319.8 -360.35 305.5 -377.35 291.2 -401.25 290.85 -425.2 290.45 -441.85 304.5 -458.55 318.5 -460 341.1 Z"/>
</g>

<g id="trytjg_0_Layer0_0_MEMBER_0_FILL">
<path fill="#B40E0E" stroke="none" d="
M -633 389.05
Q -649.3005859375 381.1927734375 -645.55 389.1 -643.574609375 393.23984375 -637.9 397.9 -622.161328125 410.815625 -598.6 410.85 -577.75703125 411.116015625 -564.85 400.7 -559.7763671875 396.462109375 -556.6 391.85 -549.426171875 381.585546875 -572.4 392.7 -598.9189453125 405.5287109375 -633 389.05 Z"/>
</g>

<g id="trytjg_0_Layer0_0_MEMBER_1_FILL">
<path fill="#EE7171" stroke="none" d="
M -573.25 305.75
Q -574.8 303.35 -577.6 301.85 -585.25 297.55 -594.2 296.55 -603.1 295.5 -613.95 297.75 -622.85 299.7 -631.05 305 -639.2 310.3 -644.85 318 -648.2 322.55 -647 325.6 -645.15 330.05 -635.65 329.6 -626.15 329.15 -611.85 326.05 -597.55 322.9 -588.35 319.1 -579.2 315.25 -576.35 313.5 -573.5 311.7 -572.85 310.75 -571.45 308.5 -573.25 305.75 Z"/>
</g>

<g id="FDFG_0_Layer0_0_FILL">
<path fill="#770404" stroke="none" d="
M -579.3 367.25
Q -579.2251953125 367.2572265625 -579.15 367.25 -579.1765625 367.05078125 -579.1 366.8 -578.8013671875 365.8462890625 -579.3 367.25
M -576.7 314
Q -571.5802734375 316.8486328125 -568.5 321.5 -565.37265625 326.1970703125 -563.7 330.65 -561.9890625 335.15625 -561.7 337.2 -561.3568359375 339.300390625 -561.7 344.9 -561.993359375 350.498828125 -568.3 358.6 -574.6095703125 366.694140625 -576.9 367.4 -575.6169921875 367.4908203125 -574.75 367.25 -573.2 366.85 -571.25 365 -566.7 360.75 -563.75 355.2 -560.8 349.6 -559.85 343.5 -559.25 339.95 -559.55 336.9 -559.75 334.55 -560.7 331.5 -562.95 324.35 -567.95 318.4 -570.95 314.8 -574.15 312.7 -577.75 310.35 -582.1 309.45 -586.45 308.55 -590.7 309.35 -594.95 310.15 -598.75 312.5 -602.5 314.85 -605.05 318.35 -607.5 321.8 -608.05 325.15 -608.85 329.75 -606.4 334.7 -604.55 338.6 -601.3 341.4 -597.9 344.25 -593.85 345.1 -589.65 346 -585.55 344.45 -581.3 342.9 -579.05 339.4 -577.65 337.15 -577.35 334.6 -577 331.85 -578.05 329.6 -579 327.65 -580.8 326.3 -582.6 324.95 -584.75 324.65 -586.45 324.4 -588.1 324.9 -589.8 325.45 -590.9 326.65 -592.1 327.9 -592.35 329.65 -592.6 331.45 -591.75 332.85 -591.05 333.9 -589.95 334.5 -588.8 335.1 -587.55 335 -586.3 334.95 -585.25 334.2 -584.25 333.5 -583.7 332.35 -583.5 331.8 -583.65 331.6 -583.85 331.35 -584.6 331.45 -586.1544921875 331.75546875 -588.4 331.15 -590.5869140625 330.5814453125 -590.3 329.2 -590.0109375 327.8255859375 -588.85 327.1 -587.6455078125 326.36640625 -586.25 326.45 -584.7994140625 326.5365234375 -583.05 327.5 -581.2544921875 328.51328125 -579.9 330.5 -578.5447265625 332.487109375 -579.6 335.85 -580.6517578125 339.253515625 -583.7 341.3 -586.70078125 343.4025390625 -589.9 343.25 -593.0482421875 343.0955078125 -596.95 341.35 -600.8056640625 339.6060546875 -603.3 335.6 -605.7859375 331.646875 -606.2 329.2 -606.614453125 326.7615234375 -605.45 322.9 -604.2833984375 319.081640625 -599.65 315.6 -595.0244140625 312.175 -588.45 311.65 -581.8123046875 311.155859375 -576.7 314 Z"/>
</g>

<g id="FDFG_0_Layer0_1_FILL">
<path fill="#770404" stroke="none" d="
M -543.2 345.8
L -544.2 343.7
Q -543.65 346.05 -543.4 349.8 -543.25 351.75 -543.3 353.35 -543.5 355.35 -544.45 357.95 -544.85 359.35 -545.4 359.95 -546.1 361 -547.95 361.65 -551.45 363.05 -554.25 362.45 -555.85 362.15 -557.15 361.1 -558.5 360.05 -559 358.55 -559.25 357.85 -559.35 356.4 -559.35 354.6 -559 353.05 -558.5 350.45 -556.9 349.95 -555.5 349.4 -554.25 350.6 -553.25 351.6 -553.1 353.25 -553 354.95 -553.95 355.45 -554.55 355.75 -555.2 355.35 -555.85 355 -555.9 354.35 -555.85 353.95 -555.85 353.7 -555.85 353.35 -556.05 353.2 -557.15 354.05 -556.8 355.4 -556.6 356.15 -555.9 356.65 -555.25 357.15 -554.45 357.15 -553.15 357.15 -552.3 356.15 -551.6 355.15 -551.6 353.7 -551.6 351.95 -552.35 350.65 -553.2 349.15 -554.7 348.7 -555.5 348.45 -556.7 348.55 -557.35 348.55 -557.9 348.75 -558.45 348.95 -559.1 349.5 -561 351.4 -560.9 355.2 -560.9 359.8 -558.2 362 -557.65 362.45 -556.15 363.2
L -555 363.7
Q -551.7 365 -546.95 362.8 -544.9 361.75 -544 360.65 -543.6 360.05 -543.1 358.75 -541.85 355.45 -541.8 352.5 -541.8 351.6 -542 349.8 -542.15 348.35 -542.5 347.3 -542.75 346.6 -543.2 345.8 Z"/>
</g>

<g id="FDFG_0_Layer0_2_FILL">
<path fill="#770404" stroke="none" d="
M -573.2 395.3
Q -582.034765625 391.6140625 -572.1 381.65 -579.317578125 384.805078125 -577.15 393.25 -576.3 396.45 -573.5 396.95 -557.6150390625 399.13515625 -553.15 383.2 -548.7150390625 367.5494140625 -564.4 365.65 -562.7478515625 366.2865234375 -556.3 371.85 -549.7986328125 377.456640625 -557.1 388.25 -564.3556640625 399.044140625 -573.2 395.3
M -569.05 382.2
L -570.4 381.05
Q -571.18203125 381.2935546875 -571.9 381.6 -568.508984375 384.0345703125 -569.5 387.85
L -572.3 389.85 -571.75 389.95
Q -571.55 389.85 -571.3 389.75 -566 387.25 -569.05 382.2 Z"/>
</g>

<g id="FDFG_0_Layer0_3_FILL">
<path fill="#770404" stroke="none" d="
M -615.5 350.2
Q -613.103515625 349.3513671875 -611.65 348.8 -610.14921875 348.299609375 -608.1 347.95 -608.85 347.95 -612.15 347.7 -614.6 347.45 -616.15 347.7 -619.5 348.2 -623.15 351.25 -626.6 354.2 -629.25 358.7 -631.85 363.2 -632.95 368.2 -634.1 373.35 -633.45 378.35 -632.75 383.5 -630.3 388 -627.8 392.65 -623.85 395.8 -619.8 399.05 -614.75 400.3 -609.6 401.65 -604.65 400.6 -598.2 399.25 -593.2 394.15 -588.35 389.2 -586.7 382.6 -584.95 375.7 -587.3 369.95 -588.55 366.9 -590.85 364.65 -593.3 362.3 -596.35 361.4 -599.25 360.6 -602.3 361.2 -605.35 361.8 -607.85 363.6 -610.25 365.35 -611.9 368 -613.5 370.6 -614.1 373.6 -614.65 376.25 -614.15 378.6 -613.65 381.2 -611.95 382.8 -610.15 384.55 -607.45 384.6 -604.75 384.65 -602.9 383 -602.1 382.3 -602.5 381.75 -603.75 382.6 -605.4 382.45 -607 382.3 -608.25 381.35 -610.75 379.45 -610.85 375.95 -611 373.2 -609.35 370 -608.25 367.9 -606.95 366.65 -604.5 364.35 -600.85 364.05 -597.3 363.8 -594.35 365.6 -591.5 367.35 -589.8 370.5 -588.15 373.5 -588.05 377 -587.85 383.55 -592.45 389.6 -595.1 393.05 -598.65 395.15 -602.4470703125 397.3505859375 -606.6 398.2 -610.711328125 399.04765625 -614.85 398.1 -618.98046875 397.2041015625 -623.2 393.9 -627.423046875 390.5939453125 -630.2 383.3 -632.9333984375 376.053515625 -630.8 368.45 -628.6548828125 360.848828125 -626 357.95 -623.35546875 355.1037109375 -620.6 353.1 -617.844140625 351.096875 -615.5 350.2 Z"/>
</g>

<g id="FDFG_0_Layer0_4_FILL">
<path fill="#770404" stroke="none" d="
M -626.95 311
Q -623.25 313.9 -621 319.45 -617.85 327.1 -619.05 334.45 -619.55 337.7 -621 340.15 -622.7 342.95 -625.3 344.05 -627.85 345.1 -630.75 344.3 -633.6 343.5 -635.5 341.35 -637.3 339.35 -638.1 336.45 -638.85 333.75 -638.6 330.85 -638.35 327.6 -636.95 325.35 -635.6 323.15 -633.3 322.3 -632.15 321.9 -630.95 322 -629.7 322.05 -628.65 322.7 -626.6 324 -625.75 327.6 -625.3 329.4 -625.65 330.6 -625.85 331.35 -626.4 331.85 -627 332.45 -627.75 332.5 -628.5 332.55 -629.1 331.95 -629.65 331.3 -629.45 330.6 -630.05 331.25 -629.85 332.3 -629.7 333.25 -628.9 333.8 -628.15 334.3 -627.15 334.2 -626.2 334.1 -625.45 333.5 -624.05 332.4 -623.8 330.3 -623.4 326.95 -626.1 323.25 -628.8 319.8 -631.65 319.6 -633.55 319.5 -635.35 320.8 -636.95 321.9 -638.1 323.8 -640.65 327.9 -640.35 333 -640.05 338.1 -637.05 341.85 -634.85 344.6 -631.65 345.8 -628.2 347.1 -625.2 345.95 -623.35 345.25 -621.4 343.3 -616.85 338.55 -616.45 331.1 -616.1 324.9 -619.1 318.05 -621.4 312.8 -624.75 309.7 -628.95 305.8 -633.85 305.75 -638.5 305.7 -642.75 309 -646.1 311.7 -648.8 316.4 -653.2 324 -654.45 333.5 -655.65 342.3 -653.95 351.6 -651.7 363.8 -645.15 368.85 -643.45 370.2 -641.95 370.45 -647.1482421875 364.34453125 -650.3 356.15 -653.4080078125 348.01640625 -652.95 337.95 -652.49375 327.8779296875 -649.75 321.25 -646.9529296875 314.6814453125 -643.2 311.95 -639.399609375 309.211328125 -636.85 308.6 -634.3 308.045703125 -631.6 308.7 -629.1 309.3 -626.95 311 Z"/>
</g>

<g id="FDFG_0_Layer0_5_FILL">
<path fill="#770404" stroke="none" d="
M -609.1 296.35
Q -609.3 296.3 -610.55 295.9 -611.45 295.65 -612 295.7 -612.75 295.8 -614.25 296.85 -615.65 297.95 -616.25 298.65 -618 300.6 -618.4 303.6 -618.9 306.6 -617.9 309.05 -616.75 311.9 -614.2 313 -613.55 313.25 -612.25 313.55 -611 313.85 -610.5 313.9 -608.65 314.1 -606.95 313.1 -605.3 312.15 -604.5 310.45 -603.7 308.75 -603.8 305.9 -603.8 304.15 -604.3 303.3 -605.3 301.55 -607.6 301.45 -608.85 301.45 -609.55 301.95 -610.35 302.5 -610.5 303.6 -610.7 304.6 -610.3 305.6
L -609.85 305.55
Q -609.7 304.75 -609.05 304.25 -608.45 303.75 -607.65 303.7 -606.9 303.65 -606.25 304.15 -605.55 304.65 -605.35 305.4 -605.25 305.85 -605.25 306.8 -605.35 308.05 -605.45 308.3 -605.6 308.95 -605.95 309.5 -606.65 310.85 -607.6 311.55 -609.2 312.65 -611.7 312.1 -612.7 311.9 -613.15 311.6 -614.05 311.1 -614.9 309.7 -616.6 307.05 -616.75 304.65 -616.9 301.5 -614.8 299.75 -614.55 299.55 -613.25 298.7 -612.25 297.95 -611.9 297.75 -611.75 297.7 -610.4 297.15 -609.5 296.85 -609.1 296.35 Z"/>
</g>

<g id="trytjg_0_Layer0_1_MEMBER_1_FILL">
<path fill="#770404" stroke="none" d="
M -579.3 367.25
Q -579.2251953125 367.2572265625 -579.15 367.25 -579.1765625 367.05078125 -579.1 366.8 -578.8013671875 365.8462890625 -579.3 367.25
M -576.7 314
Q -571.5802734375 316.8486328125 -568.5 321.5 -565.37265625 326.1970703125 -563.7 330.65 -561.9890625 335.15625 -561.7 337.2 -561.3568359375 339.300390625 -561.7 344.9 -561.993359375 350.498828125 -568.3 358.6 -574.6095703125 366.694140625 -576.9 367.4 -575.6169921875 367.4908203125 -574.75 367.25 -573.2 366.85 -571.25 365 -566.7 360.75 -563.75 355.2 -560.8 349.6 -559.85 343.5 -559.25 339.95 -559.55 336.9 -559.75 334.55 -560.7 331.5 -562.95 324.35 -567.95 318.4 -570.95 314.8 -574.15 312.7 -577.75 310.35 -582.1 309.45 -586.45 308.55 -590.7 309.35 -594.95 310.15 -598.75 312.5 -602.5 314.85 -605.05 318.35 -607.5 321.8 -608.05 325.15 -608.85 329.75 -606.4 334.7 -604.55 338.6 -601.3 341.4 -597.9 344.25 -593.85 345.1 -589.65 346 -585.55 344.45 -581.3 342.9 -579.05 339.4 -577.65 337.15 -577.35 334.6 -577 331.85 -578.05 329.6 -579 327.65 -580.8 326.3 -582.6 324.95 -584.75 324.65 -586.45 324.4 -588.1 324.9 -589.8 325.45 -590.9 326.65 -592.1 327.9 -592.35 329.65 -592.6 331.45 -591.75 332.85 -591.05 333.9 -589.95 334.5 -588.8 335.1 -587.55 335 -586.3 334.95 -585.25 334.2 -584.25 333.5 -583.7 332.35 -583.5 331.8 -583.65 331.6 -583.85 331.35 -584.6 331.45 -586.1544921875 331.75546875 -588.4 331.15 -590.5869140625 330.5814453125 -590.3 329.2 -590.0109375 327.8255859375 -588.85 327.1 -587.6455078125 326.36640625 -586.25 326.45 -584.7994140625 326.5365234375 -583.05 327.5 -581.2544921875 328.51328125 -579.9 330.5 -578.5447265625 332.487109375 -579.6 335.85 -580.6517578125 339.253515625 -583.7 341.3 -586.70078125 343.4025390625 -589.9 343.25 -593.0482421875 343.0955078125 -596.95 341.35 -600.8056640625 339.6060546875 -603.3 335.6 -605.7859375 331.646875 -606.2 329.2 -606.614453125 326.7615234375 -605.45 322.9 -604.2833984375 319.081640625 -599.65 315.6 -595.0244140625 312.175 -588.45 311.65 -581.8123046875 311.155859375 -576.7 314 Z"/>
</g>

<g id="trytjg_0_Layer0_1_MEMBER_2_FILL">
<path fill="#770404" stroke="none" d="
M -543.2 345.8
L -544.2 343.7
Q -543.65 346.05 -543.4 349.8 -543.25 351.75 -543.3 353.35 -543.5 355.35 -544.45 357.95 -544.85 359.35 -545.4 359.95 -546.1 361 -547.95 361.65 -551.45 363.05 -554.25 362.45 -555.85 362.15 -557.15 361.1 -558.5 360.05 -559 358.55 -559.25 357.85 -559.35 356.4 -559.35 354.6 -559 353.05 -558.5 350.45 -556.9 349.95 -555.5 349.4 -554.25 350.6 -553.25 351.6 -553.1 353.25 -553 354.95 -553.95 355.45 -554.55 355.75 -555.2 355.35 -555.85 355 -555.9 354.35 -555.85 353.95 -555.85 353.7 -555.85 353.35 -556.05 353.2 -557.15 354.05 -556.8 355.4 -556.6 356.15 -555.9 356.65 -555.25 357.15 -554.45 357.15 -553.15 357.15 -552.3 356.15 -551.6 355.15 -551.6 353.7 -551.6 351.95 -552.35 350.65 -553.2 349.15 -554.7 348.7 -555.5 348.45 -556.7 348.55 -557.35 348.55 -557.9 348.75 -558.45 348.95 -559.1 349.5 -561 351.4 -560.9 355.2 -560.9 359.8 -558.2 362 -557.65 362.45 -556.15 363.2
L -555 363.7
Q -551.7 365 -546.95 362.8 -544.9 361.75 -544 360.65 -543.6 360.05 -543.1 358.75 -541.85 355.45 -541.8 352.5 -541.8 351.6 -542 349.8 -542.15 348.35 -542.5 347.3 -542.75 346.6 -543.2 345.8 Z"/>
</g>

<g id="trytjg_0_Layer0_1_MEMBER_3_FILL">
<path fill="#770404" stroke="none" d="
M -573.2 395.3
Q -582.034765625 391.6140625 -572.1 381.65 -579.317578125 384.805078125 -577.15 393.25 -576.3 396.45 -573.5 396.95 -557.6150390625 399.13515625 -553.15 383.2 -548.7150390625 367.5494140625 -564.4 365.65 -562.7478515625 366.2865234375 -556.3 371.85 -549.7986328125 377.456640625 -557.1 388.25 -564.3556640625 399.044140625 -573.2 395.3
M -569.05 382.2
L -570.4 381.05
Q -571.18203125 381.2935546875 -571.9 381.6 -568.508984375 384.0345703125 -569.5 387.85
L -572.3 389.85 -571.75 389.95
Q -571.55 389.85 -571.3 389.75 -566 387.25 -569.05 382.2 Z"/>
</g>

<g id="trytjg_0_Layer0_1_MEMBER_4_FILL">
<path fill="#770404" stroke="none" d="
M -615.5 350.2
Q -613.103515625 349.3513671875 -611.65 348.8 -610.14921875 348.299609375 -608.1 347.95 -608.85 347.95 -612.15 347.7 -614.6 347.45 -616.15 347.7 -619.5 348.2 -623.15 351.25 -626.6 354.2 -629.25 358.7 -631.85 363.2 -632.95 368.2 -634.1 373.35 -633.45 378.35 -632.75 383.5 -630.3 388 -627.8 392.65 -623.85 395.8 -619.8 399.05 -614.75 400.3 -609.6 401.65 -604.65 400.6 -598.2 399.25 -593.2 394.15 -588.35 389.2 -586.7 382.6 -584.95 375.7 -587.3 369.95 -588.55 366.9 -590.85 364.65 -593.3 362.3 -596.35 361.4 -599.25 360.6 -602.3 361.2 -605.35 361.8 -607.85 363.6 -610.25 365.35 -611.9 368 -613.5 370.6 -614.1 373.6 -614.65 376.25 -614.15 378.6 -613.65 381.2 -611.95 382.8 -610.15 384.55 -607.45 384.6 -604.75 384.65 -602.9 383 -602.1 382.3 -602.5 381.75 -603.75 382.6 -605.4 382.45 -607 382.3 -608.25 381.35 -610.75 379.45 -610.85 375.95 -611 373.2 -609.35 370 -608.25 367.9 -606.95 366.65 -604.5 364.35 -600.85 364.05 -597.3 363.8 -594.35 365.6 -591.5 367.35 -589.8 370.5 -588.15 373.5 -588.05 377 -587.85 383.55 -592.45 389.6 -595.1 393.05 -598.65 395.15 -602.4470703125 397.3505859375 -606.6 398.2 -610.711328125 399.04765625 -614.85 398.1 -618.98046875 397.2041015625 -623.2 393.9 -627.423046875 390.5939453125 -630.2 383.3 -632.9333984375 376.053515625 -630.8 368.45 -628.6548828125 360.848828125 -626 357.95 -623.35546875 355.1037109375 -620.6 353.1 -617.844140625 351.096875 -615.5 350.2 Z"/>
</g>

<g id="trytjg_0_Layer0_1_MEMBER_5_FILL">
<path fill="#770404" stroke="none" d="
M -626.95 311
Q -623.25 313.9 -621 319.45 -617.85 327.1 -619.05 334.45 -619.55 337.7 -621 340.15 -622.7 342.95 -625.3 344.05 -627.85 345.1 -630.75 344.3 -633.6 343.5 -635.5 341.35 -637.3 339.35 -638.1 336.45 -638.85 333.75 -638.6 330.85 -638.35 327.6 -636.95 325.35 -635.6 323.15 -633.3 322.3 -632.15 321.9 -630.95 322 -629.7 322.05 -628.65 322.7 -626.6 324 -625.75 327.6 -625.3 329.4 -625.65 330.6 -625.85 331.35 -626.4 331.85 -627 332.45 -627.75 332.5 -628.5 332.55 -629.1 331.95 -629.65 331.3 -629.45 330.6 -630.05 331.25 -629.85 332.3 -629.7 333.25 -628.9 333.8 -628.15 334.3 -627.15 334.2 -626.2 334.1 -625.45 333.5 -624.05 332.4 -623.8 330.3 -623.4 326.95 -626.1 323.25 -628.8 319.8 -631.65 319.6 -633.55 319.5 -635.35 320.8 -636.95 321.9 -638.1 323.8 -640.65 327.9 -640.35 333 -640.05 338.1 -637.05 341.85 -634.85 344.6 -631.65 345.8 -628.2 347.1 -625.2 345.95 -623.35 345.25 -621.4 343.3 -616.85 338.55 -616.45 331.1 -616.1 324.9 -619.1 318.05 -621.4 312.8 -624.75 309.7 -628.95 305.8 -633.85 305.75 -638.5 305.7 -642.75 309 -646.1 311.7 -648.8 316.4 -653.2 324 -654.45 333.5 -655.65 342.3 -653.95 351.6 -651.7 363.8 -645.15 368.85 -643.45 370.2 -641.95 370.45 -647.1482421875 364.34453125 -650.3 356.15 -653.4080078125 348.01640625 -652.95 337.95 -652.49375 327.8779296875 -649.75 321.25 -646.9529296875 314.6814453125 -643.2 311.95 -639.399609375 309.211328125 -636.85 308.6 -634.3 308.045703125 -631.6 308.7 -629.1 309.3 -626.95 311 Z"/>
</g>

<g id="trytjg_0_Layer0_1_MEMBER_6_FILL">
<path fill="#770404" stroke="none" d="
M -609.1 296.35
Q -609.3 296.3 -610.55 295.9 -611.45 295.65 -612 295.7 -612.75 295.8 -614.25 296.85 -615.65 297.95 -616.25 298.65 -618 300.6 -618.4 303.6 -618.9 306.6 -617.9 309.05 -616.75 311.9 -614.2 313 -613.55 313.25 -612.25 313.55 -611 313.85 -610.5 313.9 -608.65 314.1 -606.95 313.1 -605.3 312.15 -604.5 310.45 -603.7 308.75 -603.8 305.9 -603.8 304.15 -604.3 303.3 -605.3 301.55 -607.6 301.45 -608.85 301.45 -609.55 301.95 -610.35 302.5 -610.5 303.6 -610.7 304.6 -610.3 305.6
L -609.85 305.55
Q -609.7 304.75 -609.05 304.25 -608.45 303.75 -607.65 303.7 -606.9 303.65 -606.25 304.15 -605.55 304.65 -605.35 305.4 -605.25 305.85 -605.25 306.8 -605.35 308.05 -605.45 308.3 -605.6 308.95 -605.95 309.5 -606.65 310.85 -607.6 311.55 -609.2 312.65 -611.7 312.1 -612.7 311.9 -613.15 311.6 -614.05 311.1 -614.9 309.7 -616.6 307.05 -616.75 304.65 -616.9 301.5 -614.8 299.75 -614.55 299.55 -613.25 298.7 -612.25 297.95 -611.9 297.75 -611.75 297.7 -610.4 297.15 -609.5 296.85 -609.1 296.35 Z"/>
</g>

<g id="trytjg_0_Layer0_2_MEMBER_0_FILL">
<path fill="#FFFFFF" stroke="none" d="
M -608.2 293.05
Q -615.35 293.8 -620.75 296.6 -622.45 297.6 -622.75 298.6 -623 299.45 -622.55 300.3 -622.15 301.15 -621.35 301.6 -620.25 302.15 -618 302.35 -604.75 303.45 -594.1 299.6 -592.25 298.85 -591.6 298.1 -591 297.55 -590.9 296.8 -590.75 296 -591.1 295.35 -591.6 294.6 -593.35 294.1 -600.5 292.4 -608.2 293.05 Z"/>
</g>

<g id="trytjg_0_Layer0_2_MEMBER_1_FILL">
<path fill="#FFFFFF" stroke="none" d="
M -636.2 305.55
Q -640.085546875 308.344140625 -641.65 311.65 -644.1412109375 316.98671875 -637.5 314.65 -631.2056640625 312.2953125 -627.45 307.05 -623.956640625 302.31640625 -628.9 302.5 -632.0150390625 302.74765625 -636.2 305.55 Z"/>
</g>

<g id="trytjg_0_Layer0_2_MEMBER_2_FILL">
<path fill="#FFFFFF" fill-opacity="0.6980392156862745" stroke="none" d="
M -607.25 403.25
L -599.7 397.95
Q -650.291796875 384.11015625 -653.6 338.8 -661.46796875 370.75078125 -639.6 387.3 -626.5986328125 399.838671875 -607.25 403.25
M -601.45 404.05
Q -593.448828125 404.85859375 -584.45 404.25 -572.91953125 402.74609375 -567.5 397.75 -584.730859375 397.86640625 -593.95 398.2
L -601.45 404.05 Z"/>
</g>

<g id="fegf_0_Layer12_0_FILL">
<path fill="#7B0505" stroke="none" d="
M -122.5 -10
L -80.6 -19.3
Q -104 -18.95 -122.5 -10 Z"/>
</g>

<g id="fegf_0_Layer10_0_FILL">
<path fill="#7B0505" stroke="none" d="
M -41.35 -21.4
Q -41.1388671875 -22.197265625 -40.85 -23.05 -56.027734375 -22.14296875 -70.85 -18.2
L -41.35 -21.4 Z"/>
</g>

<g id="fegf_0_Layer9_0_FILL">
<path fill="#7B0505" stroke="none" d="
M 47.45 12.5
Q 66.85 13.05 76.55 10.8 86.35 8.5 87.3 8.1
L 47.45 12.5 Z"/>
</g>

<g id="fegf_0_Layer8_0_FILL">
<path fill="#7B0505" stroke="none" d="
M 57.05 -29.4
Q 57.234375 -28.9111328125 57.45 -28.3 57.7716796875 -27.36171875 58.05 -26.7 71.9646484375 -24.690625 86.75 -24.5 80.45 -26.7 75.2 -27.65 66.2078125 -29.4484375 57.05 -29.4 Z"/>
</g>

<g id="fegf_0_Layer7_0_FILL">
<path fill="#7B0505" stroke="none" d="
M 8.15 -4.8
Q 15.2 -5.1 18 -6.75 17.3 -6.9 10.95 -7.35 4.75 -7.8 -4.3 -7 1.2 -4.5 8.15 -4.8 Z"/>
</g>

<g id="fegf_0_Layer6_0_FILL">
<path fill="#7B0505" stroke="none" d="
M 58.45 -30.25
Q 61.4 -31.75 62.15 -35.3 63.5 -43.45 52.5 -46.6 58.95 -43.25 60.75 -39 62.4 -35.05 58.45 -30.25 Z"/>
</g>

<g id="fegf_0_Layer4_0_FILL">
<path fill="#7B0505" stroke="none" d="
M -82.55 21.1
Q -104.4 30.5 -91.05 42.65 -98.75 28.6 -79.35 19.85 -82 20.9 -82.55 21.1 Z"/>
</g>

<g id="asAD_0_Layer2_0_FILL">
<path fill="#A2C5D0" stroke="none" d="
M -171.2 109.15
Q -187.670703125 108.7869140625 -201.05 103.85 -203.2947265625 103.0291015625 -205.45 102.05
L -206.65 101.6 -229.65 108.9
Q -210.082421875 115.9458984375 -190.55 116.55 -180.859765625 114.301953125 -171.2 109.15
M -151.25 96.4
Q -146.53359375 91.6455078125 -143.75 89.05 -155.4806640625 90.5421875 -166.95 88.3
L -166.95 88.3 -167.5 88.15
Q -169.3439453125 87.794921875 -171.2 87.3
L -196.55 101.35
Q -182.3017578125 107.03359375 -164.45 107.4 -156.9798828125 102.175390625 -151.25 96.4
M -141.7 87.2
Q -140.103515625 87.0841796875 -138.55 86.9 -122.193359375 71.0171875 -104.75 62.1
L -104.75 53.5 -162.35 85.75
Q -152.1416015625 87.97421875 -141.7 87.2 Z"/>

<path fill="#7FA2AD" stroke="none" d="
M -196.55 101.35
L -201.05 103.85
Q -187.670703125 108.7869140625 -171.2 109.15 -169.113671875 109.22265625 -167 109.2 -165.6841796875 108.32109375 -164.45 107.4 -182.3017578125 107.03359375 -196.55 101.35
M -138.55 86.9
Q -140.103515625 87.0841796875 -141.7 87.2 -152.1416015625 87.97421875 -162.35 85.75
L -166.95 88.3
Q -155.4806640625 90.5421875 -143.75 89.05 -141.93515625 88.812109375 -140.15 88.5 -139.3333984375 87.685546875 -138.55 86.9 Z"/>

<path fill="#C0DCE5" stroke="none" d="
M -171.2 87.3
Q -177.637890625 85.6375 -184 82.75 -176.4736328125 61.253515625 -154.75 46.8 -164.6861328125 47.3119140625 -172.1 48.35 -199.2751953125 67.5076171875 -211.05 93.5 -204.338671875 98.22265625 -196.55 101.35
L -171.2 87.3
M -180.75 51.6
Q -189.6841796875 53.0720703125 -198.3 54.3 -226.87578125 69.4330078125 -247.55 101.05 -238.582421875 105.6498046875 -229.65 108.9
L -206.65 101.6 -205.45 102.05
Q -211.891796875 99.233984375 -217.55 95.25 -206.2548828125 70.29453125 -180.75 51.6
M -104.75 37.05
Q -127.937890625 42.1341796875 -148.5 44.4 -170.414453125 58.9138671875 -178 80.5 -170.253515625 84.01953125 -162.35 85.75
L -104.75 53.5 -104.75 37.05 Z"/>

<path fill="#A0C2CD" stroke="none" d="
M -172.1 48.35
Q -174.8740234375 48.7322265625 -177.3 49.2 -179.03828125 50.398828125 -180.75 51.6 -206.2548828125 70.29453125 -217.55 95.25 -211.891796875 99.233984375 -205.45 102.05 -203.2947265625 103.0291015625 -201.05 103.85
L -196.55 101.35
Q -204.338671875 98.22265625 -211.05 93.5 -199.2751953125 67.5076171875 -172.1 48.35
M -151.45 44.75
Q -153.12109375 45.7693359375 -154.75 46.8 -176.4736328125 61.253515625 -184 82.75 -177.637890625 85.6375 -171.2 87.3 -169.3439453125 87.794921875 -167.5 88.15
L -166.95 88.3 -166.95 88.3 -162.35 85.75
Q -170.253515625 84.01953125 -178 80.5 -170.414453125 58.9138671875 -148.5 44.4 -149.9767578125 44.5982421875 -151.45 44.75 Z"/>
</g>

<g id="asAD_0_Layer2_0_MEMBER_0_FILL">
<path fill="#B4D4DF" stroke="none" d="
M -176.9 68.4
Q -177.3625 69.1220703125 -177.8 69.8 -174.9712890625 68.958984375 -172.1 68.05 -171.641796875 67.34296875 -171.2 66.6
L -176.9 68.4
M -207.55 78.05
Q -207.863671875 78.5078125 -208.2 78.95 -204.894921875 77.9865234375 -201.55 76.95 -201.1525390625 76.4658203125 -200.8 75.95
L -207.55 78.05
M -197.75 72
Q -195.0158203125 68.6146484375 -191.95 65.35 -195.5302734375 66.4990234375 -198.8 67.45 -201.6509765625 70.5322265625 -204.25 73.7 -201.046875 72.9142578125 -197.75 72
M -162.55 55.9
Q -165.1134765625 56.740234375 -168.15 57.7 -171.54921875 61.1455078125 -174.4 64.85
L -174.35 64.85
Q -171.6326171875 63.965234375 -168.65 62.95 -165.869140625 59.298828125 -162.55 55.9 Z"/>

<path fill="#DCF2F7" stroke="none" d="
M -177.8 69.8
Q -177.3625 69.1220703125 -176.9 68.4
L -200.8 75.95
Q -201.1525390625 76.4658203125 -201.55 76.95 -190.18203125 73.6185546875 -177.8 69.8
M -105.8 47.05
Q -114.05 48.65 -129.8 53.6
L -171.2 66.6
Q -171.641796875 67.34296875 -172.1 68.05 -141.9166015625 58.7755859375 -105.8 47.05
M -174.4 64.85
Q -171.54921875 61.1455078125 -168.15 57.7 -172.590234375 59.1765625 -178.05 60.95 -185.5349609375 63.3884765625 -191.95 65.35 -195.0158203125 68.6146484375 -197.75 72 -195.306640625 71.32890625 -192.8 70.6 -186.39296875 68.73671875 -174.4 64.85
M -207.45 70
Q -217.9896484375 72.9626953125 -225.6 74.2 -227.96328125 76.499609375 -230.25 78.9 -228.3015625 78.745703125 -226.1 78.4 -215.97578125 76.7353515625 -204.25 73.7 -201.6509765625 70.5322265625 -198.8 67.45 -203.45703125 68.878515625 -207.45 70
M -104.75 44.75
L -104.75 39.9
Q -124.169921875 43.6849609375 -148.8 51.45 -150.0296875 51.848828125 -162.55 55.9 -165.869140625 59.298828125 -168.65 62.95 -164.5974609375 61.655859375 -160.05 60.15 -126.511328125 49.04921875 -104.75 44.75 Z"/>

<path fill="#EAF9FD" stroke="none" d="
M -208.2 78.95
Q -207.863671875 78.5078125 -207.55 78.05
L -232.6 85.95
Q -221.099609375 82.7380859375 -208.2 78.95 Z"/>
</g>

<g id="asAD_0_Layer2_0_MEMBER_1_FILL">
<path fill="#A2C5D0" stroke="none" d="
M -140.5 53.8
L -139 77.05 -107.2 60.1 -114.75 42.05 -140.5 53.8 Z"/>
</g>

<g id="asAD_0_Layer2_1_MEMBER_0_FILL">
<path fill="#F2C191" stroke="none" d="
M -140 53.05
Q -139.3921875 56.1373046875 -138.45 58.8 -118.816796875 63.874609375 -96.45 55.65
L -65.5 23.3
Q -90.6279296875 33.9107421875 -116.75 39.55 -131.3220703125 46.7912109375 -140 53.05 Z"/>

<path fill="#D68B67" stroke="none" d="
M -53.85 30.2
L -65.5 23.3 -96.45 55.65
Q -118.816796875 63.874609375 -138.45 58.8 -135.7490234375 66.4484375 -130.3 70.6 -120.5498046875 73.3720703125 -110.8 73.65 -97.15 64.8388671875 -83.5 63.55 -61.7869140625 43.923046875 -53.85 30.2 Z"/>
</g>

<g id="asAD_0_Layer2_1_MEMBER_1_FILL">
<path fill="#F2C191" stroke="none" d="
M -39 24.9
Q -17.5388671875 17.47890625 -6.15 6.05 -6.2892578125 2.189453125 -8.95 -1.25 -32.45 17.1 -65.5 23.35
L -75.35 31.45
Q -56.0025390625 25.90859375 -39 24.9 Z"/>

<path fill="#D68B67" stroke="none" d="
M -10.15 16.9
Q -5.9798828125 11.1130859375 -6.15 6.05 -17.5388671875 17.47890625 -39 24.9 -56.0025390625 25.90859375 -75.35 31.45
L -67.7 34.3
Q -51.45 30 -38.6 29.25 -18.9 24.45 -10.15 16.9 Z"/>
</g>

<g id="asAD_0_Layer2_1_MEMBER_2_FILL">
<path fill="#F2C191" stroke="none" d="
M -13.05 34.25
Q -8.69296875 30.185546875 -6.5 25.4 -41.1 34.6 -74.95 29.65
L -83.05 35.55 -92.8 49.1
Q -77.828125 44.7564453125 -60.25 49.1 -44.9 50.4587890625 -29.55 46.05 -22.175 44.953515625 -14.8 36.75 -31.7880859375 39.6435546875 -47.8 39.55
L -13.05 34.25 Z"/>

<path fill="#D68B67" stroke="none" d="
M -6.5 25.4
Q -8.69296875 30.185546875 -13.05 34.25
L -47.8 39.55
Q -31.7880859375 39.6435546875 -14.8 36.75 -22.175 44.953515625 -29.55 46.05 -44.9 50.4587890625 -60.25 49.1 -77.828125 44.7564453125 -92.8 49.1 -76.45 50.45 -61.15 56.25 -46.05 59.4 -29.9 55.15 -22.85 52.1 -17.9 44.5 -3.5 37.25 -6.5 25.4 Z"/>
</g>

<g id="asAD_0_Layer2_1_MEMBER_2_MEMBER_0_FILL">
<path fill="#D68B67" stroke="none" d="
M -47.75 39.55
Q -62.9177734375 39.098046875 -77.2 36.3
L -83.2 36
Q -66.1146484375 39.993359375 -47.75 39.55 Z"/>
</g>

<g id="asAD_0_Layer2_1_MEMBER_3_FILL">
<path fill="#F2C191" stroke="none" d="
M -60.95 71.4
Q -54.2568359375 68.4734375 -48.95 63.3 -78.2833984375 56.492578125 -96.5 44.05
L -104.75 55.55
Q -102.6046875 56.751953125 -100.65 57.9 -88.4724609375 59.433984375 -82.35 63.1 -75.36328125 69.366796875 -60.95 71.4 Z"/>

<path fill="#D68B67" stroke="none" d="
M -60.45 77.45
Q -49.9138671875 73.2021484375 -48.95 63.3 -54.2568359375 68.4734375 -60.95 71.4 -75.36328125 69.366796875 -82.35 63.1 -88.4724609375 59.433984375 -100.65 57.9 -89.1529296875 64.8078125 -84.65 70.4 -75.039453125 76.15078125 -60.45 77.45 Z"/>
</g>

<g id="Mask_asAD_0_1_MASK_0_FILL">
<path fill="#FFFFFF" stroke="none" d="
M 61.25 -34.35
L 61.05 -34.1 61.25 -34.3
Q 61.3 -34.3 61.35 -34.3
L 61.25 -34.35
M 37.4 -9.4
Q 37.25 -9.4 37.1 -9.35 43.9 -5.5 51.95 -2.25
L 77.75 5.7
Q 72.4751953125 10.8109375 65.8 13.75 51.4 11.7 44.4 5.45 44.2 5.35 44 5.25 37.9 1.75 26.1 0.3 25.65 0 25.15 -0.25 23.55 0.2 22 0.65 4.85 5.1 -10.6 1.45 -11.15 1.3 -11.7 1.15 -9 8.8 -3.55 12.95
L -35.6 28.1 -40.15 30.65 -40.2 30.65 -40.75 30.55
Q -42.6 30.15 -44.4 29.7
L -74.3 46.2
Q -76.55 45.4 -78.7 44.45
L -79.9 43.95 -102.85 51.25 -77.65 103.45 177.5 -5.85 120.6 -51.6
Q 109.2 -40.15 87.75 -32.75 78.35 -32.2 68.2 -30.25 62.2 -29.1 55.95 -27.45 64.05 -26.45 72.2 -26.3 93.8640625 -24.8154296875 120.25 -32.25 118.05 -27.45 113.7 -23.4 104.6 -12.7 97.2 -11.6 81.85 -7.2 66.5 -8.55 62.9 -9.45 59.45 -9.95 47.8 -11.7 37.4 -9.4 Z"/>
</g>

<g id="tyrtfgff_0_Layer0_0_FILL">
<path fill="#C81111" stroke="none" d="
M 70.05 -21.75
Q 54.9 -22.2 40.6 -25
L 34.65 -25.25
Q 51.7 -21.3 70.05 -21.75
M 52.3 -38
L 52.1 -37.75 52.3 -37.95
Q 52.35 -37.95 52.4 -37.95
L 52.3 -38
M 63.25 -29.95
L 63.3 -30
Q 71.8 -31.6 79.2 -32.05 98.9 -36.85 107.65 -44.4 111.8 -50.2 111.65 -55.25 100.25 -43.8 78.8 -36.4 69.4 -35.85 59.25 -33.9 53.25 -32.75 47 -31.1 55.1 -30.1 63.25 -29.95
M 28.45 -13.05
Q 28.3 -13.05 28.15 -13 34.95 -9.15 43 -5.9 44.35 -7.3 45.7 -8.6 51.25 -7.1 56.65 -5.05 71.75 -1.9 87.9 -6.15 94.95 -9.2 99.9 -16.8 114.3 -24.05 111.3 -35.9 109.1 -31.1 104.75 -27.05
L 70.05 -21.7
Q 86 -21.65 103 -24.55 95.65 -16.35 88.25 -15.25 72.9 -10.85 57.55 -12.2 53.95 -13.1 50.5 -13.6 38.85 -15.35 28.45 -13.05
M -19.55 -2.2
Q -20.1 -2.35 -20.65 -2.5 -17.95 5.15 -12.5 9.3
L -44.55 24.45 -49.1 27 -49.15 27 -49.7 26.9
Q -51.55 26.5 -53.35 26.05
L -83.25 42.55
Q -85.5 41.75 -87.65 40.8
L -88.85 40.3 -111.8 47.6
Q -92.3 54.65 -72.75 55.25 -63.05 53 -53.35 47.9 -51.3 47.9 -49.2 47.9 -47.9 47 -46.6 46.15 -39.2 40.9 -33.45 35.1 -28.75 30.35 -25.9 27.75 -24.15 27.5 -22.35 27.2 -21.55 26.4 -20.7 25.6 -12.4 17.55 -3.85 11.25 1.6 12.2 7 12.35 17.1 5.85 27.2 3.45 31 6.4 33.15 9.1 42.75 14.85 57.35 16.15 67.9 11.9 68.85 2 63.55 7.15 56.85 10.1 42.45 8.05 35.45 1.8 35.25 1.7 35.05 1.6 28.95 -1.9 17.15 -3.35 16.7 -3.65 16.2 -3.9 14.6 -3.45 13.05 -3 -4.1 1.45 -19.55 -2.2 Z"/>
</g>

<g id="fgfgg_0_Layer2_0_FILL">
<path fill="#80A5B0" stroke="none" d="
M 49.6 6.05
Q 44.6 2.7 38.2 0.05 12 17.25 -19.55 31.15
L -16.3 35.45 49.6 6.05
M 84.65 -37.15
Q 92.2 -35.75 98.85 -33.4 113.95 -44.95 122.95 -55.35 115.85 -59.55 106.75 -61.65 96.55 -48.85 84.65 -37.15
M 43.6 -3.55
Q 47.85 -2.15 52.05 -0.4 75.1 -13.55 95.5 -26.05 88.05 -29.65 79.05 -31.8 62.85 -16.75 43.6 -3.55 Z"/>

<path fill="#5E808B" stroke="none" d="
M 98.85 -33.4
Q 92.2 -35.75 84.65 -37.15 81.9 -34.45 79.05 -31.8 88.05 -29.65 95.5 -26.05 99.55 -28.55 103.5 -31
L 98.85 -33.4
M 122.95 -55.35
Q 126 -58.9 128.35 -62.3 120.7 -66.55 112.25 -68.8 109.55 -65.2 106.75 -61.65 115.85 -59.55 122.95 -55.35
M 52.05 -0.4
Q 47.85 -2.15 43.6 -3.55 40.95 -1.75 38.2 0.05 44.6 2.7 49.6 6.05
L 57.7 2.45 52.05 -0.4 Z"/>

<path fill="#C0DCE5" stroke="none" d="
M 74.25 -63.15
Q 66.8 -51.2 55.9 -39 71.6 -39.55 84.65 -37.15 96.55 -48.85 106.75 -61.65 92.85 -64.85 74.25 -63.15
M 43.6 -3.55
Q 62.85 -16.75 79.05 -31.8 67 -34.7 52.15 -34.9 47.3 -29.75 41.8 -24.5 33.2 -16.3 23.85 -8.45 33.9 -6.85 43.6 -3.55
M 17.8 -9.25
Q 19.7 -9.05 21.65 -8.75 36 -21.6 48.8 -34.95 46.4 -34.95 44 -34.85 32.55 -22.05 17.8 -9.25
M 18.3 -5.8
Q 16.5 -6.2 14.65 -6.5 -3.1 8.5 -25.35 23.45
L -19.55 31.15
Q 12 17.25 38.2 0.05 30.25 -3.25 20.2 -5.4 5.85 6.35 -10.15 17.35 4.75 6 18.3 -5.8
M 10.05 -7.25
Q 7.05 -7.75 3.9 -8.1 -10.9 6 -28.8 18.95
L -26.9 21.45
Q -7.15 8.25 10.05 -7.25
M 36.7 -34.5
Q 32.2 -34.2 27.45 -33.7 17.65 -21.45 5.8 -9.95 9.25 -9.9 12.7 -9.7 25.4 -21.45 36.7 -34.5
M 73.3 -63.05
Q 68.95 -62.65 64.4 -62 57.15 -50.25 47.15 -38.5 49.85 -38.75 52.5 -38.85 63.55 -50.75 73.3 -63.05
M 57.05 -60.8
Q 50.9 -59.65 44.4 -58.1 37.7 -46.95 29.5 -36.35 34.6 -37.15 39.45 -37.75 48.75 -48.8 57.05 -60.8 Z"/>

<path fill="#A0C2CD" stroke="none" d="
M 55.9 -39
Q 54.05 -37 52.15 -34.9 67 -34.7 79.05 -31.8 81.9 -34.45 84.65 -37.15 71.6 -39.55 55.9 -39
M 48.8 -34.95
Q 50.65 -36.9 52.5 -38.85 49.85 -38.75 47.15 -38.5 45.6 -36.7 44 -34.85 46.4 -34.95 48.8 -34.95
M 23.85 -8.45
Q 22.05 -6.95 20.2 -5.4 30.25 -3.25 38.2 0.05 40.95 -1.75 43.6 -3.55 33.9 -6.85 23.85 -8.45
M 17.8 -9.25
Q 16.25 -7.9 14.65 -6.5 16.5 -6.2 18.3 -5.8 19.95 -7.3 21.65 -8.75 19.7 -9.05 17.8 -9.25
M 3.9 -8.1
Q 7.05 -7.75 10.05 -7.25 11.4 -8.45 12.7 -9.7 9.25 -9.9 5.8 -9.95 4.85 -9.05 3.9 -8.1
M 36.7 -34.5
Q 38.1 -36.1 39.45 -37.75 34.6 -37.15 29.5 -36.35 28.5 -35.05 27.45 -33.7 32.2 -34.2 36.7 -34.5
M 64.4 -62
Q 68.95 -62.65 73.3 -63.05 75.25 -65.6 77.2 -68.1 75.8 -65.65 74.25 -63.15 92.85 -64.85 106.75 -61.65 109.55 -65.2 112.25 -68.8 92.6 -74.1 68.4 -68.85 66.5 -65.45 64.4 -62
M 44.4 -58.1
Q 50.9 -59.65 57.05 -60.8 59.25 -63.95 61.35 -67.15 54.35 -65.3 46.95 -62.55 45.7 -60.3 44.4 -58.1 Z"/>

<path fill="#B4D4DF" stroke="none" d="
M 52.5 -38.85
Q 50.65 -36.9 48.8 -34.95 50.5 -34.95 52.15 -34.9 54.05 -37 55.9 -39 54.2 -38.95 52.5 -38.85
M 18.3 -5.8
Q 19.25 -5.65 20.2 -5.4 22.05 -6.95 23.85 -8.45 22.75 -8.6 21.65 -8.75 19.95 -7.3 18.3 -5.8
M 17.8 -9.25
Q 15.25 -9.55 12.7 -9.7 11.4 -8.45 10.05 -7.25 12.4 -6.95 14.65 -6.5 16.25 -7.9 17.8 -9.25
M 39.45 -37.75
Q 38.1 -36.1 36.7 -34.5 40.4 -34.75 44 -34.85 45.6 -36.7 47.15 -38.5 43.35 -38.2 39.45 -37.75
M 68.4 -68.85
Q 64.9 -68.15 61.35 -67.15 59.25 -63.95 57.05 -60.8 60.8 -61.5 64.4 -62 66.5 -65.45 68.4 -68.85
M 73.3 -63.05
Q 73.8 -63.1 74.25 -63.15 75.8 -65.65 77.2 -68.1 75.25 -65.6 73.3 -63.05 Z"/>

<path fill="#DCF2F7" stroke="none" d="
M 21.65 -8.75
Q 22.75 -8.6 23.85 -8.45 33.2 -16.3 41.8 -24.5 47.3 -29.75 52.15 -34.9 50.5 -34.95 48.8 -34.95 36 -21.6 21.65 -8.75
M 14.65 -6.5
Q 12.4 -6.95 10.05 -7.25 -7.15 8.25 -26.9 21.45
L -25.35 23.45
Q -3.1 8.5 14.65 -6.5
M 20.2 -5.4
Q 19.25 -5.65 18.3 -5.8 4.75 6 -10.15 17.35 5.85 6.35 20.2 -5.4
M 12.7 -9.7
Q 15.25 -9.55 17.8 -9.25 32.55 -22.05 44 -34.85 40.4 -34.75 36.7 -34.5 25.4 -21.45 12.7 -9.7
M 64.4 -62
Q 60.8 -61.5 57.05 -60.8 48.75 -48.8 39.45 -37.75 43.35 -38.2 47.15 -38.5 57.15 -50.25 64.4 -62
M 74.25 -63.15
Q 73.8 -63.1 73.3 -63.05 63.55 -50.75 52.5 -38.85 54.2 -38.95 55.9 -39 66.8 -51.2 74.25 -63.15 Z"/>
</g>

<g id="fgfgg_0_Layer2_1_FILL">
<path fill="#D68B67" stroke="none" d="
M -116.5 41.1
L -120.8 36.35
Q -122.85 40.8 -122.25 47 -109.9 40.3 -96.6 37.25 -88.7 37.65 -81.7 36.4 -88 37.15 -95.25 35.05 -105.05 36.5 -116.5 41.1 Z"/>

<path fill="#B86C48" stroke="none" d="
M 15.7 -11.35
Q 15.35 -17.3 13.1 -21.35
L 2.6 -17.4
Q -7.8 -8.85 -13.75 11.4
L -17.25 26.1 -30.8 33.7
Q -58.25 41.3 -80.2 63.5 -85.7 55.8 -92.05 55.7 -82.35 46.6 -64.5 41.35 -61.9 40.6 -59.5 39.7 -88.35 44.8 -105.7 59.3 -113.7 59.3 -117.55 55.15 -105.4 45.45 -90.4 40.7 -105.9 42.25 -122.05 54.9 -126.4 53.4 -128.3 50.9 -127.1 59.35 -122.05 64.45
L -115.4 61.25
Q -113.9 64.2 -112.6 66.05 -109.9 67.2 -105.6 68.2
L -92 58.45
Q -91.7 63.7 -89.65 68.45
L -79.95 71.45
Q -53.85 48.25 -23.55 39.05 -13.35 34.15 -6.45 29.2 -4.75 25 -5 5.55 2.85 -4.75 15.7 -11.35 Z"/>

<path fill="#F2C191" stroke="none" d="
M 13.1 -21.35
Q 12.1 -23.1 10.8 -24.5 -4 -21.75 -12.7 -12 -14.2 -7.65 -14.85 4.4
L -23.55 11.2
Q -35.75 9.95 -39.8 11.2 -47.15 13.3 -69.8 26.95 -80.65 32.5 -93.45 30.9 -105.95 32.3 -120.8 36.35
L -116.5 41.1
Q -105.05 36.5 -95.25 35.05 -88 37.15 -81.7 36.4 -88.7 37.65 -96.6 37.25 -109.9 40.3 -122.25 47
L -128.3 50.9
Q -126.4 53.4 -122.05 54.9 -105.9 42.25 -90.4 40.7 -105.4 45.45 -117.55 55.15 -113.7 59.3 -105.7 59.3 -88.35 44.8 -59.5 39.7 -61.9 40.6 -64.5 41.35 -82.35 46.6 -92.05 55.7 -85.7 55.8 -80.2 63.5 -58.25 41.3 -30.8 33.7
L -17.25 26.1 -13.75 11.4
Q -7.8 -8.85 2.6 -17.4
L 13.1 -21.35 Z"/>
</g>

<g id="fgfgg_0_Layer2_1_MEMBER_0_FILL">
<path fill="#D68B67" stroke="none" d="
M 62.95 185.3
Q 52.383203125 189.2568359375 44.8 204.2 53.3853515625 192.7900390625 62.95 185.3
M 41.9 204.7
Q 41.3669921875 204.79921875 40.85 204.95
L 40.8 204.95
Q 40.792578125 204.9416015625 40.75 204.95 31.0419921875 206.8861328125 23.85 206.25 21.5556640625 206.0189453125 15.45 203.4 16.26640625 205.5294921875 16.95 205.75 11.4005859375 208.332421875 1.4 210.5 10.5296875 210.1677734375 18.35 206.2 20.203125 206.762109375 22.25 207.05 12.3140625 212.5001953125 -5.85 214.65 13.6060546875 213.39609375 23.9 207.25 30.4673828125 207.8314453125 39.1 206.3 34.2919921875 210.1478515625 24.65 214.05 34.3685546875 211.912109375 41.1 205.9 41.5681640625 205.778125 42.05 205.7
L 42.1 205.7
Q 53.053515625 203.3876953125 58.9 209.55 53.7505859375 202.2169921875 41.9 204.7 Z"/>
</g>

<g id="Mask_fgfgg_0_1_MASK_0_FILL">
<path fill="#FFFFFF" stroke="none" d="
M 2.6 -17.4
L 13.1 -21.35 14.35 -18.65 14.3 -18.6 14.35 -18.6
Q 15.2431640625 -16.1875 15.7 -11.35 3.5916015625 -5.5375 -5 5.55
L -5 14.5
Q 52.1763671875 -16.5373046875 90.7 -71.45
L 50.2 -136.3 -217.7 -24.9 -128.3 50.9
Q -126.173828125 53.6990234375 -122.05 54.9
L -117.55 55.15
Q -112.880859375 59.63984375 -105.7 59.3
L -92.05 55.7
Q -84.691796875 56.8177734375 -80.2 63.5 -57.7974609375 41.2984375 -30.8 33.7 -23.7751953125 30.0470703125 -17.25 26.1 -11.1544921875 -5.1068359375 2.6 -17.4 Z"/>
</g>

<g id="tryt_0_Layer0_0_FILL">
<path fill="#E72020" stroke="none" d="
M -11.45 38.55
Q -20.1 40.1 -26.65 39.55 -36.5396484375 45.40703125 -54.9 46.8 -69.409765625 51.547265625 -81.25 61 -77.4 65.15 -69.4 65.15 -52.5244140625 51.046484375 -24.8 45.8 -15.9642578125 42.1708984375 -11.45 38.55
M -28.3 39.35
Q -30.35 39 -32.2 38.5 -39.7427734375 42.2712890625 -48.55 42.7 -54.151171875 43.411328125 -60.3 43.1 -73.6 46.15 -85.95 52.85
L -92 56.75
Q -90.1 59.25 -85.75 60.75 -69.6 48.1 -54.1 46.55 -54.2615234375 46.601171875 -54.45 46.65 -37.701171875 44.4521484375 -28.3 39.35
M 5.5 39.55
L 5.55 39.5
Q 0.1115234375 36.1517578125 -8.45 37.95 -9 38.05 -9.45 38.15 -15.4892578125 43.518359375 -23.9 45.8 -25.9716796875 46.5572265625 -28.2 47.2 -46.05 52.45 -55.75 61.55 -49.4 61.65 -43.9 69.35 -21.95 47.15 5.5 39.55
M 49.4 -15.5
Q 48.4 -17.25 47.1 -18.65 32.3 -15.9 23.6 -6.15 22.1 -1.8 21.45 10.25
L 12.75 17.05
Q 0.55 15.8 -3.5 17.05 -10.85 19.15 -33.5 32.8 -44.35 38.35 -57.15 36.75 -69.65 38.15 -84.5 42.2
L -80.2 46.95
Q -68.75 42.35 -58.95 40.9 -52.995703125 42.6248046875 -47.7 42.4 -38.73203125 40.409765625 -33.55 38.05 -34.3 37.8 -35.1 35.65 -29 38.25 -26.7 38.5 -19.5 39.15 -9.8 37.2 -9.75 37.2 -9.7 37.2 -9.2 37.05 -8.6 36.95 0.843359375 34.94921875 6 39.25
L 19.05 31.95 22.55 17.25
Q 28.5 -3 38.9 -11.55
L 49.4 -15.5
M 12.4 17.55
Q 2.85 25.05 -5.75 36.45 1.85 21.5 12.4 17.55 Z"/>
</g>

<path id="rgfhg_0_Layer4_0_1_STROKES" stroke="#000000" stroke-width="1" stroke-linejoin="miter" stroke-linecap="butt" stroke-miterlimit="3" fill="none" d="
M -3.15 13.85
Q -12.75 24.6 -23.75 35.5"/>

<path id="rgfhg_0_Layer3_0_MEMBER_1_1_STROKES" stroke="#272E31" stroke-width="1" stroke-linejoin="miter" stroke-linecap="butt" stroke-miterlimit="3" fill="none" d="
M 17.71862030029297 -40.92913818359375
Q 17.71862030029297 -38.142529296875004 12.248885345458987 -36.18597412109375 6.779150390625006 -34.20965576171875 -0.9311988830566378 -34.20965576171875 -8.641548156738281 -34.20965576171875 -14.111283111572263 -36.18597412109375 -19.581018066406244 -38.142529296875004 -19.581018066406244 -40.92913818359375 -19.581018066406244 -43.69598388671875 -14.111283111572263 -45.652539062500004 -8.641548156738281 -47.628857421875004 -0.9311988830566378 -47.628857421875004 6.779150390625006 -47.628857421875004 12.248885345458987 -45.652539062500004 17.71862030029297 -43.69598388671875 17.71862030029297 -40.92913818359375 Z"/>

<path id="rgfhg_0_Layer1_1_1_STROKES" stroke="#272E31" stroke-width="1" stroke-linejoin="miter" stroke-linecap="butt" stroke-miterlimit="3" fill="none" d="
M 49.9 -12.85
Q 49.9 -5.8 45.75 -0.85 41.6 4.15 35.75 4.15 29.9 4.15 25.75 -0.85 21.6 -5.8 21.6 -12.85 21.6 -19.85 25.75 -24.8 29.9 -29.8 35.75 -29.8 41.6 -29.8 45.75 -24.8 49.9 -19.85 49.9 -12.85 Z"/>

<path id="rgfhg_0_Layer1_2_1_STROKES" stroke="#272E31" stroke-width="1" stroke-linejoin="miter" stroke-linecap="butt" stroke-miterlimit="3" fill="none" d="
M 49.9 -12.85
Q 49.9 -5.8 45.75 -0.85 41.6 4.15 35.75 4.15 29.9 4.15 25.75 -0.85 21.6 -5.8 21.6 -12.85 21.6 -19.85 25.75 -24.8 29.9 -29.8 35.75 -29.8 41.6 -29.8 45.75 -24.8 49.9 -19.85 49.9 -12.85 Z"/>
</defs>

<g transform="matrix( 1, 0, 0, 1, 930.15,378.8) ">
<g filter="url(#Filter_1)" transform="matrix( 1, 0, 0, 1, -930.15,-378.8) ">
<g transform="matrix( 1, 0, 0, 1, 914.5,965.3) ">
<g transform="matrix( 1, 0, 0, 1, 0,0) ">
<use xlink:href="#regrfg_0_Layer0_0_FILL"/>
</g>
</g>
</g>

<g transform="matrix( 1, 0, 0, 1, 6.15,319.75) ">
<g transform="matrix( 1, 0, 0, 1, -19.4,-24.25) ">
<g transform="matrix( 1, 0, 0, 1, 0,0) ">
<use xlink:href="#tytt_0_Layer0_0_FILL"/>
</g>
</g>

<g transform="matrix( 1, 0, 0, 1, -2.6,-98.15) ">
<g transform="matrix( 1, 0, 0, 1, 0,0) ">
<use xlink:href="#rtgr_0_Layer0_0_FILL"/>
</g>
</g>

<g transform="matrix( 0.229278564453125, -0.973358154296875, 0.973358154296875, 0.229278564453125, -182.8,-73.7) ">
<g transform="matrix( 1, 0, 0, 1, 0,0) ">
<use xlink:href="#tyrtasfd_0_Layer0_0_FILL"/>
</g>
</g>

<g transform="matrix( 0.4268646240234375, 0.904296875, -0.904296875, 0.4268646240234375, 35.05,20.9) ">
<g transform="matrix( 1, 0, 0, 1, -220.25,-412.6) ">
<use xlink:href="#tyrt_0_Layer0_0_FILL"/>
</g>
</g>

<g transform="matrix( 1, 0, 0, 1, -156.9,1.55) ">
<g transform="matrix( 1, 0, 0, 1, 0,0) ">
<use xlink:href="#rtgf_0_Layer0_0_FILL"/>
</g>
</g>

<g transform="matrix( 1, 0, 0, 1, 119.05,19.4) ">
<g transform="matrix( 1, 0, 0, 1, 0,0) ">
<use xlink:href="#tyt_0_Layer0_0_FILL"/>
</g>
</g>

<mask id="Mask_Mask_1">
<g transform="matrix( 1, 0, 0, 1, 0,0) ">
<use xlink:href="#Mask_trytjj_0_2_MASK_0_FILL"/>
</g>
</mask>

<g mask="url(#Mask_Mask_1)">
<g filter="url(#Filter_2)" transform="matrix( 1, 0, 0, 1, -936.3,-698.55) ">
<g transform="matrix( 1, 0, 0, 1, 928.75,571.5) ">
<g transform="matrix( 1, 0, 0, 1, 7.55,127.05) ">
<use xlink:href="#regr_0_Layer0_0_FILL"/>
</g>
</g>
</g>
</g>
</g>

<g transform="matrix( 1, 0, 0, 1, 0,43.45) ">
<g transform="matrix( 1, 0, 0, 1, 1218.05,-93.65) ">
<use xlink:href="#rgfhg_0_Layer13_0_FILL"/>
</g>

<g transform="matrix( 1, 0, 0, 1, 0,0) ">
<use xlink:href="#rgfhg_0_Layer12_0_FILL"/>
</g>

<g transform="matrix( 1, 0, 0, 1, 0,0) ">
<use xlink:href="#rgfhg_0_Layer12_1_FILL"/>
</g>

<g transform="matrix( 1, 0, 0, 1, 0,0) ">
<use xlink:href="#rgfhg_0_Layer11_0_FILL"/>
</g>

<g transform="matrix( 0.90789794921875, 0, 0, 1, 0.7,-88.5) ">
<g transform="matrix( 1, 0, 0, 1, 0,0) ">
<use xlink:href="#rergf_0_Layer2_0_FILL"/>
</g>

<mask id="Mask_Mask_2">
<g transform="matrix( 1, 0, 0, 1, 0,0) ">
<use xlink:href="#Mask_rergf_0_1_MASK_0_FILL"/>
</g>
</mask>

<g mask="url(#Mask_Mask_2)">
<g transform="matrix( 1, 0, 0, 1, -1.65,9.2) ">
<use xlink:href="#rergf_0_Layer1_0_FILL"/>
</g>
</g>
</g>

<g transform="matrix( 1, 0, 0, 1, -0.05,-136.6) ">
<g transform="matrix( 1, 0, 0, 1, -0.25,-10) ">
<use xlink:href="#rterytf_0_Layer9_0_FILL"/>
</g>

<g transform="matrix( 1, 0, 0, 1, 0.75,-10) ">
<use xlink:href="#rterytf_0_Layer9_1_FILL"/>
</g>

<g transform="matrix( 1, 0, 0, 1, 0,0) ">
<use xlink:href="#rterytf_0_Layer8_0_FILL"/>
</g>

<g transform="matrix( 1, 0, 0, 1, -0.35,-6) ">
<g transform="matrix( 1, 0, 0, 1, 0,0) ">
<use xlink:href="#retrf_0_Layer8_0_FILL"/>
</g>

<mask id="Mask_Mask_3">
<g transform="matrix( 1, 0, 0, 1, 0,0) ">
<use xlink:href="#Mask_retrf_0_7_MASK_0_FILL"/>
</g>
</mask>

<g mask="url(#Mask_Mask_3)">
<g transform="matrix( 0.899993896484375, 0, 0, 0.899993896484375, 15.8,2.7) ">
<use xlink:href="#retrf_0_Layer7_0_FILL"/>
</g>
</g>

<g transform="matrix( 1, 0, 0, 1, 0,0) ">
<use xlink:href="#retrf_0_Layer5_0_FILL"/>
</g>

<g transform="matrix( 1, 0, 0, 1, 0,0) ">
<use xlink:href="#retrf_0_Layer3_0_FILL"/>
</g>

<mask id="Mask_Mask_4">
<g transform="matrix( 1, 0, 0, 1, 0,0) ">
<use xlink:href="#Mask_retrf_0_2_MASK_0_FILL"/>
</g>
</mask>

<g mask="url(#Mask_Mask_4)">
<g transform="matrix( -0.899993896484375, 0, 0, 0.899993896484375, -15.5,2.7) ">
<use xlink:href="#retrf_0_Layer2_0_FILL"/>
</g>
</g>

<g transform="matrix( 1, 0, 0, 1, 0,0) ">
<use xlink:href="#retrf_0_Layer0_0_FILL"/>
</g>
</g>

<g transform="matrix( 1, 0, 0, 1, 0,0) ">
<use xlink:href="#rterytf_0_Layer5_0_MEMBER_0_FILL"/>
</g>

<g transform="matrix( 1, 0, 0, 1, 0,0.75) ">
<use xlink:href="#rterytf_0_Layer5_0_MEMBER_1_FILL"/>
</g>

<g transform="matrix( 1, 0, 0, 1, 0,0) ">
<use xlink:href="#rterytf_0_Layer5_0_MEMBER_2_FILL"/>
</g>

<g transform="matrix( 1, 0, 0, 1, 0,0) ">
<use xlink:href="#rterytf_0_Layer5_1_FILL"/>
</g>

<g transform="matrix( 1, 0, 0, 1, 0,0) ">
<use xlink:href="#rterytf_0_Layer4_0_FILL"/>
</g>

<g transform="matrix( 1, 0, 0, 1, 0,0) ">
<use xlink:href="#rterytf_0_Layer3_0_FILL"/>
</g>

<g transform="matrix( 1, 0, 0, 1, 0,0) ">
<use xlink:href="#rterytf_0_Layer2_0_FILL"/>
</g>
</g>

<g transform="matrix( 1, 0, 0, 1, 0,0) ">
<use xlink:href="#rgfhg_0_Layer8_0_FILL"/>
</g>

<g transform="matrix( 1, 0, 0, 1, 144.8,13.5) ">
<g transform="matrix( 1, 0, 0, 1, -144.8,-13.5) ">
<use xlink:href="#fgdf_0_Layer0_0_FILL"/>
</g>
</g>

<g transform="matrix( 1, 0, 0, 1, -157.9,3.65) ">
<g transform="matrix( 1, 0, 0, 1, 157.9,-3.65) ">
<use xlink:href="#thtg_0_Layer0_0_FILL"/>
</g>
</g>

<g transform="matrix( 1, 0, 0, 1, 0,0) ">
<use xlink:href="#rgfhg_0_Layer5_0_FILL"/>
</g>

<g transform="matrix( 1, 0, 0, 1, 0,0) ">
<use xlink:href="#rgfhg_0_Layer4_0_FILL"/>

<use xlink:href="#rgfhg_0_Layer4_0_1_STROKES"/>
</g>

<g transform="matrix( 1, 0, 0, 1, 0,0) ">
<use xlink:href="#rgfhg_0_Layer3_0_FILL"/>
</g>

<g transform="matrix( 1, 0, 0, 1, 0,0) ">
<use xlink:href="#rgfhg_0_Layer3_0_MEMBER_0_FILL"/>
</g>

<g transform="matrix( 1.3180084228515625, 0, 0, 0.395263671875, -48.05,-35.85) ">
<use xlink:href="#rgfhg_0_Layer3_0_MEMBER_1_FILL"/>

<use xlink:href="#rgfhg_0_Layer3_0_MEMBER_1_1_STROKES" transform="matrix( 0.7587127685546875, 0, 0, 2.5299530029296875, 36.45,90.65) "/>
</g>

<g transform="matrix( 1.541229248046875, 0, 0, 0.462188720703125, 667.2,-41.4) ">
<use xlink:href="#rgfhg_0_Layer3_0_MEMBER_1_MEMBER_0_FILL"/>
</g>

<g transform="matrix( 1, 0, 0, 1, 0,0) ">
<use xlink:href="#rgfhg_0_Layer3_1_FILL"/>
</g>

<g transform="matrix( 1, 0, 0, 1, 1218.05,-93.65) ">
<use xlink:href="#rgfhg_0_Layer2_0_FILL"/>
</g>

<g transform="matrix( 1.0274810791015625, 0.0849609375, -0.0824127197265625, 0.99658203125, 1260.2,13.55) ">
<use xlink:href="#rgfhg_0_Layer2_1_FILL"/>
</g>

<g transform="matrix( 1, 0, 0, 1, 0,0) ">
<use xlink:href="#rgfhg_0_Layer1_0_FILL"/>
</g>

<g transform="matrix( 1, 0, 0, 1, 0,0) ">
<use xlink:href="#rgfhg_0_Layer1_0_MEMBER_0_FILL"/>
</g>

<g transform="matrix( 1, 0, 0, 1, 0,0) ">
<use xlink:href="#rgfhg_0_Layer1_1_FILL"/>

<use xlink:href="#rgfhg_0_Layer1_1_1_STROKES"/>
</g>

<g transform="matrix( 1.1694183349609375, 0, 0, 1.1694183349609375, 542.8,-14) ">
<use xlink:href="#rgfhg_0_Layer1_1_MEMBER_0_FILL"/>
</g>

<g transform="matrix( 1, 0, 0, 1, -75,0) ">
<use xlink:href="#rgfhg_0_Layer1_2_FILL"/>

<use xlink:href="#rgfhg_0_Layer1_2_1_STROKES"/>
</g>

<g transform="matrix( 1.1694183349609375, 0, 0, 1.1694183349609375, 467.8,-14) ">
<use xlink:href="#rgfhg_0_Layer1_2_MEMBER_0_FILL"/>
</g>
</g>

<g transform="matrix( 1, 0, 0, 1, -16.3,133.1) ">
<g transform="matrix( 1, 0, 0, 1, 9.3,-1.7) ">
<g filter="url(#Filter_3)" transform="matrix( 1, 0, 0, 1, -923.15,-510.2) ">
<g transform="matrix( 0.858489990234375, 0, 0, 0.858489990234375, 923.15,510.2) ">
<g transform="matrix( 1, 0, 0, 1, 401.7,-350.45) ">
<use xlink:href="#trytjg_0_Layer0_0_FILL"/>
</g>

<g transform="matrix( 1, 0, 0, 1, 600.25,-350.45) ">
<use xlink:href="#trytjg_0_Layer0_0_MEMBER_0_FILL"/>
</g>

<g transform="matrix( 1, 0, 0, 1, 600.25,-350.45) ">
<use xlink:href="#trytjg_0_Layer0_0_MEMBER_1_FILL"/>
</g>

<g filter="url(#Filter_4)" transform="matrix( 1.164825439453125, 0, 0, 1.164825439453125, -2150.6,-1188.55) ">
<g transform="matrix( 0.858489990234375, 0, 0, 0.858489990234375, 1848.05,1014.4) ">
<g transform="matrix( 0.8670501708984375, 0, 0, 0.8670501708984375, 518.8,-302.05) ">
<use xlink:href="#FDFG_0_Layer0_0_FILL"/>
</g>

<g transform="matrix( 0.8670501708984375, 0, 0, 0.8670501708984375, 518.8,-302.05) ">
<use xlink:href="#FDFG_0_Layer0_1_FILL"/>
</g>

<g transform="matrix( 0.8670501708984375, 0, 0, 0.8670501708984375, 518.8,-302.05) ">
<use xlink:href="#FDFG_0_Layer0_2_FILL"/>
</g>

<g transform="matrix( 0.8670501708984375, 0, 0, 0.8670501708984375, 518.8,-302.05) ">
<use xlink:href="#FDFG_0_Layer0_3_FILL"/>
</g>

<g transform="matrix( 0.8670501708984375, 0, 0, 0.8670501708984375, 518.8,-302.05) ">
<use xlink:href="#FDFG_0_Layer0_4_FILL"/>
</g>

<g transform="matrix( 0.8670501708984375, 0, 0, 0.8670501708984375, 518.8,-302.05) ">
<use xlink:href="#FDFG_0_Layer0_5_FILL"/>
</g>
</g>
</g>

<g transform="matrix( 0.8670501708984375, 0, 0, 0.8670501708984375, 520.85,-309) ">
<use xlink:href="#trytjg_0_Layer0_1_MEMBER_1_FILL"/>
</g>

<g transform="matrix( 0.8670501708984375, 0, 0, 0.8670501708984375, 520.85,-309) ">
<use xlink:href="#trytjg_0_Layer0_1_MEMBER_2_FILL"/>
</g>

<g transform="matrix( 0.8670501708984375, 0, 0, 0.8670501708984375, 520.85,-309) ">
<use xlink:href="#trytjg_0_Layer0_1_MEMBER_3_FILL"/>
</g>

<g transform="matrix( 0.8670501708984375, 0, 0, 0.8670501708984375, 520.85,-309) ">
<use xlink:href="#trytjg_0_Layer0_1_MEMBER_4_FILL"/>
</g>

<g transform="matrix( 0.8670501708984375, 0, 0, 0.8670501708984375, 520.85,-309) ">
<use xlink:href="#trytjg_0_Layer0_1_MEMBER_5_FILL"/>
</g>

<g transform="matrix( 0.8670501708984375, 0, 0, 0.8670501708984375, 520.85,-309) ">
<use xlink:href="#trytjg_0_Layer0_1_MEMBER_6_FILL"/>
</g>

<g transform="matrix( 1, 0, 0, 1, 600.25,-350.45) ">
<use xlink:href="#trytjg_0_Layer0_2_MEMBER_0_FILL"/>
</g>

<g transform="matrix( 1, 0, 0, 1, 600.25,-350.45) ">
<use xlink:href="#trytjg_0_Layer0_2_MEMBER_1_FILL"/>
</g>

<g transform="matrix( 1, 0, 0, 1, 600.25,-350.45) ">
<use xlink:href="#trytjg_0_Layer0_2_MEMBER_2_FILL"/>
</g>
</g>
</g>

<g transform="matrix( 0.858489990234375, 0, 0, 0.858489990234375, 0,0) ">
<g transform="matrix( 1, 0, 0, 1, 401.7,-350.45) ">
<use xlink:href="#trytjg_0_Layer0_0_FILL"/>
</g>

<g transform="matrix( 1, 0, 0, 1, 600.25,-350.45) ">
<use xlink:href="#trytjg_0_Layer0_0_MEMBER_0_FILL"/>
</g>

<g transform="matrix( 1, 0, 0, 1, 600.25,-350.45) ">
<use xlink:href="#trytjg_0_Layer0_0_MEMBER_1_FILL"/>
</g>

<g filter="url(#Filter_5)" transform="matrix( 1.164825439453125, 0, 0, 1.164825439453125, -1075.3,-594.25) ">
<g transform="matrix( 0.858489990234375, 0, 0, 0.858489990234375, 924.9,504.2) ">
<g transform="matrix( 0.8670501708984375, 0, 0, 0.8670501708984375, 518.8,-302.05) ">
<use xlink:href="#FDFG_0_Layer0_0_FILL"/>
</g>

<g transform="matrix( 0.8670501708984375, 0, 0, 0.8670501708984375, 518.8,-302.05) ">
<use xlink:href="#FDFG_0_Layer0_1_FILL"/>
</g>

<g transform="matrix( 0.8670501708984375, 0, 0, 0.8670501708984375, 518.8,-302.05) ">
<use xlink:href="#FDFG_0_Layer0_2_FILL"/>
</g>

<g transform="matrix( 0.8670501708984375, 0, 0, 0.8670501708984375, 518.8,-302.05) ">
<use xlink:href="#FDFG_0_Layer0_3_FILL"/>
</g>

<g transform="matrix( 0.8670501708984375, 0, 0, 0.8670501708984375, 518.8,-302.05) ">
<use xlink:href="#FDFG_0_Layer0_4_FILL"/>
</g>

<g transform="matrix( 0.8670501708984375, 0, 0, 0.8670501708984375, 518.8,-302.05) ">
<use xlink:href="#FDFG_0_Layer0_5_FILL"/>
</g>
</g>
</g>

<g transform="matrix( 0.8670501708984375, 0, 0, 0.8670501708984375, 520.85,-309) ">
<use xlink:href="#trytjg_0_Layer0_1_MEMBER_1_FILL"/>
</g>

<g transform="matrix( 0.8670501708984375, 0, 0, 0.8670501708984375, 520.85,-309) ">
<use xlink:href="#trytjg_0_Layer0_1_MEMBER_2_FILL"/>
</g>

<g transform="matrix( 0.8670501708984375, 0, 0, 0.8670501708984375, 520.85,-309) ">
<use xlink:href="#trytjg_0_Layer0_1_MEMBER_3_FILL"/>
</g>

<g transform="matrix( 0.8670501708984375, 0, 0, 0.8670501708984375, 520.85,-309) ">
<use xlink:href="#trytjg_0_Layer0_1_MEMBER_4_FILL"/>
</g>

<g transform="matrix( 0.8670501708984375, 0, 0, 0.8670501708984375, 520.85,-309) ">
<use xlink:href="#trytjg_0_Layer0_1_MEMBER_5_FILL"/>
</g>

<g transform="matrix( 0.8670501708984375, 0, 0, 0.8670501708984375, 520.85,-309) ">
<use xlink:href="#trytjg_0_Layer0_1_MEMBER_6_FILL"/>
</g>

<g transform="matrix( 1, 0, 0, 1, 600.25,-350.45) ">
<use xlink:href="#trytjg_0_Layer0_2_MEMBER_0_FILL"/>
</g>

<g transform="matrix( 1, 0, 0, 1, 600.25,-350.45) ">
<use xlink:href="#trytjg_0_Layer0_2_MEMBER_1_FILL"/>
</g>

<g transform="matrix( 1, 0, 0, 1, 600.25,-350.45) ">
<use xlink:href="#trytjg_0_Layer0_2_MEMBER_2_FILL"/>
</g>
</g>
</g>

<g transform="matrix( 1, 0, 0, 1, 0,0) ">
<use xlink:href="#fegf_0_Layer12_0_FILL"/>
</g>

<g transform="matrix( 1, 0, 0, 1, 0,0) ">
<use xlink:href="#fegf_0_Layer10_0_FILL"/>
</g>

<g transform="matrix( 1, 0, 0, 1, 0,0) ">
<use xlink:href="#fegf_0_Layer9_0_FILL"/>
</g>

<g transform="matrix( 1, 0, 0, 1, 0,0) ">
<use xlink:href="#fegf_0_Layer8_0_FILL"/>
</g>

<g transform="matrix( 1, 0, 0, 1, 0,0) ">
<use xlink:href="#fegf_0_Layer7_0_FILL"/>
</g>

<g transform="matrix( 1, 0, 0, 1, 0,0) ">
<use xlink:href="#fegf_0_Layer6_0_FILL"/>
</g>

<g transform="matrix( 1, 0, 0, 1, 0,0) ">
<use xlink:href="#fegf_0_Layer4_0_FILL"/>
</g>
</g>

<g transform="matrix( 0.9976043701171875, 0.0691680908203125, -0.0691680908203125, 0.9976043701171875, -124.45,63.1) ">
<g transform="matrix( 1, 0, 0, 1, 126.75,-57.65) ">
<use xlink:href="#asAD_0_Layer2_0_FILL"/>
</g>

<g transform="matrix( 1, 0, 0, 1, 126.75,-57.65) ">
<use xlink:href="#asAD_0_Layer2_0_MEMBER_0_FILL"/>
</g>

<g transform="matrix( 1, 0, 0, 1, 126.75,-57.65) ">
<use xlink:href="#asAD_0_Layer2_0_MEMBER_1_FILL"/>
</g>

<g transform="matrix( 1, 0, 0, 1, 126.75,-57.65) ">
<use xlink:href="#asAD_0_Layer2_1_MEMBER_0_FILL"/>
</g>

<g transform="matrix( 1, 0, 0, 1, 126.75,-57.65) ">
<use xlink:href="#asAD_0_Layer2_1_MEMBER_1_FILL"/>
</g>

<g transform="matrix( 1, 0, 0, 1, 126.75,-57.65) ">
<use xlink:href="#asAD_0_Layer2_1_MEMBER_2_FILL"/>
</g>

<g transform="matrix( 1, 0, 0, 1, 126.75,-57.65) ">
<use xlink:href="#asAD_0_Layer2_1_MEMBER_2_MEMBER_0_FILL"/>
</g>

<g transform="matrix( 1, 0, 0, 1, 126.75,-57.65) ">
<use xlink:href="#asAD_0_Layer2_1_MEMBER_3_FILL"/>
</g>

<mask id="Mask_Mask_5">
<g transform="matrix( 1, 0, 0, 1, 0,0) ">
<use xlink:href="#Mask_asAD_0_1_MASK_0_FILL"/>
</g>
</mask>

<g mask="url(#Mask_Mask_5)">
<g filter="url(#Filter_6)" transform="matrix( 0.9976043701171875, -0.0691680908203125, 0.0691680908203125, 0.9976043701171875, -834.3,-385.1) ">
<g transform="matrix( 0.9976043701171875, 0.0691680908203125, -0.0691680908203125, 0.9976043701171875, 814.35,446.15) ">
<g transform="matrix( 1, 0, 0, 1, 0,0) ">
<use xlink:href="#tyrtfgff_0_Layer0_0_FILL"/>
</g>
</g>
</g>
</g>
</g>

<g transform="matrix( 1, 0, 0, 1, 86.85,173.6) ">
<g transform="matrix( 1, 0, 0, 1, 0,0) ">
<use xlink:href="#fgfgg_0_Layer2_0_FILL"/>
</g>

<g transform="matrix( 1, 0, 0, 1, 0,0) ">
<use xlink:href="#fgfgg_0_Layer2_1_FILL"/>
</g>

<g transform="matrix( 1, 0, 0, 1, -86.85,-173.6) ">
<use xlink:href="#fgfgg_0_Layer2_1_MEMBER_0_FILL"/>
</g>

<mask id="Mask_Mask_6">
<g transform="matrix( 1, 0, 0, 1, 0,0) ">
<use xlink:href="#Mask_fgfgg_0_1_MASK_0_FILL"/>
</g>
</mask>

<g mask="url(#Mask_Mask_6)">
<g filter="url(#Filter_7)" transform="matrix( 1, 0, 0, 1, -1017,-552.4) ">
<g transform="matrix( 1, 0, 0, 1, 980.75,546.65) ">
<g transform="matrix( 1, 0, 0, 1, 0,0) ">
<use xlink:href="#tryt_0_Layer0_0_FILL"/>
</g>
</g>
</g>
</g>
</g>
</g>
</svg>
