
<svg xmlns="http://www.w3.org/2000/svg" version="1.1" xmlns:xlink="http://www.w3.org/1999/xlink" preserveAspectRatio="none" x="0px" y="0px" width="1920px" height="1080px" viewBox="0 0 1920 1080">
<defs>
<radialGradient id="Gradient_1" gradientUnits="userSpaceOnUse" cx="0" cy="0" r="609.025" fx="0" fy="0" gradientTransform="matrix( 1, 0, 0, 1, -379.85,-164.35) " spreadMethod="pad">
<stop  offset="0%" stop-color="#FFF788" stop-opacity="0.2980392156862745"/>

<stop  offset="100%" stop-color="#FFFFFF" stop-opacity="0.00784313725490196"/>
</radialGradient>

<filter id="Filter_1" x="-20%" y="-20%" width="140%" height="140%" color-interpolation-filters="sRGB">
<feColorMatrix in="SourceGraphic" type="matrix" values="0.53 0 0 0 0.011764705882352941 0 0.53 0 0 0.18823529411764706 0 0 0.53 0 0.19607843137254902 0 0 0 1 0" result="result1"/>
</filter>

<filter id="Filter_2" x="-20%" y="-33.57039792061194%" width="140%" height="167.14079584122388%" color-interpolation-filters="sRGB">
<feGaussianBlur in="SourceGraphic" stdDeviation="8.666666666666666,8.666666666666666" result="result1"/>

<feColorMatrix in="result1" type="matrix" values="1 0 0 0 0 0 1 0 0 0 0 0 1 0 0 0 0 0 0.52 0" result="result2"/>
</filter>

<g id="rtfh_0_Layer3_0_FILL">
<path fill="#2B2D4C" stroke="none" d="
M -121.15 -386.45
L -437.7 -333 -332 310.45 -121.15 204.15 -121.15 -386.45 Z"/>
</g>

<g id="rtyrtg_0_Layer0_0_FILL">
<path fill="#53D3D7" stroke="none" d="
M -226.55 -353.2
L -271.6 -353.2 -264.85 -267.45 -221.6 -254.7 -226.55 -353.2
M -158.05 -234.75
L -153.6 -353.2 -204.4 -353.2 -199.2 -247.7 -158.05 -234.75
M -122.15 -353.2
L -140.5 -353.2 -138.05 164.2 -257.45 121.9 -297.6 -353.2 -309.8 -353.2 -280.6 133.9 -122.15 191.4 -122.15 -353.2
M -152.05 130.95
L -152.6 18.35 -186.9 7.5 -181.7 120.5 -152.05 130.95
M -157.7 -155.1
L -158.05 -193.95 -263.25 -223.75 -260.85 -186.15 -157.7 -155.1
M -237.65 102.6
L -198.7 116.1 -202.95 0.8 -246.4 -11.55 -237.65 102.6
M -224.4 -150.25
L -219.45 -86.6 -158.45 -68.4 -159.85 -129.9 -224.4 -150.25
M -252.8 -70.7
L -249.3 -33.6 -152 -3.8 -151.65 -41.15 -252.8 -70.7 Z"/>

<path fill="#308688" stroke="none" d="
M -224.55 -353.2
L -226.55 -353.2 -221.6 -254.7 -264.85 -267.45 -271.6 -353.2 -273.45 -353.2 -266.3 -262.35 -219.25 -248.55 -224.55 -353.2
M -140.5 -353.2
L -142.7 -353.2 -140.2 154.95 -249 115.05 -287 -353.2 -297.6 -353.2 -257.45 121.9 -138.05 164.2 -140.5 -353.2
M -150.6 135
L -151.1 15.2 -188.55 3.3 -183 123.6 -150.6 135
M -152.6 18.35
L -152.05 130.95 -181.7 120.5 -186.9 7.5 -152.6 18.35
M -155.8 -152.8
L -156.15 -195.55 -265.3 -225.85 -262.75 -184.6 -155.8 -152.8
M -158.05 -193.95
L -157.7 -155.1 -260.85 -186.15 -263.25 -223.75 -158.05 -193.95
M -201.55 -0.5
L -247.95 -13.85 -238.8 104.1 -197.1 118.45 -201.55 -0.5
M -198.7 116.1
L -237.65 102.6 -246.4 -11.55 -202.95 0.8 -198.7 116.1
M -226.15 -154.15
L -220.9 -83.55 -156.7 -64.6 -158.3 -132.95 -226.15 -154.15
M -219.45 -86.6
L -224.4 -150.25 -159.85 -129.9 -158.45 -68.4 -219.45 -86.6
M -254.3 -72.75
L -250.65 -31.9 -150.5 -1.65 -150.25 -42.9 -254.3 -72.75
M -249.3 -33.6
L -252.8 -70.7 -151.65 -41.15 -152 -3.8 -249.3 -33.6
M -152.3 -353.2
L -153.6 -353.2 -158.05 -234.75 -199.2 -247.7 -204.4 -353.2 -205.95 -353.2 -200.6 -244 -156.85 -230.2 -152.3 -353.2 Z"/>

<path fill="#3D9C9F" stroke="none" d="
M -142.7 -353.2
L -152.3 -353.2 -156.85 -230.2 -200.6 -244 -205.95 -353.2 -224.55 -353.2 -219.25 -248.55 -266.3 -262.35 -273.45 -353.2 -287 -353.2 -249 115.05 -140.2 154.95 -142.7 -353.2
M -250.65 -31.9
L -254.3 -72.75 -150.25 -42.9 -150.5 -1.65 -250.65 -31.9
M -220.9 -83.55
L -226.15 -154.15 -158.3 -132.95 -156.7 -64.6 -220.9 -83.55
M -247.95 -13.85
L -201.55 -0.5 -197.1 118.45 -238.8 104.1 -247.95 -13.85
M -156.15 -195.55
L -155.8 -152.8 -262.75 -184.6 -265.3 -225.85 -156.15 -195.55
M -151.1 15.2
L -150.6 135 -183 123.6 -188.55 3.3 -151.1 15.2 Z"/>
</g>

<g id="rtyrtg_0_Layer0_1_FILL">
<path fill="#C28400" stroke="none" d="
M -231.8 -88.1
L -233.5 -114.7
Q -246.4 -110.1 -259.1 -119.6
L -257.3 -99 -231.8 -88.1
M -234.95 -137.55
L -234.95 -155.6 -263.8 -163.1 -261.9 -145.4 -234.95 -137.55 Z"/>

<path fill="#934706" stroke="none" d="
M -233.5 -114.7
L -234.95 -137.55 -261.9 -145.4 -259.1 -119.6
Q -246.4 -110.1 -233.5 -114.7 Z"/>

<path fill="#226566" stroke="none" d="
M -234.95 -137.55
L -233.5 -114.7 -231.8 -88.1 -257.3 -99 -229.4 -81.85 -234.95 -155.6 -234.95 -137.55 Z"/>
</g>

<g id="rtyrtg_0_Layer0_1_MEMBER_0_FILL">
<path fill="#D48C00" stroke="none" d="
M 879.55 381.3
Q 879.5 381.91171875 879.5 382.55 879.5 387.05 882.65 390.2 885.85 393.4 890.35 393.4 894.85 393.4 898 390.2 901.2 387.05 901.2 382.55 901.2 381.91171875 901.1 381.3 900.74609375 384.996875 898 387.7 894.85 390.9 890.35 390.9 885.85 390.9 882.65 387.7 879.946875 384.996875 879.55 381.3 Z"/>

<path fill="#FFAD00" stroke="none" d="
M 890.35 371.7
Q 885.85 371.7 882.65 374.85 879.946875 377.59609375 879.55 381.3 879.946875 384.996875 882.65 387.7 885.85 390.9 890.35 390.9 894.85 390.9 898 387.7 900.74609375 384.996875 901.1 381.3 900.74609375 377.59609375 898 374.85 894.85 371.7 890.35 371.7
M 888.65 376.2
Q 888.15 375 888.95 374.2 889.75 373.4 891.4 373.45 893.15 373.6 894.75 374.55 895 374.65 895.2 374.8 896.5 375.7 896.95 376.7 897.55 377.95 896.75 378.75 895.95 379.55 894.2 379.45 892.8 379.4 891.35 378.65 891.15 378.5 890.9 378.4 889.3 377.45 888.65 376.2 Z"/>

<path fill="#FFD98B" stroke="none" d="
M 888.95 374.2
Q 888.15 375 888.65 376.2 889.3 377.45 890.9 378.4 891.15 378.5 891.35 378.65 892.8 379.4 894.2 379.45 895.95 379.55 896.75 378.75 897.55 377.95 896.95 376.7 896.5 375.7 895.2 374.8 895 374.65 894.75 374.55 893.15 373.6 891.4 373.45 889.75 373.4 888.95 374.2 Z"/>
</g>

<g id="rtyrtg_0_Layer0_2_FILL">
<path fill="#FFFFFF" stroke="none" d="
M 1803.4 273.15
Q 1801.5 274.6 1794.25 274.95 1801.35 275.2 1803.5 277 1804.9 278.7 1805.7 288.3 1806.45 279.4 1807.75 277.05 1810.05 275.45 1817.75 274.95 1810.2 274.95 1807.9 273.2 1806.8 271.6 1805.7 262.75 1804.65 271.9 1803.4 273.15 Z"/>
</g>

<g id="rtyrtg_0_Layer0_3_FILL">
<path fill="#FFFFFF" stroke="none" d="
M 1803.35 273.15
Q 1801.45 274.6 1794.2 274.95 1801.3 275.2 1803.45 277 1804.85 278.7 1805.65 288.3 1806.4 279.4 1807.7 277.05 1810 275.45 1817.7 274.95 1810.15 274.95 1807.85 273.2 1806.75 271.6 1805.65 262.75 1804.6 271.9 1803.35 273.15 Z"/>
</g>

<g id="rtyrtg_0_Layer0_4_FILL">
<path fill="#FFFFFF" stroke="none" d="
M 1803.3 273.15
Q 1801.4 274.6 1794.15 274.95 1801.25 275.2 1803.4 277 1804.8 278.7 1805.6 288.3 1806.35 279.4 1807.65 277.05 1809.95 275.45 1817.65 274.95 1810.1 274.95 1807.8 273.2 1806.7 271.6 1805.6 262.75 1804.55 271.9 1803.3 273.15 Z"/>
</g>

<g id="rtyrtg_0_Layer0_5_FILL">
<path fill="#FFFFFF" stroke="none" d="
M 1803.3 273.1
Q 1801.4 274.55 1794.15 274.9 1801.25 275.15 1803.4 276.95 1804.8 278.65 1805.6 288.25 1806.35 279.35 1807.65 277 1809.95 275.4 1817.65 274.9 1810.1 274.9 1807.8 273.15 1806.7 271.55 1805.6 262.7 1804.55 271.85 1803.3 273.1 Z"/>
</g>

<g id="rtyrtg_0_Layer0_6_FILL">
<path fill="#FFFFFF" stroke="none" d="
M 1803.25 273.15
Q 1801.35 274.6 1794.1 274.95 1801.2 275.2 1803.35 277 1804.75 278.7 1805.55 288.3 1806.3 279.4 1807.6 277.05 1809.9 275.45 1817.6 274.95 1810.05 274.95 1807.75 273.2 1806.65 271.6 1805.55 262.75 1804.5 271.9 1803.25 273.15 Z"/>
</g>

<g id="rtyrtg_0_Layer0_7_FILL">
<path fill="#FFFFFF" stroke="none" d="
M 1803.25 273.15
Q 1801.35 274.6 1794.1 274.95 1801.2 275.2 1803.35 277 1804.75 278.7 1805.55 288.3 1806.3 279.4 1807.6 277.05 1809.9 275.45 1817.6 274.95 1810.05 274.95 1807.75 273.2 1806.65 271.6 1805.55 262.75 1804.5 271.9 1803.25 273.15 Z"/>
</g>

<g id="trytdsfd_0_Layer0_0_FILL">
<path fill="#298386" stroke="none" d="
M -138.85 -295.5
L -162.5 -309.4 -91.8 358.55 -70 384.9 -138.85 -295.5
M 160.25 -312.35
L 142.45 -307.8 142.45 222.5 160.25 234.9 160.25 -312.35 Z"/>

<path fill="#33B1B5" stroke="none" d="
M 179.95 259.95
L 179.95 -364.35 -138.85 -295.5 -70 384.9 179.95 259.95
M 142.45 -307.8
L 160.25 -312.35 160.25 234.9 -33.25 332.15 -33.25 309.9 -82.45 -250.3 142.45 -307.8 Z"/>

<path fill="#59C4C8" stroke="none" d="
M 160.25 234.9
L 142.45 222.5 -33.25 309.9 -33.25 332.15 160.25 234.9 Z"/>

<path fill="#71DDE1" stroke="none" d="
M 179.95 -364.35
L 157.05 -371.4 -162.5 -309.4 -138.85 -295.5 179.95 -364.35 Z"/>
</g>

<g id="rtfh_0_Layer0_0_FILL">
<path fill="url(#Gradient_1)" stroke="none" d="
M -127.4 -353.35
L -127.4 -353.4 -370.1 -291.35 -320.85 291.85 -129.8 543 190.75 255.5
Q 254.0240234375 -48.901953125 217.15 -400
L -127.4 -353.35 Z"/>
</g>

<g id="regrfg_0_Layer0_0_FILL">
<path fill="#000000" fill-opacity="0.2980392156862745" stroke="none" d="
M 189.8 -32.9
Q 111.2 -47.95 0.05 -47.95 -111.1 -47.95 -189.7 -32.9 -268.3 -17.9 -268.3 3.25 -268.3 24.35 -189.7 39.4 -111.1 54.4 0.05 54.4 111.2 54.4 189.8 39.4 268.4 24.35 268.4 3.25 268.4 -17.9 189.8 -32.9 Z"/>
</g>

<g id="trytjj_0_Layer5_0_FILL">
<path fill="#21313A" stroke="none" d="
M 123.15 67.6
Q 196.05 32.85 254.6 26.4 237.1 10.15 207.45 -5.7 160.4 4.4 105.05 30.75 20.3 71.3 -55.95 75.6
L -73.1 112.45
Q 18.55 117.65 123.15 67.6 Z"/>

<path fill="#2E444F" stroke="none" d="
M 124.95 -40.95
Q 64.1 -69.1 23.6 -95.55
L -55.95 75.6
Q 20.3 71.3 105.05 30.75 160.4 4.4 207.45 -5.7 173.95 -23.6 124.95 -40.95 Z"/>
</g>

<g id="trytjj_0_Layer3_0_FILL">
<path fill="#171717" stroke="none" d="
M 12.45 52.65
L 12.45 68.75
Q 141.7396484375 42.4544921875 163.05 21.3 153.0572265625 -6.15859375 13.45 -120.65
L -6.3 -80.35
Q 44.2798828125 -48.5166015625 106.85 4.3 58.4111328125 15.7779296875 12.45 52.65 Z"/>
</g>

<g id="tyrtasfd_0_Layer0_0_FILL">
<path fill="#171717" stroke="none" d="
M 14.95 -25.7
Q 8.4408203125 -25.89765625 0.2 -26 -12.8736328125 -26.1537109375 -22.4 -27.3 -2.7052734375 184.5685546875 -4.4 403.5 -7.85 460.65 -18.55 505.2 -15.45 530.35 -9.1 531.9 -2.75 533.45 18.2 495.35 20.65 488.45 15.4 446.9 22.75 433.3 22.25 430.7 15.25 408.35 13.7 393.2
L 28.1 236.35
Q 27.75 214 18.2 165.55 22.6599609375 81.9349609375 14.95 -25.7 Z"/>
</g>

<g id="trytjj_0_Layer1_0_FILL">
<path fill="#364D59" stroke="none" d="
M 261.6 45.7
Q 290 83.45 304.85 145.05 315.15 95.3 291.35 27.15 275.85 12.7 252 -1.2 259.45 23.55 261.6 45.7 Z"/>

<path fill="#405C6A" stroke="none" d="
M 157.4 -24.8
Q 13.95 -74.2 1.7 -128.55
L -5.35 -128.55
Q -9.6 -66.9 151.4 -11.45 227.65 14.9 262.35 68.75 292.2 115 291.35 181.5 300.75 164.7 304.85 145.05 290 83.45 261.6 45.7 226.6 -0.85 157.4 -24.8 Z"/>

<path fill="#587E91" stroke="none" d="
M 23.4 -128.55
L 1.7 -128.55
Q 13.95 -74.2 157.4 -24.8 226.6 -0.85 261.6 45.7 259.45 23.55 252 -1.2 207.8 -26.9 135 -50.65 52.1 -82.3 23.4 -128.55 Z"/>
</g>

<g id="trytjj_0_Layer1_1_FILL">
<path fill="#364D59" stroke="none" d="
M -209.75 43.85
Q -237.9 53.55 -256.4 69.25 -290.35 110.05 -249.55 186.75 -215.7 251.55 -121.85 299.05 -119.95 261.75 -107.55 229.1 -277.15 133.15 -209.75 43.85 Z"/>

<path fill="#587E91" stroke="none" d="
M -73.05 12.45
Q -87.65 23.95 -151.45 31.2 -184.5 35.1 -209.75 43.85 -277.15 133.15 -107.55 229.1 -91.2 186 -56.6 151 46.95 52 13 -120.8
L -29.15 -133.65
Q -49 -13.1 -73.05 12.45 Z"/>

<path fill="#405C6A" stroke="none" d="
M 25.25 -117.05
L 13 -120.8
Q 46.95 52 -56.6 151 -91.2 186 -107.55 229.1 -119.95 261.75 -121.85 299.05 -117.6 301.2 -113.15 303.35 -105.45 307.05 -97.3 310.7 -117.4 234.15 -43.4 159.35 61.55 59.05 25.25 -117.05 Z"/>
</g>

<g id="trytjj_0_Layer1_1_MEMBER_0_FILL">
<path fill="#171717" fill-opacity="0.2" stroke="none" d="
M -151.5 53.2
Q -151.242578125 52.721875 -151 52.2 -157.7560546875 58.7646484375 -160.35 62.65 -164.4693359375 68.8646484375 -160.7 70.9 -157.08671875 74.271484375 -136.05 65.35 -97.1599609375 48.89765625 -73.6 14.25 -114.1587890625 51.555859375 -138.85 62.45 -163.531640625 73.396875 -151.7 53.65
L -151.5 53.2 Z"/>
</g>

<g id="rgfhg_0_Layer13_0_FILL">
<path fill="#362C13" stroke="none" d="
M 71.3 -102.35
L 86.65 -118.45
Q 41.4 -165.9 -6.5 -179.95 -54.45 -193.95 -121.95 -180.45
L -115.45 -147.05
Q -66.45 -165.6 -20.25 -155.45 32.25 -144 71.3 -102.35 Z"/>

<path fill="#10171E" stroke="none" d="
M 41.1 -63.25
L 71.3 -102.35
Q 32.25 -144 -20.25 -155.45 -66.45 -165.6 -115.45 -147.05
L -104.05 -94.65 41.1 -63.25 Z"/>
</g>

<g id="rgfhg_0_Layer12_0_FILL">
<path fill="#193847" stroke="none" d="
M -216.2 -92.15
Q -209.95 -69.75 -191.65 -53.15 -151.25 -16.15 -101 5.3 -61.9365234375 14.6765625 -37.75 17.65 -24.642578125 19.295703125 -15.9 19.05 -5.65 18.8 5.65 17.45
L 25.85 -37.85
Q -0.728515625 -42.068359375 -28.75 -47.75 -51.5478515625 -52.365234375 -75.3 -57.95 -128.1 -86.4 -160.15 -104.2
L -216.2 -92.15 Z"/>

<path fill="#997317" stroke="none" d="
M -216.2 -92.15
L -237.9 -80.55
Q -224.55 -56.65 -193.7 -26.65 -162.85 3.3 -110.2 23.15 -74.7009765625 32.463671875 -40.45 37.3 -17.1041015625 40.5853515625 5.65 41.8
L 5.65 17.45
Q -5.65 18.8 -15.9 19.05 -24.642578125 19.295703125 -37.75 17.65 -61.9365234375 14.6765625 -101 5.3 -151.25 -16.15 -191.65 -53.15 -209.95 -69.75 -216.2 -92.15 Z"/>
</g>

<g id="rgfhg_0_Layer11_0_FILL">
<path fill="#10171E" stroke="none" d="
M 42.45 -147.4
Q 53.7 -216.6 30.35 -277.05
L -13.95 -264.35 -22.5 -101.65 -16.55 -100.65
Q 25.85 -123.35 42.45 -147.4 Z"/>

<path fill="#362C13" stroke="none" d="
M 41.5 -280.1
L 30.35 -277.05
Q 53.7 -216.6 42.45 -147.4 25.85 -123.35 -16.55 -100.65
L -0.25 -88.6
Q 46.15 -124.65 57.5 -144.25 65.45 -197.35 41.5 -280.1 Z"/>
</g>

<g id="rergf_0_Layer2_0_FILL">
<path fill="#F0BF90" stroke="none" d="
M -33.7 -63.75
Q -37.6650390625 -2.3400390625 -34.7 62.75
L 36.35 65.25
Q 37.6099609375 -5.5 32.6 -63.75
L -33.7 -63.75 Z"/>
</g>

<g id="Mask_rergf_0_1_MASK_0_FILL">
<path fill="#FFFFFF" stroke="none" d="
M -33.7 -63.75
Q -37.6650390625 -2.3400390625 -34.7 62.75
L 36.35 65.25
Q 37.6099609375 -5.5 32.6 -63.75
L -33.7 -63.75 Z"/>
</g>

<g id="rergf_0_Layer1_0_FILL">
<path fill="#D68B67" stroke="none" d="
M -49.45 -72.95
L -40.4 -19.6
Q -2.1541015625 10.6486328125 45.4 31.25
L 54.1 -71.5 -49.45 -72.95 Z"/>
</g>

<g id="rterytf_0_Layer9_0_FILL">
<path fill="#F0BF90" stroke="none" d="
M -30.4 3.15
L -35.35 1.85
Q -34.3216796875 4.769140625 -33.2 8.8 -40.6232421875 12.3568359375 -42.2 0
L -45.3 -0.85
Q -45.081640625 11.0005859375 -38.15 14.75 -32.5 17.75 -30.4 11.7
L -30.4 3.15 Z"/>

<path fill="#D68B67" stroke="none" d="
M -45.3 -2.6
Q -45.319140625 -1.7 -45.3 -0.85
L -42.2 0
Q -40.6232421875 12.3568359375 -33.2 8.8 -34.3216796875 4.769140625 -35.35 1.85
L -30.4 3.15 -30.4 -4.95
Q -34.95 -12.1 -39.65 -12 -43.95 -10.45 -45.3 -2.6 Z"/>
</g>

<g id="rterytf_0_Layer8_0_FILL">
<path fill="#482A1B" stroke="none" d="
M -24.4 22
L -39.25 7.3 -36.8 35.65 8.45 78.55 31.05 27.6 -7.45 24.9 -24.4 22 Z"/>

<path fill="#F0BF90" stroke="none" d="
M -39.25 1.55
L -39.25 7.3 -24.4 22 -7.45 24.9 31.05 27.6
Q 31.671484375 23.9333984375 31.9 18.3 32.26953125 10.1421875 32.25 1.3
L 13.35 9.6 11.85 0.95 7.55 7.7 3.25 11.75 -28.8 -4.5 -39.25 1.55 Z"/>

<path fill="#573523" stroke="none" d="
M 31.4 -27.1
L 31.4 -48.8 -18.25 -60.75 -18.75 -59.5
Q -3.3380859375 -54.8224609375 31.4 -27.1 Z"/>

<path fill="#D68B67" stroke="none" d="
M 32.25 -3.45
Q 32.1109375 -14.7396484375 31.4 -27.1 -3.3380859375 -54.8224609375 -18.75 -59.5 -32.4537109375 -38.380078125 -39.25 -7.85
L -39.25 1.55 -28.8 -4.5 3.25 11.75 7.55 7.7 11.85 0.95 13.35 9.6 32.25 1.3 32.25 -3.45 Z"/>
</g>

<g id="retrf_0_Layer8_0_FILL">
<path fill="#FFFFFF" stroke="none" d="
M 18.35 -3.7
Q 16.55 -5.95 13.9 -5.95 11.25 -5.95 9.25 -3.7 7.4 -1.4 7.3 1.8 7.2 4.95 9 7.2 10.85 9.45 13.45 9.45 16.15 9.45 18 7.2 20 4.95 20.1 1.8 20.15 -1.4 18.35 -3.7 Z"/>
</g>

<g id="Mask_retrf_0_7_MASK_0_FILL">
<path fill="#FFFFFF" stroke="none" d="
M 18.35 -3.7
Q 16.55 -5.95 13.9 -5.95 11.25 -5.95 9.25 -3.7 7.4 -1.4 7.3 1.8 7.2 4.95 9 7.2 10.85 9.45 13.45 9.45 16.15 9.45 18 7.2 20 4.95 20.1 1.8 20.15 -1.4 18.35 -3.7 Z"/>
</g>

<g id="retrf_0_Layer7_0_FILL">
<path fill="#000000" stroke="none" d="
M -2.15 -4.9
Q -4.2 -4.9 -5.65 -3.35 -7.15 -1.75 -7.2 0.5 -7.25 2.7 -5.9 4.25 -4.5 5.85 -2.45 5.85 -0.4 5.85 1.05 4.25 2.55 2.7 2.6 0.5 2.65 -1.75 1.25 -3.35 -0.1 -4.9 -2.15 -4.9 Z"/>
</g>

<g id="retrf_0_Layer5_0_FILL">
<path fill="#000000" stroke="none" d="
M 13.8 -7.1
Q 10.85 -7.15 8.6 -4.25 6.35 -1.4 7.3 2.35 7.9 -1.6 9.55 -3.4 11.25 -5.25 13.7 -5.05 16.15 -4.9 18 -2.95 19.95 -1 20 3.05 21 -1.75 18.85 -4.4 16.75 -7 13.8 -7.1 Z"/>
</g>

<g id="retrf_0_Layer3_0_FILL">
<path fill="#FFFFFF" stroke="none" d="
M -18.1 -7.35
Q -21.65 -7.35 -24.1 -4.95 -26.6 -2.45 -26.7 1 -26.75 4.45 -24.2 6.9 -21.85 9.35 -18.25 9.35 -14.75 9.35 -12.2 6.9 -9.75 4.45 -9.75 1 -9.6 -2.45 -12.05 -4.95 -14.5 -7.35 -18.1 -7.35 Z"/>
</g>

<g id="Mask_retrf_0_2_MASK_0_FILL">
<path fill="#FFFFFF" stroke="none" d="
M -18.1 -7.35
Q -21.65 -7.35 -24.1 -4.95 -26.6 -2.45 -26.7 1 -26.75 4.45 -24.2 6.9 -21.85 9.35 -18.25 9.35 -14.75 9.35 -12.2 6.9 -9.75 4.45 -9.75 1 -9.6 -2.45 -12.05 -4.95 -14.5 -7.35 -18.1 -7.35 Z"/>
</g>

<g id="retrf_0_Layer2_0_FILL">
<path fill="#000000" stroke="none" d="
M -2.15 -4.9
Q -4.2 -4.9 -5.65 -3.35 -7.15 -1.75 -7.2 0.5 -7.25 2.7 -5.9 4.25 -4.5 5.85 -2.45 5.85 -0.4 5.85 1.05 4.25 2.55 2.7 2.6 0.5 2.65 -1.75 1.25 -3.35 -0.1 -4.9 -2.15 -4.9 Z"/>
</g>

<g id="retrf_0_Layer0_0_FILL">
<path fill="#000000" stroke="none" d="
M -11.15 -5.6
Q -13.9 -8.65 -17.8 -8.65 -21.8 -8.55 -24.8 -5.7 -27.75 -2.8 -26.65 2.35 -26.35 -2 -23.75 -4.1 -21.15 -6.25 -17.8 -6.4 -14.5 -6.65 -12.45 -4.6 -10.35 -2.65 -9.75 1.65 -8.3 -2.45 -11.15 -5.6 Z"/>
</g>

<g id="rterytf_0_Layer6_0_FILL">
<path fill="#2A1718" stroke="none" d="
M 11.5 46.75
Q 12.85 45.85 14.1 44.75 20.066015625 38.3248046875 20.9 26.15 2.258984375 28.9833984375 -20.9 22.2 -18.718359375 32.6341796875 -12.2 40.9 -10.1 43.3 -7.65 45.1 1.95 52.05 11.5 46.75 Z"/>
</g>

<g id="rterytf_0_Layer6_0_MEMBER_0_FILL">
<path fill="#FFFFFF" fill-opacity="0.9882352941176471" stroke="none" d="
M 11.5 46.75
Q 12.85 45.85 14.1 44.75 14.78125 44.0162109375 15.4 43.2
L 14.45 38.25 14.45 38.2 18.35 28.8
Q -0.6 30.4 -15.75 25.35
L -19.05 24.25 -13.8 35.1 -13.8 35.1 -14.7 37.4
Q -13.5373046875 39.204296875 -12.2 40.9 -10.1 43.3 -7.65 45.1 1.95 52.05 11.5 46.75 Z"/>
</g>

<g id="rterytf_0_Layer6_0_MEMBER_0_MEMBER_0_FILL">
<path fill="#000000" fill-opacity="0.9764705882352941" stroke="none" d="
M -14 34.7
L -14 35.6
Q -9.583984375 37.0291015625 -5.45 37.9 -9.524609375 36.740625 -14 34.7
M 14.6 38.7
L 14.8 37.4
Q 11.5224609375 38.9126953125 7.75 39.3 11.3033203125 39.2859375 14.6 38.7 Z"/>
</g>

<g id="rterytf_0_Layer5_0_FILL">
<path fill="#261309" stroke="none" d="
M 37.3 27.1
Q 23.5541015625 25.12578125 10.35 19 -8.2634765625 20.81875 -31.25 19.45 -11.7837890625 34.02734375 10 29.45 24.9865234375 36.4447265625 37.3 27.1 Z"/>
</g>

<g id="rterytf_0_Layer5_1_FILL">
<path fill="#F0BF90" stroke="none" d="
M 12.35 3.65
L 2.1 11.05 0.1 19.4 16.35 27.1 12.35 3.65 Z"/>

<path fill="#D68B67" stroke="none" d="
M 13.4 -14.7
L 7.1 -9.9 2.1 11.05 12.35 3.65 11.05 -4.1 13.4 -14.7 Z"/>
</g>

<g id="rterytf_0_Layer4_0_FILL">
<path fill="#675152" stroke="none" d="
M 25.65 -38.95
Q 25.9 -38.4 26.15 -37.85 42.578125 -21.33828125 79.8 -37.05
L 56.1 -37.05
Q 56.0396484375 -67.8107421875 42.4 -84.55 16.0376953125 -96.93671875 -14.05 -80.8
L -20.35 -65.1
Q 9.4 -74.85 25.65 -38.95 Z"/>

<path fill="#573523" stroke="none" d="
M 2.95 -31.25
Q 15.29375 -17.5859375 32.05 -12.25 55.208984375 -14.4576171875 79.8 -37.05 42.578125 -21.33828125 26.15 -37.85 25.9 -38.4 25.65 -38.95 9.4 -74.85 -20.35 -65.1
L -32.9 -33.6 -18.85 -50.55
Q -9.966015625 -46.13359375 2.95 -31.25 Z"/>
</g>

<g id="rterytf_0_Layer3_0_FILL">
<path fill="#402313" stroke="none" d="
M 11.75 -26.6
Q 23.446484375 -21.95234375 28.9 -12.25 30.35 -24.25 23.3 -30.8 16.5388671875 -31.6109375 11.75 -26.6 Z"/>
</g>

<g id="rterytf_0_Layer2_0_FILL">
<path fill="#402313" stroke="none" d="
M -10.8 -35
Q -21.4455078125 -29.50859375 -24.2 -11.95 -13.9732421875 -26.89453125 1.9 -27.15 -2.22578125 -34.21015625 -10.8 -35 Z"/>
</g>

<g id="rgfhg_0_Layer8_0_FILL">
<path fill="#487082" stroke="none" d="
M 84.6 -70.95
L 37.4 -92.95
Q 15.59921875 -51.046875 -79.9 -116.7
L -151.25 -105.05
Q -125.5849609375 10.6853515625 -33.45 73.55
L 32.2 73.55
Q 80.6951171875 10.9775390625 84.6 -70.95 Z"/>
</g>

<g id="rgfhg_0_Layer7_0_FILL">
<path fill="#487082" stroke="none" d="
M -102.95 -66.15
L -151.2 -103.55
Q -251.2869140625 -28.5380859375 -272.4 20.15
L -194.9 59.5
Q -160.9361328125 -1.6513671875 -102.95 -66.15 Z"/>
</g>

<g id="rgfhg_0_Layer7_1_FILL">
<path fill="#487082" stroke="none" d="
M 81.85 -73.6
L 45.25 -28.35
Q 89.9017578125 9.58828125 149.2 46.2
L 172.45 12.1 81.85 -73.6 Z"/>
</g>

<g id="rgfhg_0_Layer6_0_FILL">
<path fill="#D8E6E1" stroke="none" d="
M -11.5 -80.15
Q -18.9892578125 -67.773046875 -21.75 -60.1 -55.8 -81.7 -75.7 -108.6 -52.6642578125 -66.8814453125 0.15 -27.85 -1.626953125 -48.5693359375 0.15 -63.15 -4.7529296875 -73.2587890625 -11.5 -80.15
M 35.6 -86.95
Q 35.5 -70.05 28.15 -53.9 22.4 -64.9 14.1 -75.3 11.5361328125 -69.710546875 10.8 -61.85 22.729296875 -43.161328125 28.45 -28.8 38.8119140625 -52.18828125 35.6 -86.95
M 5.95 -91.65
Q 10.8119140625 -88.1708984375 16.65 -79.7 21.6626953125 -72.37109375 27.4 -61.35 34.75859375 -77.4861328125 34.8 -94.4
L 14.4 -108.95
Q -4.5548828125 -82.1470703125 -34.55 -122.95
L -76.45 -117.1
Q -54.102734375 -87.608203125 -22.5 -67.55 -19.0966796875 -77.0001953125 -15.3 -83.7 -11.133984375 -90.9517578125 -6.5 -94.95
L 5.95 -91.65 Z"/>

<path fill="#3E6576" stroke="none" d="
M -102.2 -112.9
L -108.75 -106.8
Q -100.152734375 -56.5833984375 -72.05 -31.75 -62.3716796875 -38.505859375 -54.45 -41.25 -46.4783203125 -43.944140625 -43.6 -43.9
L -41.6 -48.45
Q -55.9087890625 -47.0630859375 -71.2 -38.8 -98.6826171875 -61.9873046875 -102.2 -112.9
M 14.4 70.55
L 21 70.55 34.9 18.4
Q -16.75078125 9.826953125 -51.75 -18.9 -52.8025390625 -19.7591796875 -53.85 -20.65
L -54 -14.7
Q -23.4470703125 9.890234375 28 22.1
L 14.4 70.55
M 53.5 -16.2
Q 52.841015625 -16.7654296875 52.15 -17.4 49.2048828125 -9.175 41.4 -0.4
L 38.15 8.95
Q 51.50234375 -6.4583984375 54.1 -15.7 53.8 -15.95 53.5 -16.2
M 63 -51.25
Q 62.853515625 -62.7578125 56.95 -76.6 59.93515625 -60.9794921875 59.8 -49.3 59.7 -41.309375 58.15 -35.15
L 35.2 -35.15
Q 36.5884765625 -33.9189453125 37.9 -32.75 38.823828125 -31.934765625 39.7 -31.15
L 59.35 -31.15
Q 63.1986328125 -39.6974609375 63 -51.25 Z"/>

<path fill="#ACBFB8" stroke="none" d="
M -76.45 -117.1
L -79.85 -116.6
Q -77.912890625 -112.573828125 -75.7 -108.6 -55.8 -81.7 -21.75 -60.1 -18.9892578125 -67.773046875 -11.5 -80.15 -13.3107421875 -82.0359375 -15.3 -83.7 -19.0966796875 -77.0001953125 -22.5 -67.55 -54.102734375 -87.608203125 -76.45 -117.1
M 35.6 -86.95
Q 35.285546875 -90.615234375 34.8 -94.4 34.75859375 -77.4861328125 27.4 -61.35 21.6626953125 -72.37109375 16.65 -79.7 15.19921875 -77.691796875 14.1 -75.3 22.4 -64.9 28.15 -53.9 35.5 -70.05 35.6 -86.95 Z"/>

<path fill="#224C5F" stroke="none" d="
M 19.75 -14.1
Q 9.494921875 -20.90625 0.15 -27.85 -52.6642578125 -66.8814453125 -75.7 -108.6 -77.912890625 -112.573828125 -79.85 -116.6
L -102.2 -112.9
Q -98.6826171875 -61.9873046875 -71.2 -38.8 -55.9087890625 -47.0630859375 -41.6 -48.45
L -43.6 -43.9 -53.85 -20.65
Q -52.8025390625 -19.7591796875 -51.75 -18.9 -16.75078125 9.826953125 34.9 18.4
L 38.15 8.95 41.4 -0.4
Q 30.1255859375 -7.196484375 19.75 -14.1
M 56.8 -77.35
Q 56.1013671875 -80.90859375 55.25 -84.65
L 34.8 -94.4
Q 35.285546875 -90.615234375 35.6 -86.95 38.8119140625 -52.18828125 28.45 -28.8 24.9177734375 -20.7638671875 19.75 -14.1 30.1255859375 -7.196484375 41.4 -0.4 49.2048828125 -9.175 52.15 -17.4 52.225 -17.582421875 52.3 -17.8 52.637109375 -18.756640625 52.9 -19.7 47.531640625 -24.26953125 39.7 -31.15 38.823828125 -31.934765625 37.9 -32.75 36.5884765625 -33.9189453125 35.2 -35.15
L 58.15 -35.15
Q 59.7 -41.309375 59.8 -49.3 59.93515625 -60.9794921875 56.95 -76.6 56.8748046875 -76.9658203125 56.8 -77.35 Z"/>

<path fill="#16292A" stroke="none" d="
M 16.65 -79.7
Q 10.8119140625 -88.1708984375 5.95 -91.65
L -6.5 -94.95
Q -11.133984375 -90.9517578125 -15.3 -83.7 -13.3107421875 -82.0359375 -11.5 -80.15 -4.7529296875 -73.2587890625 0.15 -63.15 -1.626953125 -48.5693359375 0.15 -27.85 9.494921875 -20.90625 19.75 -14.1 24.9177734375 -20.7638671875 28.45 -28.8 22.729296875 -43.161328125 10.8 -61.85 11.5361328125 -69.710546875 14.1 -75.3 15.19921875 -77.691796875 16.65 -79.7 Z"/>
</g>

<g id="rgfhg_0_Layer5_0_FILL">
<path fill="#7D6B2C" stroke="none" d="
M 38.05 145.55
Q 37.84375 114.9291015625 38.15 100.4 38.42265625 87.6654296875 38.75 86.85 1.0154296875 86.7947265625 -28.65 102.45 -27.6107421875 109.6875 -26.75 117 1.082421875 115.7537109375 34.55 126.95 -5.1673828125 119.85546875 -25.9 124.3 -24.4328125 137.166015625 -23.45 150.25 5.3583984375 154.178125 38.05 145.55
M 41.2 67.4
Q 41.70390625 63.7681640625 42.2 60.1 1.736328125 45.487109375 -36.45 58.75 -35.623828125 62.6259765625 -34.85 66.5 -3.68984375 55.457421875 41.1 67.35 2.4083984375 62.4439453125 -33.5 73.55 -31.262890625 85.16328125 -29.45 97 0.34140625 81.5728515625 38.8 86.8 39.9486328125 77.189453125 41.2 67.4 Z"/>

<path fill="#63541E" stroke="none" d="
M 38.75 86.85
Q 38.78125 86.85 38.8 86.85 38.821875 86.8259765625 38.8 86.8 0.34140625 81.5728515625 -29.45 97 -31.262890625 85.16328125 -33.5 73.55 2.4083984375 62.4439453125 41.1 67.35 -3.68984375 55.457421875 -34.85 66.5 -35.623828125 62.6259765625 -36.45 58.75 -42.962890625 61.0302734375 -49.4 64.1 -48.1818359375 68.0466796875 -47.05 72 -46.19453125 74.85078125 -45.4 77.7 -41.90703125 90.2220703125 -39.1 102.7 -38.5228515625 105.30546875 -38 107.85 -36.9208984375 112.844921875 -36 117.8 -35.0998046875 122.3947265625 -34.35 126.95 -32.2623046875 139.0537109375 -30.85 151.1 -27.1521484375 150.6515625 -23.45 150.25 -24.4328125 137.166015625 -25.9 124.3 -5.1673828125 119.85546875 34.55 126.95 1.082421875 115.7537109375 -26.75 117 -27.6107421875 109.6875 -28.65 102.45 1.0154296875 86.7947265625 38.75 86.85 Z"/>
</g>

<g id="rgfhg_0_Layer4_0_FILL">
<path fill="#172D38" stroke="none" d="
M 59.15 -61.75
L 55.25 -84.65 14.4 -108.95 -5.65 -94.45 59.15 -61.75
M -92.45 -121.65
L -127.95 -108.9 -66.1 -71.35 -7.25 -94.7 -8.85 -94.95 -15.15 -94.95 -45.05 -94.95 -92.45 -121.65 Z"/>

<path fill="#244859" stroke="none" d="
M -99.9 -190.85
Q -94.8953125 -173.89140625 -92.45 -121.65
L -45.05 -94.95 -15.15 -94.95
Q -66.1931640625 -135.47578125 -72.4 -157.85 -72.166796875 -172.9310546875 -36.9 -219.9 -17.9625 -245.0509765625 12.5 -274.15 -16.9564453125 -266.9431640625 -45.35 -255.25 -95.24765625 -207.5658203125 -99.9 -190.85 Z"/>

<path fill="#AF8828" stroke="none" d="
M 41.5 -280.1
Q 39.9943359375 -279.8484375 38.5 -279.6 6.3029296875 -250.6923828125 -14.8 -221.75 -48.25 -175.95 -51.4 -159.65 -51.25 -145.05 -8.85 -94.95
L -6.5 -94.95
Q -49.1724609375 -144.7578125 -49.3 -159.35 -46.1306640625 -175.6564453125 -12.7 -221.45 8.691796875 -250.8013671875 41.5 -280.1 Z"/>

<path fill="#E9B941" stroke="none" d="
M 38.5 -279.6
Q 25.3908203125 -277.295703125 12.5 -274.15 -17.9625 -245.0509765625 -36.9 -219.9 -72.166796875 -172.9310546875 -72.4 -157.85 -66.1931640625 -135.47578125 -15.15 -94.95
L -8.85 -94.95
Q -51.25 -145.05 -51.4 -159.65 -48.25 -175.95 -14.8 -221.75 6.3029296875 -250.6923828125 38.5 -279.6 Z"/>
</g>

<g id="rgfhg_0_Layer4_1_FILL">
<path fill="#E9B941" stroke="none" d="
M 12.2 -99.85
Q 20.1 -105.3 29.75 -113.25 10.45 -105.45 -11.35 -102
L -7.2 -96.3
Q 1.75 -96.45 12.2 -99.85 Z"/>

<path fill="#362C13" stroke="none" d="
M 29.75 -113.25
L 15.3 -117.3
Q 5.65 -109.45 -11.35 -102 10.45 -105.45 29.75 -113.25 Z"/>
</g>

<g id="rgfhg_0_Layer4_2_FILL">
<path fill="#D6DEE2" stroke="none" d="
M 57.45 -65.05
Q 63.2 -67.75 63.35 -71.4 63.5 -75.05 58 -77.45 52.45 -80 44.5 -79.75 36.55 -79.55 30.8 -76.75 25 -74.05 24.85 -70.4 24.7 -66.75 30.2 -64.3 35.75 -61.85 43.7 -62.1 51.65 -62.3 57.45 -65.05
M 61.7 -71.45
Q 61.55 -68.5 56.25 -66.25 51.1 -64.1 43.85 -63.9 36.55 -63.65 31.55 -65.65 26.45 -67.55 26.6 -70.45 26.75 -73.45 32.05 -75.65 37.1 -77.85 44.45 -78 51.65 -78.2 56.7 -76.3 61.8 -74.35 61.7 -71.45 Z"/>

<path fill="#9EBDCD" stroke="none" d="
M 56.25 -66.25
Q 61.55 -68.5 61.7 -71.45 61.8 -74.35 56.7 -76.3 51.65 -78.2 44.45 -78 37.1 -77.85 32.05 -75.65 26.75 -73.45 26.6 -70.45 26.45 -67.55 31.55 -65.65 36.55 -63.65 43.85 -63.9 51.1 -64.1 56.25 -66.25 Z"/>
</g>

<g id="rgfhg_0_Layer4_2_MEMBER_0_FILL">
<path fill="#FFFFFF" stroke="none" d="
M -441.25 6
Q -441.162890625 -2.8625 -435.55 -8.05 -446.71796875 -5.809375 -441.25 6 Z"/>
</g>

<g id="rgfhg_0_Layer4_3_FILL">
<path fill="#FCE3A3" stroke="none" d="
M 11.75 -269.95
Q 19.45 -268.75 14.4 -263.2 -40.55 -201.7333984375 -55.35 -164.6 -13.164453125 -230.28515625 10.65 -254.65 34.464453125 -279.01484375 11.75 -269.95 Z"/>
</g>

<g id="rgfhg_0_Layer3_0_FILL">
<path fill="#AA8B3C" stroke="none" d="
M -237.95 -83.35
L -237.95 -79.9
Q -198.68515625 -86.99140625 -140.45 -39.9 -101.9 -8.75 -60.9 17.8 -45.9275390625 -17.429296875 -42.2 -48.35 -46.5267578125 -19.7078125 -61.2 14.8 -102.2060546875 -11.760546875 -140.75 -42.9 -201.58359375 -92.1216796875 -237.95 -83.35
M 44.7 26.3
L 49.6 26.3
Q 31.7322265625 -4.436328125 33.3 -47.35 25.9181640625 -18.394140625 44.7 26.3 Z"/>

<path fill="#244859" stroke="none" d="
M -182.1 -116.25
Q -200.3810546875 -104.487890625 -204.1 -101.5 -168.753125 -101.959765625 -135.55 -72.65 -102.3455078125 -43.29921875 -73.1 -23.05 -61.9515625 -43.6642578125 -55.85 -79.25 -115.300390625 -126.82109375 -145.5 -133.2 -163.815234375 -128.0142578125 -182.1 -116.25
M 62.95 -83.5
Q 53.2041015625 -64.110546875 47.75 -59.7 49.8681640625 -33.7126953125 60.95 -2.45 101.3265625 -20.1810546875 120.35 -45.65 104.1689453125 -64.1263671875 94 -77.45 77.8359375 -85.0294921875 62.95 -83.5 Z"/>

<path fill="#DDB143" stroke="none" d="
M -204.1 -101.5
L -209.7 -102.45
Q -232.545703125 -90.5572265625 -237.95 -83.35 -201.58359375 -92.1216796875 -140.75 -42.9 -102.2060546875 -11.760546875 -61.2 14.8 -46.5267578125 -19.7078125 -42.2 -48.35 -40.8931640625 -57.8322265625 -40.7 -66.8 -48.5037109375 -73.32265625 -55.85 -79.25 -61.9515625 -43.6642578125 -73.1 -23.05 -102.3455078125 -43.29921875 -135.55 -72.65 -168.753125 -101.959765625 -204.1 -101.5
M 60.95 -2.45
Q 49.8681640625 -33.7126953125 47.75 -59.7
L 33.3 -47.35
Q 31.7322265625 -4.436328125 49.6 26.3 49.635546875 26.3251953125 49.65 26.35 107.98828125 13.632421875 143.65 -31.55 132.2998046875 -41.106640625 124.1 -50
L 120.35 -45.65
Q 101.3265625 -20.1810546875 60.95 -2.45 Z"/>
</g>

<g id="rgfhg_0_Layer2_0_FILL">
<path fill="#DDB143" stroke="none" d="
M -121.75 -180.45
Q -122.0234375 -164.2380859375 -119.65 -147.5 -90.85 -122.15 -63.85 -106.6
L -57.8 -78.45
Q -48.35 -73.3 -40.35 -70.65 -38.25 -91.9 -40.8 -111.3 -104.6421875 -146.0787109375 -121.75 -180.45
M 51.8 -63.9
L 61.2 -87.25 75.6 -97.7 86.65 -118.45
Q 73.35859375 -104.2779296875 47.65 -102.2
L 36.2 -63.9 51.8 -63.9 Z"/>

<path fill="#244859" stroke="none" d="
M -119.65 -147.5
Q -117.6533203125 -133.5587890625 -113.45 -119.15 -94.3 -98.35 -57.8 -78.45
L -63.85 -106.6
Q -90.85 -122.15 -119.65 -147.5
M 51.8 -63.9
Q 64.3318359375 -78.5994140625 75.6 -97.7
L 61.2 -87.25 51.8 -63.9 Z"/>
</g>

<g id="rgfhg_0_Layer2_1_FILL">
<path fill="#DDB143" stroke="none" d="
M 203.9 -107.8
Q 203.8 -106.5 203.65 -105.25 214.95 -95.75 227.7 -93.65 231.9 -93 236.15 -93 246.6 -93.3 258.05 -98.15 258.1 -99.4 258.15 -100.7 230.3 -91.8 203.9 -107.8 Z"/>
</g>

<g id="rgfhg_0_Layer2_2_FILL">
<path fill="#D6DEE2" stroke="none" d="
M 21.6 -12.85
Q 21.6 -5.8 25.75 -0.85 29.9 4.15 35.75 4.15 41.6 4.15 45.75 -0.85 49.9 -5.8 49.9 -12.85 49.9 -19.85 45.75 -24.8 41.6 -29.8 35.75 -29.8 29.9 -29.8 25.75 -24.8 21.6 -19.85 21.6 -12.85
M 26.7 -3.25
Q 22.9 -7.2 22.9 -12.85 22.9 -18.45 26.7 -22.4 30.4 -26.4 35.8 -26.4 41.1 -26.4 44.85 -22.4 48.65 -18.45 48.65 -12.85 48.65 -7.2 44.85 -3.25 41.1 0.75 35.8 0.75 30.4 0.75 26.7 -3.25 Z"/>

<path fill="#9EBDCD" stroke="none" d="
M 22.9 -12.85
Q 22.9 -7.2 26.7 -3.25 30.4 0.75 35.8 0.75 41.1 0.75 44.85 -3.25 48.65 -7.2 48.65 -12.85 48.65 -18.45 44.85 -22.4 41.1 -26.4 35.8 -26.4 30.4 -26.4 26.7 -22.4 22.9 -18.45 22.9 -12.85 Z"/>
</g>

<g id="rgfhg_0_Layer2_2_MEMBER_0_FILL">
<path fill="#FFFFFF" stroke="none" d="
M -441.25 6
Q -441.162890625 -2.8625 -435.55 -8.05 -446.71796875 -5.809375 -441.25 6 Z"/>
</g>

<g id="rgfhg_0_Layer2_3_FILL">
<path fill="#D6DEE2" stroke="none" d="
M 69.95 -25.8
Q 74.55 -22.3 79.75 -23.8 84.95 -25.25 87.8 -30.75 90.6 -36.3 89.35 -42.7 88.1 -49.05 83.55 -52.5 78.9 -56.05 73.7 -54.6 68.5 -53.1 65.7 -47.55 62.85 -42 64.1 -35.65 65.35 -29.25 69.95 -25.8
M 79.2 -26.85
Q 74.4 -25.5 70.35 -28.25 66.25 -30.9 65.25 -36 64.25 -41.1 66.95 -45.6 69.55 -50.15 74.35 -51.5 79.1 -52.8 83.1 -50.1 87.2 -47.5 88.2 -42.4 89.2 -37.3 86.5 -32.75 83.95 -28.15 79.2 -26.85 Z"/>

<path fill="#9EBDCD" stroke="none" d="
M 70.35 -28.25
Q 74.4 -25.5 79.2 -26.85 83.95 -28.15 86.5 -32.75 89.2 -37.3 88.2 -42.4 87.2 -47.5 83.1 -50.1 79.1 -52.8 74.35 -51.5 69.55 -50.15 66.95 -45.6 64.25 -41.1 65.25 -36 66.25 -30.9 70.35 -28.25 Z"/>
</g>

<g id="rgfhg_0_Layer2_3_MEMBER_0_FILL">
<path fill="#FFFFFF" stroke="none" d="
M -441.25 6
Q -441.162890625 -2.8625 -435.55 -8.05 -446.71796875 -5.809375 -441.25 6 Z"/>
</g>

<g id="fgfgg_0_Layer1_0_FILL">
<path fill="#A0C2CD" stroke="none" d="
M 3.65 18.55
Q 6.1859375 18.16796875 8.65 17.7 3.440625 11.7201171875 0.7 5.05 -1.5255859375 5.4330078125 -3.8 5.75 -1.09375 12.7345703125 3.65 18.55
M -56.6 21
Q -54.144921875 21.1611328125 -51.75 21.25 -54.10078125 15.6744140625 -55.25 9.8 -57.473828125 9.8162109375 -59.75 9.8 -58.6126953125 15.5697265625 -56.6 21
M -55.8 6.25
Q -56.1087890625 3.612890625 -56.2 0.9 -58.5662109375 1.075390625 -60.95 1.2 -60.7033203125 3.826171875 -60.35 6.35 -58.051171875 6.3365234375 -55.8 6.25
M -28.2 21.55
Q -25.8134765625 21.4806640625 -23.5 21.35 -26.7025390625 15.3134765625 -28.65 8.65 -30.8509765625 8.851953125 -33.1 9 -31.1875 15.4498046875 -28.2 21.55
M -2.4 -10.45
Q -2.3966796875 -12.3263671875 -2.25 -14.25 -4.7361328125 -13.798828125 -7.2 -13.4 -7.186328125 -11.408203125 -7.05 -9.5 -4.726171875 -9.9638671875 -2.4 -10.45
M -2.25 -7.15
Q -4.5 -6.6599609375 -6.75 -6.2 -6.2541015625 -2.3791015625 -5.3 1.15 -3.0888671875 0.7947265625 -0.9 0.35 -1.919140625 -3.2892578125 -2.25 -7.15
M -30.8 -1.95
Q -33.108984375 -1.587109375 -35.4 -1.3 -34.910546875 1.88671875 -34.2 4.95 -31.9271484375 4.7720703125 -29.7 4.55 -30.3849609375 1.371875 -30.8 -1.95
M -31.4 -9.6
Q -33.8125 -9.237890625 -36.25 -8.95 -36.0978515625 -6.8578125 -35.9 -4.85 -33.5240234375 -5.123828125 -31.2 -5.45 -31.340625 -7.490625 -31.4 -9.6
M -55.95 -6.6
Q -58.5640625 -6.334375 -61.2 -6.1 -61.1896484375 -4.2267578125 -61.15 -2.4 -58.65859375 -2.5392578125 -56.2 -2.75 -56.13125 -4.65390625 -55.95 -6.6 Z"/>

<path fill="#5E808B" stroke="none" d="
M 3.65 18.55
Q 7.4421875 23.1845703125 12.5 27.1 15.2609375 26.7701171875 18 26.4 12.6203125 22.2505859375 8.65 17.7 6.1859375 18.16796875 3.65 18.55
M -51.75 21.25
Q -54.144921875 21.1611328125 -56.6 21 -55.3345703125 24.455078125 -53.7 27.75 -50.9552734375 28.0263671875 -48.25 28.2 -50.21875 24.8076171875 -51.75 21.25
M -23.5 21.35
Q -25.8134765625 21.4806640625 -28.2 21.55 -26.2765625 25.4208984375 -23.95 29.15 -21.2771484375 29.1634765625 -18.65 29.1 -21.3494140625 25.37109375 -23.5 21.35 Z"/>

<path fill="#C0DCE5" stroke="none" d="
M -60.35 6.35
Q -60.7033203125 3.826171875 -60.95 1.2 -91.29140625 3.0283203125 -118.45 -1.1
L -119.25 2.6
Q -89.55078125 6.8537109375 -60.35 6.35
M -56.6 21
Q -58.6126953125 15.5697265625 -59.75 9.8 -88.44765625 9.6859375 -119.9 5.45
L -121.15 11.2
Q -86.9123046875 19.0138671875 -56.6 21
M -56.2 0.9
Q -56.1087890625 3.612890625 -55.8 6.25 -44.9408203125 5.9533203125 -34.2 4.95 -34.910546875 1.88671875 -35.4 -1.3 -45.974609375 0.1400390625 -56.2 0.9
M -28.2 21.55
Q -31.1875 15.4498046875 -33.1 9 -43.9470703125 9.72265625 -55.25 9.8 -54.10078125 15.6744140625 -51.75 21.25 -39.6357421875 21.887890625 -28.2 21.55
M -28.65 8.65
Q -26.7025390625 15.3134765625 -23.5 21.35 -9.404296875 20.71171875 3.65 18.55 -1.09375 12.7345703125 -3.8 5.75 -15.900390625 7.6794921875 -28.65 8.65
M -6.75 -6.2
Q -18.9873046875 -3.659375 -30.8 -1.95 -30.3849609375 1.371875 -29.7 4.55 -17.4388671875 3.283203125 -5.3 1.15 -6.2541015625 -2.3791015625 -6.75 -6.2
M -31.4 -9.6
Q -31.340625 -7.490625 -31.2 -5.45 -19.106640625 -7.1220703125 -7.05 -9.5 -7.186328125 -11.408203125 -7.2 -13.4 -19.418359375 -11.2408203125 -31.4 -9.6
M -55.95 -6.6
Q -56.13125 -4.65390625 -56.2 -2.75 -46.03203125 -3.5302734375 -35.9 -4.85 -36.0978515625 -6.8578125 -36.25 -8.95 -46.171875 -7.60546875 -55.95 -6.6
M -117.9 -3.55
L -118.15 -2.55
Q -89.6125 -0.496484375 -61.15 -2.4 -61.1896484375 -4.2267578125 -61.2 -6.1 -90.2998046875 -3.375390625 -117.9 -3.55 Z"/>

<path fill="#80A5B0" stroke="none" d="
M -53.7 27.75
Q -55.3345703125 24.455078125 -56.6 21 -86.9123046875 19.0138671875 -121.15 11.2
L -122.1 15.55
Q -86.8802734375 24.85390625 -53.7 27.75
M -23.95 29.15
Q -26.2765625 25.4208984375 -28.2 21.55 -39.6357421875 21.887890625 -51.75 21.25 -50.21875 24.8076171875 -48.25 28.2 -35.9296875 29.1333984375 -23.95 29.15
M -23.5 21.35
Q -21.3494140625 25.37109375 -18.65 29.1 -2.826171875 28.8794921875 12.5 27.1 7.4421875 23.1845703125 3.65 18.55 -9.404296875 20.71171875 -23.5 21.35 Z"/>

<path fill="#DCF2F7" stroke="none" d="
M -59.75 9.8
Q -60.08125 8.0978515625 -60.35 6.35 -89.55078125 6.8537109375 -119.25 2.6
L -119.9 5.45
Q -88.44765625 9.6859375 -59.75 9.8
M -33.1 9
Q -33.688671875 7.00625 -34.2 4.95 -44.9408203125 5.9533203125 -55.8 6.25 -55.5583984375 8.046875 -55.25 9.8 -43.9470703125 9.72265625 -33.1 9
M -3.8 5.75
Q -4.6392578125 3.5326171875 -5.3 1.15 -17.4388671875 3.283203125 -29.7 4.55 -29.215625 6.6349609375 -28.65 8.65 -15.900390625 7.6794921875 -3.8 5.75
M -31.2 -5.45
Q -31.0275390625 -3.6708984375 -30.8 -1.95 -18.9873046875 -3.659375 -6.75 -6.2 -6.9353515625 -7.827734375 -7.05 -9.5 -19.106640625 -7.1220703125 -31.2 -5.45
M -35.4 -1.3
Q -35.673828125 -3.036328125 -35.9 -4.85 -46.03203125 -3.5302734375 -56.2 -2.75 -56.2505859375 -0.905078125 -56.2 0.9 -45.974609375 0.1400390625 -35.4 -1.3
M -118.15 -2.55
L -118.45 -1.1
Q -91.29140625 3.0283203125 -60.95 1.2 -61.06328125 -0.5646484375 -61.15 -2.4 -89.6125 -0.496484375 -118.15 -2.55 Z"/>

<path fill="#B4D4DF" stroke="none" d="
M -55.8 6.25
Q -58.051171875 6.3365234375 -60.35 6.35 -60.08125 8.0978515625 -59.75 9.8 -57.473828125 9.8162109375 -55.25 9.8 -55.5583984375 8.046875 -55.8 6.25
M -29.7 4.55
Q -31.9271484375 4.7720703125 -34.2 4.95 -33.688671875 7.00625 -33.1 9 -30.8509765625 8.851953125 -28.65 8.65 -29.215625 6.6349609375 -29.7 4.55
M -0.9 0.35
Q -3.0888671875 0.7947265625 -5.3 1.15 -4.6392578125 3.5326171875 -3.8 5.75 -1.5255859375 5.4330078125 0.7 5.05 -0.2482421875 2.759375 -0.9 0.35
M -6.75 -6.2
Q -4.5 -6.6599609375 -2.25 -7.15 -2.3798828125 -8.7810546875 -2.4 -10.45 -4.726171875 -9.9638671875 -7.05 -9.5 -6.9353515625 -7.827734375 -6.75 -6.2
M -35.4 -1.3
Q -33.108984375 -1.587109375 -30.8 -1.95 -31.0275390625 -3.6708984375 -31.2 -5.45 -33.5240234375 -5.123828125 -35.9 -4.85 -35.673828125 -3.036328125 -35.4 -1.3
M -56.2 -2.75
Q -58.65859375 -2.5392578125 -61.15 -2.4 -61.06328125 -0.5646484375 -60.95 1.2 -58.5662109375 1.075390625 -56.2 0.9 -56.2505859375 -0.905078125 -56.2 -2.75 Z"/>
</g>

<g id="fgfgg_0_Layer0_0_FILL">
<path fill="#B86C48" stroke="none" d="
M 112.6 39.85
Q 116.3 38.95 120.1 35 100.75 37.05 67.25 29.3 67.1 29.4 66.95 29.5 65.95 30.3 66.35 31.15 94.75 37.65 112.6 39.85 Z"/>

<path fill="#D68B67" stroke="none" d="
M 93.25 27.95
L 96.65 27.3
Q 81.75 26.2 70.35 27.95 83.15 26.65 93.25 27.95
M 88.05 25.6
Q 93.5 25.55 98.6 26.1
L 101.8 25.45
Q 93.05 25.05 88.05 25.6 Z"/>

<path fill="#F2C191" stroke="none" d="
M 114.8 -1.7
Q 114.7 -1.6 114.6 -1.45 110.65 2.65 109.9 6.25
L 112.25 17.85
Q 111.15 20.7 108.9 24.05 94.75 23.4 81.95 25.55 80.9 25.7 79.75 26 79.25 26 78.8 26.05 73.4 27 70.35 27.95 81.75 26.2 96.65 27.3
L 93.25 27.95
Q 83.15 26.65 70.35 27.95 68.3 28.6 67.25 29.3 100.75 37.05 120.1 35 121.35 33.7 122.6 32.05 122.9 26.45 122.15 24.45 116.85 18.05 116 15.65 116.15 8.45 119.25 0.8 117.8 -1.65 114.8 -1.7
M 98.6 26.1
Q 93.5 25.55 88.05 25.6 93.05 25.05 101.8 25.45
L 98.6 26.1 Z"/>
</g>

<g id="fgfgg_0_Layer0_0_MEMBER_0_FILL">
<path fill="#D68B67" stroke="none" d="
M 102.1 30.45
Q 109.5 27.7 117.3 28.25 108.9 25.45 101.8 29.5 97.95 28.6 91.35 29.8 75.3 26.35 67.3 29.25 75.45 27.4 91.2 30.8
L 91.4 30.8
Q 98 29.6 101.75 30.5
L 101.95 30.55 102.1 30.45 Z"/>
</g>

<g id="asAD_0_Layer1_0_FILL">
<path fill="#A2C5D0" stroke="none" d="
M -94.85 68.4
Q -94.6767578125 59.819921875 -91.85 52.4 -102.2384765625 49.726953125 -111.75 45.7 -114.9357421875 53.5455078125 -115.85 62.75 -107.056640625 66.5240234375 -94.85 68.4
M -59.2 70.3
Q -58.6990234375 63.6494140625 -56.25 57.65 -71.233984375 56.94140625 -84.8 54.05 -87.9388671875 61.10703125 -89 69.2 -75.848046875 70.7080078125 -59.2 70.3
M 28.5 47
L 26.35 39.25
Q -13.2802734375 58.33984375 -48.4 57.9 -51.816796875 63.7529296875 -53.65 70.1 -21.60859375 69.1099609375 28.5 47 Z"/>

<path fill="#7FA2AD" stroke="none" d="
M -84.8 54.05
Q -88.3658203125 53.3294921875 -91.85 52.4 -94.6767578125 59.819921875 -94.85 68.4 -92.0166015625 68.88125 -89 69.2 -87.9388671875 61.10703125 -84.8 54.05
M -111.75 45.7
Q -114.4787109375 44.5474609375 -117.15 43.25 -119.9083984375 51.07578125 -120.85 60.3 -118.50546875 61.609765625 -115.85 62.75 -114.9357421875 53.5455078125 -111.75 45.7
M -48.4 57.9
Q -52.37734375 57.86484375 -56.25 57.65 -58.6990234375 63.6494140625 -59.2 70.3 -56.4712890625 70.2197265625 -53.65 70.1 -51.816796875 63.7529296875 -48.4 57.9 Z"/>

<path fill="#A0C2CD" stroke="none" d="
M -117.15 43.25
Q -114.4787109375 44.5474609375 -111.75 45.7 -103.0884765625 24.5611328125 -77.8 13.35 -80.74296875 11.393359375 -83.7 9.25 -108.7796875 19.6783203125 -117.15 43.25
M -55.8 25.75
Q -58.581640625 24.489453125 -61.35 23.05 -84.8220703125 34.0001953125 -91.85 52.4 -88.3658203125 53.3294921875 -84.8 54.05 -76.8701171875 36.49140625 -55.8 25.75
M -52 5.4
Q -53.6693359375 3.850390625 -55.3 2.2 -66.9494140625 3.611328125 -76.55 6.65 -73.9375 8.7798828125 -71.25 10.75 -62.468359375 7.563671875 -52 5.4
M -28.15 30.05
Q -24.5638671875 30.86796875 -20.9 31.5 -16.9990234375 29.1208984375 -12.7 26.85 -15.8537109375 26.37421875 -18.7 25.6 -23.723828125 27.7322265625 -28.15 30.05
M -26.8 35.35
Q -30.5359375 34.5916015625 -34.3 33.6 -50.5314453125 43.814453125 -56.25 57.65 -52.37734375 57.86484375 -48.4 57.9 -41.1576171875 45.4833984375 -26.8 35.35
M -35.6 17.9
Q -37.559765625 16.70546875 -39.5 15.4 -48.0029296875 17.62578125 -55.25 20.45 -52.566796875 21.7724609375 -49.85 22.95 -43.25625 20.148046875 -35.6 17.9 Z"/>

<path fill="#C0DCE5" stroke="none" d="
M -56.25 57.65
Q -50.5314453125 43.814453125 -34.3 33.6 -45.1142578125 30.6982421875 -55.8 25.75 -76.8701171875 36.49140625 -84.8 54.05 -71.233984375 56.94140625 -56.25 57.65
M -52 5.4
Q -62.468359375 7.563671875 -71.25 10.75 -63.64296875 16.2576171875 -55.25 20.45 -48.0029296875 17.62578125 -39.5 15.4 -46.0087890625 10.9884765625 -52 5.4
M -61.35 23.05
Q -69.6080078125 18.8294921875 -77.8 13.35 -103.0884765625 24.5611328125 -111.75 45.7 -102.2384765625 49.726953125 -91.85 52.4 -84.8220703125 34.0001953125 -61.35 23.05
M -26 23.05
Q -30.922265625 20.760546875 -35.6 17.9 -43.25625 20.148046875 -49.85 22.95 -39.5552734375 27.428125 -28.15 30.05 -23.723828125 27.7322265625 -18.7 25.6 -22.666015625 24.580078125 -26 23.05
M 24.1 33
L 21.85 26.6
Q 1.3080078125 29.110546875 -12.7 26.85 -16.9990234375 29.1208984375 -20.9 31.5 -0.178125 35.1091796875 24.1 33
M 26.35 39.25
L 24.65 34.6
Q -1.4599609375 40.463671875 -26.8 35.35 -41.1576171875 45.4833984375 -48.4 57.9 -13.2802734375 58.33984375 26.35 39.25 Z"/>

<path fill="#B4D4DF" stroke="none" d="
M -71.25 10.75
Q -73.9375 8.7798828125 -76.55 6.65 -80.27421875 7.8255859375 -83.7 9.25 -80.74296875 11.393359375 -77.8 13.35 -74.628125 11.9861328125 -71.25 10.75
M -49.85 22.95
Q -52.566796875 21.7724609375 -55.25 20.45 -58.4173828125 21.6998046875 -61.35 23.05 -58.581640625 24.489453125 -55.8 25.75 -52.93515625 24.306640625 -49.85 22.95
M -34.3 33.6
Q -30.5359375 34.5916015625 -26.8 35.35 -23.9701171875 33.384375 -20.9 31.5 -24.5638671875 30.86796875 -28.15 30.05 -31.3708984375 31.762109375 -34.3 33.6 Z"/>

<path fill="#DCF2F7" stroke="none" d="
M -77.8 13.35
Q -69.6080078125 18.8294921875 -61.35 23.05 -58.4173828125 21.6998046875 -55.25 20.45 -63.64296875 16.2576171875 -71.25 10.75 -74.628125 11.9861328125 -77.8 13.35
M -34.3 33.6
Q -31.3708984375 31.762109375 -28.15 30.05 -39.5552734375 27.428125 -49.85 22.95 -52.93515625 24.306640625 -55.8 25.75 -45.1142578125 30.6982421875 -34.3 33.6
M 24.65 34.6
L 24.1 33
Q -0.178125 35.1091796875 -20.9 31.5 -23.9701171875 33.384375 -26.8 35.35 -1.4599609375 40.463671875 24.65 34.6 Z"/>
</g>

<g id="asAD_0_Layer0_0_FILL">
<path fill="#D68B67" stroke="none" d="
M -116.5 41.1
L -120.8 36.35
Q -122.85 40.8 -122.25 47 -109.9 40.3 -96.6 37.25 -88.7 37.65 -81.7 36.4 -88 37.15 -95.25 35.05 -105.05 36.5 -116.5 41.1 Z"/>

<path fill="#B86C48" stroke="none" d="
M 15.7 -11.35
Q 15.35 -17.3 13.1 -21.35
L 2.6 -17.4
Q -7.8 -8.85 -13.75 11.4
L -17.25 26.1 -30.8 33.7
Q -58.25 41.3 -80.2 63.5 -85.7 55.8 -92.05 55.7 -82.35 46.6 -64.5 41.35 -61.9 40.6 -59.5 39.7 -88.35 44.8 -105.7 59.3 -113.7 59.3 -117.55 55.15 -105.4 45.45 -90.4 40.7 -105.9 42.25 -122.05 54.9 -126.4 53.4 -128.3 50.9 -127.1 59.35 -122.05 64.45
L -115.4 61.25
Q -113.9 64.2 -112.6 66.05 -109.9 67.2 -105.6 68.2
L -92 58.45
Q -91.7 63.7 -89.65 68.45
L -79.95 71.45
Q -53.85 48.25 -23.55 39.05 -13.35 34.15 -6.45 29.2 -4.75 25 -5 5.55 2.85 -4.75 15.7 -11.35 Z"/>

<path fill="#F2C191" stroke="none" d="
M 13.1 -21.35
Q 12.1 -23.1 10.8 -24.5 -4 -21.75 -12.7 -12 -14.2 -7.65 -14.85 4.4
L -23.55 11.2
Q -35.75 9.95 -39.8 11.2 -47.15 13.3 -69.8 26.95 -80.65 32.5 -93.45 30.9 -105.95 32.3 -120.8 36.35
L -116.5 41.1
Q -105.05 36.5 -95.25 35.05 -88 37.15 -81.7 36.4 -88.7 37.65 -96.6 37.25 -109.9 40.3 -122.25 47
L -128.3 50.9
Q -126.4 53.4 -122.05 54.9 -105.9 42.25 -90.4 40.7 -105.4 45.45 -117.55 55.15 -113.7 59.3 -105.7 59.3 -88.35 44.8 -59.5 39.7 -61.9 40.6 -64.5 41.35 -82.35 46.6 -92.05 55.7 -85.7 55.8 -80.2 63.5 -58.25 41.3 -30.8 33.7
L -17.25 26.1 -13.75 11.4
Q -7.8 -8.85 2.6 -17.4
L 13.1 -21.35 Z"/>
</g>

<g id="asAD_0_Layer0_0_MEMBER_0_FILL">
<path fill="#D68B67" stroke="none" d="
M 62.95 185.3
Q 52.4 189.25 44.8 204.2 53.4 192.8 62.95 185.3
M 41.95 204.7
Q 41.35 204.8 40.85 204.95 40.8 204.95 40.75 204.95 31.05 206.9 23.85 206.25 21.55 206 15.45 203.4 16.25 205.55 17 205.8 11.4 208.35 1.4 210.5 10.55 210.15 18.35 206.25 20.2 206.75 22.25 207.1 12.3 212.5 -5.85 214.65 13.6 213.4 23.9 207.3 30.45 207.85 39.1 206.3 34.3 210.15 24.65 214.05 34.35 211.9 41.1 205.9 41.55 205.8 42.1 205.7 53.05 203.4 58.9 209.55 53.75 202.2 41.95 204.7 Z"/>
</g>

<path id="rgfhg_0_Layer6_0_1_STROKES" stroke="#000000" stroke-width="1" stroke-linejoin="miter" stroke-linecap="butt" stroke-miterlimit="3" fill="none" d="
M 19.775 -14.075
Q 30.1255859375 -7.196484375 41.425 -0.4"/>

<path id="rgfhg_0_Layer4_2_1_STROKES" stroke="#272E31" stroke-width="1" stroke-linejoin="miter" stroke-linecap="butt" stroke-miterlimit="3" fill="none" d="
M 15.188504791259767 -92.56668090820312
Q 14.611148071289072 -88.95973892211914 8.584343719482426 -86.95344772338868 2.5020195007324233 -84.90337371826172 -5.416017150878901 -85.63786468505859 -13.33992233276367 -86.32270431518555 -18.563662719726565 -89.40702667236329 -23.737751770019536 -92.48548049926758 -23.160395050048827 -96.09242248535156 -22.583038330078125 -99.69936447143556 -16.50658264160156 -101.69978713989258 -10.468041229248051 -103.80538101196291 -2.55000457763672 -103.07089004516601 5.37390060424805 -102.38605041503905 10.585903930664067 -99.20242538452149 15.765861511230462 -96.17362289428712 15.188504791259767 -92.56668090820312 Z"/>

<path id="rgfhg_0_Layer2_0_1_STROKES" stroke="#000000" stroke-opacity="0.2980392156862745" stroke-width="1" stroke-linejoin="round" stroke-linecap="round" fill="none" d="
M 56.35 -175.6
Q 50.35 -158.6 38.5 -136.7
M 75.6 -97.7
Q 64.3318359375 -78.5994140625 51.8 -63.9
M -57.8 -78.45
Q -94.3 -98.35 -113.45 -119.15"/>

<path id="rgfhg_0_Layer2_2_1_STROKES" stroke="#272E31" stroke-width="1" stroke-linejoin="miter" stroke-linecap="butt" stroke-miterlimit="3" fill="none" d="
M -37.62773208618164 -61.63961944580078
Q -38.26295928955078 -53.24838104248047 -43.05977020263671 -47.57747116088867 -47.86108627319335 -41.847048950195315 -53.9941421508789 -42.158312225341795 -60.12719802856445 -42.46957550048828 -64.02748260498046 -48.64161911010742 -67.93227233886718 -54.754150390625 -67.29704513549804 -63.145388793945315 -66.6663230895996 -71.47711486816407 -61.869512176513666 -77.14802474975586 -57.06819610595703 -82.87844696044922 -50.93514022827148 -82.56718368530274 -44.80208435058593 -82.25592041015625 -40.901799774169916 -76.08387680053711 -36.9970100402832 -69.97134552001953 -37.62773208618164 -61.63961944580078 Z"/>

<path id="rgfhg_0_Layer2_3_1_STROKES" stroke="#272E31" stroke-width="1" stroke-linejoin="miter" stroke-linecap="butt" stroke-miterlimit="3" fill="none" d="
M 56.56111602783202 -53.409326171875
Q 57.95183868408203 -46.018701171875 55.273871612548824 -39.6096435546875 52.54480514526367 -33.2583251953125 47.376687622070314 -31.58388671875 42.209669494628905 -29.851708984375 37.53271179199219 -33.89345703125 32.856853485107415 -37.8774658203125 31.466130828857416 -45.2680908203125 30.076507568359375 -52.6009765625 32.80447463989258 -59.0100341796875 35.482441711425786 -65.419091796875 40.649459838867195 -67.15126953125 45.817577362060554 -68.8257080078125 50.545634460449214 -64.726220703125 55.17149276733398 -60.7422119140625 56.56111602783202 -53.409326171875 Z"/>
</defs>

<g transform="matrix( 0.6858978271484375, 0.0244903564453125, -0.0244903564453125, 0.6858978271484375, 778.65,347.3) ">
<g transform="matrix( 1, 0, 0, 1, 0,0) ">
<use xlink:href="#rtfh_0_Layer3_0_FILL"/>
</g>

<g transform="matrix( 1, 0, 0, 1, -179.45,-80.9) ">
<g transform="matrix( 1, 0, 0, 1, 179.45,80.9) ">
<use xlink:href="#rtyrtg_0_Layer0_0_FILL"/>
</g>

<g transform="matrix( 1, 0, 0, 1, 179.45,80.9) ">
<use xlink:href="#rtyrtg_0_Layer0_1_FILL"/>
</g>

<g transform="matrix( 1.5555419921875, 0, 0, 1.5555419921875, -1460.15,-643) ">
<use xlink:href="#rtyrtg_0_Layer0_1_MEMBER_0_FILL"/>
</g>

<g transform="matrix( 0.9809417724609375, 0.5662841796875, -0.5662841796875, 0.9809417724609375, -1668.05,-1177.5) ">
<use xlink:href="#rtyrtg_0_Layer0_2_FILL"/>
</g>

<g transform="matrix( 0.98089599609375, 0.5662841796875, -0.5662841796875, 0.98089599609375, -1730.5,-1318.7) ">
<use xlink:href="#rtyrtg_0_Layer0_3_FILL"/>
</g>

<g transform="matrix( 3.4748992919921875, 2.0060882568359375, -1.69207763671875, 2.93096923828125, -5693.6,-4580.8) ">
<use xlink:href="#rtyrtg_0_Layer0_4_FILL"/>
</g>

<g transform="matrix( 1.591766357421875, -0.426483154296875, 0.426483154296875, 1.591766357421875, -3060.75,277.65) ">
<use xlink:href="#rtyrtg_0_Layer0_5_FILL"/>
</g>

<g transform="matrix( 2.3269195556640625, -0.6234588623046875, 0.6071014404296875, 2.2658843994140625, -4479.6,663.05) ">
<use xlink:href="#rtyrtg_0_Layer0_6_FILL"/>
</g>

<g transform="matrix( 1.5916900634765625, 0.426422119140625, -0.426422119140625, 1.5916900634765625, -2641.5,-1220.9) ">
<use xlink:href="#rtyrtg_0_Layer0_7_FILL"/>
</g>
</g>

<g transform="matrix( 1, 0, 0, 1, -287.65,-41.05) ">
<g transform="matrix( 1, 0, 0, 1, 0,0) ">
<use filter="url(#Filter_1)" xlink:href="#trytdsfd_0_Layer0_0_FILL"/>
</g>
</g>

<g transform="matrix( 1, 0, 0, 1, 0,0) ">
<use xlink:href="#rtfh_0_Layer0_0_FILL"/>
</g>
</g>

<g transform="matrix( -0.7003021240234375, 0, 0, 0.7003021240234375, 1028.4,391.4) ">
<g filter="url(#Filter_2)" transform="matrix( -1.427947998046875, 0, 0, 1.427947998046875, 1468.5,-558.9) ">
<g transform="matrix( -0.655609130859375, -0.015716552734375, 0, 1.1119842529296875, 931.4,966.5) ">
<g transform="matrix( 1, 0, 0, 1, 0,0) ">
<use xlink:href="#regrfg_0_Layer0_0_FILL"/>
</g>
</g>
</g>

<g transform="matrix( 1.03948974609375, -0.27850341796875, 0.27850341796875, 1.03948974609375, 29.6,133.3) ">
<g transform="matrix( 1, 0, 0, 1.21087646484375, 0,28.15) ">
<use xlink:href="#trytjj_0_Layer5_0_FILL"/>
</g>

<g transform="matrix( 1, 0, 0, 1, 0.85,27.5) ">
<use xlink:href="#trytjj_0_Layer3_0_FILL"/>
</g>

<g transform="matrix( -0.9808197021484375, 0.19451904296875, 0.19451904296875, 0.9808197021484375, -8.95,-93.15) ">
<g transform="matrix( 1, 0, 0, 1, 0,0) ">
<use xlink:href="#tyrtasfd_0_Layer0_0_FILL"/>
</g>
</g>

<g transform="matrix( 1, 0, 0, 1.21087646484375, 0,28.15) ">
<use xlink:href="#trytjj_0_Layer1_0_FILL"/>
</g>

<g transform="matrix( 1, 0, 0, 1.21087646484375, 0,28.15) ">
<use xlink:href="#trytjj_0_Layer1_1_FILL"/>
</g>

<g transform="matrix( 1, 0, 0, 1.2108001708984375, 0,28.15) ">
<use xlink:href="#trytjj_0_Layer1_1_MEMBER_0_FILL"/>
</g>
</g>

<g transform="matrix( 0.9981689453125, -0.0590362548828125, 0.0590362548828125, 0.9981689453125, -14.15,-135.65) ">
<g transform="matrix( 1, 0, 0, 1, 0,0) ">
<use xlink:href="#rgfhg_0_Layer13_0_FILL"/>
</g>

<g transform="matrix( 1, 0, 0, 1, 0,0) ">
<use xlink:href="#rgfhg_0_Layer12_0_FILL"/>
</g>

<g transform="matrix( 1, 0, 0, 1, 0,0) ">
<use xlink:href="#rgfhg_0_Layer11_0_FILL"/>
</g>

<g transform="matrix( 0.86614990234375, 0.0473175048828125, -0.0405731201171875, 0.952880859375, -23.5,-137.6) ">
<g transform="matrix( 1, 0, 0, 1, 0,0) ">
<use xlink:href="#rergf_0_Layer2_0_FILL"/>
</g>

<mask id="Mask_Mask_1">
<g transform="matrix( 1, 0, 0, 1, 0,0) ">
<use xlink:href="#Mask_rergf_0_1_MASK_0_FILL"/>
</g>
</mask>

<g mask="url(#Mask_Mask_1)">
<g transform="matrix( 1, 0, 0, 1, -1.65,-9.4) ">
<use xlink:href="#rergf_0_Layer1_0_FILL"/>
</g>
</g>
</g>

<g transform="matrix( 0.919952392578125, 0.2720794677734375, -0.2952880859375, 0.9029998779296875, 3.45,-190.85) ">
<g transform="matrix( 1, 0, 0, 1, -5.5,-5.05) ">
<use xlink:href="#rterytf_0_Layer9_0_FILL"/>
</g>

<g transform="matrix( 1, 0, 0, 1, 0,0) ">
<use xlink:href="#rterytf_0_Layer8_0_FILL"/>
</g>

<g transform="matrix( 1, 0.037872314453125, 0, 1, 6.25,-6.2) ">
<g transform="matrix( 1, 0, 0, 1, 0,0) ">
<use xlink:href="#retrf_0_Layer8_0_FILL"/>
</g>

<mask id="Mask_Mask_2">
<g transform="matrix( 1, 0, 0, 1, 0,0) ">
<use xlink:href="#Mask_retrf_0_7_MASK_0_FILL"/>
</g>
</mask>

<g mask="url(#Mask_Mask_2)">
<g transform="matrix( 0.89825439453125, 0, 0.011962890625, 0.9338226318359375, 13.25,2.75) ">
<use xlink:href="#retrf_0_Layer7_0_FILL"/>
</g>
</g>

<g transform="matrix( 1, 0, 0, 1, 0,0) ">
<use xlink:href="#retrf_0_Layer5_0_FILL"/>
</g>

<g transform="matrix( 1, 0, 0, 1, 0,0) ">
<use xlink:href="#retrf_0_Layer3_0_FILL"/>
</g>

<mask id="Mask_Mask_3">
<g transform="matrix( 1, 0, 0, 1, 0,0) ">
<use xlink:href="#Mask_retrf_0_2_MASK_0_FILL"/>
</g>
</mask>

<g mask="url(#Mask_Mask_3)">
<g transform="matrix( -1.12567138671875, 0, -0.0453643798828125, 1.0146636962890625, -20.55,2.25) ">
<use xlink:href="#retrf_0_Layer2_0_FILL"/>
</g>
</g>

<g transform="matrix( 1, 0, 0, 1, 0,0) ">
<use xlink:href="#retrf_0_Layer0_0_FILL"/>
</g>
</g>

<g transform="matrix( 1, 0, 0, 1, 0,0) ">
<use xlink:href="#rterytf_0_Layer6_0_FILL"/>
</g>

<g transform="matrix( 1, 0, 0, 1, 0,0) ">
<use xlink:href="#rterytf_0_Layer6_0_MEMBER_0_FILL"/>
</g>

<g transform="matrix( 1, 0, 0, 1, 0,0) ">
<use xlink:href="#rterytf_0_Layer6_0_MEMBER_0_MEMBER_0_FILL"/>
</g>

<g transform="matrix( 1, 0, 0, 1, 0,0) ">
<use xlink:href="#rterytf_0_Layer5_0_FILL"/>
</g>

<g transform="matrix( 1, 0, 0, 1, 0,0) ">
<use xlink:href="#rterytf_0_Layer5_1_FILL"/>
</g>

<g transform="matrix( 1, 0, 0, 1, 0,0) ">
<use xlink:href="#rterytf_0_Layer4_0_FILL"/>
</g>

<g transform="matrix( 1, 0, 0, 1, 0,0) ">
<use xlink:href="#rterytf_0_Layer3_0_FILL"/>
</g>

<g transform="matrix( 1, 0, 0, 1, 0,0) ">
<use xlink:href="#rterytf_0_Layer2_0_FILL"/>
</g>
</g>

<g transform="matrix( 1, 0, 0, 1, 0,0) ">
<use xlink:href="#rgfhg_0_Layer8_0_FILL"/>
</g>

<g transform="matrix( 1, 0, 0, 1, 0,0) ">
<use xlink:href="#rgfhg_0_Layer7_0_FILL"/>
</g>

<g transform="matrix( 1, 0, 0, 1, 0,0) ">
<use xlink:href="#rgfhg_0_Layer7_1_FILL"/>
</g>

<g transform="matrix( 1, 0, 0, 1, 0,0) ">
<use xlink:href="#rgfhg_0_Layer6_0_FILL"/>

<use xlink:href="#rgfhg_0_Layer6_0_1_STROKES"/>
</g>

<g transform="matrix( 1, 0, 0, 1, 0,0) ">
<use xlink:href="#rgfhg_0_Layer5_0_FILL"/>
</g>

<g transform="matrix( 1, 0, 0, 1, 0,0) ">
<use xlink:href="#rgfhg_0_Layer4_0_FILL"/>
</g>

<g transform="matrix( 0.99932861328125, -0.0060882568359375, 0.109527587890625, 1, 12.75,-0.1) ">
<use xlink:href="#rgfhg_0_Layer4_1_FILL"/>
</g>

<g transform="matrix( 0.9930267333984375, 0.11737060546875, -0.11737060546875, 0.9930267333984375, -56.1,-29.1) ">
<use xlink:href="#rgfhg_0_Layer4_2_FILL"/>

<use xlink:href="#rgfhg_0_Layer4_2_1_STROKES" transform="matrix( 0.993133544921875, -0.11737060546875, 0.11737060546875, 0.993133544921875, 59.1,22.3) "/>
</g>

<g transform="matrix( 1.583831787109375, 0.1454925537109375, -0.097564697265625, 0.601654052734375, 681.3,-31.7) ">
<use xlink:href="#rgfhg_0_Layer4_2_MEMBER_0_FILL"/>
</g>

<g transform="matrix( 1, 0, 0, 1, 0,0) ">
<use xlink:href="#rgfhg_0_Layer4_3_FILL"/>
</g>

<g transform="matrix( 1, 0, 0, 1, 0,0) ">
<use xlink:href="#rgfhg_0_Layer3_0_FILL"/>
</g>

<g transform="matrix( 1, 0, 0, 1, 0,0) ">
<use xlink:href="#rgfhg_0_Layer2_0_FILL"/>

<use xlink:href="#rgfhg_0_Layer2_0_1_STROKES"/>
</g>

<g transform="matrix( 1.49847412109375, 0.0961456298828125, -0.017913818359375, 0.958740234375, -350.4,19.4) ">
<use xlink:href="#rgfhg_0_Layer2_1_FILL"/>
</g>

<g transform="matrix( 1.0483856201171875, 0.0532073974609375, -0.0901031494140625, 1.19024658203125, -91.1,-49) ">
<use xlink:href="#rgfhg_0_Layer2_2_FILL"/>

<use xlink:href="#rgfhg_0_Layer2_2_1_STROKES" transform="matrix( 0.9501953125, -0.0424652099609375, 0.071929931640625, 0.836944580078125, 90.05,37.1) "/>
</g>

<g transform="matrix( 1.2257537841796875, 0.0622406005859375, -0.105316162109375, 1.391632080078125, 477.65,-36.95) ">
<use xlink:href="#rgfhg_0_Layer2_2_MEMBER_0_FILL"/>
</g>

<g transform="matrix( 1, 0, 0.0219879150390625, 1.15478515625, -31.85,-4.1) ">
<use xlink:href="#rgfhg_0_Layer2_3_FILL"/>

<use xlink:href="#rgfhg_0_Layer2_3_1_STROKES" transform="matrix( 1, 0, -0.0190277099609375, 0.8659515380859375, 31.75,3.55) "/>
</g>

<g transform="matrix( 1.0369720458984375, -0.3351593017578125, 0.2314300537109375, 1.2249603271484375, 493.25,-195.65) ">
<use xlink:href="#rgfhg_0_Layer2_3_MEMBER_0_FILL"/>
</g>
</g>

<g transform="matrix( -1.2104339599609375, 0.0683441162109375, 0.066925048828125, 1.22674560546875, 144.8,-131.7) ">
<g transform="matrix( 1, 0, 0, 1, 0,0) ">
<use xlink:href="#fgfgg_0_Layer1_0_FILL"/>
</g>

<g transform="matrix( 1.6670379638671875, -0.269805908203125, 0.269805908203125, 1.6670379638671875, -319.45,-18.1) ">
<use xlink:href="#fgfgg_0_Layer0_0_FILL"/>
</g>

<g transform="matrix( 1.6670074462890625, -0.2697906494140625, 0.2697906494140625, 1.6670074462890625, -319.45,-18.1) ">
<use xlink:href="#fgfgg_0_Layer0_0_MEMBER_0_FILL"/>
</g>
</g>

<g transform="matrix( 1.100830078125, 0.65167236328125, -0.65167236328125, 1.100830078125, -114.2,-85.1) ">
<g transform="matrix( 1, 0, 0, 1, 0,0) ">
<use xlink:href="#asAD_0_Layer1_0_FILL"/>
</g>

<g transform="matrix( -0.94525146484375, 0.32623291015625, 0.32623291015625, 0.94525146484375, -7.15,21.3) ">
<use xlink:href="#asAD_0_Layer0_0_FILL"/>
</g>

<g transform="matrix( -0.945220947265625, 0.3262176513671875, 0.3262176513671875, 0.945220947265625, 18.15,-170.95) ">
<use xlink:href="#asAD_0_Layer0_0_MEMBER_0_FILL"/>
</g>
</g>
</g>
</svg>
