<?xml version="1.0" encoding="utf-8"?>
<!-- Generator: Adobe Illustrator 24.0.1, SVG Export Plug-In . SVG Version: 6.00 Build 0)  -->
<svg version="1.1" id="Layer_1" xmlns="http://www.w3.org/2000/svg" xmlns:xlink="http://www.w3.org/1999/xlink" x="0px" y="0px"
	 viewBox="0 0 986 1188.6" style="enable-background:new 0 0 986 1188.6;" xml:space="preserve">
<style type="text/css">
	.st0{filter:url(#Filter_1);}
	.st1{opacity:0.298;}
	.st2{filter:url(#Filter_2);}
	.st3{fill:#2E444F;}
	.st4{fill:#21313A;}
	.st5{fill:#171717;}
	.st6{fill:none;stroke:#CCCCCC;stroke-width:2.4111;stroke-miterlimit:2.4111;stroke-opacity:0.498;}
	.st7{fill:#364D59;}
	.st8{fill:#587E91;}
	.st9{fill:#405C6A;}
	.st10{fill:#171717;fill-opacity:0.2;}
	.st11{fill:#362C13;}
	.st12{fill:#10171E;}
	.st13{fill:#193847;}
	.st14{fill:#997317;}
	.st15{fill:#F0BF90;}
	.st16{filter:url(#Adobe_OpacityMaskFilter);}
	.st17{fill:#FFFFFF;}
	.st18{mask:url(#Mask_Mask_1_1_);}
	.st19{fill:#D68B67;}
	.st20{fill:#482A1B;}
	.st21{fill:#573523;}
	.st22{filter:url(#Adobe_OpacityMaskFilter_1_);}
	.st23{mask:url(#Mask_Mask_2_1_);}
	.st24{filter:url(#Adobe_OpacityMaskFilter_2_);}
	.st25{mask:url(#Mask_Mask_3_1_);}
	.st26{fill:#261309;}
	.st27{fill:#675152;}
	.st28{fill:#402313;}
	.st29{fill:#487082;}
	.st30{fill:#3E6576;}
	.st31{fill:#ACBFB8;}
	.st32{fill:#D8E6E1;}
	.st33{fill:#224C5F;}
	.st34{fill:#16292A;}
	.st35{fill:none;stroke:#000000;stroke-width:0.7468;stroke-miterlimit:2.2404;}
	.st36{fill:#63541E;}
	.st37{fill:#7D6B2C;}
	.st38{fill:#172D38;}
	.st39{fill:#244859;}
	.st40{fill:#E9B941;}
	.st41{fill:#AF8828;}
	.st42{fill:#D6DEE2;}
	.st43{fill:#9EBDCD;}
	.st44{fill:none;stroke:#272E31;stroke-width:0.7468;stroke-miterlimit:2.2404;}
	.st45{fill:#FCE3A3;}
	.st46{fill:none;stroke:#184C64;stroke-width:2.2404;stroke-miterlimit:2.2404;stroke-opacity:0.498;}
	.st47{fill:#AA8B3C;}
	.st48{fill:#DDB143;}
	
		.st49{fill:none;stroke:#000000;stroke-width:0.7468;stroke-linecap:round;stroke-linejoin:round;stroke-miterlimit:2.9872;stroke-opacity:0.298;}
	.st50{fill:#C0DCE5;}
	.st51{fill:#B4D4DF;}
	.st52{fill:#DCF2F7;}
	.st53{fill:#80A5B0;}
	.st54{fill:#5E808B;}
	.st55{fill:#A0C2CD;}
	.st56{fill:#E59F79;}
	.st57{fill:#F2C191;}
	.st58{fill:#B86C48;}
	.st59{fill:#382921;}
	.st60{fill:#574339;}
	.st61{fill:#695348;}
	.st62{fill:#DACFA2;}
	.st63{fill:#999278;}
	.st64{fill:#CDC6AD;}
	.st65{fill:#7A655B;}
	.st66{fill:#B1AB96;}
	.st67{fill:#EFE8CE;}
	.st68{filter:url(#Filter_3);}
	.st69{fill:#3DBCDB;}
	.st70{fill:#4FBED9;}
	.st71{fill:#403E33;}
	.st72{fill:#545245;}
	.st73{fill:#1D1C15;}
	.st74{fill:#28271E;}
	.st75{fill:#39372B;}
	.st76{fill:url(#SVGID_1_);}
	.st77{fill:#686556;}
	.st78{fill:#FFFFFF;fill-opacity:0.2;}
	.st79{fill:#A5D5E7;}
</style>
<filter  color-interpolation-filters="sRGB" height="161.63506322763573%" id="Filter_3" width="235.9043728740343%" x="-67.95218643701715%" y="-30.817531613817867%">
	<feGaussianBlur  in="SourceGraphic" result="result1" stdDeviation="21.666666666666668,21.666666666666668"></feGaussianBlur>
</filter>
<filter  color-interpolation-filters="sRGB" height="251.0631579812683%" id="Filter_2" width="143.0367651599424%" x="-21.518382579971203%" y="-75.53157899063415%">
	<feGaussianBlur  in="SourceGraphic" result="result1" stdDeviation="8.666666666666666,8.666666666666666"></feGaussianBlur>
</filter>
<filter  color-interpolation-filters="sRGB" height="212.95147507642025%" id="Filter_1" width="140%" x="-20%" y="-56.47573753821013%">
	<feGaussianBlur  in="SourceGraphic" result="result1" stdDeviation="8.666666666666666,8.666666666666666"></feGaussianBlur>
</filter>
<g transform="matrix( -0.74688720703125, 0, 0, 0.74688720703125, 1060.05,380.6) ">
	<g transform="matrix( -1.3388824462890625, 0, 0, 1.3388824462890625, 1419.25,-509.55) " class="st0">
		<g transform="matrix( -0.6573944091796875, -0.0157470703125, 0, 0.523590087890625, 1049.25,971.15) ">
			<g transform="matrix( 1, 0, 0, 1, 0,0) ">
				<g>
					<g id="regrfg_0_Layer0_0_FILL_2_">
						<g>
							<path class="st1" d="M806.7,212c60.5-8.1,133.5-9.6,219-4.4c85.5,5.2,158.6,15.5,219,31.1c60.5,15.5,90.7,31.5,90.7,48.1
								c0,16.6-30.2,28.9-90.7,37.1c-60.5,8.1-133.5,9.6-219,4.4c-85.5-5.2-158.6-15.5-219-31c-60.5-15.5-90.7-31.5-90.7-48.1
								C716,232.4,746.3,220.1,806.7,212z"/>
						</g>
					</g>
				</g>
			</g>
		</g>
	</g>
	<g transform="matrix( -1.3388824462890625, 0, 0, 1.3388824462890625, 1419.25,-509.55) " class="st2">
		<g transform="matrix( -0.466339111328125, -0.01116943359375, 0, 0.371429443359375, 727.15,992.7) ">
			<g transform="matrix( 1, 0, 0, 1, 0,0) ">
				<g>
					<g id="regrfg_0_Layer0_0_FILL_2_">
						<g>
							<path class="st1" d="M-261,285.7c60.5-8.1,133.5-9.6,219-4.4c85.5,5.2,158.6,15.5,219,31c60.5,15.5,90.7,31.5,90.7,48.1
								c0,16.6-30.2,28.9-90.7,37.1c-60.5,8.1-133.5,9.6-219,4.4c-85.5-5.2-158.6-15.5-219-31c-60.5-15.5-90.7-31.5-90.7-48.1
								C-351.7,306.2-321.5,293.9-261,285.7z"/>
						</g>
					</g>
				</g>
			</g>
		</g>
	</g>
	<g transform="matrix( 1.07470703125, -0.055389404296875, 0.055389404296875, 1.07470703125, 105.5,157.25) ">
		<g transform="matrix( 1, 0, 0, 1, 0,0) ">
			<g>
				<g id="trytjj_0_Layer5_0_FILL">
					<path class="st3" d="M497.6,300.8l25.9-93.7L658.8-13.2c75.5,96.5,152.3,169.8,230.6,219.7C734.6,208,604.1,239.4,497.6,300.8z
						"/>
					<path class="st4" d="M470.8,397.8l26.8-97c106.4-61.3,237-92.8,391.7-94.3c51.8,33.1,104.3,55.9,157.3,68.6
						C804.5,253.7,612.5,294.6,470.8,397.8z"/>
				</g>
			</g>
		</g>
		<g transform="matrix( -0.9889984130859375, -0.14727783203125, -0.1379852294921875, 0.9903564453125, 10.8,-104.7) ">
			<g transform="matrix( 1, 0, 0, 1, 0,0) ">
				<g>
					<g id="tyrtasfd_copy_0_Layer0_0_FILL">
						<path class="st5" d="M-650-107.2c5,0.7,10.6,1.7,16.8,2.8c9.9,1.8,18.5,2.9,25.9,3.4c-43.1,168.3-80.2,340.4-111.2,516.4
							c-2.6,15.2-5.3,30.4-7.9,45.6c-1.4,30.1,2.8,62.7,12.6,98c5.9,21.2,9.2,36.2,9.8,45c0.5,5.8-0.2,8.8-2,9.1
							c-4.6,0.8-16.9-10.3-36.8-33.5c-2.3-5.3-3.3-24.9-3-58.8l-14.1-21.5c1-13.1,5.8-25.7,14.1-37.7l19.1-217.8
							c3.8-20.1,13.1-51.2,27.9-93.4C-688.9,74.4-672.7-11.5-650-107.2z"/>
					</g>
				</g>
			</g>
		</g>
		<g transform="matrix( -0.992950439453125, -0.117828369140625, -0.117828369140625, 0.992950439453125, -10.45,-100.85) ">
			<g transform="matrix( 1, 0, 0, 1, 0,0) ">
				<g>
					<g id="tyrtasfd_0_Layer0_0_FILL">
						<path class="st5" d="M-698.6-89.7c5,0.4,10.6,1,16.9,1.8c10,1.2,18.7,1.8,26.1,1.8c-36.3,170.4-66.4,344.3-90.3,521.7
							c-2,15.3-4,30.6-6,46c-0.2,30.1,5.4,62.4,16.6,97c6.7,20.8,10.6,35.6,11.7,44.3c0.7,5.7,0.1,8.8-1.6,9.2
							c-4.5,1.1-17.3-9.3-38.2-31.2c-2.5-5.1-4.3-24.6-5.3-58.5l-15-20.6c0.5-13.1,4.7-25.9,12.6-38.5l10.3-218.4
							c3-20.3,11-51.9,24.1-94.8C-730.2,93.8-717.4,7.2-698.6-89.7z"/>
					</g>
				</g>
				<g>
					<path id="tyrtasfd_0_Layer0_0_1_STROKES" class="st6" d="M-723.7,622.9c-1-8.7-4.9-23.4-11.7-44.3
						c-11.2-34.6-16.7-66.9-16.6-97c2-15.4,4-30.7,6-46c23.9-177.4,54-351.3,90.3-521.7c-7.4,0-16.1-0.6-26.1-1.8
						c-6.3-0.8-11.9-1.4-16.9-1.8"/>
				</g>
			</g>
		</g>
		<g transform="matrix( 1, 0, 0, 1, 0,0) ">
			<g>
				<g id="trytjj_0_Layer1_0_FILL">
					<path class="st7" d="M498.9,336.8c-1.6,30.3,6.3,77.9,23.6,142.9c-34.8-44.2-59.3-84.7-73.6-121.5
						c9.9-57.8,15.6-84.9,17.3-81.3C476.7,297.5,487.6,317.5,498.9,336.8z"/>
					<path class="st8" d="M622.7-105.9l17.5,11.5c18,97.1-9.3,182.1-81.8,255.1c-36,45.2-55.8,103.9-59.6,176.1
						c-11.3-19.3-22.2-39.2-32.7-59.9c26.6-63.7,59.2-118.6,97.6-164.7C605.6,55.2,625.3-17.5,622.7-105.9z"/>
					<path class="st9" d="M640.2-94.4l21,2.2c8.7,91.6-13.6,171.9-67.1,240.8c-53.5,68.9-80,135.3-79.5,198.9
						c0.4,54.7,15.6,114.5,45.7,179.4c-13.8-13.6-26.4-29.3-37.9-47.3c-17.3-65-25.2-112.6-23.6-142.9
						c3.7-72.2,23.6-130.9,59.6-176.1C631,87.7,658.2,2.7,640.2-94.4z"/>
				</g>
			</g>
		</g>
		<g transform="matrix( 1, 0, 0, 1, 0,0) ">
			<g>
				<g id="trytjj_0_Layer1_1_FILL">
					<path class="st7" d="M1026.2,135.5c28.1,4.8,53.2,13.3,75.4,25.4c45.7,33.8,66.7,90.9,63,171.1
						c-2.6,67.7-34.4,131.8-95.3,192.4c-16.9-35.5-37.3-68-61.2-97.4C1114.3,307.7,1120.3,210.6,1026.2,135.5z"/>
					<path class="st8" d="M831.5,122.9c17.2,8.7,54.5,11.5,112.1,8.3c29.9-1.5,57.4-0.1,82.6,4.3c94.1,75.1,88.1,172.2-18,291.5
						c-31.5-38.8-69.2-72.3-113.1-100.4c-129-78.6-214.4-220.3-256.4-425l58.6-4.2C713,24.1,757.8,99.3,831.5,122.9z"/>
					<path class="st9" d="M625.8-99.8l12.9,1.3c42,204.7,127.5,346.3,256.4,425c43.9,28.1,81.6,61.6,113.1,100.4
						c23.9,29.4,44.3,61.9,61.2,97.4c-2.8,2.7-5.6,5.5-8.6,8.2c-5.1,4.8-10.4,9.6-15.9,14.4c-14-76.7-67.9-145.2-161.8-205.2
						C752.5,262.1,666.7,114.9,625.8-99.8z"/>
				</g>
			</g>
		</g>
		<g transform="matrix( 1.0855712890625, 0.314849853515625, -0.6536712646484375, 1.162689208984375, -69.75,28.55) ">
			<g>
				<g id="trytjj_0_Layer1_1_MEMBER_0_FILL">
					<path class="st10" d="M873.2-120.9c-0.5-0.2-1-0.5-1.6-0.7c9,2.1,15.8,3.9,20.3,5.5c7.2,2.6,10.4,5.2,9.6,7.6
						c0.3,3.2-9.2,5.2-28.7,6c-36,1.5-74.1-5-114.4-19.5c52.6,11,90.5,16.2,113.7,15.6c23.2-0.6,23.8-5.3,1.8-14L873.2-120.9z"/>
				</g>
			</g>
		</g>
	</g>
	<g transform="matrix( 0.9937744140625, -0.1103515625, 0.1103515625, 0.9937744140625, 94.9,-124.25) ">
		<g transform="matrix( 1, 0, 0, 1, 2.55,0.15) ">
			<g>
				<g id="rgfhg_0_Layer13_0_FILL">
					<path class="st11" d="M665.6-56l-13.2-22.4c42.1-28.7,82.3-44.3,120.6-46.9c38.4-2.6,81.8,7.1,130.1,29l-15.9,36.8
						c-33.6-22.6-68.6-33.9-105-34C740.9-93.8,702-81.2,665.6-56z"/>
					<path class="st12" d="M689.6-3.3l-24-52.7c36.4-25.3,75.3-37.8,116.7-37.6c36.4,0.1,71.4,11.4,105,34L861.1-2.2L689.6-3.3z"/>
				</g>
			</g>
		</g>
		<g transform="matrix( 1, 0, 0, 1, 0,0) ">
			<g>
				<g id="rgfhg_0_Layer12_0_FILL">
					<path class="st13" d="M708.2,99.3l-5.3-69.3c17.9,1.8,36.3,3.2,55.3,4c15.5,0.8,31.4,1.3,47.6,1.5
						c38.9-11.9,73.8-18,104.6-18.4l11.9,54.2C885,94,849,108.8,814.4,115.5c-26.8-0.2-48.2-1.4-64.4-3.6
						c-8.7-1.2-15.8-2.8-21.4-4.6C722.1,105.1,715.3,102.4,708.2,99.3z"/>
					<path class="st14" d="M702,127.3l6.2-28c7.1,3.2,13.9,5.8,20.4,8c5.6,1.8,12.8,3.4,21.4,4.6c16.1,2.3,37.6,3.5,64.4,3.6
						C849,108.8,885,94,922.3,71.3l26.8,43.7c-47.7,24.8-93.5,37.7-137.4,38.7c-19.8-9.6-41.1-15.9-64.1-18.6
						C732.1,133.3,716.8,130.6,702,127.3 M569.8,10.1l19.8-9.6l69.8,30.4l14.3,84.9C623.8,91.8,589.1,56.6,569.8,10.1z"/>
				</g>
			</g>
		</g>
		<g transform="matrix( 0.9986572265625, -0.0514984130859375, 0.0514984130859375, 0.9986572265625, 14.4,0.05) ">
			<g>
				<g id="rgfhg_0_Layer11_0_FILL">
					<path class="st12" d="M698-67.9c8.9-54.4,29.4-101.2,61.4-140.4l43.7,30.7L752,7.4l-6.9-1.1C719.9-21.1,704.2-45.9,698-67.9z"
						/>
					<path class="st11" d="M748.4-215.9l11.1,7.6c-32,39.3-52.5,86.1-61.4,140.4c6.1,22,21.9,46.8,47.1,74.2l-22.3,7.4
						C698-24.7,683.8-52.6,680.4-70C687.8-111.5,710.4-160.2,748.4-215.9z"/>
				</g>
			</g>
		</g>
		<g transform="matrix( 0.86614990234375, 0.0473175048828125, -0.0405731201171875, 0.952880859375, -20.95,-137.45) ">
			<g transform="matrix( 1, 0, 0, 1, 0,0) ">
				<g>
					<g id="rergf_0_Layer2_0_FILL">
						<path class="st15" d="M980-48.2C975.9,0,969,49.4,959.1,99.9l-81.8-5.5C884.6,39.1,893.5-11,904.1-56L980-48.2z"/>
					</g>
				</g>
			</g>
			<defs>
				<filter id="Adobe_OpacityMaskFilter" filterUnits="userSpaceOnUse">
					<feColorMatrix  type="matrix" values="1 0 0 0 0  0 1 0 0 0  0 0 1 0 0  0 0 0 1 0"/>
				</filter>
			</defs>
			<mask maskUnits="userSpaceOnUse" id="Mask_Mask_1_1_">
				<g transform="matrix( 1, 0, 0, 1, 0,0) " class="st16">
					<g>
						<g id="Mask_rergf_0_1_MASK_0_FILL_1_">
							<path class="st17" d="M980-48.2C975.9,0,969,49.4,959.1,99.9l-81.8-5.5C884.6,39.1,893.5-11,904.1-56L980-48.2z"/>
						</g>
					</g>
				</g>
			</mask>
			<g class="st18">
				<g transform="matrix( 1, 0, 0, 1, -1.65,-9.4) ">
					<g>
						<g id="rergf_0_Layer1_0_FILL">
							<path class="st19" d="M1004.8-58.5L985.2,2.9c-32.7,20.6-68.4,37-107.1,49.3L886-69.1L1004.8-58.5z"/>
						</g>
					</g>
				</g>
			</g>
		</g>
		<g transform="matrix( 0.9327392578125, 0.224334716796875, -0.248382568359375, 0.9169921875, 8,-190.75) ">
			<g transform="matrix( 1, 0, 0, 1, -5.5,-5.05) ">
				<g>
					<g id="rterytf_0_Layer9_0_FILL">
						<path class="st15" d="M820.2-142.9l5-2.9c-0.1,2.4-0.1,5.2,0,8.5c6.3,1.2,8.6-3,6.9-12.6l3.1-1.9c2.6,9,1.8,15.6-2.5,19.8
							c-3.5,3.4-6.7,3-9.7-1.2L820.2-142.9z"/>
						<path class="st19" d="M834.7-153.7c0.2,0.7,0.4,1.3,0.6,2l-3.1,1.9c1.7,9.6-0.6,13.9-6.9,12.6c-0.1-3.3-0.1-6.1,0-8.5l-5,2.9
							l-2.8-9.2c1.7-6.3,4.3-9.9,7.8-10.7C828.7-162.4,831.9-159.4,834.7-153.7z"/>
					</g>
				</g>
			</g>
			<g transform="matrix( 1, 0, 0, 1, 0,0) ">
				<g>
					<g id="rterytf_0_Layer8_0_FILL">
						<path class="st20" d="M810.3-117.5l11.3-21l7.2,32.9l-35.2,61.9l-42.9-51.2l41.8-14.3L810.3-117.5z"/>
						<path class="st15" d="M819.6-145l2,6.5l-11.3,21l-17.8,8.2l-41.8,14.3c-1.3-2.7-2.7-6.1-4.2-10.3c-2.2-6.1-4.3-12.5-6.3-19.2
							l23.9,3.9l-1.4-10.2l7.1,6.4l6.2,3.3l29.9-27.8L819.6-145z"/>
						<path class="st21" d="M731.2-156.8l-7.6-24.6l50.9-28.1l1,1.3C765.2-201.7,750.4-184.5,731.2-156.8z"/>
						<path class="st19" d="M738.5-129.7c-2.5-8.6-5-17.6-7.3-27.1c19.2-27.7,34-44.9,44.3-51.4c15.1,13.3,28.7,30.8,40.8,52.6
							l3.3,10.7l-13.7-3.8L776.1-121l-6.2-3.3l-7.1-6.4l1.4,10.2l-23.9-3.9L738.5-129.7z"/>
					</g>
				</g>
			</g>
			<g transform="matrix( 1, 0.037872314453125, 0, 1, 6.25,-6.2) ">
				<g transform="matrix( 1, 0, 0, 1, 0,0) ">
					<g>
						<g id="retrf_0_Layer8_0_FILL">
							<path class="st17" d="M738.8-160.3c0.8-2.1,2.2-3.5,4.1-4.2s3.9-0.4,5.9,0.8c1.9,1.3,3.2,3.1,4.1,5.4c0.8,2.3,0.8,4.6,0,6.7
								c-0.8,2.1-2.2,3.5-4.1,4.2c-2,0.7-3.9,0.4-5.8-0.8c-2-1.2-3.4-2.9-4.2-5.3C738-155.8,738-158.1,738.8-160.3z"/>
						</g>
					</g>
				</g>
				<defs>
					<filter id="Adobe_OpacityMaskFilter_1_" filterUnits="userSpaceOnUse">
						<feColorMatrix  type="matrix" values="1 0 0 0 0  0 1 0 0 0  0 0 1 0 0  0 0 0 1 0"/>
					</filter>
				</defs>
				<mask maskUnits="userSpaceOnUse" id="Mask_Mask_2_1_">
					<g transform="matrix( 1, 0, 0, 1, 0,0) " class="st22">
						<g>
							<g id="Mask_retrf_0_7_MASK_0_FILL_1_">
								<path class="st17" d="M738.8-160.3c0.8-2.1,2.2-3.5,4.1-4.2s3.9-0.4,5.9,0.8c1.9,1.3,3.2,3.1,4.1,5.4c0.8,2.3,0.8,4.6,0,6.7
									c-0.8,2.1-2.2,3.5-4.1,4.2c-2,0.7-3.9,0.4-5.8-0.8c-2-1.2-3.4-2.9-4.2-5.3C738-155.8,738-158.1,738.8-160.3z"/>
							</g>
						</g>
					</g>
				</mask>
				<g class="st23">
					<g transform="matrix( 0.89825439453125, 0, -0.0545806884765625, 0.9338226318359375, 16.4,5.05) ">
						<g>
							<g id="retrf_0_Layer7_0_FILL">
								<path d="M799.7-173.5c1.5-0.5,3-0.4,4.5,0.4c1.6,0.8,2.8,2,3.6,3.7c0.8,1.6,0.9,3.1,0.5,4.6c-0.5,1.5-1.4,2.5-2.9,3
									c-1.5,0.5-3,0.3-4.6-0.5c-1.6-0.8-2.8-2-3.5-3.6c-0.8-1.6-0.9-3.2-0.5-4.7C797.3-172,798.2-173,799.7-173.5z"/>
							</g>
						</g>
					</g>
				</g>
				<g transform="matrix( 1, 0, 0, 1, 0,0) ">
					<g>
						<g id="retrf_0_Layer5_0_FILL">
							<path d="M742.6-165.8c2.1-0.8,4.4-0.4,6.7,1.2c2.3,1.6,3.6,3.9,3.7,6.9c-1.4-2.8-2.9-4.7-4.5-5.6c-1.7-1-3.4-1-5.1-0.3
								c-1.8,0.7-3.1,2.1-4,4c-1,1.9-1,4.4-0.1,7.5c-1.9-3.3-2.3-6.3-1.3-8.8C738.9-163.3,740.4-165,742.6-165.8z"/>
						</g>
					</g>
				</g>
				<g transform="matrix( 1, 0, 0, 1, 0,0) ">
					<g>
						<g id="retrf_0_Layer3_0_FILL">
							<path class="st17" d="M777.5-178.1c2.6-0.9,5.1-0.7,7.4,0.4c2.4,1.2,4.1,3.1,4.9,5.7c0.8,2.6,0.6,5.1-0.7,7.6
								c-1.1,2.4-3,4.1-5.7,5c-2.6,0.9-5.1,0.7-7.5-0.5c-2.4-1.2-3.9-3.1-4.8-5.7c-0.9-2.5-0.8-5.1,0.4-7.5
								C772.9-175.5,774.8-177.2,777.5-178.1z"/>
						</g>
					</g>
				</g>
				<defs>
					<filter id="Adobe_OpacityMaskFilter_2_" filterUnits="userSpaceOnUse">
						<feColorMatrix  type="matrix" values="1 0 0 0 0  0 1 0 0 0  0 0 1 0 0  0 0 0 1 0"/>
					</filter>
				</defs>
				<mask maskUnits="userSpaceOnUse" id="Mask_Mask_3_1_">
					<g transform="matrix( 1, 0, 0, 1, 0,0) " class="st24">
						<g>
							<g id="Mask_retrf_0_2_MASK_0_FILL_1_">
								<path class="st17" d="M777.5-178.1c2.6-0.9,5.1-0.7,7.4,0.4c2.4,1.2,4.1,3.1,4.9,5.7c0.8,2.6,0.6,5.1-0.7,7.6
									c-1.1,2.4-3,4.1-5.7,5c-2.6,0.9-5.1,0.7-7.5-0.5c-2.4-1.2-3.9-3.1-4.8-5.7c-0.9-2.5-0.8-5.1,0.4-7.5
									C772.9-175.5,774.8-177.2,777.5-178.1z"/>
							</g>
						</g>
					</g>
				</mask>
				<g class="st25">
					<g transform="matrix( -1.12567138671875, 0, -0.0453643798828125, 1.0146636962890625, -17.85,3.4) ">
						<g>
							<g id="retrf_0_Layer2_0_FILL">
								<path d="M-698.6-171.4c1.5,0.6,2.5,1.6,3.2,3.2c0.6,1.6,0.7,3.2,0.1,4.9c-0.6,1.6-1.5,2.8-2.9,3.6c-1.4,0.8-2.9,0.9-4.4,0.3
									c-1.5-0.6-2.5-1.6-3.1-3.2c-0.7-1.6-0.7-3.2-0.2-4.8c0.6-1.7,1.6-2.9,3-3.7C-701.5-171.9-700.1-172-698.6-171.4z"/>
							</g>
						</g>
					</g>
				</g>
				<g transform="matrix( 1, 0, 0, 1, 0,0) ">
					<g>
						<g id="retrf_0_Layer0_0_FILL">
							<path d="M770.4-173.5c1.3-3,3.4-4.9,6.2-5.9c2.9-0.9,5.8-0.7,8.7,0.7c2.8,1.4,4.4,4.2,4.8,8.3c-1.2-3.2-3-5.2-5.4-6.1
								c-2.4-1-4.8-1.1-7.3-0.3c-2.5,0.6-4.2,2-5.2,4c-1.1,2-1.3,4.7-0.8,8C769.4-167.6,769.1-170.5,770.4-173.5z"/>
						</g>
					</g>
				</g>
			</g>
			<g transform="matrix( 1, 0, 0, 1, 0,0) ">
				<g>
					<g id="rterytf_0_Layer5_0_FILL">
						<path class="st26" d="M743.6-93.6c9.7-4.2,18.7-9.9,27.1-17.1c14.2-2.3,29.6-6.1,46.3-11.7c-11,14.8-25.1,22.6-42.3,23.4
							C765.3-90.7,754.9-89,743.6-93.6z"/>
					</g>
				</g>
			</g>
			<g transform="matrix( 1, 0, 0, 1, 0,0) ">
				<g>
					<g id="rterytf_0_Layer5_1_FILL">
						<path class="st15" d="M763.1-127.5l14,5.4l5.1,8.9l-15.3,13.5L763.1-127.5z"/>
						<path class="st19" d="M755.5-148l8.7,3.6l12.9,22.3l-14-5.4l-1.3-9.2L755.5-148z"/>
					</g>
				</g>
			</g>
			<g transform="matrix( 1, 0, 0, 1, 0,0) ">
				<g>
					<g id="rterytf_0_Layer4_0_FILL">
						<path class="st27" d="M733.4-171.9c-0.1,0.5-0.1,0.9-0.2,1.4c-8.3,15.7-28,21.2-59.2,16.6l26.3-6.9
							c-7.1-23.3-7.6-42.6-1.4-57.9c16.6-14.5,37.9-18.6,63.9-12.3l12.5,16C751-216.6,737.1-202.2,733.4-171.9z"/>
						<path class="st21" d="M761.3-169.8c-5.9,12.7-14.5,22.8-25.6,30.1c-17.6,2.8-38.2-1.9-61.7-14.1c31.2,4.6,51-0.9,59.2-16.6
							c0.1-0.5,0.1-0.9,0.2-1.4c3.6-30.3,17.6-44.7,41.9-43.1l25,32l-21.5-15.1C773.2-193,767.4-183.6,761.3-169.8z"/>
					</g>
				</g>
			</g>
			<g transform="matrix( 1, 0.100494384765625, 0, 1, 0,-3.2) ">
				<g>
					<g id="rterytf_0_Layer3_0_FILL">
						<path class="st28" d="M757.8-221.8c-9.3-6.9-17.1-5.1-23.5,5.5c-0.3-8.5,1.7-15.6,6.1-21.1
							C748.6-239.1,754.4-233.9,757.8-221.8z"/>
					</g>
				</g>
			</g>
			<g transform="matrix( 1, 0, 0, 1, 0,0) ">
				<g>
					<g id="rterytf_0_Layer2_0_FILL">
						<path class="st28" d="M802.1-165c-15.8-6.5-26.2-2.4-31.1,12.2c-1.1-9.2-0.9-15.8,0.6-19.7c2.6-4,6.4-6.5,11.2-7.4
							C790.6-177.5,797-172.5,802.1-165z"/>
					</g>
				</g>
			</g>
		</g>
		<g transform="matrix( 1, 0, 0, 1, 0,0) ">
			<g>
				<g id="rgfhg_0_Layer8_0_FILL">
					<path class="st29" d="M645.2-23.1l58.8-13.2c9.2,35.8,55.3,36.7,138.1,2.7l71.8,39.9c-35.3,78.9-92,134.7-170.1,167.6l-79.2-18
						C640.6,100.1,634.1,40.4,645.2-23.1z"/>
				</g>
			</g>
		</g>
		<g transform="matrix( 1, 0, 0, 1, 0,0) ">
			<g>
				<g id="rgfhg_0_Layer7_0_FILL">
					<path class="st30" d="M866.2-23.5l5.8,8.7c-15,37-35.2,62.7-60.5,76.9c-6.1-6.8-11.9-12-17.5-15.4c-5.5-3.5-9.3-5.4-11.5-5.9
						l-1.1-5.7c10.5,3.5,20.8,9.7,30.9,18.7C837,40.7,854.9,14.9,866.2-23.5 M688,157.6l-7.4-1.7l-2.3-63.5
						c40.2,2.3,75.9-4.6,107.1-20.7c0.9-0.5,1.9-1,2.8-1.5l-1.4,6.9c-27.1,13.7-61,20.8-101.7,21.3L688,157.6 M666.2,47.8
						c0.6-0.3,1.2-0.6,1.8-1c0.8,6.8,3.4,14.2,7.7,22.2l1.3,11.6c-7.3-14.1-11.2-24.9-11.6-32.5C665.6,48.1,665.9,48,666.2,47.8
						 M664.4,5.1c2.1-8.8,6.6-18,13.4-27.6c-4.9,11.4-8.3,21.6-10.2,30.7c-1.3,6.1-1.9,11.7-1.8,16.6l25.8,5.9
						c-1.3,0.7-2.5,1.4-3.7,2.1c-0.8,0.5-1.6,0.9-2.5,1.4l-22.1-5C662,21.9,662.3,13.9,664.4,5.1z"/>
					<path class="st31" d="M838.3-34.9l3.7,1.4c-2.2,2.8-4.4,5.5-6.7,8.2c-19.5,17.2-43.9,31.2-73.1,41.9
						c-0.8-6.3-2.9-14.9-6.5-25.7c1.7-1.1,3.4-2.2,5.2-3.1c1.8,5.8,3.1,12.5,4,20.4C792-1.8,816.5-16.1,838.3-34.9 M707.2-37.3
						c-2.8,13-2.9,26.3-0.1,39.9c6.2-7.5,11.8-13.6,16.8-18.3c0.8,1.7,1.3,3.6,1.7,5.7c-8,6.5-15.1,13.5-21.3,21
						c-2.8-13.6-2.8-26.9,0-39.9C705.3-31.7,706.2-34.5,707.2-37.3z"/>
					<path class="st32" d="M729.2,48.1c4.9-15.6,7.9-29.2,9-40.7c5.4-6.9,11.2-12.4,17.4-16.6c3.6,10.8,5.7,19.4,6.5,25.7
						c29.2-10.8,53.6-24.7,73.1-41.9C810.9,2.7,775.5,27.2,729.2,48.1 M704.4-29c-2.8,13-2.8,26.3,0,39.9c6.2-7.5,13.3-14.4,21.3-21
						c1,4.7,1.1,10.1,0.3,16.3c-12.2,12.3-21.6,23.5-28.4,33.5C693.8,20,696.1-2.9,704.4-29 M707.1,2.6c-2.8-13.6-2.7-26.9,0.1-39.9
						l26.7-11.5c9.7,23.8,29.2,22.6,58.7-3.6l45.7,17.5C816.5-16.1,792-1.8,764.9,8.2c-0.9-7.8-2.3-14.6-4-20.4
						c-1.8-6.3-4.2-11.4-7-15.2L739-26.8c-4.2,1.9-9.3,5.5-15.1,11.1C718.9-11,713.3-4.9,707.1,2.6z"/>
					<path class="st33" d="M703.6,58.9c8.9-3.5,17.4-7.1,25.6-10.8c46.3-21,81.7-45.5,106.1-73.5c2.3-2.7,4.6-5.4,6.7-8.2l24.2,10
						c-11.3,38.4-29.3,64.2-53.9,77.3c-10.1-8.9-20.4-15.2-30.9-18.7l1.1,5.7l5.6,29.4c-0.9,0.5-1.9,1-2.8,1.5
						c-31.2,16-66.9,22.9-107.1,20.7l-1.3-11.7l-1.3-11.6C685.3,65.8,694.6,62.4,703.6,58.9 M678.1-23.3c1.1-2.6,2.3-5.3,3.6-8
						l25.5-6c-1,2.8-2,5.6-2.9,8.4c-8.3,26.1-10.6,49-6.8,68.7c1.3,6.8,3.3,13.2,6,19.2c-8.9,3.5-18.2,6.9-27.9,10.2
						c-4.3-8-6.9-15.4-7.7-22.2c0-0.2-0.1-0.4-0.1-0.6c-0.1-0.8-0.2-1.6-0.2-2.3c4.8-2.6,10.7-5.8,17.7-9.8c0.8-0.5,1.7-0.9,2.5-1.4
						c1.2-0.7,2.4-1.3,3.7-2.1l-25.8-5.9c-0.1-5,0.5-10.5,1.8-16.6c1.9-9,5.3-19.3,10.2-30.7C677.9-22.8,678-23,678.1-23.3z"/>
					<path class="st34" d="M725.9,6.3c0.8-6.1,0.7-11.6-0.3-16.3c-0.4-2.1-1-4-1.7-5.7c5.8-5.5,10.9-9.2,15.1-11.1l14.9-0.6
						c2.8,3.9,5.1,8.9,7,15.2c-1.7,0.9-3.5,1.9-5.2,3.1c-6.2,4.1-12,9.7-17.4,16.6c-1.1,11.5-4.2,25.1-9,40.7
						c-8.2,3.7-16.7,7.3-25.6,10.8c-2.7-6-4.7-12.4-6-19.2C704.3,29.7,713.8,18.6,725.9,6.3z"/>
				</g>
			</g>
			<g>
				<path id="rgfhg_0_Layer7_0_1_STROKES" class="st35" d="M703.6,58.9c-8.9,3.5-18.2,6.9-27.9,10.2"/>
			</g>
		</g>
		<g transform="matrix( 1, 0, 0, 1, 0,0) ">
			<g>
				<g id="rgfhg_0_Layer6_0_FILL">
					<path class="st36" d="M767.4,163.7c-5.7,8.9-10.6,17.9-14.7,26.9c-1.9,4.1-3.5,8.2-5,12.3c-1.9,5.2-3.6,10.5-4.9,15.7
						c-1.4,5.5-2.6,11-3.4,16.5c-0.6,3.6-1,7.3-1.2,10.9c-0.2,2.9-0.4,5.8-0.5,8.7c-4.6,0.3-9.2,0.4-13.7,0.4c0.2-3,0.5-6,0.9-9
						c-23.9-1.2-47.4-9.6-70.7-25.4c28.6,10.5,52.6,15.7,72,15.5c0.9-5.9,1.9-11.8,3.2-17.7c-24.8-1.5-49.2-10.2-73.2-26
						c30.1,10,55.6,14.2,76.4,12.7c1.6-6.1,3.4-12.2,5.5-18.4c-30.4-8.3-57.2-18.4-80.5-30.3c29.8,9.1,58,15.4,84.4,18.9
						c1.6-4.5,3.4-8.9,5.2-13.4C753.7,162.7,760.4,163.2,767.4,163.7z"/>
					<path class="st37" d="M656.2,192.5l1.4-35.9c23.3,11.8,50.1,21.9,80.5,30.3c-2,6.2-3.9,12.3-5.5,18.4
						C711.8,206.7,686.3,202.5,656.2,192.5 M652.3,242.6l1.9-21.9c23.3,15.8,46.8,24.3,70.7,25.4c-0.4,3-0.7,6-0.9,9
						C699.4,255,675.5,250.8,652.3,242.6 M654.2,220.7l2-28.2c24,15.8,48.4,24.5,73.2,26c-1.3,5.9-2.4,11.8-3.2,17.7
						C706.7,236.4,682.7,231.2,654.2,220.7 M657.5,156.6l0.6-15.8c22.9,10.6,52.5,17.7,89,21.3c-1.9,4.5-3.6,9-5.2,13.4
						C715.5,171.9,687.4,165.6,657.5,156.6z"/>
				</g>
			</g>
		</g>
		<g transform="matrix( 0.9986572265625, -0.0514984130859375, 0.0514984130859375, 0.9986572265625, 11.85,0) ">
			<g>
				<g id="rgfhg_0_Layer5_0_FILL">
					<path class="st38" d="M650.5,21.8l12.8-24.1l53.7-12l16.5,23.7L650.5,21.8 M838.5,11.1l34.1,27.4l-81.6,19L735.3,9.6l1.9,0.3
						l6.9,2.3l32.7,11.1L838.5,11.1z"/>
					<path class="st39" d="M872.4-63.4c-7.8,11.4-19.1,36.3-33.9,74.6l-61.8,12.2l-32.7-11.1c47.3-17.6,75.9-33.9,86-49
						c3.6-11.3-1.7-38.8-15.8-82.6c-7.6-23.4-18.9-49.8-33.9-79c19.7,12.7,38.4,26.9,56.2,42.6C861.2-107.8,873.1-77,872.4-63.4z"/>
					<path class="st40" d="M754-214c9,4.9,17.8,10.2,26.4,15.7c15,29.2,26.3,55.6,33.9,79c14.1,43.7,19.3,71.2,15.8,82.6
						c-10.1,15.1-38.7,31.5-86,49l-6.9-2.3c43.3-26.8,66.8-45.7,70.6-56.5c1.7-12.9-3.9-40.6-16.9-83
						C782.6-156.4,770.3-184.5,754-214z"/>
					<path class="st41" d="M750.9-215.7c1,0.6,2.1,1.1,3.1,1.7c16.3,29.5,28.6,57.6,36.8,84.4c13,42.4,18.7,70.1,16.9,83
						c-3.7,10.8-27.3,29.7-70.6,56.5l-2.6-0.9c43.4-26.5,67-45.2,70.7-56.1c1.7-12.9-3.9-40.6-16.9-83
						C780.1-157.2,767.6-185.8,750.9-215.7z"/>
				</g>
			</g>
		</g>
		<g transform="matrix( 0.9976654052734375, -0.057525634765625, 0.160858154296875, 0.993011474609375, 27.1,-0.7) ">
			<g>
				<g id="rgfhg_0_Layer5_0_MEMBER_0_FILL">
					<path class="st40" d="M699.3,0c-3.3-5.9-6.7-13-10.2-21.1c10.3,10.5,22.4,19.8,36.3,27.9l-7.8,4.5C711.3,8.8,705.2,5.1,699.3,0
						z"/>
					<path class="st11" d="M689.1-21.2l17.6,1.2c3.6,8.1,9.8,17,18.6,26.7C711.5-1.3,699.4-10.6,689.1-21.2z"/>
				</g>
			</g>
		</g>
		<g transform="matrix( 0.9977264404296875, 0.0660552978515625, -0.0660552978515625, 0.9977264404296875, -43,-26.1) ">
			<g>
				<g id="rgfhg_0_Layer5_0_MEMBER_1_FILL">
					<path class="st42" d="M768-49.2c-4.2-2.5-6.3-5.2-6.1-8.1c0.1-2.9,2.4-5,6.8-6.5c4.4-1.6,9.7-2,15.8-1.3
						c6.1,0.7,11.2,2.4,15.4,4.9c4.3,2.5,6.3,5.2,6.2,8.1c-0.1,2.9-2.4,5.1-6.8,6.6c-4.4,1.5-9.7,1.9-15.7,1.2
						C777.4-45,772.3-46.6,768-49.2 M763.8-57.1c-0.1,2.3,1.8,4.5,5.7,6.7c3.8,2,8.5,3.4,14,4c5.6,0.7,10.4,0.4,14.3-0.8
						c4-1.1,6.1-2.8,6.2-5.1c0.1-2.4-1.8-4.6-5.7-6.7c-3.7-2.1-8.4-3.4-14-4c-5.5-0.7-10.3-0.4-14.3,0.7
						C766-61.1,763.9-59.4,763.8-57.1z"/>
					<path class="st43" d="M769.5-50.5c-3.9-2.1-5.8-4.4-5.7-6.7c0.1-2.3,2.2-4,6.3-5.2c4-1.1,8.8-1.4,14.3-0.7c5.6,0.6,10.3,2,14,4
						c3.9,2.1,5.8,4.3,5.7,6.7c-0.1,2.3-2.1,4-6.2,5.1c-4,1.2-8.7,1.5-14.3,0.8C778-47.1,773.3-48.4,769.5-50.5z"/>
				</g>
			</g>
			<g transform="matrix( 0.997894287109375, -0.0660552978515625, 0.0660552978515625, 0.997894287109375, 44.6,23.2) ">
				<path id="rgfhg_0_Layer5_0_MEMBER_1_1_STROKES" class="st44" d="M761.9-57.2c-0.1,2.9,1.9,5.6,6.1,8.1c4.3,2.6,9.4,4.2,15.5,4.9
					c6.1,0.7,11.3,0.4,15.7-1.2c4.4-1.5,6.6-3.7,6.8-6.6c0.1-2.9-1.9-5.6-6.2-8.1c-4.2-2.6-9.4-4.2-15.4-4.9
					c-6.1-0.7-11.3-0.3-15.8,1.3C764.3-62.3,762.1-60.1,761.9-57.2z"/>
			</g>
		</g>
		<g transform="matrix( 1.5891265869140625, 0.0637359619140625, -0.0664215087890625, 0.605804443359375, 693,-66.6) ">
			<g>
				<g id="rgfhg_0_Layer5_0_MEMBER_1_MEMBER_0_FILL">
					<path class="st17" d="M43.9,69.1c-0.1-7-2.2-13.3-6.6-19C45.9,55.1,48.1,61.4,43.9,69.1z"/>
				</g>
			</g>
		</g>
		<g transform="matrix( 0.9986419677734375, -0.051483154296875, 0.051483154296875, 0.9986419677734375, 14.4,0) ">
			<g>
				<g id="rgfhg_0_Layer5_0_MEMBER_2_FILL">
					<path class="st45" d="M777.2-193.5c-5.9-1-7.7,1.2-5.4,6.6c24.8,59.4,38,104.8,39.6,136.1C796.9-110.2,784-151.9,772.7-176
						C761.3-200,762.8-205.9,777.2-193.5z"/>
				</g>
			</g>
		</g>
		<g transform="matrix( 0.9965667724609375, 0.0825958251953125, -0.0825958251953125, 0.9965667724609375, -7.2,10) ">
			<g>
				<g id="rgfhg_0_Layer4_0_FILL">
					<path class="st29" d="M863.1-82.7l63.4,31.4L825.3,150.4l-42.2-36L863.1-82.7z"/>
				</g>
			</g>
			<g transform="matrix( 0.9965972900390625, -0.0825958251953125, 0.0825958251953125, 0.9965972900390625, 6.3,-10.55) ">
				<path id="rgfhg_0_Layer4_0_1_STROKES" class="st46" d="M863.1-82.7l-80,197.2"/>
			</g>
		</g>
		<g transform="matrix( 0.587982177734375, -0.808868408203125, 0.808868408203125, 0.587982177734375, -20.95,51.15) ">
			<g>
				<g id="rgfhg_0_Layer4_1_FILL">
					<path class="st29" d="M446,522.7L423.6,570l-152.9-94.1l25.9-31.8L446,522.7z"/>
				</g>
			</g>
		</g>
		<g transform="matrix( 1, 0, 0, 1, 0,0) ">
			<g>
				<g id="rgfhg_0_Layer3_0_FILL">
					<path class="st39" d="M913.7-4.2c5.8,3.6,9.8,6.6,12,8.9c6.4,21.9,11.8,46.5,16,73.6c-9.4,1.8-23.6,3.9-42.4,6.4l0-0.1l-0.1,0
						c-37.7,4.5-73.8,3.8-108.4-2.1l13.4-60.2L793.6,6.5l0-0.1l82.2-33C892.7-17.4,905.3-10,913.7-4.2 M672.8-32
						c4,16.5,7.7,27,11,31.3c-6,19.6-14,33.3-23.9,41c-17.8-25.6-37.6-41.1-59.4-46.5c1.6-1.1,3.2-2.2,4.8-3.3
						c6.7-4.7,13-9.4,18.9-14.3c3.4-2.8,6.7-5.7,9.8-8.6C648.4-36,661.3-35.9,672.8-32z"/>
					<path class="st47" d="M955.9,113.1l-6.8,3.5c-11.9,2-30.7,4.3-56.3,7l0-0.1c-49.2,3.7-96.6-1.1-142.3-14.5c0.3-1,0.5-2,0.8-3.1
						c44.2,13,91.5,17.8,142,14.5C920.7,117.7,941.6,115.3,955.9,113.1 M569.5,10.2l1.2-5.5c22.2,4.4,54.4,31.2,96.6,80.2l-4.6,2.9
						C616.6,32.9,585.5,7,569.5,10.2z"/>
					<path class="st48" d="M941.7,78.3l7.6-1.5l6.6,36.2c-14.3,2.2-35.1,4.7-62.4,7.3c-50.5,3.3-97.8-1.5-142-14.5
						c-0.2,0-0.3-0.1-0.5-0.1c2.5-10,5.6-20,9.1-29.9c8.3-23.4,19.5-46.5,33.5-69.4l10.6,15.8l-13.4,60.2
						c34.6,5.9,70.7,6.7,108.4,2.1l0.1,0l0,0.1C918.1,82.2,932.3,80.1,941.7,78.3 M659.9,40.3c9.9-7.8,17.9-21.4,23.9-41l13.1,17.9
						c-7.3,30.8-17.2,53.3-29.5,67.7c-42.2-49-74.4-75.7-96.6-80.2c8.7-3.7,16.9-7.7,24.7-12c1.6,0.3,3.3,0.6,4.9,1.1
						c0,0,0.1,0,0.1,0.1l0.1,0C622.3-0.8,642.1,14.7,659.9,40.3z"/>
				</g>
			</g>
		</g>
		<g transform="matrix( 1, 0, 0, 1, 0,0) ">
			<g>
				<g id="rgfhg_0_Layer2_0_FILL">
					<path class="st48" d="M905.5-96.2c-2.6,12.5-6.2,24.9-10.8,37.4c-25.9,14.5-50.4,25.4-73.3,32.8l-14,30.8
						c-8,2.3-15.2,3.8-21.6,4.5c2-16.7,5.7-32.2,10.9-46.6C850.5-53.2,886.8-72.8,905.5-96.2 M680.3-6.6l-4.6-29.3l-13.5-15.7
						L655-78.3c7.6,13.1,20.8,22.7,39.8,28.7l3.1,47L680.3-6.6z"/>
					<path class="st39" d="M894.7-58.9c-3.9,10.4-8.8,22.8-14.7,37.3c-17.6,8.5-41.8,17.3-72.6,26.3l14-30.8
						C844.3-33.4,868.8-44.3,894.7-58.9 M680.3-6.6c-6.9-13.4-13-28.4-18.1-45l13.5,15.7L680.3-6.6z"/>
				</g>
			</g>
			<g>
				<path id="rgfhg_0_Layer2_0_1_STROKES" class="st49" d="M703.7-136.2c1.6,14.1,5,30.5,10.1,49.3 M662.1-51.6
					c5.2,16.6,11.2,31.6,18.1,45 M807.4,4.7c30.8-9,55-17.8,72.6-26.3"/>
			</g>
		</g>
		<g transform="matrix( 1.49847412109375, 0.0961456298828125, -0.017913818359375, 0.958740234375, -347.85,19.55) ">
			<g>
				<g id="rgfhg_0_Layer2_1_FILL">
					<path class="st48" d="M756.4-78.4c0,1-0.1,2-0.1,3c-9.5,6.1-19.2,9.3-29.1,9.5c-3.3,0-6.5-0.2-9.8-0.7
						c-7.9-1.4-16.1-4.7-24.4-9.7c0.1-1,0.2-2,0.2-3C713.8-69.2,734.8-68.9,756.4-78.4z"/>
				</g>
			</g>
		</g>
		<g transform="matrix( 1.0483856201171875, 0.0532073974609375, -0.0901031494140625, 1.19024658203125, -88.55,-48.85) ">
			<g>
				<g id="rgfhg_0_Layer2_2_FILL">
					<path class="st42" d="M863.1,23.3c-0.4,5.5-2.4,10-5.9,13.6c-3.5,3.6-7.5,5.1-12,4.6c-4.5-0.5-8.2-2.8-11-7.1
						c-2.9-4.2-4.1-9.1-3.7-14.6c0.4-5.5,2.4-10,5.9-13.5c3.5-3.6,7.5-5.1,12-4.6c4.5,0.5,8.2,2.8,11,7.1
						C862.3,12.9,863.5,17.8,863.1,23.3 M856.3,33.9c3.2-2.8,4.9-6.4,5.3-10.8c0.3-4.4-0.8-8.3-3.5-11.7c-2.6-3.4-6-5.4-10.1-5.8
						c-4.1-0.4-7.7,0.8-10.8,3.6c-3.2,2.8-4.9,6.4-5.3,10.7c-0.3,4.4,0.8,8.3,3.5,11.7c2.6,3.4,6,5.4,10,5.8
						C849.6,37.9,853.2,36.7,856.3,33.9z"/>
					<path class="st43" d="M861.6,23.1c-0.3,4.4-2.1,8-5.3,10.8c-3.1,2.8-6.7,4-10.8,3.6c-4.1-0.4-7.4-2.4-10-5.8
						c-2.7-3.4-3.8-7.3-3.5-11.7c0.3-4.4,2.1-8,5.3-10.7c3.1-2.8,6.7-4,10.8-3.6c4.1,0.4,7.5,2.4,10.1,5.8
						C860.8,14.8,861.9,18.7,861.6,23.1z"/>
				</g>
			</g>
			<g transform="matrix( 0.9501953125, -0.0424652099609375, 0.071929931640625, 0.836944580078125, 87.65,37.1) ">
				<path id="rgfhg_0_Layer2_2_1_STROKES" class="st44" d="M830.6,19.8c-0.4,5.5,0.8,10.4,3.7,14.6c2.9,4.3,6.5,6.6,11,7.1
					c4.5,0.5,8.5-1.1,12-4.6c3.5-3.5,5.4-8.1,5.9-13.6c0.4-5.5-0.8-10.3-3.7-14.5c-2.9-4.3-6.5-6.6-11-7.1c-4.5-0.5-8.5,1.1-12,4.6
					C832.9,9.8,831,14.3,830.6,19.8z"/>
			</g>
		</g>
		<g transform="matrix( 1.2257080078125, 0.0622406005859375, -0.105316162109375, 1.3915863037109375, 480.05,-36.7) ">
			<g>
				<g id="rgfhg_0_Layer2_2_MEMBER_0_FILL">
					<path class="st17" d="M271.3,37.3c0.5-6.9-1.3-12.7-5.2-17.2C274.4,22.8,276.2,28.6,271.3,37.3z"/>
				</g>
			</g>
		</g>
		<g transform="matrix( 1, 0, 0.0219879150390625, 1.15478515625, -29.3,-3.95) ">
			<g>
				<g id="rgfhg_0_Layer2_3_FILL">
					<path class="st42" d="M717.3,30.8c-4.2,2-8.1,2-11.7,0.1c-3.6-1.9-5.8-5.1-6.6-9.7c-0.8-4.7,0-9.3,2.4-14
						c2.4-4.7,5.7-8,9.9-9.9c4.3-2,8.2-2.1,11.8-0.2c3.5,1.9,5.7,5.2,6.5,9.8c0.9,4.7,0.1,9.3-2.3,14
						C724.9,25.5,721.5,28.8,717.3,30.8 M707.3,27.5c3.3,1.7,6.7,1.9,10.4,0.4c3.7-1.4,6.5-4,8.4-7.7s2.4-7.5,1.4-11.4
						c-0.9-3.9-3-6.7-6.3-8.4C718-1.3,714.6-1.5,711,0c-3.7,1.4-6.5,3.9-8.4,7.7c-1.9,3.7-2.4,7.6-1.4,11.4
						C702,23,704,25.8,707.3,27.5z"/>
					<path class="st43" d="M717.7,27.9c-3.7,1.5-7.1,1.4-10.4-0.4c-3.3-1.7-5.3-4.5-6.1-8.4c-1-3.9-0.5-7.7,1.4-11.4
						c1.9-3.7,4.7-6.3,8.4-7.7c3.6-1.5,7-1.4,10.3,0.3c3.3,1.7,5.4,4.5,6.3,8.4c1,3.8,0.5,7.6-1.4,11.4S721.4,26.4,717.7,27.9z"/>
				</g>
			</g>
			<g transform="matrix( 1, 0, -0.0190277099609375, 0.8659515380859375, 29.2,3.4) ">
				<path id="rgfhg_0_Layer2_3_1_STROKES" class="st44" d="M701.4,7.1c-2.4,4.7-3.2,9.4-2.4,14c0.9,4.6,3.1,7.9,6.6,9.7
					c3.5,1.9,7.4,1.9,11.7-0.1c4.2-2,7.6-5.3,10-10c2.4-4.7,3.2-9.3,2.3-14c-0.8-4.7-3-7.9-6.5-9.8c-3.6-1.9-7.5-1.8-11.8,0.2
					C707.1-0.9,703.8,2.4,701.4,7.1z"/>
			</g>
		</g>
		<g transform="matrix( 1.036895751953125, -0.3350982666015625, 0.2314300537109375, 1.224884033203125, 495.7,-195.45) ">
			<g>
				<g id="rgfhg_0_Layer2_3_MEMBER_0_FILL">
					<path class="st17" d="M139.7,217.6c4.4-5.3,6.3-11,5.6-17C150.7,207.7,148.8,213.3,139.7,217.6z"/>
				</g>
			</g>
		</g>
	</g>
	<g transform="matrix( -0.3802337646484375, 0.9261474609375, 0.9377899169921875, 0.3870849609375, 265.25,-106.95) ">
		<g transform="matrix( 1, 0, 0, 1, 0,0) ">
			<g>
				<g id="fgfgg_0_Layer1_0_FILL">
					<path class="st50" d="M-224.7,241l3.3-3.3c15.8,17.6,30.9,35.8,45.2,54.4c-2.6-0.2-5.3-0.7-8-1.5
						C-195.5,273.7-209,257.2-224.7,241 M-165.9,291.7c-1,0.2-2.1,0.4-3.1,0.5c-14.8-19.2-31.2-38.4-49.1-57.6l1.4-1.4
						c19.4,15.1,39,32.6,58.8,52.8C-160.5,288.6-163.1,290.5-165.9,291.7 M-133.7,311.9c-3,3.6-6.2,6.1-9.5,7.4
						c-1.8,0.4-3.6,0.6-5.4,0.7c-5.2-7.6-10.7-15.1-16.3-22.6c0.9-0.1,1.9-0.3,2.9-0.5c3-1.2,5.8-3.4,8.6-6.4
						C-146.9,297.4-140.3,304.5-133.7,311.9 M-157.3,341.2c-2.8-7.1-6-14-9.5-21c5,2.3,9.8,3.7,14.4,4.5c5.3,7.6,10.4,15.2,15.5,23
						C-143.1,347.1-150,344.9-157.3,341.2 M-180.9,295.8c3,0.9,5.9,1.4,8.7,1.7c5.5,7.3,10.8,14.6,16.1,22c-4.2-0.7-8.5-2-13.2-3.9
						C-172.8,308.9-176.7,302.3-180.9,295.8 M-186.2,310.1c-0.4-0.7-0.9-1.4-1.3-2.1c5.5,4,10.9,7.4,15.9,10
						c4,7.2,7.7,14.4,11.3,21.6c-4.2-2.3-8.5-5-13.1-8.3c-0.5-0.3-1-0.7-1.4-1C-178.6,323.4-182.4,316.7-186.2,310.1 M-188.5,304.7
						c-0.6-0.4-1.1-0.8-1.7-1.2c-3.5-5.7-7-11.3-10.5-16.8c5.1,3.1,10,5.6,14.8,7.4c4,6.3,7.9,12.7,11.6,19.1
						C-178.8,310.9-183.6,308.1-188.5,304.7 M-203.9,281.8c-0.1-0.2-0.2-0.3-0.3-0.4c-8.3-12.6-16.8-24.4-25.4-35.4l4.5-4.4
						c13.2,15.5,25.1,31.3,35.9,47.5c-4.1-1.5-8.4-3.6-12.9-6.2C-202.8,282.5-203.4,282.1-203.9,281.8 M-126.2,347.3
						c-1.4,0.3-2.8,0.5-4.3,0.6c-4.7-7.6-9.5-15.1-14.6-22.6c1.9-0.1,3.8-0.3,5.6-0.7c3.5-1.4,6.8-4.1,10-8
						c5.3,6.1,10.7,12.4,16.1,18.8C-117.3,341.4-121.6,345.4-126.2,347.3z"/>
					<path class="st51" d="M-176.2,292.2c2.4,0.2,4.8,0.2,7.2,0c1.3,1.8,2.7,3.5,4,5.2c-2.3,0.3-4.7,0.3-7.2,0.1
						C-173.5,295.7-174.8,293.9-176.2,292.2 M-156.1,319.5c2.5,0.4,5,0.6,7.4,0.5c1.2,1.8,2.4,3.5,3.6,5.3c-2.4,0-4.8-0.1-7.3-0.5
						C-153.6,323-154.8,321.2-156.1,319.5 M-157.3,341.2c0.6,1.4,1.1,2.8,1.6,4.2c-0.9-0.5-1.8-1-2.6-1.5c-0.7-1.4-1.4-2.9-2.1-4.3
						C-159.3,340.2-158.3,340.7-157.3,341.2 M-171.6,318c-0.9-1.6-1.8-3.1-2.7-4.7c1.7,0.9,3.4,1.6,5,2.3c0.8,1.6,1.6,3.1,2.4,4.7
						C-168.4,319.6-170,318.8-171.6,318 M-189.3,289c1.7,0.6,3.4,1.2,5.1,1.6c1.1,1.7,2.2,3.4,3.3,5.1c-1.7-0.5-3.4-1-5-1.7
						C-187,292.4-188.1,290.7-189.3,289 M-130.4,347.9c1.1,1.8,2.1,3.6,3.2,5.3c-2.1,0.1-4.2,0-6.3-0.2c-1.2-1.8-2.3-3.5-3.4-5.2
						C-134.7,348-132.5,348-130.4,347.9z"/>
					<path class="st52" d="M-169,292.2c-2.3,0.2-4.7,0.2-7.2,0c-14.3-18.6-29.4-36.8-45.2-54.4l3.2-3.1
						C-200.2,253.7-183.8,272.9-169,292.2 M-148.7,320c-2.4,0.1-4.9-0.1-7.4-0.5c-5.2-7.4-10.6-14.8-16.1-22
						c2.5,0.2,4.8,0.2,7.2-0.1C-159.3,304.9-153.9,312.4-148.7,320 M-171.6,318c1.6,0.8,3.2,1.6,4.8,2.3c3.5,6.9,6.7,13.9,9.5,21
						c-1-0.5-2.1-1.1-3.1-1.7C-163.9,332.3-167.6,325.1-171.6,318 M-185.9,294.1c1.7,0.6,3.4,1.2,5,1.7c4.2,6.5,8,13.1,11.6,19.8
						c-1.7-0.7-3.4-1.5-5-2.3C-178,306.8-181.9,300.4-185.9,294.1 M-184.2,290.6c-1.7-0.5-3.4-1-5.1-1.6
						c-10.7-16.2-22.7-32-35.9-47.5l0.5-0.4C-209,257.2-195.5,273.7-184.2,290.6 M-130.4,347.9c-2.1,0.1-4.2,0.1-6.4-0.1
						c-5.1-7.8-10.2-15.4-15.5-23c2.5,0.4,5,0.5,7.3,0.5C-140,332.8-135.1,340.3-130.4,347.9z"/>
					<path class="st53" d="M-151.9,277.9c-1.9,3.2-3.9,5.9-6,8.1c-19.8-20.1-39.4-37.7-58.8-52.8l3.4-3.3
						C-189.7,246.6-169.3,262.7-151.9,277.9 M-127,301.6c-2.1,4.1-4.4,7.5-6.7,10.3c-6.6-7.4-13.2-14.5-19.8-21.3
						c2.1-2.3,4.1-5.2,6.1-8.6C-140,288.6-133.2,295.1-127,301.6 M-107.4,323.9c-1.9,4.4-3.9,8.3-6,11.5
						c-5.4-6.4-10.7-12.7-16.1-18.8c2.3-2.9,4.5-6.4,6.6-10.7c0.6,0.7,1.3,1.3,1.9,2C-116,313.3-111.5,318.7-107.4,323.9z"/>
					<path class="st54" d="M-147.4,281.9c-1.9,3.4-4,6.3-6.1,8.6c-1.5-1.5-3-3.1-4.4-4.6c2.1-2.2,4.1-4.9,6-8.1
						c0.2,0.2,0.4,0.4,0.6,0.6C-150,279.6-148.7,280.8-147.4,281.9 M-129.5,316.6c-1.4-1.6-2.8-3.2-4.2-4.7
						c2.3-2.8,4.6-6.2,6.7-10.3c0.1,0.2,0.3,0.4,0.5,0.6c1.2,1.3,2.4,2.6,3.6,3.8C-125,310.2-127.2,313.7-129.5,316.6 M-113.4,335.4
						c2.1-3.2,4.1-7.1,6-11.5c1.3,1.7,2.6,3.4,3.8,5.1c-1.8,4.3-3.7,8.1-5.8,11.3C-110.7,338.6-112,337-113.4,335.4z"/>
					<path class="st55" d="M-162.1,296.9c-1,0.2-1.9,0.3-2.9,0.5c-1.3-1.7-2.7-3.5-4-5.2c1-0.1,2.1-0.3,3.1-0.5c2.8-1.2,5.4-3,8-5.7
						c1.5,1.5,2.9,3,4.4,4.6C-156.3,293.6-159.1,295.7-162.1,296.9 M-145,325.2c-1.2-1.8-2.4-3.5-3.6-5.3c1.9-0.1,3.7-0.3,5.4-0.7
						c3.3-1.4,6.5-3.8,9.5-7.4c1.4,1.6,2.8,3.1,4.2,4.7c-3.1,3.9-6.5,6.5-10,8C-141.3,325-143.1,325.2-145,325.2 M-166.8,320.3
						c-0.8-1.6-1.7-3.1-2.4-4.7c4.6,2,9,3.3,13.2,3.9c1.2,1.7,2.5,3.5,3.7,5.3C-156.9,324-161.8,322.5-166.8,320.3 M-174.8,330.3
						c0.5,0.4,1,0.7,1.4,1c4.5,3.3,8.9,6,13.1,8.3c0.7,1.5,1.4,2.9,2.1,4.3l-9.5-1.9c-3.5-5.5-5.4-8.6-5.6-9.1
						C-173.9,332-174.3,331.1-174.8,330.3 M-172.2,297.5c-2.8-0.3-5.7-0.8-8.7-1.7c-1.1-1.7-2.2-3.4-3.3-5.1c2.8,0.8,5.4,1.3,8,1.5
						C-174.8,293.9-173.5,295.7-172.2,297.5 M-188.5,306.3c-0.6-0.9-1.2-1.9-1.7-2.8c0.5,0.4,1.1,0.8,1.7,1.2
						c5,3.4,9.7,6.3,14.3,8.5c0.9,1.6,1.8,3.2,2.7,4.7c-5.1-2.6-10.4-6-15.9-10C-187.9,307.4-188.2,306.9-188.5,306.3 M-200.7,286.7
						c-0.5-0.8-1-1.5-1.5-2.3c-0.6-0.9-1.2-1.8-1.8-2.7c0.6,0.3,1.2,0.7,1.8,1c4.5,2.6,8.8,4.7,12.9,6.2c1.1,1.7,2.2,3.4,3.4,5.1
						C-190.6,292.3-195.5,289.8-200.7,286.7 M-136.9,347.8c1.1,1.7,2.3,3.5,3.4,5.2c-6.8-0.8-14.2-3.3-22.2-7.6
						c-0.5-1.4-1.1-2.8-1.6-4.2C-150,344.9-143.1,347.1-136.9,347.8 M-130.4,347.9c1.5-0.1,2.9-0.3,4.3-0.6
						c4.6-1.9,8.8-5.9,12.8-11.9c1.3,1.6,2.7,3.2,4,4.9c-4,6.3-8.3,10.4-13,12.3c-1.6,0.3-3.2,0.5-4.8,0.6
						C-128.3,351.4-129.4,349.7-130.4,347.9z"/>
				</g>
			</g>
		</g>
		<g transform="matrix( 1, 0, 0, 1, 0,0) ">
			<g>
				<g id="fgfgg_0_Layer0_0_FILL">
					<path class="st56" d="M-214,206.1c-7.4,5.6-13.4,6.9-18.2,3.9l-6.6-15.2c-0.8-6.2-1.9-12.1-3.1-17.8c3.6-4.3,7-9.7,10.2-16.2
						c8.4-1.9,16.4-7,24-15.6l7.3-1.2c2.6,2.6,3.9,5.8,4,9.6c-5.3,6.8-13.1,13-23.5,18.6l-4.7,7.5c15.7-2.4,29.9-7.4,42.5-15
						c3.9,2.2,5.3,5.8,4.1,10.9c-12,7.7-25.6,11.8-40.8,12.3C-219.2,192.3-217.6,198.4-214,206.1z"/>
					<path class="st57" d="M-204.4,213.1c3.7,12.8,3.6,24.2-0.2,34c-6.9,5.2-15.3,4.8-25.1-1l-23.3-45.7
						c-0.2-11.5-2.2-24.2-5.9-38.2c8.2-10.5,15.6-21.8,22-33.8c3.2,1.2,6.1,4.5,8.8,9.9c-4.4,8.2-9.8,17.7-16.2,28.4
						c0.9,3.3,1.7,6.7,2.5,10.3c1.2,5.7,2.3,11.6,3.1,17.8l6.6,15.2c4.8,3.1,10.8,1.8,18.2-3.9c1.1-0.9,2.3-1.9,3.6-3
						c8.8-6.5,18.4-10,28.7-10.6c5.3,3.1,8.3,7.2,9.1,12.3C-183.6,205.4-194.2,208.2-204.4,213.1z"/>
				</g>
			</g>
		</g>
		<g transform="matrix( 1.16375732421875, -0.193634033203125, 0.1934814453125, 1.162841796875, 0.35,-11.6) ">
			<g>
				<g id="fgfgg_0_Layer0_0_MEMBER_0_FILL">
					<path class="st58" d="M-190.7,111c-6.4,5.9-14.1,9.6-23.1,11c-4.6,5.2-7.9,10.6-10.1,16.2c1.5-5.9,4.6-11.6,9.4-17l0.1-0.2
						l0.2,0c8.8-1.4,16.3-4.9,22.5-10.6c0.4-2.5-0.4-5.2-2.4-8l2.5-0.1c1.2,2.8,1.5,5.7,1,8.5l-0.1,0.2L-190.7,111 M-219.7,138
						c0.9-3.9,2.4-7.1,4.6-9.6l2.8-2.4C-215.5,130.3-217.9,134.2-219.7,138 M-204.3,149.6l-4.9,3.2c-7.3,3.8-12.8,4-16.5,0.6
						l-0.1-0.1l0-0.2l-3.4-13.6l-0.1-0.1l0-0.1c0.2-5.3,0.2-11.8,0.2-19.5l0.9,4.2c0.2,4.9,0.3,10,0.1,15.3l3.3,13.3
						C-221.3,155.6-214.5,154.6-204.3,149.6z"/>
				</g>
			</g>
		</g>
	</g>
	<g transform="matrix( 1.1566162109375, 0.26007080078125, -0.26007080078125, 1.1566162109375, 132.4,-44.3) ">
		<g transform="matrix( -0.929107666015625, 0.3697509765625, 0.3697509765625, 0.929107666015625, 12.2,59.65) ">
			<g>
				<g id="asAD_0_Layer1_0_FILL">
					<path class="st54" d="M-665.6,92.2c2-0.4,4.1-0.9,6.1-1.3c2,3.4,4.5,6.9,7.6,10.7c-2.1,0.4-4.2,0.7-6.2,1
						C-661.1,98.9-663.6,95.5-665.6,92.2 M-623.1,94.8c-0.2,0-0.5,0.1-0.7,0.2c-1.7,0.5-3.4,0.9-5,1.4c-2.9-3.9-5.1-7.5-6.6-10.8
						c2.1-0.5,4.1-1,6.1-1.5C-627.9,87.4-625.8,91-623.1,94.8 M-595.4,74.8c1,2.8,2.6,5.9,4.6,9.1c-0.3,0.1-0.5,0.2-0.8,0.3
						c-1.6,0.6-3.2,1.2-4.8,1.8c-2.2-3.3-3.9-6.5-5-9.4C-599.4,76-597.4,75.4-595.4,74.8z"/>
					<path class="st51" d="M-663.1,70c-2.1,0.1-4.1,0.2-6.2,0.4c0.8-1.9,1.8-3.7,3-5.4c2.1-0.2,4.1-0.4,6.2-0.6
						C-661.3,66.2-662.3,68-663.1,70 M-602.5,63.2c0.8-2.2,1.8-4.3,3.1-6.4c2.2-0.4,4.4-0.7,6.5-1c-1.3,2-2.3,4.1-3.2,6.3
						C-598.2,62.5-600.4,62.8-602.5,63.2 M-594.1,49.9c1.2-1.3,2.4-2.5,3.7-3.7c2-0.2,4.1-0.4,6.1-0.6c-1.3,1.2-2.5,2.5-3.7,3.7
						C-590,49.6-592,49.8-594.1,49.9 M-636.3,67.7c1-2.1,2.2-4.2,3.7-6.2c2.1-0.3,4.3-0.5,6.4-0.8c-1.5,2.1-2.7,4.2-3.7,6.3
						C-632.1,67.2-634.2,67.5-636.3,67.7 M-616.9,50.9c-1.8,0-3.5-0.1-5.3-0.1c1.3-1.1,2.7-2.2,4.2-3.2c1.8-0.1,3.6-0.1,5.4-0.1
						C-614.1,48.6-615.6,49.7-616.9,50.9 M-649.7,48.9c0.8-0.6,1.7-1.1,2.5-1.6c1.6,0.1,3.2,0.1,4.8,0.2c-1,0.6-1.9,1.3-2.8,1.9
						C-646.7,49.2-648.2,49-649.7,48.9z"/>
					<path class="st55" d="M-670.8,74.9c0.4-1.5,0.9-3.1,1.6-4.5c2.1-0.1,4.1-0.3,6.2-0.4c-0.5,1.3-1,2.7-1.4,4
						c-0.3,5,1.3,10.6,5,16.9c-2,0.4-4.1,0.9-6.1,1.3C-669.4,85.7-671.2,79.9-670.8,74.9 M-602.5,63.2c2.1-0.4,4.3-0.7,6.4-1.1
						c-0.3,1-0.6,2-0.9,3c-0.2,3,0.3,6.2,1.6,9.7c-2,0.6-4,1.2-6.1,1.7c-1.5-3.9-2.1-7.4-1.9-10.6C-603.1,65-602.8,64.1-602.5,63.2
						 M-588,49.4c-1.9,2.1-3.6,4.2-4.9,6.4c-2.2,0.3-4.3,0.7-6.5,1c1.5-2.3,3.3-4.6,5.4-6.9C-592,49.8-590,49.6-588,49.4 M-573,37.2
						c-4.3,2.8-8.1,5.6-11.3,8.5c-2,0.2-4,0.4-6.1,0.6c3.7-3.3,8.1-6.5,13.2-9.6c0.9-0.1,1.8-0.2,2.7-0.3c1.1-0.1,2.1-0.2,3.2-0.3
						C-571.8,36.5-572.4,36.9-573,37.2 M-636.3,67.7c2.1-0.2,4.2-0.5,6.3-0.7c-0.7,1.7-1.4,3.4-1.8,5.1c-0.3,3.6,0.6,7.6,2.4,11.9
						c-2,0.5-4.1,1-6.1,1.5c-2.1-4.6-3-8.8-2.7-12.6C-637.7,71.2-637.1,69.4-636.3,67.7 M-612.6,47.5c-1.8,0-3.6,0.1-5.4,0.1
						c4.6-3.3,10-6.4,16-9.4c0.6,0,1.3-0.1,1.9-0.1c1.1-0.1,2.2-0.1,3.3-0.2c-0.6,0.3-1.2,0.6-1.8,0.9
						C-603.9,41.7-608.5,44.6-612.6,47.5 M-622.2,50.8c1.8,0,3.5,0,5.3,0.1c-3.8,3.2-6.9,6.4-9.3,9.8c-2.1,0.3-4.2,0.5-6.4,0.8
						C-629.9,57.8-626.5,54.2-622.2,50.8 M-642.4,47.4c-1.6-0.1-3.2-0.2-4.8-0.2c4.4-2.8,9.4-5.5,14.9-8.2c0.5,0,1.1,0,1.6,0
						c1,0,2,0,3,0c-0.5,0.3-1,0.5-1.6,0.8C-634.1,42.2-638.5,44.8-642.4,47.4 M-649.7,48.9c1.5,0.2,3,0.3,4.5,0.5
						c-6.6,4.7-11.5,9.7-14.9,15c-2,0.2-4.1,0.4-6.2,0.6C-662.6,59.3-657,53.9-649.7,48.9z"/>
					<path class="st53" d="M-628.8,96.4c-0.9,0.3-1.8,0.5-2.6,0.7c-7.1,1.8-13.8,3.3-20.3,4.5c-3.1-3.8-5.7-7.3-7.6-10.7
						c8.1-1.7,16.1-3.5,23.9-5.3C-633.9,88.9-631.7,92.5-628.8,96.4 M-623.1,94.8c-2.7-3.8-4.8-7.4-6.3-10.8
						c9.6-2.4,18.8-4.8,27.9-7.5c1.2,3,2.8,6.1,5,9.4C-605.7,89.4-614.6,92.3-623.1,94.8 M-590.9,83.9c-2-3.2-3.5-6.3-4.6-9.1
						c26.8-8,51.2-17,73.3-27.1l1.5,4.6C-546.1,65.2-569.5,75.8-590.9,83.9z"/>
					<path class="st52" d="M-588,49.4c1.2-1.3,2.4-2.5,3.7-3.7c19.3-1.8,38.8-4.9,58.5-9.3l0.2,0.6C-547,43.2-567.8,47.4-588,49.4
						 M-596.1,62.1c0.8-2.2,1.9-4.3,3.2-6.3c23-3.9,45.9-8.6,68.7-14.3l1.4,4.3C-547.8,52.7-572.3,58.1-596.1,62.1 M-630,67
						c1-2.2,2.2-4.3,3.7-6.3c9-1.1,17.9-2.4,26.9-3.8c-1.3,2.1-2.3,4.2-3.1,6.4C-611.8,64.7-620.9,65.9-630,67 M-632.6,61.5
						c-1.4,2-2.7,4.1-3.7,6.2c-9,0.9-17.9,1.7-26.8,2.2c0.8-1.9,1.8-3.8,3-5.6C-650.9,63.5-641.7,62.6-632.6,61.5 M-616.9,50.9
						c1.4-1.2,2.8-2.3,4.3-3.3c7.4-0.2,14.8-0.7,22.3-1.3c-1.3,1.2-2.6,2.4-3.7,3.7C-601.8,50.5-609.4,50.8-616.9,50.9 M-645.2,49.4
						c0.9-0.7,1.9-1.3,2.8-1.9c8.1,0.3,16.2,0.4,24.3,0.2c-1.5,1-2.8,2.1-4.2,3.2C-630,50.7-637.6,50.2-645.2,49.4z"/>
					<path class="st50" d="M-597,65.1c0.3-1,0.6-2,0.9-3c23.8-4,48.3-9.5,73.3-16.3l0.6,1.9c-22.1,10-46.5,19.1-73.3,27.1
						C-596.7,71.3-597.2,68.1-597,65.1 M-592.9,55.8c1.4-2.2,3-4.3,4.9-6.4c20.2-2.1,41-6.2,62.4-12.4l1.4,4.5
						C-546.9,47.2-569.9,51.9-592.9,55.8 M-598.6,39c0.6-0.3,1.2-0.6,1.8-0.9c6.7-0.4,13.2-0.8,19.7-1.3c-5.1,3-9.5,6.2-13.2,9.6
						c-7.5,0.6-14.9,1-22.3,1.3C-608.5,44.6-603.9,41.7-598.6,39 M-584.3,45.7c3.2-2.9,6.9-5.7,11.3-8.5c0.6-0.4,1.1-0.7,1.7-1.1
						c0.2,0,0.4,0,0.5-0.1c14.9-1.4,29.2-3.3,43-5.8l2,6.1C-545.5,40.8-565,43.9-584.3,45.7 M-645.2,49.4c7.6,0.8,15.2,1.3,23,1.5
						c-4.2,3.4-7.7,6.9-10.4,10.6c-9.1,1.1-18.3,2.1-27.5,2.9C-656.7,59.1-651.8,54.1-645.2,49.4 M-631.8,72.1
						c0.5-1.7,1.1-3.4,1.8-5.1c9.1-1.1,18.2-2.3,27.5-3.8c-0.3,0.9-0.6,1.8-0.9,2.8c-0.2,3.2,0.4,6.7,1.9,10.6
						c-9,2.6-18.3,5.1-27.9,7.5C-631.2,79.7-632.1,75.7-631.8,72.1 M-636.3,67.7c-0.8,1.7-1.4,3.5-1.9,5.3c-0.3,3.8,0.6,8,2.7,12.6
						c-7.8,1.8-15.8,3.6-23.9,5.3c-3.7-6.3-5.4-11.9-5-16.9c0.4-1.4,0.8-2.7,1.4-4C-654.2,69.4-645.3,68.6-636.3,67.7 M-626.3,60.7
						c2.4-3.4,5.5-6.6,9.3-9.8c7.5,0,15.2-0.4,22.9-1c-2.1,2.3-3.9,4.6-5.4,6.9C-608.3,58.3-617.3,59.5-626.3,60.7 M-629.2,39.8
						c0.5-0.3,1-0.5,1.6-0.8c7.9-0.1,15.6-0.3,23.1-0.6c0.8-0.1,1.7-0.1,2.5-0.1c-6.1,3-11.4,6.1-16,9.4c-8.2,0.1-16.3,0.1-24.3-0.2
						C-638.5,44.8-634.1,42.2-629.2,39.8z"/>
				</g>
			</g>
		</g>
		<g transform="matrix( 0.92852783203125, 0.1174163818359375, -0.1202392578125, 0.9507904052734375, 0.5,-0.15) ">
			<g>
				<g id="asAD_0_Layer0_0_FILL">
					<path class="st19" d="M512.3-156.4l0.1-0.8c-1,5-2.3,10-3.9,15.2c-3.2,9.7-7.6,19.7-13.2,29.9c-9.6,1.6-16,0.1-19.2-4.6l0,0
						l14.9,0.3c9.3-16.5,16.4-35.5,21.3-56.8c24.8,9.6,38,11.5,39.6,5.7c0.7,6-2.2,11.2-8.5,15.3C533.5-151.6,523.2-153,512.3-156.4
						 M479.1-181.1c-0.9,1.3-1.8,2.6-2.7,3.9c-0.4,0.6-0.8,1.2-1.2,1.8c-2.5,3.5-5.2,6.8-7.9,10.1c-9.6,11.3-20.7,21.4-33.2,30.1
						l-10.5-10.8c0,0,0.1,0,0.1,0l11.6,5.3C451.3-151.7,465.9-165.2,479.1-181.1 M475.5-161.4c-1.3,1.8-2.7,3.5-4,5.3
						c-10.8,13.3-22.1,23.4-34,30.3l15,4.8c16.6-11.5,32.2-27.5,46.8-48.2c-0.1,2.5-0.6,5.2-1.4,8c-17.2,23.1-30.5,39.1-39.6,47.9
						l-11.8-0.5l-19.3-16.7l0,0l8.8,2.9c19.2-13.1,35.9-29.5,50.1-49.3c-2.8,4.5-5.6,8.7-8.5,12.7
						C476.9-163.4,476.2-162.4,475.5-161.4z"/>
					<path class="st57" d="M471.5-156.2c1.3-1.7,2.7-3.5,4-5.3c0.7-1,1.4-1.9,2.1-2.9c2.9-4,5.7-8.2,8.5-12.7
						c-14.2,19.8-30.9,36.3-50.1,49.3l-8.8-2.9c2.3-1.5,4.6-3,6.8-4.5c12.6-8.8,23.6-18.8,33.2-30.1c2.8-3.3,5.4-6.7,7.9-10.1
						c0.4-0.6,0.8-1.2,1.2-1.8c0.9-1.3,1.8-2.6,2.7-3.9c-13.1,15.9-27.7,29.4-43.8,40.5l-11.6-5.3c24.5-14.2,42-32.9,52.3-56.1
						c22.4,9.8,44,17.4,64.6,22.9l11.3,11.3c-1.6,5.8-14.8,3.9-39.6-5.7c-4.9,21.4-12,40.3-21.3,56.8l-14.9-0.3
						c6.4-9.5,11.8-19.2,16.1-29.2c2.2-5,4.1-10.1,5.6-15.2c0.8-2.9,1.3-5.5,1.4-8c-14.6,20.6-30.2,36.7-46.8,48.2l-15-4.8
						C449.4-132.8,460.7-142.9,471.5-156.2z"/>
				</g>
			</g>
		</g>
	</g>
	<g transform="matrix( 1.3116455078125, -0.067626953125, 0.067626953125, 1.3116455078125, -180.7,9.75) ">
		<g>
			<g id="dfggg_0_Layer1_0_FILL">
				<path class="st59" d="M471.1-11.6L471.1-11.6l-25.7-72.7l5.8-3.1L471.1-11.6 M579.8-29.9l3.5-0.6l105.9,90.9l10.4,8.9l-0.4,4.3
					L582.5-26L474.2-12l8.1-1.4l4.4-0.7L579.8-29.9z"/>
				<path class="st60" d="M471.2-11.5l-0.1-0.1l0-0.1l3.2-0.4l108.3-14l116.6,99.7l-112.7,1L471.2-11.5 M580.2-14.8l-92.8,9.6
					l103.9,69.6l85.9,1.3L580.2-14.8z"/>
				<path class="st61" d="M487.4-5.2l92.8-9.6l97.1,80.5l-85.9-1.3L487.4-5.2z"/>
				<path class="st62" d="M488.1-24.8c-0.2-1.2-0.7-1.9-1.5-2.2c19.6-16,38.2-30,56.1-41.8l7.6,4.6L488.1-24.8 M509.3-76.1l4.8,5.2
					l-27.5,43.9c-0.7-0.3-1.5-0.3-2.5,0C492.1-44.5,500.5-60.9,509.3-76.1 M489.1-77l6.5,4.3L484-27C486.5-43.4,488.2-60.1,489.1-77
					 M569.6-61l3,3.3c-18.1,7.1-36.2,13.9-54.3,20.3c-8.8,3.1-18.4,7.1-28.8,11.9C516-39.1,542.7-50.9,569.6-61z"/>
				<path class="st63" d="M488.1-24.8L488.1-24.8c0.5,2.2,0,5.7-1.3,10.7l-4.4,0.7l-6.1-8.9c3.2-2.6,5.8-4.2,7.7-4.8
					c1-0.3,1.8-0.3,2.5,0l0.1,0C487.3-26.7,487.9-26,488.1-24.8z"/>
				<path class="st64" d="M461.8-77.1l2-1l18.9-9.3L484-27c-1.9,0.6-4.5,2.2-7.7,4.8L461.8-77.1 M572.6-57.6
					c2.8-1.1,5.6-2.3,8.5-3.4c0.5,9.4,0.1,19.8-1.2,31.1l-93.1,15.8c1.4-5,1.8-8.5,1.4-10.6l-0.1-0.1c0.5-0.2,0.9-0.4,1.3-0.6
					c10.5-4.8,20.1-8.7,28.8-11.9C536.4-43.7,554.5-50.5,572.6-57.6z"/>
				<path class="st65" d="M463.7-78.1l-2,1l14.5,54.8l6.1,8.9l-8.1,1.4l-3.2,0.4l-19.9-75.8L463.7-78.1z"/>
				<path class="st66" d="M583.3-30.5l-3.5,0.6c1.3-11.3,1.7-21.6,1.2-31.1c33.6,36.5,68.1,70.7,103.6,102.5l4.5,19L583.3-30.5z"/>
				<path class="st67" d="M560.8-70.9l8.8,9.9c-26.9,10.1-53.6,21.9-80.2,35.5c-0.4,0.2-0.9,0.4-1.3,0.6l62.2-39.4l-7.6-4.6
					c-17.8,11.8-36.5,25.8-56.1,41.8l-0.1,0L514-70.9l-4.8-5.2C500.5-60.9,492.1-44.5,484-27l11.6-45.6l-6.5-4.3
					c-0.9,16.9-2.6,33.5-5.1,49.9l-1.4-60.4l13.5,12.8l5.2-20.6l13.8,22.5l12-19l25,26.3L560.8-70.9z"/>
			</g>
		</g>
	</g>
	<g transform="matrix( 1.2617340087890625, 0, 0, 1.2617340087890625, 441.05,319.35) ">
		<g transform="matrix( -1.0611419677734375, 0, 0, 1.0611419677734375, 775.25,-656.95) " class="st68">
			<g transform="matrix( -0.9423675537109375, 0, 0, 0.9423675537109375, 732.45,459.35) ">
				<g transform="matrix( 1, 0, 0, 1, 0,0) ">
					<g>
						<g id="rte_0_Layer0_0_FILL_1_">
							<path class="st69" d="M63,287.7H-80.1c1.7-252.9,26.8-388.8,75.4-407.5C43.1-117.1,65.6,18.7,63,287.7z"/>
						</g>
					</g>
				</g>
			</g>
		</g>
		<g transform="matrix( 1, 0, 0, 1, -501.45,-331.25) ">
			<g>
				<g id="thrhghj_0_Layer3_0_FILL">
					<path d="M578.7,337.3c1.8,2.7,3.1,6.2,3.7,10.3c0.6,4.2-0.1,8.1-2,11.7c-2,3.7-5.5,6.1-10.5,7.3c-5.1,1.3-9.3,0.1-12.7-3.5
						c-3.4-3.5-4.7-7.7-4-12.4c0.7-4.8,2.8-8.5,6.3-11.4c3.5-2.8,7.1-4.6,10.8-5.2S576.8,334.6,578.7,337.3 M559,343.8
						c-2.4,2.5-3.6,5.5-3.6,9c0,3.5,1.2,6.5,3.6,9c2.4,2.5,5.3,3.8,8.8,3.8s6.3-1.3,8.8-3.8c2.4-2.5,3.6-5.5,3.6-9
						c0-3.5-1.2-6.5-3.6-9c-2.4-2.5-5.3-3.7-8.8-3.7S561.5,341.3,559,343.8z"/>
					<path class="st70" d="M555.4,352.8c0-3.5,1.2-6.5,3.6-9c2.4-2.5,5.3-3.7,8.8-3.7s6.3,1.2,8.8,3.7c2.4,2.5,3.6,5.5,3.6,9
						c0,3.5-1.2,6.5-3.6,9c-2.4,2.5-5.3,3.8-8.8,3.8s-6.3-1.3-8.8-3.8C556.6,359.3,555.4,356.3,555.4,352.8z"/>
				</g>
			</g>
		</g>
		<g transform="matrix( 1, 0, 0, 1, -501.45,-331.25) ">
			<g>
				<g id="thrhghj_0_Layer3_1_FILL">
					<path d="M594.8,285c1.3,1.5,2.2,3.6,2.8,6.1c0.6,2.5,0.3,5.5-1,8.9c-1.3,3.5-4.3,5.9-8.8,7.2c-4.5,1.4-8.2,0.7-10.9-2.1
						c-2.7-2.8-4-6-3.8-9.6c0.2-3.6,1.7-6.8,4.4-9.5c2.7-2.7,6-3.9,9.8-3.7C591,282.6,593.5,283.5,594.8,285 M585.5,286.2
						c-2.7,0-4.9,1-6.8,2.9c-1.9,1.9-2.8,4.2-2.8,7c0,2.7,0.9,5,2.8,7c1.8,1.9,4.1,2.9,6.8,2.9s4.9-1,6.8-2.9c1.8-1.9,2.8-4.2,2.8-7
						c0-2.7-0.9-5-2.8-7C590.4,287.2,588.1,286.2,585.5,286.2z"/>
					<path class="st70" d="M578.7,289.1c1.8-1.9,4.1-2.9,6.8-2.9s4.9,1,6.8,2.9c1.8,1.9,2.8,4.2,2.8,7c0,2.7-0.9,5-2.8,7
						c-1.9,1.9-4.2,2.9-6.8,2.9s-4.9-1-6.8-2.9c-1.9-1.9-2.8-4.2-2.8-7C575.9,293.3,576.8,291,578.7,289.1z"/>
				</g>
			</g>
		</g>
		<g transform="matrix( 1, 0, 0, 1, -501.45,-331.25) ">
			<g>
				<g id="thrhghj_0_Layer3_2_FILL">
					<path d="M606.8,274.5c0.5-3,1.4-5.1,2.7-6.5c1.3-1.4,3.3-2.3,6-2.7c2.7-0.4,4.6,0.3,5.8,2.1c1.2,1.8,1.7,3.8,1.6,5.7
						c-0.1,2-0.6,3.8-1.4,5.5c-0.9,1.7-2.7,3-5.5,3.9c-2.8,0.9-5.2,0.5-7.2-1.1C607,279.8,606.3,277.5,606.8,274.5 M610,270.6
						c-1.2,1.3-1.8,2.8-1.8,4.5c0,1.8,0.6,3.3,1.8,4.5c1.2,1.3,2.7,1.9,4.4,1.9c1.7,0,3.2-0.6,4.4-1.9c1.2-1.3,1.8-2.8,1.8-4.5
						c0-1.8-0.6-3.3-1.8-4.5c-1.2-1.3-2.7-1.9-4.4-1.9C612.7,268.7,611.2,269.3,610,270.6z"/>
					<path class="st70" d="M608.2,275.1c0-1.8,0.6-3.3,1.8-4.5c1.2-1.3,2.7-1.9,4.4-1.9c1.7,0,3.2,0.6,4.4,1.9
						c1.2,1.3,1.8,2.8,1.8,4.5c0,1.8-0.6,3.3-1.8,4.5c-1.2,1.3-2.7,1.9-4.4,1.9c-1.7,0-3.2-0.6-4.4-1.9
						C608.8,278.4,608.2,276.9,608.2,275.1z"/>
				</g>
			</g>
		</g>
		<g transform="matrix( 1, 0, 0, 1, -501.45,-331.25) ">
			<g>
				<g id="thrhghj_0_Layer3_3_FILL">
					<path d="M585.3,176.5c0.2-0.5,0.7-0.1,1.7,1.2c1,1.3,1,3.5,0.1,6.5c-0.9,3.1-2.5,5.2-4.7,6.3c-2.2,1.2-4.2,1-6.1-0.5
						c-1.9-1.5-2.8-3.5-2.8-5.9c0-2.4,0.8-4.2,2.3-5.3c1.5-1.1,3.4-1.6,5.8-1.6C583.9,177.2,585.2,177,585.3,176.5 M576.2,181.3
						c-1,1-1.5,2.2-1.5,3.7c0,1.4,0.5,2.6,1.5,3.6c1,1,2.1,1.5,3.5,1.5c1.4,0,2.6-0.5,3.6-1.5c1-1,1.4-2.2,1.4-3.6
						c0-1.4-0.5-2.6-1.4-3.7c-1-1-2.2-1.5-3.6-1.5C578.3,179.8,577.1,180.3,576.2,181.3z"/>
					<path class="st70" d="M574.7,184.9c0-1.4,0.5-2.6,1.5-3.7c1-1,2.1-1.5,3.5-1.5c1.4,0,2.6,0.5,3.6,1.5c1,1,1.4,2.2,1.4,3.7
						c0,1.4-0.5,2.6-1.4,3.6c-1,1-2.2,1.5-3.6,1.5c-1.4,0-2.6-0.5-3.5-1.5C575.2,187.5,574.7,186.3,574.7,184.9z"/>
				</g>
			</g>
		</g>
		<g transform="matrix( 1, 0, 0, 1, -501.45,-331.25) ">
			<g>
				<g id="thrhghj_0_Layer3_4_FILL">
					<path d="M446.8,160.3c1.9-2.9,4.3-4.3,7-4.3c2.8,0,5.1,1.4,7.1,4.3c1.9,2.9,3,5.8,3.3,8.8c0.3,3-0.5,5.7-2.3,7.9
						c-1.8,2.2-4.3,3.9-7.4,4.9c-3.1,1.1-5.6,0.5-7.7-1.8c-2-2.2-3.1-5.4-3.1-9.4C443.9,166.6,444.9,163.2,446.8,160.3 M448.3,164
						c-1.7,2.4-2.5,5-2.5,7.7c0,2.7,0.8,4.9,2.5,6.4c1.6,1.6,3.3,2.4,5,2.4c1.7,0,3.3-0.8,4.8-2.3c1.5-1.5,2.7-3.6,3.6-6.1
						c0.9-2.6,0.6-5-0.9-7.4c-1.5-2.4-3.6-3.7-6.2-3.9S450,161.6,448.3,164z"/>
					<path class="st70" d="M445.9,171.7c0-2.7,0.8-5.3,2.5-7.7c1.6-2.4,3.7-3.4,6.3-3.2s4.7,1.5,6.2,3.9c1.5,2.4,1.8,4.9,0.9,7.4
						c-0.9,2.6-2.1,4.6-3.6,6.1c-1.5,1.5-3.2,2.3-4.8,2.3c-1.7,0-3.3-0.8-5-2.4C446.7,176.6,445.9,174.5,445.9,171.7z"/>
				</g>
			</g>
		</g>
		<g transform="matrix( 1, 0, 0, 1, -501.45,-331.25) ">
			<g>
				<g id="thrhghj_0_Layer3_5_FILL">
					<path d="M405.6,227.8c0.5,1.5,1.5,3.6,3.1,6.2c1.5,2.6,1.6,5.3,0.4,8c-1.3,2.8-3.1,4.3-5.5,4.7c-2.4,0.4-4.3-0.3-5.5-2.1
						c-1.3-1.8-1.9-4.1-1.9-6.9c0-2.8,0.6-5.4,1.9-7.6c1.2-2.2,2.7-3.5,4.3-4C404,225.7,405,226.3,405.6,227.8 M402.9,230.9
						c-1.1,0-2.3,0.8-3.5,2.3c-1.3,1.6-2,3.2-2,5s0.4,3.2,1.2,4.3c0.8,1.1,1.8,2.1,3.2,2.8c1.4,0.7,2.7,0.4,4-1.1
						c1.3-1.4,1.8-3.4,1.4-5.9c-0.3-2.5-0.8-4.3-1.6-5.6C404.9,231.5,404,230.9,402.9,230.9z"/>
					<path class="st70" d="M399.4,233.2c1.3-1.5,2.4-2.3,3.5-2.3c1.1,0,2,0.6,2.8,1.8c0.8,1.3,1.3,3.1,1.6,5.6
						c0.3,2.5-0.2,4.5-1.4,5.9c-1.3,1.5-2.7,1.8-4,1.1c-1.4-0.7-2.5-1.6-3.2-2.8c-0.8-1.1-1.2-2.5-1.2-4.3S398.1,234.8,399.4,233.2z
						"/>
				</g>
			</g>
		</g>
		<g transform="matrix( 1, 0, 0, 1, -501.45,-331.25) ">
			<g>
				<g id="thrhghj_0_Layer3_6_FILL">
					<path d="M444.8,260.9c1.2-1.3,2.8-2.5,5-3.5c2.2-1,4.4-1.1,6.6-0.3c2.2,0.8,4.4,3.5,6.7,8.2c2.3,4.7,2.4,8.8,0.3,12.3
						c-2.1,3.5-5.3,5.7-9.6,6.5c-4.3,0.9-7.8-0.6-10.4-4.2c-2.7-3.7-3.5-7.4-2.3-11.3C442.4,264.8,443.6,262.2,444.8,260.9
						 M452.4,263.2c-2.7,0-5,1-6.9,2.9c-1.9,2-2.9,4.3-2.9,7.1s1,5.1,2.9,7.1c1.9,2,4.2,2.9,6.9,2.9c2.7,0,5-1,6.9-2.9
						c1.9-2,2.8-4.3,2.8-7.1s-0.9-5.1-2.8-7.1C457.4,264.2,455.1,263.2,452.4,263.2z"/>
					<path class="st70" d="M445.6,266.1c1.9-2,4.2-2.9,6.9-2.9c2.7,0,5,1,6.9,2.9c1.9,2,2.8,4.3,2.8,7.1s-0.9,5.1-2.8,7.1
						c-1.9,2-4.2,2.9-6.9,2.9c-2.7,0-5-1-6.9-2.9c-1.9-2-2.9-4.3-2.9-7.1S443.6,268.1,445.6,266.1z"/>
				</g>
			</g>
		</g>
		<g transform="matrix( 1, 0, 0, 1, -501.45,-331.25) ">
			<g>
				<g id="thrhghj_0_Layer3_7_FILL">
					<path d="M524.8,303.4c1.2,1.2,2.1,3,2.5,5.4c0.4,2.4,0,4.9-1.3,7.5c-1.2,2.6-3.5,4.2-6.8,4.7c-3.3,0.5-5.9-0.3-7.7-2.7
						c-1.8-2.3-2.5-4.9-1.8-7.7c0.6-2.8,1.8-5,3.7-6.5c1.8-1.5,3.9-2.2,6.2-2.4C521.8,301.8,523.5,302.3,524.8,303.4 M517.8,306.1
						c-1.8,0-3.4,0.7-4.7,2c-1.3,1.4-2,3-2,4.9s0.7,3.6,2,4.9c1.3,1.4,2.9,2.1,4.7,2.1c1.8,0,3.4-0.7,4.8-2.1c1.3-1.3,2-3,2-4.9
						c0-1.9-0.7-3.6-2-4.9C521.3,306.7,519.7,306.1,517.8,306.1z"/>
					<path class="st70" d="M513.1,308.1c1.3-1.3,2.9-2,4.7-2c1.8,0,3.4,0.7,4.8,2c1.3,1.4,2,3,2,4.9c0,1.9-0.7,3.6-2,4.9
						c-1.3,1.4-2.9,2.1-4.8,2.1c-1.8,0-3.4-0.7-4.7-2.1c-1.3-1.3-2-3-2-4.9S511.8,309.5,513.1,308.1z"/>
				</g>
			</g>
		</g>
		<g transform="matrix( -1, 0, 0, 1, 636.35,-331.25) ">
			<g>
				<g id="thrhghj_0_Layer3_8_FILL">
					<path d="M721.9,346c-1.2-2.2-1.6-4.7-1.2-7.6c0.4-2.9,1.5-5,3.1-6.4c1.6-1.3,3.2-1.9,4.8-1.8c1.6,0.1,2.8,0.6,3.7,1.5
						c0.8,0.9,1.2,2.8,1.2,5.6s-0.6,5.5-1.8,8.1c-1.2,2.6-2.9,3.9-4.9,3.9S723.1,348.2,721.9,346 M723.5,334.2
						c-0.9,1.3-1.3,2.9-1.3,4.8c0,1.8,0.3,3.7,1,5.5c0.7,1.8,1.7,3.1,3.1,3.7c1.3,0.6,2.6,0,3.7-1.8c1.1-1.8,1.6-4,1.5-6.5
						c-0.1-2.5-0.6-4.4-1.5-5.7c-0.9-1.3-2-1.9-3.2-1.9S724.3,332.9,723.5,334.2z"/>
					<path class="st70" d="M722.1,339c0-1.8,0.4-3.4,1.3-4.8c0.9-1.3,2-1.9,3.2-1.9s2.3,0.6,3.2,1.9c0.9,1.3,1.4,3.2,1.5,5.7
						c0.1,2.5-0.4,4.6-1.5,6.5c-1.1,1.8-2.3,2.5-3.7,1.8c-1.4-0.6-2.4-1.9-3.1-3.7C722.5,342.7,722.1,340.9,722.1,339z"/>
				</g>
			</g>
		</g>
		<g transform="matrix( 1, 0, 0, 1, -501.45,-331.25) ">
			<g>
				<g id="thrhghj_0_Layer3_9_FILL">
					<path d="M439.7,346.3c1,0.8,1.4,2.6,1.4,5.2s-0.3,5.2-0.8,7.7c-0.6,2.5-1.8,3.7-3.8,3.7s-3.8-0.7-5.7-2.2
						c-1.8-1.4-2.7-3.4-2.7-6.1s0.7-4.9,2.1-6.7c1.4-1.8,3.1-2.8,5-2.8C437.2,345.1,438.7,345.5,439.7,346.3 M434.3,346.6
						c-1.9,0.9-3.2,2.4-4,4.6c-0.8,2.2-0.9,4.1-0.3,5.5c0.5,1.5,1.3,2.6,2.4,3.5c1.1,0.9,2.1,1.3,3.1,1.3s1.8-0.3,2.7-1
						c0.8-0.7,1.4-2.1,1.8-4.4c0.4-2.3,0-4.6-1.1-7.1C437.7,346.5,436.2,345.7,434.3,346.6z"/>
					<path class="st70" d="M430.3,351.2c0.8-2.2,2.1-3.7,4-4.6c1.9-0.8,3.4,0,4.5,2.4c1.1,2.4,1.5,4.8,1.1,7.1
						c-0.4,2.3-1,3.8-1.8,4.4c-0.8,0.7-1.7,1-2.7,1s-2-0.4-3.1-1.3c-1.1-0.9-1.9-2-2.4-3.5C429.5,355.2,429.6,353.4,430.3,351.2z"/>
				</g>
			</g>
		</g>
		<g transform="matrix( 1, 0, 0, 1, 0,0) ">
			<g>
				<g id="thrhghj_0_Layer3_10_FILL">
					<path class="st17" d="M75.7,15.8l0.5,0.6c0.8,1.4,1.2,2.5,1.3,3.3l0.1,0.9c0.1,0.4,0.2,0.8,0.2,1c0,0.8-0.3,1.5-1,2
						c-0.9,0.8-2,1.1-3.1,0.8c-1-0.2-1.9-0.9-2.7-2.1c-0.4-0.7-0.7-1.3-0.9-1.8c-0.3-0.6-0.4-1.3-0.4-2.1c0-0.7,0.1-1.3,0.3-2
						c0.3-0.8,0.7-1.4,1.3-1.8c0.6-0.4,1.4-0.4,2.5-0.2c0.5,0.2,0.8,0.4,1,0.5l0.3,0.4L75.7,15.8z"/>
				</g>
			</g>
		</g>
		<g transform="matrix( 1, 0, 0, 1, 0,0) ">
			<g>
				<g id="thrhghj_0_Layer3_11_FILL">
					<path class="st17" d="M90-40.2l0.3,0.5c0.3,0.5,0.5,1,0.6,1.5c0.1,0.7-0.1,1.1-0.6,1.4c-0.4,0.2-0.8,0.2-1.1,0
						c-0.4-0.2-0.6-0.5-0.8-0.9c-0.1-0.3-0.1-0.5-0.2-0.6c-0.1-0.4-0.1-0.6-0.1-0.8c0-0.2,0.1-0.5,0.3-0.8c0.1-0.2,0.3-0.3,0.5-0.4
						C89.3-40.5,89.7-40.5,90-40.2z"/>
				</g>
			</g>
		</g>
		<g transform="matrix( 1, 0, 0, 1, 0,0) ">
			<g>
				<g id="thrhghj_0_Layer3_12_FILL">
					<path class="st17" d="M113.6-59.6c0.7-0.5,1.3-0.5,2.1-0.1c0.8,0.4,1.3,1.2,1.6,2.5c0.2,0.8,0.2,1.6,0.1,2.2
						c-0.2,0.9-0.6,1.5-1.3,1.7c-0.6,0.3-1.3,0.2-2.1-0.4c-0.5-0.4-0.9-1-1.2-1.8c-0.3-0.9-0.4-1.6-0.3-2.2
						C112.6-58.6,113-59.3,113.6-59.6z"/>
				</g>
			</g>
		</g>
		<g transform="matrix( 1, 0, 0, 1, 0,0) ">
			<g>
				<g id="thrhghj_0_Layer3_13_FILL">
					<path class="st17" d="M14-20.9c-0.3-0.8-0.1-1.5,0.6-2.1c0.6-0.5,1.3-0.8,2.1-0.7c0.2,0,0.6,0.1,1,0.2c0.7,0.3,1.2,0.7,1.4,1.2
						c0.4,0.6,0.4,1.2,0.1,1.8c-0.2,0.6-0.6,0.9-1.2,1c-0.5,0.2-1,0.2-1.6,0.2c-0.6-0.1-1.1-0.2-1.5-0.4
						C14.4-19.9,14.1-20.4,14-20.9z"/>
				</g>
			</g>
		</g>
		<g transform="matrix( 1, 0, 0, 1, 0,0) ">
			<g>
				<g id="thrhghj_0_Layer3_14_FILL">
					<path class="st17" d="M-52.4-64.2c1.3-0.4,2.4-0.2,3.3,0.5c0.7,0.6,1.1,1.5,1.2,2.5c0,0.9-0.2,1.8-0.6,2.8
						c-0.7,1.3-1.7,2.3-2.9,2.8c-1.4,0.5-2.7,0.5-3.9-0.3c-0.6-0.4-1-0.9-1.4-1.5c-0.3-0.7-0.4-1.3-0.3-2c0.2-1,0.7-1.9,1.7-2.9
						C-54.5-63.2-53.5-63.9-52.4-64.2z"/>
				</g>
			</g>
		</g>
		<g transform="matrix( 1, 0, 0, 1, 0,0) ">
			<g>
				<g id="thrhghj_0_Layer3_15_FILL">
					<path class="st17" d="M-93.1,5.2c0.3-0.4,0.8-0.6,1.3-0.5c0.5,0.1,0.8,0.5,1,1.1c0,0.2,0,0.7-0.1,1.5c-0.2,1.2-0.4,2.3-0.7,3.2
						c-0.1,0.3-0.2,0.5-0.3,0.7c-0.2,0.2-0.4,0.3-0.8,0.3c-0.3,0-0.5-0.2-0.7-0.4l-0.2-0.7c-0.2-1.8-0.3-3.1-0.1-3.9
						C-93.5,5.9-93.3,5.4-93.1,5.2z"/>
				</g>
			</g>
		</g>
		<g transform="matrix( 1, 0, 0, 1, 0,0) ">
			<g>
				<g id="thrhghj_0_Layer3_16_FILL">
					<path class="st17" d="M-69.3,18.4c0.5-0.5,1.1-0.7,1.8-0.5c0.7,0.3,1.1,0.7,1.3,1.4c0.2,0.5,0.1,1.1-0.2,1.8
						c-0.1,0.4-0.3,0.8-0.6,1.1l-0.7,0.8c-0.2,0.2-0.5,0.5-0.8,0.9c-0.3,0.2-0.6,0.3-1,0.2c-0.3-0.1-0.6-0.3-0.9-0.5
						c-0.4-0.4-0.6-1.1-0.5-1.9c0-0.5,0.3-1.2,0.6-1.9C-69.9,19.2-69.6,18.7-69.3,18.4z"/>
				</g>
			</g>
		</g>
		<g transform="matrix( 1, 0, 0, 1, 0,0) ">
			<g>
				<g id="thrhghj_0_Layer3_17_FILL">
					<path class="st17" d="M-102.9-94.4c0,0,0.2-0.3,0.5-0.8c0.1-0.1,0.3-0.5,0.7-1.2c0.5-0.6,0.8-0.9,0.9-1c0.5-0.2,1-0.2,1.3,0.1
						c0.3,0.2,0.5,0.5,0.5,0.9c0,0.3,0,0.7-0.1,1.1c-0.1,0.6-0.3,1-0.5,1.3l-0.6,0.4c-0.3,0.3-0.5,0.5-0.6,0.6
						c-0.5,0.2-1,0.2-1.4-0.1C-102.8-93.4-103-93.8-102.9-94.4z"/>
				</g>
			</g>
		</g>
		<g transform="matrix( 1, 0, 0, 1, 0,0) ">
			<g>
				<g id="thrhghj_0_Layer3_18_FILL">
					<path class="st17" d="M-51.1-166.6c0.8-0.6,1.5-0.8,2.3-0.5c0.8,0.4,1.3,1,1.3,2c0,0.7-0.2,1.6-0.6,2.4
						c-0.4,0.8-0.9,1.4-1.3,1.8c-0.7,0.5-1.4,0.7-2,0.6c-0.8-0.1-1.4-0.6-1.6-1.4c-0.2-0.7-0.1-1.6,0.5-2.8
						C-52-165.6-51.5-166.2-51.1-166.6z"/>
				</g>
			</g>
		</g>
		<g transform="matrix( 1, 0, 0, 1, 0,0) ">
			<g>
				<g id="thrhghj_0_Layer3_19_FILL">
					<path class="st17" d="M78.5-148c0.3-0.8,0.8-1.3,1.7-1.5l0.7,0.1c0.9,0.3,1.4,0.9,1.5,1.8c0.1,0.9-0.3,1.6-1,2
						c-0.8,0.5-1.5,0.4-2.2-0.2C78.5-146.4,78.2-147.1,78.5-148z"/>
				</g>
			</g>
		</g>
		<g transform="matrix( 1.3257904052734375, 0, 0, 1.3257904052734375, 0,12) ">
			<g>
				<g id="thrhghj_0_Layer2_0_FILL">
					<path class="st71" d="M95.8,98.6c0,0.9,0,1.7-0.1,2.7c-0.6,5.6-3.8,11.6-9.5,18c-0.3-0.5-0.7-1-1-1.5
						c6.3-6.9,9.9-13.3,10.5-19.2C95.7,98.6,95.7,98.6,95.8,98.6 M47.9,103.5c-0.2-0.9-0.4-1.8-0.5-2.7c0.2,0,0.4,0,0.5,0
						c1.3,5.2,4.3,10.9,9.1,16.9c-0.3,0.5-0.6,0.9-1,1.4C51.8,113.6,49.1,108.4,47.9,103.5 M17.3,101.7c-0.3,0.9-0.7,1.7-1.2,2.7
						c-2.3,4.7-6.4,9.7-12.3,15c-0.4-0.5-0.8-1.1-1.2-1.6c6.5-5.7,11-11.1,13.5-16.1C16.5,101.7,16.9,101.7,17.3,101.7 M-37.4,104.5
						c-0.4-0.9-0.8-1.8-1.1-2.7c0.4,0,0.8,0,1.1,0.1c2.5,5,7.1,10.3,13.8,15.9c-0.4,0.5-0.8,1.1-1.2,1.7
						C-30.9,114.2-35.1,109.3-37.4,104.5 M-67.9,101.2c-0.1,0.9-0.3,1.7-0.5,2.7c-1.2,4.8-4.1,9.9-8.5,15.3
						c-0.3-0.4-0.7-0.9-1.1-1.3c5.1-5.9,8.3-11.4,9.6-16.6C-68.2,101.2-68.1,101.2-67.9,101.2 M-175,142.2l-2.8-0.8l14.7-11.4
						c9.7,11.6,20.5,21.4,32.3,29.5c15.8-9,29.3-20.1,40.4-33.3c13.5,14.2,28.1,24.7,43.6,31.5c14.2-7.7,26.6-18,37.1-30.9
						c10.5,12.4,22.8,22.5,37.1,30.3c17.3-7.2,31.8-17.6,43.6-31.3c11.8,12.9,25.3,23.3,40.5,31.3c12.2-7.3,22.6-16,31.2-25.9
						l14.5,10.4l-2.3,0.6l-12.2-8.4c-8.5,9.9-18.9,18.6-31.2,25.9c-15.2-8-28.7-18.4-40.5-31.3c-11.7,13.7-26.3,24.2-43.6,31.3
						C13.1,152,0.7,141.9-9.8,129.5c-10.5,12.9-22.9,23.2-37.1,30.9c-15.5-6.8-30.1-17.2-43.6-31.5c-11.1,13.2-24.6,24.3-40.4,33.3
						c-11.8-8.1-22.5-17.9-32.3-29.5L-175,142.2 M-130.4,50.6C-130.3,50.6-130.3,50.6-130.4,50.6c-6.2-0.2-10.2-2.1-11.9-5.5
						c87.7,4.4,176.1,4.3,265.3-0.2c-1,3.1-4.7,5-11,5.7c-3.2,0.1-6.4,0.3-9.6,0.4c-72.6,2.8-146,2.8-220,0.1
						C-121.9,50.9-126.1,50.7-130.4,50.6 M-113.1,101.7c-0.1-0.9-0.2-1.8-0.2-2.7c0.1,0,0.1,0,0.2,0c0.7,5.8,3.9,12.1,9.7,18.7
						c-0.4,0.4-0.8,0.9-1.2,1.4C-109.6,112.9-112.4,107.1-113.1,101.7z"/>
					<path class="st72" d="M93.4,65.5l8.9-14.5c3.2-0.2,6.4-0.3,9.6-0.4c-4.6,4.2-7,7.7-7.2,10.4l44.4,25.9c6,10,8.5,23.2,7.5,39.4
						l-16-12.9c-6.8,10.3-16,19.8-27.5,28.4C103,137,94,129.4,86.2,119.3c5.7-6.4,8.9-12.5,9.5-18c0.1-0.9,0.2-1.8,0.1-2.7
						c14.4-0.9,29-1.9,43.7-3.1C113.2,83.1,97.8,73.1,93.4,65.5 M71.9,114.7c-5.9-5.1-9.7-9.9-11.5-14.3c8-0.4,16-0.7,24.1-1.2
						C83.3,104,79,109.1,71.9,114.7 M16.1,104.4c0.5-0.9,0.8-1.8,1.2-2.7c10-0.2,20-0.5,30.1-0.8c0.1,0.9,0.3,1.7,0.5,2.7
						c1.2,4.9,3.9,10.1,8.1,15.7c-6.2,8.3-15,16.4-26.6,24.2c-10.3-7.7-18.9-15.7-25.7-24C9.7,114.1,13.8,109.1,16.1,104.4
						 M-9.7,115.3c-6.1-4.8-10.4-9.3-12.8-13.3c8.4,0,16.8,0,25.3-0.1C0.5,106-3.7,110.4-9.7,115.3 M-102.4,99.7
						c7.8,0.4,15.7,0.8,23.5,1.1c-1.6,4.6-5.5,9.4-11.8,14.6C-97.2,109.7-101.2,104.5-102.4,99.7 M-68.4,103.8
						c0.2-0.9,0.4-1.8,0.5-2.7c9.7,0.3,19.5,0.5,29.4,0.6c0.3,0.9,0.7,1.8,1.1,2.7c2.3,4.7,6.5,9.7,12.6,15
						c-5.6,7.9-13.4,15.9-23.4,23.9c-11.6-7.7-21.2-15.8-28.8-24.3C-72.5,113.7-69.7,108.6-68.4,103.8 M-175,142.2l11.9-9.5
						c9.7,11.6,20.5,21.4,32.3,29.5c15.8-9,29.3-20.1,40.4-33.3c13.5,14.2,28.1,24.7,43.6,31.5c14.2-7.7,26.6-18,37.1-30.9
						c10.5,12.4,22.8,22.5,37.1,30.3c17.3-7.2,31.8-17.6,43.6-31.3c11.8,12.9,25.3,23.3,40.5,31.3c12.2-7.3,22.6-16,31.2-25.9
						l12.2,8.4c-3.2,18.3-10,39.9-20.4,64.6c-111.2,61.1-207.9,61.1-290,0.1c0,0,0-0.1-0.1-0.1C-165.9,182.6-172.4,161.1-175,142.2
						 M-113.3,99.1c0,0.9,0.1,1.7,0.2,2.7c0.7,5.4,3.5,11.2,8.5,17.4c-8.9,10.4-17.5,18-25.7,22.6c-12.5-8.6-22.3-18.1-29.4-28.4
						l-16.6,12.9c-0.3-15.2,2.3-28.3,7.8-39.4l44.1-25.9c0.1-3.5-1.8-6.9-5.8-10.4c0,0,0-0.1-0.1-0.1c4.2,0.2,8.5,0.3,12.7,0.5
						l6.5,9.2c-2.4,7.5-18,19.2-46.8,35.2C-143.2,96.9-128.4,98.1-113.3,99.1 M-142.2,45c2.1-4.2,5-8.8,8.8-13.7h248.8
						c3.5,4.9,6.1,9.4,7.7,13.6C33.9,49.4-54.6,49.4-142.2,45L-142.2,45z"/>
					<path class="st73" d="M59.4,96.2c-0.6-6.2,3.2-11.6,11.3-16.3c10.3,5.1,15,11,14.2,17.5C84.3,92,79.6,87,70.7,82.6
						C63.7,86.6,59.9,91.1,59.4,96.2 M-25,95.8c-0.8-6.4,4.2-11.4,14.9-15.2C0.7,84.4,5.7,89.6,4.9,96.1c-0.7-5.2-5.7-9.5-14.9-12.8
						C-19.3,86.4-24.2,90.6-25,95.8 M-102.8,97.5c-0.6-6.5,3.6-12.3,12.8-17.6c8.7,5.4,12.7,11.3,11.9,17.6
						c-0.5-5.4-4.4-10.4-11.9-15C-97.9,87.1-102.2,92-102.8,97.5z"/>
					<path class="st74" d="M60.4,100.4c-0.5-1.5-0.9-2.8-1-4.2c0.6-5.1,4.3-9.6,11.3-13.6C79.6,87,84.3,92,84.9,97.5
						c0,0.5-0.2,1.1-0.3,1.8C76.4,99.7,68.4,100.1,60.4,100.4 M-22.5,102c-1.3-2.2-2.2-4.3-2.4-6.2c0.7-5.1,5.7-9.3,14.9-12.6
						c9.3,3.3,14.3,7.6,14.9,12.8c-0.2,1.8-0.9,3.8-2.1,5.9C-5.7,102-14.2,102-22.5,102 M-78.1,97.5c-0.1,1.1-0.4,2.1-0.8,3.2
						c-7.9-0.3-15.7-0.7-23.5-1.1c-0.2-0.7-0.3-1.5-0.4-2.2c0.7-5.4,4.9-10.4,12.8-14.9C-82.6,87.2-78.6,92.1-78.1,97.5
						 M-113.2,97.9c0,0.4,0.1,0.8,0.1,1.2c0,0-0.1,0-0.2,0c-15.1-1-30-2.2-44.6-3.6c28.8-16,44.4-27.7,46.8-35.2l-6.5-9.2
						c74,2.7,147.4,2.7,220-0.1l-8.9,14.5c4.4,7.6,19.8,17.6,46.1,30c-14.7,1.2-29.3,2.2-43.7,3.1c0,0-0.1,0-0.1,0
						c0-0.2,0.1-0.4,0.1-0.6c0.9-10.9-7.8-20.3-26-28.2c-15.5,7.1-23,16-22.4,26.8c0.1,1.4,0.3,2.8,0.6,4.3c-0.2,0-0.3,0-0.5,0
						c-10.1,0.4-20.2,0.6-30.1,0.8c-0.4,0-0.8,0-1.2,0c1.3-2.6,2.1-5.1,2.3-7.5c0.9-10.6-8.7-19.3-28.7-26.2
						c-20.2,7.5-29.9,16.6-29,27c0.2,2.2,0.8,4.5,2,6.9c-0.3,0-0.7-0.1-1.1-0.1c-9.9-0.1-19.7-0.3-29.4-0.6c-0.2,0-0.3,0-0.5,0
						c0.3-1.4,0.6-2.8,0.6-4.1c0.7-10.4-6.6-19.4-22-26.9C-106,78-113.8,87.3-113.2,97.9z"/>
					<path class="st75" d="M60.4,100.4c-0.3,0-0.5,0-0.8,0c-3.9,0.2-7.8,0.3-11.7,0.5c-0.3-1.5-0.6-2.9-0.6-4.3
						c-0.6-10.7,6.8-19.6,22.4-26.8c18.3,7.9,27,17.2,26,28.2c0,0.2,0,0.4-0.1,0.6c-3.6,0.2-7.2,0.4-10.7,0.6c-0.1,0-0.3,0-0.4,0.1
						c0.2-0.6,0.3-1.2,0.3-1.8C85.7,90.9,81,85.1,70.7,80c-8.2,4.7-11.9,10.1-11.3,16.3C59.5,97.6,59.9,99,60.4,100.4 M-25,95.8
						c0.3,2,1.1,4,2.4,6.2c-0.5,0-0.9,0-1.4,0c-4.5,0-9-0.1-13.5-0.1c-1.1-2.4-1.8-4.7-2-6.9c-0.9-10.5,8.8-19.5,29-27
						c20.1,6.9,29.7,15.6,28.7,26.2c-0.2,2.4-0.9,4.9-2.3,7.5c-4,0.1-8.1,0.1-12.1,0.2c-0.4,0-0.8,0-1.3,0.1c1.2-2.1,1.9-4,2.1-5.9
						c0.8-6.4-4.2-11.6-14.9-15.5C-20.8,84.3-25.8,89.4-25,95.8 M-113.1,99.1c0-0.4-0.1-0.8-0.1-1.2c-0.6-10.6,7.2-19.9,23.4-27.8
						c15.4,7.5,22.7,16.5,22,26.9c-0.1,1.3-0.3,2.7-0.6,4.1c-3.3-0.1-6.5-0.2-9.8-0.4c-0.2,0-0.4-0.1-0.6-0.1
						c0.4-1.1,0.6-2.2,0.8-3.2c0.7-6.4-3.3-12.2-11.9-17.6c-9.1,5.2-13.4,11.1-12.8,17.6c0.1,0.7,0.3,1.4,0.4,2.2
						c-0.1,0-0.3,0-0.5,0C-106.3,99.5-109.7,99.3-113.1,99.1z"/>
					
						<linearGradient id="SVGID_1_" gradientUnits="userSpaceOnUse" x1="-492.1921" y1="295.0074" x2="-492.1921" y2="252.1374" gradientTransform="matrix(1.268 0 0 -1.2494 613.5405 617.0377)">
						<stop  offset="0" style="stop-color:#AFB0AA"/>
						<stop  offset="1" style="stop-color:#807F6D"/>
					</linearGradient>
					<path class="st76" d="M-81.8,280.6c-29.3-21.1-53.9-45.7-73.7-73.7c82.1,61,178.8,61,290-0.1c-15,26.2-39.6,50.8-73.8,73.8
						C14.8,289.4-32.7,289.4-81.8,280.6z"/>
					<path class="st77" d="M-130.3,141.8c8.3-4.6,16.9-12.2,25.7-22.6c0.4-0.5,0.8-0.9,1.2-1.4c-5.8-6.7-9-12.9-9.7-18.7
						c3.4,0.2,6.8,0.4,10.2,0.6c0.2,0,0.3,0,0.5,0c1.3,4.9,5.2,10.1,11.8,15.7c6.3-5.1,10.2-10,11.8-14.6c0.2,0,0.4,0,0.6,0.1
						c3.3,0.1,6.5,0.2,9.8,0.4c-1.3,5.2-4.6,10.7-9.6,16.6c0.4,0.4,0.8,0.9,1.1,1.3c7.6,8.5,17.2,16.6,28.8,24.3
						c10-8,17.8-15.9,23.4-23.9c0.4-0.6,0.8-1.2,1.2-1.7c-6.7-5.6-11.3-10.9-13.8-15.9c4.5,0,9,0.1,13.5,0.1c0.5,0,0.9,0,1.4,0
						c2.5,4,6.7,8.4,12.8,13.3c6-4.9,10.2-9.3,12.5-13.3c0.4,0,0.8-0.1,1.3-0.1c4,0,8-0.1,12.1-0.2c-2.5,5-7,10.4-13.5,16.1
						c0.4,0.5,0.8,1,1.2,1.6c6.8,8.3,15.4,16.3,25.7,24c11.5-7.8,20.4-15.8,26.6-24.2c0.3-0.5,0.7-0.9,1-1.4
						c-4.8-6-7.8-11.7-9.1-16.9c3.9-0.2,7.8-0.3,11.7-0.5c0.3,0,0.5,0,0.8,0c1.8,4.4,5.6,9.2,11.5,14.3c7.2-5.5,11.4-10.7,12.6-15.4
						c0.2,0,0.3-0.1,0.4-0.1c3.6-0.2,7.2-0.4,10.7-0.6c-0.7,5.9-4.2,12.3-10.5,19.2c0.3,0.5,0.7,1,1,1.5
						c7.8,10.2,16.8,17.7,27.1,22.5c11.5-8.6,20.7-18.1,27.5-28.4l16,12.9l1.9,1.4l-1.6,13.9l-14.5-10.4
						c-8.5,9.9-18.9,18.6-31.2,25.9c-15.2-8-28.7-18.4-40.5-31.3c-11.7,13.7-26.3,24.2-43.6,31.3c-14.3-7.8-26.6-17.9-37.1-30.3
						c-10.5,12.9-22.9,23.2-37.1,30.9c-15.5-6.8-30.1-17.2-43.6-31.5c-11.1,13.2-24.6,24.3-40.4,33.3c-11.8-8.1-22.5-17.9-32.3-29.5
						l-14.7,11.4c-0.3-4-0.5-8.6-0.5-13.9l2-1.2l16.6-12.9C-152.6,123.7-142.8,133.1-130.3,141.8z"/>
				</g>
			</g>
		</g>
		<g transform="matrix( 1.3257598876953125, 0, 0, 1.3257598876953125, 0,12) ">
			<g>
				<g id="thrhghj_0_Layer2_0_MEMBER_0_FILL">
					<path class="st78" d="M-112.7,72.8l-24,24.3c2.4,14.1,5.5,28.4,9.5,42.9l-2.1,1.3l3,15.5c0.5,0,1.7,0.2,3.6,0.5
						c5.4,17.9,11.8,36.8,19.3,56.7c-10.9-6.9-23.9-16.3-39.1-28.2l-11-42.4l-2.7-5.3c-0.3-5.7-0.4-12.3-0.3-20l2.3,2.7l3.3-24.6
						L-112.7,72.8 M-126.1,44.3l4-8.5h11.4L-126.1,44.3z"/>
				</g>
			</g>
		</g>
		<g transform="matrix( 0.7598876953125, 0, 0, 0.7598876953125, 14.5,-14.9) ">
			<g>
				<g id="thrhghj_0_Layer0_0_FILL">
					<path class="st79" d="M-163-76c-27.9,2.7-39.1,6.9-33.5,12.4c21.5,3.5,39,7.2,52.6,11.2c20.6,6,31.9,9.3,33.8,9.8
						C-79.8-34.7-44.7-29-4.7-25.4c4.5,0.4,8.2,0.5,11,0.2c4-0.5,7.3-1.7,9.9-3.8c1.2-0.9,2.6-2.5,4.3-4.7c1.8-2.4,3.2-4,4.2-4.9
						c3.7-3.5,9-5.3,15.9-5.4c8.2,0.6,14.2,1,18.1,1.2c10.9,0.7,21.4-0.9,31.5-4.9c-10.2-0.7-20.3-2.9-30.1-6.6
						c13.4-1.5,26.8-0.8,40.1,2.1c11,3.1,21.5,6.5,31.4,10.3c6.6,2.6,13,4.9,19.2,7c-0.2,0-0.3,0-0.5,0.1l-107.7,9
						c-7,0.6-12.4,1.3-16.1,2c-5.9,1.2-10.9,3.1-14.9,5.5C8.5-16.6,4-12.7-2.2-6.7C-7.7-1.5-12.4,2-16.3,3.8
						c-6.2,2.7-13.6,3.3-22.1,1.6c-4.8-0.9-12.3-3.3-22.3-7.1c-18.6-7.1-43.4-14.7-74.3-22.9c-39.6-10.4-64.6-17.2-75.1-20.5
						c-3.5-1.1-6.2-2-8.1-2.8c-2.9-1.2-5.4-2.6-7.4-4.1c-2-1.5-4.4-3.8-7-6.9c-3.5-4.2-5.7-6.7-6.5-7.5c-4.4-4.5-16.4-14-36.1-28.6
						c3.5,1.1,6.2,1.9,8,2.4c3.7,1.1,9.1,2.2,16.3,3.1c7.5,1,13,1.9,16.3,2.8c3.3,0.9,7.8,2.5,13.3,4.9c6.4,2.7,12.1,4,17.3,3.8
						c5.1-0.1,11.9,0.1,20.5,0.6C-175.2-76.6-168.2-76.2-163-76z"/>
				</g>
			</g>
		</g>
		<g transform="matrix( 0.7598876953125, 0, 0, 0.7598876953125, 11.65,-5.35) ">
			<g>
				<g id="thrhghj_0_Layer0_1_FILL">
					<path class="st79" d="M-265.8-239.2c2.5-1.5,4.3-2.7,5.5-3.6c1.2-0.9,2.8-2.2,4.8-4.1c2.2-2,3.7-3.4,4.7-4.1
						c3.9-3,8.8-5.2,14.8-6.7c3.8-0.9,9.3-1.7,16.4-2.3c13.9-1.2,24.9-1.8,33-1.9c12.2-0.2,23.1,0.7,32.8,2.5
						c7.5,1.4,16.8,3.9,28.1,7.7c15.7,5.2,24.9,8.2,27.6,9c6.9,2,17.8,4.4,32.5,7.4c14.3,2.9,25.1,5.5,32.4,7.6
						c7.7,2.3,16.1,5.3,25.3,9c5.5,2.2,13.8,5.8,24.7,10.6l35.9,16c12,5.4,21.1,9.2,27.4,11.4c4.2,1.5,9.5,3.1,15.8,4.9
						c7.1,2,12.4,3.6,15.9,4.6c15,4.5,31.6,10.6,49.8,18.4c8,3.4,16.7,7.2,25.9,11.4c3,1.4,5.3,2.7,6.9,4.1c2.3,1.9,3.6,4,4,6.4
						c0.2,1.1,0,3-0.5,5.7c-0.5,2.5-0.5,4.4-0.2,5.7c0.7,3,3.5,5.4,8.4,7.2c6.1,2.2,9.9,4,11.3,5.4c1.5,1.3,1.9,2.6,1.3,3.7
						c-0.4,1-1.4,1.6-3.2,1.7c-2,0.2-4.3-0.2-6.8-0.9c-1.5-0.5-3.6-1.3-6.4-2.6L128-139c-2.2-0.9-3.8-1.8-4.9-2.5
						c-1.7-1.1-3.1-2.3-4-3.6c-0.6-0.8-1.3-2.1-2.2-3.9c-0.9-1.8-1.6-3.1-2.2-3.9c-1.5-2.1-3.7-3.7-6.7-4.8c-2.2-0.8-5-1.4-8.4-1.8
						c-4.3-0.5-9.3-0.7-14.9-0.8c-2.9,0-7.9,0-14.9,0.1l-49.7,0.7c-2.7,0-4.6,0-5.8-0.1c-2.1-0.2-3.9-0.6-5.4-1.3
						c-2.1-0.8-4.2-2.3-6.3-4.5c-0.3-0.3-2-2.3-5.3-6c-5.5-6.6-12.7-12.9-21.5-19c-5.3-3.8-13.5-8.9-24.5-15.3
						c-10.4-6.1-18.7-10.3-24.9-12.7c-4.9-1.9-10.7-3.6-17.2-5c-3.4-0.7-9.3-1.8-17.6-3.2c-24.6-4-43.2-6.9-55.7-8.5
						c-20.7-2.6-39.3-4.2-56-4.6c-3.2-0.1-5.8-0.1-7.7,0.1c-2.8,0.2-5.3,0.8-7.4,1.6c-2.5,1-4.6,2.5-6.3,4.5c-1.8,2.2-2.8,4.5-3,7
						c-0.2,2.7,0.6,5.4,2.4,8.1c1.3,2,3.3,4.3,5.9,6.7c4.9,4.6,11.2,9.8,18.8,15.6c8.3,6.2,23.9,21.7,46.7,46.3l-33.9-16
						c-6.2-2.9-10.8-5.2-14-6.8c-5.1-2.7-9.5-5.4-13.3-8.1c-5.6-4-11.3-9.1-17.2-15.4c-3.5-3.8-8.6-9.6-15.1-17.6
						c-7.1-8.7-9.2-15.7-6.2-21C-269.5-236.2-268-237.7-265.8-239.2 M-245.3-201.7c0.9,1.3,2.2,2.8,3.8,4.4c7,7,14.7,13,23.3,18
						c8.5,5.1,17.5,9.1,26.8,11.8c-10.9-7.9-18.7-13.3-23.3-16.4C-224.6-190.3-234.8-196.3-245.3-201.7z"/>
				</g>
			</g>
		</g>
		<g transform="matrix( 0.7598876953125, 0, 0, 0.7598876953125, -386.75,44.3) ">
			<g>
				<g id="thrhghj_0_Layer0_2_FILL">
					<path class="st79" d="M303.8-403.2c0-2.3,0.2-4.1,0.5-5.2c0.2-1,0.6-1.8,1.2-2.6c0.6-0.9,1.4-1.4,2.3-1.5
						c0.7-0.1,1.6,0,2.8,0.3c2.3,0.7,3.9,1.2,4.9,1.6c1.8,0.7,11.7,2.1,29.9,4.2c18.2,2.1,27.4,3.2,27.6,3.3
						c0.3,0.1-10.3,0.7-31.6,1.6l-29.8,1.2c-1.1,0.1-1.9,0.5-2.5,1.1L308-398c-0.5,0.4-1.2,0.5-1.9,0.2c-0.7-0.2-1.2-0.7-1.6-1.3
						C304-399.9,303.8-401.2,303.8-403.2z"/>
				</g>
			</g>
		</g>
		<g transform="matrix( 0.7598876953125, 0, 0, 0.7598876953125, -369.3,15.85) ">
			<g>
				<g id="thrhghj_0_Layer0_3_FILL">
					<path class="st79" d="M359.7-390.9c2.6,0.6,6.9,2,12.9,4.1c23.9,8.7,48.7,15,74.3,18.9c2.4,0.4,4.1,0.7,5.2,1
						c1.8,0.6,3.4,1.3,4.6,2.4c1.4,1.2,2.3,2.7,2.6,4.6c0.3,2-0.1,3.5-1.2,4.7c11.3,5.9,23.3,9.8,36,11.6
						c12.7,1.8,25.3,1.5,37.7-0.9c3.1-0.7,5.4-1.1,6.9-1.4c2.7-0.5,5-0.9,6.9-1.1c4.1-0.3,8.5,0.1,13.4,1.1c3.6,0.7,8,1.9,13.2,3.7
						c27.6,9.2,53.4,21.8,77.6,38.1c1.4,0.9,2.1,1.8,2.2,2.8c0.2,1.1-0.4,2-1.7,2.5c-1.2,0.5-2.4,0.6-3.8,0.4
						c-6.3-0.7-13.8-2.7-22.7-6c-5-1.8-12.4-4.6-22.3-8.2c-8-2.6-17.6-4.8-28.8-6.5c-6.5-1-16.3-2.3-29.3-3.8
						c-18.7-2.5-39.7-6.2-62.7-11.2c-14-2.9-34.7-7.7-62.2-14.4c-5.5-1.3-9.8-2.4-12.7-3.3c-4.6-1.4-8.7-2.9-12.2-4.7
						c-2.8-1.4-6.1-3.4-9.8-5.9c-2.1-1.5-5.2-3.7-9.4-6.6c-9.3-6.2-20.3-12.2-33-17.9c-7.7-3.4-19.4-8-35-13.8
						c7.2,0.6,14.1,2.7,20.7,6.2c2.3,1.3,4.1,2.3,5.3,2.8c2.1,1,4,1.5,5.7,1.6c1.2,0.1,2.7-0.1,4.3-0.4c1.9-0.5,3.4-0.8,4.3-1
						C350.5-392.2,354.9-392,359.7-390.9 M344.7-386.9l1.4,0.9c0.4,0.2,0.7,0.3,0.8,0.3h0.5l27.8,2.1
						C355.9-385.8,345.7-386.9,344.7-386.9z"/>
				</g>
			</g>
		</g>
	</g>
</g>
</svg>
