<svg width="292" height="450" viewBox="0 0 292 450" fill="none" xmlns="http://www.w3.org/2000/svg">
<path d="M199.031 51.1666C200.202 50.9062 201.307 50.4771 202.427 50.4475C206.901 50.335 209.216 47.9084 211.162 45.0378C212.554 42.9869 213.054 40.7319 213.241 38.4118C213.318 37.447 213.183 36.3994 214.7 35.9999C216.108 36.3284 216.212 37.3109 216.299 38.2993C216.518 40.8059 217.53 43.0964 218.802 45.3663C220.156 47.7781 222.479 49.2312 225.202 50.3113C225.974 50.6162 227.025 50.4801 227.946 50.4682C228.831 50.4593 229.815 50.3794 229.98 51.3027C230.138 52.1817 229.326 52.6108 228.371 52.5575C226.051 52.4303 224.573 53.5608 223.249 54.8629C221.336 56.748 219.359 58.6094 217.725 60.6573C216.893 61.696 216.745 63.1165 216.302 64.3683C216.213 64.6199 216.282 64.9365 216.124 65.1378C215.592 65.8155 215.797 67.1028 214.28 66.9933C212.767 66.8868 213.066 65.7651 212.889 64.9336C212.271 62.0452 211.435 59.2457 209.164 56.8604C207.077 54.6705 204.026 54.1408 201.088 53.4246C199.872 53.1287 198.803 52.9008 199.031 51.1666Z" fill="#F45050"/>
<path d="M62.031 360.167C63.2016 359.906 64.3071 359.477 65.4273 359.447C69.9009 359.335 72.2159 356.908 74.1618 354.038C75.5538 351.987 76.0541 349.732 76.2405 347.412C76.3177 346.447 76.1829 345.399 77.7001 345C79.1084 345.328 79.2123 346.311 79.2988 347.299C79.5179 349.806 80.5295 352.096 81.8019 354.366C83.1562 356.778 85.4789 358.231 88.202 359.311C88.9738 359.616 90.0248 359.48 90.9464 359.468C91.8313 359.459 92.8151 359.379 92.9802 360.303C93.1382 361.182 92.3255 361.611 91.3709 361.558C89.051 361.43 87.5726 362.561 86.2493 363.863C84.336 365.748 82.3591 367.609 80.7245 369.657C79.8933 370.696 79.7446 372.117 79.3023 373.368C79.2134 373.62 79.2824 373.937 79.1237 374.138C78.5918 374.815 78.7967 376.103 77.2802 375.993C75.7669 375.887 76.0662 374.765 75.889 373.934C75.2713 371.045 74.4355 368.246 72.1643 365.86C70.0774 363.671 67.0263 363.141 64.0883 362.425C62.8718 362.129 61.8026 361.901 62.031 360.167Z" fill="#F45050"/>
<path d="M199.016 380.785C199.62 380.617 200.191 380.34 200.769 380.321C203.078 380.248 204.273 378.683 205.277 376.831C205.996 375.508 206.254 374.053 206.35 372.556C206.39 371.934 206.32 371.258 207.103 371C207.83 371.212 207.884 371.846 207.928 372.483C208.042 374.101 208.564 375.578 209.22 377.043C209.919 378.599 211.118 379.536 212.524 380.233C212.922 380.43 213.464 380.342 213.94 380.334C214.397 380.329 214.905 380.277 214.99 380.873C215.071 381.44 214.652 381.717 214.159 381.682C212.962 381.6 212.199 382.329 211.516 383.17C210.528 384.386 209.508 385.587 208.664 386.908C208.235 387.578 208.159 388.494 207.93 389.302C207.884 389.464 207.92 389.669 207.838 389.799C207.563 390.236 207.669 391.066 206.887 390.996C206.106 390.927 206.26 390.203 206.168 389.667C205.85 387.803 205.418 385.997 204.246 384.458C203.169 383.045 201.594 382.704 200.078 382.242C199.45 382.051 198.898 381.904 199.016 380.785Z" fill="#F45050"/>
<path d="M215.025 143.742C215.969 143.54 216.861 143.208 217.764 143.185C221.372 143.098 223.239 141.219 224.808 138.997C225.93 137.409 226.334 135.663 226.484 133.867C226.547 133.12 226.438 132.309 227.661 132C228.797 132.254 228.881 133.015 228.951 133.78C229.127 135.721 229.943 137.494 230.969 139.251C232.061 141.119 233.935 142.243 236.131 143.08C236.753 143.316 237.601 143.21 238.344 143.201C239.058 143.194 239.851 143.132 239.984 143.847C240.111 144.528 239.456 144.86 238.686 144.819C236.815 144.72 235.623 145.595 234.556 146.603C233.013 148.063 231.419 149.504 230.1 151.089C229.43 151.894 229.31 152.993 228.953 153.963C228.882 154.157 228.937 154.402 228.809 154.558C228.38 155.083 228.546 156.08 227.323 155.995C226.102 155.912 226.344 155.044 226.201 154.4C225.703 152.164 225.029 149.997 223.197 148.15C221.514 146.455 219.053 146.044 216.684 145.49C215.703 145.261 214.841 145.084 215.025 143.742Z" fill="#F45050"/>
<path d="M83.025 132.742C83.9691 132.54 84.8606 132.208 85.7639 132.185C89.3717 132.098 91.2386 130.219 92.8079 127.997C93.9305 126.409 94.3339 124.663 94.4843 122.867C94.5466 122.12 94.4378 121.309 95.6614 121C96.7971 121.254 96.8809 122.015 96.9506 122.78C97.1274 124.721 97.9432 126.494 98.9693 128.251C100.061 130.119 101.935 131.243 104.131 132.08C104.753 132.316 105.601 132.21 106.344 132.201C107.058 132.194 107.851 132.132 107.984 132.847C108.111 133.528 107.456 133.86 106.686 133.819C104.815 133.72 103.623 134.595 102.556 135.603C101.013 137.063 99.4187 138.504 98.1004 140.089C97.4301 140.894 97.3102 141.993 96.9535 142.963C96.8817 143.157 96.9374 143.402 96.8094 143.558C96.3804 144.083 96.5457 145.08 95.3228 144.995C94.1024 144.912 94.3437 144.044 94.2008 143.4C93.7026 141.164 93.0286 138.997 91.197 137.15C89.5141 135.455 87.0535 135.044 84.6841 134.49C83.7031 134.261 82.8408 134.084 83.025 132.742Z" fill="#F45050"/>
<path d="M93.017 54.7634C93.659 54.5786 94.2652 54.274 94.8795 54.253C97.3328 54.1732 98.6023 52.4511 99.6694 50.4139C100.433 48.9584 100.707 47.3581 100.809 45.7115C100.852 45.0269 100.778 44.2834 101.61 43.9999C102.382 44.233 102.439 44.9302 102.486 45.6317C102.607 47.4106 103.161 49.0361 103.859 50.647C104.602 52.3586 105.876 53.3898 107.369 54.1564C107.792 54.3727 108.368 54.2761 108.874 54.2677C109.359 54.2614 109.899 54.2047 109.989 54.86C110.076 55.4837 109.63 55.7883 109.107 55.7505C107.834 55.6602 107.024 56.4624 106.298 57.3865C105.249 58.7243 104.165 60.0453 103.268 61.4987C102.812 62.2358 102.731 63.2439 102.488 64.1323C102.44 64.3108 102.477 64.5356 102.39 64.6784C102.099 65.1593 102.211 66.0729 101.379 65.9952C100.55 65.9196 100.714 65.1236 100.617 64.5335C100.278 62.4837 99.8194 60.4969 98.574 58.8041C97.4296 57.25 95.7564 56.8741 94.1452 56.3658C93.4781 56.1558 92.8917 55.9941 93.017 54.7634Z" fill="#F45050"/>
<path fill-rule="evenodd" clip-rule="evenodd" d="M168.967 12.2729C211.538 78.5264 228.756 241.956 174.998 350.721L165.704 351.058L159.063 341.726C150.412 342.047 141.765 342.362 133.115 342.669L125.149 352.533L115.855 352.872C76.8665 247.482 116.77 81.974 168.715 12.2824L168.967 12.2729Z" fill="#3C486B"/>
<path fill-rule="evenodd" clip-rule="evenodd" d="M124.339 291.835C126.716 291.748 128.782 289.85 128.935 287.609C129.089 285.368 127.275 283.611 124.897 283.697C122.517 283.786 120.454 285.683 120.3 287.924C120.147 290.165 121.961 291.921 124.339 291.835Z" fill="#F9D949"/>
<path fill-rule="evenodd" clip-rule="evenodd" d="M124.423 194.636C126.746 194.552 128.764 192.695 128.914 190.506C129.065 188.315 127.292 186.599 124.968 186.683C122.644 186.768 120.626 188.624 120.475 190.814C120.324 193.004 122.098 194.721 124.423 194.636Z" fill="#F9D949"/>
<path fill-rule="evenodd" clip-rule="evenodd" d="M177.061 84.9515L174.265 89.4823L168.326 87.4343L171.793 92.8153L167.018 97.1161L171.785 96.6172L170.867 101.404L175.215 97.5631L179.185 101.543L179.346 95.7889L185.57 95.1502L180.607 92.3572L183.591 87.7661L178.022 90.01L177.061 84.9515Z" fill="#F9D949"/>
<path d="M177.061 84.9515L174.265 89.4823L168.326 87.4343L171.793 92.8153L167.018 97.1161L171.785 96.6172L170.867 101.404L175.215 97.5631L179.185 101.543L179.346 95.7889L185.57 95.1502L180.607 92.3572L183.591 87.7661L178.022 90.01L177.061 84.9515Z" stroke="#F9D949" stroke-width="0.288" stroke-miterlimit="22.9256"/>
<path d="M142.711 321.654C142.691 321.935 142.781 322.179 142.942 322.35C143.091 322.509 143.3 322.603 143.538 322.594C143.775 322.585 144 322.475 144.171 322.306C144.354 322.123 144.479 321.869 144.498 321.589C144.548 320.873 144.313 320.238 143.897 319.792L143.896 319.793C143.489 319.359 142.906 319.103 142.246 319.127C141.585 319.15 140.967 319.452 140.498 319.917L140.496 319.916C140.016 320.395 139.694 321.051 139.644 321.766C139.566 322.917 139.944 323.941 140.619 324.66L140.619 324.663C141.283 325.37 142.236 325.789 143.321 325.749C144.406 325.71 145.423 325.219 146.185 324.46C146.965 323.685 147.486 322.629 147.564 321.478C147.672 319.889 147.15 318.478 146.216 317.482C145.297 316.499 143.971 315.918 142.463 315.972C140.954 316.028 139.544 316.71 138.482 317.763C137.406 318.833 136.685 320.291 136.577 321.878C136.438 323.902 137.107 325.7 138.298 326.972C139.478 328.23 141.172 328.973 143.105 328.902C145.036 328.832 146.843 327.96 148.201 326.611C149.574 325.245 150.494 323.388 150.633 321.365C150.801 318.908 149.987 316.721 148.536 315.175L148.537 315.173C147.101 313.64 145.034 312.734 142.679 312.82C140.325 312.906 138.123 313.968 136.467 315.615L136.466 315.616C134.797 317.276 133.679 319.533 133.511 321.989L132.231 322.037C132.421 319.269 133.689 316.717 135.583 314.835L135.585 314.837C137.495 312.938 140.036 311.714 142.761 311.613C145.486 311.514 147.872 312.559 149.53 314.328L149.532 314.326C151.179 316.079 152.101 318.549 151.911 321.318C151.751 323.648 150.683 325.797 149.084 327.387C147.474 328.99 145.322 330.024 143.021 330.109C140.72 330.192 138.704 329.311 137.305 327.817C135.917 326.337 135.137 324.255 135.297 321.925C135.427 320.03 136.299 318.281 137.598 316.989C138.913 315.68 140.667 314.835 142.545 314.767C144.423 314.699 146.07 315.42 147.212 316.638C148.34 317.841 148.975 319.534 148.845 321.43C148.744 322.89 148.071 324.237 147.069 325.236C146.05 326.248 144.693 326.901 143.239 326.954C141.784 327.008 140.51 326.451 139.627 325.508L139.625 325.509C138.753 324.581 138.264 323.273 138.365 321.813C138.435 320.789 138.907 319.84 139.612 319.138L139.613 319.137C140.333 318.42 141.294 317.959 142.329 317.922C143.362 317.883 144.266 318.278 144.89 318.944L144.89 318.946C145.504 319.599 145.849 320.518 145.779 321.541C145.738 322.132 145.462 322.681 145.054 323.088C144.631 323.506 144.065 323.779 143.454 323.801C142.846 323.824 142.313 323.592 141.947 323.2C141.592 322.822 141.393 322.292 141.433 321.7L142.711 321.654Z" fill="#F9D949"/>
<path d="M165.484 270.402C165.5 270.208 165.607 270.035 165.774 269.907C165.928 269.79 166.133 269.716 166.352 269.708C166.568 269.7 166.762 269.761 166.903 269.867C167.052 269.981 167.137 270.15 167.123 270.342C167.089 270.829 166.805 271.28 166.371 271.608C165.947 271.928 165.382 272.139 164.779 272.161C164.17 272.183 163.634 272.013 163.254 271.721C162.863 271.423 162.638 270.992 162.67 270.505C162.725 269.718 163.186 268.994 163.888 268.459L163.89 268.457C164.578 267.932 165.504 267.59 166.499 267.554C167.494 267.517 168.375 267.793 168.996 268.271C169.628 268.758 169.991 269.453 169.937 270.238C169.863 271.321 169.226 272.32 168.256 273.058C167.298 273.787 166.013 274.261 164.632 274.311C163.248 274.361 162.021 273.979 161.159 273.317C160.288 272.646 159.782 271.689 159.857 270.607C159.951 269.224 160.767 267.949 162.004 267.008C163.231 266.076 164.874 265.466 166.648 265.402C168.417 265.337 169.986 265.828 171.09 266.676C172.203 267.532 172.847 268.754 172.75 270.138C172.636 271.812 171.649 273.359 170.14 274.506L170.14 274.507C168.648 275.644 166.643 276.385 164.484 276.463C162.321 276.542 160.407 275.944 159.066 274.912L159.065 274.91C157.711 273.867 156.928 272.385 157.043 270.711L155.869 270.753C155.739 272.638 156.626 274.314 158.166 275.497C159.717 276.687 161.928 277.379 164.427 277.287C166.927 277.197 169.241 276.34 170.962 275.031C172.671 273.729 173.796 271.981 173.926 270.095C174.035 268.501 173.287 267.089 171.992 266.094C170.679 265.086 168.815 264.503 166.704 264.579C164.59 264.656 162.635 265.378 161.181 266.487C159.738 267.582 158.795 269.058 158.687 270.65C158.597 271.94 159.204 273.088 160.258 273.901C161.327 274.722 162.851 275.198 164.575 275.135C166.298 275.073 167.893 274.483 169.081 273.579C170.253 272.686 171.023 271.487 171.112 270.197C171.181 269.199 170.711 268.313 169.898 267.686C169.066 267.052 167.891 266.682 166.556 266.731C165.217 266.78 163.985 267.237 163.066 267.936C162.16 268.623 161.565 269.549 161.496 270.548C161.449 271.244 161.781 271.867 162.351 272.307L162.35 272.309C162.936 272.757 163.774 273.02 164.723 272.984C165.669 272.95 166.545 272.625 167.194 272.132L167.194 272.13C167.83 271.647 168.25 270.996 168.298 270.299C168.325 269.895 168.136 269.533 167.8 269.279C167.46 269.015 166.964 268.862 166.408 268.882C165.848 268.903 165.33 269.093 164.948 269.383C164.582 269.663 164.338 270.04 164.31 270.444L165.484 270.402Z" fill="#F9D949"/>
<path fill-rule="evenodd" clip-rule="evenodd" d="M155.833 194.961L153.572 196.72L150.965 196.04L150.842 198.665L148.433 200.226L150.54 201.742L150.149 204.371L152.899 203.635L154.818 205.347L156.14 202.915L158.922 202.425L157.821 200.126L159.376 197.802L156.681 197.37L155.833 194.961Z" fill="#F9D949"/>
<path fill-rule="evenodd" clip-rule="evenodd" d="M163.954 227.714L161.531 231.646L156.377 229.87L159.385 234.535L155.243 238.267L159.377 237.833L158.585 241.984L162.356 238.651L165.798 242.107L165.935 237.116L171.337 236.559L167.032 234.137L169.62 230.155L164.789 232.103L163.954 227.714Z" fill="#F9D949"/>
<path fill-rule="evenodd" clip-rule="evenodd" d="M136.002 245.852L133.338 247.926L130.256 247.125L130.11 250.225L127.271 252.067L129.757 253.856L129.294 256.959L132.54 256.089L134.806 258.114L136.365 255.241L139.65 254.664L138.351 251.951L140.184 249.207L137.006 248.695L136.002 245.852Z" fill="#F9D949"/>
<path fill-rule="evenodd" clip-rule="evenodd" d="M137.707 85.7301C141.173 85.6032 144.18 82.8374 144.404 79.5724C144.628 76.3078 141.987 73.7471 138.521 73.8737C135.058 74.0005 132.051 76.7673 131.827 80.0316C131.604 83.2966 134.244 85.8558 137.707 85.7301Z" fill="#F9D949"/>
<path fill-rule="evenodd" clip-rule="evenodd" d="M118.455 214.511L115.789 216.586L112.706 215.784L112.562 218.883L109.722 220.727L112.21 222.514L111.746 225.618L114.99 224.749L117.258 226.772L118.817 223.9L122.101 223.323L120.804 220.609L122.635 217.866L119.457 217.355L118.455 214.511Z" fill="#F9D949"/>
<path d="M185.894 168.287C185.917 167.937 186.071 167.622 186.302 167.396C186.518 167.18 186.796 167.046 187.091 167.035C187.385 167.025 187.649 167.139 187.834 167.336C188.034 167.55 188.145 167.855 188.121 168.206C188.059 169.098 187.657 169.915 187.061 170.509C186.477 171.085 185.703 171.462 184.879 171.491C184.059 171.522 183.333 171.2 182.826 170.663L182.822 170.663C182.305 170.11 182.012 169.319 182.072 168.426C182.173 166.992 182.821 165.679 183.794 164.714L183.793 164.712C184.745 163.767 186.011 163.157 187.36 163.107C188.709 163.058 189.899 163.579 190.726 164.459C191.567 165.357 192.035 166.632 191.936 168.066C191.802 170.043 190.91 171.855 189.568 173.188C188.245 174.504 186.488 175.35 184.611 175.419C182.734 175.487 181.08 174.765 179.938 173.54C178.773 172.297 178.121 170.541 178.257 168.566C178.43 166.047 179.572 163.734 181.282 162.037C182.975 160.354 185.225 159.269 187.63 159.182C190.034 159.093 192.15 160.019 193.616 161.586C195.1 163.167 195.933 165.408 195.761 167.927C195.551 170.99 194.159 173.797 192.077 175.864L192.077 175.867C190.019 177.917 187.276 179.24 184.341 179.347C181.409 179.454 178.833 178.325 177.044 176.416L177.043 176.414C175.241 174.487 174.224 171.768 174.433 168.706L172.84 168.763C172.604 172.21 173.754 175.287 175.803 177.472L175.806 177.47C177.87 179.673 180.843 180.97 184.238 180.847C187.632 180.722 190.799 179.201 193.175 176.836L193.179 176.838C195.538 174.491 197.118 171.315 197.354 167.868C197.553 164.968 196.585 162.376 194.857 160.532C193.114 158.674 190.598 157.575 187.732 157.679C184.864 157.785 182.191 159.073 180.179 161.068C178.188 163.048 176.86 165.724 176.66 168.624C176.499 170.984 177.291 173.091 178.693 174.591C180.12 176.11 182.168 177.005 184.507 176.919C186.846 176.834 189.031 175.785 190.671 174.155C192.288 172.543 193.371 170.367 193.534 168.007C193.658 166.192 193.049 164.565 191.962 163.408C190.864 162.234 189.272 161.539 187.462 161.606C185.65 161.671 183.963 162.486 182.692 163.744L182.691 163.743C181.443 164.988 180.605 166.666 180.48 168.484C180.392 169.762 180.824 170.903 181.586 171.716L181.585 171.719C182.362 172.55 183.493 173.041 184.777 172.994C186.063 172.948 187.264 172.371 188.158 171.479L188.159 171.477C189.04 170.604 189.625 169.425 189.714 168.147C189.764 167.413 189.517 166.751 189.074 166.281C188.618 165.794 187.95 165.504 187.194 165.531C186.435 165.558 185.73 165.9 185.204 166.423C184.696 166.927 184.351 167.611 184.3 168.345L185.894 168.287Z" fill="#F9D949"/>
<path fill-rule="evenodd" clip-rule="evenodd" d="M188.796 225.64C192.516 225.504 195.748 222.533 195.988 219.027C196.229 215.52 193.39 212.77 189.669 212.907C185.948 213.041 182.716 216.013 182.475 219.52C182.235 223.025 185.073 225.776 188.796 225.64Z" fill="#F9D949"/>
<path fill-rule="evenodd" clip-rule="evenodd" d="M123.733 149.69L121.309 153.622L116.157 151.846L119.165 156.512L115.022 160.243L119.156 159.809L118.364 163.961L122.136 160.628L125.577 164.083L125.715 159.091L131.116 158.536L126.812 156.114L129.398 152.132L124.569 154.079L123.733 149.69Z" fill="#F9D949"/>
<path fill-rule="evenodd" clip-rule="evenodd" d="M182.373 299.44L183.883 302.448L188.208 300.726L185.285 304.638L188.196 307.386L184.929 307.28L185.11 310.559L182.453 308.111L179.316 311.078L179.752 307.087L175.484 306.958L179.2 304.767L177.562 301.727L181.221 303.004L182.373 299.44Z" fill="#F9D949"/>
<path fill-rule="evenodd" clip-rule="evenodd" d="M77.3135 258.472L107.381 232.171C106.247 256.848 107.227 281.203 110.794 304.117L79.1953 331.759L77.3135 258.472Z" fill="#3C486B"/>
<path fill-rule="evenodd" clip-rule="evenodd" d="M234.381 258.559L207.588 234.218C205.312 259.047 200.941 283.707 194.151 307.101L222.307 332.682L234.381 258.559Z" fill="#3C486B"/>
<path fill-rule="evenodd" clip-rule="evenodd" d="M139.579 353.692C149.229 353.339 158.88 352.988 168.53 352.636C194.649 375.352 166.808 411.21 148.645 431.971C133.248 412.435 110.202 378.435 139.579 353.692ZM145.265 357.41C127.976 371.97 141.539 391.982 150.6 403.479C161.289 391.26 177.674 370.157 162.303 356.789C156.625 356.995 150.943 357.202 145.265 357.41Z" fill="#3C486B"/>
<path fill-rule="evenodd" clip-rule="evenodd" d="M182.775 59.0382C175.471 65.2085 166.891 68.9759 157.906 69.3038C148.92 69.6319 140.817 66.4738 134.323 60.8079C142.716 41.9007 151.989 25.3543 161.696 12.2497L161.943 12.2404C169.895 24.7003 176.939 40.65 182.775 59.0382Z" fill="#F9D949"/>
<path fill-rule="evenodd" clip-rule="evenodd" d="M159.423 103.178C175.471 102.591 187.643 114.382 186.606 129.507C185.568 144.633 171.713 157.374 155.665 157.96C139.616 158.546 127.444 146.756 128.481 131.63C129.518 116.504 143.375 103.763 159.423 103.178Z" fill="#F9D949"/>
<path fill-rule="evenodd" clip-rule="evenodd" d="M159.055 108.538C171.961 108.068 181.751 117.55 180.917 129.715C180.083 141.88 168.939 152.127 156.033 152.599C143.126 153.07 133.336 143.587 134.17 131.423C135.004 119.258 146.148 109.01 159.055 108.538Z" fill="#3C486B"/>
<path fill-rule="evenodd" clip-rule="evenodd" d="M158.203 103.836C158.908 103.81 159.445 104.328 159.398 104.993C159.353 105.659 158.744 106.218 158.039 106.245C157.332 106.27 156.797 105.752 156.842 105.087C156.888 104.422 157.498 103.862 158.203 103.836Z" fill="#3C486B"/>
<path fill-rule="evenodd" clip-rule="evenodd" d="M157.054 154.745C157.759 154.719 158.294 155.238 158.248 155.902C158.203 156.567 157.593 157.127 156.887 157.153C156.182 157.179 155.646 156.661 155.692 155.996C155.737 155.331 156.347 154.771 157.054 154.745Z" fill="#3C486B"/>
<path fill-rule="evenodd" clip-rule="evenodd" d="M130.475 130.222C130.52 129.557 131.129 128.998 131.834 128.971C132.541 128.945 133.076 129.463 133.03 130.128C132.985 130.793 132.375 131.354 131.67 131.379C130.963 131.406 130.428 130.887 130.475 130.222Z" fill="#3C486B"/>
<path fill-rule="evenodd" clip-rule="evenodd" d="M182.061 130.861C182.107 130.197 182.716 129.636 183.423 129.609C184.128 129.584 184.664 130.102 184.618 130.768C184.572 131.432 183.962 131.993 183.257 132.018C182.552 132.044 182.015 131.526 182.061 130.861Z" fill="#3C486B"/>
<path fill-rule="evenodd" clip-rule="evenodd" d="M138.868 111.451C139.4 110.963 140.208 110.933 140.676 111.385C141.142 111.837 141.09 112.599 140.559 113.088C140.027 113.577 139.218 113.607 138.751 113.154C138.284 112.703 138.336 111.94 138.868 111.451Z" fill="#3C486B"/>
<path fill-rule="evenodd" clip-rule="evenodd" d="M174.532 147.901C175.065 147.412 175.873 147.383 176.341 147.835C176.807 148.286 176.755 149.05 176.223 149.538C175.692 150.025 174.882 150.056 174.416 149.604C173.949 149.153 174.001 148.39 174.532 147.901Z" fill="#3C486B"/>
<path fill-rule="evenodd" clip-rule="evenodd" d="M177.153 111.836C177.62 112.288 177.568 113.052 177.036 113.539C176.504 114.028 175.695 114.058 175.229 113.606C174.762 113.154 174.814 112.392 175.345 111.903C175.878 111.414 176.686 111.385 177.153 111.836Z" fill="#3C486B"/>
<path fill-rule="evenodd" clip-rule="evenodd" d="M139.862 147.383C140.329 147.834 140.277 148.598 139.746 149.086C139.215 149.574 138.404 149.604 137.938 149.152C137.471 148.7 137.524 147.937 138.054 147.449C138.587 146.961 139.395 146.932 139.862 147.383Z" fill="#3C486B"/>
<path fill-rule="evenodd" clip-rule="evenodd" d="M142.248 119.635L144.349 119.56L156.268 144.842L154.167 144.917L142.248 119.635Z" fill="#F9D949"/>
<path fill-rule="evenodd" clip-rule="evenodd" d="M146.149 113.27L148.25 113.195L160.168 138.477L158.068 138.552L146.149 113.27Z" fill="#F9D949"/>
</svg>
