<svg width="30" height="30" viewBox="0 0 30 30" fill="none" xmlns="http://www.w3.org/2000/svg">
<path d="M28.125 22.5V20.625H26.1553C26.0346 20.0381 25.8015 19.4801 25.4691 18.9816L26.8659 17.5847L25.5403 16.2591L24.1434 17.6559C23.6449 17.3235 23.0869 17.0904 22.5 16.9697V15H20.625V16.9697C20.0381 17.0904 19.4801 17.3235 18.9816 17.6559L17.5847 16.2591L16.2591 17.5847L17.6559 18.9816C17.3235 19.4801 17.0904 20.0381 16.9697 20.625H15V22.5H16.9697C17.0916 23.0972 17.3297 23.6522 17.6559 24.1434L16.2591 25.5403L17.5847 26.8659L18.9816 25.4691C19.4801 25.8015 20.0381 26.0346 20.625 26.1553V28.125H22.5V26.1553C23.0869 26.0346 23.6449 25.8015 24.1434 25.4691L25.5403 26.8659L26.8659 25.5403L25.4691 24.1434C25.8015 23.6449 26.0346 23.0869 26.1553 22.5H28.125ZM21.5625 24.375C20.0119 24.375 18.75 23.1131 18.75 21.5625C18.75 20.0119 20.0119 18.75 21.5625 18.75C23.1131 18.75 24.375 20.0119 24.375 21.5625C24.375 23.1131 23.1131 24.375 21.5625 24.375ZM11.25 5.625H15V7.5H11.25V5.625Z" fill="#F45050"/>
<path d="M5.625 26.25V3.75H20.625V12.1875H22.5V3.75C22.5 2.71594 21.6591 1.875 20.625 1.875H5.625C4.59094 1.875 3.75 2.71594 3.75 3.75V26.25C3.75 27.2841 4.59094 28.125 5.625 28.125H13.125V26.25H5.625Z" fill="#F45050"/>
</svg>
